<svg xmlns="http://www.w3.org/2000/svg" xmlns:xlink="http://www.w3.org/1999/xlink" viewBox="0 0 244.65 225.62"><defs><style>.cls-1{mask:url(#mask);filter:url(#luminosity-noclip-4);}.cls-2,.cls-4,.cls-44,.cls-46,.cls-48,.cls-49,.cls-50,.cls-51,.cls-52,.cls-53,.cls-54,.cls-56,.cls-57,.cls-58,.cls-59,.cls-6,.cls-60,.cls-61,.cls-62,.cls-63{fill-rule:evenodd;}.cls-10,.cls-13,.cls-14,.cls-2,.cls-20,.cls-23,.cls-29,.cls-30,.cls-36,.cls-4,.cls-40,.cls-50,.cls-6{mix-blend-mode:multiply;}.cls-2{fill:url(#radial-gradient);}.cls-3{mask:url(#mask-2);filter:url(#luminosity-noclip-5);}.cls-4{fill:url(#radial-gradient-2);}.cls-5{mask:url(#mask-3);filter:url(#luminosity-noclip-6);}.cls-6{fill:url(#radial-gradient-3);}.cls-7{isolation:isolate;}.cls-8{fill:url(#linear-gradient);}.cls-9{fill:url(#linear-gradient-2);}.cls-10,.cls-34{opacity:0.7;}.cls-11,.cls-14,.cls-30,.cls-40,.cls-50{fill:#f982ff;}.cls-12,.cls-33,.cls-37{opacity:0.8;}.cls-12,.cls-22,.cls-24,.cls-25,.cls-33,.cls-37,.cls-39{mix-blend-mode:screen;}.cls-12{fill:url(#Áåçûìÿííûé_ãðàäèåíò_6);}.cls-13,.cls-14,.cls-19,.cls-20,.cls-22,.cls-24,.cls-25,.cls-27,.cls-39,.cls-41,.cls-50,.cls-51,.cls-52,.cls-55{opacity:0.5;}.cls-15,.cls-56{fill:#fff;}.cls-16{fill:url(#radial-gradient-4);}.cls-17,.cls-19{fill:#ffffa4;}.cls-17,.cls-23,.cls-30{opacity:0.3;}.cls-17,.cls-19,.cls-26,.cls-27,.cls-34,.cls-35,.cls-41,.cls-51,.cls-52,.cls-53,.cls-55{mix-blend-mode:soft-light;}.cls-18{fill:url(#linear-gradient-3);}.cls-20,.cls-29{fill:#e200ff;}.cls-21{fill:url(#linear-gradient-4);}.cls-22{fill:url(#Áåçûìÿííûé_ãðàäèåíò_6-2);}.cls-23{fill:url(#Áåçûìÿííûé_ãðàäèåíò_7);}.cls-24{fill:url(#Áåçûìÿííûé_ãðàäèåíò_6-3);}.cls-25{fill:url(#Áåçûìÿííûé_ãðàäèåíò_6-4);}.cls-26,.cls-52,.cls-53,.cls-55{fill:#2ec6ff;}.cls-27,.cls-34,.cls-35,.cls-51{fill:#90ffa2;}.cls-28{fill:url(#linear-gradient-5);}.cls-29{opacity:0.4;}.cls-31{fill:url(#linear-gradient-6);}.cls-32{fill:url(#linear-gradient-7);}.cls-33{fill:url(#Áåçûìÿííûé_ãðàäèåíò_6-5);}.cls-36,.cls-40{opacity:0.2;}.cls-37{fill:url(#Áåçûìÿííûé_ãðàäèåíò_6-6);}.cls-38{fill:url(#linear-gradient-8);}.cls-39{fill:url(#Áåçûìÿííûé_ãðàäèåíò_6-7);}.cls-42{fill:#fefea1;}.cls-43{mask:url(#mask-4);}.cls-44{fill:url(#radial-gradient-5);}.cls-45{mask:url(#mask-5);}.cls-46{fill:url(#radial-gradient-6);}.cls-47{mask:url(#mask-6);}.cls-48{fill:url(#radial-gradient-7);}.cls-49{fill:url(#radial-gradient-8);}.cls-54{fill:url(#radial-gradient-9);}.cls-57{fill:url(#radial-gradient-10);}.cls-58{fill:url(#radial-gradient-11);}.cls-59{fill:url(#radial-gradient-12);}.cls-60{fill:url(#radial-gradient-13);}.cls-61{fill:url(#radial-gradient-14);}.cls-62{fill:url(#radial-gradient-15);}.cls-63{fill:url(#radial-gradient-16);}.cls-64{filter:url(#luminosity-noclip-3);}.cls-65{filter:url(#luminosity-noclip-2);}.cls-66{filter:url(#luminosity-noclip);}</style><filter id="luminosity-noclip" x="11.64" y="-8411.64" width="120.37" height="32766" filterUnits="userSpaceOnUse" color-interpolation-filters="sRGB"><feFlood flood-color="#fff" result="bg"/><feBlend in="SourceGraphic" in2="bg"/></filter><mask id="mask" x="11.64" y="-8411.64" width="120.37" height="32766" maskUnits="userSpaceOnUse"><g class="cls-66"/></mask><radialGradient id="radial-gradient" cx="71.82" cy="114.18" r="84.26" gradientUnits="userSpaceOnUse"><stop offset="0.01" stop-color="#fff"/><stop offset="0.1" stop-color="#f9f9f9"/><stop offset="0.22" stop-color="#e7e7e7"/><stop offset="0.37" stop-color="#cacaca"/><stop offset="0.53" stop-color="#a1a1a1"/><stop offset="0.7" stop-color="#6d6d6d"/><stop offset="0.88" stop-color="#2f2f2f"/><stop offset="1"/></radialGradient><filter id="luminosity-noclip-2" x="0" y="-8411.64" width="179.32" height="32766" filterUnits="userSpaceOnUse" color-interpolation-filters="sRGB"><feFlood flood-color="#fff" result="bg"/><feBlend in="SourceGraphic" in2="bg"/></filter><mask id="mask-2" x="0" y="-8411.64" width="179.32" height="32766" maskUnits="userSpaceOnUse"><g class="cls-65"/></mask><radialGradient id="radial-gradient-2" cx="89.66" cy="109.71" r="100.19" xlink:href="#radial-gradient"/><filter id="luminosity-noclip-3" x="90.24" y="-8411.64" width="149.17" height="32766" filterUnits="userSpaceOnUse" color-interpolation-filters="sRGB"><feFlood flood-color="#fff" result="bg"/><feBlend in="SourceGraphic" in2="bg"/></filter><mask id="mask-3" x="90.24" y="-8411.64" width="149.17" height="32766" maskUnits="userSpaceOnUse"><g class="cls-64"/></mask><radialGradient id="radial-gradient-3" cx="164.82" cy="124" r="89.14" xlink:href="#radial-gradient"/><linearGradient id="linear-gradient" x1="163.2" y1="26.47" x2="130.88" y2="58.79" gradientUnits="userSpaceOnUse"><stop offset="0" stop-color="#8b6dff"/><stop offset="0.19" stop-color="#6b6dff"/><stop offset="0.57" stop-color="#326cff"/><stop offset="0.85" stop-color="#0e6cff"/><stop offset="1" stop-color="#006cff"/></linearGradient><linearGradient id="linear-gradient-2" x1="162.08" y1="36.22" x2="137.32" y2="60.98" xlink:href="#linear-gradient"/><linearGradient id="Áåçûìÿííûé_ãðàäèåíò_6" x1="-3873.36" y1="559.38" x2="-3852.75" y2="559.38" gradientTransform="matrix(-0.96, 0.29, 0.29, 0.96, -3704.68, 615.52)" gradientUnits="userSpaceOnUse"><stop offset="0.15" stop-color="#1fb6ff"/><stop offset="1"/></linearGradient><radialGradient id="radial-gradient-4" cx="-2780.94" cy="355.88" r="105.45" gradientTransform="matrix(-0.96, 0.29, 0.29, 0.97, -2624.51, 543.53)" xlink:href="#linear-gradient"/><linearGradient id="linear-gradient-3" x1="208.71" y1="111.54" x2="144.92" y2="175.32" xlink:href="#linear-gradient"/><linearGradient id="linear-gradient-4" x1="136.7" y1="113" x2="123.84" y2="125.86" xlink:href="#linear-gradient"/><linearGradient id="Áåçûìÿííûé_ãðàäèåíò_6-2" x1="124.04" y1="116.58" x2="138.43" y2="116.58" gradientTransform="matrix(1, 0, 0, 1, 0, 0)" xlink:href="#Áåçûìÿííûé_ãðàäèåíò_6"/><linearGradient id="Áåçûìÿííûé_ãðàäèåíò_7" x1="-3890.47" y1="673.5" x2="-3884.68" y2="673.5" gradientTransform="matrix(-0.96, 0.29, 0.29, 0.96, -3704.68, 615.52)" gradientUnits="userSpaceOnUse"><stop offset="0.31" stop-color="#e200ff"/><stop offset="0.37" stop-color="#e309ff"/><stop offset="0.46" stop-color="#e622ff"/><stop offset="0.59" stop-color="#eb4cff"/><stop offset="0.73" stop-color="#f184ff"/><stop offset="0.89" stop-color="#f9ccff"/><stop offset="1" stop-color="#fff"/></linearGradient><linearGradient id="Áåçûìÿííûé_ãðàäèåíò_6-3" x1="-3859.14" y1="815.16" x2="-3807.59" y2="815.16" gradientTransform="matrix(-0.9, 0.44, 0.88, 1.81, -4014.09, 274.4)" xlink:href="#Áåçûìÿííûé_ãðàäèåíò_6"/><linearGradient id="Áåçûìÿííûé_ãðàäèåíò_6-4" x1="143.88" y1="76.79" x2="179.5" y2="76.79" gradientTransform="matrix(1, 0, 0, 1, 0, 0)" xlink:href="#Áåçûìÿííûé_ãðàäèåíò_6"/><linearGradient id="linear-gradient-5" x1="163.92" y1="126.58" x2="196.27" y2="126.58" gradientUnits="userSpaceOnUse"><stop offset="0" stop-color="#6138ff"/><stop offset="0.21" stop-color="#5a3eff"/><stop offset="0.49" stop-color="#484eff"/><stop offset="0.83" stop-color="#2969ff"/><stop offset="1" stop-color="#1779ff"/></linearGradient><linearGradient id="linear-gradient-6" x1="79.12" y1="75.08" x2="39.58" y2="114.61" xlink:href="#linear-gradient"/><linearGradient id="linear-gradient-7" x1="73.8" y1="85.95" x2="44.7" y2="115.05" xlink:href="#linear-gradient"/><linearGradient id="Áåçûìÿííûé_ãðàäèåíò_6-5" x1="-3776.6" y1="573.89" x2="-3743.49" y2="573.89" xlink:href="#Áåçûìÿííûé_ãðàäèåíò_6"/><linearGradient id="Áåçûìÿííûé_ãðàäèåíò_6-6" x1="74.33" y1="83.77" x2="81.15" y2="83.77" gradientTransform="matrix(1, 0, 0, 1, 0, 0)" xlink:href="#Áåçûìÿííûé_ãðàäèåíò_6"/><linearGradient id="linear-gradient-8" x1="180.08" y1="86.05" x2="169.79" y2="96.33" xlink:href="#linear-gradient"/><linearGradient id="Áåçûìÿííûé_ãðàäèåíò_6-7" x1="170.05" y1="88.47" x2="180.56" y2="88.47" gradientTransform="matrix(1, 0, 0, 1, 0, 0)" xlink:href="#Áåçûìÿííûé_ãðàäèåíò_6"/><filter id="luminosity-noclip-4" x="11.64" y="11.33" width="120.37" height="205.7" filterUnits="userSpaceOnUse" color-interpolation-filters="sRGB"><feFlood flood-color="#fff" result="bg"/><feBlend in="SourceGraphic" in2="bg"/></filter><mask id="mask-4" x="11.64" y="11.33" width="120.37" height="205.7" maskUnits="userSpaceOnUse"><g class="cls-1"><path class="cls-2" d="M121.41,216.71c.49,0,1,0,1.44,0-2.76.22-5.54.34-8.35.34A102.85,102.85,0,1,1,132,12.82a102.22,102.22,0,1,0-10.6,203.89Z"/></g></mask><radialGradient id="radial-gradient-5" cx="71.82" cy="114.18" r="84.26" gradientUnits="userSpaceOnUse"><stop offset="0.01" stop-color="#43d9ff"/><stop offset="0.12" stop-color="#49daff"/><stop offset="0.27" stop-color="#5bdeff"/><stop offset="0.44" stop-color="#78e4ff"/><stop offset="0.64" stop-color="#a1ecff"/><stop offset="0.85" stop-color="#d4f6ff"/><stop offset="1" stop-color="#fff"/></radialGradient><filter id="luminosity-noclip-5" x="0" y="0" width="179.32" height="219.42" filterUnits="userSpaceOnUse" color-interpolation-filters="sRGB"><feFlood flood-color="#fff" result="bg"/><feBlend in="SourceGraphic" in2="bg"/></filter><mask id="mask-5" x="0" y="0" width="179.32" height="219.42" maskUnits="userSpaceOnUse"><g class="cls-3"><path class="cls-4" d="M4.09,117c0,44.62,27.13,83.31,66.78,102.41C29,201.06,0,161.25,0,115.12,0,51.54,55.07,0,123,0a129.19,129.19,0,0,1,56.33,12.76A129.67,129.67,0,0,0,127.07,1.89C59.15,1.89,4.09,53.43,4.09,117Z"/></g></mask><radialGradient id="radial-gradient-6" cx="89.66" cy="109.71" r="100.19" xlink:href="#radial-gradient-5"/><filter id="luminosity-noclip-6" x="90.24" y="22.37" width="149.17" height="203.25" filterUnits="userSpaceOnUse" color-interpolation-filters="sRGB"><feFlood flood-color="#fff" result="bg"/><feBlend in="SourceGraphic" in2="bg"/></filter><mask id="mask-6" x="90.24" y="22.37" width="149.17" height="203.25" maskUnits="userSpaceOnUse"><g class="cls-5"><path class="cls-6" d="M234.69,106.12c-5.21-39.88-34-71.3-71.65-83.75,39.57,11.53,70.14,43.72,75.53,85,7.43,56.84-35.77,109.34-96.48,117.28a116.54,116.54,0,0,1-51.85-4.82,116.91,116.91,0,0,0,48,3.61C198.93,215.46,242.12,163,234.69,106.12Z"/></g></mask><radialGradient id="radial-gradient-7" cx="164.82" cy="124" r="89.14" xlink:href="#radial-gradient-5"/><radialGradient id="radial-gradient-8" cx="43.13" cy="36.6" r="6.09" gradientUnits="userSpaceOnUse"><stop offset="0" stop-color="#8b6dff"/><stop offset="0.14" stop-color="#866dff"/><stop offset="0.32" stop-color="#766dff"/><stop offset="0.52" stop-color="#5c6dff"/><stop offset="0.73" stop-color="#386cff"/><stop offset="0.96" stop-color="#0a6cff"/><stop offset="1" stop-color="#006cff"/></radialGradient><radialGradient id="radial-gradient-9" cx="42.03" cy="45.76" r="2.92" xlink:href="#radial-gradient-8"/><radialGradient id="radial-gradient-10" cx="26.72" cy="160.96" r="9.83" xlink:href="#radial-gradient-8"/><radialGradient id="radial-gradient-11" cx="-3.46" cy="-42.67" r="6.45" gradientTransform="translate(3.73 126.55) rotate(13.63)" xlink:href="#radial-gradient-8"/><radialGradient id="radial-gradient-12" cx="49.89" cy="547.56" r="10.13" gradientTransform="matrix(0.65, -0.76, 0.76, 0.65, -212.11, -173.33)" xlink:href="#radial-gradient-8"/><radialGradient id="radial-gradient-13" cx="3.98" cy="-51.96" r="4.38" gradientTransform="translate(3.73 126.55) rotate(13.63)" xlink:href="#radial-gradient-8"/><radialGradient id="radial-gradient-14" cx="-886.98" cy="-209.28" r="2.77" gradientTransform="matrix(-0.73, -0.68, -0.68, 0.73, -766.94, -299.89)" xlink:href="#radial-gradient-8"/><radialGradient id="radial-gradient-15" cx="-832.84" cy="-315.5" r="2.77" gradientTransform="matrix(-0.73, -0.68, -0.68, 0.73, -766.94, -299.89)" xlink:href="#radial-gradient-8"/><radialGradient id="radial-gradient-16" cx="123.96" cy="-216.02" r="4.95" gradientTransform="matrix(0.78, 0.62, -0.62, 0.78, 6.26, 216.25)" xlink:href="#radial-gradient-8"/></defs><g class="cls-7"><g id="Layer_2" data-name="Layer 2"><g id="Layer_1-2" data-name="Layer 1"><path class="cls-8" d="M166.53,44.22q-.33.89-.75,1.77c-.14.29-.28.58-.44.87s-.27.51-.41.77a3.54,3.54,0,0,1-.19.33l-.39.65c-.53.87-1.12,1.75-1.76,2.62-.43.6-.88,1.21-1.36,1.82-2.07,2.66-4.52,5.39-7.11,8.32-3.87,4.32-6.26,7.08-8.4,8a3.43,3.43,0,0,1-2.17.38c-8.56-1.2-19-28.74-7.93-41.85a14.84,14.84,0,0,1,1.51-1.57c.45-.42.93-.84,1.42-1.23,4.73-3.74,11.67-6,18.1-3.38a18.83,18.83,0,0,1,10.8,13.6A16.18,16.18,0,0,1,166.53,44.22Z"/><path class="cls-9" d="M166.54,44.24a18.91,18.91,0,0,1-.76,1.75c-.14.29-.28.58-.44.87s-.27.51-.41.77a3.54,3.54,0,0,1-.19.33l-.39.65a46.38,46.38,0,0,1-3.11,4.46c-2.07,2.65-4.51,5.4-7.12,8.32-3.87,4.32-6.26,7.07-8.4,8v0A74.34,74.34,0,0,1,141.9,58.9v0c-.13-.46-.25-.94-.38-1.41l-.18-.77c-.11-.45-.21-.93-.31-1.39-.24-1.22-.44-2.46-.58-3.69-.69-6.09.2-12,4.54-15.91,3.78-3.37,7.24-4.37,10.28-3.8a11.11,11.11,0,0,1,5.7,3.2c.14.13.28.27.41.41a25.73,25.73,0,0,1,5.16,8.7S166.54,44.23,166.54,44.24Z"/><g class="cls-10"><path class="cls-11" d="M142.63,61.29c-2.37-8.33-3.13-17.91,3-23.39,9.44-8.44,16.91-2,20.76,6.6,0-.08.08-.19.12-.27C163,34.73,155.1,26.65,145,35.7,138.27,41.68,139.78,52.57,142.63,61.29Z"/></g><path class="cls-12" d="M156.16,22c-.93-.32-4.59-1.63-8,.21s-5.48,6.31-4.33,7.92,4.34-.88,9.28-.31c8.37.95,12.44,9.46,13.69,8.56C168.24,37.32,164.74,25,156.16,22Z"/><g class="cls-13"><path class="cls-11" d="M161.24,53.07c-2.07,2.65-4.51,5.4-7.12,8.32-3.87,4.32-6.26,7.07-8.4,8v0a3.43,3.43,0,0,1-2.17.38c-8.56-1.2-19-28.74-7.93-41.85a14.84,14.84,0,0,1,1.51-1.57c.45-.42.93-.84,1.42-1.23a26.42,26.42,0,0,0-3.38,6.55,42.31,42.31,0,0,0-2.09,14.41,2.62,2.62,0,0,0,0,.28v.05a4.51,4.51,0,0,0,.32,1.7,1.83,1.83,0,0,0,.67.81c1.81,1,.63-5.38.95-8.07.39-3.33,1.33-7.35,4.53-8.33,1.13-.35,2.6-.05,3,1a2.88,2.88,0,0,1,0,1.67A59,59,0,0,1,140,42.12c-.16.45-.31.89-.43,1.36a10.78,10.78,0,0,0-.33,5.84,6.41,6.41,0,0,0,1.15,2.27l0,0a5.28,5.28,0,0,0,4.06,2.09c3.89-.16,6-5.23,9.9-5.81a6,6,0,0,1,5.41,2.46,9.38,9.38,0,0,1,1.42,2.69A0,0,0,0,0,161.24,53.07Z"/></g><path class="cls-14" d="M142.55,35.21A59,59,0,0,1,140,42.12c-.16.45-.31.89-.43,1.36.07-3.28-.19-7.35-2-6.44-2.94,1.47-.2,12.27-2.59,14.87-1.31,1.44-1.92-2.89-1.92-5.53a4.51,4.51,0,0,0,.32,1.7,1.83,1.83,0,0,0,.67.81c1.81,1,.63-5.38.95-8.07.39-3.33,1.33-7.35,4.53-8.33,1.13-.35,2.6-.05,3,1A2.88,2.88,0,0,1,142.55,35.21Z"/><path class="cls-15" d="M166,33.27c.6-1.25-5.23-9.23-6.86-8.32-.6.34-.52,1.85-.36,2.68C159.55,31.78,165.44,34.35,166,33.27Z"/><path class="cls-16" d="M89.44,193.74c34.43,23.83,84.35,6.19,107-21.14.58-.68,1.12-1.36,1.66-2.06.92-1.16,1.76-2.36,2.54-3.54a87.51,87.51,0,0,0,5.09-8.72s0,0,0,0a91.66,91.66,0,0,0,5.78-14.06.66.66,0,0,0,.06-.22q.83-2.75,1.52-5.64c2.45-10.6,2.92-22.92-1.78-35.49a57.75,57.75,0,0,0-6.92-13.08c-16.59-23.77-49.66-35.08-75.21-32-4.62.58-26.18,3.2-43,17.09a57.15,57.15,0,0,0-9.06,9.3,51.3,51.3,0,0,0-3.46,5C50.25,127.9,56,170.64,89.44,193.74Z"/><path class="cls-17" d="M206.76,97.56C192.84,69.19,152.54,61,140.83,61.09c-8.8.06-46.32,2.8-52.45,20.2s20.86,39.64,23.56,41.8c27.23,21.8,79.7,33.62,95.66,11.78C216.07,123.28,212,108.32,206.76,97.56Z"/><path class="cls-18" d="M204.3,160.33c13.4-17.82,8.71-43.23-1.45-54.54-1.84-2-7.74-8.61-14.28-7.68-4.08.58-6.7,3.83-7.81,5.17-13.29,15.82-28.16,14.91-37.53,30.09-6.59,10.67-10.12,28.76-1.88,38.32C153.15,185.37,188.68,181.1,204.3,160.33Z"/><path class="cls-19" d="M138.2,154.68a44.87,44.87,0,0,1,5.46-14c9-14.51,23.17-13.62,35.84-28.73,1.08-1.27,3.59-4.39,7.47-4.94,6.25-.89,11.9,5.39,13.64,7.33,5.94,6.61,9.92,18.28,9.18,30.21,2.94-14-1.34-28.73-8.32-36.52-1.74-1.93-7.39-8.21-13.64-7.33-3.88.56-6.39,3.68-7.45,4.93-12.7,15.12-26.89,14.26-35.86,28.74A45.4,45.4,0,0,0,138.2,154.68Z"/><path class="cls-17" d="M191.61,101.07c8.65.38,13.43,13.68,14.31,16.13,1.79,5,5.45,15.18-.28,22.16-6,7.27-19.21,7.47-26.37,1.54-9.94-8.23-5.64-26.17,2.24-34.5C183,104.81,186.76,100.85,191.61,101.07Z"/><path class="cls-20" d="M167.27,141c4.36,3.59,12,3.35,18.91.05,0,0,.09,0,.11-.07a18.78,18.78,0,0,0,6.24-5c2.85-3.4,4.46-7.67,3.23-11.4a5,5,0,0,0-.45-1c-1.31-2.79-4.26-5.65-8-5.41-3.49.21-6.56,3.1-7.4,7.21-10.47-1-16.71,5.14-16.05,9.45A9.51,9.51,0,0,0,167.27,141Z"/><path class="cls-20" d="M120.22,120.74a13.32,13.32,0,0,1,2.23-9.11,7.05,7.05,0,0,1,2.81-2.23c5-2.16,12,2.46,13.87,9.24a13.93,13.93,0,0,1,.47,3.24c.07,5.59-3.15,10.85-7.83,11.32C126.06,133.76,120.86,127,120.22,120.74Z"/><path class="cls-21" d="M132.13,130.51c4.21-.43,7.11-5.16,7.05-10.19a12.72,12.72,0,0,0-.43-2.91c-1.66-6.11-7.95-10.27-12.48-8.32a6.28,6.28,0,0,0-2.52,2,11.93,11.93,0,0,0-2,8.19C122.31,124.94,127,131,132.13,130.51Z"/><path class="cls-22" d="M124.43,113.44c2,6.62,6.89,11,10.91,9.77a5.59,5.59,0,0,0,3.09-2.54A12.08,12.08,0,0,0,138,118c-1.55-5.69-7.41-9.57-11.64-7.76a5.83,5.83,0,0,0-2.35,1.88C124.17,112.5,124.29,113,124.43,113.44Z"/><path class="cls-15" d="M129.65,110.88c.81-.88,3.55.42,4.39,2.42.25.6.46,1.56.08,2-.78.91-3.85-.57-4.57-2.6A2,2,0,0,1,129.65,110.88Z"/><path class="cls-23" d="M211.11,122.28a48.9,48.9,0,0,1,.52,21.68q.83-2.75,1.52-5.64A54.39,54.39,0,0,0,211.11,122.28Z"/><path class="cls-20" d="M140.07,175.54c10.42,12.36,38.43,11.12,56.41-2.94.58-.68,1.12-1.36,1.66-2.06.92-1.16,1.76-2.36,2.54-3.54a87.51,87.51,0,0,0,5.09-8.72c-.45.68-.92,1.37-1.41,2-15.61,20.79-51.15,25.06-63,11.38-8.25-9.56-4.72-27.65,1.86-38.34a34.47,34.47,0,0,1,4.38-5.65,34.41,34.41,0,0,0-5.94,7.41C135,146.33,131.51,165.4,140.07,175.54Z"/><path class="cls-24" d="M136.18,63.1c17.93-2,40.75,8.2,43.11,15.4,1.19,3.62-3,5.87-6.43,7.7C153.24,96.69,121.54,80.44,119,72,117,65.29,133.32,63.43,136.18,63.1Z"/><path class="cls-25" d="M172.86,86.2c-8.51,4.55-19.29,4.07-29,1.37,8.34,1.6,17.08,1.32,24.22-2.5,3.41-1.82,7.61-4.07,6.42-7.7C173,72.84,163.4,67.09,152,64c13.39,2.64,25.6,9.37,27.3,14.53C180.49,82.12,176.28,84.36,172.86,86.2Z"/><path class="cls-26" d="M72.56,107.43c7.25-3.07,16.58,3.88,20.55,6.83,18.14,13.51,13.29,29.53,30.74,50.7,14,17,27.72,19.51,26.47,26.32-1.39,7.49-19.28,11.45-33.72,9.41-23.31-3.3-44.08-23.19-50.9-46.54C60.61,136.7,61.76,112,72.56,107.43Z"/><path class="cls-27" d="M133,198.83c-16.51-.13-39.77-5-56.44-27.77A62.89,62.89,0,0,1,64.19,139a12.17,12.17,0,0,1,6.86-11.89,31.19,31.19,0,0,0,11.7-10.24c3.15-4.53,10.34-1.24,8.92,4.09a20.23,20.23,0,0,1-1.61,4.13c-4.25,8.24-15.43,1.12-19.08,11.51s.84,19.07,7.29,26.64,18.52-5.32,28.62,2.81c10.79,8.69.84,21.88,13.47,26.37a67.58,67.58,0,0,0,12.93,2.93A1.77,1.77,0,0,1,133,198.83Z"/><path class="cls-15" d="M105.49,169.1C107.88,167.74,118.4,179,117,181c-.94,1.33-8.08-.15-10.8-5.47C105.05,173.32,104.34,169.75,105.49,169.1Z"/><path class="cls-15" d="M166.08,67.55c-4.62-6.74-17.09-5.86-17.6-3.93-.66,2.45,16.83,10.56,18.86,7.92C168.13,70.53,166.47,68.11,166.08,67.55Z"/><path class="cls-15" d="M170.85,69a2.17,2.17,0,0,0-1.4,1.75c-.17,1.68,2.09,3.46,3.58,2.88a2.27,2.27,0,0,0,1.26-2.11A2.86,2.86,0,0,0,170.85,69Z"/><path class="cls-28" d="M196.18,124.26a15,15,0,0,1-3.56,7.44,18.78,18.78,0,0,1-6.24,5,.14.14,0,0,1-.11.06c-6.89,3.31-14.55,3.56-18.91,0a9.5,9.5,0,0,1-3.39-6.22,5.21,5.21,0,0,1-.05-.69,5.07,5.07,0,0,1,.43-1.92c1.5-3.77,7.15-7.58,15.57-6.83h.1c.07-.29.14-.62.22-.88,1.08-3.64,3.95-6.14,7.18-6.34s5.91,2,7.39,4.34a9.74,9.74,0,0,1,.59,1.08,4.16,4.16,0,0,1,.45,1A8.82,8.82,0,0,1,196.18,124.26Z"/><path class="cls-29" d="M194.05,127.63a15.68,15.68,0,0,1-2.28,3.54c-1.42-1.26-1.53-3.8-.51-6.56a15.81,15.81,0,0,1,2.49-4.34,7.73,7.73,0,0,1,.6-.67,0,0,0,0,0,0,0,4.27,4.27,0,0,1,.41,1A9.57,9.57,0,0,1,194.05,127.63Z"/><path class="cls-29" d="M186,135.83a.23.23,0,0,1-.11.07,25.15,25.15,0,0,1-5,1.79c-4.86,1.16-9.57.64-12.59-1.84a17.78,17.78,0,0,1,5.35-2.6c.66-.19,1.33-.36,2-.48C180.5,131.83,184.86,133,186,135.83Z"/><path class="cls-29" d="M186,135.76a.23.23,0,0,1-.11.07c-.18.09-6-2.06-10.29-1.73-3.94.3-7,1.94-7.32,1.68a17.78,17.78,0,0,1,5.35-2.6,18.79,18.79,0,0,1,2-.48C180.5,131.75,184.86,133,186,135.76Z"/><path class="cls-19" d="M181.07,120.39a8.84,8.84,0,0,0,13.11-1.79c-1.33-2.16-3.74-4.08-6.65-3.9A7.49,7.49,0,0,0,181.07,120.39Z"/><path class="cls-30" d="M197.78,163.63a44.8,44.8,0,0,1-6.68,5.54h0c-13.49,9.21-34,13.83-44.78,3.85-6.12-5.67-6.75-13.83-6.87-15.29a27,27,0,0,1,1.36-10.51c2.27-6.82,6.59-11.61,8.46-11.09,2.88.78-1.31,13.88,4.91,18,4.86,3.18,11.5-2.15,15.85,1.68a5.29,5.29,0,0,1,1.74,3.16c.4,2,.12,4,1.77,5.4,3.53,3,11.57-.48,18.16-3.62,0,0,0,0,0,0,5-2.39,9.22-4.55,9.87-3.39C202.43,158.85,199.21,162.16,197.78,163.63Z"/><path class="cls-31" d="M84.59,93.29a54.37,54.37,0,0,1-3.43,15.09,35.27,35.27,0,0,1-2,4.2c-2.41,4.29-5.89,8.11-10.95,10s-11.11,1.66-16.83-.41a29.7,29.7,0,0,1-6.55-3.27,28.73,28.73,0,0,1-12.64-18.22,27.06,27.06,0,0,1,2.73-18.46c.32-.61.67-1.21,1-1.8a30.38,30.38,0,0,1,9.53-9.58l.06,0a3.27,3.27,0,0,1,.64-.38,25.59,25.59,0,0,1,9.6-3.51c.4-.09.81-.11,1.19-.16,10.31-1,22.55,5,26.52,15a1.27,1.27,0,0,1,.06.18C85.16,86.05,84.89,89.7,84.59,93.29Z"/><path class="cls-32" d="M45.91,116.2c3.9,4.39,9.17,7.46,14.89,7.69a18.24,18.24,0,0,0,7.38-1.28c5.07-1.9,8.54-5.73,11-10,.32-10.87-1.36-27-13.78-33.86C47.61,68.93,26.11,93.85,45.91,116.2Z"/><path class="cls-14" d="M39.76,106.39C35.64,88.88,52.21,74.46,66.45,82.32c5.72,3.15,9.18,8.3,11.17,14-1.76-7.06-5.33-13.77-12.27-17.6C50.18,70.37,32.31,87.34,39.76,106.39Z"/><path class="cls-33" d="M43.17,74.86c-.4-1,4.67-5.28,11.47-6.69,10.9-2.26,23.26,3.47,23.21,7.29,0,2.15-4,4.26-7.37,4.24-4.22,0-5.53-3.29-10.13-5.28C52,70.81,43.67,76.12,43.17,74.86Z"/><path class="cls-34" d="M132.84,63.48c-.16-.91-12.58-1.3-25,4.35-8,3.65-14.27,9-13.88,9.67s5.45-2.53,14.44-6.17C123.62,65.19,133,64.28,132.84,63.48Z"/><path class="cls-35" d="M192.73,82.69c.67-.51,7.08,5.53,11.78,13.61,3.38,5.8,5.58,12.14,4.91,12.48s-4.59-5.82-9.67-13.88C194.77,87,192.27,83.05,192.73,82.69Z"/><g class="cls-13"><path class="cls-11" d="M84.6,93.29a56.8,56.8,0,0,1-3.28,15.09,34.54,34.54,0,0,1-1.92,4.2c-2.31,4.29-5.62,8.11-10.45,10s-10.6,1.66-16.06-.41a28,28,0,0,1-6.24-3.27,28.65,28.65,0,0,1-12.06-18.22A28.23,28.23,0,0,1,37.2,82.23c.3-.61.64-1.21,1-1.8a29.35,29.35,0,0,0-2.68,8.91,23.17,23.17,0,0,0,.74,9.33,4.52,4.52,0,0,0,8.63.15l0-.09c1-2.92,2.65-5.87,5.36-7.12,3.23-1.51,7.13-.11,9.81,2.3a16.49,16.49,0,0,1,5.06,8.91,25.85,25.85,0,0,1,.09,8.42,1.62,1.62,0,0,0,.11,1.11,1.44,1.44,0,0,0,.88.53,9.83,9.83,0,0,0,8.84-2.1c2.4-2.1,3.72-5.22,4.86-8.27a75.61,75.61,0,0,0,2.38-7.38,37.25,37.25,0,0,0,1.29-13.2C85.15,86.05,84.89,89.7,84.6,93.29Z"/></g><g class="cls-36"><path class="cls-11" d="M82.3,95.13a30.61,30.61,0,0,1-6,15.23,13.83,13.83,0,0,1-4,3.71,9.19,9.19,0,0,1-7.39.77,6.27,6.27,0,0,1-3.15-2.11c-1.18-1.55-1.32-3.61-1.57-5.55s-.73-4-2.3-5.17c-2.25-1.64-5.46-.51-7.67,1.18s-4.17,3.91-6.87,4.62a5.89,5.89,0,0,1-1.1.19,7,7,0,0,1-7.22-5.33c-.18-.65-.33-1.31-.47-2A28.23,28.23,0,0,1,37.2,82.23c.3-.61.64-1.21,1-1.8a29.35,29.35,0,0,0-2.68,8.91,23.17,23.17,0,0,0,.74,9.33,4.52,4.52,0,0,0,8.63.15l0-.09c1-2.92,2.65-5.87,5.36-7.12,3.23-1.51,7.13-.11,9.81,2.3a16.49,16.49,0,0,1,5.06,8.91,25.85,25.85,0,0,1,.09,8.42,1.62,1.62,0,0,0,.11,1.11,1.44,1.44,0,0,0,.88.53,9.83,9.83,0,0,0,8.84-2.1c2.4-2.1,3.72-5.22,4.86-8.27A75.61,75.61,0,0,0,82.3,95.13Z"/></g><path class="cls-37" d="M79.61,78.14c-1.62-.63-4.45,1.46-5.12,4-1,3.6,2.55,7.69,4.35,7.37,1.57-.29,2.06-4,2.17-4.84C81.08,84.18,81.72,79,79.61,78.14Z"/><path class="cls-20" d="M168.88,84.15a5.38,5.38,0,0,1,2.58-1.74c4.15-1.25,8.65,3,10.2,7.63l.16.51c1.13,4.07.18,9.28-3,11-4.07,2.12-10.32-2.11-11.79-7.89C166.15,90.35,166.86,86.43,168.88,84.15Z"/><path class="cls-38" d="M168,92.46c1.34,5.28,7.05,9.14,10.77,7.21,2.93-1.53,3.8-6.29,2.77-10l-.14-.47c-1.42-4.24-5.54-8.11-9.33-7a4.9,4.9,0,0,0-2.36,1.59A9.93,9.93,0,0,0,168,92.46Z"/><path class="cls-39" d="M170.43,86.58c1.41,4.63,4.73,7.72,7.42,6.9,1.37-.41,2.33-1.8,2.71-3.71-1.27-3.82-5-7.3-8.39-6.27a4.37,4.37,0,0,0-2.12,1.43A10.91,10.91,0,0,0,170.43,86.58Z"/><path class="cls-15" d="M174.55,84c1-.53,3.12.81,3.21,2.38a1.61,1.61,0,0,1-.61,1.48c-1,.55-3.34-1-3.31-2.55A1.52,1.52,0,0,1,174.55,84Z"/><path class="cls-15" d="M186.73,115.6c.66-1,3.08-.82,3.9.53a1.69,1.69,0,0,1,.15,1.62c-.63,1-3.35.79-4.06-.63A1.61,1.61,0,0,1,186.73,115.6Z"/><path class="cls-29" d="M191.77,131.16c-1.42-1.27-1.53-3.8-.51-6.56a15.71,15.71,0,0,1,2.49-4.35,7.73,7.73,0,0,1,.6-.67A25.81,25.81,0,0,0,191.77,131.16Z"/><g class="cls-13"><path class="cls-11" d="M195.26,124.25a14.11,14.11,0,0,1-3.35,7A17.71,17.71,0,0,1,186,136a.22.22,0,0,1-.1.06c-6.51,3.12-13.74,3.36-17.86,0a8.17,8.17,0,0,1-3.19-5.87,3.9,3.9,0,0,1,1.84-3.12c2.49-1.93,6.9-3.11,9.64-2.34a3.73,3.73,0,0,1,2.41,1.66,6.55,6.55,0,0,0,.59,1.29,2,2,0,0,0,1.17.62c2.36.57,4.78-.51,6.92-1.66l.61-.34c1.94-1.07,3.95-2.16,6.14-2.13A4.18,4.18,0,0,1,195.26,124.25Z"/></g><g class="cls-36"><path class="cls-11" d="M188.05,126.25c-.68.57-1.38,1.1-2.1,1.61a11.26,11.26,0,0,1-3.64,1.84,5,5,0,0,1-3.95-.53c-1.29-.87-2-2.49-3.42-3.13a5.11,5.11,0,0,0-2.09-.34,15.2,15.2,0,0,0-6.14,1.32c2.49-1.93,6.9-3.11,9.64-2.34a3.73,3.73,0,0,1,2.41,1.66,6.55,6.55,0,0,0,.59,1.29,2,2,0,0,0,1.17.62c2.36.57,4.78-.51,6.92-1.66Z"/></g><path class="cls-15" d="M176.79,114.18c-.65-.9,5.89-12.84,14.3-12.48,8.71.37,14.36,13.72,14.13,14s-3.77-7.91-10.61-9.47C185.52,104.11,177.45,115.11,176.79,114.18Z"/><path class="cls-15" d="M74.74,73.31c-.12-1.59-10.47-6.17-11.56-4.33-.4.68.55,2.13,1.18,2.86C67.54,75.5,74.85,74.67,74.74,73.31Z"/><g class="cls-36"><path class="cls-11" d="M171.75,158.93a3.15,3.15,0,0,0-.3-.5,5.42,5.42,0,0,0-3.85-2.29,11.89,11.89,0,0,0-5.22,1.17,18.27,18.27,0,0,1-7.48,1.48,7.89,7.89,0,0,1-6.42-3.62c-2.28-4.07.67-9.36-.88-13.76a1.21,1.21,0,0,0-.55-.74,1.11,1.11,0,0,0-.78,0,7.4,7.4,0,0,0-3.54,3.15,25.71,25.71,0,0,0-1.94,3.38c2.27-6.82,6.59-11.61,8.46-11.09,2.88.78-1.31,13.88,4.91,18,4.86,3.18,11.5-2.15,15.85,1.68A5.29,5.29,0,0,1,171.75,158.93Z"/><path class="cls-11" d="M197.78,163.63a44.8,44.8,0,0,1-6.68,5.54,28.13,28.13,0,0,0,4.68-4.7c.67-.87,1.3-2,.85-3-.55-1.24-2.28-1.28-3.62-1-.44.08-.87.16-1.31.26,5-2.39,9.22-4.55,9.87-3.39C202.43,158.85,199.21,162.16,197.78,163.63Z"/></g><path class="cls-40" d="M145.8,157.5c3-.7,4.63,9.55,13.57,13.47,12.85,5.62,30.7-6.23,31.69-4.59.57,1-5,5.72-12.85,8.33-11.22,3.74-28.08,3.4-33.26-4.77C141.85,165,143.42,158.05,145.8,157.5Z"/><path class="cls-40" d="M194.32,138.71c-20.57,21.94-46.93,21.49-46.38,28,.4,4.73,14.43,8.59,26,7.29,16-1.79,29.06-13.66,33.29-26.74,2.52-7.82,2.53-18-.75-19.26C203.62,127,199.54,133.13,194.32,138.71Z"/><g class="cls-41"><path class="cls-42" d="M147.05,76.43c-1.24-.61-3-.8-3.22-.28s1.18,2,2.8,2.66c.94.36,2.41.62,2.67.14S148.39,77.09,147.05,76.43Z"/><path class="cls-42" d="M142,77.41c.84-.92-.29-3.29-1.47-4.63s-3.5-2.78-4.42-2.1-.49,4.27,1.62,6C139.06,77.71,141.25,78.24,142,77.41Z"/><path class="cls-42" d="M97.63,111.31a2.8,2.8,0,0,0-.93,2.8c.45,2.24,3.66,3.76,5,2.81,1-.68,1.09-2.62.37-3.93C101.24,111.37,99,110.42,97.63,111.31Z"/><path class="cls-42" d="M105.49,116.78c-1.42.76-2.1,3-1.69,4.91a5.46,5.46,0,0,0,3.23,3.64c3,1.27,7-.31,7.43-2.24C115.11,120.26,108.52,115.15,105.49,116.78Z"/><path class="cls-42" d="M105.07,110.47a2.17,2.17,0,0,0-.42,2.66c.86,1.64,3.89,1.54,4.34.7.22-.39-.13-1-.42-1.4C107.78,111.17,106,109.89,105.07,110.47Z"/><path class="cls-42" d="M98.81,79.5c-.28-.44-2.66.17-2.72.91,0,.35.46.74.91.8s1.06-.44,1.33-.75S99,79.74,98.81,79.5Z"/><path class="cls-42" d="M98.7,81.69c-.81.42-.64,2.66.06,2.94.39.15,1-.31,1.22-.7a1.54,1.54,0,0,0,.06-1.81A1.24,1.24,0,0,0,98.7,81.69Z"/><path class="cls-42" d="M158.6,191.82c-.68.22-3.66,1.2-3.55,2.06.07.58,1.57,1,2.8.93,2.75-.17,5.05-2.87,4.68-3.55S159.56,191.51,158.6,191.82Z"/><path class="cls-42" d="M146,192.1c.12-.65-1.68-1.8-2.25-1.4a1.33,1.33,0,0,0,.28,1.87A1.38,1.38,0,0,0,146,192.1Z"/></g><g class="cls-43"><path class="cls-44" d="M121.41,216.71c.49,0,1,0,1.44,0-2.76.22-5.54.34-8.35.34A102.85,102.85,0,1,1,132,12.82a102.22,102.22,0,1,0-10.6,203.89Z"/></g><g class="cls-45"><path class="cls-46" d="M4.09,117c0,44.62,27.13,83.31,66.78,102.41C29,201.06,0,161.25,0,115.12,0,51.54,55.07,0,123,0a129.19,129.19,0,0,1,56.33,12.76A129.67,129.67,0,0,0,127.07,1.89C59.15,1.89,4.09,53.43,4.09,117Z"/></g><g class="cls-47"><path class="cls-48" d="M234.69,106.12c-5.21-39.88-34-71.3-71.65-83.75,39.57,11.53,70.14,43.72,75.53,85,7.43,56.84-35.77,109.34-96.48,117.28a116.54,116.54,0,0,1-51.85-4.82,116.91,116.91,0,0,0,48,3.61C198.93,215.46,242.12,163,234.69,106.12Z"/></g><path class="cls-49" d="M46,32.48c-1.28-.47-5.56-2-8.16.6-1.95,2-2.29,5.67-.61,7.46,2.3,2.45,7.2.1,8.67-.61,1.28-.61,4.32-2.07,4.23-4S46.9,32.82,46,32.48Z"/><path class="cls-50" d="M43.37,35.81c-3,1.08-5.11,4-4.37,5s4.2,0,4.56-.16c3.11-.91,6.37-3.22,5.9-4.42C49,35.17,45.8,34.93,43.37,35.81Z"/><path class="cls-51" d="M37.78,33.69c-.36,0-1.31,1.92-1.2,3.79a4.39,4.39,0,0,0,1.67,3.21c1.31,1,3.13.64,3.18.4s-2.28-.46-2.5-1.51c-.25-1.21,2.53-2.55,2.22-3.22-.21-.48-1.6.14-2.52-.66S38.08,33.72,37.78,33.69Z"/><path class="cls-52" d="M37.47,39.63a4,4,0,0,0,2.25,1.61c1.82.47,4-.48,4.45-1.79.92-2.47-3.77-7-5.89-6.17C36.76,33.88,36,37.45,37.47,39.63Z"/><path class="cls-53" d="M42,32.05c.31-.59,3.44.4,5.67,1.71.43.26,2.21,1.31,2,1.79s-1.8.3-3.05,0C44,34.76,41.73,32.62,42,32.05Z"/><path class="cls-15" d="M42.81,32.23a2.71,2.71,0,0,0-1.6-.23c-.27.06-.8.24-.8.43,0,.57,4.47,1.08,4.56.72C45,33,44.15,32.69,42.81,32.23Z"/><path class="cls-54" d="M43,43.6c-1.52-.62-3.73-.28-4.19,1s.72,2.61,1.91,3.23c1.64.84,4.09.42,4.55-.84S44.41,44.19,43,43.6Z"/><path class="cls-26" d="M39.41,44.21c-.25,0-.38.65-.34,1.13.11,1.35,1.65,2.32,2.94,2.57.9.19,1.8,0,1.81-.13s-1.26-.11-2.4-.94C40,45.81,39.83,44.13,39.41,44.21Z"/><path class="cls-26" d="M41.33,43.72c.15-.26,1.65.05,2.65,1.05.59.59,1.13,1.53.94,1.71C44.54,46.83,41.09,44.17,41.33,43.72Z"/><path class="cls-14" d="M44.29,45.6c-1.33-.83-3.75.75-3.63,1.52.08.56,1.5.87,2.55.71.16,0,1.68-.27,1.78-1.08A1.33,1.33,0,0,0,44.29,45.6Z"/><path class="cls-55" d="M39.91,44.27c1.34-.34,4.35,2.5,3.8,3.32-.29.43-1.53.25-2.1.1-1.22-.31-2.5-1.28-2.42-2.33C39.19,45.3,39.26,44.44,39.91,44.27Z"/><path class="cls-56" d="M41.67,43.73c-.59-.25-1.3-.14-1.31,0s.46.24.72.28c.41.08.9.06.92,0S41.75,43.76,41.67,43.73Z"/><path class="cls-56" d="M42.55,44.07c-.07,0-.19,0-.21,0s.09.16.2.2.29,0,.31,0S42.72,44.09,42.55,44.07Z"/><path class="cls-57" d="M31.25,154c-6.07-2.47-14.55-1-15.62,2.72-1.14,3.9,6.43,8.91,7,9.28,2.52,1.63,7.08,4.59,11.1,2.49a8,8,0,0,0,4.07-8.15C37.08,156.34,33,154.67,31.25,154Z"/><path class="cls-50" d="M35.75,159.12c-3.66-4.17-15-.81-15.5,2.67-.37,2.5,4.69,6,9.38,6.24,1.22.07,5,.3,6.67-2.25A5.87,5.87,0,0,0,35.75,159.12Z"/><path class="cls-53" d="M18.17,155.34c1.19.29.76,2.79,2.42,4.84,4.24,5.22,14.77,2.07,15.37,4.37.24.94-1.33,2.24-2.59,2.84-5.18,2.47-15.18-3.34-16.64-9.17C16.36,156.74,16.66,155,18.17,155.34Z"/><path class="cls-52" d="M17.75,157.29c-1.13,1.86,3,8.5,9.46,9.38,4.3.59,9.33-1.4,9.39-3.39C36.7,159.56,19.52,154.35,17.75,157.29Z"/><path class="cls-53" d="M24,153.72c.05-.35,6.79-1.07,10.91,2.81,1.92,1.81,2.82,4.2,2.5,4.45s-2.49-2.95-6.92-5.22C26.72,153.85,23.91,154,24,153.72Z"/><path class="cls-56" d="M22,153.88c.26-1,7.45-.46,7.65.79.09.58-1.34,1.19-1.48,1.25C25.32,157.09,21.77,154.61,22,153.88Z"/><path class="cls-58" d="M10.19,80c-1.64-.13-6.39-.51-7.31,1.62C2.06,83.47,4.46,86.77,7.29,88c4.92,2.06,11.63-2,11.46-4.44C18.6,81.43,13.2,80.21,10.19,80Z"/><path class="cls-50" d="M5.4,85.9c0,.8,2.68,1.91,3.12,2a8.84,8.84,0,0,0,5.9-.65c1.05-.49,3.51-1.89,3.27-2.65C17.2,83.07,5.47,84.24,5.4,85.9Z"/><path class="cls-53" d="M3.61,81.29c-.24,0-.37,1.29,0,2.49a6.65,6.65,0,0,0,4.81,4.28,6,6,0,0,0,4.46-.5c0-.21-3.67.59-4.31-.66s1.61-3,1.13-3.57-2.76,1.34-4.39.48C4,83.15,3.92,81.22,3.61,81.29Z"/><path class="cls-52" d="M6.13,81a1.76,1.76,0,0,0-2,.41,2.54,2.54,0,0,0-.45,1c-.44,2.26,2.69,5,5.86,5.47,1.34.18,3.67.06,4-.9S11.89,82.81,6.13,81Z"/><path class="cls-53" d="M10.07,80.68c.34-.78,5.06.6,6.85,1.42.65.3,1.53.75,1.5,1.27s-.61.67-.77.75C15.37,85.17,9.67,81.59,10.07,80.68Z"/><path class="cls-56" d="M14.53,81.58c.19-.3,3.51,1.35,3.4,1.68-.06.17-1,0-1.76-.27C15.21,82.57,14.42,81.74,14.53,81.58Z"/><path class="cls-56" d="M13.21,81.18a.68.68,0,0,0-.59.54c-.08.62,1.21,1.33,1.52,1.09s0-.71,0-.78C14,81.73,13.67,81.14,13.21,81.18Z"/><path class="cls-59" d="M230.86,141.06c-1.34,2.2-5.23,8.59-2.91,11.39,2.05,2.48,8.38,1.45,12.05-1.68,6.38-5.43,5.38-17.74,1.9-19.19C238.86,130.31,233.33,137,230.86,141.06Z"/><path class="cls-50" d="M235.78,152c1.1.61,4.57-2.39,5-2.93a14,14,0,0,0,3.27-8.72c0-1.83-.17-6.27-1.4-6.46C240.17,133.44,233.5,150.7,235.78,152Z"/><path class="cls-53" d="M228.05,151.21c-.1.37,1.54,1.44,3.49,1.79a10.47,10.47,0,0,0,9.4-3.72c2.48-2.93,2.7-6.52,2.46-6.61s-1.77,5.57-4,5.58c-1.93,0-3-4.37-4.21-4.11s-.07,4.81-2.43,6.49C231,151.93,228.17,150.73,228.05,151.21Z"/><path class="cls-52" d="M229.44,147.49a2.74,2.74,0,0,0-.85,3.12,3.67,3.67,0,0,0,1.07,1.32c2.86,2.22,9-.19,11.81-4.33,1.21-1.76,2.69-5.11,1.55-6.21C242.06,140.47,236.05,140.69,229.44,147.49Z"/><path class="cls-53" d="M231.77,141.73c-.85-1,4.43-6.67,6.84-8.59.88-.71,2.14-1.62,2.84-1.21s.51,1.34.5,1.62C241.82,137.49,232.77,142.93,231.77,141.73Z"/><path class="cls-56" d="M236.18,136.12c-.27-.48,4.39-4,4.78-3.57.19.2-.68,1.46-1.63,2.26C238.06,135.87,236.33,136.38,236.18,136.12Z"/><path class="cls-56" d="M234.7,137.69a1.08,1.08,0,0,0,.33,1.21c.82.55,2.72-.75,2.6-1.36-.07-.4-1-.5-1.11-.51C236,137,235,137,234.7,137.69Z"/><path class="cls-60" d="M18.57,73.68c-1.71.54-4,2.18-3.75,4.08.22,1.63,2.22,2.68,3.76,2.86,3.32.4,6.88-3,6.38-5C24.53,73.9,21.16,72.87,18.57,73.68Z"/><path class="cls-50" d="M15.14,77.44c.27-.26,1.57,1.4,3.88,1.59a6.54,6.54,0,0,0,4.07-1.14,15.67,15.67,0,0,0,1.35-1.27,4.83,4.83,0,0,1-1.81,2.45c-.16.13-2.77,2.08-5.23,1C15.77,79.41,14.89,77.68,15.14,77.44Z"/><path class="cls-53" d="M17.12,75.33c.47.25-.34,1.57.32,2.73s2.52,1.22,2.48,1.6-1.29.67-2.4.26c-1.32-.48-2.41-2-2-3.31C15.8,75.77,16.74,75.13,17.12,75.33Z"/><path class="cls-52" d="M18,74.7a2.64,2.64,0,0,0-2.12,2.42,2.74,2.74,0,0,0,2.18,2.57A2.88,2.88,0,0,0,21.45,78C21.85,76.47,19.83,74.35,18,74.7Z"/><path class="cls-52" d="M21.51,74c.1-.24,2-.07,2.85,1.16.26.39.45.94.3,1s-.48-.2-1.37-.87C21.76,74.24,21.47,74.14,21.51,74Z"/><path class="cls-56" d="M22.37,74.34c-.65-.37-1.6-.64-1.76-.38s.37.87,1,1.17,1.53.24,1.6,0S22.5,74.41,22.37,74.34Z"/><path class="cls-61" d="M29.08,147.26c.32,1.09.26,2.87-.83,3.4-.93.45-2.18-.23-2.82-1-1.37-1.61-.82-4.68.42-5.12C26.88,144.2,28.61,145.62,29.08,147.26Z"/><path class="cls-50" d="M28.31,150.38c0-.23-1.28-.33-2.2-1.48a4.15,4.15,0,0,1-.82-2.54,10.07,10.07,0,0,1,.19-1.16,3.12,3.12,0,0,0-.65,1.81c0,.13-.12,2.19,1.28,3.11C27.05,150.74,28.27,150.59,28.31,150.38Z"/><path class="cls-53" d="M28.72,148.6c-.29-.16-.7.73-1.54.79s-1.53-.9-1.71-.75.1.92.7,1.36a1.89,1.89,0,0,0,2.44-.11C29,149.45,29,148.73,28.72,148.6Z"/><path class="cls-52" d="M28.75,147.92a1.68,1.68,0,0,1-.53,2,1.74,1.74,0,0,1-2.11-.25,1.82,1.82,0,0,1-.32-2.37A2,2,0,0,1,28.75,147.92Z"/><path class="cls-52" d="M27.87,145.84c.09-.13-.68-1.09-1.61-1.09-.3,0-.65.09-.66.21s.28.18.93.41C27.68,145.78,27.83,145.9,27.87,145.84Z"/><path class="cls-56" d="M27.41,145.49c.42.21.89.62.81.79s-.59.12-1-.1-.66-.72-.55-.85S27.33,145.45,27.41,145.49Z"/><path class="cls-62" d="M61.32,32.47c.31,1.09.25,2.87-.83,3.4s-2.19-.23-2.83-1c-1.37-1.61-.81-4.68.42-5.12C59.11,29.41,60.84,30.83,61.32,32.47Z"/><path class="cls-50" d="M60.54,35.59c0-.23-1.28-.33-2.2-1.48a4.22,4.22,0,0,1-.82-2.54,7.47,7.47,0,0,1,.2-1.16,3,3,0,0,0-.66,1.82,3.69,3.69,0,0,0,1.28,3.11C59.28,36,60.5,35.81,60.54,35.59Z"/><path class="cls-53" d="M61,33.81c-.29-.16-.7.73-1.54.79s-1.52-.9-1.71-.75.1.92.7,1.36a1.89,1.89,0,0,0,2.44-.11C61.19,34.66,61.19,33.94,61,33.81Z"/><path class="cls-52" d="M61,33.13a1.7,1.7,0,0,1-.53,2,1.75,1.75,0,0,1-2.12-.25A1.82,1.82,0,0,1,58,32.48,2,2,0,0,1,61,33.13Z"/><path class="cls-52" d="M60.1,31.05c.09-.13-.68-1.09-1.61-1.09-.3,0-.65.09-.66.21s.28.18.94.41C59.91,31,60.06,31.11,60.1,31.05Z"/><path class="cls-56" d="M59.64,30.7c.42.21.9.62.82.79s-.59.12-1-.1-.66-.72-.55-.85S59.56,30.66,59.64,30.7Z"/><path class="cls-63" d="M238.12,120.59c-2-.26-5.14.32-5.78,2.39-.55,1.78,1,3.81,2.48,4.73,3.22,2,8.5.17,8.94-2.12C244.13,123.66,241.16,121,238.12,120.59Z"/><path class="cls-50" d="M232.82,122.81c.39-.14.94,2.18,3.22,3.48a7.43,7.43,0,0,0,4.7.77,15.42,15.42,0,0,0,2-.66,5.52,5.52,0,0,1-3,1.65c-.23,0-3.83.81-5.86-1.42C232.52,125.13,232.45,122.94,232.82,122.81Z"/><path class="cls-53" d="M235.85,121.6c.37.48-1.1,1.44-1,2.94s2,2.45,1.78,2.82-1.65.07-2.59-.87c-1.12-1.13-1.49-3.26-.47-4.35C234.29,121.41,235.56,121.21,235.85,121.6Z"/><path class="cls-52" d="M237,121.36a3,3,0,0,0-3.33,1.47,3.14,3.14,0,0,0,1,3.68c1.32,1.06,3.43,1,4.29-.09C240.15,125,239.09,121.88,237,121.36Z"/><path class="cls-52" d="M241,122.36c.22-.2,2.12.9,2.38,2.55.08.52,0,1.17-.19,1.22s-.4-.44-1-1.54C241.13,122.68,240.87,122.44,241,122.36Z"/><path class="cls-56" d="M241.7,123.07c-.48-.68-1.33-1.41-1.61-1.22s-.05,1.07.45,1.67,1.45,1,1.65.75S241.8,123.21,241.7,123.07Z"/></g></g></g></svg>