<svg xmlns="http://www.w3.org/2000/svg" xmlns:xlink="http://www.w3.org/1999/xlink" viewBox="0 0 389.34 376.69"><defs><style>.cls-1{isolation:isolate;}.cls-2{fill:#feb300;}.cls-3,.cls-46,.cls-61{fill:#9b0767;}.cls-3,.cls-51,.cls-56{opacity:0.49;}.cls-10,.cls-12,.cls-14,.cls-18,.cls-19,.cls-20,.cls-21,.cls-22,.cls-24,.cls-3,.cls-31,.cls-32,.cls-33,.cls-34,.cls-35,.cls-36,.cls-37,.cls-38,.cls-39,.cls-40,.cls-41,.cls-42,.cls-43,.cls-44,.cls-46,.cls-48,.cls-49,.cls-53,.cls-54,.cls-56,.cls-61,.cls-63,.cls-67,.cls-68,.cls-72,.cls-74,.cls-75,.cls-76,.cls-77,.cls-78,.cls-9{mix-blend-mode:multiply;}.cls-4{fill:#fffeff;}.cls-5{fill:#5380ff;}.cls-6{fill:#e6feff;}.cls-7{fill:url(#Áåçûìÿííûé_ãðàäèåíò_433);}.cls-8{fill:#ae6f27;}.cls-11,.cls-18,.cls-19,.cls-22,.cls-8{opacity:0.36;}.cls-11,.cls-15,.cls-16,.cls-17,.cls-23,.cls-25,.cls-26,.cls-29,.cls-30,.cls-51,.cls-52,.cls-62,.cls-70,.cls-71,.cls-8{mix-blend-mode:screen;}.cls-12,.cls-15,.cls-30,.cls-9{opacity:0.83;}.cls-9{fill:url(#Áåçûìÿííûé_ãðàäèåíò_450);}.cls-10,.cls-78{fill:#b0295b;}.cls-10{opacity:0.6;}.cls-11{fill:#b57240;}.cls-12{fill:url(#Áåçûìÿííûé_ãðàäèåíò_451);}.cls-13{fill:#43081a;}.cls-14,.cls-20,.cls-21,.cls-24{opacity:0.25;}.cls-14{fill:url(#Áåçûìÿííûé_ãðàäèåíò_189);}.cls-15{fill:url(#Áåçûìÿííûé_ãðàäèåíò_801);}.cls-16{fill:url(#Áåçûìÿííûé_ãðàäèåíò_52);}.cls-17{fill:url(#Áåçûìÿííûé_ãðàäèåíò_192);}.cls-18{fill:url(#Áåçûìÿííûé_ãðàäèåíò_189-2);}.cls-19{fill:url(#Áåçûìÿííûé_ãðàäèåíò_189-3);}.cls-20{fill:url(#Áåçûìÿííûé_ãðàäèåíò_277);}.cls-21{fill:url(#Áåçûìÿííûé_ãðàäèåíò_277-2);}.cls-22{fill:url(#Áåçûìÿííûé_ãðàäèåíò_189-4);}.cls-23{fill:url(#Áåçûìÿííûé_ãðàäèåíò_301);}.cls-24{fill:url(#Áåçûìÿííûé_ãðàäèåíò_277-3);}.cls-25{fill:url(#Áåçûìÿííûé_ãðàäèåíò_302);}.cls-26{fill:url(#Áåçûìÿííûé_ãðàäèåíò_300);}.cls-27{fill:#e9966b;}.cls-28{fill:#c57c59;}.cls-29{fill:#79321e;opacity:0.71;}.cls-30{fill:url(#Áåçûìÿííûé_ãðàäèåíò_398);}.cls-31,.cls-32,.cls-33,.cls-34,.cls-35,.cls-36,.cls-37,.cls-38,.cls-39{opacity:0.43;}.cls-31{fill:url(#Áåçûìÿííûé_ãðàäèåíò_529);}.cls-32{fill:url(#Áåçûìÿííûé_ãðàäèåíò_529-2);}.cls-33{fill:url(#Áåçûìÿííûé_ãðàäèåíò_529-3);}.cls-34{fill:url(#Áåçûìÿííûé_ãðàäèåíò_529-4);}.cls-35{fill:url(#Áåçûìÿííûé_ãðàäèåíò_529-5);}.cls-36{fill:url(#Áåçûìÿííûé_ãðàäèåíò_529-6);}.cls-37{fill:url(#Áåçûìÿííûé_ãðàäèåíò_529-7);}.cls-38{fill:url(#Áåçûìÿííûé_ãðàäèåíò_529-8);}.cls-39{fill:url(#Áåçûìÿííûé_ãðàäèåíò_529-9);}.cls-40,.cls-41,.cls-42,.cls-43,.cls-44,.cls-46{opacity:0.26;}.cls-40{fill:url(#Áåçûìÿííûé_ãðàäèåíò_532);}.cls-41{fill:url(#Áåçûìÿííûé_ãðàäèåíò_532-2);}.cls-42{fill:url(#Áåçûìÿííûé_ãðàäèåíò_532-3);}.cls-43{fill:url(#Áåçûìÿííûé_ãðàäèåíò_532-4);}.cls-44{fill:url(#Áåçûìÿííûé_ãðàäèåíò_532-5);}.cls-45{fill:#eac1bb;}.cls-47{fill:url(#Áåçûìÿííûé_ãðàäèåíò_502);}.cls-48,.cls-53,.cls-67,.cls-70,.cls-72,.cls-74,.cls-75,.cls-77{opacity:0.65;}.cls-48{fill:url(#Áåçûìÿííûé_ãðàäèåíò_483);}.cls-49,.cls-76{fill:#9524a6;}.cls-49,.cls-68{opacity:0.21;}.cls-50{fill:#04bde9;}.cls-51{fill:#03a8df;}.cls-52{fill:#98d6ff;}.cls-53{fill:url(#Áåçûìÿííûé_ãðàäèåíò_483-2);}.cls-54,.cls-63{fill:#bf1a76;}.cls-54{opacity:0.5;}.cls-55{fill:#a1ad01;}.cls-56{fill:#9b6367;}.cls-57{fill:#f01f7a;}.cls-58{fill:#ffe7db;}.cls-59{fill:url(#Áåçûìÿííûé_ãðàäèåíò_60);}.cls-60{fill:#fe81f9;}.cls-61,.cls-78{opacity:0.79;}.cls-62{fill:#d7426d;opacity:0.91;}.cls-63{opacity:0.64;}.cls-64{fill:#ffccea;}.cls-65{fill:url(#Áåçûìÿííûé_ãðàäèåíò_60-2);}.cls-66{fill:url(#Áåçûìÿííûé_ãðàäèåíò_739);}.cls-67{fill:url(#Áåçûìÿííûé_ãðàäèåíò_732);}.cls-68{fill:#9c009e;}.cls-69{fill:url(#Áåçûìÿííûé_ãðàäèåíò_739-2);}.cls-70{fill:#9f75d7;}.cls-71{fill:#ffa3f7;}.cls-72{fill:url(#Áåçûìÿííûé_ãðàäèåíò_734);}.cls-73{fill:url(#Áåçûìÿííûé_ãðàäèåíò_501);}.cls-74{fill:url(#Áåçûìÿííûé_ãðàäèåíò_483-3);}.cls-75{fill:#0081ff;}.cls-76{opacity:0.38;}.cls-77{fill:url(#Áåçûìÿííûé_ãðàäèåíò_496);}.cls-79{fill:#492017;}</style><linearGradient id="Áåçûìÿííûé_ãðàäèåíò_433" x1="210.98" y1="376.69" x2="210.98" y2="279.1" gradientUnits="userSpaceOnUse"><stop offset="0" stop-color="#ca5d36"/><stop offset="0.46" stop-color="#ae3e28"/><stop offset="1" stop-color="#8a1616"/></linearGradient><linearGradient id="Áåçûìÿííûé_ãðàäèåíò_450" x1="215.27" y1="376.69" x2="215.27" y2="250.68" gradientUnits="userSpaceOnUse"><stop offset="0" stop-color="#6b002f"/><stop offset="0.08" stop-color="#700936"/><stop offset="0.22" stop-color="#7e214a"/><stop offset="0.4" stop-color="#95486a"/><stop offset="0.6" stop-color="#b47e96"/><stop offset="0.82" stop-color="#dcc3ce"/><stop offset="1" stop-color="#fff"/></linearGradient><linearGradient id="Áåçûìÿííûé_ãðàäèåíò_451" x1="210.98" y1="348.84" x2="210.98" y2="264.92" gradientUnits="userSpaceOnUse"><stop offset="0" stop-color="#fff"/><stop offset="0.18" stop-color="#dcc3ce"/><stop offset="0.4" stop-color="#b47e96"/><stop offset="0.6" stop-color="#95486a"/><stop offset="0.78" stop-color="#7e214a"/><stop offset="0.92" stop-color="#700936"/><stop offset="1" stop-color="#6b002f"/></linearGradient><linearGradient id="Áåçûìÿííûé_ãðàäèåíò_189" x1="214.77" y1="245.04" x2="214.77" y2="3.55" gradientUnits="userSpaceOnUse"><stop offset="0" stop-color="#42000b"/><stop offset="0.15" stop-color="#5a202a"/><stop offset="0.48" stop-color="#977278"/><stop offset="0.96" stop-color="#f7f4f4"/><stop offset="1" stop-color="#fff"/></linearGradient><linearGradient id="Áåçûìÿííûé_ãðàäèåíò_801" x1="214.76" y1="343.1" x2="214.76" y2="100.72" gradientUnits="userSpaceOnUse"><stop offset="0"/><stop offset="1" stop-color="#49220e"/></linearGradient><linearGradient id="Áåçûìÿííûé_ãðàäèåíò_52" x1="328.58" y1="343.11" x2="328.58" y2="45.45" gradientUnits="userSpaceOnUse"><stop offset="0.32"/><stop offset="1" stop-color="#49220e"/></linearGradient><linearGradient id="Áåçûìÿííûé_ãðàäèåíò_192" x1="203.02" y1="343.11" x2="203.02" y2="45.45" gradientUnits="userSpaceOnUse"><stop offset="0.32" stop-color="#000201"/><stop offset="1" stop-color="#79321e"/></linearGradient><linearGradient id="Áåçûìÿííûé_ãðàäèåíò_189-2" x1="217.2" y1="217.99" x2="217.2" y2="127.65" xlink:href="#Áåçûìÿííûé_ãðàäèåíò_189"/><linearGradient id="Áåçûìÿííûé_ãðàäèåíò_189-3" x1="228.55" y1="147.55" x2="228.55" y2="77.75" xlink:href="#Áåçûìÿííûé_ãðàäèåíò_189"/><linearGradient id="Áåçûìÿííûé_ãðàäèåíò_277" x1="290.47" y1="343.1" x2="290.47" y2="100.72" gradientUnits="userSpaceOnUse"><stop offset="0" stop-color="#fff"/><stop offset="0.04" stop-color="#f7f4f4"/><stop offset="0.52" stop-color="#977278"/><stop offset="0.85" stop-color="#5a202a"/><stop offset="1" stop-color="#42000b"/></linearGradient><linearGradient id="Áåçûìÿííûé_ãðàäèåíò_277-2" x1="189.19" y1="343.11" x2="189.19" y2="100.72" xlink:href="#Áåçûìÿííûé_ãðàäèåíò_277"/><linearGradient id="Áåçûìÿííûé_ãðàäèåíò_189-4" x1="150.83" y1="226.91" x2="150.83" y2="183.57" xlink:href="#Áåçûìÿííûé_ãðàäèåíò_189"/><linearGradient id="Áåçûìÿííûé_ãðàäèåíò_301" x1="214.76" y1="396.58" x2="214.76" y2="186.8" gradientUnits="userSpaceOnUse"><stop offset="0.36" stop-color="#000201"/><stop offset="1" stop-color="#79321e"/></linearGradient><linearGradient id="Áåçûìÿííûé_ãðàäèåíò_277-3" x1="213.99" y1="361.39" x2="213.99" y2="225.78" xlink:href="#Áåçûìÿííûé_ãðàäèåíò_277"/><linearGradient id="Áåçûìÿííûé_ãðàäèåíò_302" x1="223.69" y1="396.58" x2="223.69" y2="154.2" gradientUnits="userSpaceOnUse"><stop offset="0.5" stop-color="#000201"/><stop offset="1" stop-color="#79321e"/></linearGradient><linearGradient id="Áåçûìÿííûé_ãðàäèåíò_300" x1="239.47" y1="396.58" x2="239.47" y2="188.31" gradientUnits="userSpaceOnUse"><stop offset="0.22" stop-color="#79321e"/><stop offset="0.68" stop-color="#000201"/></linearGradient><linearGradient id="Áåçûìÿííûé_ãðàäèåíò_398" x1="214.76" y1="170.11" x2="214.76" y2="-72.27" gradientUnits="userSpaceOnUse"><stop offset="0"/><stop offset="1" stop-color="#68220e"/></linearGradient><linearGradient id="Áåçûìÿííûé_ãðàäèåíò_529" x1="137.7" y1="58.33" x2="137.7" y2="29.12" gradientUnits="userSpaceOnUse"><stop offset="0" stop-color="#fff"/><stop offset="0.06" stop-color="#e6dddf"/><stop offset="0.19" stop-color="#b59b9f"/><stop offset="0.32" stop-color="#8c646a"/><stop offset="0.43" stop-color="#6c3941"/><stop offset="0.54" stop-color="#551a23"/><stop offset="0.62" stop-color="#470711"/><stop offset="0.68" stop-color="#42000b"/></linearGradient><linearGradient id="Áåçûìÿííûé_ãðàäèåíò_529-2" x1="193.52" y1="82.66" x2="193.52" y2="72.55" xlink:href="#Áåçûìÿííûé_ãðàäèåíò_529"/><linearGradient id="Áåçûìÿííûé_ãðàäèåíò_529-3" x1="212.84" y1="61.42" x2="212.84" y2="43.53" xlink:href="#Áåçûìÿííûé_ãðàäèåíò_529"/><linearGradient id="Áåçûìÿííûé_ãðàäèåíò_529-4" x1="244.73" y1="85.63" x2="244.73" y2="53.43" xlink:href="#Áåçûìÿííûé_ãðàäèåíò_529"/><linearGradient id="Áåçûìÿííûé_ãðàäèåíò_529-5" x1="250.69" y1="120.17" x2="250.69" y2="100.29" xlink:href="#Áåçûìÿííûé_ãðàäèåíò_529"/><linearGradient id="Áåçûìÿííûé_ãðàäèåíò_529-6" x1="180.86" y1="121.52" x2="180.86" y2="98.08" xlink:href="#Áåçûìÿííûé_ãðàäèåíò_529"/><linearGradient id="Áåçûìÿííûé_ãðàäèåíò_529-7" x1="175.6" y1="166.49" x2="175.6" y2="151.99" xlink:href="#Áåçûìÿííûé_ãðàäèåíò_529"/><linearGradient id="Áåçûìÿííûé_ãðàäèåíò_529-8" x1="255.58" y1="195.45" x2="255.58" y2="181.99" xlink:href="#Áåçûìÿííûé_ãðàäèåíò_529"/><linearGradient id="Áåçûìÿííûé_ãðàäèåíò_529-9" x1="309.02" y1="135.13" x2="309.02" y2="115.63" xlink:href="#Áåçûìÿííûé_ãðàäèåíò_529"/><linearGradient id="Áåçûìÿííûé_ãðàäèåíò_532" x1="197.74" y1="278.86" x2="197.74" y2="266.79" gradientUnits="userSpaceOnUse"><stop offset="0" stop-color="#fff"/><stop offset="0.38" stop-color="#af9398"/><stop offset="0.68" stop-color="#74444c"/><stop offset="0.89" stop-color="#50131d"/><stop offset="1" stop-color="#42000b"/></linearGradient><linearGradient id="Áåçûìÿííûé_ãðàäèåíò_532-2" x1="129.83" y1="258.77" x2="129.83" y2="250.01" xlink:href="#Áåçûìÿííûé_ãðàäèåíò_532"/><linearGradient id="Áåçûìÿííûé_ãðàäèåíò_532-3" x1="58.22" y1="263.5" x2="58.22" y2="243.39" xlink:href="#Áåçûìÿííûé_ãðàäèåíò_532"/><linearGradient id="Áåçûìÿííûé_ãðàäèåíò_532-4" x1="252.95" y1="253.49" x2="252.95" y2="241.2" xlink:href="#Áåçûìÿííûé_ãðàäèåíò_532"/><linearGradient id="Áåçûìÿííûé_ãðàäèåíò_532-5" x1="321.09" y1="248.28" x2="321.09" y2="240.25" xlink:href="#Áåçûìÿííûé_ãðàäèåíò_532"/><linearGradient id="Áåçûìÿííûé_ãðàäèåíò_502" x1="66.78" y1="141.84" x2="15.8" y2="192.83" gradientUnits="userSpaceOnUse"><stop offset="0" stop-color="#04bde9"/><stop offset="0.63" stop-color="#039cd8"/><stop offset="1" stop-color="#028dd1"/></linearGradient><linearGradient id="Áåçûìÿííûé_ãðàäèåíò_483" x1="39.43" y1="204.21" x2="39.43" y2="133.26" gradientUnits="userSpaceOnUse"><stop offset="0" stop-color="#fff"/><stop offset="0.47" stop-color="#80c0ff"/><stop offset="0.83" stop-color="#2493ff"/><stop offset="1" stop-color="#0081ff"/></linearGradient><linearGradient id="Áåçûìÿííûé_ãðàäèåíò_483-2" x1="39.53" y1="194.56" x2="39.53" y2="155.04" xlink:href="#Áåçûìÿííûé_ãðàäèåíò_483"/><linearGradient id="Áåçûìÿííûé_ãðàäèåíò_60" x1="108.03" y1="182.43" x2="108.03" y2="72.64" gradientUnits="userSpaceOnUse"><stop offset="0" stop-color="#d71a76"/><stop offset="0.31" stop-color="#e23490"/><stop offset="0.75" stop-color="#f052af"/><stop offset="1" stop-color="#f55ebb"/></linearGradient><linearGradient id="Áåçûìÿííûé_ãðàäèåíò_60-2" x1="317.62" y1="200.28" x2="317.62" y2="137.52" xlink:href="#Áåçûìÿííûé_ãðàäèåíò_60"/><linearGradient id="Áåçûìÿííûé_ãðàäèåíò_739" x1="201.55" y1="226.46" x2="201.55" y2="184.77" gradientUnits="userSpaceOnUse"><stop offset="0" stop-color="#9e24a1"/><stop offset="0.57" stop-color="#9f5dc5"/><stop offset="1" stop-color="#a08ae1"/></linearGradient><linearGradient id="Áåçûìÿííûé_ãðàäèåíò_732" x1="201.54" y1="226.46" x2="201.54" y2="185.67" gradientUnits="userSpaceOnUse"><stop offset="0" stop-color="#ffccf7"/><stop offset="0.68" stop-color="#b872c9"/><stop offset="1" stop-color="#9c4eb6"/></linearGradient><linearGradient id="Áåçûìÿííûé_ãðàäèåíò_739-2" x1="163.36" y1="211.08" x2="211.27" y2="211.08" xlink:href="#Áåçûìÿííûé_ãðàäèåíò_739"/><linearGradient id="Áåçûìÿííûé_ãðàäèåíò_734" x1="201.43" y1="220.59" x2="201.43" y2="201.56" gradientUnits="userSpaceOnUse"><stop offset="0" stop-color="#ffccf7"/><stop offset="0.68" stop-color="#b872c3"/><stop offset="1" stop-color="#9c4eae"/></linearGradient><linearGradient id="Áåçûìÿííûé_ãðàäèåíò_501" x1="241.7" y1="159.92" x2="241.7" y2="121.87" gradientUnits="userSpaceOnUse"><stop offset="0" stop-color="#028dd1"/><stop offset="1" stop-color="#04bde9"/></linearGradient><linearGradient id="Áåçûìÿííûé_ãðàäèåíò_483-3" x1="241.69" y1="159.91" x2="241.69" y2="125.24" xlink:href="#Áåçûìÿííûé_ãðàäèåíò_483"/><linearGradient id="Áåçûìÿííûé_ãðàäèåíò_496" x1="241.73" y1="149.42" x2="241.73" y2="136.41" gradientUnits="userSpaceOnUse"><stop offset="0.19" stop-color="#0081ff"/><stop offset="0.24" stop-color="#138aff"/><stop offset="0.45" stop-color="#66b3ff"/><stop offset="0.65" stop-color="#a7d4ff"/><stop offset="0.81" stop-color="#d7ebff"/><stop offset="0.93" stop-color="#f4faff"/><stop offset="1" stop-color="#fff"/></linearGradient></defs><g class="cls-1"><g id="Layer_2" data-name="Layer 2"><g id="Ñëîé_1" data-name="Ñëîé 1"><path class="cls-2" d="M301.32,79.32c.28-2.62-10.52-7.5-15.37-1.54a.47.47,0,0,0,0,.53v.08c.35,1.5,3.81,3.92,7.94,4.45S301.53,80.73,301.32,79.32Z"/><path class="cls-3" d="M301.32,79.32a1,1,0,0,1-.13.39c-1.48,2.24-2-2.92-15.28-1.4v.08c.35,1.5,3.81,3.92,7.94,4.45S301.53,80.73,301.32,79.32Z"/><path class="cls-4" d="M291.9,77.45c1.7.75,4.45-.27,2.65-1.15S288.53,76,291.9,77.45Z"/><path class="cls-5" d="M185.93,7.46c.41-4.62-18.73-12.91-27.09-2.29a.83.83,0,0,0-.06,1,.57.57,0,0,0,0,.13c.65,2.63,6.8,6.8,14.08,7.61S186.34,9.93,185.93,7.46Z"/><path class="cls-3" d="M185.93,7.46a2.08,2.08,0,0,1-.23.69c-2.54,4-8.61-8-26.92-2a.57.57,0,0,0,0,.13c.65,2.63,6.8,6.8,14.08,7.61S186.34,9.93,185.93,7.46Z"/><path class="cls-6" d="M177.69,5.39c2.86,2.19,8.51,1.54,5.52-1S172,1,177.69,5.39Z"/><path class="cls-7" d="M47.73,250.83s5.84,12,15.09,19.62,15.08,10.53,24.81,11c0,0,22.38,38.28,34.55,25.84,0,0,43.79,44.5,61.3,48.81,0,0,22.87,20.58,28.22,20.58s16.55-17.71,18-23,11.68-5.75,14.59-4.79,9.74,9.09,30.17,1,22.87-29.67,22.87-29.67,56-2.39,60.33-43.55c0,0,17-9.09,16.55-25.84S47.73,250.83,47.73,250.83Z"/><path class="cls-8" d="M89,266.74c3.86-5.39,40.75,6.82,48.05,12.33s-22.37,27.05-27.25,25.84S80.82,278.14,89,266.74Z"/><path class="cls-8" d="M82.28,276.8c8.27-1.75-1.22-13.77-3.89-15.44s-26.9-10-24.57-3.88S70.36,279.31,82.28,276.8Z"/><path class="cls-8" d="M126.92,307.3c-1.12-5.39,17.4-16.25,37.1-22.12s115.8-18.08,118.24-4.44-24.56,53.84-52.79,68.43S130,321.89,126.92,307.3Z"/><path class="cls-8" d="M194.19,358.5c4.55-3.16,35.27-7.18,30.9,0s-17.18,13.85-22.87,11.25S191.59,360.31,194.19,358.5Z"/><path class="cls-8" d="M248.81,350.13c-5.48-2.51,2.55-21.3,24-28.71s22.87-6,21.41,4.54S268.91,359.36,248.81,350.13Z"/><path class="cls-8" d="M282.72,296.05c17-21.81,34.89-28.23,53.54-29.89,15.29-1.36,23.12-.25,19,16s-27.73,32.47-50.6,31.19S273.24,308.26,282.72,296.05Z"/><path class="cls-9" d="M62.82,270.45c9.24,7.66,15.08,10.53,24.81,11,0,0,22.38,38.28,34.55,25.84,0,0,43.79,44.5,61.3,48.81,0,0,22.87,20.58,28.22,20.58s16.55-17.71,18-23,11.68-5.75,14.59-4.79,9.74,9.09,30.17,1,22.87-29.67,22.87-29.67,56-2.39,60.33-43.55c0,0,16.34-8.76,16.51-24.9l-17.84-1.09s9.85,12.11,3.64,13.07-23,.84-12.89,2.11,7.18,9.5-6.2,20.62-50.61,21.3-52.55,15.79-1.95-13.51,11-22.78,7.26-4.71.84-3.42S267.06,275,267.06,275s12.65,2.83,14,5.76-.24,14.83-20.8,26-66.05,14.84-84.42,14.72-52.2-12.67-41.36-21.54,41.57-17.4,33.09-17.35-46-10.51-46-10.51,17.24,5.85,16.57,10.28-15.51,12.56-22.44,11.84S88.13,277.46,88,270.93s9.86-5.21,9.86-5.21-5.36-1.13-9.86-2a97.36,97.36,0,0,1-10.19-2.7,26.56,26.56,0,0,1,4,3.78c2.48,2.76-12.63,10.43-25.41-.93A50,50,0,0,0,62.82,270.45Z"/><path class="cls-10" d="M225.14,326.79c28.39-12.9,75-38.68,27.25,8.08-13.22,12.95-27.5,17.05-35.31,13.82S214.47,331.64,225.14,326.79Z"/><path class="cls-10" d="M296.49,312.08c10.84-12.39,28.29-15.07,38.22-11.49s-5.87,13.57-21.32,16.3S289.59,320,296.49,312.08Z"/><path class="cls-10" d="M115,307.59c-5.9-.89,5.68-15.34,16.45-16S126.76,309.39,115,307.59Z"/><path class="cls-10" d="M81.7,279.78c-9.83-2.8-3.64-11.49,0-11.31S91.49,282.57,81.7,279.78Z"/><path class="cls-10" d="M254,344.26c18.3-4.84,39.88-14.36,33.44-6.21s-17,15.89-31,14.28S247.24,346.06,254,344.26Z"/><path class="cls-10" d="M206.19,374.52c-9-6.44,18-19.13,18.4-14.35S213.72,379.9,206.19,374.52Z"/><path class="cls-10" d="M140.21,315c44.32,11.71,63.1,33.77,68,37.58s-14.15,4-26.5.94S140,324.34,134.59,317.37,134.94,313.56,140.21,315Z"/><path class="cls-10" d="M91.52,284.57c7.68,5.2,18.42,19.5,18.42,21.65s-11-7-14.75-13.52S89.3,283.06,91.52,284.57Z"/><path class="cls-11" d="M225.14,317.09c-13.58,1.84,9-5.57,24.83-12S285.54,279,278.84,289.7,261,312.22,225.14,317.09Z"/><path class="cls-11" d="M308.09,301.16c-12.85,3.4,5.48-2.18,20.2-12.41s24.72-19,20.54-11.84S334.41,294.18,308.09,301.16Z"/><path class="cls-11" d="M95.12,281c-7.16-6.73,8.93,4,19.1,7.19s23.42-2.41,13.89,2.65S113.46,298.27,95.12,281Z"/><path class="cls-11" d="M170.74,321.11c15.38,1.05,19-.2,4.88-2.46s-34.93-13.5-38.76-16.49-7-.5-1.82,6.15S164.62,320.7,170.74,321.11Z"/><path class="cls-10" d="M348,299.13c-5,3.5-10.49-6.9-2.65-16.59s14-12.33,11-.52S348,299.13,348,299.13Z"/><path class="cls-12" d="M374.22,250.83c-.49-16.75-326.49,0-326.49,0s5.84,12,15.09,19.62c1.47,1.22,2.84,2.28,4.17,3.27-1.53-7.3,14.08-4.44,20.31,3.67s12.24,11.18,26.83,4.63,26.77-5.94,21.64,4.64.33,8.29,15.06,4.3,48.85,23.52,53.81,30,16.31,11.57,16.85-3.31,4.86-28.8,11.32-34S255.17,282.22,263,291s16-5.52,18.38-9-2.41,14.52,9.67,4.64,25.3-12.33,40.62-15.22,25.4,5,22.63,13.74S350.46,296,350.44,296a39.79,39.79,0,0,0,7.23-19.35S374.7,267.58,374.22,250.83Z"/><path class="cls-13" d="M56.71,232.17c8.37-10.53,9.81-24.89,16-26.8s14.35,4.31,20.1,9.09,19.62-8.23,23.92-28.76,9.57-82.57,12.45-132.42S142.6,1.51,163.66,4.38s30.63,20,50.25,26,35.89,1,38.28,22.89,2.87,50.86,23.45,34.72,28.23-9.92,35.41,11.61,33,93.8,40.68,100.5,26.31-2.87,24.4,12.44,17.23,20.52,12.44,30.84-5.74,36.85-6.22,66.17,14.36,50.86-3.35,51.81.48-43.06-1.43-71.78-23.45-29.67-41.16-24.88-31.58,10.53-43.55,7.18-15.31,25.84-33.49,11.48-27.28-12-33,2.87-11,43.07-27.76,28.72-42.11-37.81-59.81-40.68-34,14.83-51.21-.48-24.39-13.88-28,2.39,3.1,69.39-6,69.39-7.77-26.8-4.84-51.2-15.26-34.46-5.69-45.94S56.71,232.17,56.71,232.17Z"/><path class="cls-14" d="M61.14,240.3c49,0,53.35,8.14,89.69,3.09,5.87-.82,29-10.69,45.85-5.15s35.35,6.31,52.13,0,35.77-6.61,54.81,0,67.06,2.14,70.15-17.52a1,1,0,0,1,0-.15,13.81,13.81,0,0,1-.06-3.71c1.91-15.32-14.36-10.05-22-16.75s-33.5-79-40.68-100.5-18.54-32.06-38.64.24c-13.82,22.21-17.83-24.64-20.22-46.57s-18.66-16.83-38.28-22.89-29.19-23.13-50.25-26-31.58-.95-34.45,48.9-.72,115.05-5,135.58-25.6,30.39-31.34,25.6-13.88-11-20.1-9.09-7.66,16.27-16,26.8C52.76,239.11,61.14,240.3,61.14,240.3Z"/><path class="cls-15" d="M56.71,232.17c8.37-10.53,9.81-24.89,16-26.8s14.35,4.31,20.1,9.09,27-5.07,31.34-25.6,2.15-85.73,5-135.58S142.6,1.51,163.66,4.38s30.63,20,50.25,26,35.89,1,38.28,22.89,6.4,68.78,20.22,46.57c20.1-32.3,31.46-21.77,38.64-.24s33,93.8,40.68,100.5,23.92,1.43,22,16.75,19.62,16.21,14.83,26.53-5.74,36.85-6.22,66.17,14.36,50.86-3.35,51.81.48-43.06-1.43-71.78-24.72-50.91-39.24-39.72c-23,17.71-31.11,11-43.07,7.66s-17.71,40.2-35.89,25.84-27.28-12-33,2.87-11,43.07-27.76,28.72-42.11-37.81-59.81-40.68-34.46,7.18-51.69-8.14-25.48-23-29.07-6.69,4.67,86.13-4.42,86.13-7.77-26.8-4.84-51.2-15.26-34.46-5.69-45.94S56.71,232.17,56.71,232.17Z"/><path class="cls-16" d="M358.09,203.23c-12.55-2.39-26.46,17.69-46.08,23.44s-38.29-3.59-23,2.63,60.29-6.46,71.3-13.64c7.91-5.16,11.11-5.48,13.43-2.61C372.88,205.19,365,205.18,358.09,203.23Z"/><path class="cls-17" d="M86.62,214.94c9.09,3.59,33.49,15.31,48.54,18.9s34-8.61,42.62-7.89,31.34,15.31,26.79,11.72-23.44-18.18-39.71-13.88-19.15,5-35.42-3.59-8.85-2.15-6-19.62,11-34.69,17.23-25.6,50.72,34.94,78.24,48.81,57.43-7.89,67.95-17.94,15.32-37.09,1.92-18.9S273,209.68,248.6,216.62,177.78,203,159.83,183.84,129.21,140.29,129.21,113s10.76-33.26,24.88-9.33,29.91,36.13,67.16,46.9,75.92-26.08,80.23-30.39,4.31,2.87,10.29-.72,12.44,22,13.87,37.57,16.27,31.82,23.7,39.9c-9.6-15.66-31.73-77.65-38.29-97.33-6.78-20.33-17.29-30.83-35.37-4.74,7.75-10,15.28-10.57,21.25-8.66s2.18,14.6-6,15.8-17.35-6.14-13.8-2.94c4.66,4.22,9.61,4.52,17,4.52,13.14,0,15-15.46,12.56,2.72s-39.24,41.16-64.6,41.24-56-7.74-72.26-24.49-34.21-56.94-34.69-70.51,5-25.2,11-23.52,9,11.36,25,21.65,30.44-13.58,61.55-1.07c11.23,4.51,14.65,3.11,4.37-1s-28.72-5-46.18-4.07-37.57-13.4-38.53-22.49,9.81-14.36,38.53-.72a115.7,115.7,0,0,1,20.81,12.92c10.77,8.38,24.41,7.9,31.11,10.77s8.61,14.83,11.4,26.66c-.85-6.7-1.51-13.27-2.07-18.44-2.39-21.93-18.66-16.83-38.28-22.89s-29.19-23.13-50.25-26-31.58-.95-34.45,48.9-.72,115.05-5,135.58-25.6,30.39-31.34,25.6-13.88-11-20.1-9.09-7.66,16.27-16,26.8C56.71,232.17,77.52,211.35,86.62,214.94Z"/><path class="cls-18" d="M248.6,216.62c24.41-6.94,26.8-11.49,40.2-29.67a37.9,37.9,0,0,1,3.3-4c4.33-6.84,9.58-15.11,11.87-18.91-24.48,17-66.83,31.83-91.26,26.1-36.1-8.47-74.79-32.45-82.27-62.51,3.58,21.37,14.72,40.54,29.39,56.19C177.78,203,224.19,223.55,248.6,216.62Z"/><path class="cls-19" d="M245.49,111.1c-11,18.9-78,13.88-91.64-11l-.36-.26c5.16,9.13,10.87,17.54,16.39,23.23,16.27,16.75,46.9,24.57,72.26,24.49,21.66-.07,51.68-16.84,61.48-33.06-26.53,21.29-36.83-2.92-31.21-14.64-9.58,15.39-14.44-2.39-17.32-22.06l-.1,0S256.5,92.2,245.49,111.1Z"/><path class="cls-20" d="M291,102c8.16-1.2,12-13.88,6-15.8-4.57-1.46-10.05-1.47-15.84,3.09,10.52-7.56,11.41,12.08,1.38,11.32A17.34,17.34,0,0,0,291,102Z"/><path class="cls-21" d="M225.88,41l.15,0a39.76,39.76,0,0,1-14.28-6.74,115.7,115.7,0,0,0-20.81-12.92c-28.72-13.64-39.48-8.37-38.53.72s21.06,23.45,38.53,22.49c1.74-.09,3.5-.16,5.25-.22C167,44.1,204.37,35.51,225.88,41Z"/><path class="cls-22" d="M129.44,220.2c16.27,8.62,19.15,7.9,35.42,3.59,5.77-1.52,11.87-.65,17.54,1.25-13.73-5.3-58.76-24.1-54.32-41.47a83.81,83.81,0,0,0-4.62,17C120.59,218.05,113.17,211.59,129.44,220.2Z"/><path class="cls-23" d="M48.76,294.38c-2.93,24.4-4.26,51.2,4.84,51.2s.82-69.86,4.42-86.14,11.85-8.61,29.07,6.7,34,5.27,51.69,8.14S181.84,300.6,198.59,315s22-13.88,27.76-28.72,14.83-17.22,33-2.87,23.92-29.19,35.89-25.84,20.1,10.05,43.07-7.66c14.52-11.19,37.32,11,39.24,39.72S361.3,362.33,379,361.37s2.87-22.49,3.35-51.81,1.44-55.86,6.22-66.17c4.36-9.4-13.08-11-14.77-22.82a1,1,0,0,0,0,.15c-3.09,19.66-51.12,24.13-70.15,17.52s-38-6.31-54.81,0-35.26,5.53-52.13,0-40,4.33-45.85,5.15c-36.34,5.05-40.65-3.09-89.69-3.09,0,0-8.38-1.19-4.43-8.13,0,0-4.07,4.78-13.64,16.27S51.68,270,48.76,294.38Z"/><path class="cls-24" d="M378.52,261.12c-3.11-12.2-25.12-24.88-34.69-17.73s-24.65,9.36-38.76,7.2-7.18-1.91-26.32,18.43-39.48-11-46.9.47-23.69,34.22-45.46,25.85-25.6-44.75-61.73-36.61-32.78-7.42-48.33-15.34C67,238.62,64,232.07,63.76,225.78c-4.13,3.47-7,6.39-7,6.39S52.64,237,43.07,248.44s8.61,21.53,5.69,45.94-4.26,51.2,4.84,51.2.82-69.86,4.42-86.14,11.85-8.61,29.07,6.7,34,5.27,51.69,8.14S181.84,300.6,198.59,315s22-13.88,27.76-28.72,14.83-17.22,33-2.87,23.92-29.19,35.89-25.84,20.1,10.05,43.07-7.66c14.52-11.19,37.32,11,39.24,39.72S361.3,362.33,379,361.37s2.87-22.49,3.35-51.81c.38-23.1,1.06-44.44,3.67-57.51C384.22,259,380.75,269.84,378.52,261.12Z"/><path class="cls-25" d="M125.44,249.34a152.52,152.52,0,0,1,43.06-6c9.52.2,24,9.08,41.27,4.15s35.72-6,47.92-6.59,28.89,8.11,39.84,4.21,23.15-4,30.33-3.21,16.85,1.75,36-9.07a.18.18,0,0,0,.07,0c-15.78,9.1-46.09,10.34-60.28,5.41-19-6.61-38-6.31-54.81,0s-35.26,5.53-52.13,0-40,4.33-45.85,5.15c-29.87,4.15-38.12-.61-67.35-2.43C98.05,242.24,107.19,254.41,125.44,249.34Z"/><path class="cls-26" d="M385.7,245.16c-3.95,2.22-22.13-5.93-31.46-5.34s-28.95,10.8-44.92,9.58-13.82-2.4-21,6.7-18.66,13-33.14,9.64-17.59-2.47-25.72,4.59-28.59,15.2-52.16,2.87-35.41-17.46-43.43-16.27S99.22,260,89.68,254.57c5.86,5.4,13.33,9,35,4.16,36.13-8.14,40,28.23,61.73,36.61s38-14.36,45.46-25.85,27.76,19.86,46.9-.47,12.2-20.58,26.32-18.43,29.19-.05,38.76-7.2,31.58,5.53,34.69,17.73c2.23,8.72,5.7-2.16,7.5-9.07a39.92,39.92,0,0,1,2.55-8.66,6.48,6.48,0,0,0,.67-3.28C389.27,240.74,389.13,243.23,385.7,245.16Z"/><path class="cls-27" d="M162.49,40.54c7.94,8,16.65,9.19,27.11,6.91s13-3.1,4.65-3.18-22-4.25-30.39-8.62S158.91,36.94,162.49,40.54Z"/><path class="cls-27" d="M143.38,13.9c3.05-6.11,5.85,4.73,9.61,10.41s-3.33,3.06-6.56,0S142.13,16.41,143.38,13.9Z"/><path class="cls-27" d="M218.57,35.61C223.39,38,232.75,39,236.7,36.69s-8.8-1.52-16.51-3.19S214.67,33.71,218.57,35.61Z"/><path class="cls-27" d="M298.16,97.79c3.74-5.47,4.93-10.73,7.8-5.86s-2.14,9-7.8,9.52C293.85,101.88,296.67,100,298.16,97.79Z"/><path class="cls-28" d="M270.35,142.87c7.69-3.49,20.06-14.55,18.24-11.65s-4,10.27-13.49,13.14S260.58,147.3,270.35,142.87Z"/><path class="cls-28" d="M184.12,238.24c5.27-.06,16.68,4,24.13,5.15s-8.7,5.41-17.85,3.25S179.73,238.29,184.12,238.24Z"/><path class="cls-28" d="M279.94,235.7c5.35-.6,16.87,1.91,21.18,4.09s-7.48,3.57-12.53,3.6S276,236.14,279.94,235.7Z"/><path class="cls-28" d="M274.92,239.5c3.05,0,1.08-4-4.13-3.89S271.87,239.53,274.92,239.5Z"/><path class="cls-29" d="M174,277.87c8.41,6.14,37,10,29.43,11.72s-17.6,5-26.12-3S165.34,271.59,174,277.87Z"/><path class="cls-29" d="M212.11,286.66c-3.41.09,13.63-13,11.58-8.25S219.11,286.48,212.11,286.66Z"/><path class="cls-29" d="M92.94,255.85c-2.12-2.67,23,1.54,18.29,3.52S96.54,260.38,92.94,255.85Z"/><path class="cls-29" d="M261.46,270.33c7.32-.76,18.83-4.31,14.18,0s-12.21,6.1-20.28,2S254.14,271.09,261.46,270.33Z"/><path class="cls-29" d="M379,247.63c9.53-5,8.62-4.49,7.36-.54s-7.36,5.3-10.14,4.58S375,249.74,379,247.63Z"/><path class="cls-29" d="M116.05,259.21c-1.44-1,9.33-3.83,8.37-2.28S117.48,260.16,116.05,259.21Z"/><path class="cls-30" d="M56.71,232.17c8.37-10.53,9.81-24.89,16-26.8s14.35,4.31,20.1,9.09,27-5.07,31.34-25.6,2.15-85.73,5-135.58S142.6,1.51,163.66,4.38s30.63,20,50.25,26,35.89,1,38.28,22.89,6.4,68.78,20.22,46.57c20.1-32.3,31.46-21.77,38.64-.24s33,93.8,40.68,100.5,23.92,1.43,22,16.75,19.62,16.21,14.83,26.53-5.74,36.85-6.22,66.17,14.36,50.86-3.35,51.81.48-43.06-1.43-71.78-24.72-50.91-39.24-39.72c-23,17.71-31.11,11-43.07,7.66s-17.71,40.2-35.89,25.84-27.28-12-33,2.87-11,43.07-27.76,28.72-42.11-37.81-59.81-40.68-34.46,7.18-51.69-8.14-25.48-23-29.07-6.69,4.67,86.13-4.42,86.13-7.77-26.8-4.84-51.2-15.26-34.46-5.69-45.94S56.71,232.17,56.71,232.17Z"/><path class="cls-31" d="M130.44,44.55c.92,15.11,8.87,19.32,12.43,4.89s1.51-20.32,1.51-20.32Z"/><path class="cls-32" d="M185.51,72.73c1.36,8,16.09,14.22,16,6.2S185.51,72.73,185.51,72.73Z"/><path class="cls-33" d="M205.34,46.85c2.35,11.13,15.34,23,15,6.18S205.34,46.85,205.34,46.85Z"/><path class="cls-34" d="M244.25,53.43c-7.37,11-6.23,29.37-1.66,31.92s7.92-12.8,7.92-12.8Z"/><path class="cls-35" d="M244.78,100.29c-1.44,8.65,1,19,7.78,19.82s3.77-7.46,3.77-7.46Z"/><path class="cls-36" d="M174.46,98.08c-3.38,9.43-.09,19.69,5.44,22.81s10.15-6.11,8.32-10.94S174.46,98.08,174.46,98.08Z"/><path class="cls-37" d="M172.3,152c-4.09,6.24-.54,12,3.78,14.14s4.64-6,4.64-6Z"/><path class="cls-38" d="M253.61,182c-4.58,6.18-1.75,11.8,2.72,13.28s3.47-6.63,3.47-6.63Z"/><path class="cls-39" d="M304.67,115.63c-4.39,10.06-1.28,17.81,4,19.32s6.8-7.09,6.8-7.09Z"/><path class="cls-40" d="M198.51,266.79c-8.53,1.51-25.15,10.71-5.95,11.85s27.26-2.12,9-11.85Z"/><path class="cls-41" d="M126.14,250.11c-27.81,5.08-16.78,8.05-4.7,8.57s38.39-1.39,26.43-5.46A57.31,57.31,0,0,0,126.14,250.11Z"/><path class="cls-42" d="M66.64,243.39C46,245,45,251.2,46,260.35s4.05-4.1,8.35-8.48,16.38-8.48,16.38-8.48Z"/><path class="cls-43" d="M238.8,241.2c10.52,4.37.71,11.27,22.12,12.24s-19.77-12.24-19.77-12.24Z"/><path class="cls-44" d="M307.53,240.25c7.13,1.53,9.26,9.81,23.62,7.68s-20-7.68-20-7.68Z"/><polygon class="cls-45" points="51.57 200.35 66.64 243.39 70.7 243.39 56.71 195.64 51.57 200.35"/><polygon class="cls-46" points="56.71 215.03 61.14 210.75 56.71 195.64 51.57 200.35 56.71 215.03"/><path class="cls-47" d="M25.41,136.14c56-23.45,65.29,57,26.16,66.92S-19.52,155,25.41,136.14Z"/><path class="cls-48" d="M51.57,203.06c15.29-3.89,23.14-18.53,23.75-33.53-4.61-12.48-10.75-27.35-15.84-33.69a27.54,27.54,0,0,0-5.91-2.58c-7.3,3.71.68,17.2.68,17.2s.9,12.11-11.18,15.07-45.3-8.64-27.44-23.79C-14,164.35,15.76,212.18,51.57,203.06Z"/><path class="cls-49" d="M51.57,203.06a29,29,0,0,0,17.12-12.24c-4,5.44-8.71-.21-18.08,8.65s-36.43-2.35-16.69-4.91,39.63-14.69,39.79-14.78a45.27,45.27,0,0,0,1.61-10.25c-1.52-4.12-3.21-8.5-5-12.75l-.17,0c-10.41-1.08-22.86,9.37-34.64,11.3-10.9,1.79-32.36-2.35-30.33-12.32C-3.2,179.56,22.12,210.56,51.57,203.06Z"/><path class="cls-50" d="M4.25,172.26,0,173.8s.72,12.11,10.05,20.76c0,0,37.16.15,67.39-16.77,0,0,3.68-17.75,0-24.57C77.44,153.22,50.13,171.8,4.25,172.26Z"/><path class="cls-51" d="M78.16,155a10,10,0,0,0-.72-1.82s-27.31,18.58-73.19,19L0,173.8C30,180.43,54.76,173.62,78.16,155Z"/><path class="cls-52" d="M23.45,171.69c37-7.85,48.1-13.58,39.6-6.94S35.94,178,26.34,176.14,12.7,174,23.45,171.69Z"/><path class="cls-53" d="M59.8,167c-9.82,6.84-4.11,21.57-14.4,20.26s-13.67-10.84-26.74-11l-.05-.09A101,101,0,0,1,0,173.8s.72,12.11,10.05,20.76c0,0,37.16.15,67.39-16.77,0,0,3.11-15,.72-22.75A109.79,109.79,0,0,1,59.85,167Z"/><path class="cls-52" d="M23.21,140.53c11-6.09,23.45-9.6,22.73-3.61s-8.37,12.74-17,11.41S15.13,145,23.21,140.53Z"/><path class="cls-54" d="M77.44,177.79a96.19,96.19,0,0,0,1.44-10.51L68.26,146.07,54.4,133.53s-1.88-.62-3.62,3.2,3.95,11.75,3.54,17.63a23.17,23.17,0,0,1-3.54,10.39l7.65-2.33s4.62,2.33,2.71,3.88-2.71,19.87-2.71,19.87l4-1.46s8.57,1.69,6.27,6a38.48,38.48,0,0,0,5-11C75,179.13,76.21,178.48,77.44,177.79Z"/><path class="cls-55" d="M144.47,26.31c-3-3.51-22.3,4.48-20.49,17.87a.83.83,0,0,0,.64.71.7.7,0,0,0,.1.08c2.35,1.37,9.61-.16,15.27-4.82S146.52,27.74,144.47,26.31Z"/><path class="cls-56" d="M144.47,26.31a2.09,2.09,0,0,1,.33.65c1.1,4.59-16.65,19.1-20.18,17.93a.7.7,0,0,0,.1.08c2.35,1.37,9.61-.16,15.27-4.82S146.52,27.74,144.47,26.31Z"/><path class="cls-4" d="M135.81,32.22c3.65-1,6.67-6.16,2.68-5.23S128.6,34.22,135.81,32.22Z"/><path class="cls-5" d="M248.94,75.05c4.64.19,12-19.31,1-27.17a.85.85,0,0,0-.95,0,.5.5,0,0,0-.12,0c-2.61.77-6.48,7.11-7,14.42S246.5,75.57,248.94,75.05Z"/><path class="cls-3" d="M248.94,75.05a2.12,2.12,0,0,1-.7-.2c-4.09-2.35-2.49-25.21.78-27a.5.5,0,0,0-.12,0c-2.61.77-6.48,7.11-7,14.42S246.5,75.57,248.94,75.05Z"/><path class="cls-6" d="M250.52,54.75c-.18,3.6,3.57,7.87,3.92,4S250.87,47.62,250.52,54.75Z"/><path class="cls-57" d="M259.25,112.22c2.5-2.32-3.84-16.28-13.64-14.62a.61.61,0,0,0-.5.48l-.06.08c-.94,1.76.35,7.06,3.92,11.1S258.25,113.77,259.25,112.22Z"/><path class="cls-3" d="M259.25,112.22a1.33,1.33,0,0,1-.47.26c-3.35.92-14.44-11.77-13.67-14.4l-.06.08c-.94,1.76.35,7.06,3.92,11.1S258.25,113.77,259.25,112.22Z"/><path class="cls-6" d="M252.84,102.46c.74,2.3,4.09,4.08,3.4,1.57S251.38,97.93,252.84,102.46Z"/><path class="cls-2" d="M203.24,77.77c1.42-3.11-9.81-13.54-18.21-8.23a.59.59,0,0,0-.28.64.94.94,0,0,0,0,.09c-.19,2,3.05,6.38,7.9,8.73S202.92,79.58,203.24,77.77Z"/><path class="cls-3" d="M203.24,77.77a1.38,1.38,0,0,1-.32.42c-2.74,2.14-17.87-5.29-18.17-8a.94.94,0,0,0,0,.09c-.19,2,3.05,6.38,7.9,8.73S202.92,79.58,203.24,77.77Z"/><path class="cls-4" d="M192.45,71.59c1.78,1.62,5.57,1.5,3.73-.33S188.93,68.37,192.45,71.59Z"/><path class="cls-5" d="M184,91.86c8.08,0,10.05,25.09,0,23.71S167.82,92,184,91.86Z"/><path class="cls-3" d="M184,115.57c5.91.81,7.64-7.54,6.44-14.55.23,1.79.7,7.33-2.19,8.93-3.45,1.9-13.51-1.87-14.15-9.37C173.7,107,178.16,114.77,184,115.57Z"/><path class="cls-6" d="M183.25,99.39c.35,2,4.61,3.53,4.94,1.19s-1-5.77-2.47-6.31S182.72,96.25,183.25,99.39Z"/><path class="cls-57" d="M209.06,38.68c5.33-3.3,16.83,12.55,9.61,15.71S198.4,45.3,209.06,38.68Z"/><path class="cls-3" d="M218.67,54.39c4.25-1.86,2-8.09-1.63-12.25.88,1.09,3.44,4.57,2.17,6.8-1.52,2.66-9.71,4.24-13.18-.47C208.39,52.88,214.5,56.22,218.67,54.39Z"/><path class="cls-6" d="M211.64,44c1,1.2,4.48.47,3.75-1.21s-3-3.42-4.19-3.18S210,42.1,211.64,44Z"/><path class="cls-5" d="M314.7,109.83c8.08,0,8.28,21.71-1.67,20.52S298.54,109.91,314.7,109.83Z"/><path class="cls-3" d="M313,130.35c2.75.33,4.69-1.12,5.94-3.35-2.74,4.21-13-3.87-12.09-10.12.68-4.6,2.76-6,3.85-6.51C299.5,113.42,304,129.27,313,130.35Z"/><path class="cls-6" d="M314,116.47c-2.75-.71-1.87-6.35,1.56-4.6S320.68,118.21,314,116.47Z"/><path class="cls-2" d="M178.06,149.45c5,0,5.15,13.51-1,12.77S168,149.5,178.06,149.45Z"/><path class="cls-3" d="M177,162.22a3.61,3.61,0,0,0,3.7-2.08c-1.71,2.62-8.11-2.41-7.53-6.3.43-2.86,1.72-3.76,2.4-4.05C168.6,151.69,171.41,161.55,177,162.22Z"/><path class="cls-6" d="M177.61,153.59c-1.71-.44-1.16-4,1-2.87S181.78,154.67,177.61,153.59Z"/><path class="cls-55" d="M259.17,179.27c5,0,5.15,13.51-1,12.77S249.11,179.32,259.17,179.27Z"/><path class="cls-56" d="M258.13,192a3.61,3.61,0,0,0,3.69-2.08c-1.7,2.62-8.1-2.41-7.52-6.3.42-2.86,1.72-3.77,2.4-4C249.71,181.5,252.52,191.37,258.13,192Z"/><path class="cls-6" d="M258.72,183.41c-1.71-.45-1.16-4,1-2.87S262.89,184.49,258.72,183.41Z"/><polygon class="cls-58" points="110.71 174.76 126.14 250.11 131.17 250.11 117.53 172.25 110.71 174.76"/><polygon class="cls-46" points="115.77 199.47 121.44 194.56 117.53 172.25 110.71 174.76 115.77 199.47"/><path class="cls-59" d="M58.43,120.45s-7.9-26.56,25.84-42.11,78.48,1.44,77.52,42.11-26.55,61.26-64.36,62S46.71,138.4,58.43,120.45Z"/><path class="cls-60" d="M100.46,146.35a10.81,10.81,0,0,1-3.27,1.32c-4.64,1-8.7-3-10.91-9.26-4.16,1.37-11.29,4.25-12.35,8.15,5.77,5.63,13.36,10.13,23.14,10.8a35.94,35.94,0,0,0,8.25-.37C100.28,155.48,95,152.39,100.46,146.35Z"/><path class="cls-60" d="M111.49,131.4c.5-.05-.85,3.32-3.31,7,1.14,3,5.28,12.29,11.79,12.38a42,42,0,0,0,13.69-17.86C129.32,137.2,121.23,141.79,111.49,131.4Z"/><path class="cls-60" d="M71.78,122.43c5.37-2.31,9.74,1.44,12.77,5.78a41.07,41.07,0,0,1,2.65-15.35c0-.09.08-.16.11-.25-1.43-3.19-6.41-12.21-17.32-13-6.19-.44-9.7,3.32-11.71,7.46a30.4,30.4,0,0,0,.15,13.38,68.61,68.61,0,0,0,6.63,14.68C64.77,130.66,65.76,125,71.78,122.43Z"/><path class="cls-60" d="M92.68,103.74a26.27,26.27,0,0,1,34-4.23c.51.33,1,.71,1.43,1.08,12.91-4.91,4.12-19.43-.22-25.42a62.6,62.6,0,0,0-43.62,3.17l-.59.29C97.46,83.49,92.68,103.74,92.68,103.74Z"/><path class="cls-60" d="M65.53,141.14a84.62,84.62,0,0,1-7.1-20.69c-3.17,4.86-4.52,11.67-4.08,19A20.77,20.77,0,0,1,65.53,141.14Z"/><path class="cls-60" d="M137.85,122.43l0,.1a41.34,41.34,0,0,1-4.15,18.5,58.47,58.47,0,0,1-6.16,9.9c2.47,4.16,12.77,9.51,21.24,9.68,8-10,12.64-23.31,13-40.16a48.38,48.38,0,0,0-.17-5.29C152.26,124,137.85,122.43,137.85,122.43Z"/><path class="cls-60" d="M105.7,165.55a30.91,30.91,0,0,1-12.22-.11,34.71,34.71,0,0,1-16.39-8.57c-1.92,3.47-5.6,11.26-4.4,17.92a39.44,39.44,0,0,0,24.74,7.63,93.74,93.74,0,0,0,13.92-1.27C105.39,176.58,105.33,169.08,105.7,165.55Z"/><path class="cls-61" d="M58.43,120.45s9.93,34.94,38.64,36.91,41.63-28.89,38.4-37.86-26.49-17-38.28-8.44-11.42,17.77-5,23.51,14.35,3.42,18.3-2.15-3.7,13.28-13.34,15.25-16.81-16.87-10-34.81,26.38-22,39.48-13.35,13.64,28.06,7,41.52-20.28,28.53-40.2,24.41S62.5,140.07,58.43,120.45Z"/><path class="cls-62" d="M93.48,165.44c-19.92-4.13-31-25.37-35.05-45a28.84,28.84,0,0,0-4.11,14.24c4,21.38,37.22,58.65,69.41,20.62l.13-.16C116.44,162.81,106.26,168.08,93.48,165.44Z"/><path class="cls-63" d="M95.64,172.82c-25.51-.14-40-22.21-41.37-36.57C54,156.61,68.34,183,97.43,182.42c35.94-.68,60.81-19.35,64-56.13C158.39,144.09,121,173,95.64,172.82Z"/><path class="cls-62" d="M135.47,119.5c-3.23-9-26.49-17-38.28-8.44-10.66,7.8-11.36,16-6.62,21.77-4.1-7,18.1-17.16,31.38-16.83,14.41.36,13.93,8.6,12.56,14.61C136,126,136.36,121.94,135.47,119.5Z"/><path class="cls-63" d="M126.68,99.51c13.1,8.68,13.64,28.06,7,41.52-.88,1.78-1.89,3.59-3,5.38,12.52-14.61,14.32-47-7.58-58.71S84.88,98.4,84.54,126a41.45,41.45,0,0,1,2.66-13.15C94,94.91,113.58,90.82,126.68,99.51Z"/><path class="cls-62" d="M70.15,107c6.11-13.82,25.31-26,43.43-26.74s41.28,6.64,47.86,32.75c-4.29-35.27-45.56-49.27-77.17-34.7-8.19,3.78-13.92,8.21-17.91,12.75C58.34,100.89,64.28,120.34,70.15,107Z"/><path class="cls-63" d="M58.43,120.45s9.93,34.94,38.64,36.91a34,34,0,0,0,23.86-7.28c-.27.12-31.12,13.89-51.49-14.7C58.51,120.05,59,107.18,61.83,98.51c-1.13,2.33-2.28,4.89-3.35,7.64A30.77,30.77,0,0,0,58.43,120.45Z"/><path class="cls-64" d="M133.12,86.45c11.58,9.3,16.71,30.87,19.34,24.17s-1.26-19.1-9.67-26.09S120,75.93,133.12,86.45Z"/><polygon class="cls-58" points="311.11 191.08 307.52 240.25 311.11 240.25 318.16 192.69 311.11 191.08"/><polygon class="cls-46" points="309.78 209.31 315.92 207.86 318.16 192.69 311.11 191.08 309.78 209.31"/><path class="cls-65" d="M290.47,156.68s7.54-24.41,36.61-18.13,31.05,37.87,16.15,52.76-51.4,10.23-57.91-6.64S287.06,156.86,290.47,156.68Z"/><path class="cls-60" d="M302.63,185.23c3.92,1.17,8.85,1.46,15,.46a43.88,43.88,0,0,0,5.81-1.34c2.77-3.29-.38-9.89-5.82-9.85a3.45,3.45,0,0,1-.65,0,14.19,14.19,0,0,1-6.75-3.3C316.14,182.66,304.57,184.08,302.63,185.23Z"/><path class="cls-60" d="M348.91,183.18c1-2.74,1.14-5.43-1.67-6-4-.85-7.36,1.21-9.25,2.75,0,.34-.08.68-.14,1-.8,4.42-5.1,7.33-10.74,8.77h.15c8.27-.63,7.75,4.32,6.5,7.68a27.91,27.91,0,0,0,9.47-6A29.66,29.66,0,0,0,348.91,183.18Z"/><path class="cls-60" d="M323.08,154.21a17.15,17.15,0,0,1,13.1,10.26c-.47-10,8.26-15.26,12.82-10.14-3.79-7.37-10.9-13.39-21.92-15.78C311.08,136.16,319.45,149.29,323.08,154.21Z"/><path class="cls-60" d="M287.9,171.21c-1.75-5-1.89-9.3-1.11-10.67a12.33,12.33,0,0,1,1-1.51l0-.77c-2.74,2.74-5.71,8.93-4.71,17.59C286.16,176.52,287.36,173.52,287.9,171.21Z"/><path class="cls-60" d="M290.47,156.68c-.17.51-.33,1.06-.48,1.62-1.77,12.39,15,8.54,15.94,4,.49-3.72,3.57-7.18,9.16-8.23-6.28-1.68-16.24-9.5-9.51-14.08C294,145.23,290.47,156.68,290.47,156.68Z"/><path class="cls-60" d="M320.64,195.45c.15-2.47-1.7-3.91-3.64-4.73-6.06-.18-12.3-1.65-17-4.42a25.27,25.27,0,0,1-5.05-3.92l0,.05a5.22,5.22,0,0,1-6.11,7.74c3.89,4.17,9.95,7.15,16.76,8.75C305.82,198.94,320.32,200.49,320.64,195.45Z"/><path class="cls-61" d="M290.47,156.68c-3.76,10.95-1.15,33.62,27.15,29s18.25-26,10.54-26.5-16.51,7.37-11.31,12.3-3.77,3.71-9-2.59-.36-16.71,14-14.91,17.94,16,16,26.92-25.3,12.76-37.87,5.39-14.8-22.91-13.19-25.76A9.77,9.77,0,0,1,290.47,156.68Z"/><path class="cls-63" d="M292.69,190.36c-9.6-7.74-9.19-21.1-8.9-24.64-1.32,4.77-1.45,11.23,1.53,18.95,6,15.62,37.77,20.77,54.26,9.62C334,198.5,303.74,199.27,292.69,190.36Z"/><path class="cls-62" d="M289.13,165.45s.45-14.51,19.29-19.9,33.44,1.76,37.15,19.38c3.64,17.34,1.94,19.41-.9,24.73,13.24-15.45,10.47-45-17.59-51.11-29.07-6.28-36.61,18.13-36.61,18.13A26.8,26.8,0,0,0,289.13,165.45Z"/><path class="cls-63" d="M290.5,173.67c2.87,8.12,10.63,14.7,27.12,12,10.24-1.67,15.44-5.52,17.57-9.79C326.79,185.24,293.91,184,290.5,173.67Z"/><path class="cls-62" d="M336.3,172.26c.81-6.48-4-12.78-8.14-13.07-6.89-.48-14.62,5.77-12.48,10.63C312.19,160.55,336.81,166,336.3,172.26Z"/><path class="cls-62" d="M300,186.3c-12.51-7.34-14.78-22.79-13.2-25.72l-.23-.84a18,18,0,0,0-2.14,4.08c-.94,4.62-1.42,13.69,5.72,23.19,10.05,13.36,40.08,6.7,46-2.38C330.12,192.16,311,192.73,300,186.3Z"/><path class="cls-63" d="M321.88,154c11,1.37,15.66,10,16.36,18.9a7.19,7.19,0,0,1,.73-.56c.92-12.47-7.06-25.93-21.35-23.79C303.77,150.63,305.35,162,306,164.87,304.94,159,310.32,152.54,321.88,154Z"/><path class="cls-64" d="M334.26,149.45c10.85,8.19,10.55,25.45,12.1,19.45s1.83-16.53-5.73-22S322.78,140.79,334.26,149.45Z"/><polygon class="cls-58" points="198.51 223.38 198.51 266.79 201.55 266.79 201.55 221.23 198.51 223.38"/><polygon class="cls-46" points="198.51 233.67 201.55 233.67 201.55 221.23 198.51 223.38 198.51 233.67"/><path class="cls-66" d="M197.33,226.43c28.45,1.36,37.87-37.86,6.42-41.45S173.37,225.28,197.33,226.43Z"/><path class="cls-67" d="M197.33,226.43c22.87,1.09,33.42-24,20.35-35.79,4.86,4.75,2.67,14.74-11.55,15-14.38.24-25.48-15.16-12.6-20C172.92,191.63,176.34,225.43,197.33,226.43Z"/><path class="cls-68" d="M197.33,226.43a26,26,0,0,0,14.23-3.26l-1.84.7c-5.56,2.1-11.84-.57-17.32,0s-10-6.19-3-3.25S210.7,222,216.93,219a21.88,21.88,0,0,0,6.2-18.14c-.22.58-2.48,5.07-18.35,5.57C188,207,179.37,200.88,182,195.27,176,207.37,182,225.69,197.33,226.43Z"/><path class="cls-69" d="M180,201.56h-2.37a39.46,39.46,0,0,0,1.18,14s21.19,10.87,43.68.55a28.85,28.85,0,0,0,2.87-11.08l-2-.49s-7.54,2.76-21.42,2.7S180,201.56,180,201.56Z"/><path class="cls-70" d="M201.94,207.27c-13.87-.06-21.91-5.71-21.91-5.71h-2.37s17.82,18.63,47.73,3.5l-2-.49S215.82,207.33,201.94,207.27Z"/><path class="cls-71" d="M191.4,209.33c8.28,3.41,18.77,1.23,23.34-1.19s-6.37.74-15.52-.26S186.45,207.3,191.4,209.33Z"/><path class="cls-72" d="M216.71,208.66c-3.91,1.43-5,6.21-11.12,8.72s-10.59-4.67-19.5-10.11a31.32,31.32,0,0,1-8.43-5.71,39.46,39.46,0,0,0,1.18,14s21.19,10.87,43.68.55a28.85,28.85,0,0,0,2.87-11.08,61,61,0,0,1-8.63,3.58Z"/><path class="cls-71" d="M200.75,189.5c7.79,4.39,11.87,2,13.92.6s-5.46-4.57-13.24-4.84S198.52,188.24,200.75,189.5Z"/><path class="cls-73" d="M243.81,159.87c26.09-1.28,17.47-41.15-3.34-37.8S214.62,161.31,243.81,159.87Z"/><path class="cls-74" d="M243.81,159.87c15.9-.78,18.9-15.88,14.11-26.81-7.52-10.17-26.06-10.52-31.76-.49C219.84,144.17,223.72,160.86,243.81,159.87Z"/><path class="cls-49" d="M258.08,133.48c-12-11.27-33,2.38-33.46,2.66-3.82,11.16,1.09,24.62,19.19,23.73a18.57,18.57,0,0,0,8.56-2.37c-7,3-4.75-8.26-14.69-4.71s-10.58-.9-4.12-5.29,26.73-.5,23.43,5.73C260.75,147.78,260.78,140,258.08,133.48Z"/><path class="cls-50" d="M221.8,137.84a43.24,43.24,0,0,1,39.12-3.71,21.63,21.63,0,0,1,.6,12l-2,1.09s-6-3.32-17.86-2.74-16.13,7.41-16.13,7.41l-2.19-.6S220.25,147.53,221.8,137.84Z"/><path class="cls-75" d="M241.7,144.44c11.87-.58,17.86,2.74,17.86,2.74l2-1.09s-26.33-14.69-38.14,5.16l2.19.6S229.82,145,241.7,144.44Z"/><path class="cls-51" d="M250.33,134.5c5.21-.55,5.93-1.81,10.59-.37a43.41,43.41,0,0,0-32.78.36C235.57,132.14,245.13,135,250.33,134.5Z"/><path class="cls-76" d="M241.7,144.44c11.87-.58,17.86,2.74,17.86,2.74l2-1.09s-26.33-14.69-38.14,5.16l2.19.6S229.82,145,241.7,144.44Z"/><path class="cls-52" d="M238.76,133.71c7.94,1.75,11.93,1.56,15.34,0s-4.15-2.45-9.57-2.09S234,132.66,238.76,133.71Z"/><path class="cls-77" d="M223.38,151.25l2.19.6s4.25-6.84,16.13-7.41,17.86,2.74,17.86,2.74l2-1.09a21.63,21.63,0,0,0-.6-12c-7.18-2.16-6.46,4.3-12.33,6.32s-13.33-6.14-20.45-6a34.77,34.77,0,0,0-6.34,3.35C220.25,147.53,223.38,151.25,223.38,151.25Z"/><path class="cls-52" d="M244.53,124.31c5.8.87,10.68,5.38,8.59,2.73s-7.66-6.46-13.32-3.59S240.08,123.65,244.53,124.31Z"/><path class="cls-49" d="M235.92,154.59c6.9-2.18,9-1.25,10.65,2.12s-8.38.34-10.65,0S234.87,154.92,235.92,154.59Z"/><polygon class="cls-45" points="238.8 156.71 238.8 241.19 241.16 241.19 242.59 156.71 238.8 156.71"/><polygon class="cls-46" points="238.8 171.21 242.36 170.52 242.59 156.71 238.8 156.71 238.8 171.21"/><path class="cls-78" d="M179,17.35c25.94,8.56,12.06,22.94,5,23.92s-23-4.35-27.68-13.35S151.88,8.42,179,17.35Z"/><path class="cls-78" d="M293.4,99.65c-3.26,1-8.25-14.87-.54-14.15S301.84,96.93,293.4,99.65Z"/><path class="cls-79" d="M55,362.72c-4.63,3.78-10-5.36-4.79-7.85C54.8,352.83,58.32,359.42,55,362.72Z"/></g></g></g></svg>