<svg xmlns="http://www.w3.org/2000/svg" xmlns:xlink="http://www.w3.org/1999/xlink" viewBox="0 0 167.13 148.69"><defs><style>.cls-1{isolation:isolate;}.cls-2{fill:url(#Áåçûìÿííûé_ãðàäèåíò_1054);}.cls-101,.cls-102,.cls-103,.cls-105,.cls-110,.cls-3,.cls-88{opacity:0.7;}.cls-10,.cls-100,.cls-101,.cls-102,.cls-103,.cls-104,.cls-106,.cls-107,.cls-109,.cls-11,.cls-12,.cls-13,.cls-14,.cls-15,.cls-18,.cls-19,.cls-20,.cls-21,.cls-22,.cls-23,.cls-24,.cls-25,.cls-26,.cls-27,.cls-28,.cls-29,.cls-3,.cls-30,.cls-31,.cls-32,.cls-33,.cls-34,.cls-35,.cls-36,.cls-37,.cls-38,.cls-39,.cls-4,.cls-40,.cls-41,.cls-42,.cls-43,.cls-44,.cls-45,.cls-46,.cls-47,.cls-48,.cls-49,.cls-50,.cls-51,.cls-52,.cls-53,.cls-54,.cls-55,.cls-56,.cls-57,.cls-58,.cls-59,.cls-6,.cls-60,.cls-61,.cls-62,.cls-63,.cls-64,.cls-65,.cls-66,.cls-67,.cls-68,.cls-69,.cls-7,.cls-70,.cls-71,.cls-72,.cls-73,.cls-74,.cls-75,.cls-76,.cls-77,.cls-78,.cls-79,.cls-8,.cls-80,.cls-81,.cls-82,.cls-83,.cls-84,.cls-85,.cls-87,.cls-88,.cls-89,.cls-90,.cls-91,.cls-92,.cls-94,.cls-98,.cls-99{mix-blend-mode:multiply;}.cls-3{fill:url(#Áåçûìÿííûé_ãðàäèåíò_989);}.cls-4{fill:url(#Áåçûìÿííûé_ãðàäèåíò_989-2);}.cls-108,.cls-17,.cls-5,.cls-9{fill:#ffcba3;}.cls-5{opacity:0.6;}.cls-105,.cls-108,.cls-110,.cls-111,.cls-5{mix-blend-mode:screen;}.cls-6{opacity:0.1;fill:url(#linear-gradient);}.cls-10,.cls-11,.cls-111,.cls-12,.cls-13,.cls-14,.cls-15,.cls-18,.cls-19,.cls-20,.cls-21,.cls-22,.cls-23,.cls-24,.cls-25,.cls-26,.cls-27,.cls-28,.cls-29,.cls-30,.cls-31,.cls-32,.cls-33,.cls-34,.cls-35,.cls-36,.cls-37,.cls-38,.cls-39,.cls-40,.cls-41,.cls-42,.cls-43,.cls-44,.cls-45,.cls-46,.cls-47,.cls-48,.cls-49,.cls-50,.cls-51,.cls-52,.cls-53,.cls-54,.cls-55,.cls-56,.cls-57,.cls-58,.cls-59,.cls-60,.cls-61,.cls-62,.cls-63,.cls-64,.cls-65,.cls-66,.cls-67,.cls-68,.cls-69,.cls-7,.cls-70,.cls-71,.cls-72,.cls-73,.cls-74,.cls-75,.cls-76,.cls-77,.cls-78,.cls-79,.cls-8,.cls-80,.cls-81,.cls-82,.cls-83,.cls-98,.cls-99{opacity:0.2;}.cls-7{fill:url(#linear-gradient-2);}.cls-8{fill:url(#linear-gradient-3);}.cls-16,.cls-9,.cls-95{mix-blend-mode:overlay;}.cls-10{fill:url(#linear-gradient-4);}.cls-11{fill:url(#linear-gradient-5);}.cls-12{fill:url(#linear-gradient-6);}.cls-13{fill:url(#linear-gradient-7);}.cls-14{fill:url(#linear-gradient-8);}.cls-15{fill:url(#linear-gradient-9);}.cls-18{fill:url(#linear-gradient-10);}.cls-19{fill:url(#linear-gradient-11);}.cls-20{fill:url(#linear-gradient-12);}.cls-21{fill:url(#linear-gradient-13);}.cls-22{fill:url(#linear-gradient-14);}.cls-23{fill:url(#linear-gradient-15);}.cls-24{fill:url(#linear-gradient-16);}.cls-25{fill:url(#linear-gradient-17);}.cls-26{fill:url(#linear-gradient-18);}.cls-27{fill:url(#linear-gradient-19);}.cls-28{fill:url(#linear-gradient-20);}.cls-29{fill:url(#linear-gradient-21);}.cls-30{fill:url(#linear-gradient-22);}.cls-31{fill:url(#linear-gradient-23);}.cls-32{fill:url(#linear-gradient-24);}.cls-33{fill:url(#linear-gradient-25);}.cls-34{fill:url(#linear-gradient-26);}.cls-35{fill:url(#linear-gradient-27);}.cls-36{fill:url(#linear-gradient-28);}.cls-37{fill:url(#linear-gradient-29);}.cls-38{fill:url(#linear-gradient-30);}.cls-39{fill:url(#linear-gradient-31);}.cls-40{fill:url(#linear-gradient-32);}.cls-41{fill:url(#linear-gradient-33);}.cls-42{fill:url(#linear-gradient-34);}.cls-43{fill:url(#linear-gradient-35);}.cls-44{fill:url(#linear-gradient-36);}.cls-45{fill:url(#linear-gradient-37);}.cls-46{fill:url(#linear-gradient-38);}.cls-47{fill:url(#linear-gradient-39);}.cls-48{fill:url(#linear-gradient-40);}.cls-49{fill:url(#linear-gradient-41);}.cls-50{fill:url(#linear-gradient-42);}.cls-51{fill:url(#linear-gradient-43);}.cls-52{fill:url(#linear-gradient-44);}.cls-53{fill:url(#linear-gradient-45);}.cls-54{fill:url(#linear-gradient-46);}.cls-55{fill:url(#linear-gradient-47);}.cls-56{fill:url(#linear-gradient-48);}.cls-57{fill:url(#linear-gradient-49);}.cls-58{fill:url(#linear-gradient-50);}.cls-59{fill:url(#linear-gradient-51);}.cls-60{fill:url(#linear-gradient-52);}.cls-61{fill:url(#linear-gradient-53);}.cls-62{fill:url(#linear-gradient-54);}.cls-63{fill:url(#linear-gradient-55);}.cls-64{fill:url(#linear-gradient-56);}.cls-65{fill:url(#linear-gradient-57);}.cls-66{fill:url(#linear-gradient-58);}.cls-67{fill:url(#linear-gradient-59);}.cls-68{fill:url(#linear-gradient-60);}.cls-69{fill:url(#linear-gradient-61);}.cls-70{fill:url(#linear-gradient-62);}.cls-71{fill:url(#linear-gradient-63);}.cls-72{fill:url(#linear-gradient-64);}.cls-73{fill:url(#linear-gradient-65);}.cls-74{fill:url(#linear-gradient-66);}.cls-75{fill:url(#linear-gradient-67);}.cls-76{fill:url(#linear-gradient-68);}.cls-77{fill:url(#linear-gradient-69);}.cls-78{fill:url(#linear-gradient-70);}.cls-79{fill:url(#linear-gradient-71);}.cls-80{fill:url(#linear-gradient-72);}.cls-81{fill:url(#linear-gradient-73);}.cls-82{fill:url(#linear-gradient-74);}.cls-83{fill:#d17255;}.cls-100,.cls-104,.cls-106,.cls-107,.cls-109,.cls-84,.cls-85,.cls-94{opacity:0.3;}.cls-84{fill:url(#Gradient_16);}.cls-85{fill:url(#Gradient_16-2);}.cls-86{fill:url(#Gradient_34);}.cls-87,.cls-89,.cls-90,.cls-91{opacity:0.4;}.cls-87{fill:url(#Gradient_16-3);}.cls-88{fill:url(#Gradient_16-4);}.cls-89{fill:url(#Gradient_16-5);}.cls-90{fill:url(#Gradient_16-6);}.cls-92{fill:url(#Gradient_16-7);}.cls-93{fill:url(#Gradient_13);}.cls-94{fill:url(#Gradient_16-8);}.cls-95,.cls-96,.cls-97{fill:#ffadbf;}.cls-97{mix-blend-mode:soft-light;}.cls-98{fill:url(#Gradient_16-9);}.cls-99{fill:url(#Gradient_16-10);}.cls-100{fill:url(#Gradient_16-11);}.cls-101{fill:url(#Áåçûìÿííûé_ãðàäèåíò_989-3);}.cls-102{fill:url(#Áåçûìÿííûé_ãðàäèåíò_989-4);}.cls-103{fill:url(#Áåçûìÿííûé_ãðàäèåíò_989-5);}.cls-104{fill:url(#Áåçûìÿííûé_ãðàäèåíò_989-6);}.cls-105{fill:url(#linear-gradient-75);}.cls-106{fill:url(#Áåçûìÿííûé_ãðàäèåíò_989-7);}.cls-107{fill:url(#Áåçûìÿííûé_ãðàäèåíò_989-8);}.cls-108{opacity:0.8;}.cls-109{fill:url(#Áåçûìÿííûé_ãðàäèåíò_989-9);}.cls-110{fill:url(#linear-gradient-76);}.cls-111{fill:url(#linear-gradient-77);}</style><linearGradient id="Áåçûìÿííûé_ãðàäèåíò_1054" x1="83.56" y1="148.69" x2="83.56" gradientUnits="userSpaceOnUse"><stop offset="0" stop-color="#f57c92"/><stop offset="0.27" stop-color="#f99eb5"/><stop offset="0.57" stop-color="#fcbed5"/><stop offset="0.83" stop-color="#fed2ea"/><stop offset="1" stop-color="#ffd9f1"/></linearGradient><linearGradient id="Áåçûìÿííûé_ãðàäèåíò_989" x1="68.14" y1="148.59" x2="68.14" y2="26.79" gradientUnits="userSpaceOnUse"><stop offset="0" stop-color="#f57281"/><stop offset="0.45" stop-color="#faa7a3"/><stop offset="0.81" stop-color="#fecbb9"/><stop offset="1" stop-color="#ffd9c2"/></linearGradient><linearGradient id="Áåçûìÿííûé_ãðàäèåíò_989-2" x1="69.96" y1="148.57" x2="69.96" y2="120.79" xlink:href="#Áåçûìÿííûé_ãðàäèåíò_989"/><linearGradient id="linear-gradient" x1="14.06" y1="65.43" x2="113.36" y2="65.43" gradientUnits="userSpaceOnUse"><stop offset="0" stop-color="#950000"/><stop offset="0.2" stop-color="#9f1f21"/><stop offset="0.64" stop-color="#b96b75"/><stop offset="1" stop-color="#d0aebe"/></linearGradient><linearGradient id="linear-gradient-2" x1="-847.99" y1="-87.19" x2="-850.77" y2="-79.18" gradientTransform="matrix(-0.94, -0.33, -0.33, 0.94, -764.76, -152.15)" xlink:href="#linear-gradient"/><linearGradient id="linear-gradient-3" x1="-848.02" y1="-87.28" x2="-850" y2="-81.6" gradientTransform="matrix(-0.94, -0.33, -0.33, 0.94, -764.76, -152.15)" xlink:href="#linear-gradient"/><linearGradient id="linear-gradient-4" x1="-84.25" y1="-78.49" x2="-84.25" y2="-72.82" gradientTransform="translate(98.4 147.97) rotate(19.16)" xlink:href="#linear-gradient"/><linearGradient id="linear-gradient-5" x1="-98.11" y1="-38.46" x2="-94.65" y2="-28.52" gradientTransform="translate(98.4 147.97) rotate(19.16)" xlink:href="#linear-gradient"/><linearGradient id="linear-gradient-6" x1="-93.66" y1="-28.75" x2="-91.35" y2="-22.07" gradientTransform="translate(98.4 147.97) rotate(19.16)" xlink:href="#linear-gradient"/><linearGradient id="linear-gradient-7" x1="-84.25" y1="-78.58" x2="-84.25" y2="-75.41" gradientTransform="translate(98.4 147.97) rotate(19.16)" xlink:href="#linear-gradient"/><linearGradient id="linear-gradient-8" x1="-97.92" y1="-38.62" x2="-95.48" y2="-31.61" gradientTransform="translate(98.4 147.97) rotate(19.16)" xlink:href="#linear-gradient"/><linearGradient id="linear-gradient-9" x1="-93.55" y1="-28.87" x2="-92.15" y2="-24.83" gradientTransform="translate(98.4 147.97) rotate(19.16)" xlink:href="#linear-gradient"/><linearGradient id="linear-gradient-10" x1="106.65" y1="92.13" x2="106.65" y2="100.85" xlink:href="#linear-gradient"/><linearGradient id="linear-gradient-11" x1="105.63" y1="101.83" x2="105.63" y2="112.56" xlink:href="#linear-gradient"/><linearGradient id="linear-gradient-12" x1="112.16" y1="103.03" x2="112.16" y2="107.18" xlink:href="#linear-gradient"/><linearGradient id="linear-gradient-13" x1="99.7" y1="117.71" x2="99.7" y2="122.47" xlink:href="#linear-gradient"/><linearGradient id="linear-gradient-14" x1="101.13" y1="120.86" x2="101.13" y2="130.18" xlink:href="#linear-gradient"/><linearGradient id="linear-gradient-15" x1="29.18" y1="49.89" x2="29.18" y2="60.47" xlink:href="#linear-gradient"/><linearGradient id="linear-gradient-16" x1="37.78" y1="52.23" x2="37.78" y2="56.29" xlink:href="#linear-gradient"/><linearGradient id="linear-gradient-17" x1="31.95" y1="63.5" x2="31.95" y2="70.12" xlink:href="#linear-gradient"/><linearGradient id="linear-gradient-18" x1="23.64" y1="63.04" x2="23.64" y2="68.52" xlink:href="#linear-gradient"/><linearGradient id="linear-gradient-19" x1="26.73" y1="96.99" x2="26.73" y2="107.12" xlink:href="#linear-gradient"/><linearGradient id="linear-gradient-20" x1="27.58" y1="107.75" x2="27.58" y2="111.08" xlink:href="#linear-gradient"/><linearGradient id="linear-gradient-21" x1="40.59" y1="110.41" x2="40.59" y2="121.25" xlink:href="#linear-gradient"/><linearGradient id="linear-gradient-22" x1="47.44" y1="115.83" x2="47.44" y2="120.41" xlink:href="#linear-gradient"/><linearGradient id="linear-gradient-23" x1="47.55" y1="121.06" x2="47.55" y2="126.13" xlink:href="#linear-gradient"/><linearGradient id="linear-gradient-24" x1="63.39" y1="121.81" x2="63.39" y2="126.71" xlink:href="#linear-gradient"/><linearGradient id="linear-gradient-25" x1="58.82" y1="124.96" x2="58.82" y2="131.31" xlink:href="#linear-gradient"/><linearGradient id="linear-gradient-26" x1="54.59" y1="117.05" x2="54.59" y2="124.51" xlink:href="#linear-gradient"/><linearGradient id="linear-gradient-27" x1="73.33" y1="129.23" x2="73.33" y2="132.53" xlink:href="#linear-gradient"/><linearGradient id="linear-gradient-28" x1="78.01" y1="128.51" x2="78.01" y2="131.3" xlink:href="#linear-gradient"/><linearGradient id="linear-gradient-29" x1="86.38" y1="56.67" x2="86.38" y2="63.52" xlink:href="#linear-gradient"/><linearGradient id="linear-gradient-30" x1="91.18" y1="62.55" x2="91.18" y2="65.35" xlink:href="#linear-gradient"/><linearGradient id="linear-gradient-31" x1="98.66" y1="72.7" x2="98.66" y2="77.87" xlink:href="#linear-gradient"/><linearGradient id="linear-gradient-32" x1="103.03" y1="74.81" x2="103.03" y2="78.45" xlink:href="#linear-gradient"/><linearGradient id="linear-gradient-33" x1="102.06" y1="79.02" x2="102.06" y2="89.75" xlink:href="#linear-gradient"/><linearGradient id="linear-gradient-34" x1="106.13" y1="87.92" x2="106.13" y2="90.73" xlink:href="#linear-gradient"/><linearGradient id="linear-gradient-35" x1="51.16" y1="49.55" x2="51.16" y2="55.7" xlink:href="#linear-gradient"/><linearGradient id="linear-gradient-36" x1="50.26" y1="46.33" x2="50.26" y2="49.11" xlink:href="#linear-gradient"/><linearGradient id="linear-gradient-37" x1="60.42" y1="42.19" x2="60.42" y2="47.23" xlink:href="#linear-gradient"/><linearGradient id="linear-gradient-38" x1="72.11" y1="48.48" x2="72.11" y2="53.19" xlink:href="#linear-gradient"/><linearGradient id="linear-gradient-39" x1="68.4" y1="50.25" x2="68.4" y2="52.96" xlink:href="#linear-gradient"/><linearGradient id="linear-gradient-40" x1="106.66" y1="92.14" x2="106.66" y2="100.17" xlink:href="#linear-gradient"/><linearGradient id="linear-gradient-41" x1="105.63" y1="101.83" x2="105.63" y2="107.93" xlink:href="#linear-gradient"/><linearGradient id="linear-gradient-42" x1="112.16" y1="103.03" x2="112.16" y2="105.42" xlink:href="#linear-gradient"/><linearGradient id="linear-gradient-43" x1="99.71" y1="117.71" x2="99.71" y2="120.87" xlink:href="#linear-gradient"/><linearGradient id="linear-gradient-44" x1="101.13" y1="120.86" x2="101.13" y2="129.07" xlink:href="#linear-gradient"/><linearGradient id="linear-gradient-45" x1="29.19" y1="49.89" x2="29.19" y2="59.26" xlink:href="#linear-gradient"/><linearGradient id="linear-gradient-46" x1="37.79" y1="52.24" x2="37.79" y2="55.24" xlink:href="#linear-gradient"/><linearGradient id="linear-gradient-47" x1="31.94" y1="63.5" x2="31.94" y2="67.84" xlink:href="#linear-gradient"/><linearGradient id="linear-gradient-48" x1="23.65" y1="63.03" x2="23.65" y2="67" xlink:href="#linear-gradient"/><linearGradient id="linear-gradient-49" x1="26.74" y1="96.98" x2="26.74" y2="104.45" xlink:href="#linear-gradient"/><linearGradient id="linear-gradient-50" x1="27.58" y1="107.76" x2="27.58" y2="109.84" xlink:href="#linear-gradient"/><linearGradient id="linear-gradient-51" x1="40.59" y1="110.41" x2="40.59" y2="116.89" xlink:href="#linear-gradient"/><linearGradient id="linear-gradient-52" x1="47.45" y1="115.83" x2="47.45" y2="118.61" xlink:href="#linear-gradient"/><linearGradient id="linear-gradient-53" x1="47.54" y1="121.07" x2="47.54" y2="125.6" xlink:href="#linear-gradient"/><linearGradient id="linear-gradient-54" x1="63.39" y1="121.81" x2="63.39" y2="124.61" xlink:href="#linear-gradient"/><linearGradient id="linear-gradient-55" x1="58.81" y1="124.96" x2="58.81" y2="130.6" xlink:href="#linear-gradient"/><linearGradient id="linear-gradient-56" x1="54.59" y1="117.06" x2="54.59" y2="122.3" xlink:href="#linear-gradient"/><linearGradient id="linear-gradient-57" x1="73.32" y1="129.23" x2="73.32" y2="132.03" xlink:href="#linear-gradient"/><linearGradient id="linear-gradient-58" x1="78" y1="128.51" x2="78" y2="130.36" xlink:href="#linear-gradient"/><linearGradient id="linear-gradient-59" x1="86.39" y1="56.68" x2="86.39" y2="61.6" xlink:href="#linear-gradient"/><linearGradient id="linear-gradient-60" x1="91.17" y1="62.55" x2="91.17" y2="64.54" xlink:href="#linear-gradient"/><linearGradient id="linear-gradient-61" x1="98.65" y1="72.71" x2="98.65" y2="76.51" xlink:href="#linear-gradient"/><linearGradient id="linear-gradient-62" x1="103.04" y1="74.81" x2="103.04" y2="77.7" xlink:href="#linear-gradient"/><linearGradient id="linear-gradient-63" x1="102.07" y1="79.02" x2="102.07" y2="84.74" xlink:href="#linear-gradient"/><linearGradient id="linear-gradient-64" x1="106.13" y1="87.92" x2="106.13" y2="90.1" xlink:href="#linear-gradient"/><linearGradient id="linear-gradient-65" x1="51.16" y1="49.56" x2="51.16" y2="54.49" xlink:href="#linear-gradient"/><linearGradient id="linear-gradient-66" x1="50.26" y1="46.33" x2="50.26" y2="48.31" xlink:href="#linear-gradient"/><linearGradient id="linear-gradient-67" x1="60.42" y1="42.19" x2="60.42" y2="45.39" xlink:href="#linear-gradient"/><linearGradient id="linear-gradient-68" x1="72.11" y1="48.48" x2="72.11" y2="52.45" xlink:href="#linear-gradient"/><linearGradient id="linear-gradient-69" x1="68.4" y1="50.25" x2="68.4" y2="52.75" xlink:href="#linear-gradient"/><linearGradient id="linear-gradient-70" x1="100.48" y1="122.16" x2="100.48" y2="123.23" xlink:href="#linear-gradient"/><linearGradient id="linear-gradient-71" x1="28.63" y1="107.76" x2="28.63" y2="107.93" xlink:href="#linear-gradient"/><linearGradient id="linear-gradient-72" x1="47.1" y1="121.12" x2="47.1" y2="121.22" xlink:href="#linear-gradient"/><linearGradient id="linear-gradient-73" x1="105.63" y1="88.07" x2="105.63" y2="89.08" xlink:href="#linear-gradient"/><linearGradient id="linear-gradient-74" x1="50.73" y1="49.56" x2="50.73" y2="49.9" xlink:href="#linear-gradient"/><linearGradient id="Gradient_16" x1="20.86" y1="94.36" x2="99.15" y2="94.36" gradientUnits="userSpaceOnUse"><stop offset="0" stop-color="#a1003d"/><stop offset="1" stop-color="#ac0020"/></linearGradient><linearGradient id="Gradient_16-2" x1="20.86" y1="89.95" x2="99.15" y2="89.95" xlink:href="#Gradient_16"/><linearGradient id="Gradient_34" x1="-1062.43" y1="746.65" x2="-1000.22" y2="746.65" gradientTransform="matrix(-0.41, 0.91, 0.91, 0.41, -1041.24, 718.09)" gradientUnits="userSpaceOnUse"><stop offset="0" stop-color="#ff2d4a"/><stop offset="1" stop-color="#e0001d"/></linearGradient><linearGradient id="Gradient_16-3" x1="-1062.24" y1="747.09" x2="-1000.22" y2="747.09" gradientTransform="matrix(-0.41, 0.91, 0.91, 0.41, -1041.24, 718.09)" xlink:href="#Gradient_16"/><linearGradient id="Gradient_16-4" x1="-1057.86" y1="752.76" x2="-1000.22" y2="752.76" gradientTransform="matrix(-0.41, 0.91, 0.91, 0.41, -1041.24, 718.09)" xlink:href="#Gradient_16"/><linearGradient id="Gradient_16-5" x1="-1058.54" y1="748.33" x2="-1005.01" y2="748.33" gradientTransform="matrix(-0.41, 0.91, 0.91, 0.41, -1041.24, 718.09)" xlink:href="#Gradient_16"/><linearGradient id="Gradient_16-6" x1="-1041.07" y1="748.45" x2="-1014.5" y2="748.45" gradientTransform="matrix(-0.41, 0.91, 0.91, 0.41, -1041.24, 718.09)" xlink:href="#Gradient_16"/><linearGradient id="Gradient_16-7" x1="-1037.73" y1="746.81" x2="-1018.75" y2="746.81" gradientTransform="matrix(-0.41, 0.91, 0.91, 0.41, -1041.24, 718.09)" xlink:href="#Gradient_16"/><linearGradient id="Gradient_13" x1="-1055.82" y1="746.12" x2="-1003.07" y2="746.12" gradientTransform="matrix(-0.41, 0.91, 0.91, 0.41, -1041.24, 718.09)" gradientUnits="userSpaceOnUse"><stop offset="0" stop-color="#ff5742"/><stop offset="1" stop-color="#ff5664"/></linearGradient><linearGradient id="Gradient_16-8" x1="-1037.73" y1="741.54" x2="-1023.11" y2="741.54" gradientTransform="matrix(-0.41, 0.91, 0.91, 0.41, -1041.24, 718.09)" xlink:href="#Gradient_16"/><linearGradient id="Gradient_16-9" x1="-1015.8" y1="766.03" x2="-1001.34" y2="766.03" gradientTransform="matrix(-0.41, 0.91, 0.91, 0.41, -1041.24, 718.09)" xlink:href="#Gradient_16"/><linearGradient id="Gradient_16-10" x1="-1008.53" y1="777.81" x2="-1002.79" y2="777.81" gradientTransform="matrix(-0.41, 0.91, 0.91, 0.41, -1041.24, 718.09)" xlink:href="#Gradient_16"/><linearGradient id="Gradient_16-11" x1="-1038.15" y1="781.06" x2="-1012.59" y2="781.06" gradientTransform="matrix(-0.41, 0.91, 0.91, 0.41, -1041.24, 718.09)" xlink:href="#Gradient_16"/><linearGradient id="Áåçûìÿííûé_ãðàäèåíò_989-3" x1="106.11" y1="113.18" x2="106.11" y2="30.8" xlink:href="#Áåçûìÿííûé_ãðàäèåíò_989"/><linearGradient id="Áåçûìÿííûé_ãðàäèåíò_989-4" x1="25.02" y1="135.9" x2="25.02" y2="85.7" xlink:href="#Áåçûìÿííûé_ãðàäèåíò_989"/><linearGradient id="Áåçûìÿííûé_ãðàäèåíò_989-5" x1="115.64" y1="138.99" x2="115.64" y2="111.63" xlink:href="#Áåçûìÿííûé_ãðàäèåíò_989"/><linearGradient id="Áåçûìÿííûé_ãðàäèåíò_989-6" x1="121.85" y1="109.16" x2="121.85" y2="62.72" xlink:href="#Áåçûìÿííûé_ãðàäèåíò_989"/><linearGradient id="linear-gradient-75" x1="92.25" y1="3.22" x2="92.25" y2="79.05" gradientUnits="userSpaceOnUse"><stop offset="0" stop-color="#ffd9e0"/><stop offset="0.12" stop-color="#debdc3"/><stop offset="0.39" stop-color="#887478"/><stop offset="0.77" stop-color="#020202"/><stop offset="0.78"/></linearGradient><linearGradient id="Áåçûìÿííûé_ãðàäèåíò_989-7" x1="137.4" y1="143.53" x2="137.4" y2="81.5" xlink:href="#Áåçûìÿííûé_ãðàäèåíò_989"/><linearGradient id="Áåçûìÿííûé_ãðàäèåíò_989-8" x1="147.79" y1="129.77" x2="147.79" y2="89.94" xlink:href="#Áåçûìÿííûé_ãðàäèåíò_989"/><linearGradient id="Áåçûìÿííûé_ãðàäèåíò_989-9" x1="158.56" y1="92.65" x2="158.56" y2="38.15" xlink:href="#Áåçûìÿííûé_ãðàäèåíò_989"/><linearGradient id="linear-gradient-76" x1="-31.42" y1="-33.72" x2="-29.68" y2="-19.44" gradientTransform="translate(52.41 62.53) rotate(6.96)" xlink:href="#linear-gradient-75"/><linearGradient id="linear-gradient-77" x1="34.71" y1="30.82" x2="37.35" y2="52.44" xlink:href="#linear-gradient-75"/></defs><g class="cls-1"><g id="Layer_2" data-name="Layer 2"><g id="Layer_1-2" data-name="Layer 1"><path class="cls-2" d="M164,100.63c-9.89,30.16-40,44.34-68.15,47.42h0a104,104,0,0,1-26-.36c-5.79-.86-52.85-8.58-66.54-49.1-.16-.48-.32-1-.47-1.45-11-35.36,12.83-65.7,14.66-67.92C41.5-.18,86.82-8.75,121.42,9.74,152.1,26.14,175.85,64.6,164,100.63Z"/><path class="cls-3" d="M135.52,102.46a48.17,48.17,0,0,1-1.59,10.72v0a45.39,45.39,0,0,1-17.15,24.89,54.85,54.85,0,0,1-32.26,10.49,90.65,90.65,0,0,1-14.62-.9c-4.62-.77-35.69-5.81-54.94-28.56A60.34,60.34,0,0,1,1.57,70.19,51,51,0,0,1,7.11,54.08C18.49,33.36,41.3,28.31,43.33,27.9c11-2.26,22.38-.94,33.27,2.88l.06,0C108.86,42.09,136.6,75.2,135.52,102.46Z"/><path class="cls-4" d="M123.45,132.08a49,49,0,0,1-6.67,6,54.78,54.78,0,0,1-32.26,10.48,89.53,89.53,0,0,1-14.62-.89c-4.51-.76-34.15-5.56-53.44-26.88,20.85,17.72,49,21.91,53.6,22.61a107.26,107.26,0,0,0,15.92.9c12.59-.13,25-3.57,35.1-10.49C121.89,133.26,122.68,132.69,123.45,132.08Z"/><path class="cls-5" d="M33,44c-14.6,7.8-18.91,23.81-19.48,26.05-.77,3.08-3.56,19.09,5.83,33.93,9.81,15.5,31.26,32.36,58.29,34,20.49,1.22,28.81-7.07,34.66-19,10.94-22.3-7.56-50.8-25.09-64.22C82.9,51.44,56,31.7,33,44Z"/><path class="cls-6" d="M113.36,90.93c-5.15-13.42-15.59-25.85-25.72-33.45-4.35-3.28-31.81-23-55.3-10.7C21.73,52.34,16.45,62.07,14.06,68c1.62-5.09,6.6-17.49,18.91-24.07,23-12.31,49.94,7.44,54.21,10.7C97.8,62.76,108.79,76.46,113.36,90.93Z"/><path class="cls-5" d="M111.53,120.25c-5.79,11.16-14.25,18.76-33.92,17.6a75.79,75.79,0,0,1-43-17.13c11.27,8.22,25.91,12.77,42.6,13.72C96.6,135.55,105.49,130.54,111.53,120.25Z"/><path class="cls-7" d="M67.26,48.05c.09-.41.73-3.3-.4-4.06s-3.65.73-4.41,2.89c-.88,2.47.73,5.46,2.11,5.4S66.9,49.67,67.26,48.05Z"/><path class="cls-8" d="M62.48,46.8a4,4,0,0,0-.18.68c1-1.83,3.14-3,4.14-2.29s.5,3.64.4,4.05c0,.16-.07.33-.12.5A10.6,10.6,0,0,0,67.29,48c.08-.4.73-3.3-.4-4S63.23,44.65,62.48,46.8Z"/><path class="cls-9" d="M62.33,47.29c-1,2.73.48,6,1.89,5.89,1-.06,2-2,2.61-3.67-.53,1.37-1.37,2.75-2.29,2.78-1.34,0-2.85-2.79-2.13-5.2Z"/><path class="cls-10" d="M39.31,45.36c1.44-1.54,9.83,2.66,9.47,4.85-.2,1.26-3.37,2.34-6,1.36C39.6,50.34,38.4,46.33,39.31,45.36Z"/><path class="cls-11" d="M18.86,79.44c-1.37-.12-2.86,2.65-3.19,5s.28,5.26,1.6,5.54S20.7,87.61,21,85C21.37,82.53,20.23,79.56,18.86,79.44Z"/><path class="cls-12" d="M21.17,90.12c-.66-.35-2.31,1.15-3.15,2.72s-1.12,3.91-.45,4.25,2-1,2.75-2.2C21.49,93.07,21.88,90.5,21.17,90.12Z"/><path class="cls-13" d="M48.81,50.13a1.17,1.17,0,0,1-.38.64c-.5-2.23-7.94-5.85-9.39-4.5a1.57,1.57,0,0,1,.31-1C40.78,43.74,49.17,47.92,48.81,50.13Z"/><path class="cls-14" d="M20.54,86.77a4.36,4.36,0,0,0,.18-.84c.32-2.47-.81-5.43-2.19-5.55-.9-.09-1.87,1.1-2.5,2.57.58-1.91,1.75-3.69,2.86-3.6,1.37.13,2.5,3.08,2.18,5.56A7.07,7.07,0,0,1,20.54,86.77Z"/><path class="cls-15" d="M21,93.54c.32-1.2.28-2.25-.14-2.48-.67-.36-2.32,1.15-3.16,2.72-.07.16-.16.32-.23.49a7.28,7.28,0,0,1,.59-1.51c.84-1.57,2.48-3.08,3.16-2.72S21.63,92,21,93.54Z"/><g class="cls-16"><path class="cls-17" d="M48.63,50.66c-.23,1.3-3.4,2.43-6,1.44-3.09-1.17-4.3-5-3.6-6.17-.3,1.47,1,4.6,3.77,5.66,2.34.89,5.14.1,5.81-1C48.64,50.63,48.63,50.64,48.63,50.66Z"/><path class="cls-17" d="M16.77,91.35c-1.31-.28-1.88-3.38-1.53-5.68a11,11,0,0,1,.69-2.44,8,8,0,0,0-.26,1.19c-.32,2.24.27,5.26,1.59,5.55,1,.22,2.43-1.2,3.22-3C19.88,89.39,18,91.61,16.77,91.35Z"/><path class="cls-17" d="M19.79,96.4c-.74,1.19-2.15,2.6-2.76,2.28s-.43-2.39.34-4.06c-.29,1.18-.25,2.26.2,2.49.62.32,2-1,2.74-2.19a7.23,7.23,0,0,0,.54-1A8.92,8.92,0,0,1,19.79,96.4Z"/></g><path class="cls-18" d="M103.94,92.26c2.3-.77,5.48,2.18,6.62,5.25.34.93,1,2.55.3,3.12-1.48,1.29-9.24-3.22-8.67-6.47A2.63,2.63,0,0,1,103.94,92.26Z"/><path class="cls-19" d="M106.22,101.84c1.88.25,2.88,3.18,3,5,.19,2.1-.49,5.17-2.2,5.63-2,.53-5.11-2.35-5.1-5.47C102,104.36,104.26,101.59,106.22,101.84Z"/><path class="cls-20" d="M110.94,103.21c-.59.4-.49,1.45-.46,1.75.08.81.53,2.09,1.37,2.21a2.2,2.2,0,0,0,2-2.51C113.54,103.36,111.71,102.68,110.94,103.21Z"/><path class="cls-21" d="M99,117.9a2.75,2.75,0,0,0-1.75,3.27,2.22,2.22,0,0,0,1.83,1.29c1.81.14,3.69-2.32,3.12-3.65C101.8,117.89,100.22,117.43,99,117.9Z"/><path class="cls-22" d="M106.79,121.29c-1-1.21-5.15.33-7.76,2.34-1.91,1.46-4.44,4.28-3.68,5.68.65,1.18,3.49,1,5.43.33C105.15,128.07,107.92,122.68,106.79,121.29Z"/><path class="cls-23" d="M32.58,50.11c-3.21-1.17-7.09,2.59-8.67,5.71-.65,1.27-1.55,3-.84,4,1.69,2.15,12.11-1,12.48-5.4A4.61,4.61,0,0,0,32.58,50.11Z"/><path class="cls-24" d="M37.45,52.24c-1,.22-1.53,3.45-.69,4,.59.35,2.28-.32,2.44-1.75S38.1,52.1,37.45,52.24Z"/><path class="cls-25" d="M26.53,66c1-2.25,4.45-2.81,6.86-2.24,1.86.43,4.42,1.84,4.28,3.19-.25,2.39-9,4.68-11,2A3.13,3.13,0,0,1,26.53,66Z"/><path class="cls-26" d="M23.25,63.05c.88-.11,1.79,1.25,2.08,2.34s.24,2.67-.6,3-2.35-.64-2.79-1.91C21.44,65.06,22.28,63.17,23.25,63.05Z"/><path class="cls-27" d="M24.59,97.13c2.51-.86,6.07,2.32,6.62,5.7.07.42.46,3.08-.91,4-2.08,1.34-8-1.55-8.14-5.48C22.09,99.63,23.06,97.65,24.59,97.13Z"/><path class="cls-28" d="M26.11,108.08c1.17-.34,3.71-.72,4.42.53a1.8,1.8,0,0,1-.23,2c-1.37,1.41-5.94-.56-5.86-1.6C24.47,108.56,25.34,108.31,26.11,108.08Z"/><path class="cls-29" d="M38.74,110.52c-1.75.51-2.69,3-2.66,4.86,0,2.81,2.26,6,4.94,5.86,2.06-.13,3.76-2.21,4-4.18C45.56,113.46,41.37,109.75,38.74,110.52Z"/><path class="cls-30" d="M47.11,115.84a2.4,2.4,0,0,0-1.67,3,2.17,2.17,0,0,0,1.82,1.53,2.29,2.29,0,0,0,2.29-2.06A2.37,2.37,0,0,0,47.11,115.84Z"/><path class="cls-31" d="M43.46,121.93c.32-1,4.5-1.52,6.77.68.88.86,1.79,2.43,1.29,3.12-.74,1-4.48-.06-6.84-2.13C44,123,43.31,122.4,43.46,121.93Z"/><path class="cls-32" d="M61,122.54a2.33,2.33,0,0,0-.23,2.2,3,3,0,0,0,4,1.68,2.62,2.62,0,0,0,1.21-2.9C65.46,121.75,62.13,121.24,61,122.54Z"/><path class="cls-33" d="M59.43,125.05c1.11.31,1.73,1.46,2.36,2.66s1.28,2.4.84,3c-1,1.42-7.48-.08-7.76-2.36C54.68,126.81,57.47,124.49,59.43,125.05Z"/><path class="cls-34" d="M58.9,123c.94-1.8-.87-4.75-3.27-5.63-1.91-.69-4.65-.22-5.4,1.45-.82,1.84,1.07,4.46,3.27,5.32C55.37,124.86,58.09,124.57,58.9,123Z"/><path class="cls-35" d="M72.82,129.23c-1.24,0-2.75.51-2.81,1.22s1.45,1.39,1.75,1.52c1.95.85,4.62.69,4.87-.15S74.87,129.3,72.82,129.23Z"/><path class="cls-36" d="M78.76,128.62a1.63,1.63,0,0,0-2.13,1.3,1.46,1.46,0,0,0,1.6,1.36,1.48,1.48,0,0,0,.53-2.66Z"/><path class="cls-37" d="M84.24,56.91c1.72-1,5.06,1.14,5.47,3.65A2.83,2.83,0,0,1,89.1,63c-1.36,1.21-5,.28-5.88-2.13C82.7,59.47,83.1,57.54,84.24,56.91Z"/><path class="cls-38" d="M90.63,62.59c-.45.18-.61.9-.51,1.42.13.73.83,1.47,1.42,1.32a1.3,1.3,0,0,0,.71-1.42C92.13,63.07,91.19,62.36,90.63,62.59Z"/><path class="cls-39" d="M98.21,72.71a2.33,2.33,0,0,0-2,1.72c-.32,1.47,1.35,2.64,2.23,3,.42.2,1.44.66,2.13.21.9-.6.8-2.49,0-3.65A2.68,2.68,0,0,0,98.21,72.71Z"/><path class="cls-40" d="M102.85,74.81c-.76.06-1.83,2.16-.91,3.15a1.76,1.76,0,0,0,2.33.1C105,77.18,103.69,74.75,102.85,74.81Z"/><path class="cls-41" d="M98.45,80.2a2.68,2.68,0,0,1,2-1.16,5.82,5.82,0,0,1,5.37,2.34c2.05,3.07-.06,7.77-2.44,8.32s-6.2-3.26-5.88-6.9A5.46,5.46,0,0,1,98.45,80.2Z"/><path class="cls-42" d="M106.34,87.92c-.39-.08-1.2.76-1,1.68.16.75,1,1.26,1.29,1.1C107.21,90.42,106.92,88,106.34,87.92Z"/><path class="cls-43" d="M51.27,49.55c-1.85.08-2.9,2.27-3.06,3.76-.06.54-.19,1.78.47,2.21,1.35.9,5.8-1.77,5.46-4A2.88,2.88,0,0,0,51.27,49.55Z"/><path class="cls-44" d="M49.5,46.41a1.48,1.48,0,0,0-.87,1.22,1.42,1.42,0,0,0,.42,1.17c.82.72,2.71.06,2.84-.75S50.54,46,49.5,46.41Z"/><path class="cls-45" d="M60.75,42.2c-1.16-.12-2.41,1.48-2.28,2.94.08.91.7,2,1.52,2.08,1.19.16,2.67-1.71,2.34-3.29A2.14,2.14,0,0,0,60.75,42.2Z"/><path class="cls-46" d="M69.38,48.9c-.59.66-.24,2.05.4,2.89,1.39,1.79,4.73,1.69,5.28.66.39-.75-.65-2-1.32-2.64C72.42,48.64,70.16,48,69.38,48.9Z"/><path class="cls-47" d="M67.8,50.26a1.56,1.56,0,0,0-.15,2.24c.57.57,1.58.57,1.83.2C69.88,52.09,68.44,50.08,67.8,50.26Z"/><path class="cls-48" d="M111.12,100.17a11.27,11.27,0,0,0-.56-1.85c-1.15-3.06-4.32-6-6.63-5.25a2.63,2.63,0,0,0-1.72,1.85,2.45,2.45,0,0,1,0-.76,2.62,2.62,0,0,1,1.74-1.89c2.31-.78,5.48,2.16,6.63,5.25A5.86,5.86,0,0,1,111.12,100.17Z"/><path class="cls-49" d="M109.29,107.93c0-.09,0-.18,0-.25-.18-1.85-1.18-4.79-3-5s-4,2.18-4.25,4.66a1.62,1.62,0,0,1,0-.31c0-2.65,2.29-5.43,4.27-5.16s2.86,3.17,3,5A6.22,6.22,0,0,1,109.29,107.93Z"/><path class="cls-50" d="M113.81,105.42c-.33-1.27-2.12-1.92-2.87-1.4a1.29,1.29,0,0,0-.47,1c0-.3-.12-1.36.47-1.76.77-.53,2.6.15,2.88,1.46A1.47,1.47,0,0,1,113.81,105.42Z"/><path class="cls-51" d="M102.25,119.77l-.06-.16c-.39-.91-2-1.36-3.2-.9a3,3,0,0,0-1.83,2.16,2.87,2.87,0,0,1,1.83-3c1.23-.47,2.81,0,3.2.91A1.58,1.58,0,0,1,102.25,119.77Z"/><path class="cls-52" d="M107,122.64a1,1,0,0,0-.2-.54c-1-1.22-5.16.34-7.78,2.33-1.5,1.17-3.39,3.16-3.76,4.64-.41-1.45,1.95-4,3.76-5.45.16-.12.32-.25.5-.37a.07.07,0,0,0,.06,0,14.61,14.61,0,0,1,1.81-1.07c2.27-1.17,4.69-1.76,5.41-.86A1.7,1.7,0,0,1,107,122.64Z"/><path class="cls-53" d="M35.55,54.36a.53.53,0,0,1,0,.17,4.7,4.7,0,0,0-2.94-3.61c-3.2-1.18-7.07,2.58-8.67,5.7a9.55,9.55,0,0,0-1,2.64c-.21-1,.5-2.39,1-3.44,1.6-3.12,5.47-6.88,8.67-5.7A4.59,4.59,0,0,1,35.55,54.36Z"/><path class="cls-54" d="M39.21,54.45a.44.44,0,0,1,0,.18c-.22-1-1.18-1.7-1.72-1.57s-1,1.18-1.08,2.18c-.1-1.13.36-2.83,1.08-3S39.35,53.15,39.21,54.45Z"/><path class="cls-55" d="M37.66,66.89a1.14,1.14,0,0,1-.07.32C37.18,66,35,64.9,33.4,64.53c-2.42-.58-5.88,0-6.86,2.24a4.07,4.07,0,0,0-.31,1.07,3.78,3.78,0,0,1,.31-1.9c1-2.24,4.44-2.79,6.86-2.24C35.24,64.13,37.81,65.55,37.66,66.89Z"/><path class="cls-56" d="M25.46,67a5.5,5.5,0,0,0-.12-.79c-.31-1.09-1.22-2.46-2.1-2.35-.66.07-1.26,1-1.4,2.08-.18-1.34.57-2.79,1.4-2.9s1.79,1.27,2.1,2.36A4.94,4.94,0,0,1,25.46,67Z"/><path class="cls-57" d="M31.3,104.45a7.28,7.28,0,0,0-.09-.81c-.55-3.38-4.12-6.55-6.61-5.69a4.17,4.17,0,0,0-2.42,3.56.65.65,0,0,1,0-.2,4.35,4.35,0,0,1,2.44-4.19c2.49-.86,6.06,2.33,6.61,5.72A7.3,7.3,0,0,1,31.3,104.45Z"/><path class="cls-58" d="M30.68,109.84a1.27,1.27,0,0,0-.15-.41c-.71-1.25-3.24-.88-4.42-.54a4.92,4.92,0,0,0-1.46.58.64.64,0,0,1-.21-.47c0-.45.9-.7,1.67-.91a9.21,9.21,0,0,1,1.68-.31h0a4.71,4.71,0,0,1,1.65.11,1.59,1.59,0,0,1,1.07.72A1.73,1.73,0,0,1,30.68,109.84Z"/><path class="cls-59" d="M45.08,116.89c-.27-3.26-4-6.26-6.34-5.56-1.6.45-2.51,2.55-2.64,4.34a2.81,2.81,0,0,1,0-.29c0-1.88.89-4.35,2.65-4.87C41.34,109.77,45.42,113.34,45.08,116.89Z"/><path class="cls-60" d="M49.54,118.36a.56.56,0,0,1,0,.25,2.29,2.29,0,0,0-2.38-2,2.26,2.26,0,0,0-1.74,1.92,2.15,2.15,0,1,1,4.17-.21Z"/><path class="cls-61" d="M51.59,125.6a5.35,5.35,0,0,0-1.36-2.17c-2.07-2-5.76-1.78-6.62-.92a.67.67,0,0,1-.16-.59c.2-.59,1.67-1,3.32-.8a2.64,2.64,0,0,1,.66.1,5.49,5.49,0,0,1,2.8,1.38C51.05,123.41,51.91,124.84,51.59,125.6Z"/><path class="cls-62" d="M66.1,124.61a.86.86,0,0,0,0-.27c-.59-1.77-3.93-2.29-5-1a1.69,1.69,0,0,0-.36.78,2,2,0,0,1,.36-1.61c1.09-1.29,4.43-.79,5,1A2.22,2.22,0,0,1,66.1,124.61Z"/><path class="cls-63" d="M62.7,130.6a9,9,0,0,0-.9-2.08c-.64-1.2-1.25-2.35-2.36-2.66-1.72-.48-4.09,1.24-4.52,2.73a.37.37,0,0,1-.05-.2c-.2-1.59,2.6-3.89,4.57-3.35,1.11.32,1.72,1.47,2.36,2.67S63,129.91,62.7,130.6Z"/><path class="cls-64" d="M59.11,122.3a5.61,5.61,0,0,0-3.47-4.12c-1.92-.7-4.66-.24-5.41,1.43a1.61,1.61,0,0,0-.17.54,2.47,2.47,0,0,1,.17-1.35c.75-1.66,3.49-2.13,5.41-1.43C57.75,118.12,59.38,120.51,59.11,122.3Z"/><path class="cls-65" d="M76.62,131.81a.52.52,0,0,1-.12.22,4.82,4.82,0,0,0-3.68-2,3.65,3.65,0,0,0-2.65.88.64.64,0,0,1-.16-.47c0-.71,1.58-1.25,2.81-1.22C74.87,129.31,76.87,131,76.62,131.81Z"/><path class="cls-66" d="M79.36,130.08a.35.35,0,0,1,0,.14,1.25,1.25,0,0,0-.58-.79,1.65,1.65,0,0,0-2,.93,1.39,1.39,0,0,1-.09-.45,1.63,1.63,0,0,1,2.13-1.29A1.4,1.4,0,0,1,79.36,130.08Z"/><path class="cls-67" d="M89.76,61.6c0-.1,0-.17,0-.23-.43-2.51-3.76-4.6-5.48-3.65A2.69,2.69,0,0,0,83,59.9a3.1,3.1,0,0,1,1.22-3c1.72-.95,5.05,1.15,5.48,3.66A4,4,0,0,1,89.76,61.6Z"/><path class="cls-68" d="M92.25,63.92a1.68,1.68,0,0,1-.06.62c-.19-.75-1-1.34-1.57-1.14a.89.89,0,0,0-.47.71.19.19,0,0,1,0-.1c-.09-.52.07-1.24.5-1.42S92.14,63.07,92.25,63.92Z"/><path class="cls-69" d="M101.14,76.51a3.48,3.48,0,0,0-.6-1.68,2.72,2.72,0,0,0-2.32-1.31,2.35,2.35,0,0,0-2,1.67,1.62,1.62,0,0,1,0-.76,2.37,2.37,0,0,1,2-1.72A2.68,2.68,0,0,1,100.54,74,3.71,3.71,0,0,1,101.14,76.51Z"/><path class="cls-70" d="M104.43,77.7c-.21-1-1-2.12-1.57-2.08s-1.08.86-1.22,1.72c-.25-1,.59-2.49,1.22-2.53S104.72,76.66,104.43,77.7Z"/><path class="cls-71" d="M106.64,84.74a4.92,4.92,0,0,0-.83-2.55,5.79,5.79,0,0,0-5.35-2.34,2.73,2.73,0,0,0-2,1.16,5.57,5.57,0,0,0-1,2.58,5.21,5.21,0,0,1,0-.79,5.48,5.48,0,0,1,1-2.59,2.65,2.65,0,0,1,2-1.17,5.8,5.8,0,0,1,5.35,2.35A5.34,5.34,0,0,1,106.64,84.74Z"/><path class="cls-72" d="M106.92,90.1c-.07-.67-.3-1.31-.59-1.37s-.79.38-1,1a.42.42,0,0,0,0-.12,1.48,1.48,0,0,1,0-.51h0a1.54,1.54,0,0,1,.61-1,.5.5,0,0,1,.39-.14C106.76,88,107,89.31,106.92,90.1Z"/><path class="cls-73" d="M54.15,51.57a1.35,1.35,0,0,1,0,.66,2.88,2.88,0,0,0-2.83-1.86c-1.85.07-2.89,2.26-3.05,3.76,0,.09,0,.22,0,.36a4.8,4.8,0,0,1,0-1.18,4.66,4.66,0,0,1,1.92-3.39l0,0h0a2.33,2.33,0,0,1,1.08-.34A2.88,2.88,0,0,1,54.15,51.57Z"/><path class="cls-74" d="M51.89,48.06a.57.57,0,0,1-.11.25,2.12,2.12,0,0,0-2.27-1.1,1.48,1.48,0,0,0-.83,1,1.49,1.49,0,0,1,.83-1.77C50.55,46,52,47.27,51.89,48.06Z"/><path class="cls-75" d="M62.34,44.83s0,0,0-.09A2.14,2.14,0,0,0,60.74,43c-1-.09-2.07,1.11-2.24,2.39a2.13,2.13,0,0,1,0-.25c-.13-1.46,1.11-3.07,2.27-2.94a2.13,2.13,0,0,1,1.58,1.72A2.32,2.32,0,0,1,62.34,44.83Z"/><path class="cls-76" d="M75.06,52.45a5,5,0,0,0-1.32-1.83c-1.31-1.17-3.59-1.81-4.36-.91a1.24,1.24,0,0,0-.27.55,1.65,1.65,0,0,1,.27-1.36c.77-.9,3.05-.27,4.36.91C74.4,50.4,75.46,51.69,75.06,52.45Z"/><path class="cls-77" d="M69.47,52.7l0,0c-.27-.8-1.17-1.81-1.61-1.68a1.11,1.11,0,0,0-.51.79c-.18-.7.16-1.51.51-1.6s1,.57,1.43,1.27a2.29,2.29,0,0,1,.25.63v0A.58.58,0,0,1,69.47,52.7Z"/><path class="cls-78" d="M101.39,122.16a3.41,3.41,0,0,1-1.81,1.07A14.61,14.61,0,0,1,101.39,122.16Z"/><path class="cls-79" d="M29.46,107.89a4.31,4.31,0,0,1-1.65-.11A4.71,4.71,0,0,1,29.46,107.89Z"/><path class="cls-80" d="M47.43,121.22h-.16a2,2,0,0,1-.5-.1A2.64,2.64,0,0,1,47.43,121.22Z"/><path class="cls-81" d="M105.94,88.07a6.77,6.77,0,0,1-.61,1A1.54,1.54,0,0,1,105.94,88.07Z"/><path class="cls-82" d="M51.27,49.56a2.32,2.32,0,0,1-1.08.34A2.33,2.33,0,0,1,51.27,49.56Z"/><g class="cls-16"><path class="cls-17" d="M110.87,101.81c-1.49,1.31-9.25-3.24-8.68-6.52a.89.89,0,0,1,.06-.2c.75,3.1,7.27,6.71,8.62,5.54a.7.7,0,0,0,.19-.32C111.21,100.94,111.21,101.51,110.87,101.81Z"/><path class="cls-17" d="M107.05,113.77c-2,.53-5.09-2.39-5.09-5.52,0-.22,0-.45,0-.67.34,2.89,3.22,5.4,5,4.91,1.38-.37,2.1-2.4,2.22-4.28C109.43,110.31,108.73,113.3,107.05,113.77Z"/><path class="cls-17" d="M111.85,108.41c-.84-.13-1.29-1.42-1.38-2.22a3.17,3.17,0,0,1,0-1c.14.79.57,1.86,1.34,2a2.09,2.09,0,0,0,1.88-1.54.45.45,0,0,1,.09.25A2.21,2.21,0,0,1,111.85,108.41Z"/><path class="cls-17" d="M101.94,121.88a3.32,3.32,0,0,1-2.86,1.92,2.06,2.06,0,0,1-.26,0,2.19,2.19,0,0,1-1.57-1.28,2,2,0,0,1,0-1.38s0,0,0,.06a2.21,2.21,0,0,0,1.83,1.29c1.3.11,2.65-1.15,3.1-2.37,0,0,0,0,0,0A2,2,0,0,1,101.94,121.88Z"/><path class="cls-17" d="M100.78,131c-1.94.7-4.79.84-5.43-.34a1.74,1.74,0,0,1,0-1.38c.66,1.17,3.49,1,5.41.32a10.58,10.58,0,0,0,6.16-6.72C107.57,124.68,104.88,129.55,100.78,131Z"/><path class="cls-17" d="M35.55,55.22c-.38,4.48-10.79,7.6-12.47,5.45a1.71,1.71,0,0,1-.22-1.36,1,1,0,0,0,.22.46c1.66,2.14,11.84-.89,12.43-5.23A1.94,1.94,0,0,1,35.55,55.22Z"/><path class="cls-17" d="M39.21,55.31c-.17,1.44-1.87,2.1-2.44,1.76-.38-.23-.49-1-.4-1.79a1.17,1.17,0,0,0,.4.91c.55.34,2.13-.25,2.4-1.56A3.07,3.07,0,0,1,39.21,55.31Z"/><path class="cls-17" d="M37.66,67.84c-.23,2.4-9,4.71-11,2.06a2.71,2.71,0,0,1-.41-2,2.08,2.08,0,0,0,.41,1c1.9,2.53,9.91.57,10.9-1.67A1.05,1.05,0,0,1,37.66,67.84Z"/><path class="cls-17" d="M24.73,69.4c-.86.39-2.35-.65-2.78-1.94a3,3,0,0,1-.11-1.4,1.89,1.89,0,0,0,.11.47c.43,1.27,1.92,2.29,2.78,1.9a1.57,1.57,0,0,0,.71-1.38C25.55,68,25.39,69.09,24.73,69.4Z"/><path class="cls-17" d="M30.3,108a.86.86,0,0,1-.23.13,4.53,4.53,0,0,1-3.23-.23c-2.26-.88-4.59-2.94-4.68-5.41a4.4,4.4,0,0,1,0-.81c.5,3.73,6.09,6.4,8.1,5.11a2.79,2.79,0,0,0,1-2.14C31.37,105.63,31.34,107.35,30.3,108Z"/><path class="cls-17" d="M30.3,111.85c-1.36,1.42-5.93-.57-5.86-1.61,0-.2.21-.36.5-.5,1.2,1,4.28,2,5.36.86a1.56,1.56,0,0,0,.32-.52A1.76,1.76,0,0,1,30.3,111.85Z"/><path class="cls-17" d="M45.06,118.37c-.28,2-2,4.07-4,4.21-2.7.16-4.91-3.08-4.94-5.91a6.61,6.61,0,0,1,0-.77c.27,2.67,2.37,5.5,4.91,5.34,2-.13,3.71-2.17,4-4.12A4,4,0,0,1,45.06,118.37Z"/><path class="cls-17" d="M49.54,119.66a2.32,2.32,0,0,1-1.21,1.81,1.81,1.81,0,0,1-1.06.27,1.92,1.92,0,0,1-1.33-.68,2.28,2.28,0,0,1-.5-.86,2.61,2.61,0,0,1,0-1.36s0,0,0,0a2.14,2.14,0,0,0,1.83,1.51,2.23,2.23,0,0,0,2.17-1.56A1.88,1.88,0,0,1,49.54,119.66Z"/><path class="cls-17" d="M51.52,127.1c-.74,1-4.48,0-6.85-2.15-.68-.61-1.36-1.2-1.22-1.69a.81.81,0,0,1,.41-.41c.24.24.52.5.81.75,2.31,2.05,6,3.14,6.79,2.19A1.42,1.42,0,0,1,51.52,127.1Z"/><path class="cls-17" d="M64.83,127.78a2.86,2.86,0,0,1-3.31-.61,2.71,2.71,0,0,1-.72-1.07s0,0,0-.08a2.7,2.7,0,0,1-.05-1.55.92.92,0,0,0,.07.26,3,3,0,0,0,4,1.69,2.86,2.86,0,0,0,1.22-1.54A2.61,2.61,0,0,1,64.83,127.78Z"/><path class="cls-17" d="M62.63,132.15c-1,1.44-7.48-.07-7.76-2.36a1.64,1.64,0,0,1,.16-.92c1,2,6.56,3.18,7.56,1.92A1.51,1.51,0,0,1,62.63,132.15Z"/><path class="cls-17" d="M58.9,124.34a2.37,2.37,0,0,1-.52.66s0,0,0,0a3.9,3.9,0,0,1-1.83.77h0a6,6,0,0,1-3-.3,5.84,5.84,0,0,1-2.44-1.83,5.15,5.15,0,0,1-.32-.45,3.48,3.48,0,0,1-.63-2.76,5.77,5.77,0,0,0,3.39,3.67c1.86.74,4.58.45,5.39-1.12a3.24,3.24,0,0,0,.18-.45A2.77,2.77,0,0,1,58.9,124.34Z"/><path class="cls-17" d="M76.62,133.23c-.23.84-2.9,1-4.85.16-.31-.14-1.83-.81-1.76-1.54a.93.93,0,0,1,.45-.63,4.55,4.55,0,0,0,1.31.75,6.22,6.22,0,0,0,4.46.25C76.55,132.6,76.71,133,76.62,133.23Z"/><path class="cls-17" d="M79.36,131.47a1.42,1.42,0,0,1-1.14,1.22,1.48,1.48,0,0,1-1.6-1.38,1,1,0,0,1,.25-.66,1.5,1.5,0,0,0,1.35.64,1.43,1.43,0,0,0,1-.77A1.58,1.58,0,0,1,79.36,131.47Z"/><path class="cls-17" d="M89.11,63.91c-1.38,1.22-5,.27-5.89-2.15A4.07,4.07,0,0,1,83,60a3.08,3.08,0,0,0,.2.92c.89,2.4,4.51,3.33,5.89,2.13a2.18,2.18,0,0,0,.65-1.34A2.8,2.8,0,0,1,89.11,63.91Z"/><path class="cls-17" d="M92.25,64.83c.07.57-.22,1.31-.72,1.43s-1.27-.59-1.41-1.32a1.61,1.61,0,0,1,0-.78c.2.69.81,1.3,1.36,1.17a1,1,0,0,0,.66-.77Z"/><path class="cls-17" d="M100.54,78.7c-.69.46-1.72,0-2.13-.2-.88-.41-2.56-1.59-2.24-3.06a.47.47,0,0,1,.06-.15,4,4,0,0,0,2.18,2.19c.41.18,1.44.66,2.13.2a1.55,1.55,0,0,0,.6-1.06A2.15,2.15,0,0,1,100.54,78.7Z"/><path class="cls-17" d="M104.27,79.07a1.22,1.22,0,0,1-.89.4,1.84,1.84,0,0,1-1.28-.36.57.57,0,0,1-.16-.13,1.66,1.66,0,0,1-.28-1.54,1.1,1.1,0,0,0,.28.52,1.75,1.75,0,0,0,2.33.09.6.6,0,0,0,.13-.25A1.4,1.4,0,0,1,104.27,79.07Z"/><path class="cls-17" d="M106.1,88a6.52,6.52,0,0,1-.79,1.4,3.54,3.54,0,0,1-1.93,1.43c-2.49.58-6.2-3.28-5.88-7,0,0,0-.06,0-.07.32,3.31,3.6,6.43,5.86,5.91,1.56-.36,3-2.53,3.24-4.82A6.75,6.75,0,0,1,106.1,88Z"/><path class="cls-17" d="M106.64,91.82c-.34.16-1.13-.36-1.29-1.12a1.39,1.39,0,0,1,.09-.86c.25.61.89,1,1.2.86.14-.07.21-.26.27-.52C107,90.88,106.94,91.65,106.64,91.82Z"/><path class="cls-17" d="M48.67,56.39c-.52-.36-.54-1.26-.49-1.87a1.44,1.44,0,0,0,.49,1c1.22.8,4.92-1.26,5.43-3.28a1,1,0,0,1,0,.16C54.49,54.6,50,57.28,48.67,56.39Z"/><path class="cls-17" d="M51.89,48.86a1.1,1.1,0,0,1-.62.7,2.78,2.78,0,0,1-1.13.36h0A1.49,1.49,0,0,1,49,49.61a1.44,1.44,0,0,1-.41-1.16.86.86,0,0,1,0-.27,1.15,1.15,0,0,0,.36.61,2.16,2.16,0,0,0,2.74-.48A.88.88,0,0,1,51.89,48.86Z"/><path class="cls-17" d="M60,48c-.82-.11-1.43-1.17-1.52-2.1a1.46,1.46,0,0,1,0-.55c.17.86.74,1.77,1.49,1.86,1,.13,2.13-1.09,2.35-2.42C62.59,46.39,61.16,48.18,60,48Z"/><path class="cls-17" d="M75.06,53.29c-.55,1-3.89,1.14-5.28-.67a1.43,1.43,0,0,1-.27-.43h0a3.91,3.91,0,0,1-.27-.67h0a2.56,2.56,0,0,1-.11-1.24,3.43,3.43,0,0,0,.67,1.52c1.39,1.79,4.73,1.7,5.28.67A1,1,0,0,1,75.06,53.29Z"/><path class="cls-17" d="M69.47,53.54c-.23.37-1.25.37-1.83-.2a1.64,1.64,0,0,1-.34-1.47,1.34,1.34,0,0,0,.34.63,1.45,1.45,0,0,0,1.78.25A.83.83,0,0,1,69.47,53.54Z"/></g><path class="cls-83" d="M40.14,54.46C31.41,50.87,14.19,68,16.86,74.24c1.43,3.33,8.4,3.29,11.87,2.74,8.93-1.43,17.2-9.88,15.82-16.74A8,8,0,0,0,40.14,54.46Z"/><path class="cls-83" d="M96.51,77.09c4.38-1.55,21.23,18.57,15,33.68-.14.34-3.42,8.13-7.1,7.71C96.49,117.58,91.05,79,96.51,77.09Z"/><path class="cls-83" d="M26.11,89.47C20.57,94.85,23.26,108.82,32,114c6.19,3.68,16.35,3.52,20.28-2.64,3.62-5.66.09-13.44-3.44-17.45C42.92,87.21,31.22,84.51,26.11,89.47Z"/><path class="cls-84" d="M96.29,83.55v0c-.25-.66-.51-1.33-.79-2l-.09-.21c-.26-.6-.53-1.19-.82-1.79-.06-.11-.11-.23-.17-.34-.27-.55-.56-1.1-.86-1.64l-.25-.44c-.29-.51-.59-1-.91-1.52l-.32-.51c-.31-.48-.63-1-1-1.42l-.4-.57c-.33-.45-.67-.89-1-1.33-.16-.21-.32-.41-.49-.61s-.26-.34-.41-.51l.15.2C88,69.75,87,68.67,86,67.62c-.13-.14-.27-.25-.4-.38-.65-.63-1.3-1.24-1.94-1.8-.2-.18-.4-.33-.6-.5-.57-.48-1.13-1-1.69-1.4L80.55,63c-.49-.37-1-.74-1.47-1.07-.28-.19-.56-.35-.84-.53-.46-.3-.92-.6-1.37-.87l-.11-.06,0,0c-8.5-5-15.9-4.68-21.6-2.68a22.5,22.5,0,0,0-2.5,1c-.82.38-1.58.8-2.31,1.23l-.34.2-.45.26c-.54.35-1.06.7-1.55,1.06l-.12.09c-.55.4-1.06.8-1.53,1.19l-.39.33c-.46.39-.89.78-1.26,1.13a9.5,9.5,0,0,1-1.1.89c-.11.08-.22.13-.33.2a10.54,10.54,0,0,1-.92.54c-.15.08-.31.14-.46.21s-.61.26-.93.37l-.54.17c-.38.11-.76.22-1.17.3l-.11,0c-4.1.81-10.8,2.68-14.87,6.76a11.24,11.24,0,0,0-3.44,7.84v0c0,.09,0,.19,0,.28,0,.3,0,.62,0,.93s0,.37.05.56.07.6.13.91.07.42.12.64.15.61.23.93.13.45.2.68.22.65.34,1l.28.72c.14.35.31.71.48,1.07s.21.47.33.7c.2.4.43.82.66,1.23.12.22.23.43.36.65.28.48.6,1,.93,1.47l.31.5c.46.68.95,1.37,1.49,2.09,6.69,8.88,19.28,17.09,30.77,23.3l1.25.67,1,.54a237.28,237.28,0,0,0,22.35,10.31c4.23,1.85,7.19,2,9,.79a4.27,4.27,0,0,0,1.56-1.94s.7-1.44,1.64-3.94C97.28,117.93,102.38,100.22,96.29,83.55Z"/><path class="cls-85" d="M96.29,79.13v0c-.25-.67-.51-1.33-.79-2l-.09-.21c-.26-.6-.53-1.2-.82-1.8-.06-.11-.11-.22-.17-.34-.27-.55-.56-1.09-.86-1.64l-.25-.44c-.29-.51-.59-1-.91-1.52l-.32-.51c-.31-.48-.63-1-1-1.42l-.4-.57c-.33-.44-.67-.89-1-1.33-.16-.2-.32-.41-.49-.61s-.26-.34-.41-.51l.15.21a42.35,42.35,0,0,0-3-3.23l-.4-.38c-.65-.62-1.3-1.23-1.94-1.79-.2-.18-.4-.33-.6-.5-.57-.49-1.13-1-1.69-1.4l-.78-.58c-.49-.36-1-.73-1.47-1.06-.28-.19-.56-.36-.84-.54-.46-.29-.92-.6-1.37-.86L76.76,56l0,0c-8.5-5-15.9-4.68-21.6-2.68a24.61,24.61,0,0,0-2.5,1,24,24,0,0,0-2.31,1.24,3.79,3.79,0,0,0-.34.2l-.45.26c-.54.35-1.06.7-1.55,1.05l-.12.09q-.83.62-1.53,1.2l-.39.32c-.46.4-.89.78-1.26,1.13a8.64,8.64,0,0,1-1.1.9l-.33.2a10.54,10.54,0,0,1-.92.54l-.46.2c-.3.13-.61.27-.93.38l-.54.16c-.38.11-.76.23-1.17.31l-.11,0c-4.1.8-10.8,2.68-14.87,6.76a11.21,11.21,0,0,0-3.44,7.83v0c0,.09,0,.19,0,.28,0,.31,0,.62,0,.94s0,.37.05.56.07.6.13.91.07.42.12.63.15.62.23.93.13.46.2.69.22.65.34,1,.18.47.28.71.31.71.48,1.08.21.46.33.7c.2.4.43.81.66,1.22.12.22.23.43.36.65.28.48.6,1,.93,1.48.11.17.2.33.31.49.46.68.95,1.38,1.49,2.09,6.69,8.88,19.28,17.09,30.77,23.3l1.25.67,1,.55a237.28,237.28,0,0,0,22.35,10.31c4.23,1.85,7.19,2,9,.79a4.38,4.38,0,0,0,1.56-1.94s.7-1.44,1.64-4C97.28,113.52,102.38,95.81,96.29,79.13Z"/><path class="cls-86" d="M82.09,128.05c4.2,1.85,7.15,2,9,.79a4.29,4.29,0,0,0,1.54-1.94s.7-1.44,1.63-3.94C98,112.7,105.79,84.64,85.83,65c-12.3-12.13-23-12.53-30.6-9.84q-1.3.47-2.49,1a30.58,30.58,0,0,0-7.91,5.5,10.7,10.7,0,0,1-5.41,2.68l-.11,0c-4.08.8-10.74,2.68-14.79,6.76C20.19,75.47,18.88,82.38,27,93.23,41.19,112.18,82.09,128.05,82.09,128.05Z"/><path class="cls-87" d="M82.09,128.05c4.2,1.85,7.15,2,9,.79a4.29,4.29,0,0,0,1.54-1.94s.7-1.44,1.63-3.94C98,112.7,105.79,84.64,85.83,65a47.23,47.23,0,0,0-9.14-7.18c1.2,1,2.42,2.07,3.66,3.3,18.51,18.26,11.32,44.29,7.78,53.81-.87,2.32-1.52,3.66-1.52,3.66a4,4,0,0,1-1.43,1.8c-1.67,1.14-4.4,1-8.3-.73,0,0-37.95-14.73-51.11-32.3a30.44,30.44,0,0,1-4.68-8.42C21,82.67,22.62,87.38,27,93.23,41.19,112.18,82.09,128.05,82.09,128.05Z"/><path class="cls-88" d="M82.1,128.06c4.21,1.85,7.15,2,9,.79a4.31,4.31,0,0,0,1.55-1.94s.7-1.44,1.63-3.94c3.62-9.75,10.81-35.56-5.59-55,14.51,19.19,7.65,43.72,4.14,53.16-.93,2.51-1.63,4-1.63,4A4.31,4.31,0,0,1,89.6,127c-1.8,1.23-4.74,1.06-8.95-.79,0,0-38.31-14.87-53.63-33C41.21,112.19,82.1,128.06,82.1,128.06Z"/><path class="cls-89" d="M78,120.94c3.9,1.72,6.64,1.88,8.31.74a4,4,0,0,0,1.43-1.81s.65-1.33,1.51-3.65c3.37-9.06,10-33.08-5.27-51.11C97.83,83,91.39,106,88.11,114.87c-.87,2.32-1.52,3.66-1.52,3.66a4,4,0,0,1-1.43,1.8c-1.67,1.14-4.4,1-8.31-.74,0,0-35.31-13.7-49.61-30.45C40.73,106.5,78,120.94,78,120.94Z"/><path class="cls-90" d="M49.65,69.43c3.08-1,13.69,8.21,20.3,17.11C77.57,96.82,81.1,110,78.74,110.77S59.61,97.17,52.58,82.82C52.05,81.75,46.5,70.42,49.65,69.43Z"/><g class="cls-91"><path class="cls-92" d="M73.4,104c1,.62-1.74-4.15-2-4.53s3.27,3.09,4,3.86c.37.37-.22-1.52-1.47-4.46a92.66,92.66,0,0,0-5.75-11.21,17,17,0,0,0-1.78-2.49c-3.46-3.92-5.06-.1-5.06-.1s-7.91-9.82-10.14-11.84,5,9.22,8.77,15.14a72.44,72.44,0,0,0,5.58,7.31l.16.19A81.25,81.25,0,0,0,73.4,104Z"/></g><path class="cls-93" d="M78,117.94h0l2.75,2.14a4.65,4.65,0,0,0,4.16,1,5.72,5.72,0,0,1,4.8,1.09c.67.46,1.4,1,2.17,1.64a32.6,32.6,0,0,1-4.26-4.3,4.08,4.08,0,0,1-.92-3.08h0a39.58,39.58,0,0,0,.55-4.8.71.71,0,0,0,0-.14,2.36,2.36,0,0,1,2.06-2.3,13.75,13.75,0,0,1,6.21.77c-.35-.16-2-.62-3.81-1.45a8.51,8.51,0,0,1-4.91-5.84,2.51,2.51,0,0,0,0-.27,3.24,3.24,0,0,1,3.18-4,16.36,16.36,0,0,1,3.85.2c-.31-.09-1.52-.26-3-.66a10.9,10.9,0,0,1-6.94-5.89.49.49,0,0,1,0-.11,4.65,4.65,0,0,1,0-4.2c1-1.73,3.31-3.58,8.12-5-1,.1-8.49,2.67-13.13-.37a3.27,3.27,0,0,1-.77-.71c-.2-.26-.69-.94-.9-1.2a3.19,3.19,0,0,1-.81-2.68c.94-3.35,5.93-5,9.93-7.13-5.11,1.48-10.22,2.89-15.22,1.6A5.15,5.15,0,0,1,67.42,69c-.57-2.44.69-4.78.75-5.2-1.18,2.6-2.78,3.54-4.23,3.76a5.34,5.34,0,0,1-2.76-.43c-.46-.2-.92-.38-1.39-.54l-.56-.19a6,6,0,0,1-3.37-2.81,19.28,19.28,0,0,1-1.45-4.7,11,11,0,0,1,.08,3.25c-.27,1.89-1.82,3.09-4,3.23h0l-.85.07H49.5a6.8,6.8,0,0,0,1.41-1.07c2.26-2.31,1.87-6.4,3.94-8.85a3.59,3.59,0,0,1,.38-.4q-1.3.47-2.49,1a28.6,28.6,0,0,0-3.07,1.7,31.31,31.31,0,0,0-4.84,3.8,10.56,10.56,0,0,1-4.94,2.58l-.47.1-.11,0c-4.08.8-10.74,2.68-14.79,6.76a11,11,0,0,1,2.8-.82c3.17-.49,6.79-.1,10-.46a21.33,21.33,0,0,0,3.59-.73A10.48,10.48,0,0,0,39,71.65a11.87,11.87,0,0,0-1.38,5.22,10.55,10.55,0,0,0,0,1.58,2.87,2.87,0,0,1-1.41,2.91,10.28,10.28,0,0,1-4.6,1,18.84,18.84,0,0,1,6.58,1A5.08,5.08,0,0,1,40.38,85v0A3.16,3.16,0,0,1,41,86.55c.4,4.38-3,7.94-6.4,11.49,3.85-2.42,7.37-5.77,11.85-5.34a3,3,0,0,1,1.73.82h0a2.93,2.93,0,0,1,.55.69c1.26,2.31,2.17,6.48-2.07,12.08.54-.43,3.24-4.44,6.9-5.24a6.25,6.25,0,0,1,4.93,1.59h0a5.83,5.83,0,0,1,1.91,2.71,6.32,6.32,0,0,1-1.29,5.52c.36-.28,2-3,4.7-3.19a2.32,2.32,0,0,1,1.53.54h0c1.41,1.13,2.84,2.24,4.27,3.35a6,6,0,0,1,2.56,4.16A6.94,6.94,0,0,1,70.75,120c.3-.24,1.57-2.29,3.67-3A4.21,4.21,0,0,1,78,117.94Zm.14-4.82,0,0q-3.66-2.8-7.27-5.67c-2.72-2.17-5.41-4.36-8.05-6.61s-5.21-4.48-7.7-6.81c-1.61-1.52-3.19-3.06-4.7-4.66-1.16-1.24-2.29-2.52-3.3-3.84A18.45,18.45,0,0,1,45,82.16a11.83,11.83,0,0,1-1-6.64,10.73,10.73,0,0,1,.43-1.8,10.23,10.23,0,0,1,5.87-6.55l.78-.29c-.49.24.41-.24,1.44-.08l.61.12.32.08.73.22c.43.14.85.29,1.28.46.62.26,1.24.55,1.85.87a35.94,35.94,0,0,1,7.63,5.58c.36.34.72.68,1.07,1a56,56,0,0,1,7.78,9.67,47.66,47.66,0,0,1,4.61,9.35,45.09,45.09,0,0,1,2.19,8.56A44.26,44.26,0,0,1,81.1,110c0,.92,0,1.84-.12,2.74C80.89,113.86,79.39,114.06,78.16,113.12Z"/><path class="cls-94" d="M65.58,95.7a3.6,3.6,0,0,0,.88-.15c2.86-.85,2.7-5.16,0-10.36-2.15-2.43-3.57-1.88-4.35-1.12a5.84,5.84,0,0,0,.61,3c.53,1.24,1.29,2.46,1.89,3.7a.6.6,0,0,1,.08.21c0,.25-.22.37-.5.3a1.43,1.43,0,0,1-.72-.54,2.83,2.83,0,0,1-.38-.73c-.28-.74-.58-1.48-.86-2.22-.22-.55-.43-1.09-.67-1.64a22.52,22.52,0,0,0-1.38-2.54c-2.32-2.83-7.24-8.81-8.92-10.33-2.23-2,5,9.22,8.77,15.14A72.44,72.44,0,0,0,65.58,95.7Z"/><path class="cls-95" d="M59.45,67.66c2.25,1.9,4.42,3.79,6.48,5.76s4,4,5.87,6,3.6,4.2,5.23,6.38,3.15,4.41,4.66,6.71a32.38,32.38,0,0,0-3.39-7,49.89,49.89,0,0,0-5.11-6.77,56,56,0,0,0-6.39-6.1A47.33,47.33,0,0,0,59.45,67.66Z"/><path class="cls-95" d="M82.5,97.62a17.38,17.38,0,0,0-.1,2.69c0,.89.07,1.77.13,2.65s.14,1.78.25,2.7a21.91,21.91,0,0,0,.51,2.86,5.27,5.27,0,0,0,1.06-2.3,9.25,9.25,0,0,0,.17-2.7,12.42,12.42,0,0,0-.58-2.9A11.57,11.57,0,0,0,82.5,97.62Z"/><g class="cls-16"><path class="cls-96" d="M45.73,68.27c-8.34,3.89-7.27,12.4,1.19,21.33a68.87,68.87,0,0,0,14.91,11.73c-3.28-2.63-6.46-5.3-9.42-8.11-10.23-9.73-14.54-18.12-6.68-25Z"/></g><path class="cls-97" d="M23.39,76.72c.88-4.13,5.79-7.17,12.31-5.32,7.13,2,12.57,8.87,14,14.15C51.6,92.36,47.24,98,41.18,97.31,33,96.42,21.79,84.16,23.39,76.72Z"/><path class="cls-97" d="M59.66,56.59C63.1,54.23,73.14,58.34,79.31,64,88.49,72.28,88.74,83.6,89,94.14c.2,9.28-1.65,16.49-2.89,16.06-1.85-.63,3-16.73-8.92-29.62C70.39,73.24,61.7,70.73,59,63.47,58.83,63,57.15,58.32,59.66,56.59Z"/><path class="cls-98" d="M56.38,111.06c-1.73-2.74-3-6.72-1-8.12,2.44-1.67,5.95-1.61,9.92.8,7,4.24,9.7,10.6,17.13,15,4.23,2.47,7.8,3.3,8.23,4.64s-2.48,1.75-3.18,1.86C79.18,126.54,62,120.05,56.38,111.06Z"/><path class="cls-99" d="M77.34,123c-1.88-1.67-2.87-4.47-1.89-5.29.75-.64,3.07.28,7.68,2.13,4.37,1.76,6.56,2.64,6.72,3.24C90.32,124.71,81.58,126.71,77.34,123Z"/><path class="cls-97" d="M33.8,72.19c-1.09-1.09-7.29-.34-9,3.56-2.35,5.4,4.94,14.64,6.37,14.68,1.17,0-2.13-6.1.12-12.64C32.53,74.26,34.56,73,33.8,72.19Z"/><path class="cls-96" d="M39.89,64.21a9.2,9.2,0,0,0,7-.85c2.36-1.43,3.29-4.27,2.82-5.53a31.31,31.31,0,0,0-4.84,3.8A10.56,10.56,0,0,1,39.89,64.21Z"/><path class="cls-95" d="M76.16,86.11c.39-.1,3.61,3.25,4.76,7,.61,2,.56,3.83.2,3.77s-.76-1.55-2.19-4.78C77,87.68,75.91,86.17,76.16,86.11Z"/><path class="cls-96" d="M24.89,73.83c.45-1.36,2-1.77,3.84-2.28.2,0,1.93-.52,2.16-.24s-1.84.9-3.21,2.85-1,3.87-1.6,3.71S24.36,75.41,24.89,73.83Z"/><path class="cls-96" d="M27.09,79.42c-.23-.11-.28-1.68.07-2.89s1.14-2.32,1.37-2.19C29,74.59,27.53,79.61,27.09,79.42Z"/><path class="cls-96" d="M68.34,58c0-.35,7.82.64,11.68,5,1.88,2.15,2.4,4.63,1.85,4.74S79.2,64.15,74.43,61C70.94,58.63,68.34,58.17,68.34,58Z"/><path class="cls-100" d="M90.76,118.62c-1.78-.75-2.7-10-.52-17.55,1.18-4.1,3.68-9.08,5.13-8.42,1.61.74,1.68,8.28.7,13.93S92.47,119.34,90.76,118.62Z"/><path class="cls-101" d="M135.52,102.46a48.17,48.17,0,0,1-1.59,10.72,62.51,62.51,0,0,0-9.52-38.9C103.64,41.8,86.69,36,76.66,30.8,108.86,42.09,136.6,75.2,135.52,102.46Z"/><path class="cls-102" d="M4.41,85.72c-1.5.58.07,15.12,8.82,27.79,11.93,17.27,32,23.57,32.87,22.21.66-1.05-10.37-6.25-22.62-20.59C9.91,99.25,5.93,85.12,4.41,85.72Z"/><path class="cls-103" d="M125.42,111.78c-2.74-1.12-7.19,4-11.16,8.73-4.38,5.16-12.52,14.76-10.25,17.65,1.69,2.14,8.43-.31,12.18-2.44,6.29-3.58,11.8-10.61,11.46-18C127.59,116.4,127.42,112.6,125.42,111.78Z"/><path class="cls-104" d="M114.36,62.79c3.88-1.19,12.14,12.48,15.52,24.65,2.33,8.38,3.54,20.32.2,21.61-2.92,1.12-8.53-6.22-11.36-11C110.09,83.59,110.11,64.1,114.36,62.79Z"/><path class="cls-5" d="M133.59,87.81c-6.79-23.51-30.36-47.7-56.93-57l-.06,0a68.63,68.63,0,0,0-19.19-3.91c2.87,0,30.5.54,52.69,20.56A78.53,78.53,0,0,1,133.59,87.81Z"/><path class="cls-5" d="M135.86,112.5c-2.38,8.12-8.4,15.16-10.21,17.17a44.17,44.17,0,0,0,8.28-16.36v0a48.08,48.08,0,0,0,1.59-10.71,43.14,43.14,0,0,0-.77-9.79C135.94,96.73,138,105.35,135.86,112.5Z"/><path class="cls-105" d="M29.16,22.57C28.26,19.93,50.72,4,78.61,3.25c27.63-.75,55.66,13.53,69.68,36.21,8.84,14.31,8.59,36.21,3.7,39.26-4.11,2.56-10.1-10-32.3-29.82C99.6,30.94,86,27.08,69.32,24.4,47.86,20.94,29.89,24.74,29.16,22.57Z"/><path class="cls-106" d="M152.6,81.66c-9.06,1.3-12.92,13.45-13.08,14-1.7,5.62-.37,8.87-.41,13.08-.17,19-28.05,32.1-26.57,34.49.91,1.48,12.18-2.55,23.12-10.15,6.26-4.34,22.19-15.39,25.77-33.47C162,96.73,164,86.41,159,82.77,156.64,81.08,153.67,81.51,152.6,81.66Z"/><path class="cls-107" d="M158.76,90c-2.18-.64-5.44,6.89-15.53,24.56-6.72,11.79-8.62,14.31-7.82,15.05,1.61,1.5,12.4-6,19.26-16.25,4.57-6.8,5.77-12.35,5.66-17C160.28,94,160.19,90.39,158.76,90Z"/><path class="cls-108" d="M31.25,32.13C23.38,35.84,13.47,42.52,7.11,54.08A51.08,51.08,0,0,0,1.57,70.19,58.37,58.37,0,0,0,.91,84.63C.44,80.44-.86,63,7.25,50.26,13.87,39.87,25.25,34.4,31.25,32.13Z"/><path class="cls-109" d="M151,38.16c.95-.38,10.66,13,14.12,30.82,2.33,12.08.56,23.58-.28,23.67s-1.54-8.33-4.78-22.38C155.15,49.18,150.15,38.49,151,38.16Z"/><path class="cls-110" d="M36.83,26c-.28-1-5.44-1.13-10,.51-8.76,3.14-13.86,12.07-12.94,13,.58.6,3.22-2.17,12.88-7.58C33.71,28.09,37.07,26.87,36.83,26Z"/><path class="cls-111" d="M47.92,30C34.87,28,24,38.58,21,41.44c-6.1,5.89-10.1,13.13-9.13,14s5.88-5.72,16.89-11.26c4.38-2.2,12.14-6.11,22.37-6.39,6.15-.17,10,1.06,10.34,0C62,36.31,55.51,31.19,47.92,30Z"/></g></g></g></svg>