<svg xmlns="http://www.w3.org/2000/svg" xmlns:xlink="http://www.w3.org/1999/xlink" viewBox="0 0 421.71 331"><defs><style>.cls-1{isolation:isolate;}.cls-2{fill:#f01f7a;}.cls-3,.cls-62{fill:#9b0767;}.cls-3,.cls-56{opacity:0.49;}.cls-11,.cls-12,.cls-14,.cls-15,.cls-16,.cls-19,.cls-24,.cls-25,.cls-26,.cls-3,.cls-30,.cls-31,.cls-32,.cls-33,.cls-34,.cls-35,.cls-36,.cls-38,.cls-41,.cls-42,.cls-44,.cls-45,.cls-46,.cls-47,.cls-48,.cls-49,.cls-50,.cls-51,.cls-52,.cls-53,.cls-54,.cls-56,.cls-58,.cls-59,.cls-60,.cls-62,.cls-64,.cls-65,.cls-8,.cls-9{mix-blend-mode:multiply;}.cls-4{fill:#e6feff;}.cls-5{fill:#c75e33;}.cls-6{fill:#ea8249;}.cls-7{fill:#fab574;}.cls-11,.cls-12,.cls-24,.cls-25,.cls-8,.cls-9{fill:#9d3627;}.cls-8{opacity:0.29;}.cls-9{opacity:0.59;}.cls-10{fill:#f58e4c;}.cls-11{opacity:0.4;}.cls-12{opacity:0.51;}.cls-13{fill:url(#Áåçûìÿííûé_ãðàäèåíò_78);}.cls-14,.cls-15{opacity:0.64;}.cls-14{fill:url(#Áåçûìÿííûé_ãðàäèåíò_285);}.cls-15{fill:url(#Áåçûìÿííûé_ãðàäèåíò_1065);}.cls-16,.cls-19{fill:#805680;}.cls-16{opacity:0.44;}.cls-17{fill:#feb300;}.cls-18{fill:#fffeff;}.cls-19{opacity:0.19;}.cls-20{fill:#f6ccf0;}.cls-21{fill:#a127e4;}.cls-22{fill:#f54589;}.cls-23{fill:url(#Áåçûìÿííûé_ãðàäèåíò_789);}.cls-24{opacity:0.27;}.cls-25{opacity:0.3;}.cls-26,.cls-44,.cls-45{opacity:0.67;}.cls-26{fill:url(#Áåçûìÿííûé_ãðàäèåíò_63);}.cls-27{fill:url(#Áåçûìÿííûé_ãðàäèåíò_761);}.cls-28{fill:url(#Áåçûìÿííûé_ãðàäèåíò_761-2);}.cls-29{fill:url(#Áåçûìÿííûé_ãðàäèåíò_761-3);}.cls-30,.cls-31,.cls-32,.cls-33,.cls-34,.cls-35,.cls-36{opacity:0.83;}.cls-30{fill:url(#Áåçûìÿííûé_ãðàäèåíò_1020);}.cls-31{fill:url(#Áåçûìÿííûé_ãðàäèåíò_1020-2);}.cls-32{fill:url(#Áåçûìÿííûé_ãðàäèåíò_1020-3);}.cls-33{fill:url(#Áåçûìÿííûé_ãðàäèåíò_1020-4);}.cls-34{fill:url(#Áåçûìÿííûé_ãðàäèåíò_1020-5);}.cls-35{fill:url(#Áåçûìÿííûé_ãðàäèåíò_1020-6);}.cls-36,.cls-38{fill:#d0aebe;}.cls-37{fill:#b57240;opacity:0.36;}.cls-37,.cls-39,.cls-43,.cls-66,.cls-67,.cls-68{mix-blend-mode:screen;}.cls-38{opacity:0.6;}.cls-39,.cls-40{fill:#ffbf83;}.cls-39{opacity:0.9;}.cls-41,.cls-42{opacity:0.5;}.cls-41{fill:url(#Áåçûìÿííûé_ãðàäèåíò_63-2);}.cls-42{fill:url(#Áåçûìÿííûé_ãðàäèåíò_778);}.cls-43,.cls-63{fill:#fcbeaf;}.cls-43,.cls-62{opacity:0.31;}.cls-44{fill:url(#Áåçûìÿííûé_ãðàäèåíò_63-3);}.cls-45{fill:url(#Áåçûìÿííûé_ãðàäèåíò_63-4);}.cls-46,.cls-47,.cls-48,.cls-49,.cls-50,.cls-51,.cls-52,.cls-53,.cls-54,.cls-58,.cls-59,.cls-60{opacity:0.43;}.cls-46{fill:url(#Áåçûìÿííûé_ãðàäèåíò_529);}.cls-47{fill:url(#Áåçûìÿííûé_ãðàäèåíò_529-2);}.cls-48{fill:url(#Áåçûìÿííûé_ãðàäèåíò_529-3);}.cls-49{fill:url(#Áåçûìÿííûé_ãðàäèåíò_529-4);}.cls-50{fill:url(#Áåçûìÿííûé_ãðàäèåíò_529-5);}.cls-51{fill:url(#Áåçûìÿííûé_ãðàäèåíò_529-6);}.cls-52{fill:url(#Áåçûìÿííûé_ãðàäèåíò_529-7);}.cls-53{fill:url(#Áåçûìÿííûé_ãðàäèåíò_529-8);}.cls-54{fill:url(#Áåçûìÿííûé_ãðàäèåíò_529-9);}.cls-55{fill:#a1ad01;}.cls-56{fill:#9b6367;}.cls-57{fill:#5380ff;}.cls-58{fill:url(#Áåçûìÿííûé_ãðàäèåíò_529-10);}.cls-59{fill:url(#Áåçûìÿííûé_ãðàäèåíò_529-11);}.cls-60{fill:url(#Áåçûìÿííûé_ãðàäèåíò_529-12);}.cls-61{fill:#8093fa;}.cls-64,.cls-65{opacity:0.24;}.cls-64{fill:url(#Áåçûìÿííûé_ãðàäèåíò_788);}.cls-65{fill:url(#Áåçûìÿííûé_ãðàäèåíò_788-2);}.cls-66,.cls-67,.cls-68{opacity:0.21;}.cls-66{fill:url(#Áåçûìÿííûé_ãðàäèåíò_795);}.cls-67{fill:url(#Áåçûìÿííûé_ãðàäèåíò_795-2);}.cls-68{fill:url(#Áåçûìÿííûé_ãðàäèåíò_795-3);}</style><linearGradient id="Áåçûìÿííûé_ãðàäèåíò_78" x1="136.96" y1="162.87" x2="288.67" y2="314.57" gradientUnits="userSpaceOnUse"><stop offset="0.11" stop-color="#933a5e"/><stop offset="0.39" stop-color="#84355b"/><stop offset="1" stop-color="#652c56"/></linearGradient><linearGradient id="Áåçûìÿííûé_ãðàäèåíò_285" x1="241.83" y1="331" x2="241.83" y2="241.02" gradientUnits="userSpaceOnUse"><stop offset="0" stop-color="#400040"/><stop offset="0.08" stop-color="#470947"/><stop offset="0.22" stop-color="#592159"/><stop offset="0.4" stop-color="#764876"/><stop offset="0.6" stop-color="#9f7e9f"/><stop offset="0.82" stop-color="#d2c3d2"/><stop offset="1" stop-color="#fff"/></linearGradient><linearGradient id="Áåçûìÿííûé_ãðàäèåíò_1065" x1="222.13" y1="291.34" x2="222.13" y2="238.46" gradientUnits="userSpaceOnUse"><stop offset="0" stop-color="#fff"/><stop offset="0.18" stop-color="#d2c3d2"/><stop offset="0.4" stop-color="#9f7e9f"/><stop offset="0.6" stop-color="#764876"/><stop offset="0.78" stop-color="#592159"/><stop offset="0.92" stop-color="#470947"/><stop offset="1" stop-color="#400040"/></linearGradient><linearGradient id="Áåçûìÿííûé_ãðàäèåíò_789" x1="240.3" y1="312.32" x2="187.87" y2="49.79" gradientUnits="userSpaceOnUse"><stop offset="0.22" stop-color="#e56e7a"/><stop offset="0.47" stop-color="#f09c98"/><stop offset="0.69" stop-color="#f8bdad"/><stop offset="0.88" stop-color="#fdd1ba"/><stop offset="1" stop-color="#ffd8bf"/></linearGradient><linearGradient id="Áåçûìÿííûé_ãðàäèåíò_63" x1="221.29" y1="317.15" x2="221.29" y2="13.95" gradientUnits="userSpaceOnUse"><stop offset="0" stop-color="#f58289"/><stop offset="0.42" stop-color="#faada4"/><stop offset="0.79" stop-color="#feccb8"/><stop offset="1" stop-color="#ffd8bf"/></linearGradient><linearGradient id="Áåçûìÿííûé_ãðàäèåíò_761" x1="309.54" y1="167.29" x2="309.54" y2="82.01" gradientUnits="userSpaceOnUse"><stop offset="0" stop-color="#6b150f"/><stop offset="0.77" stop-color="#9b3526"/><stop offset="1" stop-color="#9d3627"/></linearGradient><linearGradient id="Áåçûìÿííûé_ãðàäèåíò_761-2" x1="206.75" y1="118.55" x2="206.75" y2="10.81" xlink:href="#Áåçûìÿííûé_ãðàäèåíò_761"/><linearGradient id="Áåçûìÿííûé_ãðàäèåíò_761-3" x1="115.16" y1="191.72" x2="115.16" y2="122.52" xlink:href="#Áåçûìÿííûé_ãðàäèåíò_761"/><linearGradient id="Áåçûìÿííûé_ãðàäèåíò_1020" x1="309.6" y1="167.29" x2="309.6" y2="115.11" gradientUnits="userSpaceOnUse"><stop offset="0" stop-color="#6b002f"/><stop offset="0.22" stop-color="#7e214a"/><stop offset="0.7" stop-color="#af758f"/><stop offset="1" stop-color="#d0aebe"/></linearGradient><linearGradient id="Áåçûìÿííûé_ãðàäèåíò_1020-2" x1="342.14" y1="121.65" x2="342.14" y2="92.11" xlink:href="#Áåçûìÿííûé_ãðàäèåíò_1020"/><linearGradient id="Áåçûìÿííûé_ãðàäèåíò_1020-3" x1="138.93" y1="87.37" x2="138.93" y2="31.38" xlink:href="#Áåçûìÿííûé_ãðàäèåíò_1020"/><linearGradient id="Áåçûìÿííûé_ãðàäèåíò_1020-4" x1="206.76" y1="118.55" x2="206.76" y2="36.5" xlink:href="#Áåçûìÿííûé_ãðàäèåíò_1020"/><linearGradient id="Áåçûìÿííûé_ãðàäèåíò_1020-5" x1="114.81" y1="191.72" x2="114.81" y2="147.34" xlink:href="#Áåçûìÿííûé_ãðàäèåíò_1020"/><linearGradient id="Áåçûìÿííûé_ãðàäèåíò_1020-6" x1="78.32" y1="161.92" x2="78.32" y2="137.8" xlink:href="#Áåçûìÿííûé_ãðàäèåíò_1020"/><linearGradient id="Áåçûìÿííûé_ãðàäèåíò_63-2" x1="219.39" y1="316.5" x2="219.39" y2="15.43" xlink:href="#Áåçûìÿííûé_ãðàäèåíò_63"/><linearGradient id="Áåçûìÿííûé_ãðàäèåíò_778" x1="218.7" y1="293.28" x2="218.7" y2="230.44" gradientUnits="userSpaceOnUse"><stop offset="0" stop-color="#fff"/><stop offset="0.21" stop-color="#ead8e2"/><stop offset="0.58" stop-color="#c798b2"/><stop offset="0.86" stop-color="#b16f94"/><stop offset="1" stop-color="#a96089"/></linearGradient><linearGradient id="Áåçûìÿííûé_ãðàäèåíò_63-3" x1="339.37" y1="249.86" x2="339.37" y2="148.2" xlink:href="#Áåçûìÿííûé_ãðàäèåíò_63"/><linearGradient id="Áåçûìÿííûé_ãðàäèåíò_63-4" x1="132.89" y1="240.33" x2="132.89" y2="184.56" xlink:href="#Áåçûìÿííûé_ãðàäèåíò_63"/><linearGradient id="Áåçûìÿííûé_ãðàäèåíò_529" x1="176.43" y1="44.49" x2="176.43" y2="16.71" gradientUnits="userSpaceOnUse"><stop offset="0" stop-color="#fff"/><stop offset="0.06" stop-color="#e6dddf"/><stop offset="0.19" stop-color="#b59b9f"/><stop offset="0.32" stop-color="#8c646a"/><stop offset="0.43" stop-color="#6c3941"/><stop offset="0.54" stop-color="#551a23"/><stop offset="0.62" stop-color="#470711"/><stop offset="0.68" stop-color="#42000b"/></linearGradient><linearGradient id="Áåçûìÿííûé_ãðàäèåíò_529-2" x1="116.96" y1="144.75" x2="116.96" y2="135.12" xlink:href="#Áåçûìÿííûé_ãðàäèåíò_529"/><linearGradient id="Áåçûìÿííûé_ãðàäèåíò_529-3" x1="259.43" y1="142.21" x2="259.43" y2="125.18" xlink:href="#Áåçûìÿííûé_ãðàäèåíò_529"/><linearGradient id="Áåçûìÿííûé_ãðàäèåíò_529-4" x1="179.72" y1="420.59" x2="179.72" y2="389.96" gradientTransform="matrix(0.69, -0.72, 0.58, 0.56, -210.91, 45.72)" xlink:href="#Áåçûìÿííûé_ãðàäèåíò_529"/><linearGradient id="Áåçûìÿííûé_ãðàäèåíò_529-5" x1="368.56" y1="327.41" x2="368.56" y2="308.51" gradientTransform="translate(-150.35 11.45) rotate(-29.93)" xlink:href="#Áåçûìÿííûé_ãðàäèåíò_529"/><linearGradient id="Áåçûìÿííûé_ãðàäèåíò_529-6" x1="244.55" y1="54.38" x2="244.55" y2="32.08" xlink:href="#Áåçûìÿííûé_ãðàäèåíò_529"/><linearGradient id="Áåçûìÿííûé_ãðàäèåíò_529-7" x1="254.58" y1="220.24" x2="254.58" y2="206.45" gradientTransform="translate(-122.57 -16.61) rotate(-25.19)" xlink:href="#Áåçûìÿííûé_ãðàäèåíò_529"/><linearGradient id="Áåçûìÿííûé_ãðàäèåíò_529-8" x1="334.63" y1="326.93" x2="334.63" y2="314.12" gradientTransform="translate(-164.29 8.27) rotate(-32.9)" xlink:href="#Áåçûìÿííûé_ãðàäèåíò_529"/><linearGradient id="Áåçûìÿííûé_ãðàäèåíò_529-9" x1="317.08" y1="129.56" x2="317.08" y2="111.01" xlink:href="#Áåçûìÿííûé_ãðàäèåíò_529"/><linearGradient id="Áåçûìÿííûé_ãðàäèåíò_529-10" x1="355.56" y1="232.43" x2="355.56" y2="213.53" gradientTransform="translate(-150.35 11.45) rotate(-29.93)" xlink:href="#Áåçûìÿííûé_ãðàäèåíò_529"/><linearGradient id="Áåçûìÿííûé_ãðàäèåíò_529-11" x1="-258.17" y1="-4.88" x2="-258.17" y2="-20.85" gradientTransform="matrix(-0.87, -0.5, -0.5, 0.87, -132.39, 11.45)" xlink:href="#Áåçûìÿííûé_ãðàäèåíò_529"/><linearGradient id="Áåçûìÿííûé_ãðàäèåíò_529-12" x1="-420.37" y1="106.79" x2="-420.37" y2="97.17" gradientTransform="matrix(-1, 0, 0, 1, -151.62, 0)" xlink:href="#Áåçûìÿííûé_ãðàäèåíò_529"/><linearGradient id="Áåçûìÿííûé_ãðàäèåíò_788" x1="251.04" y1="228.66" x2="320.97" y2="228.66" gradientUnits="userSpaceOnUse"><stop offset="0.32" stop-color="#8b0059"/><stop offset="0.38" stop-color="#8e075d"/><stop offset="0.46" stop-color="#971a6a"/><stop offset="0.57" stop-color="#a5397e"/><stop offset="0.68" stop-color="#b8649a"/><stop offset="0.81" stop-color="#d19bbe"/><stop offset="0.94" stop-color="#f0dde9"/><stop offset="1" stop-color="#fff"/></linearGradient><linearGradient id="Áåçûìÿííûé_ãðàäèåíò_788-2" x1="194.52" y1="224.63" x2="254.16" y2="224.63" xlink:href="#Áåçûìÿííûé_ãðàäèåíò_788"/><linearGradient id="Áåçûìÿííûé_ãðàäèåíò_795" x1="304.22" y1="273.68" x2="340.27" y2="273.68" gradientUnits="userSpaceOnUse"><stop offset="0" stop-color="#ff475e"/><stop offset="1"/></linearGradient><linearGradient id="Áåçûìÿííûé_ãðàäèåíò_795-2" x1="87.01" y1="285.88" x2="161.13" y2="285.88" xlink:href="#Áåçûìÿííûé_ãðàäèåíò_795"/><linearGradient id="Áåçûìÿííûé_ãðàäèåíò_795-3" x1="181.16" y1="292.58" x2="242.97" y2="292.58" xlink:href="#Áåçûìÿííûé_ãðàäèåíò_795"/></defs><g class="cls-1"><g id="Layer_2" data-name="Layer 2"><g id="Ñëîé_1" data-name="Ñëîé 1"><path class="cls-2" d="M147.32,27.67c-2.94-3.3-21.16,4.52-19.28,17.24a.77.77,0,0,0,.61.66.34.34,0,0,0,.09.08c2.25,1.27,9.15-.26,14.47-4.77S149.29,29,147.32,27.67Z"/><path class="cls-3" d="M147.32,27.67a2,2,0,0,1,.32.61c1.1,4.36-11.13.75-19,17.29a.34.34,0,0,0,.09.08c2.25,1.27,9.15-.26,14.47-4.77S149.29,29,147.32,27.67Z"/><path class="cls-4" d="M140.5,32c3.39-.54,6.63-4.87,2.95-4.43S133.79,33.09,140.5,32Z"/><path class="cls-5" d="M340.24,101.59S385.78,66.15,390,63.81s21.77,33.33,24.8,40.52,7,15,6.87,18.79-11,10.42-18.19,15.44-28.67,19.61-28.67,19.61l-42.6-43Z"/><path class="cls-6" d="M413.38,119.38c4.91-3.79-14.6-46.11-16.11-48.35-3.16-4.84-5.87-8-7.23-7.22-4.26,2.34-49.8,37.78-49.8,37.78l-8,13.56,36,36.32,4.78-3.25S408.47,123.18,413.38,119.38Z"/><path class="cls-7" d="M397.27,71c1.51,2.25,21,44.56,16.11,48.35,5.51-2.8,8.33,3.74,8.33,3.74.09-3.79-3.83-11.6-6.87-18.79C412.78,99.44,404,81.34,397.27,71Z"/><path class="cls-8" d="M349.17,140.88l5.07,7.16a2.83,2.83,0,0,0,4.16.49l5.2-4.54a2.82,2.82,0,0,0,.57-3.57l-4.06-6.82a2.82,2.82,0,0,0-4-.9l-6.22,4.22A2.82,2.82,0,0,0,349.17,140.88Z"/><path class="cls-8" d="M387.26,85,385,79.27A2.82,2.82,0,0,0,380.7,78l-11.44,8.4a2.82,2.82,0,0,0-.77,3.69l3.13,5.38a2.82,2.82,0,0,0,4.14.83l10.58-8A2.82,2.82,0,0,0,387.26,85Z"/><path class="cls-8" d="M370,97.7l-3.11-5.57a2.82,2.82,0,0,0-4.13-.9l-15.5,11.37a2.82,2.82,0,0,0-.7,3.8L350.1,112a2.82,2.82,0,0,0,4.08.73l15-11.4A2.82,2.82,0,0,0,370,97.7Z"/><path class="cls-8" d="M390.2,120.77l6.81-6a2.83,2.83,0,0,0,.76-3.16l-.94-2.39a2.82,2.82,0,0,0-4.2-1.3l-7.69,5.21a2.81,2.81,0,0,0-.85,3.75l1.82,3.13A2.82,2.82,0,0,0,390.2,120.77Z"/><path class="cls-8" d="M383.89,110.54l8.72-6.05a2.84,2.84,0,0,0,1-3.36l-3.05-7.72a2.81,2.81,0,0,0-4.27-1.25l-9.63,7a2.82,2.82,0,0,0-.78,3.7l4,6.81A2.81,2.81,0,0,0,383.89,110.54Z"/><path class="cls-8" d="M362.68,131.58l3.67,5.72a2.82,2.82,0,0,0,4.23.6l13-11.32a2.81,2.81,0,0,0,.61-3.5l-2.3-4.11a2.82,2.82,0,0,0-4-1l-14.34,9.71A2.82,2.82,0,0,0,362.68,131.58Z"/><path class="cls-8" d="M348.26,119.7l-7.06,5.11a2.83,2.83,0,0,0-.65,3.92l4.05,5.71a2.82,2.82,0,0,0,3.91.68l6.69-4.65a2.81,2.81,0,0,0,.81-3.76l-3.67-6.17A2.83,2.83,0,0,0,348.26,119.7Z"/><path class="cls-8" d="M354.34,118.59l4,6.17a2.81,2.81,0,0,0,4,.79l14.64-10.17a2.82,2.82,0,0,0,.86-3.69L374,105a2.83,2.83,0,0,0-4.12-.91l-14.83,10.74A2.81,2.81,0,0,0,354.34,118.59Z"/><path class="cls-8" d="M340.84,107.27l-7.95,5.84a2.83,2.83,0,0,0-.64,3.91l4,5.64a2.82,2.82,0,0,0,4,.62l7.44-5.64a2.82,2.82,0,0,0,.71-3.69l-3.47-5.85A2.83,2.83,0,0,0,340.84,107.27Z"/><path class="cls-8" d="M397.77,111.66l-.94-2.39a2.82,2.82,0,0,0-4.2-1.3l-7.69,5.21a2.81,2.81,0,0,0-.85,3.75l1.82,3.13a2.8,2.8,0,0,0,4.12.8c-1.25-1.78-2.89-4.4-2.57-5.57.5-1.85,4.82-5.22,7.33-5,1.34.1,2.15,2.18,2.62,4.09A2.79,2.79,0,0,0,397.77,111.66Z"/><path class="cls-8" d="M387.46,97.08c3,.19,4.6,5.22,5.16,7.39a2.82,2.82,0,0,0,1-3.34l-3.05-7.72a2.81,2.81,0,0,0-4.27-1.25l-9.63,7a2.82,2.82,0,0,0-.78,3.7l4,6.81a2.77,2.77,0,0,0,3.27,1.22c-.64-1.59-2.17-5.38-2.79-7.36C379.53,101,383.63,96.82,387.46,97.08Z"/><path class="cls-8" d="M384.15,123.08l-2.3-4.11a2.82,2.82,0,0,0-4-1l-5,3.39-2.08,6.66,4.5,5.78,2.8-2.44c-1.51-4-3.1-9.32-1-9.94s5,2.6,6.73,4.91A2.8,2.8,0,0,0,384.15,123.08Z"/><path class="cls-8" d="M376.92,115.38a2.82,2.82,0,0,0,.86-3.69L374,105a2.83,2.83,0,0,0-4.12-.91l-14.83,10.74a2.81,2.81,0,0,0-.72,3.81l4,6.17a2.81,2.81,0,0,0,4,.79Z"/><path class="cls-9" d="M403.52,138.56c1.77-1.24,3.77-2.57,5.78-3.94-1.81,1.22-15.92,10.68-19,9.32-3.26-1.45-4.76-18-1.8-21.42s5.14-4.79,5.29-11.48,12.92-21.27,15.67-18a242,242,0,0,0-12.34-22.19,204.93,204.93,0,0,0-20.65,2.85c-13,9.85-31.07,23.86-35.32,27.17-2.54,4.83-5.15,10.13-7.7,15.53l41.37,41.78S396.32,143.57,403.52,138.56Z"/><path class="cls-5" d="M310.44,60.72S354.72,4.41,359.16.31s36.19,33.66,42,41.41,18.44,18.36,19.46,23-15.71,13.48-22.88,21.67-28.68,32.2-28.68,32.2l-64.19-39.1Z"/><path class="cls-10" d="M396,59.27c4.77-6-23.52-50.18-26-52.42C364.78,2,360.58-1,359.16.31c-4.44,4.1-48.72,60.41-48.72,60.41l-5.57,18.73,54.21,33,4.78-5.35S391.26,65.32,396,59.27Z"/><path class="cls-7" d="M370,6.85c2.5,2.25,30.78,46.39,26,52.42,5.8-5,24.58,5.41,24.58,5.41-1-4.6-13.66-15.2-19.46-23C397.21,36.44,381.23,17.26,370,6.85Z"/><path class="cls-8" d="M333,105.39l8.25,7.11a3.5,3.5,0,0,0,5.16-.64l4.91-7a3.5,3.5,0,0,0-.38-4.47l-6.93-7a3.5,3.5,0,0,0-5.09.12l-6.24,6.93A3.5,3.5,0,0,0,333,105.39Z"/><path class="cls-11" d="M362.15,26.7l-4.45-6.25a3.5,3.5,0,0,0-5.54-.21L340.88,33.77a3.51,3.51,0,0,0,.18,4.68L346.44,44a3.5,3.5,0,0,0,5.24-.24L362,30.93A3.51,3.51,0,0,0,362.15,26.7Z"/><path class="cls-11" d="M345.08,47.15l-5.41-5.78a3.51,3.51,0,0,0-5.25.16L319.15,59.85a3.5,3.5,0,0,0,.29,4.79l6,5.67a3.5,3.5,0,0,0,5.13-.35l14.68-18.22A3.5,3.5,0,0,0,345.08,47.15Z"/><path class="cls-11" d="M376.38,68.89l6.42-9.19a3.5,3.5,0,0,0,0-4l-1.85-2.6a3.5,3.5,0,0,0-5.45-.31l-7.71,8.57a3.51,3.51,0,0,0,.09,4.78L371,69.33A3.5,3.5,0,0,0,376.38,68.89Z"/><path class="cls-11" d="M365.72,58.46l8.69-9.9a3.52,3.52,0,0,0,.22-4.35l-6-8.39a3.5,3.5,0,0,0-5.53-.22l-9.51,11.27a3.5,3.5,0,0,0,.16,4.69l6.81,7A3.5,3.5,0,0,0,365.72,58.46Z"/><path class="cls-11" d="M346.45,90.15l6.13,5.79a3.51,3.51,0,0,0,5.28-.54l12.23-17.51a3.5,3.5,0,0,0-.31-4.4l-4-4.27a3.51,3.51,0,0,0-5.16.06l-14.37,16A3.51,3.51,0,0,0,346.45,90.15Z"/><path class="cls-8" d="M325.53,80.14l-7,8.27a3.49,3.49,0,0,0,.39,4.91L325.52,99a3.5,3.5,0,0,0,4.92-.34l6.67-7.6a3.49,3.49,0,0,0-.15-4.77l-6.27-6.34A3.49,3.49,0,0,0,325.53,80.14Z"/><path class="cls-11" d="M332.51,77l6.62,6.25a3.51,3.51,0,0,0,5-.23l14.6-16.64a3.49,3.49,0,0,0-.08-4.7l-6.55-7a3.5,3.5,0,0,0-5.23.14L332.24,72.18A3.51,3.51,0,0,0,332.51,77Z"/><path class="cls-8" d="M312.87,67.39,305,76.8a3.5,3.5,0,0,0,.41,4.89l6.5,5.61a3.51,3.51,0,0,0,5-.45l7.27-9a3.51,3.51,0,0,0-.24-4.66l-5.94-6A3.5,3.5,0,0,0,312.87,67.39Z"/><path class="cls-8" d="M362.15,26.7l-4.45-6.25a3.5,3.5,0,0,0-5.54-.21L340.88,33.77a3.51,3.51,0,0,0,.18,4.68L346.44,44a3.5,3.5,0,0,0,5.24-.24l.42-.52c-1.75-1.17-6.23-4.49-5.4-7.48,1-3.7,6-9.5,8.88-9.67,2-.12,4.61,3.19,6.08,5.3l.37-.46A3.51,3.51,0,0,0,362.15,26.7Z"/><path class="cls-8" d="M345.08,47.15l-5.41-5.78a3.51,3.51,0,0,0-5.25.16L319.15,59.85a3.5,3.5,0,0,0,.29,4.79l6,5.67a3.5,3.5,0,0,0,5.13-.35c-1.89-1.14-6.39-4.2-5.57-7.85,1-4.61,10.06-13,13-13.66,1.92-.45,5.09,1.92,7,3.58l.23-.29A3.5,3.5,0,0,0,345.08,47.15Z"/><path class="cls-8" d="M370.31,63.7c.46-1.76,5.46-7.63,7.82-7.17,1.36.26,2.55,2.89,3.33,5.09l1.34-1.92a3.5,3.5,0,0,0,0-4l-1.85-2.6a3.5,3.5,0,0,0-5.45-.31l-7.71,8.57a3.51,3.51,0,0,0,.09,4.78L371,69.33a3.5,3.5,0,0,0,5.39-.44l.54-.78C374.32,67,370,64.94,370.31,63.7Z"/><path class="cls-8" d="M359.64,52.38C360,49,363.43,41.28,366,42.31c1.76.7,5.38,4.76,7.5,7.28l.9-1a3.52,3.52,0,0,0,.22-4.35l-6-8.39a3.5,3.5,0,0,0-5.53-.22l-9.51,11.27a3.5,3.5,0,0,0,.16,4.69l6.81,7a3.47,3.47,0,0,0,4.05.69C362.43,57.45,359.44,54.55,359.64,52.38Z"/><path class="cls-8" d="M369.78,73.49l-4-4.27a3.51,3.51,0,0,0-5.16.06l-14.37,16a3.51,3.51,0,0,0,.2,4.89l6.13,5.79a3.51,3.51,0,0,0,5.28-.54l1.05-1.52a39.51,39.51,0,0,1-6.13-5.73c-2-2.82,9.81-12,11.25-13.24,1-.78,4,1.49,5.93,3.16l.13-.18A3.5,3.5,0,0,0,369.78,73.49Z"/><path class="cls-8" d="M337,86.28l-6.27-6.34a3.49,3.49,0,0,0-5.16.2l-7,8.27a3.49,3.49,0,0,0,.39,4.91L325.52,99a3.5,3.5,0,0,0,4.92-.34l6.67-7.6A3.49,3.49,0,0,0,337,86.28Z"/><path class="cls-8" d="M337.14,75.08C337,72,349.09,60.91,350.73,61c1.29.06,5.09,4.93,6.63,7l1.41-1.61a3.49,3.49,0,0,0-.08-4.7l-6.55-7a3.5,3.5,0,0,0-5.23.14L332.24,72.18a3.51,3.51,0,0,0,.27,4.81l6.62,6.25a3.51,3.51,0,0,0,5-.23l.1-.12C341.7,80.94,337.26,77.27,337.14,75.08Z"/><path class="cls-8" d="M333,105.39l8.25,7.11a3.5,3.5,0,0,0,5.16-.64l4.91-7a3.5,3.5,0,0,0-.38-4.47l-6.93-7a3.5,3.5,0,0,0-5.09.12l-6.24,6.93A3.5,3.5,0,0,0,333,105.39Z"/><path class="cls-8" d="M312.87,67.39,305,76.8a3.5,3.5,0,0,0,.41,4.89l6.5,5.61a3.51,3.51,0,0,0,5-.45l7.27-9a3.51,3.51,0,0,0-.24-4.66l-5.94-6A3.5,3.5,0,0,0,312.87,67.39Z"/><path class="cls-12" d="M316.08,53.57c5.18.69,6.26,2.81,8.92,8.54s7.5,2.75,9.82,2.57.91,1.76,3.16,8.29,8.33,5.37,11.34,4.17,4.33,1.57,4.57,7.06,4.26,7.51,8.18,5.17,7.24.91,11.3,5.86,16.24,39.76,10.06,57.1-88.46-50.44-88.29-54,15.3-37.58,15.3-37.58Z"/><path class="cls-13" d="M75.31,256.41s23.22,38.44,29.37,40.49,41.66,11.38,41.66,11.38l33.25-14.56-.93,7s45.75,29.36,46.43,29.59,35.06,2.73,58-4.09l12.52-27.77s55.31-9.34,61.68-12.07,20-34.14,21.63-48-309-8.53-309-8.53Z"/><path class="cls-14" d="M179.59,293.72l-.93,7s45.75,29.36,46.43,29.59,35.06,2.73,58-4.09l12.52-27.77s55.31-9.34,61.68-12.07,20-34.14,21.63-48c.28-2.51-9.7-4.39-26.19-5.79l-12.51,27.64-36,26.86,6.22-47.23-42.44-3-.18,37.45L232,312.61h-7.56c-4.95,0-43.31-15.71-43.31-15.71l1.59-57.61L167,229.87l-30.41,16.3,24.54,40-56.45,10.7c6.15,2.05,41.66,11.38,41.66,11.38Z"/><path class="cls-15" d="M83,268.66c-2.42-27.61,17-22.9,36.51-8s16.78-3.64,24.77-1.95,4.93,1.12,7.66-6.05,19.55-11.95,23.6,3.41,6.07,25.58,6.43,12.62,4.68-18.76,18.56-6.47,37.89,30.62,52.67,8.65,9.32-26.75,24.54-13.77,19.24,15.35,30.2,2,35.86-19.88,40.31-16.42,15.38,41.69,22.55,21.21,7.62-31.29,7.62-31.29l-50.3-18.09-186.71-2.86-75.51,16,9.44,28.71Z"/><path class="cls-16" d="M178.66,300.77l.16.11,2.38-5.34.31-11.17s-11.27-3.63-12.89-4.45-29-35.37-29-35.37l-3,1.62,24.54,40L156.21,304l23.38-10.24Z"/><path class="cls-16" d="M241.14,307.6c-9.22,8.19-16,22.76-16,22.76.69.23,35.06,2.73,58-4.09l12.52-27.77,8.56-11.39,6.22-47.23-42.44-3-.18,37.45,14.3,6.06S250.36,299.41,241.14,307.6Z"/><path class="cls-17" d="M352.59,88.56c1.22-2.92-9.5-12.25-17.13-7.08a.57.57,0,0,0-.24.6s0,.06,0,.09c-.12,1.85,3,5.82,7.58,7.86S352.35,90.25,352.59,88.56Z"/><path class="cls-3" d="M352.59,88.56a1.11,1.11,0,0,1-.29.4c-2.48,2.07-1.27-4-17.08-6.88,0,0,0,.06,0,.09-.12,1.85,3,5.82,7.58,7.86S352.35,90.25,352.59,88.56Z"/><path class="cls-18" d="M342.4,83.16c1.7,1.45,5.21,1.23,3.45-.41S339,80.29,342.4,83.16Z"/><path class="cls-16" d="M345.35,259.8c2,6.32,5.16,17.75,5.38,20.63s-1.92,8.23-1.92,8.23a64.69,64.69,0,0,0,8.53-2.23c6.37-2.73,20-34.14,21.63-48,.28-2.51-9.7-4.39-26.19-5.79l-7.67,16.95C344.73,253.75,344.67,257.65,345.35,259.8Z"/><path class="cls-19" d="M142.76,256.24l12.78,8.2,26.29,8.1-1,4.67L258.65,284l13.63-7.7,9.84,4.17,25.79-21.32L343.8,255l23.66,16.9c1.15-2.33,2.28-4.81,3.37-7.36l-25.72-15L308.58,254l-18,12.71-26.46,11.57-82.22-9.61.22-8H152.47L141.38,254,83.92,270.14c1.53,2.37,3.17,4.86,4.84,7.34Z"/><path class="cls-19" d="M168.62,279.92l-2.12-2.23,15.1,3.4-19.4-7.41-14.6-9.24L90.3,279.76c1.8,2.63,3.6,5.18,5.32,7.48l55.45-14.7,9.67,13,18.85,8.15,1.92-9.35Z"/><polygon class="cls-19" points="246.73 296.9 241.83 304.75 286 312.61 289.89 311.28 295.65 298.5 281.66 303.96 246.73 296.9"/><path class="cls-19" d="M318.34,294.53c6.92-1.24,14.44-2.63,21.06-3.93l11.33-10.17,11.7.48c1.12-1.71,2.3-3.74,3.48-6l-17.26-3.76Z"/><path class="cls-20" d="M105.38,167.09S92.47,68.26,58.48,53C26.05,38.34,4.89,56,.56,80s17.67,36.69,19.56,23.9,1.08-23.07,7.67-26.42C51.91,65.26,79.12,96.72,88.57,170.4Z"/><path class="cls-21" d="M84.85,148c-1-4.87-2-9.56-3.18-13.94l0,0c9.24,16.23,11.39-17,10-28.24,1.54,4.81,2.93,9.65,4.19,14.38C99,137.14,90.11,154.43,84.85,148Z"/><path class="cls-22" d="M105.38,167.09,88.57,170.4c-.44-3.45-1-6.71-1.48-10l.07.12c3,5.18,11.34,0,14-17.58C104.07,157.08,105.38,167.09,105.38,167.09Z"/><path class="cls-21" d="M46.19,76.52a21.46,21.46,0,0,0-15.59-.11,29.21,29.21,0,0,1,3.64-1.85C54.51,66,35.53,48.76,17.38,53a34.12,34.12,0,0,1,18.5-5.37C56.87,47.2,52.64,78.6,46.19,76.52Z"/><path class="cls-21" d="M76.1,116.25,76,116.1c-1.28-3.4-2.6-6.64-4-9.62,0,.09.1.15.15.24,5.22,10,11.45-14.6,7.66-30.07,2.12,4,4.1,8.28,5.93,12.75C87.09,97.89,84.44,127.35,76.1,116.25Z"/><path class="cls-21" d="M24.91,80a1.55,1.55,0,0,0,0,.21c-3.39,4.7-3.21,13.37-4.75,23.76C18.35,115.87-.9,105.66.05,84.68c0-.3.05-.58.07-.88A36.37,36.37,0,0,1,.56,80,45.79,45.79,0,0,1,5.38,66.21C13.65,56.09,28.22,67.88,24.91,80Z"/><path class="cls-21" d="M63.63,91.67a50.21,50.21,0,0,0-10.27-10.9c.12.07.24.11.37.18,9.84,5.19,12.35-18.28,2.49-28.9.76.31,1.49.55,2.26.9a34.51,34.51,0,0,1,11.47,9C76.93,71.52,73.76,100.64,63.63,91.67Z"/><path class="cls-3" d="M79.05,102.4C71.74,68.94,54.6,60.06,34.42,66.74s-17,26.62-17,26.62S1.34,64.84.05,84.68c-1,21,18.3,31.19,20.07,19.25C22,91.14,21.2,80.86,27.79,77.51c20.87-10.6,44,11.54,56,65.4l2.26.06S86.36,135.86,79.05,102.4Z"/><path class="cls-23" d="M329.12,86.35s69.65,12.75,52.35,110.17a24.51,24.51,0,0,1,2.76,3.53c1.22,1.93-3.33,16-1.85,22.19s8.88,10.36,7.85,18.44-13.31,16.05-13.31,16.05,6.14,58.72-7.17,59.75-3.08-42.34,1-52.58S377.26,238,377.26,238s-14.91-3.19-40.86,1.93-45.18,12.81-58.16,6.29-13-6.52-28.68,8.17-21.17,20.14-46.09,5.12-36.19-23.56-53.95-14-25.61,15.36-41.31,1-24.93-18.09-31.07,3.42-6.49,26.63-13,26.63-5.8-17.75-8.87-27.66-8.88-16.39-6.15-27S58,210,59,201.42c0,0-10.61-57.71,51.56-73.41,0,0-18.44-82.42,69.31-107.21C268.64-4.28,323,65.52,329.12,86.35Z"/><path class="cls-24" d="M312.48,135.63c-32.46,27.52-25.21,89.6,5.86,87.78,35.58-2.09,54.37-12.84,63.7-26.26l-.57-.63c5.58-31.42,2.09-54-5.16-70.21C363.55,116.62,337.77,114.18,312.48,135.63Z"/><path class="cls-24" d="M231.87,181.32s-7.12-25.13,0-41.61,1.57-26.12,21.3-44.29,47.49-25.91,75-12-90.39,62.73-90.39,62.73A63.07,63.07,0,0,0,231.87,181.32Z"/><path class="cls-24" d="M114.81,122.86c28.57-5.32,59.68,4.2,63.24,16.85s-1.5,37.35-1.5,37.35-.36-24.67-10.05-30.94S114.81,122.86,114.81,122.86Z"/><path class="cls-24" d="M225.56,191.07l6.47-8.71c-4.43-25.45,11.76-50.74,18.23-56.3S350.4,95.68,350.45,95.67c-11.42-7.5-21.33-9.32-21.33-9.32-3-10.16-17.51-32-41.86-48.75a81.83,81.83,0,0,0-14.18,2.67C205.74,59,170.71,163.76,225.56,191.07Z"/><path class="cls-24" d="M128.72,224.31c-23.54,2-34.42-22-8.17-46.54s43-42.79,52.23-23.74S176.9,220.23,128.72,224.31Z"/><path class="cls-12" d="M109.9,123.85c11.49,9.54,11.85-20.75,17.54-30.49s7.95-2.59,11.49,8.63,15.14,16.12,15.14-2.15,10.7-21,14.12-9.15,2.05,37.34,33.69,31,33.75-35.16,48.38-53.82,38.55-10.94,49.37-5.2,18.26,2.63,10.78-4.81S257,34.35,257,34.35L167.73,53.57,124.48,71.26,108.31,95.42l1,23.3Z"/><path class="cls-25" d="M187.76,181.32c1.6,19.07,26,35.19,37.33,38S256,223.44,262,217.83s2.15-45,4.61-39.43,4.28,39,13.16,42.92a205,205,0,0,0,20.83,7.34l-102-2.09s-29,0-20.47-4.19,5.2-35.12,5.2-35.12Z"/><path class="cls-12" d="M238.62,141.94c4.23,18.62,20.16,33.64,36.78,35.92S307,176,319.54,151.78s18.73-23.08,24.4-14,9.56,21.46,16.94,8.56S374,133.8,377,139.67s5.24,5.52,5.24,5.52.19-9.45-4.2-13.79-29.62-25.08-29.62-25.08l-68.22,12.23Z"/><path class="cls-12" d="M58.56,186.39c.6,7.29,4.69,8.42,14.25-7.17s12.49-8.09,15.29,3.64,9.52,23.45,17.83,6.83,19.07-2.3,24.3-11.29,7.91-6.8,13.6-.77,8.2,20.6,17.19,13.31,7.51-31.33,9.44-30.86,6.44,17.14,5.84,7.67S171,149.37,171,149.37l-9.39-5L98.76,152.7,64.05,165.34l-5,18.49Z"/><path class="cls-26" d="M79.53,214.39c7.17,6.14,39.26,15.26,64.87,6.83s32.44-38.8,36.19-42.62,8-4.49,18.44,10.52,22.88,8.2,29-1.36,2.39-5.81,9.22,6.48,20.14,30.62,68,29.82,70.9-17.41,76.25-27.54c4.17-23.51,3.26-42.06-.5-56.72C350.25,89.37,308.68,201,267.82,200s-38.74-36.46-27.82-63.1,41-57.36,89.12-50.53c-2-6.91-9.41-19.2-21.54-31.63-51.44-14.45-62.8,106.46-156.69,84.95-35.82-8.2-38.4-56.13-38.34-56.7a102.61,102.61,0,0,0-2,45C148.16,117.08,168,151.47,168,151.47c-28.45-21.91-29,52.17-68.63,60.19-24.78,5-42.18-22.37-37.82-41.06A71.11,71.11,0,0,0,59,201.42a15.39,15.39,0,0,1-.36,2C68.81,193.29,72.36,208.24,79.53,214.39Z"/><path class="cls-27" d="M364.4,133.47c3.76-6.58,8.65-.23,14.34,3s1.59-17.53-6.15-24.36c0,0,3.87-4.09-2-10.24s-33.68-26.63-71-17.53S241.71,116.4,239,127.55s-3.42,26.63,22.08,35.05,44.16,6.83,54.63-15.93,23.21-27.31,29.13-13.88S358,144.62,364.4,133.47Z"/><path class="cls-28" d="M305.22,49.25C294.75,37,253.32-.15,189.58,14a128.67,128.67,0,0,0-26.49,8.89l-.09,0c-17.85,6.68-37.61,25-47.85,36.73-7,8-5.28,11.39-3.49,12.73-6.24,12.74-8.89,25.16-8.57,34.71.4,12.07,7.92,20.11,17.16-4.85s16.3-25.42,17.21-13.81,4.1,13.91,9.33,12.19,2.5-11,3.41-21.07,18-14.79,19.15-2.5,2.25,39.83,31.62,35.74,36.19-29.14,45.29-46.44S274,41.51,292,52.89,315.69,61.54,305.22,49.25Z"/><path class="cls-29" d="M156.12,129.37c-13.22-7.27-39.41-9.14-55.86-3.72-17.53,4.66-32.73,13.52-37.92,19.66C54.83,154.18,61,157.12,61,157.12c-6.19,11.95-5.85,22.86-2.63,26.1,6.26,6.28,15.37-9.92,21.29-15.61s6.6.23,8.88,14.11,12.29,11.39,16.39,4.1,6.37-15.7,11.38-14.57,4.1,0,11.38-5.29,12.29,11.44,25,14.4S168,169,169.35,157.14s3.71.34,4.76-2.5S169.78,136.88,156.12,129.37Z"/><path class="cls-30" d="M261.06,162.6c25.49,8.43,44.16,6.83,54.63-15.93s23.21-27.31,29.13-13.88,13.2,11.83,19.58.68c3.76-6.58,8.65-.23,14.34,3,2,1.13,2.79-.79,2.61-4-.19.75-1.09,3.26-4.37-.11-3.8-3.91-8.26-18.87-10.1-9.75s-3.88,13.17-10.47,11.28-15.91-27.91-24.23-15.29-13.76,19.7-28,27.81-62.28,11.92-66.39-6.69C238.69,148.21,244,157,261.06,162.6Z"/><path class="cls-31" d="M341.82,96.89c-7.92-6.21-28.18-5.76-34.78-2.12s16.95,1.11,28.68,3.87,25,12.7,28.31,16.14c2.76,2.85,13.21,9,14.36,6.15a25.27,25.27,0,0,0-5.8-8.86C366.22,117.76,349.74,103.11,341.82,96.89Z"/><path class="cls-32" d="M133.59,62.14C141.1,50,163.18,41.51,169.33,34.35S158.17,33.54,145.42,47s-24.58,30-33.76,25.35A93.8,93.8,0,0,0,107.57,82C104.35,98,126.08,74.28,133.59,62.14Z"/><path class="cls-33" d="M201,112.76c29.36-4.1,36.19-29.14,45.29-46.44S274,41.51,292,52.89c12.37,7.83,18.93,9,18.4,4.93-1.35,3.4-2.14,2.21-13.84-6.23s-31-26-41.89-5.53-21.17,35.06-44.61,45.57-38.24-10.51-40.29-18.92-6.6-17.09-14.11-9.35-9.11,26.18-15,18.65-5-21.38-15.93,3.68c-9.07,20.81-19.68,26.15-21.61,19.6,0,.59,0,1.2,0,1.77.4,12.07,7.92,20.11,17.16-4.85s16.3-25.42,17.21-13.81,4.1,13.91,9.33,12.19,2.5-11,3.41-21.07,18-14.79,19.15-2.5c1,11.31,2.09,35.51,25.12,36.12l5.43-.27C200.26,112.83,200.6,112.81,201,112.76Z"/><path class="cls-34" d="M168,151.47c-.81,10.62-5.24,24.11-11.38,18.94S141.33,158.28,134.27,158s-8.65,12.84-15.93,10.35-8.88-3.43-16.16,5-12.07,5-16.1-7.33-8.26-8.59-12.39-.85-12.26,23.67-16.84,15.46a6.89,6.89,0,0,0,1.5,2.65c6.26,6.28,15.37-9.92,21.29-15.61s6.6.23,8.88,14.11,12.29,11.39,16.39,4.1,6.37-15.7,11.38-14.57,4.1,0,11.38-5.29,12.29,11.44,25,14.4S168,169,169.35,157.14c.94-8,2.32-5,3.43-3.11C172.77,154,168.77,140.87,168,151.47Z"/><path class="cls-35" d="M68.26,161.21c10.24-2.92,7.37-8.49,16.59-13.22s15.05-12.93,8.22-9.29S73.5,159.41,61,157.12l-.05.09C60.64,158,58.71,163.94,68.26,161.21Z"/><path class="cls-36" d="M111.62,68.08c4.44,1.2,32.82-22,29.16-16s-17.83,22.12-25,21.78S111.62,68.08,111.62,68.08Z"/><path class="cls-36" d="M60.58,149.09c-1.78,3.67-.83,7.55,1.56,8.18s8.29.86,19.53-7.9-2.48-.45-8.12,1.34-11.35,1.56-12.12.52S61.05,148.11,60.58,149.09Z"/><path class="cls-36" d="M346,98.51c11.06,4.56,17.23,10.14,22.08,8.37s4.92-1.21,5.1,1.32-.94,6.74-5.1,6-10.58-4.15-14.93-7.62S343.42,97.43,346,98.51Z"/><path class="cls-37" d="M120.82,63.86c9.77-6.5,25.59-26.88,14.87-20.7S114,61.28,112.82,64.68,111.69,69.93,120.82,63.86Z"/><path class="cls-37" d="M68.94,151.48c7.32-1,25.14-19.75,17.14-18.52S46.41,154.47,68.94,151.48Z"/><path class="cls-37" d="M358.24,103.78c7.82,7.26,18.67,2.7,6.38-6S338.65,85.6,358.24,103.78Z"/><path class="cls-38" d="M154.81,28c-11.69,9.25,6.83,2.9,17.42-2s5,2.22-2.56,12.46,14.34,3.24,26.8-5,33.46-9.39,52.41-4.78,17.49-3.6,27-.17-15.63-16.73-56.47-16.73S158.48,25.07,154.81,28Z"/><path class="cls-38" d="M93.53,128.86c-4.39,2.49,5.46.68,10.41,0s.34,6.26-4.1,10.81,4.61,1.72,14.17-3.77,27.32-3,36.88,3.77-2.18-7.31,6.14-5.18-.67-9.22-27.48-10.92C105.38,122,95.23,127.89,93.53,128.86Z"/><path class="cls-38" d="M318.34,82.51c12.24-.72,7.16,2.33-6.4,4.79s-23.45,8.55-10.65,9.78,9.28,3.26-5.94,6.42-29.56,14.37-37.42,24.56-7-8.54-2.05-14.71-7.54,6.21-5.36.56S276,85,318.34,82.51Z"/><path class="cls-37" d="M371.48,121.65c-2.7-4.06-4.81-3-8.68,1.66s-8.42-2.36-18.72-10-12.54,6.24-24.3,17.75-68,22.67-79.55,13.45c10.79,13,51.18,9.19,64,1.87,14.2-8.11,19.65-15.19,28-27.81s17.64,13.41,24.23,15.29,8.62-2.16,10.47-11.28,6.3,5.84,10.1,9.75c3.28,3.37,4.18.86,4.37.11a12.74,12.74,0,0,1,0,2,22.69,22.69,0,0,0-.88-7.4C379.6,131.2,374.18,125.69,371.48,121.65Z"/><path class="cls-37" d="M103.1,105.29c1.93,6.55,12.54,1.21,21.61-19.6,10.93-25.06,10-11.22,15.93-3.68s7.52-10.91,15-18.65,12.06.94,14.11,9.35,16.84,29.43,40.29,18.92,33.69-25.08,44.61-45.57,30.09-3,41.89,5.53,12.49,9.63,13.84,6.23c-.21-1.78-1.9-4.7-5.19-8.57A89.59,89.59,0,0,0,296,40.14c-8.73-6.7-25.76-9.9-33.27-6.37s-26.58,39.77-48.3,43.75-37.62-9.26-45.82-15.38-10.24-4.47-19,3.38-8.65,2.17-13.89,2.31-6.52,8.44-11.38,15.11-20.84,23.11-19.62,8.75a61.32,61.32,0,0,0-1.66,15.37C103.07,106.49,103.09,105.88,103.1,105.29Z"/><path class="cls-37" d="M57.45,182a8.42,8.42,0,0,1-.6-1.38c4.58,8.21,12.72-7.72,16.84-15.46s8.36-11.49,12.39.85,8.81,15.74,16.1,7.33,8.87-7.46,16.16-5,8.87-10.66,15.93-10.35,16.16,7.28,22.31,12.45,10.57-8.32,11.38-18.94,4.81,2.54,4.82,2.56c.52.89,1,1.52,1.33.61.39-1.07-.13-3.85-1.65-7.3-1.65-2.3-2.45-4.61-5.07,3.66s-10.58,7.51-20.49,5.68-14.45-1.36-19.57,4.22-12.52.34-17.41,4.21-7.17,4.66-13.39,3.2-7.33-15.49-13-14.7-8.12,7.73-11.19,12.59-17.14,11.11-15.48,2.29C55.59,174.4,56,179.27,57.45,182Z"/><path class="cls-39" d="M115.46,62.45c3.74,1.29,9-4.73,10.32-9.56C126.9,48.71,113.42,61.74,115.46,62.45Z"/><path class="cls-40" d="M178.05,72.71c6.94,9.85,15,14.12,24.22,9.69s3.59-1.88-5-3.91S174.2,67.22,178.05,72.71Z"/><path class="cls-40" d="M219,77.52c7.15-3.2,17.41-11.77,14.34-5.62s-10.75,7.85-13.91,7.39S217.06,78.37,219,77.52Z"/><path class="cls-40" d="M109,100.12c4.42,1.07,9.76-1.85,10.24-6.76s-2.5-2.55-4.44,0S106.16,99.44,109,100.12Z"/><path class="cls-40" d="M64.16,147.92c6,1.07,9.33-.92,10.93-6S59.72,147.13,64.16,147.92Z"/><path class="cls-40" d="M87.09,163.29c1.43,4.31,2.68,5,6.44,6S89.85,160.78,88.1,159,86.22,160.64,87.09,163.29Z"/><path class="cls-40" d="M143.15,157.12a94.59,94.59,0,0,0,14.68,2c2.39,0,2.33,3.5-5.8,2.84S138.39,156.18,143.15,157.12Z"/><path class="cls-40" d="M162.27,159.51c-.73-1.11,4.55-5.34,4.21-2.83S163.29,161.08,162.27,159.51Z"/><path class="cls-40" d="M344.31,116.23c2.48,5,10.21,8.3,12.1,8.42S341.24,110.08,344.31,116.23Z"/><path class="cls-40" d="M359.64,103.86c3.2,2.7,6.07,2,7.24.93s-10.69-8.39-10.27-6.41A11.25,11.25,0,0,0,359.64,103.86Z"/><path class="cls-40" d="M307.61,139.67a12.36,12.36,0,0,0,11.83-5.83C321,131,303.51,139.39,307.61,139.67Z"/><path class="cls-41" d="M55.29,248.87c3.07,9.91,2.39,27.66,8.87,27.66s6.83-5.12,13-26.63,15.36-17.76,31.07-3.42,23.56,8.54,41.31-1,29-1,53.95,14,30.39,9.56,46.09-5.12,15.71-14.69,28.68-8.17,32.21-1.17,58.16-6.29S377.26,238,377.26,238s-2.39,15.7-6.49,25.95-14.34,53.6-1,52.58,7.17-59.75,7.17-59.75,12.29-8,13.31-16.05a11.9,11.9,0,0,0-1-6.44c0-.08-.08-.16-.11-.24a21.1,21.1,0,0,0-1.57-2.78c-4.39-4.71-14.85-1.35-21.18-.6-7.3.88-81.95-1.77-81.95-1.77l-116,3.29s-105.16-4.09-108.81-6.89-8.94-7.82-11.19,1.23C48.14,234.54,52.68,240.48,55.29,248.87Z"/><path class="cls-42" d="M64.16,276.53c6.49,0,6.83-5.12,13-26.63s15.36-17.76,31.07-3.42,23.56,8.54,41.31-1,29-1,53.95,14,30.39,9.56,46.09-5.12,15.71-14.69,28.68-8.17,32.21-1.17,58.16-6.29S377.26,238,377.26,238s-2.39,15.7-6.49,25.95-14.34,53.6-1,52.58,7.17-59.75,7.17-59.75a50.85,50.85,0,0,0,7.3-6c-10.23,9.14,0-9.14-2.85-13.81s-28.59-4.31-46.34,1-39.6,4.32-50.6,1.93-17-1-29.06,6.49S218,257.52,189.78,244,124,255,108.09,242.5s-23.21-11.89-30.72-.91-15.71,22.53-24.19,1.62c.75,1.79,1.48,3.66,2.11,5.66C58.36,258.78,57.68,276.53,64.16,276.53Z"/><path class="cls-43" d="M191.89,185.27c6.73,15.7,17,26.73,24.21,24.6S234,181,227.17,189.05s-16.28,14.68-24.26,4.62S187.32,174.59,191.89,185.27Z"/><path class="cls-43" d="M168.7,201.72c-11.56,12.75-21.76,19.32-27.13,20.35s12.74-1.19,18.46-4.44S171.83,198.27,168.7,201.72Z"/><path class="cls-43" d="M313.44,223.76a192.92,192.92,0,0,0,48.34-10c8.65-3.09-4.48,6.44-16.95,10S303.05,224.42,313.44,223.76Z"/><path class="cls-43" d="M53.45,212.66c-2.78,4.83,5,.48,9.69-1s13.77,4.44,18.44,5.8-1.15-1-6-7.59S68.37,200,65,200s-6.86,4.47-7.64,7S53.45,212.66,53.45,212.66Z"/><path class="cls-44" d="M373.21,169.4c-15.57,19.94-56.72,42.81-72.77,45.78s31.66,6.84,51.46-.79,31.2-30.75,29.47-42.69S382.62,157.34,373.21,169.4Z"/><path class="cls-45" d="M147.07,203.64c-25.58,9.75-42.93,11.81-50.54,11.54s25,13.06,43.26,6.14,36.36-32.38,28.85-29.21S153.32,201.26,147.07,203.64Z"/><path class="cls-46" d="M169.52,31.39C170.4,45.75,178,49.76,181.35,36s1.43-19.32,1.43-19.32Z"/><path class="cls-47" d="M109.34,135.29c1.3,7.6,15.31,13.54,15.25,5.9S109.34,135.29,109.34,135.29Z"/><path class="cls-48" d="M252.29,128.34c2.24,10.59,14.6,21.9,14.26,5.89S252.29,128.34,252.29,128.34Z"/><path class="cls-49" d="M139.19,134.55c1.19,10.89,12.05,19.87,16.47,18.09s-1.81-12.22-1.81-12.22Z"/><path class="cls-50" d="M318.12,97.76C321,105.58,328,113,333.94,110.41s-.43-7.94-.43-7.94Z"/><path class="cls-51" d="M238.46,32.08c-3.22,9-.09,18.72,5.18,21.69s9.65-5.81,7.91-10.41S238.46,32.08,238.46,32.08Z"/><path class="cls-52" d="M192.82,63.19c-1,7,4.38,10.53,9,10.64s1.57-7,1.57-7Z"/><path class="cls-53" d="M285.72,91.26c-.47,7.3,4.7,10.33,9,9.2s-.66-7.09-.66-7.09Z"/><path class="cls-54" d="M312.94,111c-4.17,9.58-1.21,16.94,3.79,18.38s6.47-6.74,6.47-6.74Z"/><path class="cls-55" d="M182.87,14c-2.9-3.34-21.22,4.26-19.49,17a.79.79,0,0,0,.61.68.71.71,0,0,0,.09.07c2.23,1.3,9.15-.15,14.52-4.59S184.82,15.39,182.87,14Z"/><path class="cls-56" d="M182.87,14a2,2,0,0,1,.32.61c1,4.38-15.84,18.17-19.2,17.07a.71.71,0,0,0,.09.07c2.23,1.3,9.15-.15,14.52-4.59S184.82,15.39,182.87,14Z"/><path class="cls-18" d="M174.64,19.65c3.47-1,6.33-5.86,2.55-5S167.77,21.56,174.64,19.65Z"/><path class="cls-57" d="M157.09,145.62c3.2-3.05-5.26-21-17.91-18.65a.78.78,0,0,0-.64.63.7.7,0,0,1-.08.1c-1.19,2.29.59,9.13,5.28,14.29S155.83,147.64,157.09,145.62Z"/><path class="cls-3" d="M157.09,145.62a1.76,1.76,0,0,1-.6.35c-4.31,1.25-18.9-15-18-18.37a.7.7,0,0,1-.08.1c-1.19,2.29.59,9.13,5.28,14.29S155.83,147.64,157.09,145.62Z"/><path class="cls-4" d="M144.24,131.13c2.35,2.5,7.75,2.76,5.33,0S139.59,126.18,144.24,131.13Z"/><path class="cls-2" d="M335.71,100.73c1-3.1-10.89-11.6-18.18-5.58a.59.59,0,0,0-.19.64s0,0,0,.08c.06,1.9,3.64,5.66,8.5,7.3S335.62,102.48,335.71,100.73Z"/><path class="cls-3" d="M335.71,100.73a1.34,1.34,0,0,1-.26.44c-2.33,2.34-17.5-2.85-18.11-5.38,0,0,0,0,0,.08.06,1.9,3.64,5.66,8.5,7.3S335.62,102.48,335.71,100.73Z"/><path class="cls-4" d="M325.8,95.73c1.7,1.54,5.3,1.42,3.54-.32S322.44,92.68,325.8,95.73Z"/><path class="cls-58" d="M259.48,21.93c2.91,7.82,9.82,15.22,15.81,12.65s-.43-7.94-.43-7.94Z"/><path class="cls-2" d="M277.06,24.9c1-3.1-10.88-11.61-18.18-5.59a.58.58,0,0,0-.18.64s0,.06,0,.09c.06,1.9,3.65,5.66,8.51,7.3S277,26.65,277.06,24.9Z"/><path class="cls-3" d="M277.06,24.9a1.27,1.27,0,0,1-.25.43c-2.33,2.35-17.5-2.85-18.11-5.38,0,0,0,.06,0,.09.06,1.9,3.65,5.66,8.51,7.3S277,26.65,277.06,24.9Z"/><path class="cls-4" d="M267.15,19.89c1.7,1.54,5.31,1.43,3.55-.31S263.79,16.85,267.15,19.89Z"/><path class="cls-59" d="M107.89,125.71a14,14,0,0,1-18,8c-6-2.58,2.59-3.28,2.59-3.28Z"/><path class="cls-2" d="M90.31,128.68c-1-3.1,10.88-11.6,18.18-5.58a.56.56,0,0,1,.18.63s0,.06,0,.09c-.06,1.9-3.65,5.66-8.51,7.3S90.39,130.43,90.31,128.68Z"/><path class="cls-3" d="M90.31,128.68a1.41,1.41,0,0,0,.25.44c2.33,2.34,17.5-2.85,18.11-5.39,0,0,0,.06,0,.09-.06,1.9-3.65,5.66-8.51,7.3S90.39,130.43,90.31,128.68Z"/><path class="cls-4" d="M100.22,123.67c-1.7,1.54-5.31,1.43-3.55-.31S103.58,120.63,100.22,123.67Z"/><path class="cls-17" d="M126.21,140.09c1.35-3-9.33-12.88-17.33-7.83a.57.57,0,0,0-.26.61.94.94,0,0,0,0,.09c-.18,1.89,2.9,6.07,7.52,8.31S125.91,141.82,126.21,140.09Z"/><path class="cls-3" d="M126.21,140.09a1.17,1.17,0,0,1-.31.4c-2.6,2-17-5-17.28-7.62a.94.94,0,0,0,0,.09c-.18,1.89,2.9,6.07,7.52,8.31S125.91,141.82,126.21,140.09Z"/><path class="cls-18" d="M116,134.21c1.69,1.54,5.3,1.44,3.54-.31S112.6,131.15,116,134.21Z"/><path class="cls-60" d="M276.38,97.34c-1.3,7.6-15.32,13.53-15.25,5.9S276.38,97.34,276.38,97.34Z"/><path class="cls-17" d="M259.5,102.14c-1.35-3,9.34-12.89,17.33-7.83a.59.59,0,0,1,.27.61s0,0,0,.08c.19,1.89-2.9,6.07-7.51,8.31S259.81,103.86,259.5,102.14Z"/><path class="cls-3" d="M259.5,102.14a1.6,1.6,0,0,0,.31.4c2.61,2,17-5,17.29-7.62,0,0,0,0,0,.08.19,1.89-2.9,6.07-7.51,8.31S259.81,103.86,259.5,102.14Z"/><path class="cls-18" d="M269.77,96.25c-1.7,1.55-5.3,1.44-3.55-.3S273.12,93.2,269.77,96.25Z"/><path class="cls-57" d="M247.51,26.16c7.69-.05,9.56,23.86,0,22.55S232.14,26.25,247.51,26.16Z"/><path class="cls-3" d="M247.51,48.71c5.62.77,7.27-7.17,6.12-13.84.23,1.7.67,7-2.08,8.49-3.28,1.81-12.85-1.78-13.46-8.91C237.74,40.57,242,48,247.51,48.71Z"/><path class="cls-4" d="M246.83,33.32c.32,1.92,4.38,3.36,4.69,1.13s-.94-5.49-2.35-6S246.31,30.33,246.83,33.32Z"/><path class="cls-2" d="M255.83,120.58c5.08-3.15,16,11.93,9.15,14.94S245.69,126.87,255.83,120.58Z"/><path class="cls-3" d="M265,135.52c4-1.77,1.91-7.7-1.56-11.65.84,1,3.28,4.35,2.07,6.47-1.44,2.53-9.24,4-12.53-.45C255.2,134.09,261,137.26,265,135.52Z"/><path class="cls-4" d="M258.29,125.6c1,1.14,4.26.45,3.56-1.16s-2.84-3.25-4-3S256.74,123.83,258.29,125.6Z"/><path class="cls-57" d="M322.48,105.49c7.69,0,7.88,20.66-1.59,19.52S307.11,105.57,322.48,105.49Z"/><path class="cls-3" d="M320.89,125c2.62.32,4.47-1.06,5.66-3.18-2.61,4-12.39-3.68-11.51-9.63.65-4.38,2.63-5.75,3.67-6.19C308,108.91,312.32,124,320.89,125Z"/><path class="cls-4" d="M321.8,111.81c-2.62-.67-1.78-6,1.48-4.38S328.17,113.46,321.8,111.81Z"/><path class="cls-17" d="M196.74,58.67c4.32-2.06,9.91,9.54,4.28,11.41S188.11,62.78,196.74,58.67Z"/><path class="cls-3" d="M201,70.08a3.43,3.43,0,0,0,2.34-3.29c-.41,2.95-8,1.21-9-2.37-.79-2.64,0-3.94.43-4.46C189.51,64.42,195.92,71.78,201,70.08Z"/><path class="cls-4" d="M198,62.41c-1.65.31-2.6-2.93-.32-2.86S202.06,61.65,198,62.41Z"/><path class="cls-55" d="M288.75,86.22c4-2.62,11.1,8.13,5.77,10.73S280.75,91.45,288.75,86.22Z"/><path class="cls-56" d="M294.52,97a3.43,3.43,0,0,0,1.88-3.57c0,3-7.72,2.26-9.27-1.14-1.14-2.51-.57-3.9-.17-4.48C282.35,92.89,289.69,99.32,294.52,97Z"/><path class="cls-4" d="M290.53,89.75c-1.59.53-3-2.56-.71-2.79S294.42,88.46,290.53,89.75Z"/><path class="cls-43" d="M238.62,157c-1.77,19.6,8.2,36.87,26.47,32s17.11-8.57,4-12-25.31-13.35-27.24-19.94S239,152.57,238.62,157Z"/><path class="cls-43" d="M72,185.27c5.79-10.29,9.81-4.44,14,5.8s11.24,15.9,15.36,16.5-7.21,8.45-19.87,0S68.48,191.55,72,185.27Z"/><path class="cls-20" d="M252.09,226.78s-7.21-83.46,22.51-101.57c28.34-17.27,50.89,2,57.68,23.81S314.93,183,311.69,171.34s-4.28-20-10.15-23.58c-16.25-10-32,9.07-32.22,78.4Z"/><path class="cls-20" d="M196.07,220.87s-30.83-33.37-25-51.18c5.59-17,20.55-18.54,31-12s8.06,20.42,2.67,16.78-7.44-4.68-10.92-3.37c-12.74,4.79-6.8,22.14,17.33,50.67Z"/><path class="cls-21" d="M303.35,149.17a11.2,11.2,0,0,0-1.81-1.41,16.36,16.36,0,0,0-5.76-2.3l.19,0S271.66,126,290.78,119a32.55,32.55,0,0,1,22.85,4.72C294.08,112.89,297.43,135.6,303.35,149.17Z"/><path class="cls-21" d="M251.33,204.26c0-5.38.17-11.37.59-17.63.33,16.56,15.11,23.82,18.7,9.37l0-.05c-.22,2.3-.41,4.68-.57,7.16C267.61,217.13,255.57,219.19,251.33,204.26Z"/><path class="cls-21" d="M273.78,174.54c-.47,2.15-.91,4.49-1.32,7-9.25,17.55-17.19-1.53-17.93-16.79.77-4.19,1.7-8.29,2.83-12.2C254.79,173.14,270.3,184.27,273.78,174.54Z"/><path class="cls-21" d="M267.78,131.23c-8.88,11.79,9.62,23.62,16.48,18.65a29.47,29.47,0,0,0-4.33,6.36l-.07.11c-9.68,14.76-22.85,6.48-18.8-14A46.25,46.25,0,0,1,267.78,131.23Z"/><path class="cls-61" d="M200.52,208.38l0,0c-1.26-1.74-2.45-3.43-3.53-5.06-1.6,2.35-5.7,3.84-16.18-2.26,1.69,2.62,3.43,5.1,5.11,7.38C202.46,217.15,200.52,208.38,200.52,208.38Z"/><path class="cls-61" d="M188,185.4a20,20,0,0,1-.67-5.37.65.65,0,0,0,0,.13c-2.34,9.13-13,8.2-16.38-.89a40.79,40.79,0,0,0,2.18,7.26C180.86,200.92,190.68,195.7,188,185.4Z"/><path class="cls-61" d="M190.09,173.35l.07,0a11.37,11.37,0,0,1,3.64-2.18,8.6,8.6,0,0,1,1.76-.45c-8.48.34-23.85-9.25-14.21-14.37a19.13,19.13,0,0,0-5.95,5.09C169.33,171.7,184.37,177.06,190.09,173.35Z"/><path class="cls-61" d="M201.94,172.69c.84.53,1.74,1.11,2.78,1.81,5.39,3.64,7.74-10.21-2.67-16.78a24.21,24.21,0,0,0-4-2C186.11,154.42,198.79,169.72,201.94,172.69Z"/><path class="cls-3" d="M306.41,147.54c-6-14.7-18-16.62-26.67-8.29s-8.42,50.21-8.42,50.21c4.76-39.24,17.32-49.66,30.22-41.7,5.87,3.62,6.92,12,10.15,23.58,2.08,7.46,12.73,5.1,18.33-3.3C320.4,179.8,312.38,162.16,306.41,147.54Z"/><path class="cls-3" d="M273.3,126.13c-28.18,19.75-21.21,100.65-21.21,100.65l8.15-.3C253.54,203,253.85,140.58,273.3,126.13Z"/><path class="cls-62" d="M170.9,176.21c-.06-1.57-.18-2.93-.34-4.14-2.71,18.25,25.51,48.8,25.51,48.8l9.91.61C197.39,214.83,171.58,193.44,170.9,176.21Z"/><path class="cls-3" d="M195.56,166.91c-9.2-5.79-17.45-1.25-14.77,10.13,1.52,6.47,7.9,15.15,13.13,21.44-8.8-14.78-8.9-24-.12-27.35,3.48-1.31,5.53-.27,10.92,3.37,2.78,1.88,4.74-.91,4.56-4.94C209.29,174.53,204.42,172.48,195.56,166.91Z"/><path class="cls-63" d="M201.42,219.85c25.61.68,99.89,8.54,126.43,8.88s53.26,2.05,30.33,3.07-67,1.71-90.18,5.12-81.26,4.44-113.7,0S82.93,232,65.87,227.7s-.65-6.14,19-4.43,34.29,5.45,69.12,1.36S201.42,219.85,201.42,219.85Z"/><path class="cls-43" d="M155.16,228.05c36.36-1.28,66.6,8.19,34.83,7.85S121,229.24,155.16,228.05Z"/><path class="cls-43" d="M206.2,229.87c14.25.87,26.29-1.21,11.1-1.94S194.08,229.13,206.2,229.87Z"/><path class="cls-43" d="M275.68,233.23c29,1.38,43.53-2.92,18.1-4.31S254,232.19,275.68,233.23Z"/><path class="cls-64" d="M251,223.28c16.48,3,47.5,12.95,66.59,10.33s-49.86-9.18-49.86-9.18Z"/><path class="cls-65" d="M194.52,220.32c11.73-.31,29.61,9.71,53.73,9.09s-32.95-9.59-40-9.59S194.52,220.32,194.52,220.32Z"/><path class="cls-66" d="M306.9,266.79l-2.68,20.32,36-26.86s-20.49,10.93-24.13,11.61S306.9,266.79,306.9,266.79Z"/><path class="cls-67" d="M104.68,296.9l56.45-10.7-.39-.63-1.54,1S103.54,288.25,87,274.86C93.75,285,101.5,295.84,104.68,296.9Z"/><path class="cls-68" d="M200.31,294.63c-3.93-2.09-16.4-19.21-18.48-22.09l-.67,24.36s38.36,15.71,43.31,15.71H232L243,300.92l-12.41,8.27S204.61,296.9,200.31,294.63Z"/></g></g></g></svg>