<svg xmlns="http://www.w3.org/2000/svg" xmlns:xlink="http://www.w3.org/1999/xlink" viewBox="0 0 368.08 353"><defs><style>.cls-1{isolation:isolate;}.cls-2{fill:url(#Áåçûìÿííûé_ãðàäèåíò_1063);}.cls-3,.cls-4{opacity:0.21;}.cls-13,.cls-24,.cls-29,.cls-3,.cls-32,.cls-33,.cls-36,.cls-37,.cls-39,.cls-4,.cls-40{mix-blend-mode:screen;}.cls-3{fill:url(#Áåçûìÿííûé_ãðàäèåíò_1064);}.cls-4{fill:url(#Áåçûìÿííûé_ãðàäèåíò_1064-2);}.cls-5,.cls-7{opacity:0.64;}.cls-10,.cls-14,.cls-15,.cls-18,.cls-19,.cls-21,.cls-22,.cls-23,.cls-25,.cls-28,.cls-34,.cls-35,.cls-5,.cls-6,.cls-7,.cls-9{mix-blend-mode:multiply;}.cls-5{fill:url(#Áåçûìÿííûé_ãðàäèåíò_285);}.cls-6{fill:#805680;opacity:0.44;}.cls-7{fill:url(#Áåçûìÿííûé_ãðàäèåíò_1065);}.cls-8{fill:url(#Áåçûìÿííûé_ãðàäèåíò_1072);}.cls-9{fill:#a44d02;opacity:0.52;}.cls-10,.cls-15{fill:#bb4d02;}.cls-10,.cls-13{opacity:0.49;}.cls-11{fill:url(#Áåçûìÿííûé_ãðàäèåíò_1071);}.cls-12{fill:url(#Áåçûìÿííûé_ãðàäèåíò_940);}.cls-13{fill:#03a8df;}.cls-14,.cls-21,.cls-29,.cls-34,.cls-35,.cls-36{opacity:0.65;}.cls-14{fill:url(#Áåçûìÿííûé_ãðàäèåíò_1060);}.cls-15{opacity:0.43;}.cls-16{fill:url(#Áåçûìÿííûé_ãðàäèåíò_1073);}.cls-17{fill:url(#Áåçûìÿííûé_ãðàäèåíò_1068);}.cls-18,.cls-19,.cls-25{opacity:0.83;}.cls-18{fill:url(#Áåçûìÿííûé_ãðàäèåíò_1020);}.cls-19{fill:url(#Áåçûìÿííûé_ãðàäèåíò_1020-2);}.cls-20{fill:url(#Áåçûìÿííûé_ãðàäèåíò_973);}.cls-21{fill:url(#Áåçûìÿííûé_ãðàäèåíò_987);}.cls-22{fill:#d90059;opacity:0.56;}.cls-23,.cls-25{fill:#d0aebe;}.cls-23{opacity:0.6;}.cls-24,.cls-32,.cls-39{fill:#b57240;}.cls-24{opacity:0.36;}.cls-26{fill:url(#Áåçûìÿííûé_ãðàäèåíò_973-2);}.cls-27{fill:url(#Áåçûìÿííûé_ãðàäèåíò_961);}.cls-28{fill:#9b0767;opacity:0.42;}.cls-29{fill:url(#Áåçûìÿííûé_ãðàäèåíò_1031);}.cls-30,.cls-31{fill:#ffbf83;}.cls-31{opacity:0.4;}.cls-32{opacity:0.63;}.cls-33{opacity:0.33;fill:url(#Áåçûìÿííûé_ãðàäèåíò_1031-2);}.cls-34{fill:url(#Áåçûìÿííûé_ãðàäèåíò_987-2);}.cls-35{fill:url(#Áåçûìÿííûé_ãðàäèåíò_987-3);}.cls-36{fill:url(#Áåçûìÿííûé_ãðàäèåíò_1031-3);}.cls-37{fill:#d7426d;opacity:0.91;}.cls-38{fill:#ffccea;}.cls-39{opacity:0.82;}.cls-40{fill:#98d6ff;}</style><linearGradient id="Áåçûìÿííûé_ãðàäèåíò_1063" x1="1464.91" y1="282.44" x2="1262.72" y2="282.44" gradientTransform="matrix(-1, 0, 0, 1, 1448.82, 0)" gradientUnits="userSpaceOnUse"><stop offset="0" stop-color="#2f283a"/><stop offset="1" stop-color="#69326c"/></linearGradient><linearGradient id="Áåçûìÿííûé_ãðàäèåíò_1064" x1="1291.63" y1="301.37" x2="1229.33" y2="301.37" gradientTransform="matrix(-1, 0, 0, 1, 1448.82, 0)" gradientUnits="userSpaceOnUse"><stop offset="0"/><stop offset="1" stop-color="#ff475e"/></linearGradient><linearGradient id="Áåçûìÿííûé_ãðàäèåíò_1064-2" x1="118.75" y1="314.5" x2="142.58" y2="314.5" gradientTransform="matrix(1, 0, 0, 1, 0, 0)" xlink:href="#Áåçûìÿííûé_ãðàäèåíò_1064"/><linearGradient id="Áåçûìÿííûé_ãðàäèåíò_285" x1="176.86" y1="353" x2="176.86" y2="234.91" gradientUnits="userSpaceOnUse"><stop offset="0" stop-color="#400040"/><stop offset="0.08" stop-color="#470947"/><stop offset="0.22" stop-color="#592159"/><stop offset="0.4" stop-color="#764876"/><stop offset="0.6" stop-color="#9f7e9f"/><stop offset="0.82" stop-color="#d2c3d2"/><stop offset="1" stop-color="#fff"/></linearGradient><linearGradient id="Áåçûìÿííûé_ãðàäèåíò_1065" x1="1269.5" y1="288.14" x2="1269.5" y2="251.49" gradientTransform="matrix(-1, 0, 0, 1, 1448.82, 0)" gradientUnits="userSpaceOnUse"><stop offset="0" stop-color="#fff"/><stop offset="0.18" stop-color="#d2c3d2"/><stop offset="0.4" stop-color="#9f7e9f"/><stop offset="0.6" stop-color="#764876"/><stop offset="0.78" stop-color="#592159"/><stop offset="0.92" stop-color="#470947"/><stop offset="1" stop-color="#400040"/></linearGradient><linearGradient id="Áåçûìÿííûé_ãðàäèåíò_1072" x1="348.05" y1="81.13" x2="235.1" y2="194.09" gradientUnits="userSpaceOnUse"><stop offset="0" stop-color="#f5af69"/><stop offset="0.3" stop-color="#df9054"/><stop offset="0.63" stop-color="#c4693b"/></linearGradient><linearGradient id="Áåçûìÿííûé_ãðàäèåíò_1071" x1="320.38" y1="73.91" x2="296.75" y2="127" gradientUnits="userSpaceOnUse"><stop offset="0" stop-color="#04bde9"/><stop offset="0.02" stop-color="#04b9e7"/><stop offset="0.2" stop-color="#0398d5"/><stop offset="0.39" stop-color="#037ec7"/><stop offset="0.58" stop-color="#026cbd"/><stop offset="0.78" stop-color="#0261b7"/><stop offset="1" stop-color="#025db5"/></linearGradient><linearGradient id="Áåçûìÿííûé_ãðàäèåíò_940" x1="160.75" y1="279.58" x2="196.32" y2="175.62" gradientUnits="userSpaceOnUse"><stop offset="0.16" stop-color="#9e24a1"/><stop offset="0.5" stop-color="#9f54bf"/><stop offset="0.83" stop-color="#a07bd8"/><stop offset="1" stop-color="#a08ae1"/></linearGradient><linearGradient id="Áåçûìÿííûé_ãðàäèåíò_1060" x1="235.63" y1="217.27" x2="12.8" y2="217.27" gradientUnits="userSpaceOnUse"><stop offset="0" stop-color="#9c4eb6"/><stop offset="0.14" stop-color="#a255ba"/><stop offset="0.35" stop-color="#b169c4"/><stop offset="0.6" stop-color="#cb8ad5"/><stop offset="0.88" stop-color="#eeb7ec"/><stop offset="1" stop-color="#ffccf7"/></linearGradient><linearGradient id="Áåçûìÿííûé_ãðàäèåíò_1073" x1="95.91" y1="180.05" x2="200.72" y2="60.58" gradientUnits="userSpaceOnUse"><stop offset="0.37" stop-color="#c4693b"/><stop offset="0.7" stop-color="#df9054"/><stop offset="1" stop-color="#f5af69"/></linearGradient><linearGradient id="Áåçûìÿííûé_ãðàäèåíò_1068" x1="180.36" y1="18" x2="86.38" y2="213.78" gradientUnits="userSpaceOnUse"><stop offset="0" stop-color="#9d3627"/><stop offset="0.23" stop-color="#9b3526"/><stop offset="0.73" stop-color="#6b150f"/></linearGradient><linearGradient id="Áåçûìÿííûé_ãðàäèåíò_1020" x1="204.66" y1="60.96" x2="85.58" y2="180.04" gradientUnits="userSpaceOnUse"><stop offset="0" stop-color="#6b002f"/><stop offset="0.22" stop-color="#7e214a"/><stop offset="0.7" stop-color="#af758f"/><stop offset="1" stop-color="#d0aebe"/></linearGradient><linearGradient id="Áåçûìÿííûé_ãðàäèåíò_1020-2" x1="240.72" y1="67.89" x2="231.59" y2="77.02" xlink:href="#Áåçûìÿííûé_ãðàäèåíò_1020"/><linearGradient id="Áåçûìÿííûé_ãðàäèåíò_973" x1="115.47" y1="155.32" x2="31.61" y2="239.18" gradientUnits="userSpaceOnUse"><stop offset="0" stop-color="#f5af69"/><stop offset="0.6" stop-color="#ec9053"/><stop offset="1" stop-color="#e67843"/></linearGradient><linearGradient id="Áåçûìÿííûé_ãðàäèåíò_987" x1="176.6" y1="283.46" x2="176.6" y2="232.91" gradientUnits="userSpaceOnUse"><stop offset="0" stop-color="#ffccf7"/><stop offset="0.12" stop-color="#eeb7ec"/><stop offset="0.4" stop-color="#cb8ad5"/><stop offset="0.65" stop-color="#b169c4"/><stop offset="0.86" stop-color="#a255ba"/><stop offset="1" stop-color="#9c4eb6"/></linearGradient><linearGradient id="Áåçûìÿííûé_ãðàäèåíò_973-2" x1="328.74" y1="197.66" x2="192.65" y2="197.66" xlink:href="#Áåçûìÿííûé_ãðàäèåíò_973"/><linearGradient id="Áåçûìÿííûé_ãðàäèåíò_961" x1="262.15" y1="212.22" x2="249.54" y2="154.47" gradientUnits="userSpaceOnUse"><stop offset="0" stop-color="#d71a76"/><stop offset="0.25" stop-color="#dc2682"/><stop offset="0.71" stop-color="#eb46a3"/><stop offset="1" stop-color="#f55ebb"/></linearGradient><linearGradient id="Áåçûìÿííûé_ãðàäèåíò_1031" x1="14.98" y1="226.08" x2="352.98" y2="226.08" gradientUnits="userSpaceOnUse"><stop offset="0"/><stop offset="0.04" stop-color="#07050a"/><stop offset="0.39" stop-color="#483561"/><stop offset="0.68" stop-color="#7757a1"/><stop offset="0.89" stop-color="#946dc8"/><stop offset="1" stop-color="#9f75d7"/></linearGradient><linearGradient id="Áåçûìÿííûé_ãðàäèåíò_1031-2" x1="14.98" y1="225.88" x2="352.98" y2="225.88" xlink:href="#Áåçûìÿííûé_ãðàäèåíò_1031"/><linearGradient id="Áåçûìÿííûé_ãðàäèåíò_987-2" x1="329.55" y1="283.46" x2="329.55" y2="232.91" xlink:href="#Áåçûìÿííûé_ãðàäèåíò_987"/><linearGradient id="Áåçûìÿííûé_ãðàäèåíò_987-3" x1="36.8" y1="283.46" x2="36.8" y2="232.91" xlink:href="#Áåçûìÿííûé_ãðàäèåíò_987"/><linearGradient id="Áåçûìÿííûé_ãðàäèåíò_1031-3" x1="186.6" y1="183" x2="328.73" y2="183" xlink:href="#Áåçûìÿííûé_ãðàäèåíò_1031"/></defs><g class="cls-1"><g id="Layer_2" data-name="Layer 2"><g id="Ñëîé_1" data-name="Ñëîé 1"><path class="cls-2" d="M17,234.31S38.5,230.18,46,229s45.59-18.14,74.85-17,70.54-2.06,109.33,1.84,91.63,8.72,103.2,9.64,16.55,4,16.55,4l-5.67,8.58-2.92.73-.54,6L326.1,256.81l.68-19.86-14.52,48.67-135.43,55H162.77l-25.86-11.94L87,353l-10.88-6.88L68,308.47H55.26L33.71,267.4l7.51-7.6L26.93,247.86,30.65,243l-8.93-1.54Z"/><path class="cls-3" d="M278.15,290.6s-81.07,14.88-93.8,13.27-31.79-9.18-31.79-9.18l32.66,17.45Z"/><path class="cls-4" d="M142.58,311.22l-14.51-11s4.53,18.83,3.4,21.58-12.72,7-12.72,7l18.95-4.26Z"/><path class="cls-5" d="M204.07,266.27l115.22-4.21L326.78,237l-48.63,9.85-5.67,1-15.86-8.78-174-4.14-27.94,6L55.76,252l-25.17-5.9-3.66,1.78L41.22,259.8l-7.51,7.6,33.8,16.5-10,17.24L33.71,267.4l21.55,41.07H68l8.17,37.65L87,353l49.9-24.33,25.86,11.94h14.06l135.43-55-2.72-2.29L185.22,312.14l-32.66-17.45,19.06-16.53L136,281.38l-19.49-17.17,8.81-6.83,51.27,13.45,27.23-10.57-20.4,10.57ZM52,269.49l4.21-13.66,24.7,5.94L70.24,278.16Zm90.61,41.73-4.88,13.32L95.86,334l-14.29-7.81L75,286.66l21.33-23.77,10.68.25,21.07,37.06Z"/><polygon class="cls-6" points="57.5 301.14 39.86 279.13 55.26 308.47 57.5 301.14"/><polygon class="cls-6" points="152.56 294.69 141 300.2 136.01 281.38 116.52 264.21 125.33 257.38 112.76 247.79 96.31 244.72 107 263.14 128.07 300.2 142.58 311.22 137.7 324.54 136.91 328.67 162.77 340.61 176.83 340.61 185.22 312.14 152.56 294.69"/><polygon class="cls-6" points="176.6 270.83 203.83 260.26 183.43 270.83 204.07 266.27 217.37 265.78 208.07 237.9 176.29 237.14 163.35 249.22 176.6 270.83"/><polygon class="cls-6" points="319.29 262.06 326.78 236.95 283.08 245.8 302.15 262.69 319.29 262.06"/><polygon class="cls-6" points="233.89 317.44 312.26 285.62 309.54 283.33 241.53 304.83 233.89 317.44"/><polygon class="cls-6" points="67.96 308.47 76.13 346.12 87.01 353 95.86 333.95 81.57 326.14 74.99 286.66 96.32 262.89 91.68 248.49 67.96 251.85 62.63 257.38 80.88 261.77 70.23 278.16 71.05 282.44 51.97 272.51 51.97 269.49 56.18 255.83 53.34 251.41 30.59 246.08 28.88 246.91 29.41 249.93 41.22 259.8 33.71 267.4 67.51 283.9 67.96 308.47"/><path class="cls-7" d="M318.22,265.66c-1.18,3.93-2.17,7.28-2.17,7.28-10.7,2.34-11.78-13.52-28.36-14.6-18.18-1.19-33.16,21.26-49.38,21.62s-12.25-15-25.95-17.3-24.8,11.06-40.74,15.5-36.13-9.18-39.57-11.35-12,7-12.08,13-1.25,2.47-7.93-4-18.94-7.31-27.76.49-13.79,8.79-14.64-3.2C68.93,263,58.21,252.67,55.4,258.39s-8.5,6.15-14.18,1.41-14.29-11.94-14.29-11.94l6.54-13.13,298.24-2.82-4.93,5Z"/><path class="cls-8" d="M239.4,72.72s41-16.54,81.09,2.53c46.37,22,62.71,101.63,19.1,129.75s-52.94-24-42.33-45.71,6.74-32.5-9.52-30.34-22.39,13.27-19.87,29-28.47,24-28.47,24l-35-27.39Z"/><path class="cls-9" d="M264.93,167.75c-6.2-2-12.56-5.65-15.26-12.49-6.06-15.3,6.85-48.3,19.46-46S285.19,127.46,279.8,131a30.89,30.89,0,0,1,7.94-2.07c16.26-2.16,20.13,8.65,9.52,30.34S296,233.11,339.59,205a52.62,52.62,0,0,0,19.34-22.55c-4.55,8.82-12.88,17.29-19.7,10-7-7.45-3.6-26.77,2.7-25.41s21.37-5,23.08-16.24a94.33,94.33,0,0,0-5.47-29.16.17.17,0,0,1,0,.07c-1.5,18.74-14.8,23.75-16.66,15.13s-7.78-29.37-7.78-29.37l-6.68-27.73a62.68,62.68,0,0,0-7.92-4.52,91.3,91.3,0,0,0-10-4c8.62,3.61,11.58,25.11,6.73,28s-10.75,0-14.48-10.76c-1.7-4.9-5.07-13.37-8.22-21.14a116.17,116.17,0,0,0-47.83,3,18.53,18.53,0,0,0,6.42-.84c12.3-3.75,20.87,7.49,23.39,14.2s-1.62,14.59-8.77,9.9l-29.29-18.7-16.07,37.6L229.48,174l31.65-2.48A24.22,24.22,0,0,0,264.93,167.75Z"/><path class="cls-10" d="M297.18,111.64c23.07-3.23,39.26,38.57,31,49.87s-27.47-2.06-25.65-15.93S301,127,296,126.62,297.18,111.64,297.18,111.64Z"/><path class="cls-11" d="M250.93,88.22c5.41,6.39,29.79,17.78,33.16,25.47s1.56,14.78-.84,17.54,8.65,3.49,14.29-3.84,3.37-20.67,3.49-28,6.12,5.2,8.77,11.31.84,19.93-3.25,24-5.4,8.53-5.4,10.81,1.56-.84,5.52-2.89,19.86,1.93,24.77-14.53,7.31,1.68,6.35,8.41-9,20.9-16.7,20.54,4.92,10.33,20.3,7.15,27.15-16.64,26.67-29.61-4.69-18.62-11.29-19.95l2.76,7.09s.72,12.49-7.09,19.34-7.8,6.76-9.13-1.49a274.25,274.25,0,0,1-4.2-39.95c-.48-18.39-9.85-26.31-15.62-27.76s-8.67.91-8.67.91l4,1.62s3.24,18,1.44,27.39-3.85,7.57-7.93,1.92-7.45-17.78-10.09-29.31-14.9-17.06-27.51-15.74-19.6,4.46-18.57,9.5l7-1s16.1,11.86,18.62,22.51-1.92,9.93-9.73,7S254.17,71.4,246.48,71,249.17,86.15,250.93,88.22Z"/><path class="cls-12" d="M41.29,245.84c1.34-3.64,8.17,13.94,35.08,7.21s50.46-7.45,71.84.24,25.23,15.86,47.58,6.73,19.22-7,26.06,2.16,18.87,14.56,33,1.87,19.08-12.2,32.85-10.28,25.31-.44,31.07-3.84,2.93,10.57,1.68,19.94.64,20.06,9.37,19.28c12.43-1.1,9.13-21.92,7.21-31.53s-2.16-10.1,1.26-10.82,14.36-6,14.84-20.9-5.05-28.83-23.55-27.39-149.69,17.06-198.23,9.85-99-3.84-118.69,7.69S.93,236,5.55,239.6s7,17.84,14.9,24.68S34.92,263.08,41.29,245.84Z"/><path class="cls-13" d="M356.77,114.65l2.76,7.09s.72,12.49-7.09,19.34-7.8,6.76-9.13-1.49a274.25,274.25,0,0,1-4.2-39.95c-.48-18.39-9.85-26.31-15.62-27.76a14.79,14.79,0,0,0-2.8-.41c5.83,1.92,5.31,34.18,2.56,40.17s-10-6.66-10-6.66c-.3-.4-.61-.81-.93-1.26-4.09-5.65-7.45-17.78-10.09-29.31s-14.9-17.06-27.51-15.74c-5.76.6-10.33,1.59-13.51,2.95,8.44-2.23,23.6,16.15,25.28,20.23s2.88,17.79-.48,18-8.23-1.42-8.23-1.42a34.36,34.36,0,0,1-5.71-1.71c-7.15-2.64-16.22-21.68-23.61-25.13-3.78,1.79-1.82,9.56,4.87,15.28,9.13,7.81,25,15.5,30.52,18.74s14.29,16.68,15.73,6,.61-18.37,0-26.66,4.93,8,7.21,15.14,8.41,12.13,9.49,18.26,0,12,9.25,8.05,9.86-9.74,11.78-9.68,4.2,20.85,2.16,27.58,2.74,16.54,8.53,15.61,8.76-3.19,13.85-8.29c4.07-5.11,6.43-11.13,6.21-17.05C367.58,121.62,363.37,116,356.77,114.65Z"/><path class="cls-14" d="M133.15,218.28a26.5,26.5,0,0,0,17-.88l65.48,8.68,72.61-30s30.56,9.75,37.39,6-25.36-4.21-33.53-3,5.81,20.6,5.81,20.6l-6.79-8.66-26.06.79s5.88,7.29-15.5,17.62-42.29,10.1-58.87,7.21-13-7.48-35-3.14S129.83,235,128,231.91s-17.3,5-43,0-22.11-17.06-50.94-15.86S5.59,221.34,17,213.89s62.78-11.06,71-9.62S133.15,218.28,133.15,218.28Z"/><path class="cls-15" d="M217.37,238.12c-16,1.61-38-8.91-29.29-9.94,9.15-1.08,28.85,1.32,38.7,3.73S234.63,236.38,217.37,238.12Z"/><path class="cls-15" d="M126.11,220.56c14,5.52,23.78,8.27,29.67,3.08S77.85,200.2,66.66,204.88s-25.24,8.22,13.07,7S126.11,220.56,126.11,220.56Z"/><path class="cls-16" d="M263.39,115.25c-8.44-42.89-37-93-102.92-105.24S41.17,36,28.55,87.5s15.5,111,52.5,124.38c0,0,22.11.68,42.29,5.37S172,227,210.2,219.77,271.83,158.14,263.39,115.25Zm-99,55.87c-21.26,1.8-33.66-7.13-44.69-29.2-8.65-17.3-12.26-37.48,7.21-49.73,17.9-11.27,43.73,18.74,48.71,32.43S185.69,169.31,164.43,171.12Z"/><path class="cls-9" d="M200.35,206.2c-19.94,4.08-33.88.48-33.22-8.59s3.19-2.71,23.13-9.91,25.23-63.68,27.58-76.06,8.7-12.12,12.31-2.4,8.4,6.37,8,15.74-9.93,20.43-7.76,27.4,17.05,3.12,21-6.8-5.13-47-4.81-55.11c.31-7.91,5.68-2.29,6.81-7.22-14.57-33.07-43-64-92.9-73.24C94.51-2.24,41.17,36,28.55,87.5s15.5,111,52.5,124.38c0,0,22.11.68,42.29,5.37S172,227,210.2,219.77c28.77-5.43,49.15-37.62,53.86-71.51C257.85,180.38,220.29,202.11,200.35,206.2Zm-96.13-19.71c-29.83-14.87-58.37-54.06-59.57-70.94s5.05-29.73,9.13-16.38,11.06,2.27,17.27.1S76.52,131.2,87.9,143c6.49,6.73,20.67,38.21,29.08,40.85s29.55,10.09,28.32,11.88S134.05,201.37,104.22,186.49Zm15.52-44.57c-8.65-17.3-12.26-37.48,7.21-49.73,17.9-11.27,43.73,18.74,48.71,32.43s10,44.69-11.23,46.5S130.77,164,119.74,141.92Z"/><path class="cls-10" d="M110.25,79.05c7.93,4.61,8.89,11,20.9,0s34.6,3,38.21,18.23,19.21,40.68,17.41,50.05,14.54-7.74,14.54-7.74l-7.8-54.65L153.26,63.35s-17.08-10.93-29.21-.6L111.93,73.08Z"/><path class="cls-15" d="M33.24,153.1c-1.56-22.35,20.2-14.12,24.22-9.7S33.24,153.1,33.24,153.1Z"/><path class="cls-17" d="M247.69,97.41c-5.41-9.91-2.71-17.12,1.62-15.86s12.07-8.83-1.62-16.19S212.56,12.08,163,2.64c-54-10.29-91.3,11.58-109.67,29.84-7.39,7.35-8.89,15-21,21.32s-4.69,14.6-4.69,14.6S26,72,21.35,85.7s-3.61,29,2.88,32.62,13-8.29,19.28-24.87,12.8-18.56,11.9-5,5.58,15.14,8.83,7.75,6.12-13,9.37-2,8.47,33.88,21.62,56,37.3,36.77,47.58,40.19,6.48,5,10.63,12.79,5.4,13.7,1.08,13.88-13.16.36-14.42,9,7,8.47,18.2,5.83,28.12-4.21,36.22-3.67,17.26,1.54,11-3.78S187.14,212.74,178.85,212s-11.72-4-11.72-14.41.54-11.54,7.75-11.18,22.71-3.6,33.16-14.05,12.25-40.19,10.09-55.32,7.57-29.56,12.62-17.3,13.69,4.14,15.31,11.35S236.51,136,237.23,143s11.36,11.9,18.21-1.58S253.09,107.32,247.69,97.41Zm-63.8,55.87c-7.39,14.05-19.28,8.29-23.24,17.3,0,0-.68-7.39-10.89-7.57s-27.14-8.29-34.35-31.18-2.65-49.73-2.65-49.73,9.14,3.6,14.37-7.75,28.47-2.89,42.53,14.41S191.28,139.22,183.89,153.28Z"/><path class="cls-18" d="M247.57,141.47c-2.53-6.65,2-16.49,2-27.3s-10.94-7.93-15.86-13.57c-2.61-3-4.21-11-6.51-15.93a.93.93,0,0,0-.05-.1c-.12-.25-.23-.49-.35-.72l-.09-.15-.33-.59a1.18,1.18,0,0,1-.11-.19q-.17-.26-.33-.48c0-.07-.09-.13-.13-.19l-.32-.4-.16-.18-.32-.31-.18-.15a3.19,3.19,0,0,0-.32-.23,2.12,2.12,0,0,0-.2-.12,2.41,2.41,0,0,0-.33-.15l-.22-.08-.34-.07a1.6,1.6,0,0,0-.23,0,1.35,1.35,0,0,0-.35,0l-.26,0-.36.1-.28.09-.38.2-.29.15-.41.3c-.09.07-.19.13-.29.22s-.3.27-.45.41a3.84,3.84,0,0,0-.3.28c-.17.17-.34.38-.52.58l-.26.29c-.27.32-.55.68-.83,1.07-.14.19-.23.44-.36.65v-.09a16.81,16.81,0,0,0-2.16,5.59.14.14,0,0,1,0,.06c-4.51,13.12-15.18,1.47-24.16-11.15a31.68,31.68,0,0,0-3.43-5l0-.06C178.58,60.17,172.72,67,177.67,76a2,2,0,0,1,.1.32,36.12,36.12,0,0,0-14.6-14.88,40.47,40.47,0,0,0-6-2.76l-.21-.07c-.88-.32-1.75-.59-2.62-.84l-.49-.14a36.47,36.47,0,0,0-5.55-1l-.63-.06c-.68-.06-1.34-.09-2-.11H145c-.79,0-1.57,0-2.32.1h-.12a22.46,22.46,0,0,0-2.27.35l-.61.15c-.53.13-1,.28-1.54.45l-.58.2a12.3,12.3,0,0,0-1.83.85c-11.06,6.29-9.85,12.2-15.38,16.77s-11.29.48-14.18-4.09a.89.89,0,0,0-.38-.36c-.47-.15-.85.63-1.12,2.15a1.15,1.15,0,0,0-.44.61c-1.29,3.73-5.2,7.27-11.51,2.77-5.89-4.21-13.5-5.61-18.42-3.27a2.13,2.13,0,0,0-1,.5,51.27,51.27,0,0,0-5.17,6.56c-.25.35-.48.67-.72,1l-.11.15c-.5.68-1,1.35-1.5,2l-.18.22c-.19.25-.39.5-.59.74l-.17.21c-.24.29-.48.58-.72.85l-.1.1c-.2.24-.4.46-.61.67l-.2.21c-.18.18-.36.36-.54.52l-.16.15c-.22.2-.44.39-.65.55l-.14.1a4.91,4.91,0,0,1-.5.34L61,88a4.13,4.13,0,0,1-.49.22l-.11,0a1.85,1.85,0,0,1-.55.11.56.56,0,0,1-.13,0,1.23,1.23,0,0,1-.39-.06l-.15,0a1.85,1.85,0,0,1-.4-.24s0,0,0,0a2,2,0,0,1-.4-.49l-.1-.17A5.65,5.65,0,0,1,58,86.8l-.09-.24a8.48,8.48,0,0,1-.27-1c-2-9.73,2.52-21.63-3.49-18.86S41.65,75.37,38.29,92.31s-16.82,16.22-17.42,7.08,4.91-26.22,4.62-23.18,5.23,5,12.68-3.22,13-12.16,27.15-30.42-1.2-8.17-5.29,2S35.52,76.93,27.65,68.4c0,0-1.62,3.6-6.3,17.3s-3.61,29,2.88,32.62,13-8.29,19.28-24.87,12.8-18.56,11.9-5,5.58,15.14,8.83,7.75,6.12-13,9.37-2,8.47,33.88,21.62,56,37.3,36.77,47.58,40.19,6.48,5,10.63,12.79,5.4,13.7,1.08,13.88-13.16.36-14.42,9,7,8.47,18.2,5.83,28.12-4.21,36.22-3.67,17.26,1.54,11-3.78c-.2-.17-.46-.35-.67-.53,2.57,3.23-10.69,1.92-21.2-1.51-12.13-4-17.9-2.89-26.07.48s-12.85,5.52-14.05,2.4,1.2-7.21,8.05-6.49,12-.72,8.16-5.69-2.76-14.73.12-21.22,8.17-10.69,7.51-.83c.54-4.37,2.24-4.9,7.51-4.64,7.21.36,22.71-3.6,33.16-14.05s12.25-40.19,10.09-55.32,7.57-29.56,12.62-17.3,13.69,4.14,15.31,11.35S236.51,136,237.23,143s11.36,11.9,18.21-1.58a22,22,0,0,0,1.9-5.69C254.17,144.44,250.08,148.11,247.57,141.47Zm-33.28,16.46c-8.89,23.34-42.53,23.52-50.46,22.08s-10.09,5.28-22.11,3.84S91.63,150.39,84.06,98.67c-.25-1.73-.54-3.41-.84-5-2.41-19.45,17.83-18.49,22.29,2.27a152.7,152.7,0,0,0,10.65,38.17c-.22-.73-.5-1.45-.75-2.23-7.2-22.88-2.65-49.73-2.65-49.73s9.14,3.6,14.37-7.75,28.47-2.89,42.53,14.41,21.62,50.46,14.23,64.52-19.28,8.29-23.24,17.3c-2.71,7.38-17.12,4-24.69,0s-4.81,2.7,6.48,6,18.27-2.07,19.23-6,7.21-1.63,19.94-5.78,17.3-24.68,10.09-36c-5.81-9.1-5.54-19.92-8.67-35.21-3.46-25.94,7-17.47,15.82.91s14.8,32.67,16.59,14.71v-.06C216.69,125,219.6,144,214.29,157.93Z"/><path class="cls-19" d="M242.76,72c-3.12-9.25-23.91-20.66-16.1-12.61S241.08,79.57,245,90.46c-1.27-6.08,1.05-9.85,4.28-8.91a3.29,3.29,0,0,0,2.06-.16C249.32,81.4,245.87,81.22,242.76,72Z"/><path class="cls-20" d="M10.1,217.66S1.16,179.05,33.24,153.1s80.67-15.64,94.07,20.9,4.68,52.62-1.08,54.78S85.83,238,83,219.41c-2.29-14.89-2.53-23.68-13.7-27.75-13.17-4.8-19.82,3.24-18.38,14.41C50.9,206.07,32,206.55,10.1,217.66Z"/><path class="cls-9" d="M10.1,217.66C32,206.55,50.9,206.07,50.9,206.07c-1.44-11.17,5.21-19.21,18.38-14.41,11.17,4.07,11.41,12.85,13.7,27.75,2.85,18.6,37.48,11.54,43.25,9.37,2.4-.9,5.31-4.27,6.92-10.5-3.24,6-12.35,12.68-20.39,10.74-10-2.4-8.54-5.64-10.92-33.29-2.17-25.16-17.42-43-39.65-45.28-22-2.2-43.35,14.08-23.69-1.17-1.79,1.18-3.55,2.44-5.26,3.82C1.16,179.05,10.1,217.66,10.1,217.66Z"/><path class="cls-9" d="M62,174.72c-14.93,1.66-28.66,16-24.18,33.18a82.42,82.42,0,0,1,13.13-1.83c-1.44-11.17,5.21-19.21,18.38-14.41,8.14,3,10.47,8.44,12,17C80.31,202.38,77.09,173,62,174.72Z"/><path class="cls-21" d="M5.55,239.6c4.62,3.6,7,17.84,14.9,24.68s14.47-1.2,20.84-18.44c1.34-3.64,8.17,13.94,35.08,7.21s50.46-7.45,71.84.24,25.23,15.86,47.58,6.73,19.22-7,26.06,2.16,18.87,14.56,33,1.87,19.08-12.2,32.85-10.28,25.31-.44,31.07-3.84,2.93,10.57,1.68,19.94.64,20.06,9.37,19.28c12.43-1.1,9.13-21.92,7.21-31.53s-2.16-10.1,1.26-10.82,14.36-6,14.84-20.9a52.34,52.34,0,0,0-.2-6.29c.24,5.26-3.19,16.12-16.14,13.92-14-2.38-31.24-.42-60.55,12.31s-42.53.72-60.92,4.09-24.86,4.8-38.5,0-36.34-6-63-4.33-62.47-13.93-83.61-12.09S.9,226.81,9,218.43C-5.89,228.74,1.25,236.24,5.55,239.6Z"/><path class="cls-22" d="M280.54,205S292,217.2,298,219.75s27.19-5,31.59-12,2.71-9.51-5.22-6.39S280.54,205,280.54,205Z"/><path class="cls-23" d="M67.24,23.11c-19.83,17.18.24,7.21,12.49,2.88s0,26.43,18.26,11.77,28.84-24.74,54.79-24S202.57,48.32,208,39s13.32,6.72,22.64,13.69S206.33,7.47,151.58,2.44C101.84-2.12,70.33,20.43,67.24,23.11Z"/><path class="cls-24" d="M92.71,76.33c6.31,4.5,10.22,1,11.51-2.77a1.15,1.15,0,0,1,.44-.61c.36-2,.9-2.74,1.5-1.79,2.89,4.57,8.65,8.65,14.18,4.09s4.32-10.48,15.38-16.77c10.07-5.74,33,.17,42.05,17.8a2,2,0,0,0-.1-.32c-4.95-9,.91-15.79,10.41-1.67l0,.06a31.68,31.68,0,0,1,3.43,5c9,12.62,19.65,24.27,24.16,11.15a.14.14,0,0,0,0-.06,16.17,16.17,0,0,1,2.51-6.15c8.85-12.19,10.45,8.72,14.88,15.5,7.05,6.82,5.39-3.13,14.56,4,4.51,4,3.73,1.24,2.64-1.13-.92-1.93-1.83-3.68-2.64-5.18A25.23,25.23,0,0,1,245,90.47c-.38-1-.8-2.1-1.22-3.16.88,3.65.58,6-2.43,4.7-8.65-3.79-11.17-22-23-11.9s-24.94,4.33-30.7-10.94-22.53-24.74-38-20.58S115.23,72.9,109.29,67s-2-15.14-8.83-.89S83.1,67.68,74.09,71s-5.65-5.4-10.7-12.37S45.61,67,39.85,82.94s-16.94,26.43-19,16.45c.6,9.14,14.05,9.86,17.42-7.08s9.85-22.83,15.85-25.59,1.45,9.13,3.49,18.86,11.65-8.53,15.62-12a2.13,2.13,0,0,1,1-.5C79.21,70.72,86.82,72.12,92.71,76.33Z"/><path class="cls-24" d="M116.7,147.11c4,9.07,11.59,17.09,19.44,16.08,11.17-1.44,23.73,5,20.6,1.61a13.38,13.38,0,0,0-7-1.79c-9-.16-23.38-6.64-31.53-24.1-.06-.08-.14-.16-.19-.24C112,128,114.61,141,116.7,147.11Z"/><path class="cls-24" d="M195,144c0,.06,0,.12,0,.17a.41.41,0,0,0,0,.11c-.77,9.06-5.51,17.91-13.4,20.48-11,3.58-17.09,2.4-19.21,4.49a11.94,11.94,0,0,1-.75,1.32c-1,3.9-8,9.2-19.21,5.94l-.3-.1c4.42,2.61,10.43,5,14.54,2.24,7.24-4.9,8.62-10.61,17.12-10.28s29.73-6.48,30.64-13.87c.42-3.49-2.16-9-4.89-14.7C195,130.92,195.38,140.78,195,144Z"/><path class="cls-25" d="M29,58.79c5.82.73,16.61-.32,21.74-3.73s-7.33,15.8-17.18,16S26.15,58.43,29,58.79Z"/><path class="cls-25" d="M243,69.72c5.12,3.91,10.1,5.86,11.17,4.81s.3,7.32-3.67,6.83-6.6-3.53-7.92-7.37S241,68.16,243,69.72Z"/><path class="cls-25" d="M248.86,130.52c.91,7.77,5.1,9.55,7,8.22s-3.36,8.59-6.12,7.15c-3.12-1.63-3.53-8.39-3.17-11.23S248.66,128.84,248.86,130.52Z"/><path class="cls-26" d="M193.08,204c-3.58,20.33,15.43,32.44,38,31.36s33.74-18.74,48.51-18.74,18.38,3.1,18.38,3.1,22.59-9.23,29-19.32-5.64-32.56-10.81-34.3-21.49-11.83-55.5-2.1S196.33,185.65,193.08,204Z"/><path class="cls-9" d="M212.18,213.12c-4.86,4.85,5.77,17.41,17.48,18.79s-.39,6.57-15.6,1.6-22.6-15.9-21.34-23.11S212.18,213.12,212.18,213.12Z"/><path class="cls-9" d="M275.45,212.2c-12.45,7-11.8,14.18-34.47,17.3s-25.31-10.33-23.63-13,14.18,3.14,19.22-6,18.22.78,25.84,3,15.07-9.47,21-17.68,21.58-2.6,31.95,1.79c10.19,4.3,13.63-3.35,13.22-6.88-1-10.6-8.64-23.35-12.49-24.65-5.17-1.74-21.49-11.83-55.5-2.1s-64.28,21.62-67.53,40c-3.58,20.33,15.43,32.44,38,31.36s33.74-18.74,48.51-18.74,18.38,3.1,18.38,3.1,3.56-1.46,8.22-3.83C296.32,218.87,287.89,205.24,275.45,212.2Z"/><path class="cls-27" d="M244,165.23c6.13-.24,20-18.14,40.85-21.14s32.73,4.41,37.84,10.57c7.33,8.83,7.09,25.47,4,31.11S313.1,192,300.85,188.9s-15.38-2-20,8.76-14.65,14.66-26.55,8.54-13.57-9.37-20.78-.72-34.36,10.69-43.85,4.44-8.29-24.51,4-34S228.4,165.83,244,165.23Z"/><path class="cls-28" d="M221,179.49c-11.72-3.41-2-2.43,8.81-1s24.34-5.25,37.14-15.34,29.91-9.55,24-2.89S261.2,191.16,221,179.49Z"/><path class="cls-28" d="M189.72,209.92c9.49,6.25,36.64,4.21,43.85-4.44s8.89-5.41,20.78.72,22,2.16,26.55-8.54,7.69-11.89,20-8.76,22.7,2.52,25.83-3.13a16.71,16.71,0,0,0,1.54-4.92c-1.35,5.56-5.77,0-16.2-3.13-12.07-3.6-21.8-5.58-29,11.18s-23.43,20.36-34.42,8.76-9.55-15.61-31,1.15c-21.29,16.64-36,.59-32.68-10.64C181.92,196.69,183.54,205.85,189.72,209.92Z"/><path class="cls-29" d="M350.64,222.18c-1.28,8.51-13.69,4.56-27.75,3s-24.63,10.93-39.88,16.7-41.57,5.16-60.62,5.64-29.85-2.88-41.62-4.44-45.05,2.52-72.56.72-31.48-15.14-47.58-15.38c-14-.21-34.32,6.47-45.65,4.25a46.45,46.45,0,0,0,15.26.84c21.14-1.84,56.94,13.77,83.61,12.09s49.36-.48,63,4.33,20.1,3.36,38.5,0,31.6,8.65,60.92-4.09,46.53-14.69,60.55-12.31c12.95,2.2,16.38-8.66,16.14-13.91-.84-8.67-4.22-16.23-11.72-19.5L341,200a18.36,18.36,0,0,0-2.13-.74C331.54,197.43,351.83,214.33,350.64,222.18Z"/><path class="cls-15" d="M18.47,174.65c10.55-15.2,29.31,16.24,29.79,24.5s0,7.22,0,7.22a181.53,181.53,0,0,0-35.56,9.68S7.18,190.92,18.47,174.65Z"/><path class="cls-28" d="M238.15,182.62c-9-1,18.73-3.75,30.44-10.06s9.37.33-2.7,5S242.44,183.11,238.15,182.62Z"/><path class="cls-30" d="M140,52.72c18.08-11,25.61-4.62,29.88-2.32s-6.54,6.41-16.27,6.26S132,57.59,140,52.72Z"/><path class="cls-30" d="M179.27,56.66c-8.11-2.73,7.14,15.52,7.5,11.38S182.4,57.71,179.27,56.66Z"/><path class="cls-30" d="M187.68,162.47c10.62-5.69,17.68-8.11,12.81-2.62s-14.18,9.65-21.78,8.2S179.64,166.77,187.68,162.47Z"/><path class="cls-24" d="M236.15,58.48c5.29,10.17,10.86,14.46,15,14.94s1.07-5.74-4.72-8.26S234.56,55.41,236.15,58.48Z"/><path class="cls-30" d="M245,67.08c-3.44,2.44,4,6.62,7.09,6.48S248.52,64.62,245,67.08Z"/><path class="cls-31" d="M110.25,28c-11.54,10.6,13.62-4.11,25.52-6.09s34.55-7.51,17-8.17S121.66,17.52,110.25,28Z"/><path class="cls-32" d="M85.26,153.1c19-2.19,25.74-4.14,34.84,11.11s13.21,29.18,2.88,29.09-22.23-15.1-28-23.33S76.39,154.12,85.26,153.1Z"/><path class="cls-24" d="M55.23,105.78c7.45,2,17.3-13,19.46,1.68S86,135.78,77.33,134.59,43.93,102.66,55.23,105.78Z"/><path class="cls-9" d="M25.49,185.29c7.74,3.83,24.14-14.47,14.23-13.95S20.63,182.88,25.49,185.29Z"/><path class="cls-9" d="M45.5,162.55c-.79,6.81,16.21-.32,9.36-2.54S45.87,159.39,45.5,162.55Z"/><path class="cls-9" d="M91.27,220.49c-9.16-1.19-3.61-22.34,1.44-16.58S99.56,221.57,91.27,220.49Z"/><path class="cls-32" d="M284.75,198.41c.06,10.89,15.68,16.81,21.13,15.78s21.58-10.45,11.54-15S284.69,187.85,284.75,198.41Z"/><path class="cls-32" d="M251.37,92.19c-.57,10.43,10.7,35.92,9.27,50.33s6.21-5.51,1.94-27S252.18,77.65,251.37,92.19Z"/><path class="cls-32" d="M303,75.28c3.47,9.21,14.28,20.08,15.14,15.19s-2.65-15.34-7.57-17.75S300.07,67.63,303,75.28Z"/><path class="cls-32" d="M339.47,96c.69,12.71,6.37,31.6,11,34.6s9.37-5,9-8.89S338.63,80.53,339.47,96Z"/><path class="cls-33" d="M353,219.62c-.11-1.14-.27-2.26-.48-3.35-.06-.35-.15-.67-.22-1-.16-.74-.33-1.48-.54-2.19-.11-.38-.24-.74-.37-1.11-.22-.64-.44-1.28-.7-1.9-.16-.36-.34-.71-.51-1.07-.28-.58-.57-1.14-.9-1.69-.2-.33-.42-.66-.64-1-.36-.52-.73-1-1.13-1.49-.25-.29-.51-.58-.78-.86a16.85,16.85,0,0,0-1.38-1.28c-.29-.24-.59-.48-.9-.71a17.64,17.64,0,0,0-1.68-1c-.33-.18-.66-.38-1-.54-.17-.08-.31-.19-.48-.27L341,200a18.36,18.36,0,0,0-2.13-.74c-.33-.09-.64-.16-1-.23l-.62-.13c-3-.54-5,0-2.52,3.18,2.89,3.7-1.68,11.54-7.44,15.16s-19,5.15-34.24,2-20.16,1.61-40.49,11.29c-5.7,2.72-18.08,10.82-44,9.56-16.17-.79-30.32-.11-35.06,2.59-15.08,0-42.21,2.58-65.31,1.07C80.69,242,76.73,228.66,60.63,228.42c-14-.21-34.32,6.47-45.65,4.25a46.45,46.45,0,0,0,15.26.84c21.14-1.84,56.94,13.77,83.61,12.09s49.36-.48,63,4.33,20.1,3.36,38.5,0,31.6,8.65,60.92-4.09,46.53-14.69,60.55-12.31C349.78,235.73,353.21,224.87,353,219.62Z"/><path class="cls-34" d="M322.25,253c.25,4.22-1,11.33-1.76,16.86-1.26,9.37.64,20.06,9.37,19.28,12.43-1.1,9.13-21.92,7.21-31.53-.89-4.46-1.42-6.94-1.39-8.4C334.3,261.48,323.37,265.06,322.25,253Z"/><path class="cls-35" d="M35.52,247.28c-6,8-16.16,14.25-26.8-3.25,3,5.84,5.78,15.12,11.73,20.25,7.92,6.85,14.47-1.2,20.84-18.44,1.13-3.05,6.15,8.76,23.58,8.71C51.62,254.31,41.53,239.19,35.52,247.28Z"/><path class="cls-36" d="M325.93,160c2.36,13-5.63,16.31-17.34,14.15s-18.74-1.62-25.4,8.56-30.82,19.73-38.75,7.85a12.25,12.25,0,0,0-5.3-4.79c5.13-.55,10-.25,18.2.81,14,1.81,32.69-19.22,28.37-16.64s-11.14,14.52-54.06,12.77-32.92-7.41-39.83-1,22.53,9.55,35,6.49l1.35-.33c-3.23,2-6.43,4.57-9.46,6.49-8.29,5.27-24.14,15.82-32.07,4.35,4.61,7.41,16.21,11.61,31,.06,21.45-16.76,20-12.76,31-1.15s27.21,8,34.42-8.76,16.94-14.78,29-11.18c10.43,3.12,14.85,8.69,16.2,3.13A39,39,0,0,0,325.93,160Z"/><path class="cls-37" d="M277.78,151.62c21.05-8.42,24.69,6,20.9,10.93s18.44-5.71,15.32-10.93-24.87-9.87-34.6-4.2S268.41,155.36,277.78,151.62Z"/><path class="cls-38" d="M300.49,154.33c-1.94,8.19-2.35,8.31-4.87,11.47s14.07-3.9,16.23-9S301.44,150.3,300.49,154.33Z"/><path class="cls-38" d="M273.54,175.26c-9,3.63-17,5.43-11.26,7.36s10.72-1.2,18.07-6.26,8.78-8.34,7.07-7.37S278.33,173.33,273.54,175.26Z"/><path class="cls-39" d="M96.09,155.37c10.5,7,18.24,10,21.13,9.43s-3-10.24-9.93-11.7S88.93,150.61,96.09,155.37Z"/><path class="cls-13" d="M283.91,69.75c8.52,16.59,16.81,27.38,15.22,10.86s-6.45-18.81-14.38-21S282.21,66.45,283.91,69.75Z"/><path class="cls-13" d="M328.22,86.67c2,13.92,6.2,24.12,3.32,31.15s8.65-2.69,7-19.51S325.62,68.24,328.22,86.67Z"/><path class="cls-13" d="M359.55,130c-4,9.8-5.9,12.19-12.15,17.38s11.39.14,15.86-4,2.6-20.89-1.44-23.52S362.76,122.22,359.55,130Z"/><path class="cls-40" d="M292.84,63.35c-2.12-1.93-.56,8.73,1.17,11.93s4.68,5.27,4.3,1.41S298,68,292.84,63.35Z"/><path class="cls-40" d="M328.64,81.38c-1.19,5.92,11,19.84,9.4,13.55S330.66,71.3,328.64,81.38Z"/><path class="cls-40" d="M360.52,126.62c-2.66,7.09-4.11,10.29-5.07,13s5.16-1.4,6.25-8.3S362.57,121.15,360.52,126.62Z"/><path class="cls-15" d="M71.05,224.7c14.58,12.54,45.08,8.81,55.3,6.25,8.54-2.15,8.94-12.47,4.9-7.57s-13.54,10.46-28.63,2.5S80.55,216.93,83,222,65.05,219.53,71.05,224.7Z"/></g></g></g></svg>