<svg xmlns="http://www.w3.org/2000/svg" xmlns:xlink="http://www.w3.org/1999/xlink" viewBox="0 0 126.84 141.83"><defs><style>.cls-1{isolation:isolate;}.cls-2{fill:#ff9fff;}.cls-3{fill:url(#Gradient_96);}.cls-4{fill:url(#Gradient_75);}.cls-5{fill:url(#Gradient_85);}.cls-6{fill:url(#Gradient_86);}.cls-7{fill:#b30090;}.cls-11,.cls-17,.cls-32,.cls-35,.cls-44,.cls-7{opacity:0.5;}.cls-10,.cls-11,.cls-15,.cls-26,.cls-29,.cls-31,.cls-32,.cls-34,.cls-35,.cls-36,.cls-40,.cls-41,.cls-44,.cls-7,.cls-8,.cls-9{mix-blend-mode:multiply;}.cls-8{fill:#cd1f90;opacity:0.2;}.cls-9{fill:url(#Gradient_78);}.cls-10,.cls-11{fill:#b90090;}.cls-10,.cls-36{opacity:0.3;}.cls-12{fill:url(#Gradient_83);}.cls-13{fill:url(#Gradient_86-2);}.cls-14{fill:url(#Gradient_84);}.cls-15{fill:url(#Gradient_88);}.cls-16{opacity:0.8;fill:url(#Gradient_77);}.cls-16,.cls-19,.cls-24{mix-blend-mode:screen;}.cls-17{fill:#ffd4c4;}.cls-17,.cls-21,.cls-22,.cls-37,.cls-38,.cls-42{mix-blend-mode:soft-light;}.cls-18{fill:#ffc390;}.cls-19{opacity:0.76;fill:url(#Gradient_7);}.cls-20,.cls-42{fill:#ffdcd8;}.cls-21,.cls-22{fill:#ffa9d8;}.cls-22{opacity:0.74;}.cls-23{fill:#ff1f6a;mix-blend-mode:color-dodge;}.cls-24{fill:#ff3157;}.cls-25{fill:url(#Gradient_75-2);}.cls-26{fill:url(#Gradient_78-2);}.cls-27,.cls-38{fill:#ffffd8;}.cls-28{fill:url(#Gradient_75-3);}.cls-29{fill:url(#Gradient_78-3);}.cls-30{fill:url(#Gradient_93);}.cls-31{fill:url(#Gradient_91);}.cls-32{fill:url(#Gradient_91-2);}.cls-33{fill:url(#Gradient_89);}.cls-34{opacity:0.17;fill:url(#Gradient_91-3);}.cls-35{fill:url(#Gradient_90);}.cls-36{fill:url(#Gradient_91-4);}.cls-37{fill:#ffc7b0;}.cls-39{fill:url(#Gradient_75-4);}.cls-40{fill:url(#Gradient_78-4);}.cls-41{fill:#b02a92;opacity:0.86;}.cls-43{fill:url(#Gradient_72);}.cls-44{fill:#cf4510;}.cls-45{fill:#ffe250;}.cls-46{fill:url(#Gradient_72-2);}</style><linearGradient id="Gradient_96" x1="-78.47" y1="47.32" x2="-78.47" y2="-36.62" gradientTransform="matrix(0.98, 0.21, -0.21, 0.98, 133.27, 102.48)" gradientUnits="userSpaceOnUse"><stop offset="0" stop-color="#ffe83f"/><stop offset="0.28" stop-color="#ffa23c"/><stop offset="1" stop-color="#ff6f3b"/></linearGradient><linearGradient id="Gradient_75" x1="-74.28" y1="24.42" x2="-74.28" y2="-48.23" gradientTransform="matrix(0.98, 0.21, -0.21, 0.98, 133.27, 102.48)" gradientUnits="userSpaceOnUse"><stop offset="0.07" stop-color="#e90022"/><stop offset="1" stop-color="#a7001d"/></linearGradient><radialGradient id="Gradient_85" cx="-65.53" cy="-37.11" r="19.99" gradientTransform="matrix(0.96, 0.2, -0.21, 0.98, 124.67, 100.64)" gradientUnits="userSpaceOnUse"><stop offset="0.63" stop-color="#b3003d"/><stop offset="1" stop-color="#84003d"/></radialGradient><radialGradient id="Gradient_86" cx="-13.9" cy="-30.68" r="19.95" gradientTransform="matrix(0.96, 0.2, -0.21, 0.98, 124.67, 100.64)" gradientUnits="userSpaceOnUse"><stop offset="0.71" stop-color="#c30020"/><stop offset="0.93" stop-color="#a90036"/><stop offset="1" stop-color="#bd0077"/></radialGradient><linearGradient id="Gradient_78" x1="-89.58" y1="13.32" x2="-89.58" y2="-30.6" gradientTransform="matrix(0.98, 0.21, -0.21, 0.98, 133.27, 102.48)" gradientUnits="userSpaceOnUse"><stop offset="0" stop-color="#ffdbea"/><stop offset="0.1" stop-color="#fbcfe2"/><stop offset="0.27" stop-color="#f2b0ce"/><stop offset="0.51" stop-color="#e27ead"/><stop offset="0.79" stop-color="#cd3980"/><stop offset="1" stop-color="#bb005a"/></linearGradient><radialGradient id="Gradient_83" cx="-53.55" cy="-24.08" r="18.8" gradientTransform="matrix(0.96, 0.2, -0.21, 0.98, 124.67, 100.64)" gradientUnits="userSpaceOnUse"><stop offset="0.63" stop-color="#a90020"/><stop offset="1" stop-color="#84003d"/></radialGradient><radialGradient id="Gradient_86-2" cx="-74.63" cy="-5.85" r="22.64" xlink:href="#Gradient_86"/><radialGradient id="Gradient_84" cx="-20.48" cy="0.74" r="19.12" gradientTransform="matrix(0.96, 0.2, -0.21, 0.98, 124.67, 100.64)" gradientUnits="userSpaceOnUse"><stop offset="0.71" stop-color="#eb003b"/><stop offset="1" stop-color="#bb003d"/></radialGradient><linearGradient id="Gradient_88" x1="-66.45" y1="34.47" x2="-66.45" y2="-31.16" gradientTransform="matrix(0.98, 0.21, -0.21, 0.98, 133.27, 102.48)" gradientUnits="userSpaceOnUse"><stop offset="0" stop-color="#fff"/><stop offset="0.1" stop-color="#ffcddc"/><stop offset="0.21" stop-color="#ffa1bd"/><stop offset="0.32" stop-color="#ff7ba3"/><stop offset="0.44" stop-color="#ff5d8e"/><stop offset="0.56" stop-color="#ff457d"/><stop offset="0.68" stop-color="#ff3471"/><stop offset="0.82" stop-color="#ff2a6a"/><stop offset="1" stop-color="#ff2768"/></linearGradient><linearGradient id="Gradient_77" x1="-136.62" y1="-33.86" x2="-12.24" y2="-33.86" gradientTransform="matrix(0.98, 0.21, -0.21, 0.98, 133.27, 102.48)" gradientUnits="userSpaceOnUse"><stop offset="0"/><stop offset="0.43" stop-color="#54354f"/><stop offset="1" stop-color="#ca7ebd"/></linearGradient><linearGradient id="Gradient_7" x1="-93.97" y1="17.27" x2="-93.97" y2="-26.94" gradientTransform="matrix(0.98, 0.21, -0.21, 0.98, 133.27, 102.48)" gradientUnits="userSpaceOnUse"><stop offset="0"/><stop offset="0.46" stop-color="#3b2354"/><stop offset="1" stop-color="#844fbd"/></linearGradient><linearGradient id="Gradient_75-2" x1="-37.68" y1="-35.05" x2="-37.68" y2="-57.8" xlink:href="#Gradient_75"/><linearGradient id="Gradient_78-2" x1="-37.53" y1="-41.22" x2="-37.53" y2="-56.79" xlink:href="#Gradient_78"/><linearGradient id="Gradient_75-3" x1="-100.71" y1="-38.52" x2="-100.71" y2="-61.28" xlink:href="#Gradient_75"/><linearGradient id="Gradient_78-3" x1="-100.55" y1="-44.7" x2="-100.55" y2="-60.26" xlink:href="#Gradient_78"/><linearGradient id="Gradient_93" x1="-96.99" y1="-30.57" x2="-43.01" y2="-66.99" gradientTransform="matrix(0.98, 0.21, -0.21, 0.98, 133.27, 102.48)" gradientUnits="userSpaceOnUse"><stop offset="0" stop-color="#ff9a89"/><stop offset="1" stop-color="#ffd1ba"/></linearGradient><linearGradient id="Gradient_91" x1="-67.05" y1="-28.82" x2="-67.05" y2="-49.49" gradientTransform="matrix(0.98, 0.21, -0.21, 0.98, 133.27, 102.48)" gradientUnits="userSpaceOnUse"><stop offset="0" stop-color="#d9005a"/><stop offset="0.21" stop-color="#e33980"/><stop offset="0.49" stop-color="#ef7ead"/><stop offset="0.73" stop-color="#f8b0ce"/><stop offset="0.9" stop-color="#fdcfe2"/><stop offset="1" stop-color="#ffdbea"/></linearGradient><linearGradient id="Gradient_91-2" x1="-73.55" y1="-41.85" x2="-73.55" y2="-73.18" xlink:href="#Gradient_91"/><linearGradient id="Gradient_89" x1="-91.25" y1="-74.86" x2="-55.62" y2="-74.86" gradientTransform="matrix(0.98, 0.21, -0.21, 0.98, 133.27, 102.48)" gradientUnits="userSpaceOnUse"><stop offset="0" stop-color="#ffb390"/><stop offset="1" stop-color="#ffd1ba"/></linearGradient><linearGradient id="Gradient_91-3" x1="-98.26" y1="-63.11" x2="-55.53" y2="-63.11" xlink:href="#Gradient_91"/><linearGradient id="Gradient_90" x1="-69.34" y1="-76.61" x2="-69.34" y2="-88" gradientTransform="matrix(0.98, 0.21, -0.21, 0.98, 133.27, 102.48)" gradientUnits="userSpaceOnUse"><stop offset="0" stop-color="#ffdbea"/><stop offset="0.1" stop-color="#fbcfe2"/><stop offset="0.27" stop-color="#f0b0ce"/><stop offset="0.51" stop-color="#de7ead"/><stop offset="0.79" stop-color="#c53980"/><stop offset="1" stop-color="#b1005a"/></linearGradient><linearGradient id="Gradient_91-4" x1="-61.22" y1="-35.5" x2="-71.64" y2="-53.55" xlink:href="#Gradient_91"/><linearGradient id="Gradient_75-4" x1="-51.07" y1="-56.67" x2="-51.07" y2="-83.69" xlink:href="#Gradient_75"/><linearGradient id="Gradient_78-4" x1="-50.89" y1="-64" x2="-50.89" y2="-82.48" xlink:href="#Gradient_78"/><linearGradient id="Gradient_72" x1="73.54" y1="130.11" x2="73.54" y2="119.07" gradientTransform="matrix(1, -0.04, 0.04, 1, -66.44, -40.85)" gradientUnits="userSpaceOnUse"><stop offset="0" stop-color="#ffac00"/><stop offset="1" stop-color="#cc2500"/></linearGradient><linearGradient id="Gradient_72-2" x1="-216.5" y1="95.79" x2="-216.5" y2="90.96" gradientTransform="translate(250.37 98.6) rotate(24.56)" xlink:href="#Gradient_72"/></defs><g class="cls-1"><g id="Layer_2" data-name="Layer 2"><g id="objects"><path class="cls-2" d="M5.71,117.21c-6.08-9.37-7-67.31-4.22-77.06s32-2.91,32-2.91-3.31-8.83,3-14.1,12.44.09,12.44.09,3.52-6.48,10.17-8.81A15.05,15.05,0,0,1,64.8,2.63C70.84-1.91,79.7.8,79.7.8L45.75,131.67S8.06,120.82,5.71,117.21Z"/><path class="cls-3" d="M111.45,115.22a121.26,121.26,0,0,1-6.33,17.4c-2.06,4.39-4.41,8.11-6.65,9-6,2.38-87.13-15.79-91.48-26-3.85-9-5.44-50-3.17-68.22v0c.7-5.62,1.76-9.08,3.24-8.77,3,.64,21.15,7.09,22.61,10.92S28.3,88.75,32.59,91,111.72,114,111.45,115.22Z"/><path class="cls-4" d="M125.4,81.51c-3.34,13.43-12.09,39.13-15.34,40.36-4.23,1.6-64.78-15.61-80.72-25.52-5.65-3.5.15-45.85-.84-48.27S7.07,38.62,7.07,38.62c1.44-1.45,22.2-1.72,41.25-.65,12,.67,23.36,1.87,28.77,3.63,2,.66,4.06,1.4,6,2.18A126.24,126.24,0,0,1,104.2,54.69c12.93,8.24,21.72,16.82,22.46,19C126.93,74.55,126.41,77.47,125.4,81.51Z"/><path class="cls-5" d="M65.34,71.05C45.17,71,33.5,49,48.32,38c12,.67,23.36,1.87,28.77,3.63,2,.66,4.06,1.4,6,2.18C87.35,55.21,81.2,71.09,65.34,71.05Z"/><path class="cls-6" d="M125.4,81.51c-5.75,3.51-13,4.41-20.13-.85-12.87-9.54-9.66-20.59-1.07-26,12.93,8.24,21.72,16.82,22.46,19C126.93,74.55,126.41,77.47,125.4,81.51Z"/><path class="cls-7" d="M8.72,38.09s18.79,1.56,21.73,1.57S57.65,48.81,83.09,46c1.23-.14-2.61-3.83-12.63-5.83S41.38,36.44,8.72,38.09Z"/><path class="cls-8" d="M29.33,96.36C27,94.81,53.79,90.1,64,92.2c27.74,5.73,46.07,25.15,44.83,28S46.39,107.76,29.33,96.36Z"/><path class="cls-9" d="M28.44,93.8c.89,2.56,32.29-2.32,36.35-3s8.67-25.41,7.85-27-40.76-14.28-43-14.3S25.51,87.62,28.44,93.8Z"/><path class="cls-10" d="M105.13,132.59v0c-2.06,4.39-4.41,8.11-6.65,9-6,2.38-87.13-15.79-91.48-26-3.85-9-5.44-50-3.17-68.22-.1,7.91.54,53.69,10.76,66.22C27.85,129.92,85.37,141.11,93,140.58S105.13,132.59,105.13,132.59Z"/><path class="cls-11" d="M8.21,117.23c.27-2.85,17.21,6.82,37.79,13.23s41.83,10.47,41.83,10.47S29.84,131.36,8.21,117.23Z"/><path class="cls-12" d="M66.89,54.51c-21.48,6.75-11.7,30.34,7.23,30.39C96.68,85,95.23,45.61,66.89,54.51Z"/><path class="cls-13" d="M39.49,94.44c-11.49-7.39-15.13-25,4.31-28.5s27,18.46,18,26.33S43.69,97.15,39.49,94.44Z"/><path class="cls-14" d="M79,106c-9.82-15.1,27.45-27.83,35.72-7.06S90.64,123.9,79,106Z"/><path class="cls-15" d="M108.83,122S76.66,115.9,53.4,105.7,28,81.5,27.73,72.52s.87-23.81.87-23.81-5.9,36.71-5,46.55c.63,6.92,2.22,16.38,22.47,23.25,15.65,5.3,38.22,8,47.55,10.4s15.39-6,15.39-6l.34-1Z"/><path class="cls-16" d="M7.07,38.63S54.54,58.06,83.61,66.14c38.49,10.71,40.66,8.29,43.05,7.58s-18.42-18.92-38.53-25c0,0,21.43,10.09,22.84,13.69s-4.9-6.54-38.55-12.93-17.27,3.66-21.89,2.7S7.07,38.63,7.07,38.63Z"/><path class="cls-17" d="M25.77,98c-4.72-1.51-17.94,14.07,1,21.75C37.24,124,49.56,133.68,56.46,122S32.87,100.3,25.77,98Z"/><path class="cls-17" d="M69.09,126.69c-6.82,6.6,20.4,17.26,28.39,11.72s-.61-15-14.78-20.79-1.8,5-7.84,5.58C69.82,123.7,69.09,126.69,69.09,126.69Z"/><path class="cls-17" d="M5.44,68.33C5.6,82.33,7,87.87,9.29,88.19,16,89.09,16.54,79,18.5,69.6c.82-3.88-3.54-2.4-3-8.83s3.57-6.73,4.17-3.45-1.51,4.42-1,6.43,6.09,3.09,7,4.6,2.63-15.41.61-18.65-14.57-8-17.95-8S5.32,57.6,5.44,68.33Z"/><path class="cls-18" d="M35,99.53s9.6,6,16.42,7.2c5.34.94,14.57,4.45,14.57,4.45S40.22,100.86,35,99.53Z"/><path class="cls-19" d="M28.74,92.26c-1.12-2.48-1.43-32.07,5.95-36.81,3-1.93,18,3.66,23.38,5.34S54,88.4,54,88.4s3.21-13.11,3.34-15.93-9,26.79-10.47,28.93S30,95,28.74,92.26Z"/><path class="cls-20" d="M102.43,70.8c-5.58-2.45,14.76-1.15,18,1.59S117.77,77.54,102.43,70.8Z"/><path class="cls-21" d="M23.3,44.71c-2.38-1.64,7.82,2.75,16.8,6.41s20.2,7.63,20.2,7.63A122.92,122.92,0,0,1,23.3,44.71Z"/><path class="cls-22" d="M94.07,91.5c-8.65,3.7-4,12.72,3.79,17.17s14.87-1.59,15.59-6.27S106.53,86.16,94.07,91.5Z"/><path class="cls-22" d="M69.8,64.33c-5.93,0-1.26,13.4,6.4,15.37s11.11-6.5,11-8.73S76.45,64.39,69.8,64.33Z"/><path class="cls-22" d="M105.26,73.32c-3.52.53-1.1,6.41,7.52,8.24s11-3.14,11.17-4.32S113.56,72.08,105.26,73.32Z"/><path class="cls-23" d="M82.83,92.29c-2.27,3.38-14-1-16-1.2s.78-4.25,1.84-5.45,3.47.44,10.72-1.55,9.06-7,10.26-10.18,11.8,2.14,15.62,6.75,11,1.64,11,4.14-2.87,9.85-3.2,10.14.13-7.06-13-7.6S82.83,92.29,82.83,92.29Z"/><path class="cls-23" d="M22.69,42.45c-2.64-1.32,5.69-3.47,11.84-1.88S42.34,42.74,42,46,34.63,48.37,22.69,42.45Z"/><path class="cls-24" d="M86.87,89.46C83.11,88.1,86,79.81,91.11,77s10,4.91,8.52,7.6S86.87,89.46,86.87,89.46Z"/><path class="cls-20" d="M51,55.67c4.34,1.3,6,3.9,11.75,5.22s9.86,2,9.86,2S56.36,56.52,51,55.67Z"/><path class="cls-20" d="M75.59,113.88s4.22,4.55,6.32,4.88,7.54-1,7.54-1Z"/><path class="cls-20" d="M7.66,51.4c-2.12.58-1.78,8.68.12,10.72S11.46,50.37,7.66,51.4Z"/><path class="cls-25" d="M96.4,54.22c-6.57-11.71,5.35-21,16.32-14s2,19.16-4.88,20.23S98.54,58,96.4,54.22Z"/><path class="cls-26" d="M97.25,43.39c-2.18,7.74,10.23,13.81,15.45,11.16S118,41.6,108,39.19,97.25,43.39,97.25,43.39Z"/><path class="cls-27" d="M113.26,43.85c-3.13-1.64-1.06,2.93,0,3.54S117.15,45.88,113.26,43.85Z"/><path class="cls-23" d="M96.72,52.71c.47-5.93,10.22-1.27,13.28.46s-2.6,6.85-7.24,5.32A9.94,9.94,0,0,1,96.72,52.71Z"/><path class="cls-28" d="M35.44,37.9c-6.58-11.71,5.35-21,16.32-14.06s2,19.17-4.89,20.24S37.58,41.71,35.44,37.9Z"/><path class="cls-29" d="M36.28,27.06C34.1,34.8,46.51,40.88,51.74,38.23s5.28-13-4.67-15.37S36.28,27.06,36.28,27.06Z"/><path class="cls-27" d="M52.29,27.52c-3.13-1.63-1.06,2.94,0,3.54S56.18,29.56,52.29,27.52Z"/><path class="cls-23" d="M35.75,36.38c.48-5.93,10.22-1.27,13.28.46s-2.6,6.86-7.23,5.32A9.91,9.91,0,0,1,35.75,36.38Z"/><path class="cls-30" d="M45.45,35.46c-14.52-.8-3.8,16.38,31.92,23.86C120.71,68.4,110.29,46,110.29,46s-.79-1.66-2.06-9.28c-.43-2.56-5.5-12.56-7.07-14.8-1.27-1.8-5.85-.77-7.64-2.13C77.75,7.75,48.06,8.8,45.45,35.46Z"/><path class="cls-31" d="M41.07,42.66s9,10,37.75,14,31.92-9.47,31.92-9.47,7.54,17.1-24.24,15C52.28,60,41.07,42.66,41.07,42.66Z"/><path class="cls-32" d="M45.45,35.46s3,11.42,27.82,8.92,29.1-20.17,27.89-22.47-6.76-1.48-6.76-1.48,9.69,15.85-10.4,20S45.45,35.46,45.45,35.46Z"/><path class="cls-33" d="M90.51,23.2C81.63,30.67,52,25.27,57.86,19.77,61.68-2,80.26.15,81,1.27a.88.88,0,0,1,.17.5c.08,1.45-2.74,3.37,2.75,6.74,1.54,1,3.29,1.88,4.9,2.85C93.61,14.27,97.15,17.6,90.51,23.2Z"/><path class="cls-34" d="M93.52,19.78s-1.08,5.66-14.21,6.33S58.74,19.64,59,15.2c0,0-6.89,8.13-10.34,13s19.85,2.11,31.31-.9S92.7,23.5,93.3,22.07A3.08,3.08,0,0,0,93.52,19.78Z"/><path class="cls-35" d="M88.84,11.36a12.94,12.94,0,0,0-4.59-.42C77,11.74,71.36,14.48,76,7.26s4.79-5.53,4.79-5.53l.37,0c.08,1.45-2.74,3.37,2.75,6.74C85.48,9.46,87.23,10.39,88.84,11.36Z"/><path class="cls-36" d="M43.76,45.35S59.8,51,86,49.2c22.39-1.52,21.56-14.77,21-16s2.39,5.34,2.3,9.07S94.17,58,43.76,45.35Z"/><path class="cls-37" d="M56.7,48.26s3.38,6.1,25.35,8.28,24.07-7.21,23.9-7.62S82,54.64,56.7,48.26Z"/><path class="cls-37" d="M49.22,37c-.82-2,20.48-6.2,33.62-9.6S96,30.74,96,30.74,92.86,49.64,49.22,37Z"/><path class="cls-37" d="M59,46.92s14.51.6,27-5.4,16.76-9.92,16.76-9.92S104.88,38,90,44,59,46.92,59,46.92Z"/><path class="cls-37" d="M64.88,21.08C61.38,13.45,76,11,87.19,13.79S83.52,32.49,64.88,21.08Z"/><path class="cls-27" d="M82.56,20.88c-3.11,3.55.75,2.3,4.1.86S84,19.24,82.56,20.88Z"/><path class="cls-27" d="M72.86,41.32c-5.14-1.63,5.15-5.1,9.19-3S78.25,43,72.86,41.32Z"/><path class="cls-38" d="M47.06,38.23s-4.91,1.84,2.22,5,17.21,1.39,17.21,1.39S52.4,44.35,47.06,38.23Z"/><path class="cls-27" d="M84.59,53.2c-7,1,3.63,6.49,12.4,3S93.92,51.9,84.59,53.2Z"/><path class="cls-39" d="M86.4,29.15c-7.81-13.9,6.34-25,19.37-16.69s2.38,22.75-5.8,24S88.94,33.67,86.4,29.15Z"/><path class="cls-40" d="M87.4,16.28c-2.59,9.19,12.14,16.41,18.34,13.26S112,14.16,100.2,11.3,87.4,16.28,87.4,16.28Z"/><path class="cls-27" d="M106.39,16.4c-4.49-2.34-1.52,4.22,0,5.08S112,19.32,106.39,16.4Z"/><path class="cls-23" d="M86.77,27.35c.56-7,12.13-1.51,15.77.54s-3.09,8.14-8.6,6.32A11.76,11.76,0,0,1,86.77,27.35Z"/><path class="cls-41" d="M84.73,25.23S87.5,31.47,93.34,34a13.55,13.55,0,0,0,10.34.48s-.52,4.45-11.76,5.73c-7.11.82-6.11.68-5.12-2.11S83.61,29.87,84.73,25.23Z"/><path class="cls-42" d="M63.72,57.81A96.7,96.7,0,0,0,80.52,63c8,1.51,18.49-1.11,18.49-1.11S79.17,63.37,63.72,57.81Z"/><path class="cls-20" d="M82.66,61.91s8.22,2,11.41,2.23a3.82,3.82,0,0,0,4.09-2.06A110.57,110.57,0,0,1,82.66,61.91Z"/><path class="cls-2" d="M45.45,35.46s1.31-8.35,5.36-14.18,8.26-6.86,8.26-6.86S47.27,15.21,45.45,35.46Z"/><path class="cls-2" d="M84.35,19.21s2-12.9,20-7.55C104.39,11.66,86.55,2.48,84.35,19.21Z"/><path class="cls-43" d="M9.93,75.25c-4.51,1.8-4.88,12,4.05,10.64C22.75,84.52,14.72,73.35,9.93,75.25Z"/><path class="cls-44" d="M9.93,75.25c-3,1-2.68,7.28,1.57,7.52s5.61-3.72,4.65-4.76S11.65,74.71,9.93,75.25Z"/><path class="cls-45" d="M7.59,83C7.3,82,12.24,85.4,14.76,84.8c4.59-1.08,1.61-5.1,2.1-5s2.37,4.43-1.59,5.77S8.1,84.64,7.59,83Z"/><path class="cls-46" d="M14.69,91c-2.11-.26-4.17,3.68-.4,5S16.93,91.25,14.69,91Z"/><path class="cls-44" d="M14.69,91c-1.36-.27-2.42,2.28-.79,3.29s2.9-.27,2.72-.88S15.47,91.13,14.69,91Z"/><path class="cls-45" d="M12.32,93.51c.07-.43,1.38,1.95,2.48,2.25,2,.56,1.58-1.66,1.76-1.51s.1,2.24-1.71,1.92A2.86,2.86,0,0,1,12.32,93.51Z"/></g></g></g></svg>