<svg xmlns="http://www.w3.org/2000/svg" xmlns:xlink="http://www.w3.org/1999/xlink" viewBox="0 0 117.05 136.71"><defs><style>.cls-1{isolation:isolate;}.cls-2{fill:#ff9fff;}.cls-3{fill:url(#Gradient_18);}.cls-4{fill:url(#Gradient_41);}.cls-5{fill:url(#Gradient_38);}.cls-6{fill:url(#Gradient_33);}.cls-7{fill:url(#Gradient_31);}.cls-8{fill:#a2237c;}.cls-18,.cls-33,.cls-34,.cls-43,.cls-45,.cls-46,.cls-8{opacity:0.3;}.cls-18,.cls-19,.cls-28,.cls-29,.cls-30,.cls-32,.cls-34,.cls-36,.cls-37,.cls-39,.cls-42,.cls-45,.cls-57,.cls-58,.cls-61,.cls-65,.cls-8,.cls-9{mix-blend-mode:multiply;}.cls-9{fill:#5f0081;}.cls-28,.cls-29,.cls-30,.cls-39,.cls-49,.cls-51,.cls-52,.cls-53,.cls-61,.cls-65,.cls-9{opacity:0.5;}.cls-10{fill:url(#Gradient_21);}.cls-11{fill:url(#Gradient_44);}.cls-12{fill:url(#Gradient_44-2);}.cls-13{fill:url(#Gradient_44-3);}.cls-14{fill:url(#Gradient_44-4);}.cls-15{fill:url(#Gradient_36);}.cls-16{fill:url(#Gradient_36-2);}.cls-17{fill:url(#Gradient_44-5);}.cls-18,.cls-30{fill:#bf2a92;}.cls-19,.cls-38{opacity:0.75;}.cls-20{fill:url(#Gradient_105);}.cls-21{fill:url(#Gradient_105-2);}.cls-22{fill:url(#Gradient_105-3);}.cls-23{fill:url(#Gradient_105-4);}.cls-24{fill:url(#Gradient_105-5);}.cls-25{fill:url(#Gradient_105-6);}.cls-26{fill:url(#Gradient_105-7);}.cls-27{fill:url(#Gradient_105-8);}.cls-28,.cls-42,.cls-45,.cls-57{fill:#ac1f90;}.cls-29,.cls-32{fill:#a92a7c;}.cls-31{fill:#ff988e;opacity:0.97;}.cls-31,.cls-33,.cls-38,.cls-41,.cls-43,.cls-46,.cls-47,.cls-49,.cls-50{mix-blend-mode:soft-light;}.cls-32{opacity:0.2;}.cls-33{fill:#ffffb1;}.cls-34{fill:#bf0092;}.cls-35{fill:url(#Gradient_45);}.cls-36,.cls-37{opacity:0.92;}.cls-36{fill:url(#Gradient_46);}.cls-37{fill:url(#Gradient_47);}.cls-38{fill:#ffb8dd;}.cls-39{fill:#a62a84;}.cls-40,.cls-41{fill:#ffe5e0;}.cls-42{opacity:0.8;}.cls-43,.cls-50{fill:#ffcfb1;}.cls-44{fill:#a44f4f;}.cls-46{fill:#c48b8e;}.cls-47,.cls-48,.cls-49{fill:#fff;}.cls-50{opacity:0.58;}.cls-51,.cls-52,.cls-53{mix-blend-mode:screen;}.cls-51{fill:url(#Gradient_7);}.cls-52{fill:url(#Gradient_7-2);}.cls-53{fill:url(#Gradient_7-3);}.cls-54{fill:url(#Gradient_54);}.cls-55{fill:url(#Gradient_54-2);}.cls-56{fill:url(#Gradient_56);}.cls-57,.cls-58{opacity:0.32;}.cls-58{fill:#fb3d90;}.cls-59{fill:#fb9fd1;}.cls-60{fill:url(#Gradient_73);}.cls-61{fill:#c95459;}.cls-62{fill:#ff6da0;}.cls-63{fill:url(#Gradient_21-2);}.cls-64{fill:url(#Gradient_87);}.cls-65{fill:#c0673b;}.cls-66{fill:#a94f37;}</style><radialGradient id="Gradient_18" cx="15.83" cy="2312.14" r="115.89" gradientTransform="matrix(0.99, 0.15, -0.11, 0.7, 339.61, -1536.26)" gradientUnits="userSpaceOnUse"><stop offset="0" stop-color="#ef953b"/><stop offset="0.71" stop-color="#da6d46"/><stop offset="0.82" stop-color="#d66648"/><stop offset="0.85" stop-color="#d8654d"/><stop offset="0.89" stop-color="#dd605d"/><stop offset="0.93" stop-color="#e65977"/><stop offset="0.98" stop-color="#f24f9a"/><stop offset="1" stop-color="#f94aae"/></radialGradient><radialGradient id="Gradient_41" cx="-31.33" cy="2422.26" r="63.67" gradientTransform="matrix(0.99, 0.17, -0.13, 0.76, 405.99, -1720.52)" gradientUnits="userSpaceOnUse"><stop offset="0" stop-color="#d9753b"/><stop offset="0.77" stop-color="#cd4d47"/><stop offset="0.82" stop-color="#cc4a48"/><stop offset="0.85" stop-color="#ce4a4d"/><stop offset="0.89" stop-color="#d54a5d"/><stop offset="0.93" stop-color="#e14a77"/><stop offset="0.98" stop-color="#f04a9a"/><stop offset="1" stop-color="#f94aae"/></radialGradient><linearGradient id="Gradient_38" x1="-98.05" y1="114.08" x2="10.84" y2="114.08" gradientTransform="translate(116.94 -14.23) rotate(9.6)" gradientUnits="userSpaceOnUse"><stop offset="0" stop-color="#ff8181"/><stop offset="1" stop-color="#ffd1c9"/></linearGradient><linearGradient id="Gradient_33" x1="-98.92" y1="88.28" x2="12.59" y2="88.28" gradientTransform="translate(116.94 -14.23) rotate(9.6)" gradientUnits="userSpaceOnUse"><stop offset="0.03" stop-color="#75054d"/><stop offset="0.13" stop-color="#4f0c1f"/><stop offset="0.4" stop-color="#561020"/><stop offset="0.78" stop-color="#691a22"/><stop offset="1" stop-color="#772224"/></linearGradient><linearGradient id="Gradient_31" x1="-97.8" y1="71.64" x2="12.11" y2="71.64" gradientTransform="translate(116.94 -14.23) rotate(9.6)" gradientUnits="userSpaceOnUse"><stop offset="0" stop-color="#7c3242"/><stop offset="0.37" stop-color="#82333b"/><stop offset="0.91" stop-color="#943528"/><stop offset="1" stop-color="#983624"/></linearGradient><linearGradient id="Gradient_21" x1="-45.62" y1="82.98" x2="-45.62" y2="51.15" gradientTransform="translate(116.94 -14.23) rotate(9.6)" gradientUnits="userSpaceOnUse"><stop offset="0" stop-color="#4f0c1f"/><stop offset="0.31" stop-color="#561020"/><stop offset="0.75" stop-color="#691a22"/><stop offset="1" stop-color="#772224"/></linearGradient><linearGradient id="Gradient_44" x1="-19.15" y1="135.28" x2="-19.15" y2="117.3" gradientTransform="translate(116.94 -14.23) rotate(9.6)" gradientUnits="userSpaceOnUse"><stop offset="0" stop-color="#ff3d57"/><stop offset="1" stop-color="#e0001d"/></linearGradient><linearGradient id="Gradient_44-2" x1="-24.59" y1="119.1" x2="-24.59" y2="115.5" xlink:href="#Gradient_44"/><linearGradient id="Gradient_44-3" x1="-8.52" y1="111.16" x2="-8.52" y2="98.9" xlink:href="#Gradient_44"/><linearGradient id="Gradient_44-4" x1="-61.83" y1="139.56" x2="-61.83" y2="117.73" xlink:href="#Gradient_44"/><linearGradient id="Gradient_36" x1="-64.68" y1="119.83" x2="-64.68" y2="103.89" gradientTransform="translate(116.94 -14.23) rotate(9.6)" gradientUnits="userSpaceOnUse"><stop offset="0" stop-color="#ce0157"/><stop offset="1" stop-color="#9a001d"/></linearGradient><linearGradient id="Gradient_36-2" x1="-83.22" y1="121.37" x2="-83.22" y2="113.53" xlink:href="#Gradient_36"/><linearGradient id="Gradient_44-5" x1="3.29" y1="127.11" x2="3.29" y2="119.44" xlink:href="#Gradient_44"/><linearGradient id="Gradient_105" x1="-107.57" y1="170.01" x2="-108.86" y2="160.87" gradientTransform="translate(188.42 0.18) rotate(17.65)" gradientUnits="userSpaceOnUse"><stop offset="0" stop-color="#ffdbea"/><stop offset="0.1" stop-color="#f9cfe2"/><stop offset="0.27" stop-color="#e8b0ce"/><stop offset="0.51" stop-color="#ce7eac"/><stop offset="0.79" stop-color="#a9397f"/><stop offset="1" stop-color="#8b0059"/></linearGradient><linearGradient id="Gradient_105-2" x1="-67.61" y1="155.04" x2="-68.53" y2="148.54" xlink:href="#Gradient_105"/><linearGradient id="Gradient_105-3" x1="-74.66" y1="161.78" x2="-75.91" y2="152.93" xlink:href="#Gradient_105"/><linearGradient id="Gradient_105-4" x1="-459.9" y1="159.69" x2="-461.97" y2="153.14" gradientTransform="matrix(0.43, 0.14, -0.3, 0.95, 256.52, 22.15)" xlink:href="#Gradient_105"/><linearGradient id="Gradient_105-5" x1="-401.02" y1="151.09" x2="-403.73" y2="142.65" gradientTransform="matrix(0.42, 0.13, -0.3, 0.95, 302.62, 36.3)" xlink:href="#Gradient_105"/><linearGradient id="Gradient_105-6" x1="-65.39" y1="142.22" x2="-65.39" y2="137.43" gradientTransform="translate(116.94 -14.23) rotate(9.6)" xlink:href="#Gradient_105"/><linearGradient id="Gradient_105-7" x1="-66.68" y1="144.33" x2="-66.68" y2="142.86" gradientTransform="translate(116.94 -14.23) rotate(9.6)" xlink:href="#Gradient_105"/><linearGradient id="Gradient_105-8" x1="-90.49" y1="137.98" x2="-90.49" y2="128" gradientTransform="translate(116.94 -14.23) rotate(9.6)" xlink:href="#Gradient_105"/><linearGradient id="Gradient_45" x1="-3.31" y1="114.06" x2="-3.31" y2="109.64" gradientTransform="translate(116.94 -14.23) rotate(9.6)" gradientUnits="userSpaceOnUse"><stop offset="0" stop-color="#ff747f"/><stop offset="1" stop-color="#ff471d"/></linearGradient><linearGradient id="Gradient_46" x1="-32.89" y1="123.99" x2="-4.15" y2="123.99" gradientTransform="translate(116.94 -14.23) rotate(9.6)" gradientUnits="userSpaceOnUse"><stop offset="0" stop-color="#c90079"/><stop offset="0.01" stop-color="#ca057b"/><stop offset="0.3" stop-color="#dd5caa"/><stop offset="0.55" stop-color="#eba2ce"/><stop offset="0.76" stop-color="#f6d4e9"/><stop offset="0.91" stop-color="#fdf3f9"/><stop offset="1" stop-color="#fff"/></linearGradient><linearGradient id="Gradient_47" x1="-73.62" y1="128.62" x2="-52.02" y2="128.62" gradientTransform="translate(116.94 -14.23) rotate(9.6)" gradientUnits="userSpaceOnUse"><stop offset="0" stop-color="#fff"/><stop offset="0.09" stop-color="#fdf3f9"/><stop offset="0.24" stop-color="#f6d4e9"/><stop offset="0.45" stop-color="#eba2ce"/><stop offset="0.7" stop-color="#dd5caa"/><stop offset="0.99" stop-color="#ca057b"/><stop offset="1" stop-color="#c90079"/></linearGradient><linearGradient id="Gradient_7" x1="-86.79" y1="95.65" x2="-86.79" y2="78.48" gradientTransform="translate(116.94 -14.23) rotate(9.6)" gradientUnits="userSpaceOnUse"><stop offset="0"/><stop offset="0.46" stop-color="#3b2354"/><stop offset="1" stop-color="#844fbd"/></linearGradient><linearGradient id="Gradient_7-2" x1="-72.09" y1="64.57" x2="-72.09" y2="52.79" xlink:href="#Gradient_7"/><linearGradient id="Gradient_7-3" x1="-44.66" y1="73.93" x2="-33.01" y2="73.93" xlink:href="#Gradient_7"/><linearGradient id="Gradient_54" x1="-28.16" y1="63.11" x2="-28.16" y2="30.27" gradientTransform="translate(116.94 -14.23) rotate(9.6)" gradientUnits="userSpaceOnUse"><stop offset="0" stop-color="#d80059"/><stop offset="0.1" stop-color="#e20d6a"/><stop offset="0.28" stop-color="#ef1f80"/><stop offset="0.48" stop-color="#f82c90"/><stop offset="0.7" stop-color="#fd3499"/><stop offset="1" stop-color="#ff369c"/></linearGradient><linearGradient id="Gradient_54-2" x1="-252.84" y1="194.55" x2="-252.84" y2="156.19" gradientTransform="translate(386.68 26.59) rotate(33.87)" xlink:href="#Gradient_54"/><linearGradient id="Gradient_56" x1="-257.47" y1="187.4" x2="-257.47" y2="149.04" gradientTransform="translate(386.68 26.59) rotate(33.87)" gradientUnits="userSpaceOnUse"><stop offset="0" stop-color="#ff77d2"/><stop offset="0.3" stop-color="#ff75cf"/><stop offset="0.52" stop-color="#ff6ec6"/><stop offset="0.71" stop-color="#ff61b6"/><stop offset="0.89" stop-color="#ff51a0"/><stop offset="1" stop-color="#ff438e"/></linearGradient><linearGradient id="Gradient_73" x1="-121.3" y1="149.92" x2="-121.3" y2="144.79" gradientTransform="translate(258.5 -51.59) rotate(22.85)" gradientUnits="userSpaceOnUse"><stop offset="0" stop-color="#ff687d"/><stop offset="0.39" stop-color="#dd137f"/><stop offset="1" stop-color="#9f0081"/></linearGradient><linearGradient id="Gradient_21-2" x1="-38.93" y1="69.44" x2="-38.93" y2="64.27" xlink:href="#Gradient_21"/><linearGradient id="Gradient_87" x1="-97.21" y1="167.64" x2="-100.05" y2="160.9" gradientTransform="translate(258.5 -51.59) rotate(22.85)" gradientUnits="userSpaceOnUse"><stop offset="0" stop-color="#772224"/><stop offset="0.25" stop-color="#691a22"/><stop offset="0.69" stop-color="#561020"/><stop offset="1" stop-color="#4f0c1f"/></linearGradient></defs><g class="cls-1"><g id="Layer_2" data-name="Layer 2"><g id="objects"><path class="cls-2" d="M65.56,3.21A133.07,133.07,0,0,0,57,16.85c-2.55,5,.93,13,.5,13.9s-1.78.74-3.71,0S41.2,23,33,24.1s-6.29,8.39-7,9.71-11-1.3-15.56,1.25S3.57,43.5,2.81,46.57s.51,11.69,0,13S.12,86.29,0,89.09a181.64,181.64,0,0,0,1.13,18.64c.54,2.94,43.29,28.59,45,28.76S71.22,22.62,71.22,22.62Z"/><path class="cls-3" d="M8.24,42.07c1.33-5.31,40.88-10.3,53.07-8.54S116.29,54,116.92,58,97.51,123.26,94.4,126.6,50.33,135.76,43,133.66,4.45,112.4,3,107.39,6.87,47.56,8.24,42.07Z"/><path class="cls-4" d="M101.28,116.22a31,31,0,0,1-1.15,3.85s0,.06,0,.08c-1.38,3.72-3.5,7.54-5.47,9.11-2.3,1.83-16.45,4.58-29.14,6.17a9.49,9.49,0,0,0-6-2.05,5.51,5.51,0,0,0-4.59,3.11,43.67,43.67,0,0,1-8.77,0,8.81,8.81,0,0,1-.94-.2c-8.72-2.18-27.72-15.37-37-23.36-2.94-2.54-4.9-4.56-5.23-5.54A40.44,40.44,0,0,1,1.51,96.17a16.6,16.6,0,0,1,.08-1.79c.14-1.64.5-2.74,1.15-2.75l6.42,1.15c19,3.45,74.75,13.69,88.92,17.83,2,.58,3.17,1,3.31,1.35A7.72,7.72,0,0,1,101.28,116.22Z"/><path class="cls-5" d="M112.89,74.63c-.24,1.37-.58,3.1-1,5.05a231.49,231.49,0,0,1-7,25.58h0c-1.3,3.6-2.53,6.14-3.51,6.67-4,2.14-42.5,11.06-53.73,8.08C39,117.76,4.49,97.64,2.74,91.63a7.18,7.18,0,0,1-.21-1,31.28,31.28,0,0,1-.22-4.15A178.48,178.48,0,0,1,4.48,62.7c.07-.47.15-.92.23-1.37.27-1.58.53-3,.81-4.18h0c.49-2.19,1-3.56,1.36-3.65l2.54.39C25.55,56.29,113,69.49,113.31,71.36A15.92,15.92,0,0,1,112.89,74.63Z"/><path class="cls-6" d="M115.83,67.73h0c-.61,3-1.53,5.82-2.91,6.87l0,0c-3.64,2.68-43,10.52-57.56,7.55-12-2.44-40.93-17.86-48.18-23.44a5.79,5.79,0,0,1-1.63-1.59h0c-.56-1.37-.31-4.35.28-7.39.24-1.28.55-2.58.88-3.77a15.47,15.47,0,0,1,2-4.9L116.93,58A70.9,70.9,0,0,1,115.83,67.73Z"/><path class="cls-7" d="M8.24,42.07c.37,4.52,36.14,21.12,49.35,23.34C79.51,69.08,114.51,60,116.92,58S85.14,37.26,65.55,32.77,7.91,38,8.24,42.07Z"/><path class="cls-8" d="M45.21,136.29C33.72,133.41,4.4,111.45,3,107.39A40.44,40.44,0,0,1,1.51,96.17a1.73,1.73,0,0,1,1.54-.88c2.66,0,38.67,24,42.14,27S45.43,135.57,45.21,136.29Z"/><path class="cls-9" d="M55.33,82.18S25.39,70.35,7.15,58.74a5.79,5.79,0,0,1-1.63-1.59C4.73,55.21,5.55,50,6.68,46a2.17,2.17,0,0,1,1.76-.25c2.66.87,40.2,18.66,46,21.77C57.58,69.22,55.33,82.18,55.33,82.18Z"/><path class="cls-10" d="M13,38.78c1.57-5.48,38.25,21.78,59.65,18.35,3.89-.62-41.19-22.58-42.85-23s-1.67-7,4.09-8.89c2.87-1,10.81.17,29.17,11.27,11,6.68,25.06,8.9,30.65,10.45C104.83,50.07,64.88,32.1,64.88,32.1s-2.17-.49,4.62-1.53c15.79-2.42,37.88,18.37,38.92,20.6s-17.69-1.86-37.36-8S45,35.1,45,35.1A196.74,196.74,0,0,0,74.6,48.63c15.51,5.4,16.6,13.83,11.86,14-23.61.89-16.95-2.83-39.24-7.74C6.68,46,13,38.78,13,38.78Z"/><path class="cls-11" d="M65.3,113.06c-5.25-7,10.11-12.1,19.49-13.29s3.65,8.19.78,13.78S66.13,114.18,65.3,113.06Z"/><path class="cls-12" d="M71.46,96.94c-.34,1.75,1.38,3.47,3.15.53S71.67,95.87,71.46,96.94Z"/><path class="cls-13" d="M82.88,86.84c-.66,1.88,1,5.72,7,7.09s8.73-5.12,10-9.29S83.77,84.33,82.88,86.84Z"/><path class="cls-14" d="M29.43,90.37c-6.05,2.26-2.11,12.89-.2,16.89S38,112.68,41,114.34s-1.1-5.81-2.53-13.07S29.43,90.37,29.43,90.37Z"/><path class="cls-15" d="M30,85.54a66.05,66.05,0,0,1,6.18,6.82c3.85,4.94,5.65-2.25,4.78-6.69S29.66,75.41,28.79,76.42,28.79,83.86,30,85.54Z"/><path class="cls-16" d="M12.09,88.29c-1.88-4.12,1.32-5.1,5.33-4.19s1.07,6,.13,7.42S12.81,89.89,12.09,88.29Z"/><path class="cls-17" d="M97.08,110.59c-1.46-2.61,3-6.27,5-6.18S99.35,114.61,97.08,110.59Z"/><path class="cls-18" d="M48.1,119.13C47.66,120,15.31,105,2.53,90.58c-.78-5.34.62-20,2.18-29.25C7,60.47,51,79.79,52.11,84.1S48.54,118.21,48.1,119.13Z"/><g class="cls-19"><path class="cls-20" d="M29.23,126.17c-4.74-3.16,4.92-6.27,10.28-5.08s2,8.12.31,9.14-4.92-3.66-7.52-4S30.26,126.86,29.23,126.17Z"/><path class="cls-21" d="M75,121.38c-1.17,1.61-.73,2.9.67,5.17s3.57-.6,5.25-2.94S75.93,120.07,75,121.38Z"/><path class="cls-22" d="M62.91,128c-2-4.21,7.87-6.2,9.79-4.16S76,130.42,74,132s-3.12-1.23-5.75-1.6S64,130.18,62.91,128Z"/><path class="cls-23" d="M10.11,110.15c-1.7-5.76,4.72-5.57,4.83-1.24s-4.08,1.48-4.45,1.36Z"/><path class="cls-24" d="M85.64,122.3c-.87-3.31,6.16-6,6.75-1.29s-2.26,6.32-3.09,3.25S86.23,124.57,85.64,122.3Z"/><path class="cls-25" d="M25.8,109.75c-1.7-.43-2.07,2,.49,4.3s7.66.35,7.61.31S28.63,110.46,25.8,109.75Z"/><path class="cls-26" d="M26.75,115.59c-2.69.61,1,1.92,1.69,1.26S28.11,115.28,26.75,115.59Z"/><path class="cls-27" d="M2.83,99.85c-.44,7.53,4.86,9.69,5.52,3.27S3.17,94.13,2.83,99.85Z"/></g><path class="cls-28" d="M65.88,123.72c-3.14,2.8,2.8,6.75,5.28,6.08s2-5.16.61-6S66.36,123.3,65.88,123.72Z"/><path class="cls-28" d="M32.72,121.33c-4.15,2.09,1.53,6.21,4.4,6.29s4.61-3.71,3.5-5.12S35.21,120.07,32.72,121.33Z"/><path class="cls-28" d="M75.35,121.09c-1.47.94-1.14,3,.8,3.83s3.52-1.82,3.41-2.72S76.91,120.1,75.35,121.09Z"/><path class="cls-29" d="M104.9,105.28h0c-1.3,3.6-2.53,6.14-3.51,6.67a7.72,7.72,0,0,1-.11,4.26,20.38,20.38,0,0,0-8.33-.17c-12.27,2-34.45,6.88-44.26,5.38C35.3,119.38,5.87,99.57,1.59,94.38c.14-1.64.5-2.74,1.15-2.75a7.18,7.18,0,0,1-.21-1,31.28,31.28,0,0,1-.22-4.15S5,89,9.16,92.78c8.22,7.41,22.3,19.21,36.54,25.83,15.38,7.14,43.42-4.16,49.6-6.68a24,24,0,0,0,2.78-1.32A25.63,25.63,0,0,0,104.9,105.28Z"/><path class="cls-30" d="M104.91,105.26v0h0Z"/><path class="cls-29" d="M115.83,67.74c-.61,3-1.53,5.82-2.91,6.87l0,0c-.24,1.37-.15,1.14-.58,3.1-4.2,5.59-51.46,7-57.79,5.43-6.15-1.49-40.72-12.69-50-20.46.07-.47.15-.92.23-1.37.27-1.58.53-3,.81-4.18h0c-.56-1.37-.31-4.35.28-7.39,0,.55,1.36,2,3.62,4.13C18.24,62,41.22,79,56.42,82.06c19.1,3.88,54.89-9.29,56.89-10.7A7.23,7.23,0,0,0,115.83,67.74Z"/><path class="cls-31" d="M44.65,120.75c-.93,0,1.48,3.27,5.06,5.66s13.95-1.81,16.44-3.18S54.1,123.33,44.65,120.75Z"/><path class="cls-31" d="M75.65,126.55c0,1-.43,5.6-1.06,6.22s9.62-.44,13.48-2.25,1.85-6.83-.62-7.08-4-1.09-2.42-3.13-5.5-.79-6.65-1.13,3.85.74,3.05,4.48S76.75,128.68,75.65,126.55Z"/><path class="cls-32" d="M26,123.47c-3.57-.35-12-5.17-14.11-7.52s2.84-.12,4.06-3.73,6.73.74,7.37,2.61-6.84,4,1.54,3.68,12-1.25,6.94,1.26S26,123.47,26,123.47Z"/><path class="cls-32" d="M30.27,128.87c4-1.76,7.74,1.74,8.38,2.54s2-.19,2.52,1.12S38,133.92,30.27,128.87Z"/><path class="cls-33" d="M74.67,85.46c-3.35.7-7.72,10.88-5.21,13.42s-6,5.25-9.63,12.11-7.08,2.91-6.44-8.43-2.28,8.77-2.77,10.93S53,91.72,54.36,87.93s16.69-3.28,19.18-3.31S74.67,85.46,74.67,85.46Z"/><path class="cls-18" d="M17,69.94c-6.8-2.57.3,28.33,13.61,34.35s19.22-7.77,20.38-14S30.92,75.22,17,69.94Z"/><path class="cls-34" d="M69.49,108.08c-5.5-3.75,8.4-7.94,14.71-6.26s1.53,7.16-4.21,7.3A44.9,44.9,0,0,1,69.49,108.08Z"/><path class="cls-29" d="M83.81,89.89c-1.44-2.38,5.48-7.37,10.65-6.89S95,90.23,91,90.82A13.57,13.57,0,0,1,83.81,89.89Z"/><path class="cls-35" d="M93,96.71c.2-2,3.49-3.11,3.68-3.16s.51,2.12-.61,3.62S93,96.71,93,96.71Z"/><path class="cls-34" d="M33,94.16c-4-2.12-4.83,4.74-2.52,10.61s8.69,5.13,9.19,4.69S40.34,98.05,33,94.16Z"/><path class="cls-36" d="M70.86,115.06c-7.77-2-8.69-1.35-8.34-4.75s4.52-6.79,11.7-9.18,5.6-3.75,6.68-6.32,4.75,4.13,9.72,4.36,1.85,4.56-1.73,10.2S70.86,115.06,70.86,115.06Z"/><path class="cls-37" d="M36,112c3.57,1.42,4.75,3.55,6,2.62s1.36-9.25,1.48-12.52-1,.36-5-5.08S30.72,89.36,27.08,90,24,95.46,23.27,99.75,33.28,110.83,36,112Z"/><path class="cls-38" d="M2.75,83.84C3,86,8.53,92.22,9.16,92.78s.9-17.47.34-21.84-5-6.75-5-6.75S2.55,75.45,2.75,83.84Z"/><path class="cls-39" d="M100.09,120.15c-1.38,3.72-3.5,7.54-5.47,9.11-2.3,1.83-16.45,4.58-29.14,6.17a9.49,9.49,0,0,0-6-2.05,5.51,5.51,0,0,0-4.59,3.11,43.67,43.67,0,0,1-8.77,0,8.81,8.81,0,0,1-.94-.2c-8.72-2.18-27.72-15.37-37-23.36h0S19,121.58,29.37,126.81s13,7.6,17,7.26,5.79-1.89,12.54-2.25,4.07,3.33,8.46,2.35,15.75-.3,23.13-4.25A22.6,22.6,0,0,0,100.09,120.15Z"/><path class="cls-40" d="M55.58,84.19c-1.4.2-.95,2-.47,2.77s15.26-2.54,15.26-2.54S58.94,83.71,55.58,84.19Z"/><path class="cls-40" d="M105.91,86c-2,2.15.28,6.42,1.41,5S110.53,81.11,105.91,86Z"/><path class="cls-40" d="M51.35,101.87c-.58-2.22-2.75,9.4-2.05,10.52S53.72,110.85,51.35,101.87Z"/><path class="cls-41" d="M70.51,112.8c-1.51-1.4,6.71-1.79,7.92.2S76.88,118.67,70.51,112.8Z"/><path class="cls-41" d="M89.9,93.93c-1.23-.51,4.31-3.57,6-3.76S94.15,95.69,89.9,93.93Z"/><path class="cls-41" d="M30.13,107.82c-1.53-2.11,4.92-.44,6.34,1.77S32.77,111.45,30.13,107.82Z"/><path class="cls-41" d="M33.9,88.87c-1.37-4.54,3.68-1.89,5,1.09s-.66,3.16-1.36,2.69S34.11,89.57,33.9,88.87Z"/><path class="cls-42" d="M12.67,39.58c-.59,2.24,16,10.93,26.06,13.31s18.59,4.06,25,6,16.72,2.69,20.74,2.5,4.69-1.28,4.69-1.28.75,2-1.62,3.15-14.08,1.79-19.87.63S54.5,57.68,44.6,55.7,24.18,51.58,17,47.15,12.67,39.58,12.67,39.58Z"/><path class="cls-42" d="M30,32.57c3.48-.59,8.12,7.45,30,13.68C78,51.4,73.2,56.86,73.2,56.86A140.27,140.27,0,0,0,51.67,45.57C39,40.21,29.8,36.05,29,35.66s.79-1.51.79-1.51S29.09,34.08,30,32.57Z"/><path class="cls-42" d="M45,35.1s-.28-2.42,3-2.32,10.51,6.34,30.41,12c6.92,2,12.2,2,16.69,3a86.45,86.45,0,0,1,13,3.86s-4.23,1.38-16-1.07-28.7-9.48-36.51-11.21S45,35.1,45,35.1Z"/><path class="cls-42" d="M66.38,33s4.31-1.26,14.52,2.34A27.3,27.3,0,0,1,95.32,46.87s-8.28-3.1-17.11-7S66.38,33,66.38,33Z"/><path class="cls-43" d="M40.75,59.52c-4.54-2.43,11.33-1.79,19.74,1.06s11.37,4.21,11.37,4.21S65.66,69.34,40.75,59.52Z"/><path class="cls-43" d="M72.72,46.41C66.78,45.26,86.19,54.33,91.07,59s23.77-1.42,23.48-2.74-17.24-3.63-24.9-6A143.21,143.21,0,0,0,72.72,46.41Z"/><path class="cls-43" d="M25.27,37.66c-5.16-.61,10.16,9.93,21,13.38s14,2.84,15.09,1.75S45.69,40.07,25.27,37.66Z"/><path class="cls-44" d="M48.72,63c-1.28,0,5.28,4.61,7.44,5.44s12.47-1.89,13.29-2.17S55.54,62.87,48.72,63Z"/><path class="cls-28" d="M54.28,79.58C51,79,42.84,78.1,40.47,70.88s-12.87-13.12-15-15.77,16.4,7.15,21.24,9.27,7.4,6.19,8.7,6S54.28,79.58,54.28,79.58Z"/><path class="cls-45" d="M67.19,66.89c11.49-1,21.94.94,29.79,2s3.53,4.68,9.9.52,6.9-8.58,6.9-8.58S88.83,63.54,67.19,66.89Z"/><path class="cls-46" d="M18.45,40.56c-4.63-1,4.87,6.58,12.76,9.2S41.67,52,42.11,52,28.32,42.75,18.45,40.56Z"/><path class="cls-46" d="M79.71,54.8c-7.54-1.24-8,4.53.52,5.14S83.68,55.45,79.71,54.8Z"/><path class="cls-46" d="M41.15,27.86C38,29,45.53,31,52.69,34.52s10.06,3.81,10.06,3.81S54.69,28.43,41.15,27.86Z"/><path class="cls-46" d="M37.89,33.14c-3.9-.88,1.31,6,9.36,8.47a84.88,84.88,0,0,0,10.36,2.85S47.08,35.22,37.89,33.14Z"/><path class="cls-46" d="M77.53,31.29c-6.59-1.08,4.5,4.52,10.24,7.17s7,2.86,7,2.86A28.23,28.23,0,0,0,77.53,31.29Z"/><path class="cls-47" d="M79.62,54.44c-1.91.63,2.61,1.89,3.13,1.33S81.71,53.75,79.62,54.44Z"/><path class="cls-47" d="M22.07,45.39c-2.35-.4,1.3,1.55,2.52,1.12S23.15,45.57,22.07,45.39Z"/><path class="cls-47" d="M96.7,42.74c-2.06-.47-.41,3.5,2.86,3.95S98.71,43.2,96.7,42.74Z"/><path class="cls-48" d="M78.33,32.35c-.78.37.88.67,1.48.54S79.14,32,78.33,32.35Z"/><path class="cls-47" d="M81.29,32.8c-2,.4.43,2.58,3.8,2.47S83.26,32.41,81.29,32.8Z"/><path class="cls-49" d="M39.66,29.35c-2,.4.44,2.58,3.8,2.47S41.64,29,39.66,29.35Z"/><path class="cls-50" d="M97.93,58.8c-2.82-1.43,5.48-1.78,10.73-2.06S109.36,61.5,97.93,58.8Z"/><path class="cls-50" d="M44.9,60.1c-4.43-.14-.41,1.77,1.94,1.3S44.9,60.1,44.9,60.1Z"/><path class="cls-51" d="M8.09,47c-1.92,1-.62,6.38,3.83,11.55s13.48,8.92,14.19,8.91-4.24-6.88-4.3-9.94S8.09,47,8.09,47Z"/><path class="cls-52" d="M31.09,26.88c-1.37,3.76,5.39,8.92,7.52,10.2l2.14,1.29s-5.17-3.84-6-5.94,2.09-6.66.6-6.92S31.39,26.05,31.09,26.88Z"/><path class="cls-53" d="M60.9,49.24s2.18-.26,6.33,1.42,4.46,4.67,4.46,4.67S62.83,50.59,60.9,49.24Z"/><path class="cls-9" d="M62.43,42.7l-3.77-.41c-.41-.06,11.93,4.69,13.74,5.56s4.71-1,9.36-.44,5.69-.8,5.33-1.93,3.47-1.27,5.82-1.41,1.61-4.93,1.61-4.93Z"/><path class="cls-54" d="M60.75,38.89s-6.16-15.1-2-26.9,46.82,8.69,46.82,8.69,3.22,9.47-1.9,17.48S63.61,42.61,60.75,38.89Z"/><path class="cls-55" d="M104.44,36.9c5.56-10.13-7-19.54-17.24-17.26C86.71,11,73,4.42,63.77,11.59,53.43,19.66,59.14,41,65.05,45S98.1,48.44,104.44,36.9Z"/><path class="cls-56" d="M104.58,28.38c5.56-10.14-7-19.54-17.24-17.27-.49-8.69-14.24-15.21-23.43-8-10.34,8.06-4.63,29.43,1.28,33.42S98.24,39.92,104.58,28.38Z"/><path class="cls-42" d="M65.05,45c2.06,1,1.37-4.52-1.68-10.3A91,91,0,0,1,58,21.22s.11,8.9,1.73,14.8A18.81,18.81,0,0,0,65.05,45Z"/><path class="cls-57" d="M83.34,47c-1.73-1.1,1.34-7.4,3.58-8.17s11-4.22,14.08-6,2.58,4.61-.39,8.27S83.34,47,83.34,47Z"/><path class="cls-58" d="M65.49,35.09c-8.38-2.68,15-24.12,28.77-20.58C118.5,20.72,96.15,44.87,65.49,35.09Z"/><path class="cls-59" d="M63.77,35.19A88.56,88.56,0,0,1,74,36.52a39.12,39.12,0,0,1,6,2.17s-8.9.88-12.1-.11A6.51,6.51,0,0,1,63.77,35.19Z"/><path class="cls-58" d="M86,11.24c.53,1.93-22.19,4.82-24.22,2.06S63.47.35,73.55.69,85.83,10.5,86,11.24Z"/><path class="cls-60" d="M89.46,34.38c-2.38-.2-4.57,4-.29,5.32S92,34.59,89.46,34.38Z"/><path class="cls-61" d="M89.46,34.38c-1.53-.24-2.65,2.49-.79,3.49s3.26-.38,3-1S90.34,34.52,89.46,34.38Z"/><path class="cls-62" d="M86.88,37.12c.06-.45,1.6,2,2.85,2.29,2.28.52,1.73-1.8,1.93-1.65a1.63,1.63,0,0,1-1.86,2.09C87.75,39.57,86.78,37.94,86.88,37.12Z"/><path class="cls-59" d="M91.45,35.65a23.13,23.13,0,0,0,6.31-1.28c3.08-1.15,6-4.76,6-4.76s-.21,2.58-5.75,5.09-6.34,2.15-6.34,2.15Z"/><path class="cls-59" d="M87.79,39a17.47,17.47,0,0,0,2.47.54c.48,0,.54.23.54.23S89.71,42,87.79,39Z"/><path class="cls-63" d="M58.06,41.81c.6.48,7.54.37,11.74,1.18s6.82,6.38,6.82,6.38-2.1-.08-9.28-3.26S58.06,41.81,58.06,41.81Z"/><path class="cls-47" d="M67.84,43.15C65,44.25,69.6,44.6,71,44.38S68.76,42.79,67.84,43.15Z"/><path class="cls-64" d="M104,57.83c-3.16-.27-6.08,5.34-.39,7.07S107.39,58.11,104,57.83Z"/><path class="cls-65" d="M104,57.83c-2-.32-3.52,3.31-1,4.64s4.33-.5,4-1.35S105.2,58,104,57.83Z"/><path class="cls-66" d="M100.6,61.48c.07-.6,2.13,2.66,3.78,3,3,.69,2.31-2.4,2.57-2.2s.25,3.45-2.46,3.08S100.46,62.56,100.6,61.48Z"/></g></g></g></svg>