<svg xmlns="http://www.w3.org/2000/svg" xmlns:xlink="http://www.w3.org/1999/xlink" viewBox="0 0 119.82 142.86"><defs><style>.cls-1{isolation:isolate;}.cls-2{fill:#ff9fff;}.cls-3{fill:url(#Gradient_55);}.cls-4{fill:url(#Gradient_141);}.cls-14,.cls-25,.cls-28,.cls-29,.cls-36,.cls-39,.cls-40,.cls-44,.cls-48,.cls-5,.cls-52{opacity:0.5;}.cls-13,.cls-14,.cls-17,.cls-25,.cls-27,.cls-28,.cls-29,.cls-30,.cls-32,.cls-33,.cls-34,.cls-35,.cls-36,.cls-37,.cls-38,.cls-39,.cls-41,.cls-46,.cls-5,.cls-52,.cls-54{mix-blend-mode:multiply;}.cls-6{fill:url(#Gradient_139);}.cls-7{fill:url(#Gradient_139-2);}.cls-8{fill:url(#Gradient_139-3);}.cls-9{fill:url(#Gradient_139-4);}.cls-10{fill:url(#Gradient_139-5);}.cls-11{fill:url(#Gradient_139-6);}.cls-12{fill:url(#Gradient_139-7);}.cls-13{fill:url(#Gradient_105);}.cls-14{fill:#8b0090;}.cls-15{fill:#651a38;}.cls-16{fill:url(#Gradient_57);}.cls-18{fill:url(#Gradient_139-8);}.cls-19{fill:url(#Gradient_139-9);}.cls-20{fill:url(#Gradient_139-10);}.cls-21{fill:url(#Gradient_139-11);}.cls-22{fill:url(#Gradient_139-12);}.cls-23{fill:url(#Gradient_139-13);}.cls-24{fill:url(#Gradient_139-14);}.cls-25{fill:#bf2a92;}.cls-26{fill:url(#Gradient_66);}.cls-27{fill:url(#Gradient_63);}.cls-28{fill:url(#Gradient_70);}.cls-29{fill:url(#Gradient_61);}.cls-30{fill:url(#Gradient_69);}.cls-31{fill:url(#Gradient_60);}.cls-32{fill:url(#Gradient_63-2);}.cls-33{fill:url(#Gradient_71);}.cls-34{fill:url(#Gradient_69-2);}.cls-35{fill:url(#Gradient_61-2);}.cls-36{fill:url(#Gradient_64);}.cls-37{fill:url(#Gradient_64-2);}.cls-38{fill:#ac3dac;}.cls-38,.cls-54,.cls-56,.cls-72{opacity:0.3;}.cls-39{fill:url(#Gradient_71-2);}.cls-40{fill:#cac2ff;}.cls-40,.cls-43,.cls-44,.cls-45,.cls-48,.cls-55,.cls-56,.cls-57,.cls-58,.cls-59,.cls-60,.cls-61,.cls-72,.cls-73{mix-blend-mode:soft-light;}.cls-41{fill:url(#Gradient_139-15);}.cls-42,.cls-43,.cls-44,.cls-45{fill:#fff;}.cls-45{fill-rule:evenodd;}.cls-46{fill:#742a92;opacity:0.86;}.cls-47{fill:url(#Gradient_92);}.cls-48,.cls-61{fill:#96c9ff;}.cls-49{fill:#41139e;}.cls-50{fill:url(#Gradient_58);}.cls-51{fill:url(#Gradient_35);}.cls-52,.cls-54{fill:#912774;}.cls-53{fill:#594aff;}.cls-55,.cls-56,.cls-59{fill:#b3acff;}.cls-55,.cls-61{opacity:0.8;}.cls-57{fill:#b177ff;}.cls-57,.cls-58,.cls-60{opacity:0.6;}.cls-58{fill:#f7f;}.cls-60{fill:#ffceff;}.cls-62{fill:url(#Gradient_92-2);}.cls-63{fill:url(#Gradient_58-2);}.cls-64{fill:url(#Gradient_35-2);}.cls-65{fill:url(#Gradient_21);}.cls-66{fill:url(#Gradient_21-2);}.cls-67{fill:url(#Gradient_21-3);}.cls-68{fill:url(#Gradient_21-4);}.cls-69{fill:url(#Gradient_21-5);}.cls-70{fill:url(#Gradient_21-6);}.cls-71{fill:url(#Gradient_21-7);}.cls-72,.cls-73{fill:#ffcfb1;}.cls-73{opacity:0.58;}.cls-74{fill:#d44aae;opacity:0.72;}</style><linearGradient id="Gradient_55" x1="-179.88" y1="185.58" x2="-75.38" y2="196.87" gradientTransform="matrix(0.97, 0.25, -0.25, 0.97, 225.49, -53.28)" gradientUnits="userSpaceOnUse"><stop offset="0" stop-color="#430c1f"/><stop offset="0.59" stop-color="#460d18"/><stop offset="1" stop-color="#4a0e10"/></linearGradient><radialGradient id="Gradient_141" cx="-112.09" cy="160.14" r="62.99" gradientTransform="matrix(0.9, 0.23, -0.24, 0.97, 202.27, -36.61)" gradientUnits="userSpaceOnUse"><stop offset="0" stop-color="#bd4920"/><stop offset="0.33" stop-color="#bb4723"/><stop offset="0.54" stop-color="#b6422b"/><stop offset="0.71" stop-color="#ad3a3a"/><stop offset="0.82" stop-color="#a43148"/><stop offset="0.85" stop-color="#a9324d"/><stop offset="0.89" stop-color="#b5365d"/><stop offset="0.93" stop-color="#cb3c77"/><stop offset="0.98" stop-color="#e8459a"/><stop offset="1" stop-color="#f94aae"/></radialGradient><linearGradient id="Gradient_139" x1="-106.46" y1="192.14" x2="-92.28" y2="191.4" gradientTransform="translate(191.86 -39.41) rotate(14.15)" gradientUnits="userSpaceOnUse"><stop offset="0" stop-color="#8b0059"/><stop offset="0.21" stop-color="#a9397f"/><stop offset="0.49" stop-color="#ce7eac"/><stop offset="0.73" stop-color="#e8b0ce"/><stop offset="0.9" stop-color="#f9cfe2"/><stop offset="1" stop-color="#ffdbea"/></linearGradient><linearGradient id="Gradient_139-2" x1="-94.66" y1="191.58" x2="-78.93" y2="190.76" xlink:href="#Gradient_139"/><linearGradient id="Gradient_139-3" x1="-86.15" y1="190.92" x2="-67.32" y2="189.93" xlink:href="#Gradient_139"/><linearGradient id="Gradient_139-4" x1="-78.83" y1="189.83" x2="-57.39" y2="188.71" xlink:href="#Gradient_139"/><linearGradient id="Gradient_139-5" x1="-143.36" y1="190.1" x2="-125.49" y2="189.16" xlink:href="#Gradient_139"/><linearGradient id="Gradient_139-6" x1="-132.17" y1="191.06" x2="-118.54" y2="190.34" xlink:href="#Gradient_139"/><linearGradient id="Gradient_139-7" x1="-120.2" y1="191.89" x2="-106.3" y2="191.17" xlink:href="#Gradient_139"/><linearGradient id="Gradient_105" x1="-101.34" y1="185.22" x2="-101.34" y2="162.47" gradientTransform="translate(191.86 -39.41) rotate(14.15)" gradientUnits="userSpaceOnUse"><stop offset="0" stop-color="#ffdbea"/><stop offset="0.1" stop-color="#f9cfe2"/><stop offset="0.27" stop-color="#e8b0ce"/><stop offset="0.51" stop-color="#ce7eac"/><stop offset="0.79" stop-color="#a9397f"/><stop offset="1" stop-color="#8b0059"/></linearGradient><linearGradient id="Gradient_57" x1="-180.75" y1="213.16" x2="-75.03" y2="213.16" gradientTransform="matrix(0.97, 0.25, -0.25, 0.97, 225.49, -53.28)" gradientUnits="userSpaceOnUse"><stop offset="0" stop-color="#9a0c82"/><stop offset="0.03" stop-color="#950c7b"/><stop offset="0.08" stop-color="#860c68"/><stop offset="0.14" stop-color="#6f0d48"/><stop offset="0.2" stop-color="#500d1f"/><stop offset="0.47" stop-color="#591220"/><stop offset="0.89" stop-color="#701e23"/><stop offset="1" stop-color="#772224"/></linearGradient><linearGradient id="Gradient_139-8" x1="-133.91" y1="218.49" x2="-119.72" y2="217.75" gradientTransform="matrix(0.97, 0.25, -0.25, 0.97, 225.49, -53.28)" xlink:href="#Gradient_139"/><linearGradient id="Gradient_139-9" x1="-121.74" y1="217.99" x2="-106.36" y2="217.19" gradientTransform="matrix(0.97, 0.25, -0.25, 0.97, 225.49, -53.28)" xlink:href="#Gradient_139"/><linearGradient id="Gradient_139-10" x1="-112.53" y1="215.94" x2="-94.51" y2="215" gradientTransform="matrix(0.97, 0.25, -0.25, 0.97, 225.49, -53.28)" xlink:href="#Gradient_139"/><linearGradient id="Gradient_139-11" x1="-104.48" y1="214.25" x2="-84.37" y2="213.2" gradientTransform="matrix(0.97, 0.25, -0.25, 0.97, 225.49, -53.28)" xlink:href="#Gradient_139"/><linearGradient id="Gradient_139-12" x1="-171.78" y1="213.34" x2="-154.11" y2="212.42" gradientTransform="matrix(0.97, 0.25, -0.25, 0.97, 225.49, -53.28)" xlink:href="#Gradient_139"/><linearGradient id="Gradient_139-13" x1="-159.72" y1="215.52" x2="-145.93" y2="214.8" gradientTransform="matrix(0.97, 0.25, -0.25, 0.97, 225.49, -53.28)" xlink:href="#Gradient_139"/><linearGradient id="Gradient_139-14" x1="-147.34" y1="217.73" x2="-133.28" y2="217" gradientTransform="matrix(0.97, 0.25, -0.25, 0.97, 225.49, -53.28)" xlink:href="#Gradient_139"/><linearGradient id="Gradient_66" x1="-157.65" y1="190.68" x2="-157.65" y2="113.87" gradientTransform="matrix(0.97, 0.25, -0.29, 0.96, 263.58, -43.91)" gradientUnits="userSpaceOnUse"><stop offset="0" stop-color="#876dff"/><stop offset="1" stop-color="#7ca2ff"/></linearGradient><linearGradient id="Gradient_63" x1="-170.22" y1="173.59" x2="-170.22" y2="115.75" gradientTransform="matrix(0.97, 0.25, -0.29, 0.96, 263.58, -43.91)" gradientUnits="userSpaceOnUse"><stop offset="0" stop-color="#fff"/><stop offset="0.11" stop-color="#f8f3fa"/><stop offset="0.3" stop-color="#e6d4ee"/><stop offset="0.56" stop-color="#c7a2d9"/><stop offset="0.87" stop-color="#9e5dbd"/><stop offset="1" stop-color="#8b3db0"/></linearGradient><linearGradient id="Gradient_70" x1="-195.58" y1="130.23" x2="-144.31" y2="130.23" gradientTransform="matrix(0.97, 0.25, -0.29, 0.96, 263.58, -43.91)" gradientUnits="userSpaceOnUse"><stop offset="0" stop-color="#8b3db0"/><stop offset="0.34" stop-color="#ac7ec8"/><stop offset="0.65" stop-color="#c5b0da"/><stop offset="0.87" stop-color="#d5cfe6"/><stop offset="1" stop-color="#dbdbea"/></linearGradient><linearGradient id="Gradient_61" x1="-189.2" y1="122.1" x2="-150.28" y2="122.1" gradientTransform="matrix(0.97, 0.25, -0.29, 0.96, 263.58, -43.91)" gradientUnits="userSpaceOnUse"><stop offset="0" stop-color="#8b3db0"/><stop offset="0.34" stop-color="#bb7ec8"/><stop offset="0.65" stop-color="#e0b0da"/><stop offset="0.87" stop-color="#f6cfe6"/><stop offset="1" stop-color="#ffdbea"/></linearGradient><linearGradient id="Gradient_69" x1="-194.98" y1="137.93" x2="-133.24" y2="137.93" gradientTransform="matrix(0.97, 0.25, -0.29, 0.96, 263.58, -43.91)" gradientUnits="userSpaceOnUse"><stop offset="0" stop-color="#c0dbea"/><stop offset="0.13" stop-color="#bccfe6"/><stop offset="0.35" stop-color="#b2b0da"/><stop offset="0.66" stop-color="#a17ec8"/><stop offset="1" stop-color="#8b3db0"/></linearGradient><linearGradient id="Gradient_60" x1="-129.72" y1="127.25" x2="-129.72" y2="88.53" gradientTransform="matrix(0.97, 0.25, -0.25, 0.97, 225.49, -53.28)" gradientUnits="userSpaceOnUse"><stop offset="0" stop-color="#7b89ff"/><stop offset="1" stop-color="#5e9aff"/></linearGradient><linearGradient id="Gradient_63-2" x1="-160.58" y1="181.08" x2="-160.58" y2="130.77" xlink:href="#Gradient_63"/><linearGradient id="Gradient_71" x1="-152.18" y1="195.29" x2="-152.18" y2="160.27" gradientTransform="matrix(0.97, 0.25, -0.29, 0.96, 263.58, -43.91)" gradientUnits="userSpaceOnUse"><stop offset="0" stop-color="#ffdbea"/><stop offset="0.13" stop-color="#f6cfe6"/><stop offset="0.35" stop-color="#e0b0da"/><stop offset="0.66" stop-color="#bb7ec8"/><stop offset="1" stop-color="#8b3db0"/></linearGradient><linearGradient id="Gradient_69-2" x1="-165.05" y1="121.16" x2="-165.05" y2="99.95" xlink:href="#Gradient_69"/><linearGradient id="Gradient_61-2" x1="-163.04" y1="133.63" x2="-163.04" y2="116.87" xlink:href="#Gradient_61"/><linearGradient id="Gradient_64" x1="-210.84" y1="156.15" x2="-147.64" y2="156.15" gradientTransform="matrix(0.97, 0.25, -0.29, 0.96, 263.58, -43.91)" gradientUnits="userSpaceOnUse"><stop offset="0" stop-color="#8b3db0"/><stop offset="0.13" stop-color="#9e5dbd"/><stop offset="0.44" stop-color="#c7a2d9"/><stop offset="0.7" stop-color="#e6d4ee"/><stop offset="0.89" stop-color="#f8f3fa"/><stop offset="1" stop-color="#fff"/></linearGradient><linearGradient id="Gradient_64-2" x1="-215.67" y1="169.54" x2="-118.62" y2="169.54" xlink:href="#Gradient_64"/><linearGradient id="Gradient_71-2" x1="-134.69" y1="106.64" x2="-134.69" y2="90.79" gradientTransform="matrix(0.97, 0.25, -0.25, 0.97, 225.49, -53.28)" xlink:href="#Gradient_71"/><linearGradient id="Gradient_139-15" x1="-180.16" y1="183.94" x2="-75.02" y2="183.94" gradientTransform="matrix(0.97, 0.25, -0.25, 0.97, 225.49, -53.28)" xlink:href="#Gradient_139"/><radialGradient id="Gradient_92" cx="-101.3" cy="117.38" r="20.74" gradientTransform="matrix(0.97, 0.25, -0.25, 0.97, 225.49, -53.28)" gradientUnits="userSpaceOnUse"><stop offset="0" stop-color="#6445ec"/><stop offset="0.14" stop-color="#6243e6"/><stop offset="0.32" stop-color="#5d3ed4"/><stop offset="0.54" stop-color="#5435b7"/><stop offset="0.77" stop-color="#49288f"/><stop offset="1" stop-color="#3b1a61"/></radialGradient><radialGradient id="Gradient_58" cx="-97.35" cy="113.2" r="8.8" gradientTransform="matrix(0.97, 0.25, -0.25, 0.97, 225.49, -53.28)" gradientUnits="userSpaceOnUse"><stop offset="0" stop-color="#541bea"/><stop offset="1" stop-color="#5238c2"/></radialGradient><radialGradient id="Gradient_35" cx="-100.3" cy="118.45" r="7.27" gradientTransform="matrix(0.97, 0.25, -0.25, 0.97, 225.49, -53.28)" gradientUnits="userSpaceOnUse"><stop offset="0" stop-color="#3316a6"/><stop offset="1" stop-color="#3b1a61"/></radialGradient><radialGradient id="Gradient_92-2" cx="274.41" cy="132.56" r="20.74" gradientTransform="matrix(-0.97, -0.25, -0.25, 0.97, 339.65, -23.56)" xlink:href="#Gradient_92"/><radialGradient id="Gradient_58-2" cx="278.36" cy="128.39" r="8.8" gradientTransform="matrix(-0.97, -0.25, -0.25, 0.97, 339.65, -23.56)" xlink:href="#Gradient_58"/><radialGradient id="Gradient_35-2" cx="275.41" cy="133.63" r="7.27" gradientTransform="matrix(-0.97, -0.25, -0.25, 0.97, 339.65, -23.56)" xlink:href="#Gradient_35"/><linearGradient id="Gradient_21" x1="-80.79" y1="140.39" x2="-80.79" y2="132.52" gradientTransform="matrix(0.97, 0.25, -0.25, 0.97, 225.49, -53.28)" gradientUnits="userSpaceOnUse"><stop offset="0" stop-color="#4f0c1f"/><stop offset="0.31" stop-color="#561020"/><stop offset="0.75" stop-color="#691a22"/><stop offset="1" stop-color="#772224"/></linearGradient><linearGradient id="Gradient_21-2" x1="-144.49" y1="108.81" x2="-144.49" y2="101.11" xlink:href="#Gradient_21"/><linearGradient id="Gradient_21-3" x1="-129.28" y1="114.94" x2="-129.28" y2="105.89" xlink:href="#Gradient_21"/><linearGradient id="Gradient_21-4" x1="-116.41" y1="168.08" x2="-116.41" y2="156.79" xlink:href="#Gradient_21"/><linearGradient id="Gradient_21-5" x1="-103.26" y1="164.15" x2="-103.26" y2="154.42" xlink:href="#Gradient_21"/><linearGradient id="Gradient_21-6" x1="-150.88" y1="179.34" x2="-150.88" y2="168.85" xlink:href="#Gradient_21"/><linearGradient id="Gradient_21-7" x1="-128.62" y1="148.37" x2="-128.62" y2="139.47" xlink:href="#Gradient_21"/></defs><g class="cls-1"><g id="Layer_2" data-name="Layer 2"><g id="objects"><path class="cls-2" d="M14.32,126.56c-7-3.73-15-38.9-14.27-40.21s2.31,1.73,2.43-4.82,1.66-11.81,3-14S4.76,59.4,6.7,53.73s2.31-7.38,5-7.53.55-9.35,3.63-14,6.86-.41,12.64-1.88,7.2-3.64,9.47-8,9.34-4.24,12.58-5.7a15.38,15.38,0,0,0,4.66-3S53.61,9.54,57,8,64.2,8,65.25,9.59s12.1-1.22,12.1-1.22l-38,119.41Z"/><path class="cls-3" d="M1.88,88.78S20,69.39,60.82,81.36s43.39,34,43.39,34-16.82,11.39-58.42,1.49S1.88,88.78,1.88,88.78Z"/><path class="cls-4" d="M100.68,112.18h0a24.48,24.48,0,0,1-5.57,5c-2,.9-15.9,21.6-20.6,22.59a14.32,14.32,0,0,1-2,.25h0a46.58,46.58,0,0,1-6.37-.11c-.75-.06-1.52-.12-2.31-.2-1.65-.16-3.35-.36-5-.58l-2-.28c-1.89-.28-3.71-.56-5.36-.83h0l-3.28-.57h0l-2.2-.4h0l-2.08-.4s-2.79-.85-6.65-2.15h0c-1.94-.65-4.15-1.42-6.43-2.26-1.07-.4-2.17-.82-3.25-1.25-1.57-.61-3.11-1.25-4.55-1.89-.65-.28-1.29-.57-1.9-.87a33.83,33.83,0,0,1-4.88-2.72,10,10,0,0,1-.83-.63c-3.68-3.09-6.07-27.9-7.43-29.65a14.52,14.52,0,0,1-1.63-3.71c-1.42-4.29-2.86-11.36-1.91-17C5.77,66,28.4,41.19,65.49,50.54s45.26,41.95,42.53,50C106.6,104.77,103.51,109,100.68,112.18Z"/><g class="cls-5"><path class="cls-6" d="M48.38,137.29c-.44.71-8.26-2.22-8.26-2.22l4.22-27.71s12.41-.59,13.86,3.08C58.2,110.44,50.34,134.16,48.38,137.29Z"/><path class="cls-7" d="M71.19,113.65S62,132.91,56.78,138.81c-1.89-.28-3.71-.56-5.36-.83h0l-1-.35,8.28-27.21S70.43,109.55,71.19,113.65Z"/><path class="cls-8" d="M82.88,114.49s-9.24,16.77-19,25.18c-1.65-.16-3.35-.36-5-.58L73,112.81S83.13,113,82.88,114.49Z"/><path class="cls-9" d="M92.75,116c-2.38,7-12.86,17.77-20.2,23.94h0a46.58,46.58,0,0,1-6.37-.11L84.9,115.35C87.34,113.55,93.21,114.71,92.75,116Z"/><path class="cls-10" d="M21,128.16a33.83,33.83,0,0,1-4.88-2.72L9.29,95.16s7.9.91,9.14,3.56C18.43,98.72,21.85,119.58,21,128.16Z"/><path class="cls-11" d="M27.47,130.92c-1.57-.61-3.11-1.25-4.55-1.89L19.75,99.65s5.83-1.41,8.34,2.86C28.09,102.51,29.39,123.4,27.47,130.92Z"/><path class="cls-12" d="M38.59,134.47c-.1.17-.65.13-1.42,0h0c-1.94-.65-4.15-1.42-6.43-2.26l.39-28.61S39.62,102,42.27,107C42.27,107,41.88,128.22,38.59,134.47Z"/></g><path class="cls-13" d="M4.13,80.83s16.32,17.13,52,25.1,46.56,3.93,46.56,3.93S96.72,116.6,95.4,117s-9.06-1.16-14,3c0,0-4.9-5.51-11-2.24,0,0-7.88-4.75-13.9-.3,0,0-4.09-11.2-12.76-5.13,0,0-6.2-8.21-12.65-2.31,0,0-4.33-11.24-10.95-7.35,0,0-6.35-7.43-11.68-6l-.51-1.48A36.34,36.34,0,0,1,4.13,80.83Z"/><path class="cls-14" d="M23.48,128.78a134.68,134.68,0,0,0,31.35,8.71,44.84,44.84,0,0,0,28.29-5.79s-4.81,6.1-7.76,7.69S43.42,139.59,23.48,128.78Z"/><path class="cls-15" d="M104.21,115.34S81.66,139.51,77,141.06a14.81,14.81,0,0,1-1.79.43,44.64,44.64,0,0,1-8,.6c-.59,0-1.18,0-1.8,0-1.94,0-4.05-.16-6.26-.36-.54-.05-1.1-.1-1.66-.17-2.32-.25-4.75-.6-7.24-1.06l-1.73-.34q-2.49-.49-5-1.16c-1.3-.33-2.57-.68-3.78-1l-1.21-.36c-3.09-.94-5.89-2-8.41-3-1-.4-2-.82-2.9-1.23-1.94-.86-3.68-1.73-5.22-2.58-.52-.28-1-.56-1.48-.84a38.29,38.29,0,0,1-5.94-4.17,17.25,17.25,0,0,1-1.35-1.29C9.83,120.86,1.88,88.78,1.88,88.78c5.43,1.41,7.56,6.93,7.56,6.93,6.78-.09,9.28,4.71,9.28,4.71,6.63-1.94,12.22,5.2,12.22,5.2,6.64-2.45,12.13,4.5,12.13,4.5,3.26-2,13.39.77,15,4.08,0,0,8-3.65,12.6,1.72,0,0,8.35-3.52,13.2,1.4,0,0,4.52-3,10.4.39C94.23,117.71,97.19,115,104.21,115.34Z"/><path class="cls-16" d="M104.21,115.34s-22.75,24.93-27.43,26.48a15.35,15.35,0,0,1-1.8.44,45.59,45.59,0,0,1-8,.6c-.59,0-1.18,0-1.8,0-1.94,0-4.05-.16-6.26-.36l-1.66-.18c-2.32-.25-4.75-.6-7.24-1.05-.58-.11-1.15-.22-1.73-.35q-2.49-.5-5-1.15c-1.3-.34-2.57-.69-3.78-1.05-.42-.11-.81-.24-1.21-.36-3.09-.94-5.89-1.94-8.41-3-1-.4-2-.82-2.9-1.24-1.94-.85-3.68-1.72-5.22-2.58-.52-.28-1-.55-1.48-.83a38.78,38.78,0,0,1-5.94-4.17,15.58,15.58,0,0,1-1.35-1.3C9.63,121.63,1.88,88.78,1.88,88.78c6.32,3.08,7.37,7.69,7.37,7.69,6.77-.09,9.27,4.72,9.27,4.72,6.63-2,12.22,5.19,12.22,5.19,6.64-2.45,12.13,4.5,12.13,4.5,3.26-2,13.39.78,15,4.08,0,0,8-3.65,12.6,1.72,0,0,8.36-3.52,13.2,1.41,0,0,4.52-3,10.4.39C94,118.48,97.19,115,104.21,115.34Z"/><g class="cls-17"><path class="cls-18" d="M57.31,115.65s-6.32,19-9,25.25q-2.49-.5-5-1.15c-1.3-.34-2.57-.69-3.78-1.05l4-26.13S50.72,108.56,57.31,115.65Z"/><path class="cls-19" d="M70.3,118.86s-7.73,16.22-13,23.44c-2.32-.25-4.75-.6-7.24-1.05l7.8-25.62S67.82,112.29,70.3,118.86Z"/><path class="cls-20" d="M82.45,119.11s-7.9,14.34-16.82,23.14c-1.94,0-4-.16-6.26-.36l13.21-24.46S81.92,113,82.45,119.11Z"/><path class="cls-21" d="M92.63,119.9c-2.8,5.64-10,14.74-16.87,21a44.68,44.68,0,0,1-8,.6l17.05-22.3C87.22,117.42,94.13,116.88,92.63,119.9Z"/><path class="cls-22" d="M20.14,127.43a39.54,39.54,0,0,1-5.94-4.16L8.28,97.08s6.53-1.53,9.13,3.56C17.41,100.64,20.24,117.85,20.14,127.43Z"/><path class="cls-23" d="M27.49,131.65c-1.94-.86-3.68-1.73-5.22-2.58l-2.89-26.72s5.84-1.4,8.35,2.87C27.73,105.22,28.84,123,27.49,131.65Z"/><path class="cls-24" d="M38.87,137.19c-3.1-.94-5.9-1.95-8.42-3l.36-26.61S39.32,106,42,111C42,111,41.63,129.73,38.87,137.19Z"/></g><path class="cls-25" d="M43.67,112.35c2.4-1.57,8.16-2,10.46,1.57S49,130.16,45,133.25,43.67,112.35,43.67,112.35Z"/><path class="cls-25" d="M57.81,115.63c2.94-1.57,8-.8,9.75,1.08s-4.21,14.81-9.4,16.89S57.81,115.63,57.81,115.63Z"/><path class="cls-25" d="M72.58,117.43c1.42-1.69,9.26-.19,9.42,1.66s-9,12.29-13.62,14.53S69.7,121.64,72.58,117.43Z"/><path class="cls-25" d="M84.79,119.21c5.43-2.83,8.51-.81,8.18.78S82.18,131.43,77.6,133.85,84.79,119.21,84.79,119.21Z"/><path class="cls-25" d="M31.61,108.89c.23-2,7.74-4,8.71,5.16s-8.68,19.1-8.68,19.1S30.7,117,31.61,108.89Z"/><path class="cls-25" d="M19.38,102.35c2-1.74,6-.33,7.57,1.82s-3.11,23.93-3.9,24.42S19.38,102.35,19.38,102.35Z"/><path class="cls-25" d="M8.85,98c-.22-2.49,6.7.43,7.2,3.75.35,2.3.28,20.48-.14,21.84S9.58,106.32,8.85,98Z"/><path class="cls-26" d="M119.68,84.45c-1.35,2-2.84,4.09-4.26,6-3.06,4.08-5.73,7.32-5.73,7.32s-24.78,14-59.84-1.11C26.94,86.75,15.14,81,10,74.55h0c-.11-.14-.21-.28-.32-.41a0,0,0,0,1,0,0,14.31,14.31,0,0,1-2.81-6.89A24.12,24.12,0,0,1,7,60.8,46.46,46.46,0,0,1,9.72,50.38c.57-1.46,2.39.11,3.57-2.08,1.93-3.59,3.43-11.08,4.21-12.4,3.5-6,3.21-.75,12.19-2.84,6.07-1.41,9.1-4.34,8.81-8S41.9,13.59,77,26.23c5,1.81,10,5.93,12.47,5.95,2.79,0,6.53.17,6.53.17,5.45,6.22,10.62,14.69,14.75,23v0h0v0c3.64,7.29,3.9,16.94,5.45,22.38C117.56,82.32,120.5,83.21,119.68,84.45Z"/><path class="cls-27" d="M17.5,35.9C9.28,56,21.23,82.68,64.8,79.55,113.53,76.05,96.55,33,96,32.35s-7-.15-7-.15,12.63,8.38,7.39,21.21S54,73.94,37.17,63.56C19.81,52.85,17.5,35.9,17.5,35.9Z"/><path class="cls-28" d="M42.16,20.13S33.74,31.06,58.63,43.57c23.83,12,27.24-.42,27.24-.42s-.93,14.37-23.28,8.55c-23.16-6-23.69-21.4-24-25.1S38.27,22,42.16,20.13Z"/><path class="cls-29" d="M47.59,19.32c-3.67.18-4.39,15.22,20.65,20,24.12,4.55,8.3-11.16,8.3-11.16s8.52,10.87-9.08,6.7C49.36,30.53,50,20.71,53.08,20.47S49.71,19.22,47.59,19.32Z"/><path class="cls-30" d="M37.54,28.67a156.34,156.34,0,0,0,6,22.32C47.12,61.87,59,64.21,75.06,62c15.75-2.2,20.31-7.2,20.71-14.31s-1.12-9.77-1.12-9.77,2,7.62-.39,12.9S78.48,61.92,62.81,58.46c-16.05-3.56-13.54-9.74-19-16.78S39.4,32.87,37.54,28.67Z"/><path class="cls-31" d="M66.24,36.65S55.41,31.8,53.57,25.85c-1.22-4-1.19-9.52,3.34-12.71h0l0,0c2.34-1.62,5.85-2.61,11-2.44,11.87.39,11.2-5.33,10.19-8.4h0c-.24-.77-.52-1.38-.62-1.67C77-.87,83.6-.55,85.4,12.73c.45,3.25,2.84,1,4.24,7.48C91.57,29.09,88.59,44.64,66.24,36.65Z"/><path class="cls-32" d="M9.72,50.38S-.11,73.08,50.64,84.1c45.05,9.77,59.79-10.8,61.74-17.27s-3.81-15.77-3.81-15.77,6.05,9.66,7.16,24.5c1.1,14.63-22.4,25.15-61.22,13.37C13.08,76.36,7.73,61.71,7.71,57.49A13.31,13.31,0,0,1,9.72,50.38Z"/><path class="cls-33" d="M12.77,77.4S21,88.5,66.59,96.72c42.58,7.68,53.09-12.27,53.09-12.27s-8.67,12.26-10,13.9-21.13,14-48.28,7.17C33,98.33,15.29,84,12.77,77.4Z"/><path class="cls-34" d="M53.08,20.47c-.2,2.14,9.61,11,24,8.68,14.15-2.26,8.75-15.85,8.75-15.85h0s9.81,19.16-9.35,17.92C56.8,29.94,52.64,25.1,53.08,20.47Z"/><path class="cls-35" d="M51.73,24.81S58.4,36.6,72.35,38.62c13.68,2,16.65-7,16.65-7S89.74,45,81,45.94s-17.92-7.42-23.54-9.63S51.73,24.81,51.73,24.81Z"/><path class="cls-36" d="M18.4,39.63C18,38.36,9,56.57,22.84,66c25.89,17.66,44.2,3.64,51.62.48S51.37,73,36.54,63C21.29,52.59,18.4,39.63,18.4,39.63Z"/><path class="cls-37" d="M9.72,50.38S-1.56,67.08,38,81.68c37.15,13.7,63.76-2.41,63.76-2.41S86.08,97.56,46.14,89.78C3.89,81.54,2.91,64.48,9.72,50.38Z"/><path class="cls-38" d="M41.41,84.35c6.59.38,26,4.27,42,1.56S107,75,107,75s1.27,15.17-22.61,17.86S41.41,84.35,41.41,84.35Z"/><path class="cls-38" d="M33,60.31c13.08,7.48,30,10.31,51.28,3,0,0-4.39,18.65-32.05,13.7S33,60.31,33,60.31Z"/><path class="cls-38" d="M42.7,31S39.87,43.54,57,49.89s22.72,0,23.71-.72-2.66,3.69-18-3.71S42.7,31,42.7,31Z"/><path class="cls-39" d="M78,15.77c-5.12,1.09-16-4.68-21-2.64l0,0c2.34-1.62,5.85-2.61,11-2.44,11.87.39,11.2-5.33,10.19-8.4C83.4,5,83.09,14.69,78,15.77Z"/><path class="cls-40" d="M35.76,80.43c-5-3.06,22.47,4.91,41.37-2.92s20.68-12.28,23.21-27.63,15,8.16,9.34,20S82.39,95.18,35.76,80.43Z"/><path class="cls-40" d="M49.65,93.16s11.91.5,30.5.56S116.88,88,116.88,88,98.89,108.57,49.65,93.16Z"/><path class="cls-40" d="M25.66,53.05c-4.87-11.15-2.77-14.77,4.35-15S41,56.89,53.53,61s33.85-.75,33.85-.75S50.81,80.42,25.66,53.05Z"/><path class="cls-40" d="M52,53.57c-1.86-1.18,14.9,3.24,26.47-1.47S95.3,41.91,95.3,41.91s4.76,9.72-9.23,14.41S60,59.4,52,53.57Z"/><path class="cls-40" d="M45.61,29.79c-2.5.61,1.53,7.63,16,14.42s19.57,3.67,19.57,3.67A91.69,91.69,0,0,1,63,39.3,168.25,168.25,0,0,0,45.61,29.79Z"/><path class="cls-40" d="M57.62,31.24c-2.48-2.54,11.56.43,20.67,0s10-1,10-1-.53,9.26-14,8S57.62,31.24,57.62,31.24Z"/><path class="cls-41" d="M7.42,69.81s3.69,12.55,38.4,23,62.82,5.51,62.82,5.51,0,.42-1.23,2.72S91,107,64.9,104.38C49.43,102.8,35.43,97.3,21.19,86.83S7.42,69.81,7.42,69.81Z"/><path class="cls-42" d="M88.66,82.86c-2.55-.59,3.83-5.2,8.26-3.85S92,83.62,88.66,82.86Z"/><path class="cls-43" d="M48.11,66.21c-4-1.2,9.15-3.42,17.47-2.75S61.13,70.12,48.11,66.21Z"/><path class="cls-44" d="M36.75,36.28c-3.72-2.25.64,6.27,3.3,12.13s4,6.19,4,6.19S42.58,39.82,36.75,36.28Z"/><path class="cls-44" d="M72.33,29.52c-1.84-.27,3.89-6.26,8.45-5.63S80.44,30.71,72.33,29.52Z"/><path class="cls-43" d="M78.38,38.3c-1.49-.07.26-4.11,5.69-5.12S84.57,38.59,78.38,38.3Z"/><path class="cls-42" d="M82.69,16.53c-1,2.13-.38,2.36,1,.84S83.2,15.49,82.69,16.53Z"/><path class="cls-42" d="M18.07,67.75c-2.12-.16.3,3.4,2.1,3.07S21.08,68,18.07,67.75Z"/><path class="cls-40" d="M79.22,76.62s8.31-.65,14.71-5,6-14.4,5.92-19.87a29.38,29.38,0,0,0-.91-8.11,28.62,28.62,0,0,1-1.59,17.07C93.57,69.87,79.22,76.62,79.22,76.62Z"/><path class="cls-45" d="M46.52,38.59c-.49,2.22,2.12,1.23,2-1.26S46.87,37,46.52,38.59Z"/><path class="cls-46" d="M77.43,36.81c-1,3-2.43,6.82-4.17,7.26s1.75,3.49,4.37,5.38,2.75,5.61,1.49,8.1,7.06-2.2,12.42,1.1,15.17-3,16.28-6.88S77.43,36.81,77.43,36.81Z"/><path class="cls-47" d="M110.38,45.92A16.3,16.3,0,0,1,108,51.18a16.52,16.52,0,0,1-17.73,6.58c-8.83-2.29-15.68-11.22-13.39-20a18.67,18.67,0,0,1,1.07-3c3.27-7.25,10.94-12.18,18.73-10.15C106.08,27,112.67,37.09,110.38,45.92Z"/><path class="cls-48" d="M93,29.38c2.18-4-6.83-.43-8.74,5.57s.94,8.83,4,11.54,5.76-5.35,8-4.62-4.37,8.72.12,11.46,11.15-2.23,12.79-5.84-3.09-4.66-3.16-6.3,1.91,1.18,3.4,1.39.22-5.38-.77-6.31,1,1.64-.74,2.31-8.25,3.47-12.11.34S92.32,30.57,93,29.38Z"/><path class="cls-49" d="M108.28,38.52c-4,0-7,3.13-9,2.35S94.93,34.43,93,33.12s.27-3,.8-4.38A2,2,0,0,0,93.93,27c0-.2.43-.28.43-.28s4.31.5,4.88.48,6.47,3.11,6.65,4.18S108.28,38.52,108.28,38.52Z"/><path class="cls-50" d="M99.59,41c-2.33-.94.37-4-3.58-6.56s-1.78-2.17-1.12-4.49-1.2-3.28-.28-3.34,1.76.56,2.56,0,3.57,1.31,6.71,2.3,2,4.25,4.17,8c2,3.31-2.5.59-4.93,1.3S100.72,41.4,99.59,41Z"/><path class="cls-51" d="M105.18,37.46a4.74,4.74,0,0,0-2.2-.15c-2.72.5-3.6,3.39-4.33-.06-.89-4.26-5-3.87-3.14-6.57.74-1.11,0-2.87.42-2.93,2.43-.36.07-1.87,2.86-.24,3.28,1.91,3.42.81,5.14,2,1.06.72.86.92,1.79,3.93S109.69,38.78,105.18,37.46Z"/><path class="cls-52" d="M105.18,37.46a4.74,4.74,0,0,0-2.2-.15c1.87-3.15-3.53-9.39-6.71-6.79,2.17-2.05-.27-4.64,2.52-3,3.28,1.91,3.42.81,5.14,2,1.06.72.86.92,1.79,3.93S109.69,38.78,105.18,37.46Z"/><path class="cls-52" d="M101,36.18c-2.23-.09-2.84-.75-3-3.56s3.86,1.47,4.24,2.57S101,36.18,101,36.18Z"/><path class="cls-52" d="M98.51,33.09c.38-1.26,2.43.33,2.61,2.3S98,34.9,98.51,33.09Z"/><path class="cls-53" d="M99.65,33.55c-.85-.18-1,1.5.27,2.09S101.19,33.87,99.65,33.55Z"/><path class="cls-52" d="M95.81,27.91c.47-.75,1.1.65.87,1.65s-.73,1.39-1,1.32.16-.94.17-1.78A6.19,6.19,0,0,0,95.81,27.91Z"/><path class="cls-54" d="M102.55,40c-2.28.72.14-1.85,1.57-1.92a6.36,6.36,0,0,1,3.17.6C107.67,39,105.76,39,102.55,40Z"/><path class="cls-52" d="M93.92,34c-.11-.76,3.25.57,4,2.32s0,3,.08,3.53S93.92,34,93.92,34Z"/><path class="cls-52" d="M92.32,32.08c0-1.17,2.1-.85,2.63-2.41A1.88,1.88,0,0,0,94,27.15c-.53-.24.57.56-.52,2.06A6.28,6.28,0,0,0,92.32,32.08Z"/><path class="cls-55" d="M100.2,40.69c-1,.64-1.52-.83-1.34-1.34s.82-.15,1.54-.56,1-1.48,2.93-1.44-.12.43-1.43,1.43A8.09,8.09,0,0,0,100.2,40.69Z"/><path class="cls-55" d="M95.43,30.63c.3-.72-1.3.49-1.57,1.48s1.17,1.51,2.25,2.31.2-.3-.59-1.59S95.07,31.48,95.43,30.63Z"/><path class="cls-55" d="M95.73,28.2c-.21.57-1-1.2-1.24-1.4s.55-.09,1.53,0,.83-.22,1.34-.29,1.22.24,2.63.88.6,1-.24.62-2.25-1.28-2.44-1.28,0,.61-.61.79-.8-.06-1,.11S95.81,28,95.73,28.2Z"/><path class="cls-55" d="M105.73,30.34c-1.58-1.34-.3,2.64.21,3.72s1.22,1.93,1.4,1.86a22.44,22.44,0,0,0-1-4A13.47,13.47,0,0,0,105.73,30.34Z"/><path class="cls-54" d="M77.38,42.22c0-3.76,2.85-12,6-12.51s-4.8,13,10.76,23.25c8,5.22,14.07-5.18,14.82-5.07s-5.42,11.24-18.6,7.27S77.38,42.22,77.38,42.22Z"/><path class="cls-56" d="M91,29.28c-3.18-3.51-8.75,6.17-5.18,14.77s11.56,8,15,5.94-.47-6.35-3.45-10.76-4.59-5.44-5.12-7.15A10.49,10.49,0,0,0,91,29.28Z"/><path class="cls-57" d="M108,51.18a16.52,16.52,0,0,1-17.73,6.58c-8.83-2.29-15.68-11.22-13.39-20a18.67,18.67,0,0,1,1.07-3v0c2-3.43-2.6,5.14,1.64,13.57s17.6,10.24,26.1,4.17A7.7,7.7,0,0,1,108,51.18Z"/><path class="cls-58" d="M90.08,57.34c-1.47-1,3.79-1.49,6.94-.74S95.62,59,90.08,57.34Z"/><path class="cls-54" d="M84,34c-2.66-3.84-5.82,7.08-4.33,13.48s9.67,7.58,13,8S89,49.54,85.84,44.05,84.85,35.19,84,34Z"/><path class="cls-54" d="M109.17,35.11c-1.23-1,1.17,10.59.13,13.13S113.47,43.24,109.17,35.11Z"/><path class="cls-56" d="M103.94,41.71c-.57,1.2.23,5.58-.16,8s5.54.65,5.53-3.66-.11-5.39-2.48-5.6S104.48,40.56,103.94,41.71Z"/><path class="cls-59" d="M107.5,46c-1.07,1.59-2.34-1-1.19-2.63S108.43,44.57,107.5,46Z"/><path class="cls-59" d="M92.51,36.91c-2.65-1.57-5.26,1.09-4.27,4.74,1.12,4.1,4.9.53,5.25-.8C94,38.87,93.43,37.46,92.51,36.91Z"/><path class="cls-60" d="M79.43,32s3.33-3.69,6.38-4.45,3.6,1,8.59-1.37-3.53-1.88-3.53-1.88S84.76,24.48,79.43,32Z"/><path class="cls-61" d="M79,44.09c-.65-8.36,2.25-6.73,3.71-5.17,1.82,1.94.88,7.14,2.36,10.8S79.41,49.89,79,44.09Z"/><path class="cls-46" d="M26,51.09s2.2,6.53,13,10,7.64-.28,12.69-1.44.81-3.58,6.28-8.14,3.69-6.72-3.69-12.4S26.76,45.32,26,51.09Z"/><path class="cls-62" d="M24.51,39.42A16.51,16.51,0,0,0,36.35,59.55c8.83,2.3,19.16-2.17,21.45-11a19,19,0,0,0,.54-3.16c.66-7.92-3.64-16-11.43-18C37.48,25,26.8,30.59,24.51,39.42Z"/><path class="cls-48" d="M47.76,33.42c0-4.51,6.18,2.95,4.93,9.13s-5.12,7.25-9.07,8.15-2.43-7.48-4.78-7.94-.42,9.74-5.67,10-8.67-7.37-8.34-11.32,5-2.57,5.83-4-2.24.1-3.65-.45,2.42-4.8,3.75-5.14-1.64,1-.49,2.39,5.53,7,10.42,6.18S47.75,34.78,47.76,33.42Z"/><path class="cls-49" d="M29.94,34c3.54,2,4.59,6.13,6.75,6.44s6.91-3.52,9.21-3.74,1.24-2.76,1.44-4.21.69-1.42.77-1.61-.24-.46-.24-.46-4-1.66-4.5-2-7.16-.43-7.84.42S29.94,34,29.94,34Z"/><path class="cls-63" d="M36.35,40.32c2.5.32,1.63-3.69,6.32-4s2.62-1,3.17-3.38,2.64-2.28,1.87-2.79S45.9,29.8,45.45,29s-3.76-.6-7-1.25-3.77,2.75-7.54,4.95c-3.32,2,1.9,1.74,3.68,3.54S35.15,40.16,36.35,40.32Z"/><path class="cls-64" d="M33.17,34.55a4.67,4.67,0,0,1,2,1c2.13,1.75,1.49,4.7,3.81,2,2.85-3.28,6.21-1,5.94-4.21-.11-1.33,1.38-2.51,1-2.77C44,29.07,46.82,28.9,43.6,29c-3.81.08-3.39-.95-5.46-.76-1.28.12-1.2.38-3.47,2.56S28.59,33.51,33.17,34.55Z"/><path class="cls-52" d="M33.17,34.55a4.67,4.67,0,0,1,2,1c-.1-3.67,7.65-6.49,9.16-2.68C43.43,30,46.82,28.9,43.6,29c-3.81.08-3.39-.95-5.46-.76-1.28.12-1.2.38-3.47,2.56S28.59,33.51,33.17,34.55Z"/><path class="cls-52" d="M37.45,35.47c2,1,2.84.73,4.39-1.63s-4.09-.59-5,.18S37.45,35.47,37.45,35.47Z"/><path class="cls-52" d="M41.12,34c.28-1.29-2.28-.9-3.4.74S40.72,35.82,41.12,34Z"/><path class="cls-53" d="M39.9,33.82c.83.26.11,1.78-1.25,1.7S38.41,33.36,39.9,33.82Z"/><path class="cls-52" d="M46,30.76c0-.87-1.28,0-1.56,1s0,1.56.23,1.63.31-.9.71-1.64A6.75,6.75,0,0,1,46,30.76Z"/><path class="cls-54" d="M34.24,38c1.64,1.74.78-1.68-.44-2.44a6.26,6.26,0,0,0-3.06-1C30.27,34.64,31.93,35.59,34.24,38Z"/><path class="cls-52" d="M44.69,37c.47-.61-3.11-1.08-4.58.09s-1.46,2.66-1.79,3S44.69,37,44.69,37Z"/><path class="cls-52" d="M47,36.11c.54-1-1.42-1.77-1.12-3.39a1.86,1.86,0,0,1,2-1.75c.58,0-.78.2-.55,2.05A6.23,6.23,0,0,1,47,36.11Z"/><path class="cls-55" d="M36,39.8c.53,1,1.74,0,1.83-.52s-.65-.53-1.08-1.24-.13-1.77-1.86-2.68-.1.43.56,1.94A7.65,7.65,0,0,1,36,39.8Z"/><path class="cls-55" d="M45,33.33c.09-.77.9,1.05.65,2.05s-1.76.76-3.09.93,0-.36,1.29-1.11S44.91,34.24,45,33.33Z"/><path class="cls-55" d="M45.93,31.06c-.09.6,1.47-.56,1.76-.62s-.43-.35-1.34-.73-.62-.6-1-.9-1.19-.39-2.72-.51-1,.55-.1.65,2.59,0,2.75.07-.28.54.16,1,.72.34.77.56S46,30.84,45.93,31.06Z"/><path class="cls-55" d="M36.15,28.06c2-.4-1,2.45-2,3.15s-2,1.1-2.13.95a22,22,0,0,1,2.84-3A14.13,14.13,0,0,1,36.15,28.06Z"/><path class="cls-54" d="M55.15,52.23C57,48.94,58.51,40.33,56,38.4S53.88,52.11,35.3,53.48c-9.48.7-9.77-11.37-10.48-11.64s-.73,12.46,12.72,15.4S55.15,52.23,55.15,52.23Z"/><path class="cls-56" d="M49.52,34.29c4.49-1.52,4.64,9.65-2.66,15.43s-14,1.4-16-2.13,3.49-5.32,8.24-7.73,6.66-2.51,8-3.75A10.75,10.75,0,0,1,49.52,34.29Z"/><path class="cls-57" d="M24.06,45.19A16.51,16.51,0,0,0,36.35,59.55c8.83,2.3,19.16-2.17,21.45-11a19,19,0,0,0,.54-3.16v0c-.09-4-.23,5.76-8,11.06s-20.35.4-24.82-9A7.69,7.69,0,0,0,24.06,45.19Z"/><path class="cls-58" d="M36.7,59.26c1.78-.17-2.59-3.13-5.7-4S31.06,58,36.7,59.26Z"/><path class="cls-54" d="M53.33,41.82c4.19-2.08,1.64,9-2.78,13.88s-12.13,1.91-15.24.67S41.45,53,46.86,49.72,52,42.46,53.33,41.82Z"/><path class="cls-54" d="M30.83,30.56c1.58-.3-6.18,8.69-6.5,11.41S23.11,35.57,30.83,30.56Z"/><path class="cls-56" d="M32.19,38.87c-.09,1.32-2.91,4.77-3.74,7S23.29,43.78,25.4,40s2.71-4.65,4.88-3.68S32.27,37.6,32.19,38.87Z"/><path class="cls-59" d="M27,40.84c.16,1.91,2.52.3,2.32-1.71S26.87,39.19,27,40.84Z"/><path class="cls-59" d="M44.5,40.24c3.08-.09,4.08,3.5,1.43,6.22-3,3-4.54-1.93-4.19-3.26C42.25,41.22,43.44,40.27,44.5,40.24Z"/><path class="cls-60" d="M58.35,42.26s-1.12-4.83-3.41-7-3.63-.89-6.84-5.37,4,.07,4,.07S57.32,33.14,58.35,42.26Z"/><path class="cls-61" d="M52.86,53.1c4.64-7,1.31-7-.73-6.32-2.53.81-4.23,5.81-7.3,8.29S49.64,58,52.86,53.1Z"/><path class="cls-43" d="M89.42,57.74c-1.9-.35-4.75,3.08-7.18,4s5.13,0,7.43-1.42S90.44,57.93,89.42,57.74Z"/><path class="cls-42" d="M98.12,59.55c.6-1,4.31-1.85,5.65-2.69S101.35,63.32,98.12,59.55Z"/><path class="cls-42" d="M33.76,58.88c-1.59-.55.51,1.81,4.93,3.37s4.61.15,4.61.15S37,61,33.76,58.88Z"/><path class="cls-40" d="M79.08,51.43c-1.24-1.4-.42,4-.19,5.07S81.43,54.07,79.08,51.43Z"/><path class="cls-65" d="M108.93,58.5c-1.15-4.3,5.83-6.16,7.94-.72S110.63,64.83,108.93,58.5Z"/><path class="cls-66" d="M56.13,10.16c-4.05,7.62,6.89,6.16,7,1.81S57.75,7.12,56.13,10.16Z"/><path class="cls-67" d="M68.12,22c-1.42-6.06,7.39-7.74,8.94-1.7S69.46,27.74,68.12,22Z"/><path class="cls-68" d="M66.2,75c0-6.54,11.65-8.55,11.51-.33S66.2,81.51,66.2,75Z"/><path class="cls-69" d="M80.39,76.3c-1.38-5.36,8.17-9.08,10.07-2.72S81.87,82.09,80.39,76.3Z"/><path class="cls-70" d="M30.72,79.38c-4.12-9.93,10-9.41,10.76-1.94S32.47,83.6,30.72,79.38Z"/><path class="cls-71" d="M61.18,56.63c-3.51-3.27.48-9.58,6.5-6.6S66.39,61.5,61.18,56.63Z"/><path class="cls-46" d="M108.94,56.67s.59,3.35,2.91,4.62a5.25,5.25,0,0,0,4,.67,4.34,4.34,0,0,1-2.55.61c-1.47-.11-2,1.95-4.78.13S108.94,56.67,108.94,56.67Z"/><path class="cls-46" d="M80.39,74.2s-.71,2.85,3.63,4.37a5.38,5.38,0,0,0,6.5-2.33s-.55,6.52-7,5.43S80.39,74.2,80.39,74.2Z"/><path class="cls-46" d="M66.25,75.68s1.19,3.27,6.17,3.19,5.27-4.94,5.27-4.94,1.34,3-1.55,6.28S66.94,82,66.25,75.68Z"/><path class="cls-46" d="M60.13,55.1s.95,2.17,5.06,1.8,4.73-3.26,4.73-3.26,1.9,5.33-2.78,6S60.37,58.25,60.13,55.1Z"/><path class="cls-46" d="M30.22,77.39a7.52,7.52,0,0,0,7,3.93c4.93-.27,4-4.53,4-4.53a5.23,5.23,0,0,1,.31,5.27c-1.47,2.88-6.06,3.34-8.72,1.66S30.22,77.39,30.22,77.39Z"/><path class="cls-46" d="M69.92,17.23c-2.59,2.69-.32,6.35,2.42,7.56S77,23.22,77,23.22a5.28,5.28,0,0,1-6.34,2.84C66,24.88,66.12,19.1,69.92,17.23Z"/><path class="cls-46" d="M55.4,14A4.5,4.5,0,0,0,61,14c2.9-2.23,1.93-3.41,1.93-3.41s1.7,1.94-.32,4.63S56.46,18.07,55.4,14Z"/><path class="cls-72" d="M113.08,56.49c-2.1,0-1.06,3.27.55,3S113.91,56.47,113.08,56.49Z"/><path class="cls-73" d="M64.79,50.91C62.93,53,66.43,55.53,68,53.77S66.06,49.51,64.79,50.91Z"/><path class="cls-72" d="M71.47,19.73c-1.9,1.89.9,3.27,1.83,1.89S72.15,19.05,71.47,19.73Z"/><path class="cls-72" d="M58.93,10.6c.3,2.79,2,1.6,1.89.49S58.81,9.48,58.93,10.6Z"/><path class="cls-73" d="M71.81,72.7c-2,3.15,3.45,3.2,4,2.18S73.45,70.1,71.81,72.7Z"/><path class="cls-72" d="M89,74.63c-1.24,2.22,0,3.16.8,1.43S89.37,74,89,74.63Z"/><path class="cls-72" d="M37.26,74.53c-.82,3,2.44,5.23,3.19,2S37.64,73.11,37.26,74.53Z"/><path class="cls-74" d="M8.39,96.64a51,51,0,0,0,.61,16c1.72,8.68,7.7,15.55,7.7,15.55S11.45,105.4,8.39,96.64Z"/><path class="cls-2" d="M24.37,47.12s-.29-10.87,6.92-16.48,16.15-3.09,16.15-3.09S42.2,24.73,33,28.21,23.3,43.92,24.37,47.12Z"/><path class="cls-2" d="M68.79,19.63S69,16,72.38,16a3.85,3.85,0,0,1,4,2.83S71.59,14.07,68.79,19.63Z"/><path class="cls-74" d="M19.38,102.35l3.26,29.7S17.23,112.86,19.38,102.35Z"/></g></g></g></svg>