<svg xmlns="http://www.w3.org/2000/svg" xmlns:xlink="http://www.w3.org/1999/xlink" viewBox="0 0 127.27 130.33"><defs><style>.cls-1{isolation:isolate;}.cls-2{fill:#ff9fff;}.cls-3{fill:url(#Gradient_42);}.cls-4{fill:url(#Gradient_42-2);}.cls-5{fill:url(#Gradient_40);}.cls-6{fill:url(#Gradient_103);}.cls-7{fill:#e08186;}.cls-18,.cls-41,.cls-42,.cls-7,.cls-76{opacity:0.3;}.cls-14,.cls-16,.cls-17,.cls-40,.cls-42,.cls-46,.cls-7,.cls-76,.cls-77,.cls-81{mix-blend-mode:soft-light;}.cls-8{fill:url(#Gradient_110);}.cls-9{fill:url(#Gradient_110-2);}.cls-10,.cls-11,.cls-12,.cls-13,.cls-15,.cls-18,.cls-20,.cls-21,.cls-22,.cls-36,.cls-41,.cls-43,.cls-45,.cls-47,.cls-62,.cls-74,.cls-75,.cls-79,.cls-80{mix-blend-mode:multiply;}.cls-10{fill:url(#Gradient_139);}.cls-11{fill:url(#Gradient_139-2);}.cls-12{fill:url(#Gradient_139-3);}.cls-13{fill:url(#Gradient_139-4);}.cls-14{fill:#ffb06b;}.cls-15{fill:#ac1f90;}.cls-15,.cls-16,.cls-36,.cls-45,.cls-46{opacity:0.5;}.cls-16,.cls-81{fill:#e8b1a6;}.cls-17{fill:#ffebe3;}.cls-18{fill:#f17aac;}.cls-19{fill:#fff;}.cls-20{fill:url(#Gradient_104);}.cls-21{fill:#bd1f90;}.cls-21,.cls-47{opacity:0.2;}.cls-22,.cls-40,.cls-75{opacity:0.8;}.cls-23{fill:url(#Gradient_105);}.cls-24{fill:url(#Gradient_105-2);}.cls-25{fill:url(#Gradient_105-3);}.cls-26{fill:url(#Gradient_105-4);}.cls-27{fill:url(#Gradient_105-5);}.cls-28{fill:url(#Gradient_105-6);}.cls-29{fill:url(#Gradient_105-7);}.cls-30{fill:url(#Gradient_105-8);}.cls-31{fill:url(#Gradient_105-9);}.cls-32{fill:url(#Gradient_105-10);}.cls-33{fill:url(#Gradient_105-11);}.cls-34{fill:url(#Gradient_105-12);}.cls-35{fill:url(#Gradient_87);}.cls-36{fill:#c0673b;}.cls-37{fill:#a94f37;}.cls-38{fill:url(#Gradient_106);}.cls-39{fill:url(#Gradient_40-2);}.cls-40,.cls-42{fill:#ffc997;}.cls-41{fill:url(#Gradient_107);}.cls-43{fill:url(#Gradient_109);}.cls-44{fill:url(#Gradient_113);}.cls-45{fill:#ac6590;}.cls-46{fill:#cac2ff;}.cls-47{fill:#ac7990;}.cls-48{fill:url(#Gradient_112);}.cls-49{fill:#a40027;}.cls-50{fill:url(#Gradient_111);}.cls-51{fill:url(#Gradient_111-2);}.cls-52{fill:url(#Gradient_111-3);}.cls-53{fill:url(#Gradient_111-4);}.cls-54{fill:url(#Gradient_98);}.cls-55{fill:url(#Gradient_98-2);}.cls-56{fill:url(#Gradient_98-3);}.cls-57{fill:url(#Gradient_98-4);}.cls-58{fill:url(#Gradient_98-5);}.cls-59{fill:url(#Gradient_98-6);}.cls-60{fill:url(#Gradient_98-7);}.cls-61{fill:url(#Gradient_98-8);}.cls-62{fill:#ab0074;}.cls-63{fill:url(#Gradient_98-9);}.cls-64{fill:url(#Gradient_98-10);}.cls-65{fill:url(#Gradient_98-11);}.cls-66{fill:url(#Gradient_98-12);}.cls-67{fill:url(#Gradient_98-13);}.cls-68{fill:url(#Gradient_98-14);}.cls-69{fill:url(#Gradient_98-15);}.cls-70{fill:url(#Gradient_98-16);}.cls-71{fill:url(#Gradient_98-17);}.cls-72{fill:url(#Gradient_98-18);}.cls-73{fill:url(#Gradient_98-19);}.cls-74,.cls-79{fill:#ca0092;}.cls-74{opacity:0.6;}.cls-75{fill:#e63388;}.cls-76,.cls-77,.cls-78{fill:#ffc1ff;}.cls-79{opacity:0.71;}.cls-80{fill:url(#Gradient_108);}</style><linearGradient id="Gradient_42" x1="-130.77" y1="24.42" x2="-27.89" y2="24.42" gradientTransform="translate(136.42 100.33) rotate(8.75)" gradientUnits="userSpaceOnUse"><stop offset="0" stop-color="#f94aae"/><stop offset="0.07" stop-color="#a43148"/><stop offset="0.09" stop-color="#a63345"/><stop offset="0.19" stop-color="#b03d34"/><stop offset="0.32" stop-color="#b84429"/><stop offset="0.5" stop-color="#bc4822"/><stop offset="1" stop-color="#bd4920"/></linearGradient><linearGradient id="Gradient_42-2" x1="-133.41" y1="18.93" x2="-25.82" y2="18.93" xlink:href="#Gradient_42"/><linearGradient id="Gradient_40" x1="-132.41" y1="5.03" x2="-27" y2="5.03" gradientTransform="translate(136.42 100.33) rotate(8.75)" gradientUnits="userSpaceOnUse"><stop offset="0" stop-color="#f94aae"/><stop offset="0.08" stop-color="#db6248"/><stop offset="0.17" stop-color="#e96d3c"/><stop offset="0.31" stop-color="#f57532"/><stop offset="0.5" stop-color="#fc7b2c"/><stop offset="1" stop-color="#fe7c2a"/></linearGradient><radialGradient id="Gradient_103" cx="-56.86" cy="-13.06" r="74.95" gradientTransform="translate(136.42 100.33) rotate(8.75)" gradientUnits="userSpaceOnUse"><stop offset="0.45" stop-color="#772224"/><stop offset="0.56" stop-color="#691a22"/><stop offset="0.76" stop-color="#561020"/><stop offset="0.89" stop-color="#4f0c1f"/><stop offset="0.99" stop-color="#880c5c"/></radialGradient><linearGradient id="Gradient_110" x1="-236.42" y1="-71.34" x2="-236.42" y2="-117.81" gradientTransform="matrix(0.95, 0.3, -0.3, 0.95, 257.56, 221.52)" gradientUnits="userSpaceOnUse"><stop offset="0" stop-color="#ffbba4"/><stop offset="1" stop-color="#ffc7b0"/></linearGradient><linearGradient id="Gradient_110-2" x1="-246.79" y1="-88.07" x2="-246.79" y2="-114.3" xlink:href="#Gradient_110"/><linearGradient id="Gradient_139" x1="-235.97" y1="-67.19" x2="-235.97" y2="-103.11" gradientTransform="matrix(0.95, 0.3, -0.3, 0.95, 257.56, 221.52)" gradientUnits="userSpaceOnUse"><stop offset="0" stop-color="#8b0059"/><stop offset="0.21" stop-color="#a9397f"/><stop offset="0.49" stop-color="#ce7eac"/><stop offset="0.73" stop-color="#e8b0ce"/><stop offset="0.9" stop-color="#f9cfe2"/><stop offset="1" stop-color="#ffdbea"/></linearGradient><linearGradient id="Gradient_139-2" x1="-272.75" y1="-96.82" x2="-220.1" y2="-96.82" xlink:href="#Gradient_139"/><linearGradient id="Gradient_139-3" x1="-252.34" y1="-105.68" x2="-228.76" y2="-105.68" xlink:href="#Gradient_139"/><linearGradient id="Gradient_139-4" x1="-260.21" y1="-106.83" x2="-209.5" y2="-106.83" xlink:href="#Gradient_139"/><linearGradient id="Gradient_104" x1="-131.31" y1="8.86" x2="-29.09" y2="8.86" gradientTransform="translate(136.42 100.33) rotate(8.75)" gradientUnits="userSpaceOnUse"><stop offset="0" stop-color="#680059"/><stop offset="0.21" stop-color="#90397f"/><stop offset="0.49" stop-color="#bf7eac"/><stop offset="0.73" stop-color="#e2b0ce"/><stop offset="0.9" stop-color="#f7cfe2"/><stop offset="1" stop-color="#ffdbea"/></linearGradient><linearGradient id="Gradient_105" x1="-151.31" y1="-89.27" x2="-151.31" y2="-91.99" gradientTransform="translate(214.15 244.63) rotate(16.8)" gradientUnits="userSpaceOnUse"><stop offset="0" stop-color="#ffdbea"/><stop offset="0.1" stop-color="#f9cfe2"/><stop offset="0.27" stop-color="#e8b0ce"/><stop offset="0.51" stop-color="#ce7eac"/><stop offset="0.79" stop-color="#a9397f"/><stop offset="1" stop-color="#8b0059"/></linearGradient><linearGradient id="Gradient_105-2" x1="-159.1" y1="-78.73" x2="-159.1" y2="-90.37" xlink:href="#Gradient_105"/><linearGradient id="Gradient_105-3" x1="-150.78" y1="-77.61" x2="-150.78" y2="-82.35" xlink:href="#Gradient_105"/><linearGradient id="Gradient_105-4" x1="-228.71" y1="-71.44" x2="-228.71" y2="-78.81" xlink:href="#Gradient_105"/><linearGradient id="Gradient_105-5" x1="-195.98" y1="-69.94" x2="-195.98" y2="-71.93" xlink:href="#Gradient_105"/><linearGradient id="Gradient_105-6" x1="-166.3" y1="-75.73" x2="-166.3" y2="-77.71" xlink:href="#Gradient_105"/><linearGradient id="Gradient_105-7" x1="-147.63" y1="-84.47" x2="-147.63" y2="-88.59" xlink:href="#Gradient_105"/><linearGradient id="Gradient_105-8" x1="-145.31" y1="-97.59" x2="-145.31" y2="-99.79" xlink:href="#Gradient_105"/><linearGradient id="Gradient_105-9" x1="-214.59" y1="-69.6" x2="-214.59" y2="-72.26" xlink:href="#Gradient_105"/><linearGradient id="Gradient_105-10" x1="-196.63" y1="-73.62" x2="-196.63" y2="-79.03" xlink:href="#Gradient_105"/><linearGradient id="Gradient_105-11" x1="-188.82" y1="-69.68" x2="-188.82" y2="-72.79" xlink:href="#Gradient_105"/><linearGradient id="Gradient_105-12" x1="-238.73" y1="-74.61" x2="-238.73" y2="-82.05" xlink:href="#Gradient_105"/><linearGradient id="Gradient_87" x1="-375.41" y1="-173.88" x2="-378.79" y2="-181.9" gradientTransform="matrix(0.55, 0.34, -0.52, 0.85, 216.51, 363.63)" gradientUnits="userSpaceOnUse"><stop offset="0" stop-color="#772224"/><stop offset="0.25" stop-color="#691a22"/><stop offset="0.69" stop-color="#561020"/><stop offset="1" stop-color="#4f0c1f"/></linearGradient><linearGradient id="Gradient_106" x1="91.77" y1="128.43" x2="89.09" y2="122.09" gradientTransform="matrix(1.16, -0.1, 0.08, 1, -40.08, -3.65)" gradientUnits="userSpaceOnUse"><stop offset="0" stop-color="#a93d20"/><stop offset="0.32" stop-color="#a53823"/><stop offset="0.69" stop-color="#992a2a"/><stop offset="1" stop-color="#891833"/></linearGradient><linearGradient id="Gradient_40-2" x1="-61.66" y1="22.22" x2="-54.39" y2="22.22" xlink:href="#Gradient_40"/><linearGradient id="Gradient_107" x1="-130.69" y1="32.57" x2="-28.4" y2="32.57" gradientTransform="translate(136.42 100.33) rotate(8.75)" gradientUnits="userSpaceOnUse"><stop offset="0" stop-color="#ffdbea"/><stop offset="0.1" stop-color="#f7cfe2"/><stop offset="0.27" stop-color="#e2b0ce"/><stop offset="0.51" stop-color="#bf7eac"/><stop offset="0.79" stop-color="#90397f"/><stop offset="1" stop-color="#680059"/></linearGradient><linearGradient id="Gradient_109" x1="-106.08" y1="-29.37" x2="-51.76" y2="-50.23" gradientTransform="translate(136.42 100.33) rotate(8.75)" gradientUnits="userSpaceOnUse"><stop offset="0" stop-color="#8b0059"/><stop offset="0.14" stop-color="#971459"/><stop offset="0.53" stop-color="#b64558"/><stop offset="0.83" stop-color="#ca6457"/><stop offset="1" stop-color="#d17057"/></linearGradient><linearGradient id="Gradient_113" x1="-54.35" y1="-34.32" x2="-54.35" y2="-86.32" gradientTransform="translate(136.42 100.33) rotate(8.75)" gradientUnits="userSpaceOnUse"><stop offset="0" stop-color="#637a00"/><stop offset="1" stop-color="#316847"/></linearGradient><linearGradient id="Gradient_112" x1="-80.57" y1="-62.53" x2="-25.51" y2="-62.53" gradientTransform="translate(136.42 100.33) rotate(8.75)" gradientUnits="userSpaceOnUse"><stop offset="0" stop-color="#639100"/><stop offset="1" stop-color="#90ae00"/></linearGradient><linearGradient id="Gradient_111" x1="-911.27" y1="-202.86" x2="-911.27" y2="-219.97" gradientTransform="translate(452.84 875.24) rotate(52.75)" gradientUnits="userSpaceOnUse"><stop offset="0" stop-color="#c0001d"/><stop offset="1" stop-color="#f01230"/></linearGradient><linearGradient id="Gradient_111-2" x1="-903.84" y1="-201.18" x2="-903.84" y2="-220.18" xlink:href="#Gradient_111"/><linearGradient id="Gradient_111-3" x1="-895.45" y1="-201.03" x2="-895.45" y2="-217.16" xlink:href="#Gradient_111"/><linearGradient id="Gradient_111-4" x1="-922.22" y1="-203.96" x2="-922.22" y2="-218.35" xlink:href="#Gradient_111"/><linearGradient id="Gradient_98" x1="-923.6" y1="-210.21" x2="-923.6" y2="-226.49" gradientTransform="translate(452.84 875.24) rotate(52.75)" gradientUnits="userSpaceOnUse"><stop offset="0" stop-color="#eb001d"/><stop offset="1" stop-color="#ff4040"/></linearGradient><linearGradient id="Gradient_98-2" x1="-925.46" y1="-200.37" x2="-925.46" y2="-218.43" xlink:href="#Gradient_98"/><linearGradient id="Gradient_98-3" x1="-911.33" y1="-212.68" x2="-911.33" y2="-229.47" xlink:href="#Gradient_98"/><linearGradient id="Gradient_98-4" x1="-898.09" y1="-212.96" x2="-898.09" y2="-227.81" xlink:href="#Gradient_98"/><linearGradient id="Gradient_98-5" x1="-97.05" y1="-45.2" x2="-97.05" y2="-58.1" gradientTransform="translate(136.42 100.33) rotate(8.75)" xlink:href="#Gradient_98"/><linearGradient id="Gradient_98-6" x1="-98.06" y1="-55.94" x2="-98.06" y2="-70.58" gradientTransform="translate(136.42 100.33) rotate(8.75)" xlink:href="#Gradient_98"/><linearGradient id="Gradient_98-7" x1="-888.93" y1="-209.87" x2="-888.93" y2="-224.94" xlink:href="#Gradient_98"/><linearGradient id="Gradient_98-8" x1="-57.97" y1="-40.24" x2="-57.97" y2="-56.46" gradientTransform="translate(136.42 100.33) rotate(8.75)" xlink:href="#Gradient_98"/><linearGradient id="Gradient_98-9" x1="-78.65" y1="-34.77" x2="-78.65" y2="-40.83" gradientTransform="translate(136.42 100.33) rotate(8.75)" xlink:href="#Gradient_98"/><linearGradient id="Gradient_98-10" x1="-71.83" y1="-35.65" x2="-71.83" y2="-45.04" gradientTransform="translate(136.42 100.33) rotate(8.75)" xlink:href="#Gradient_98"/><linearGradient id="Gradient_98-11" x1="-94.41" y1="-39.96" x2="-94.41" y2="-51.51" gradientTransform="translate(136.42 100.33) rotate(8.75)" xlink:href="#Gradient_98"/><linearGradient id="Gradient_98-12" x1="-914.86" y1="-184.59" x2="-914.86" y2="-200.5" xlink:href="#Gradient_98"/><linearGradient id="Gradient_98-13" x1="-87.61" y1="-35.83" x2="-87.61" y2="-44.57" gradientTransform="translate(136.42 100.33) rotate(8.75)" xlink:href="#Gradient_98"/><linearGradient id="Gradient_98-14" x1="-904.33" y1="-181.98" x2="-904.33" y2="-199.66" xlink:href="#Gradient_98"/><linearGradient id="Gradient_98-15" x1="-894.17" y1="-185.89" x2="-894.17" y2="-201.66" xlink:href="#Gradient_98"/><linearGradient id="Gradient_98-16" x1="-918.92" y1="-195.6" x2="-918.92" y2="-211.72" xlink:href="#Gradient_98"/><linearGradient id="Gradient_98-17" x1="-910.47" y1="-190.42" x2="-910.47" y2="-207.02" xlink:href="#Gradient_98"/><linearGradient id="Gradient_98-18" x1="-890.95" y1="-197.95" x2="-890.95" y2="-213.29" xlink:href="#Gradient_98"/><linearGradient id="Gradient_98-19" x1="-899.05" y1="-192.34" x2="-899.05" y2="-208.98" xlink:href="#Gradient_98"/><linearGradient id="Gradient_108" x1="-100.23" y1="-46.96" x2="-68.27" y2="-59.23" gradientTransform="translate(136.42 100.33) rotate(8.75)" gradientUnits="userSpaceOnUse"><stop offset="0" stop-color="#8b0059"/><stop offset="0.14" stop-color="#981869"/><stop offset="0.43" stop-color="#b85591"/><stop offset="0.85" stop-color="#ecb6d2"/><stop offset="1" stop-color="#ffdbea"/></linearGradient></defs><g class="cls-1"><g id="Layer_2" data-name="Layer 2"><g id="objects"><path class="cls-2" d="M3.29,109.47C-3.06,99.65,1.48,85,3,82.73a18.39,18.39,0,0,1,4-4.16s2.29-14.23,8-21.6,9.28-8.64,9.28-8.64.08-3.39,6.08-8.54c5.09-4.37,6.65-.58,8.14-1.45s3.28-3.65,4.48-5.78S41.4,24.78,45.4,19.05s5-6.2,5-6.2a16.05,16.05,0,0,1,7.19-11C64.08-2.38,74,1.48,74.89,5.34S51,128,51,128,11,121.43,3.29,109.47Z"/><path class="cls-3" d="M105.21,119.54a8.79,8.79,0,0,1-.74,1.68c-3.87,6.72-19,12.51-53.44,6.75-24-4-47.35-13.69-47.56-23a5.87,5.87,0,0,1,.45-2.34C12.63,81.72,110.05,103.65,105.21,119.54Z"/><path class="cls-4" d="M4.61,107.69c-3.17-3.09-2.78-19.54.45-23.17S106.84,98.79,109,100s-.86,16.75-5.19,21.57-18.11,7-53.9,1.55S4.61,107.69,4.61,107.69Z"/><path class="cls-5" d="M5.94,83.14C-1.95,93,26.86,103.91,54.15,108.89c39.36,7.19,56.78-1.06,54.69-9.77C104.77,82.1,20.86,64.45,5.94,83.14Z"/><path class="cls-6" d="M7,85.9C3.9,78.51,21.16,31.5,64.79,38.22S110,92,106.92,99.5c-2.1,5-24.38,9-56.88,3C22.74,97.52,8.19,88.76,7,85.9Z"/><path class="cls-7" d="M49.39,40.51C27.44,47.79,45.73,83.43,81,91S111.08,35.63,49.39,40.51Z"/><path class="cls-8" d="M23.22,58.68c-6.85,2.23-5,5.37,14.54,16.64,15.33,8.84,42.24,13.86,54.5,5,6.13-4.44,8.56-16.58,5.61-23.2S85.12,43.56,72.61,39.2c-25-8.71-34.24,2.15-34.24,2.15a45.38,45.38,0,0,1,43.25,6.38c16.26,12.18-1.74,27.39-25.26,23.72S33.38,55.38,23.22,58.68Z"/><path class="cls-9" d="M36,42.15s-8.81-2.3-9.61,6.09S57.86,69.42,71.83,62.67C89.12,54.31,71,39,59.56,39.78c-19.63,1.28.14,11.57,4.8,13.08s1.89-5.47,5.77-1.93-4.32,7.65-20.3,1.77-15.41-9.26-15.41-9.26Z"/><path class="cls-10" d="M23.22,58.68c-3.58,1.6-1.31,6,4.43,9.83,6.13,4.06,15.53,10.08,28.9,13.16,23.86,5.49,32.79-.77,37.54-5.41S99.1,63,99.1,63s4.19,13-8.85,20.89c-9.86,6-26.69,5.56-41.12.93-13.2-4.23-26.76-13-29.79-19S23.22,58.68,23.22,58.68Z"/><path class="cls-11" d="M26.41,48.24s4.46,10.9,28.35,14.83,24.15-9.85,24.15-9.85,2.33,9.53-10.78,12S25.17,58.08,26.41,48.24Z"/><path class="cls-12" d="M53.44,40.81c-2.41,2.51,3.31,8.6,9,10s3.7-1.74,6.06-2.21,2.89,3.17,2.53,4.49c0,0-.75-1.68-2-2s1.39,3.49-5.22,2.69-14.24-6.68-14.56-9.53S53.44,40.81,53.44,40.81Z"/><path class="cls-13" d="M42.17,40.06S51,34.85,64.46,37.58,87.92,47.79,89.58,54.29s-5.35,10.94-5.35,10.94a13.27,13.27,0,0,0-.84-13.68C78.62,44.52,60.68,35.54,42.17,40.06Z"/><path class="cls-14" d="M59.37,72.41c-11.65-.8,3.19,9.76,16.88,9.48S92.66,75.51,93,72.7,72.31,73.3,59.37,72.41Z"/><path class="cls-14" d="M44.38,50.53c-12.53-5.6-1.27,12.08,13,12.91s16.08-4.26,16.73-5.08S63.85,59.23,44.38,50.53Z"/><path class="cls-14" d="M58.79,40.66c-7.19.36-.4,6.9,4.2,8.19s-.17-3.1,6.66-.34S73.8,39.9,58.79,40.66Z"/><path class="cls-15" d="M17.26,91.93c-8.9-8.18-7.89-14.78,14.13-10.58s45,21.28,45.33,23.19S35.74,102.94,17.26,91.93Z"/><path class="cls-16" d="M78.67,89.34c-5.39,3,7.47,5.58,14.73,1.94S97.57,78.75,78.67,89.34Z"/><path class="cls-16" d="M56.73,65.12c-8.62-1.78.17,5.18,9,6.14s15.65-2.89,18.57-8.12-4-8.77-4.37-8.22.15,3.87-7.46,8.59S56.73,65.12,56.73,65.12Z"/><path class="cls-17" d="M26.81,47.8c.32.39,4.5-4.89,4.5-4.89S26.75,42.16,26.81,47.8Z"/><path class="cls-17" d="M22.44,60c-1.26,2.51,5.63-.2,6.41-.42S24.45,56.3,22.44,60Z"/><path class="cls-18" d="M31.48,60.38c-4.25-1.18-5.85,5.69,3.31,11.81S53,73.62,54.12,73,42,69.35,31.48,60.38Z"/><path class="cls-18" d="M33.66,43.2C31.94,42,28.44,45.51,29.07,49s8.81,8.67,11.78,9.63-3.9-6.36-2.22-9.06S35.11,47.52,33.66,43.2Z"/><path class="cls-19" d="M95.59,56.13c-1.52-1.19-1.47,3.68-.13,4.59S98.07,58.08,95.59,56.13Z"/><path class="cls-19" d="M66.52,42c-3,.2.94,2.32,2.21,2.24S69.53,41.8,66.52,42Z"/><path class="cls-19" d="M76.58,52c-1.16,1.31-.76,2.71.79,2S77.17,51.29,76.58,52Z"/><path class="cls-20" d="M6.91,82.08S22.75,98,56.33,102.62s50.59-3.12,50.59-3.12,4.3,11.28-49.62,4.72S4.2,86.54,6.91,82.08Z"/><path class="cls-21" d="M27.05,121.94c-11.41-6.25-12.44-20.1-12.25-22.56s13.43,6.2,39,10.59,5.31,18.41-.14,18S27.05,121.94,27.05,121.94Z"/><g class="cls-22"><path class="cls-23" d="M94.59,113.11c-2.21,1.82,1.44,3.22,2.22,1.88A1.49,1.49,0,0,0,94.59,113.11Z"/><path class="cls-24" d="M80.06,115.35c-4.86,7.5,10.28,11.63,13,3.92S83.5,110.05,80.06,115.35Z"/><path class="cls-25" d="M90.36,125.55c-2.71-4.08,7.63-4,5.58-.89S91.21,126.84,90.36,125.55Z"/><path class="cls-26" d="M13.16,104.86c-2,6.59,6,6.5,8,1.94S13.83,102.64,13.16,104.86Z"/><path class="cls-27" d="M45.75,120.56c.07-1.7,1.78-2,2.36-.62S45.73,121.07,45.75,120.56Z"/><path class="cls-28" d="M75.83,123.59c.08-1.7,1.78-2,2.36-.62S75.81,124.11,75.83,123.59Z"/><path class="cls-29" d="M95.19,117.56c-2.44,3.25,4.15,4.78,5.61,2.5S96.4,116,95.19,117.56Z"/><path class="cls-30" d="M102,107.44c-.9,1.51,2.9,2.68,3.33,1.26S102.57,106.38,102,107.44Z"/><path class="cls-31" d="M28.67,113.53c-.86.67-.37,1.55.75,2.56S30.25,112.29,28.67,113.53Z"/><path class="cls-32" d="M43.5,114.4c-1.78-1.88,2.15-3.91,5.84-1.93s3.18,5.9,2.71,6.23S44.53,115.48,43.5,114.4Z"/><path class="cls-33" d="M52.52,121.74c-1,1.41,1.3,2.18,2.64.8S54.47,119,52.52,121.74Z"/><path class="cls-34" d="M7,98.81c-4.92,3.41-1.39,5.36.82,5.41s3.82-3.16,3.82-3.16S12.93,94.68,7,98.81Z"/></g><path class="cls-35" d="M102.87,80c-2.6-.23-6.86,6-2.59,7.73S105.62,80.24,102.87,80Z"/><path class="cls-36" d="M102.87,80c-1.63-.31-4,3.68-2.37,5.08s3.82-.63,3.84-1.56S103.8,80.17,102.87,80Z"/><path class="cls-37" d="M98.79,84.05c.26-.65,1,2.87,2.24,3.24,2.35.69,2.72-2.66,2.88-2.45s-.89,3.75-3.07,3.41S98.33,85.23,98.79,84.05Z"/><path class="cls-38" d="M73.5,109.29c-3.21,1.19-3.27,7.14,3.13,6S76.91,108,73.5,109.29Z"/><path class="cls-36" d="M73.5,109.29c-2.14.65-1.78,4.31,1.28,4.31s4-2.35,3.25-2.92S74.73,108.91,73.5,109.29Z"/><path class="cls-39" d="M72,113.85c-.22-.53,3.4,1.25,5.2.82,3.28-.79,1-3,1.41-3a2.09,2.09,0,0,1-.88,3.65C74.86,116.27,72.37,114.8,72,113.85Z"/><path class="cls-40" d="M21.78,98.75s15.89,6.46,30.3,9.22,16.21.3,22.16,0,3.6,2.12,11.64,3,12.56-2.25,16.09-4.15-11.44.37-34.28-.78S21.78,98.75,21.78,98.75Z"/><path class="cls-41" d="M104.47,121.22c-3.87,6.72-19,12.51-53.44,6.75-24-4-47.35-13.69-47.56-23,3.11,3,18.39,18.18,53.59,23.1,39.37,5.5,47.4-7.36,47.4-7.36Z"/><path class="cls-42" d="M59.91,128c-.62-1.86,8.32-9.68,9.66-11.14s8.07,1.4,8.94,2.12,2,3.76,1.08,3.56-1.57-2.77-3.46-.89-.42,4.14,1.86,3.5,1-1.92,2.13-2,4.13,1.31,7.84,2.14S86,128,77.43,128.79A71.33,71.33,0,0,1,59.91,128Z"/><path class="cls-42" d="M92.64,111.87c-.17.51,3.64.29,5,.77s-.42,2.69-.86,3,4.26.64,5.2,2.64-1.93,3.42-3,3.69-2.76-1.73-2.76.07.74,2,.18,3.13,5-.93,7.52-4.49,3.43-9,3.89-11.92.35.69-2.37,1.63-2-1.11-3.9-.78S92.64,111.87,92.64,111.87Z"/><path class="cls-21" d="M20.74,109c-1.3,1.56,1.5,5.35,2.49,6.18s3.51-2.62,5.37-2.78,1.18,3.49.58,4.77-1.6-.11-1.86,1,3.38,2.76,8.67,4,5.73-4.06,6.8-5-4.15-1.81-2.23-4.45,9.29-2,4.76-3.55-10-3.69-18-6.1S24.23,104.84,20.74,109Z"/><path class="cls-43" d="M95.11,53c-2.28-.54-7.89.85-8.52,4.48S80.4,55.17,71.88,56.2s-7.34.19-23.78-4.71S28.37,44.77,44,39.36,86.87,44.62,95.11,53Z"/><path class="cls-19" d="M61.63,56.52c-2.5.13.59,2.56,4.05,2S65.2,56.32,61.63,56.52Z"/><path class="cls-16" d="M32.89,77.8c-5.16-.82,2.88,4.48,13.84,8.27s13.73,2.11,13.73,2.11S41.35,82.56,32.89,77.8Z"/><path class="cls-44" d="M127,15.56C124.1,19,120.14,34.51,106,44S79.83,55.74,70.38,55.44a17.05,17.05,0,0,1-7.56-4.59c-9.63-10.24-3.63-31.44,18.59-38.24,21.21-6.48,39.42-3,44.48.49C127.17,14,127.6,14.86,127,15.56Z"/><path class="cls-45" d="M127,15.56C124.1,19,120.14,34.51,106,44S79.83,55.74,70.38,55.44a17.05,17.05,0,0,1-7.56-4.59l.28-.3s21.13,3.08,35.46-4.64,22.94-26.63,25.62-31.22a3.88,3.88,0,0,1,1.71-1.59C127.17,14,127.6,14.86,127,15.56Z"/><path class="cls-46" d="M63.53,47.54c.73-8.59,18.7-23.63,32.19-29.12s25.5-4.45,26.47-4-9.71,23-25.86,31.12S63.53,47.54,63.53,47.54Z"/><path class="cls-47" d="M71,34.78C65,38.69,72.46,18,83.65,13s17.06.3,17.57.86S76.62,31.08,71,34.78Z"/><path class="cls-48" d="M62.94,48.06s12.84-16,27.67-24.63,33.46-10.58,33.46-10.58-14.61-1.33-33.43,8S62.94,48.06,62.94,48.06Z"/><path class="cls-47" d="M63.78,49.08s5-9.58,17.65-19.13,29.3-14.5,29.3-14.5-16,4.19-27.77,17-6.8,13.41-8.88,16.39S63.78,49.08,63.78,49.08Z"/><path class="cls-49" d="M59.34,5.11C62.08-5.76,94,32,89.57,42.88,85.67,52.52,52,34,59.34,5.11Z"/><path class="cls-50" d="M60.93,24.33c.51-2.36,9.93-10.84,12.69-10.48S75.15,21.54,70.83,27C66.85,32,60.71,25.29,60.93,24.33Z"/><path class="cls-51" d="M64.81,31c-.25-3.54,11-11.27,15.59-8.9S74.24,36.49,69,35.36C64,34.29,64.81,31,64.81,31Z"/><path class="cls-52" d="M68.92,37.79c.17-1.61,8.62-7.69,13.08-7.32,4.66.39,2.28,7.09-4.84,10.18C70.7,43.45,68.92,37.79,68.92,37.79Z"/><path class="cls-53" d="M59.78,21.37c2.16,2.55,5.68-2,7.23-8.44,1.65-6.93-1.9-8.12-4.14-7.68S55.69,16.53,59.78,21.37Z"/><path class="cls-54" d="M64.7,13.83c-2.59,9.86,9.7-.13,11.53-5.59,1.94-5.79-11-7.58-13.62-6.38S67.15,4.51,64.7,13.83Z"/><path class="cls-55" d="M63.78,17.55c7.61-5.27,1.75-15.44-2.47-15.13-4.05.3-11.62,8.08-9.7,14C52.66,19.61,61.6,19.06,63.78,17.55Z"/><path class="cls-56" d="M70.24,20.71c-1.38-5.3,4.24-8.52,6-12.47,1.84-4.13,10.93,2.45,8.54,9.66C82.55,24.61,70.49,21.68,70.24,20.71Z"/><path class="cls-57" d="M87.55,19.74c-4.17-1.76-9.28,2.77-11,6.34S82.7,35.82,89.41,32C96.8,27.81,89.27,20.47,87.55,19.74Z"/><path class="cls-58" d="M52.34,36.84a3.35,3.35,0,0,1-.26.93h0l-.33.56a1.46,1.46,0,0,1-.16.21A8.22,8.22,0,0,1,49.88,40a4,4,0,0,1-3.66.65.28.28,0,0,1-.12,0c-.94-.47-1.69-1.61-2-3.74-.44-3.6.58-6.38,1.93-7.81a1.14,1.14,0,0,1,.15-.16A2.66,2.66,0,0,1,48.39,28l.22,0,.1,0a1.53,1.53,0,0,1,.27.11,2.26,2.26,0,0,1,.2.13l.2.18a5.73,5.73,0,0,1,.81,1,14.72,14.72,0,0,1,1.55,3.18c.1.29.2.59.29.89,0,0,0,.07,0,.11v0a10.18,10.18,0,0,1,.3,1.56A6.14,6.14,0,0,1,52.34,36.84Z"/><path class="cls-59" d="M52.14,23.28l0,.14c-.08.34-.14.62-.19.78s-.07.16-.11.28-.24.49-.42.83a19.91,19.91,0,0,1-1.06,1.83,14.25,14.25,0,0,1-1,1.36,6.61,6.61,0,0,1-1,1,2.38,2.38,0,0,1-.67.42l-.18.06-.08,0c-.51.09-1-.22-1.26-1.12l-.06-.19c0-.1-.06-.2-.08-.3C44.56,21.94,48.5,17,51,16.06a2.08,2.08,0,0,1,.44-.12h0a1.08,1.08,0,0,1,1.38,1,0,0,0,0,0,0,0v.14a5.94,5.94,0,0,1,0,.69s0,0,0,.06C52.75,19.25,52.42,21.83,52.14,23.28Z"/><path class="cls-60" d="M78,35.14c1.44-3.72,11.14-6.44,14.91-4.08,6.7,4.21,0,11.08-4.32,13.43C84.83,46.52,78,35.14,78,35.14Z"/><path class="cls-61" d="M87.88,49.4h0a18.25,18.25,0,0,1-3.16,1c-.59.13-1.19.23-1.82.31a13.4,13.4,0,0,1-4.1.05l-.12,0-.09,0h-.07c-.89-.22-1.36-.6-1.52-1.06a1.45,1.45,0,0,1,0-.9c0-.06,0-.12.05-.18a3.06,3.06,0,0,1,.33-.65,1.42,1.42,0,0,1,.2-.28,4.72,4.72,0,0,1,.81-.86,3.18,3.18,0,0,0,.41-.41,2.17,2.17,0,0,0,.31-.37,4.76,4.76,0,0,0,.74-1.59,19.66,19.66,0,0,0,.42-5.48c0-.14,0-.29,0-.43,0-.44,0-.9,0-1.39,0-.21,0-.42,0-.63a.81.81,0,0,1,.12-.46,1.37,1.37,0,0,1,.71-.54,6.55,6.55,0,0,1,2.69-.28l.5,0a20,20,0,0,1,3.42.64h0c.55.16,1.1.33,1.65.53a20.63,20.63,0,0,1,2.1.93l.4.23c.26.14.51.29.75.44s.35.24.52.36l0,0c.17.12.35.23.51.36a4,4,0,0,1,.31.27c.12.09.23.19.33.28l.06.06h0q.33.32.63.66C96.84,42.14,93.89,47,87.88,49.4Z"/><path class="cls-62" d="M66.39,14.68c.09,2.89,5.08,0,5.08,0s-1.75,2.58.68,5.71,9.06.8,9.06.8S75.78,26.05,77.94,29s8.6,1.41,8.6,1.41-5.8,1.65-6.35,3,7.48,2.49,7.48,2.49l-4.5,1-11,.81L61.48,28,63.3,17.71Z"/><path class="cls-63" d="M70.81,49.72c-.21.83-1.2,2.33-3.67,3.3-.26.11-.55.21-.85.31h0a1.75,1.75,0,0,1-.36.11c-.33.09-.69.17-1.06.24a7.69,7.69,0,0,1-1.38.13c-2,0-4.37-.66-5-2.16a1.05,1.05,0,0,1-.1-.3s0,0,0,0,0-.17,0-.25a1.43,1.43,0,0,1,.45-1.18A2,2,0,0,1,59,49.6a11.19,11.19,0,0,1,1.89-.9,4.1,4.1,0,0,1,1.18-.2,37.59,37.59,0,0,1,5.61,0,15.26,15.26,0,0,1,2.18.29h0a2.39,2.39,0,0,1,.84.31C70.86,49.21,70.89,49.42,70.81,49.72Z"/><path class="cls-64" d="M79.83,48a4.86,4.86,0,0,1-1.17,2.51l-.15.19a10.21,10.21,0,0,1-4,2.52,11.42,11.42,0,0,1-4.4.72h-.36l-.53,0a14,14,0,0,1-3-.55c-.42-.14-.81-.28-1.16-.42l-.14,0h0c-.25-.11-.49-.23-.7-.34h0c-.65-.34-1-.68-1-.88,0,0,0,0,0,0h0a.22.22,0,0,1,0-.13c.21-.53,1.35-1.35,2.93-2.19.48-.26,1-.51,1.54-.76s1.31-.61,2-.89c.27-.11.55-.22.84-.32l.09,0,.88-.29.15,0,.44-.14.31-.09c.9-.26,1.82-.48,2.69-.64a16.08,16.08,0,0,1,2-.26,5.25,5.25,0,0,1,1.94.18,1.06,1.06,0,0,1,.53.36.46.46,0,0,1,.09.15.92.92,0,0,1,.08.25,1.32,1.32,0,0,1,0,.23,3.06,3.06,0,0,1,.05.56A3.91,3.91,0,0,1,79.83,48Z"/><path class="cls-65" d="M53.87,41.77a7.44,7.44,0,0,1-1.39,2.95,4.67,4.67,0,0,1-.92.91,6.91,6.91,0,0,1-.65.41,4.28,4.28,0,0,1-.72.28,2.53,2.53,0,0,1-.6.11h0c-2.28.2-4.13-2.14-3.52-5.48,0-.13,0-.25.07-.37s0-.11,0-.15v0A6.69,6.69,0,0,1,46.73,39a7.4,7.4,0,0,1,1.21-1.6l.07-.08,0,0a7.17,7.17,0,0,1,3.25-1.89,3.71,3.71,0,0,1,1.07-.11,1.8,1.8,0,0,1,.86.23,1,1,0,0,1,.35.24.2.2,0,0,1,.09.11h0a.31.31,0,0,1,.07.09v0a3.52,3.52,0,0,1,.37,1.24,12.39,12.39,0,0,1,0,3A13.44,13.44,0,0,1,53.87,41.77Z"/><path class="cls-66" d="M57.49,24.1c-.05-.07-4.66-.9-5.56.1S46.26,29,46.62,35.28c.18,3,3.94,3.35,7.89.12C56.16,34.05,57.92,24.58,57.49,24.1Z"/><path class="cls-67" d="M62.11,48.5a2.78,2.78,0,0,1-.26.37,6.58,6.58,0,0,1-1.64,1.48l-.33.22-.2.11c-.19.13-.4.24-.61.36l-.09,0a4.4,4.4,0,0,1-.58.25h0A9.47,9.47,0,0,1,52.78,51c-2.32-.82-4.08-2.42-3.23-4.58,0,0,0,0,0-.06h0a1.2,1.2,0,0,1,.29-.38,2.86,2.86,0,0,1,.69-.49h0a9.94,9.94,0,0,1,1.91-.78c3.19-1,7.87-1.49,8.2-1.08.06.07.11.15.19.23l.17.19.1.12c.14.16.3.34.45.54A3.2,3.2,0,0,1,62.11,48.5Z"/><path class="cls-68" d="M64.35,34.52c-.7-1.41-8.24-.61-9.69.25s-4.9,5.48-4.39,9.64,6.14,3.74,11.78-.93C63.87,42,65.53,36.88,64.35,34.52Z"/><path class="cls-69" d="M72.63,42.08c-.6-.88-7.9.14-10.58,1.4S58,47.41,58.28,48.94c.54,2.76,7.9,4.82,13-1.59C72.08,46.35,73.18,42.88,72.63,42.08Z"/><path class="cls-70" d="M64.27,25.25c2,.34,4.72-11.66-4.52-12.83C54.67,11.78,51,19.11,51,23S60.42,24.62,64.27,25.25Z"/><path class="cls-71" d="M65.91,24.93c-4.15-2.45-9-2.1-11.95,2.21-2.78,4-2.28,8.88,2.47,9.87,1.46.31,6.18-.6,7.13-1.32C65.54,34.19,70.5,27.64,65.91,24.93Z"/><path class="cls-72" d="M76.76,34.62c-2.51,0-2.42,5.07-4.61,8.27-2.09,3-.63,7.56,7.23,4.27C88.24,43.45,85.7,34.68,76.76,34.62Z"/><path class="cls-73" d="M69.69,30.82c-2,0-3.21.88-6.65,4a6.37,6.37,0,0,0-1.32,8.36c1.21,1.6,5.17,2.17,10.43-.25C74.8,41.67,79.29,30.63,69.69,30.82Z"/><path class="cls-74" d="M51.84,32.34a3.34,3.34,0,0,0-.1.36c.1.29.2.59.29.89A5.33,5.33,0,0,1,51.84,32.34Zm31.83,18a1.69,1.69,0,0,1-1.34-.86c-.58-1.24.19-4.14.19-4.14h0l-.06,0-.91.52c-.47.25-1.07.56-1.76.88s-1.45.61-2.23.88c-1.89.62-3.82.89-4.8-.08a3.79,3.79,0,0,1-.62-.75,2.83,2.83,0,0,1-.26-.48,3.44,3.44,0,0,1-.06-2.5,4.86,4.86,0,0,1,.51-1l0,0-.12.06-.48.21-.54.23-.58.22-1,.34-.2.06-.08,0-.3.08-1,.21a8,8,0,0,1-4.19-.12l-.05,0h0a3.83,3.83,0,0,1-1.16-.66l-.17-.15-.12-.1c-2.2-2.18-.79-5.67-.17-6.92.15-.31.25-.49.25-.49L62,36l-.12.06a11.33,11.33,0,0,1-3,.89l-.56.06h-.34a5.08,5.08,0,0,1-3.86-1.35l-.27-.27-.3-.37c-2.3-3.09,1-7.77,2.6-9.76.45-.53.77-.88.83-1l-.28.09h-.06a6.72,6.72,0,0,1-1.74.22,3.74,3.74,0,0,1-2.31-.78,3.21,3.21,0,0,1-.52-.57,3.55,3.55,0,0,1-.45-.82c-.52-1.28.16-3,1.16-4.62a.17.17,0,0,0,0-.05c.12-.18.22-.35.34-.51,1.49-2.25,3.37-4.12,3-4h0s0,0,0,0c-1,.53-5.4,2.54-4-2.49a12,12,0,0,0-.76,2.93,1.32,1.32,0,0,0,0,.27,5.59,5.59,0,0,0,.12,1.91,2.61,2.61,0,0,0,.16.44h0l0,.05a13.52,13.52,0,0,0-1.18,5,22.93,22.93,0,0,1-2,6.6c-.49,1.15-.87,1.94-.87,1.94a.14.14,0,0,0,0,.06,12.61,12.61,0,0,0-1.87,5.31,14.72,14.72,0,0,0,.53,5.11.9.9,0,0,1,.05.16s0,0,0,.05a4,4,0,0,1,1.07-1.87c.8-.77,3.84-.78,3.84-.78a11,11,0,0,0-1.25,2,7.71,7.71,0,0,0-.69,5.29,4.41,4.41,0,0,0,.38,1.1h0a.12.12,0,0,1,0,0c.07.22.45,1.08,2.34,2.59.07,0,.13.11.2.15a9.26,9.26,0,0,0,3.4,1.56,11.77,11.77,0,0,0,2.1.3c.23,0,.46,0,.65,0s.6,0,.79,0l.31,0a1,1,0,0,0,.32.76,7,7,0,0,0,3.77,2,8,8,0,0,0,2.44-.37,1.75,1.75,0,0,0,.36-.11c-.09,0-.46,0-1.22-.41a.1.1,0,0,0-.06,0h0a.92.92,0,0,1-.4-.47,1.06,1.06,0,0,1,.2-.92h-.1l-.38.07-.25,0a2.73,2.73,0,0,1-.41,0l-.42,0h-.47a1.75,1.75,0,0,1-.32,0,5.16,5.16,0,0,1-.77-.13l-.1,0a4.62,4.62,0,0,1-1.67-.84l-.24-.2a2.87,2.87,0,0,1-.6-.77,4.23,4.23,0,0,1,0-3.46,6,6,0,0,1,.34-.77s0,0,0,0l-.14.07c-1,.49-6.21,2.83-8.22.7l-.1-.11-.1-.12-.05-.07a2.5,2.5,0,0,1-.21-.35c-1.43-2.58.36-5.66.73-6.25,0,0,0,0,0,0l0-.06a4.49,4.49,0,0,1,2.78-1.94,3.48,3.48,0,0,1,2,.31,9.2,9.2,0,0,1,4.23,4,.08.08,0,0,1,0,0,6.15,6.15,0,0,1,.5,1.25,3.61,3.61,0,0,1,.15.61.82.82,0,0,1-.15.48,9,9,0,0,1-1.42,1.46,0,0,0,0,0,0,0h0l.31-.13h0a9.57,9.57,0,0,1,1.84-.5,4.23,4.23,0,0,1,1.33,0l.41.08,0,0,1.06.22h0c1.9.43,4.79,1.18,5.91,2a1.64,1.64,0,0,1,.27.24.72.72,0,0,1,.19.35.5.5,0,0,1-.07.29l-.14.19a3.52,3.52,0,0,1-.47.49l-.11.1-.15.12A24,24,0,0,1,66,51.17,38.45,38.45,0,0,0,70,50l.78-.24a36.9,36.9,0,0,1,3.78-.81h0c.85-.15,1.7-.28,2.4-.36s1.2-.13,1.55-.15h.19l.21,0c.43.14-.09,1.56-.3,2.08a.71.71,0,0,1-.08.2h0l.21,0a22.26,22.26,0,0,0,5.79-.35L85,50.3A5.37,5.37,0,0,1,83.67,50.3ZM46.61,34.87a5.88,5.88,0,0,1,0-1.38l0-.16a14,14,0,0,1,1.07-3.41c.3-.64.62-1.27,1-1.84a17.66,17.66,0,0,1,1.21-1.78c.19-.23.38-.44.56-.62a1.44,1.44,0,0,1,.92-.37c1-.12,2.37.27,2.59.79,0,0,0,0,0,0a4.62,4.62,0,0,1-.48,1.66c-.31.81-.73,1.8-1.11,2.81-.22.58-.43,1.17-.58,1.72a3.34,3.34,0,0,0-.1.36,6.48,6.48,0,0,0-.24,1.62,2.73,2.73,0,0,1-.21,1.08c-.5,1.35-1.93,2.38-3.12,2a.52.52,0,0,1-.16-.06,1.91,1.91,0,0,1-.84-.77l0,0a3.72,3.72,0,0,1-.19-.34,3.66,3.66,0,0,1-.34-1.27S46.61,34.88,46.61,34.87Z"/><path class="cls-75" d="M81.56,46v0a17.22,17.22,0,0,1-1.69,1.49l-1,.79-.11.08c-.53.4-1.12.82-1.76,1.23a24.14,24.14,0,0,1-5,2.58,12.64,12.64,0,0,1-3.68.79H68a8.94,8.94,0,0,1-.9,0,15.8,15.8,0,0,1-2-.11.22.22,0,0,1-.08,0,27.78,27.78,0,0,1-5.35-1.14c-.43-.13-.87-.28-1.3-.44l-.07,0c-.23-.08-.47-.17-.7-.27a23,23,0,0,1-7.44-4.71L49.86,46c-.23-.23-.46-.47-.67-.72a16.85,16.85,0,0,1-3-4.63h0s0,0,0-.05a.78.78,0,0,1-.05-.14c-1.4-3.45-1.07-7.57-.07-11.4,0-.13.06-.24.09-.35a49.79,49.79,0,0,1,5.41-12.25l0-.05,1.2.67.06,0,.34.19c-.12.16-.22.33-.34.51a.17.17,0,0,1,0,.05c-1,1.61-1.68,3.34-1.16,4.62a3.55,3.55,0,0,0,.45.82,3.21,3.21,0,0,0,.52.57,3.74,3.74,0,0,0,2.31.78,6.72,6.72,0,0,0,1.74-.22h.06l.28-.09c-.06.07-.38.42-.83,1-1.63,2-4.9,6.67-2.6,9.76l.3.37.27.27A5.08,5.08,0,0,0,58.05,37h.34l.56-.06a11.33,11.33,0,0,0,3-.89L62,36l.39-.2s-.1.18-.25.49c-.62,1.25-2,4.74.17,6.92l.12.1.17.15a3.83,3.83,0,0,0,1.16.66h0l.05,0a8,8,0,0,0,4.19.12l1-.21.3-.08.08,0,.2-.06,1-.34.58-.22.54-.23.48-.21.12-.06,0,0a4.86,4.86,0,0,0-.51,1,3.44,3.44,0,0,0,.06,2.5,2.83,2.83,0,0,0,.26.48,3.79,3.79,0,0,0,.62.75c1,1,2.91.7,4.8.08.78-.27,1.55-.58,2.23-.88s1.29-.63,1.76-.88A.56.56,0,0,1,81.56,46Z"/><path class="cls-76" d="M69.69,30.82c-2.62-.48-6.29,5-4.77,10s6.61,1.74,9-.36S76.47,32.06,69.69,30.82Z"/><path class="cls-76" d="M79.2,35.93c-2,.25-4.34,6.63-3,8.94S81.54,47,84.16,43,81.67,35.63,79.2,35.93Z"/><path class="cls-76" d="M88.83,37.38c-3,.36-3.26,4.7-2.2,7.88s7.74.19,8.14-3.16S92.07,37,88.83,37.38Z"/><path class="cls-76" d="M66.28,14.09c-.61,1.25-7-3.14-8.18-5.9s1.33-5.74,3.21-5.77S68.74,9,66.28,14.09Z"/><path class="cls-76" d="M79.72,8.52c-2-.74-7,5.21-5.11,8.47s7.62,3.5,9.19,1.86S83,9.76,79.72,8.52Z"/><path class="cls-76" d="M86.33,20.1c-.84-.21-4.45.17-4.36,3.32s7.14,7.06,9.17,5.09S89.52,20.88,86.33,20.1Z"/><path class="cls-77" d="M63.79,44.12c-.76-1.4,5-1.24,5.64-1S66.38,45,63.79,44.12Z"/><path class="cls-77" d="M60,50.08c-.79-1.75,5.23-1.3,6.51-.7S62.74,53.32,60,50.08Z"/><path class="cls-77" d="M54,35.33c-.79-1.75,5.23-1.31,6.51-.7S56.81,38.56,54,35.33Z"/><path class="cls-77" d="M72.47,46.83c-.52-1.14,3.4-.85,4.24-.46S74.28,48.93,72.47,46.83Z"/><path class="cls-77" d="M51.32,49.65c-.17-1.24,3.51.14,4.2.76S52.47,52.18,51.32,49.65Z"/><path class="cls-77" d="M70.14,53.93h-.36l-.53,0a5,5,0,0,1-1.58-.41c0-.18.14-.33.37-.46a11.09,11.09,0,0,1,3.91-.8c1.23-.11,2.36-.13,2.76-.12C75.51,52.1,73,53.88,70.14,53.93Z"/><path class="cls-77" d="M83.67,50.34c-.27-1.19,5.43-2.93,6.43-3.19S87.6,50.89,83.67,50.34Z"/><path class="cls-77" d="M51.43,46c-.65-.74,3.33-.82,4.17-.28S53.11,48,51.43,46Z"/><path class="cls-78" d="M73.57,35.68c-1.68-.74-2.7,2.13-1.39,3.21S75.47,36.52,73.57,35.68Z"/><path class="cls-77" d="M64.14,26.31c-.32-1.81-3.28-1.06-3.44.63S64.5,28.36,64.14,26.31Z"/><path class="cls-77" d="M57.67,40.24c-.52-2.06-3.87-1-3.93,1S58.25,42.59,57.67,40.24Z"/><path class="cls-77" d="M50.63,27.11c-1.43,0-2.91,2.73-1.89,3.17S52.26,27.16,50.63,27.11Z"/><path class="cls-78" d="M82.26,40c-.46-.52-1.36,1.44-.58,1.74S82.72,40.48,82.26,40Z"/><path class="cls-78" d="M90.65,39.17c-.69,0,.24,2,1,1.56S91.35,39.15,90.65,39.17Z"/><path class="cls-76" d="M59.41,15.85c-1.34-1.87,2.79-1.54,3.92.52S61.27,18.44,59.41,15.85Z"/><path class="cls-78" d="M72.59,5.27C71.36,3.84,71.44,7,72.32,7.56S73.3,6.1,72.59,5.27Z"/><path class="cls-76" d="M70,20.88c-1.73-3-3.71,1.61-2.1,3.8S71.77,24,70,20.88Z"/><path class="cls-76" d="M75.41,25.23c-1.6-2-4.91,1.14-5.07,2.78s3.19,2.31,4.43,1.85S76,25.92,75.41,25.23Z"/><path class="cls-79" d="M57.93,37c1.57-.21,2.4.85,2.64,2.23S61.78,36.43,62,36,59.65,36.9,57.93,37Z"/><path class="cls-79" d="M68,44.47a2.27,2.27,0,0,1,2.93,1.11l1.41-2.78Z"/><path class="cls-79" d="M54,24.75c.86-.13,1,1.92,1,1.92l1.77-2.27Z"/><path class="cls-79" d="M83.17,36.87A8.05,8.05,0,0,1,86,39.94c.84,1.88-2.38,4.25-2.38,4.25S87.05,40.17,83.17,36.87Z"/><path class="cls-79" d="M75.6,35.08s.05,5.38-3.28,7.72C72.32,42.8,77.78,39.83,75.6,35.08Z"/><path class="cls-79" d="M65.24,24.56a9.06,9.06,0,0,0-8.18-.25A6.28,6.28,0,0,1,65.24,24.56Z"/><path class="cls-79" d="M56.17,13.3a7.34,7.34,0,0,1,9,2.33S61.85,9.66,56.17,13.3Z"/><path class="cls-79" d="M46.76,36c0,1.21-.59,2.81-.29,3s1.33-1,2-1.09S47.4,37.09,46.76,36Z"/><path class="cls-79" d="M58,48.87c-.66.07-2.7-1.07-2.59-1.6S58.1,46,58.73,45.82,58.23,48.84,58,48.87Z"/><path class="cls-79" d="M62.42,51.57a11.58,11.58,0,0,0,1.94,1c.34,0,.41-1.09.41-1.09A6.68,6.68,0,0,1,62.42,51.57Z"/><path class="cls-79" d="M94.32,39.32a2.64,2.64,0,0,0,.27-2c-.35-1-5.37-1-5.37-1A19.57,19.57,0,0,1,94.32,39.32Z"/><path class="cls-79" d="M76.23,8.24a17.17,17.17,0,0,1-4,5.71S75.67,11.6,76.23,8.24Z"/><path class="cls-79" d="M64,3.46a11.12,11.12,0,0,1,4.09,6,4.85,4.85,0,0,1-2.43,5.74S70.21,11,64,3.46Z"/><path class="cls-77" d="M78.71,28.45c-.09-1.71,5.8.95,5.92,1.73S78.86,31.23,78.71,28.45Z"/><path class="cls-77" d="M72.76,20.74c-.76-1,5.09-.3,5.56.34S74.29,22.66,72.76,20.74Z"/><path class="cls-80" d="M81.38,47.19l-2.8,3.51h-.07a10.21,10.21,0,0,1-4,2.52,11.42,11.42,0,0,1-4.4.72h-.36l-.53,0a14,14,0,0,1-3-.55h0a1.75,1.75,0,0,1-.36.11,8,8,0,0,1-2.44.37c-2,0-4.37-.66-5-2.16a1.05,1.05,0,0,1-.1-.3A9.47,9.47,0,0,1,52.78,51c-2.32-.82-4.08-2.42-3.23-4.58-2.28.2-4.13-2.14-3.52-5.48,0-.13,0-.25.07-.37-.94-.47-1.69-1.61-2-3.74-.44-3.6.58-6.38,1.93-7.81,0-.13.06-.24.09-.35s-.06-.2-.08-.3C44.56,21.94,48.5,17,51,16.06l.6.32h0a14.64,14.64,0,0,0-.3,4.27,6.24,6.24,0,0,0,.81,2.76,3.08,3.08,0,0,0,.32.48,3.66,3.66,0,0,0,2.21,1.28h0a7.43,7.43,0,0,0-.66.91,11.24,11.24,0,0,0-2.15,6.24A5.33,5.33,0,0,0,52,33.59s0,.07,0,.11v0a4,4,0,0,0,1.16,1.79,4.19,4.19,0,0,0,.33.26l.11.09h0l.11.09a12.65,12.65,0,0,0,6,1.62l.46,0a4.5,4.5,0,0,0-.07.49,9.63,9.63,0,0,0,.18,3.4.08.08,0,0,1,0,0,5.83,5.83,0,0,0,.5,1.25,4.28,4.28,0,0,0,.71.95.14.14,0,0,0,.06.07,4.16,4.16,0,0,0,1.69,1l0,0a6.61,6.61,0,0,0,1.06.22h0l5.46.63A3.06,3.06,0,0,0,70.38,47c.05.09.12.18.18.28a2.61,2.61,0,0,0,.28.31.43.43,0,0,0,.12.11,5,5,0,0,0,3.63,1.18h0A15.28,15.28,0,0,0,77,48.73a9.8,9.8,0,0,0,1.6-.33,1.67,1.67,0,0,0,.3-.08c.36-.1.68-.22,1-.33A7.3,7.3,0,0,0,81.38,47.19Z"/><path class="cls-81" d="M81.47,59.63c-4.71,5.42,1.47,5.29,2.45,2.28S82.23,58.76,81.47,59.63Z"/><path class="cls-81" d="M9.63,75.1c-.77,7,3.35,1.52,4.78-1.41S10.44,67.6,9.63,75.1Z"/></g></g></g></svg>