<svg xmlns="http://www.w3.org/2000/svg" xmlns:xlink="http://www.w3.org/1999/xlink" viewBox="0 0 112.22 145.58"><defs><style>.cls-1{isolation:isolate;}.cls-2{fill:#ff9fff;}.cls-3{fill:url(#Gradient_94);}.cls-4{fill:url(#Gradient_80);}.cls-5{fill:url(#Gradient_30);}.cls-6{fill:url(#Gradient_94-2);}.cls-7{fill:#ae4648;}.cls-8{opacity:0.69;}.cls-41,.cls-44,.cls-45,.cls-51,.cls-54,.cls-55,.cls-58,.cls-60,.cls-64,.cls-71,.cls-72,.cls-73,.cls-74,.cls-75,.cls-77,.cls-8,.cls-80,.cls-81,.cls-87{mix-blend-mode:multiply;}.cls-9{fill:url(#Gradient_105);}.cls-10{fill:url(#Gradient_105-2);}.cls-11{fill:url(#Gradient_105-3);}.cls-12{fill:url(#Gradient_105-4);}.cls-13{fill:url(#Gradient_105-5);}.cls-14{fill:url(#Gradient_105-6);}.cls-15{fill:url(#Gradient_105-7);}.cls-16{fill:url(#Gradient_105-8);}.cls-17{fill:url(#Gradient_105-9);}.cls-18{fill:url(#Gradient_105-10);}.cls-19{fill:url(#Gradient_105-11);}.cls-20{fill:url(#Gradient_105-12);}.cls-21{fill:url(#Gradient_105-13);}.cls-22{fill:url(#Gradient_105-14);}.cls-23{fill:url(#Gradient_105-15);}.cls-24{fill:url(#Gradient_105-16);}.cls-25{fill:url(#Gradient_105-17);}.cls-26{fill:url(#Gradient_105-18);}.cls-27{fill:url(#Gradient_105-19);}.cls-28{fill:url(#Gradient_105-20);}.cls-29{fill:url(#Gradient_105-21);}.cls-30{fill:url(#Gradient_105-22);}.cls-31{fill:url(#Gradient_105-23);}.cls-32{fill:url(#Gradient_105-24);}.cls-33{fill:url(#Gradient_105-25);}.cls-34{fill:url(#Gradient_105-26);}.cls-35{fill:url(#Gradient_105-27);}.cls-36{fill:url(#Gradient_105-28);}.cls-37{fill:url(#Gradient_105-29);}.cls-38{fill:url(#Gradient_105-30);}.cls-39{fill:url(#Gradient_105-31);}.cls-40{fill:url(#Gradient_105-32);}.cls-41,.cls-51,.cls-55,.cls-58,.cls-64{fill:#ac1f90;}.cls-41,.cls-44,.cls-45,.cls-46,.cls-47,.cls-54,.cls-59,.cls-63,.cls-71,.cls-77,.cls-81{opacity:0.5;}.cls-42{fill:url(#Gradient_48);}.cls-43{fill:url(#Gradient_48-2);}.cls-44{fill:#a01f90;}.cls-45{fill:url(#Gradient_139);}.cls-46{fill:#ffcfb1;}.cls-46,.cls-47,.cls-48,.cls-49,.cls-57,.cls-61,.cls-62,.cls-63,.cls-70,.cls-79,.cls-88{mix-blend-mode:soft-light;}.cls-47{fill:#ffffc3;}.cls-48{fill:#ffd098;}.cls-48,.cls-57,.cls-58,.cls-61{opacity:0.3;}.cls-49{fill:#ffe3b1;opacity:0.44;}.cls-50,.cls-62{fill:#fff;}.cls-51{opacity:0.2;}.cls-52{fill:#f1824d;}.cls-53{fill:#f16e4d;}.cls-54{fill:url(#Gradient_105-33);}.cls-55{opacity:0.74;}.cls-56{fill:url(#Gradient_21);}.cls-57{fill:#e07a98;}.cls-59{mix-blend-mode:screen;fill:url(#Gradient_26);}.cls-60,.cls-72,.cls-73,.cls-74,.cls-75{opacity:0.92;}.cls-60{fill:url(#Gradient_147);}.cls-61,.cls-63{fill:#e06886;}.cls-65{fill:url(#Gradient_16);}.cls-66{fill:url(#Gradient_34);}.cls-67{opacity:0.62;fill:url(#Gradient_13);}.cls-68{fill:url(#Gradient_15);}.cls-69{fill:url(#Gradient_13-2);}.cls-70,.cls-78{fill:#ffadbf;}.cls-71{fill:#ac178e;}.cls-72{fill:url(#Gradient_147-2);}.cls-73{fill:url(#Gradient_147-3);}.cls-74{fill:url(#Gradient_147-4);}.cls-75{fill:url(#Gradient_147-5);}.cls-76{fill:#ff8f21;}.cls-77{fill:#b6178e;}.cls-79{fill:#ff83c7;}.cls-80{fill:url(#Gradient_12);}.cls-81{fill:#c7178d;}.cls-82{fill:url(#Gradient_20);}.cls-83{fill:url(#Gradient_20-2);}.cls-84{fill:url(#Gradient_25);}.cls-85{fill:url(#Gradient_11);}.cls-86{fill:url(#Gradient_25-2);}.cls-87{fill:#c47ab0;}.cls-88{fill:#ffccbf;}.cls-89{fill:#ffb195;}</style><linearGradient id="Gradient_94" x1="-117.33" y1="34.12" x2="-25.91" y2="34.12" gradientTransform="translate(124.01 99.35) rotate(8.55)" gradientUnits="userSpaceOnUse"><stop offset="0" stop-color="#f94aae"/><stop offset="0.02" stop-color="#e94795"/><stop offset="0.05" stop-color="#d34272"/><stop offset="0.08" stop-color="#c23e58"/><stop offset="0.11" stop-color="#b83c48"/><stop offset="0.13" stop-color="#b53b43"/><stop offset="0.38" stop-color="#c04d41"/><stop offset="1" stop-color="#d9753b"/></linearGradient><linearGradient id="Gradient_80" x1="-116.62" y1="14.56" x2="-26.5" y2="14.56" gradientTransform="translate(124.01 99.35) rotate(8.55)" gradientUnits="userSpaceOnUse"><stop offset="0" stop-color="#f9637c"/><stop offset="0.19" stop-color="#f56f69"/><stop offset="0.5" stop-color="#f07f50"/><stop offset="0.78" stop-color="#ec8940"/><stop offset="1" stop-color="#eb8c3b"/></linearGradient><linearGradient id="Gradient_30" x1="-117.37" y1="9.73" x2="-25.9" y2="9.73" gradientTransform="translate(124.01 99.35) rotate(8.55)" gradientUnits="userSpaceOnUse"><stop offset="0" stop-color="#ffa477"/><stop offset="1" stop-color="#ffd1a9"/></linearGradient><linearGradient id="Gradient_94-2" x1="-121.22" y1="-9.61" x2="-22.02" y2="-9.61" xlink:href="#Gradient_94"/><linearGradient id="Gradient_105" x1="-54.28" y1="4.69" x2="-55.45" y2="-3.63" gradientTransform="translate(124.01 99.35) rotate(8.55)" gradientUnits="userSpaceOnUse"><stop offset="0" stop-color="#ffdbea"/><stop offset="0.1" stop-color="#f9cfe2"/><stop offset="0.27" stop-color="#e8b0ce"/><stop offset="0.51" stop-color="#ce7eac"/><stop offset="0.79" stop-color="#a9397f"/><stop offset="1" stop-color="#8b0059"/></linearGradient><linearGradient id="Gradient_105-2" x1="-54.76" y1="-5.73" x2="-55.17" y2="-8.64" xlink:href="#Gradient_105"/><linearGradient id="Gradient_105-3" x1="-73.88" y1="11.81" x2="-74.29" y2="8.9" xlink:href="#Gradient_105"/><linearGradient id="Gradient_105-4" x1="-87.26" y1="13.64" x2="-88.73" y2="3.22" xlink:href="#Gradient_105"/><linearGradient id="Gradient_105-5" x1="-100.83" y1="0.16" x2="-102.01" y2="-8.24" xlink:href="#Gradient_105"/><linearGradient id="Gradient_105-6" x1="-112.99" y1="-7.58" x2="-114.44" y2="-17.81" xlink:href="#Gradient_105"/><linearGradient id="Gradient_105-7" x1="-105.32" y1="-9.6" x2="-106.04" y2="-14.71" xlink:href="#Gradient_105"/><linearGradient id="Gradient_105-8" x1="-64.38" y1="-9.74" x2="-65.29" y2="-16.2" xlink:href="#Gradient_105"/><linearGradient id="Gradient_105-9" x1="-51.41" y1="-11.81" x2="-51.87" y2="-15.07" xlink:href="#Gradient_105"/><linearGradient id="Gradient_105-10" x1="-30.61" y1="-1.07" x2="-31.82" y2="-9.63" xlink:href="#Gradient_105"/><linearGradient id="Gradient_105-11" x1="-27.27" y1="-10.76" x2="-28.29" y2="-18.03" xlink:href="#Gradient_105"/><linearGradient id="Gradient_105-12" x1="-26.31" y1="0.41" x2="-26.81" y2="-3.17" xlink:href="#Gradient_105"/><linearGradient id="Gradient_105-13" x1="-94.98" y1="39.17" x2="-96.05" y2="31.58" xlink:href="#Gradient_105"/><linearGradient id="Gradient_105-14" x1="-91.31" y1="30.18" x2="-91.6" y2="28.08" xlink:href="#Gradient_105"/><linearGradient id="Gradient_105-15" x1="-61.08" y1="55.61" x2="-62.12" y2="48.3" xlink:href="#Gradient_105"/><linearGradient id="Gradient_105-16" x1="-47.1" y1="44.3" x2="-47.68" y2="40.16" xlink:href="#Gradient_105"/><linearGradient id="Gradient_105-17" x1="-34.2" y1="42.9" x2="-34.86" y2="38.27" xlink:href="#Gradient_105"/><linearGradient id="Gradient_105-18" x1="-34.73" y1="36.23" x2="-35.67" y2="29.56" xlink:href="#Gradient_105"/><linearGradient id="Gradient_105-19" x1="-92.36" y1="53.91" x2="-93.65" y2="44.78" xlink:href="#Gradient_105"/><linearGradient id="Gradient_105-20" x1="-111.85" y1="32.67" x2="-112.49" y2="28.11" xlink:href="#Gradient_105"/><linearGradient id="Gradient_105-21" x1="-108.56" y1="27.39" x2="-108.73" y2="26.19" xlink:href="#Gradient_105"/><linearGradient id="Gradient_105-22" x1="-97.13" y1="27.88" x2="-97.5" y2="25.3" xlink:href="#Gradient_105"/><linearGradient id="Gradient_105-23" x1="-71.34" y1="45.98" x2="-72.04" y2="41.07" xlink:href="#Gradient_105"/><linearGradient id="Gradient_105-24" x1="-59.32" y1="-0.02" x2="-60.1" y2="-5.56" xlink:href="#Gradient_105"/><linearGradient id="Gradient_105-25" x1="-51.51" y1="-9" x2="-51.84" y2="-11.36" xlink:href="#Gradient_105"/><linearGradient id="Gradient_105-26" x1="-34.37" y1="-7.44" x2="-35.2" y2="-13.35" xlink:href="#Gradient_105"/><linearGradient id="Gradient_105-27" x1="-38.57" y1="32.22" x2="-39.02" y2="29.03" xlink:href="#Gradient_105"/><linearGradient id="Gradient_105-28" x1="-37.37" y1="49.96" x2="-38.08" y2="44.98" xlink:href="#Gradient_105"/><linearGradient id="Gradient_105-29" x1="-91.22" y1="41.57" x2="-91.56" y2="39.18" xlink:href="#Gradient_105"/><linearGradient id="Gradient_105-30" x1="-80.48" y1="31.34" x2="-81.3" y2="25.61" xlink:href="#Gradient_105"/><linearGradient id="Gradient_105-31" x1="-107.77" y1="51.37" x2="-107.77" y2="39.68" xlink:href="#Gradient_105"/><linearGradient id="Gradient_105-32" x1="-86.76" y1="47.16" x2="-86.76" y2="42.53" xlink:href="#Gradient_105"/><linearGradient id="Gradient_48" x1="-117.84" y1="-0.47" x2="-117.84" y2="-8.15" gradientTransform="translate(124.01 99.35) rotate(8.55)" gradientUnits="userSpaceOnUse"><stop offset="0" stop-color="#d9693b"/><stop offset="1" stop-color="#9b2048"/></linearGradient><linearGradient id="Gradient_48-2" x1="-27.27" y1="35.26" x2="-27.27" y2="26.7" xlink:href="#Gradient_48"/><linearGradient id="Gradient_139" x1="-71.94" y1="25.58" x2="-71.94" y2="10.35" gradientTransform="translate(124.01 99.35) rotate(8.55)" gradientUnits="userSpaceOnUse"><stop offset="0" stop-color="#8b0059"/><stop offset="0.21" stop-color="#a9397f"/><stop offset="0.49" stop-color="#ce7eac"/><stop offset="0.73" stop-color="#e8b0ce"/><stop offset="0.9" stop-color="#f9cfe2"/><stop offset="1" stop-color="#ffdbea"/></linearGradient><linearGradient id="Gradient_105-33" x1="-79.14" y1="17.37" x2="-79.14" y2="6.64" xlink:href="#Gradient_105"/><linearGradient id="Gradient_21" x1="-70.14" y1="21.11" x2="-70.14" y2="-55.5" gradientTransform="translate(124.01 99.35) rotate(8.55)" gradientUnits="userSpaceOnUse"><stop offset="0" stop-color="#4f0c1f"/><stop offset="0.31" stop-color="#561020"/><stop offset="0.75" stop-color="#691a22"/><stop offset="1" stop-color="#772224"/></linearGradient><linearGradient id="Gradient_26" x1="-122.24" y1="-25.09" x2="-109.72" y2="-25.09" gradientTransform="translate(124.01 99.35) rotate(8.55)" gradientUnits="userSpaceOnUse"><stop offset="0" stop-color="#844fbd"/><stop offset="0.54" stop-color="#3b2354"/><stop offset="1"/></linearGradient><linearGradient id="Gradient_147" x1="-90.49" y1="-40.49" x2="-22.34" y2="-40.49" gradientTransform="translate(124.01 99.35) rotate(8.55)" gradientUnits="userSpaceOnUse"><stop offset="0" stop-color="#fff"/><stop offset="0.09" stop-color="#fbf3f9"/><stop offset="0.24" stop-color="#f1d4e9"/><stop offset="0.45" stop-color="#e0a2ce"/><stop offset="0.7" stop-color="#c85caa"/><stop offset="0.99" stop-color="#ab057b"/><stop offset="1" stop-color="#a90079"/></linearGradient><linearGradient id="Gradient_16" x1="-69.67" y1="-32.73" x2="-69.67" y2="-81.8" gradientTransform="translate(124.01 99.35) rotate(8.55)" gradientUnits="userSpaceOnUse"><stop offset="0" stop-color="#a1003d"/><stop offset="1" stop-color="#ac0020"/></linearGradient><linearGradient id="Gradient_34" x1="-70.24" y1="-41.23" x2="-70.24" y2="-89.16" gradientTransform="translate(124.01 99.35) rotate(8.55)" gradientUnits="userSpaceOnUse"><stop offset="0" stop-color="#ff2d4a"/><stop offset="1" stop-color="#e0001d"/></linearGradient><linearGradient id="Gradient_13" x1="-70.13" y1="-41.35" x2="-70.13" y2="-89.16" gradientTransform="translate(124.01 99.35) rotate(8.55)" gradientUnits="userSpaceOnUse"><stop offset="0" stop-color="#ff5742"/><stop offset="1" stop-color="#ff5664"/></linearGradient><linearGradient id="Gradient_15" x1="-85.94" y1="-40.9" x2="-85.94" y2="-50.5" gradientTransform="translate(124.01 99.35) rotate(8.55)" gradientUnits="userSpaceOnUse"><stop offset="0" stop-color="#866931"/><stop offset="1" stop-color="#cd4718"/></linearGradient><linearGradient id="Gradient_13-2" x1="-70.24" y1="-43.65" x2="-70.24" y2="-87.24" xlink:href="#Gradient_13"/><linearGradient id="Gradient_147-2" x1="-50.61" y1="-37.82" x2="-50.61" y2="-48.03" xlink:href="#Gradient_147"/><linearGradient id="Gradient_147-3" x1="-40.82" y1="-53.9" x2="-40.82" y2="-63.7" xlink:href="#Gradient_147"/><linearGradient id="Gradient_147-4" x1="-40.41" y1="-65.57" x2="-40.41" y2="-69.43" xlink:href="#Gradient_147"/><linearGradient id="Gradient_147-5" x1="-45.67" y1="-38.95" x2="-45.67" y2="-45.83" xlink:href="#Gradient_147"/><linearGradient id="Gradient_12" x1="-68.32" y1="-56.76" x2="-68.32" y2="-77.77" gradientTransform="translate(124.01 99.35) rotate(8.55)" gradientUnits="userSpaceOnUse"><stop offset="0" stop-color="#cc596f"/><stop offset="0.2" stop-color="#c74d70"/><stop offset="0.56" stop-color="#bb2f74"/><stop offset="1" stop-color="#a90079"/></linearGradient><linearGradient id="Gradient_20" x1="-109.18" y1="-38.38" x2="-109.18" y2="-51.24" gradientTransform="translate(124.01 99.35) rotate(8.55)" gradientUnits="userSpaceOnUse"><stop offset="0" stop-color="#c04a48"/><stop offset="1" stop-color="#c1502c"/></linearGradient><linearGradient id="Gradient_20-2" x1="-99.8" y1="-35.29" x2="-99.8" y2="-40.32" xlink:href="#Gradient_20"/><linearGradient id="Gradient_25" x1="-37.89" y1="-34.51" x2="-37.89" y2="-44.02" gradientTransform="translate(124.01 99.35) rotate(8.55)" gradientUnits="userSpaceOnUse"><stop offset="0" stop-color="#e67c5f"/><stop offset="1" stop-color="#fb9757"/></linearGradient><linearGradient id="Gradient_11" x1="-33.48" y1="-45.83" x2="-33.48" y2="-52.62" gradientTransform="translate(124.01 99.35) rotate(8.55)" gradientUnits="userSpaceOnUse"><stop offset="0" stop-color="#c04a48"/><stop offset="1" stop-color="#d9612c"/></linearGradient><linearGradient id="Gradient_25-2" x1="-69.67" y1="-25.87" x2="-69.67" y2="-31.03" xlink:href="#Gradient_25"/></defs><g class="cls-1"><g id="Layer_2" data-name="Layer 2"><g id="objects"><path class="cls-2" d="M7.76,129.65c-4.89-3-5.95-8.74-4.74-21.65S7,92.5,6.57,91.34,6,81.52,7.2,76.41,2.77,77.71.55,71.08s3-5.17,3.35-12.41A34.19,34.19,0,0,1,7.28,44.42c1.47-3.21,7.15-3,8.64-7.66s2-6.2,5.2-7.38,6.22,5,9,4.79-5-10.72,6.72-22.61C47.8.4,64.34-.8,75,.35S95.66,5.72,96.93,7.76,83.85,46.5,83.85,46.5l-20,96.38S25.66,140.72,7.76,129.65Z"/><path class="cls-3" d="M94.24,122.6c-1.57-1.71-3.83,4-1.82,7.66a36.07,36.07,0,0,1-2.78,7.19c-2.89,5.11-20.46,10.6-44.82,6.94C22,141,5.28,130.32,4,124.58S3.67,104.87,6.7,95.39l36,4.13,8.68,1,8.87,1.65,35.37,6.6A72.19,72.19,0,0,1,94.24,122.6Z"/><path class="cls-4" d="M6.9,94.14C2,112.52,92.19,128.75,95.51,110.66S10.85,79.36,6.9,94.14Z"/><path class="cls-5" d="M10.61,78.68c-4.32.71-3.53,12.13-.34,17.41,1.9,3.15,6.7,5.26,16,8.87,6.36,2.47,6.81,5.83,19.32,7.71a94.29,94.29,0,0,0,21.42,1.26c2.88-.14,4.51,3.26,7,3,5.52-.53,9.08-5.58,17.2-7.72,4.83-1.28,8.51-12.5,6.19-17.34S10.61,78.68,10.61,78.68Z"/><path class="cls-6" d="M99.78,94.74c-2.72,4.5-17.81,9.13-39.49,7.42-2.87-.22-5.87-.55-9-1s-5.82-1-8.56-1.62c0,0,0,0,0,0C22.61,94.94,8.43,86.06,6.94,81c1.14.28,2.37-.08,2.51-2.23C9.67,75.46,8,72.16,6.23,75.2A74.32,74.32,0,0,1,9.42,51.58l48.5,5.69,48,8.81C106.18,76.06,102.84,89.65,99.78,94.74Z"/><path class="cls-7" d="M9.62,50.33C4.54,68.68,102.42,86.07,105.8,68S13.72,35.56,9.62,50.33Z"/><g class="cls-8"><path class="cls-9" d="M67.71,89.4c-7.08,7.58,3.21,8.52,5.73,2.9S70.43,86.48,67.71,89.4Z"/><path class="cls-10" d="M70.14,83.16c-3.26,2.91,1.22,3.06,2.14.92S70.72,82.63,70.14,83.16Z"/><path class="cls-11" d="M48.63,97.66c-3.26,2.91,1.22,3.07,2.14.92S49.22,97.13,48.63,97.66Z"/><path class="cls-12" d="M25.52,94.09c-3.84-1.71,5.35-6.87,13.65-3.82s8.08,8.54,7.34,9.5S33,97.65,25.52,94.09Z"/><path class="cls-13" d="M22,76.74C18.55,84.52,23.55,87.2,27,81.35S22.59,75.41,22,76.74Z"/><path class="cls-14" d="M8.93,67.84c-3.13,9.49,7.2,8.76,9.31,2.72S10.7,62.46,8.93,67.84Z"/><path class="cls-15" d="M20.8,69.5c-4,3.64.81,6.61,2.16,3.21S22.05,68.37,20.8,69.5Z"/><path class="cls-16" d="M58.23,74.48c-8.48,3.59,1.6,7.73,8.09,4.5S64.39,71.88,58.23,74.48Z"/><path class="cls-17" d="M74.2,76.88c-6.84,2.09.43,4.36,3.37,2.38S75.93,76.35,74.2,76.88Z"/><path class="cls-18" d="M91.5,87.19C82.79,97.6,96.4,93.47,98.77,89S94.27,83.87,91.5,87.19Z"/><path class="cls-19" d="M98.38,78.16c-5.09,4-1.66,9.52,1.61,4.47S100.83,76.24,98.38,78.16Z"/><path class="cls-20" d="M96.74,93.52c-1.44,4.88,2.48.73,2.73-.55S97.12,92.24,96.74,93.52Z"/><path class="cls-21" d="M22.2,116.29c-8.3-.3-1.72,7.31,4,7.68S32.73,116.67,22.2,116.29Z"/><path class="cls-22" d="M27.72,113.76c-2.58,1.26,2.29,2.51,3.51,1.49S29.4,112.93,27.72,113.76Z"/><path class="cls-23" d="M42.61,144c-8.67-1.49,10.4-9.12,23.19-4.86S62,147.36,42.61,144Z"/><path class="cls-24" d="M70.26,133.12c-5.36,5.36-.54,2.32,2.52.38S71.8,131.57,70.26,133.12Z"/><path class="cls-25" d="M81.79,134.25c-2.6,3.84,2.48,2.63,4.37-.32S83.48,131.74,81.79,134.25Z"/><path class="cls-26" d="M81.6,125.09c-6.06,5.82,4.34,6.54,6.78,1.75S84,122.81,81.6,125.09Z"/><path class="cls-27" d="M20.19,129.68c-8.24-.25,1.95,9.65,9.06,9.28S30.13,130,20.19,129.68Z"/><path class="cls-28" d="M8.27,110.6c-2.68-1-3.17,2.7.51,4.16S11,111.67,8.27,110.6Z"/><path class="cls-29" d="M12.21,109.09c-2.2-.06-.78,1.62,1,1.11S13.65,109.12,12.21,109.09Z"/><path class="cls-30" d="M22.35,110c-3.7.67,1.8,3.19,3.6,2.39S25.25,109.43,22.35,110Z"/><path class="cls-31" d="M47.19,133.61c-6.45-3.27-1.84-6.17.45-3S50.2,135.13,47.19,133.61Z"/><path class="cls-32" d="M68.24,87c0-4.39-5.83-.76-5.73,2.18S68.24,89.68,68.24,87Z"/><path class="cls-33" d="M73.1,81c-.22,1,.4,2.87,2.21.9S73.27,80.2,73.1,81Z"/><path class="cls-34" d="M94.05,83c-1.83-4.56-6.43-.81-5.79,2.55S94.79,84.88,94.05,83Z"/><path class="cls-35" d="M80.45,123.3c-2,2.56.25,3,1.65.46S81,122.56,80.45,123.3Z"/><path class="cls-36" d="M75.9,143.09c-4.28-.48,3.35-6.11,7.32-4.67S82.39,143.83,75.9,143.09Z"/><path class="cls-37" d="M26.88,124.56c-4.33.51.09,3,2.07,2.2S30.91,124.08,26.88,124.56Z"/><path class="cls-38" d="M33.75,112.54c-2.1-.05-3.31,3.64,4.29,5.38s9.38-1.86,9.38-1.86S46,112.8,33.75,112.54Z"/><path class="cls-39" d="M5.09,125.66c.3-5.14,5.23-4.69,6.9.57s2.28,8.29,3.57,8.75S8.37,130.43,5.09,125.66Z"/><path class="cls-40" d="M31.52,128.46c-2.31-.48-4.22,3-.05,4.56S33.85,128.94,31.52,128.46Z"/></g><path class="cls-41" d="M81.51,125.68c-2.77,3.67,5.38,3.1,6.08.6S84.72,121.44,81.51,125.68Z"/><path class="cls-41" d="M81.79,134.25c-.88,2.47,3.54,0,3.95-1.4S82.62,131.91,81.79,134.25Z"/><path class="cls-41" d="M66.52,90.82c-3.25,4.7,4.16,5.11,6,.24S69.36,86.73,66.52,90.82Z"/><path class="cls-41" d="M89.75,90.2c-1.19,2.36,4.7,2.49,6.88-1.2S92.26,85.19,89.75,90.2Z"/><path class="cls-41" d="M63.4,86.91c-1.64,3,2.42,3.39,3.63.55S64.17,85.49,63.4,86.91Z"/><path class="cls-41" d="M13,65.63c-3.86,1-2.57,6.34,1.14,7.62S20.42,63.68,13,65.63Z"/><path class="cls-41" d="M20.52,69.77c-1.86,2.51,2.18,3.36,2.8,1.69S21.5,68.46,20.52,69.77Z"/><path class="cls-41" d="M24.12,76c-2.2-.37-3.46,6.41-.65,7.67s4.22-3.06,4.32-4.65S26.1,76.38,24.12,76Z"/><path class="cls-41" d="M50.43,138.46c-4.8,1.06,3.22,6.09,13.27,5.5S65.1,135.24,50.43,138.46Z"/><path class="cls-41" d="M45.57,129.58c-2.11.19-.93,2.21,1.65,2.6S47,129.45,45.57,129.58Z"/><path class="cls-41" d="M22.7,130.3c-4.48,0-2.94,7.3,4.54,7.4S29,130.36,22.7,130.3Z"/><path class="cls-42" d="M6.23,75.2c.95-.54.71,5.75.71,5.75s2.19,1.92,3.16-1.74S6.93,71.2,6.23,75.2Z"/><path class="cls-43" d="M94.24,122.6a11.22,11.22,0,0,0-1.82,7.66s-2-.35-1.24-4.47S93.27,120.83,94.24,122.6Z"/><path class="cls-41" d="M6.67,74.29c-.16.6-.3.51.53,2.12a4.52,4.52,0,0,0,2.78,2,5,5,0,0,0-.76-3.34C8.17,73.58,7,73.84,6.67,74.29Z"/><path class="cls-41" d="M91.15,125.93c-.06,2.53,2.84-3.08,3-3.46S91.66,120.4,91.15,125.93Z"/><path class="cls-44" d="M8.12,89.85c.65-5,14.53,5.74,35.52,11.42s34.83,8.35,43,3.94,9.74-1.63,9.74-1.63a20.94,20.94,0,0,0,1.87-7.22,100.49,100.49,0,0,1-45.33,4.43C27.32,97.48,7.83,82.67,7.83,82.67S6.81,85.27,8.12,89.85Z"/><path class="cls-45" d="M8.72,92.48s4.79,7.2,13,9.93,2.82-.84,7.15-.25-1.14,5.65,15,9.28,22.28,1.19,23.74,1,2.06,4.18,7.23,3.79,9.62-6.48,13.13-7,4.13-.19,5.94-1.7c0,0-.57,2.33-3.89,2.85s-9.48,7.15-15,6.79-6-2.23-9.23-2.68-15.28,1-28.38-2.9S24.15,104.19,18,102.05a17.07,17.07,0,0,1-9.35-7.32A1.75,1.75,0,0,1,8.72,92.48Z"/><path class="cls-46" d="M35.08,107.45c-4.09-3,3.35-7.87,23.55-2.09S49.32,118.06,35.08,107.45Z"/><path class="cls-47" d="M72.07,115.17c-3.54-2.66,3.56-7.28,11.12-7.23S77.46,119.22,72.07,115.17Z"/><path class="cls-47" d="M88,105.32c-3.54,2.62,3.11,3.84,5.54,1.52S90.41,103.52,88,105.32Z"/><path class="cls-46" d="M15.14,98.38c-7.15-4.2-5.93-9-5.31-9.58S15.14,98.38,15.14,98.38Z"/><path class="cls-48" d="M43.21,127.61c-3.27-.26,4.33,5,3,7.74s-13.49-5-14-9.51.06-8,7.74-7,3.25-1.85,11.76-.91,12.64,3.45,19.19,4.4,2.28-1.62,6.9-1.86,6.49-3.19,11.28-3.55,1.43,6.66-.25,6.34-4.88-.82-5.49-.23,2.31-5.49-1.92-2-4.25,5.13-2.71,5.33-.44,5.3,2.93,5.06-.1,5.05-3.43,6.19-7.23,4.46-7.51,1.43,7-7.49,2.62-7.94-9.45,3.62-7.1,4.71-8.24,3-12.62.66S55.29,128.55,43.21,127.61Z"/><path class="cls-48" d="M52.94,100.79c4.51-6.09-2.44-4.58-4.9-5.35S46.35,89,37.43,88.09s-11,1.1-12.49,0,4.69-6.07,5.24-10.31-6.31-2.33-6.1-3.77,3-5,15.28-2.4,17.81,1.68,15.92,2.78-6.11.9-3.56,3.77,9.4,3.52,11.94,3.06-4.3,5.51-3.39,8.41,4.4.71,3.35,2.89.43,7.36,8.73,3,.51-7.58,1.11-9.47,7.17-8.51,5.51-5.86,5.28,2.84,7.77,1.17-2.51,6.09.06,6.5,2.72,8.24,6.23,8S91.17,100.4,77.25,101A225.21,225.21,0,0,1,52.94,100.79Z"/><path class="cls-48" d="M82.2,77.06C79.51,78.33,87,81.7,94,78.2S86.84,74.87,82.2,77.06Z"/><path class="cls-48" d="M104.49,80.41c.29-1.52-3.21,1.64-3.6,6.58S103.22,89.22,104.49,80.41Z"/><path class="cls-41" d="M35.6,112.61c-2.68,0,2.89,4.18,6.55,4.16s3.8-1.94,3.76-2A23.41,23.41,0,0,0,35.6,112.61Z"/><path class="cls-41" d="M57,75.1c-2.41,1.43,6.8,5.63,10,2.56S63,71.52,57,75.1Z"/><path class="cls-49" d="M46.11,113.5c-1.54.11,2.22,2,9.63,3.32a63.32,63.32,0,0,0,14.49.67s-.61-2.33-5.53-2.7S52.89,114.88,46.11,113.5Z"/><path class="cls-49" d="M75.51,118.29c-1-.58,2.35,0,9.86-5.5s8.81-2.22,9.29-1.56S92.43,118.92,75.51,118.29Z"/><path class="cls-50" d="M85.45,106.65c-1.17,1.55,1.12,1.79,2.7.4S86.35,105.46,85.45,106.65Z"/><path class="cls-50" d="M64.64,106.28c-1.61-.42-1.43,1.31,1.63,1.41S65.73,106.56,64.64,106.28Z"/><path class="cls-50" d="M37.33,105.72c-2,2,1.18,2.33,2.36.8S37.93,105.13,37.33,105.72Z"/><path class="cls-50" d="M71.19,114c-.67-1.81,3.72-.12,3.52,1S71.72,115.39,71.19,114Z"/><path class="cls-50" d="M9.59,92.09c.42-1,1.66,1.41,1.14,1.8S9.26,92.92,9.59,92.09Z"/><path class="cls-51" d="M16,135.06c-3.2-4.28-1-4.64-1-6.28s.68,4.42,5.81,8.06a11.67,11.67,0,0,0,12.75.86c2.38-1.48-1.29-3.43,1.25-3.52s10.46,2.69,13.63,3.36-8.14,3.21-8.64,4.76,1.7,1.6,1.7,1.6A75.62,75.62,0,0,1,16,135.06Z"/><path class="cls-51" d="M15.51,127.89c2-2.46,1.89,1,4.87-.47s-2.52-4-3.06-8.37,6-3.67,6.46-4.26-4.22-4.28-4-5.24-6.63-5.35-5.88-3,4.28,4.09.4,4.72-1.21,4.22-2.69,4.6-7.35-4.11-7.4-1.35-.37,6.57-.26,7.57.54-1,4.63-.31S15.51,127.89,15.51,127.89Z"/><path class="cls-52" d="M65.29,93.49s0,1.77,3,2.05,4.83-2.61,4.83-2.61-2,3.68-5.44,3.39S65.29,93.49,65.29,93.49Z"/><path class="cls-52" d="M89.05,90.77c-1,1.8,1.19,2.79,4.62,1.78a10.78,10.78,0,0,0,5.41-4.25,8,8,0,0,1-4.69,4.62c-3.74,1.49-5.63,1.11-6.14.31S89.05,90.77,89.05,90.77Z"/><path class="cls-53" d="M18.37,133.72s1,1.43,5,3.1a19.11,19.11,0,0,0,6.52,1.69A14.48,14.48,0,0,1,18.37,133.72Z"/><path class="cls-53" d="M19.26,120.3a12.23,12.23,0,0,0,6.11,3c3.49.47,4.42-.65,4.42-.65s-1.6,2.22-5.23,1.43A8.51,8.51,0,0,1,19.26,120.3Z"/><path class="cls-54" d="M26.64,102.13c.07-4,17,.5,27.75,1.48a50.57,50.57,0,0,0,18.13-1.35s-15.65.87-28.84-2.27S19.75,90.44,17.07,90s3.75,1.29,5.12,4.06S22.56,102.69,26.64,102.13Z"/><path class="cls-55" d="M103.21,86c-.64-.64,1.54-8.07-1.36-8.35s-9.59-.28-14.54,2.91C84,82.64,81.88,98.13,81.88,98.13l-6.41-3.49s3.2-14.27-6.6-18.75c-9.29-4.25-16.26-.13-31.77-1.21-14.26-1-15.61-7-17.09-4.63s-1.82,18-6.66,19.22-4.8-18-5.06-19.5-1.76,2.49-2.35,3.34-1,.82-1,.82S7.07,61.63,8,58.2s71.79,7.23,78.22,6.48C92.85,63.9,106,64,106.7,63.8S103.21,86,103.21,86Z"/><path class="cls-56" d="M111.66,81.41c-2,5-8,5.19-8.45,4.54-.72-1,1.64-11.47,1-13.66h0c-.08-.31-.23-.45-.47-.34-1.84.82-1.22,3.49-8.43,4.68C89,77.66,85.8,80,83.48,89.31v0c-.24,1-.47,2-.7,3.17-1.43,7.14-1,11.76-1.65,15a6.79,6.79,0,0,1-3.75,5.14c-5.74,3.15-6.65-6.4-4.52-8.53S76.42,75.09,70,74.89c-4.82-.13-7.18-1.46-11.38-2.32s-13.41.92-21.85-.72c-8-1.58-13.24-5.74-14.74-5s-1.94,1-3.48,8.17-3.22,15.62-7.94,13.2C6.17,85.92,6.37,82.26,7.28,79a1.8,1.8,0,0,1,.06-.22A32.23,32.23,0,0,0,8,72.81v0c1.71-6.93,0-8.62-.77-7.72C6.13,66.49,5,74.33,5,74.33s-2.76.32-3.21-2.08a11,11,0,0,1,0-4v0A7.88,7.88,0,0,1,4,63.76c2.4-2.22.17-12.89,5.18-19s24-11.66,45.07-11.08c28.73.76,46.12,11,53.31,19.43,4,4.7,2.19,10.52,2,14.28C109,76.62,113.1,77.9,111.66,81.41Z"/><path class="cls-57" d="M10.63,43.3c-5,3.6,7.81,14.2,43.56,19.34,53,7.62,52.21-1.5,54.51-3.38S80,50.42,63.48,51c-15.24.57,15,13.35-19.35,7-28.8-5.34,14.1-10.58,39.5-10.24C112.69,48.16,60.86,18.26,10.63,43.3Z"/><path class="cls-58" d="M12,50.06c-5.2-.85-1.16,11.52,8.79,14.55,10.61,3.22,34.32,4.62,44.11,2.91C75.23,65.73,34.86,66.81,12,50.06Z"/><path class="cls-41" d="M104.23,72.27h0c-.08-.31-.23-.45-.47-.34-1.84.82-1.22,3.49-8.43,4.68C89,77.66,85.8,80,83.48,89.31a17.26,17.26,0,0,1,.22-1.72c1.55-8.59,2.57-10.55,11-13C103.58,72.15,103.25,66.69,104.23,72.27Z"/><path class="cls-41" d="M81.12,107.56a6.79,6.79,0,0,1-3.75,5.14c-5.74,3.15-6.65-6.4-4.52-8.53S76.42,75.09,70,74.89c-4.82-.13-7.18-1.46-11.38-2.32s-13.41.92-21.85-.72c-8-1.58-13.24-5.74-14.74-5s-1.94,1-3.48,8.17-3.22,15.62-7.94,13.2C6.17,85.92,6.37,82.26,7.28,79c0,0,0,.1,0,.17.08,3.33,3.09,10.05,6.58,6.66S16.61,66.37,18.14,65s4,0,11.58,2.41c7.89,2.5,14.52,3.1,24.93,4.18,11,1.12,10.45-.07,16.88.59,6.66.69,4.74,3.12,3.84,13.14s-1.88,24.28,2.36,24.16C79.77,109.39,80.71,108.5,81.12,107.56Z"/><path class="cls-41" d="M8.05,72.56l0,.23c1.63-6.85,0-8.62-.77-7.72C6.13,66.49,5,74.33,5,74.33s-2.76.32-3.21-2.08a11,11,0,0,1,0-4c-.06,3.41,2.88-.8,4.43-4.5S7.33,58,8,56.75,10.51,64.57,8.05,72.56Z"/><path class="cls-58" d="M8.49,76.65c1.08-6,4.92-4.05,6.24-3.06s1.66,3.94,1.09,6.83S8.13,78.65,8.49,76.65Z"/><path class="cls-59" d="M6.64,57.84c1-3.1.83-7.1,1.93-8.79s1.67,4.35,10.72,6.81c1.59.43-4.65,4.82-5.73,8.32S9,61.07,8.79,58.12,6.64,57.84,6.64,57.84Z"/><path class="cls-60" d="M39.63,52c8,1.61,14.58-1.4,35.3-1.26,23.13.15,32.12,5.18,32.87,5.8S102.67,49.15,89.57,47C77.27,44.94,46.65,46.82,39.63,52Z"/><path class="cls-58" d="M25.19,37.5c-11.73,3.88-1.09,9.37,25.3,7.67C81.22,43.2,54.87,27.66,25.19,37.5Z"/><path class="cls-61" d="M80.32,101.31c-4.55-5.92-8.32,6.1-2.59,8.13C83.64,111.53,80.8,101.93,80.32,101.31Z"/><path class="cls-61" d="M73.09,63.15c-9.83-2.84-.15-9.8,13.85-8.4,15,1.5,18.24,5.93,16,7.14S89.89,68,73.09,63.15Z"/><path class="cls-61" d="M109.4,74c-4-4.47-5.42,6.5-3,9.44,1.54,1.87,4.14-.74,5.51-3S109.4,74,109.4,74Z"/><path class="cls-61" d="M24.48,55.85c-2.27-.87,5.8-2.16,21.83,2.65,17.62,5.3,16.76,5,16.76,5S38.09,63.89,24.48,55.85Z"/><path class="cls-62" d="M87.32,74.39c-3.82,4.52,2.55,2.69,3.85.68S88.76,72.67,87.32,74.39Z"/><path class="cls-62" d="M96.63,59c-3.53,0,1,3.5,2.93,1.91S98.42,59,96.63,59Z"/><path class="cls-50" d="M37.94,58.65c-2.19.72,1.2,1.55,3.05,1.59S40.83,57.71,37.94,58.65Z"/><path class="cls-62" d="M10.65,82.5c-2.58,1.83,1,5.31,3.41,2S11.9,81.62,10.65,82.5Z"/><path class="cls-62" d="M76,105.79c-1.56-.27-.38,2.77.48,2.91S76.83,105.93,76,105.79Z"/><path class="cls-50" d="M85,40.64c-2.56-.19,2.31,2.31,4.9,3S90.09,41,85,40.64Z"/><path class="cls-62" d="M65.05,58.36c-2.26.81,3.79,1.61,5.82.11S65.05,58.36,65.05,58.36Z"/><path class="cls-63" d="M72.66,64.15c-6.29-2.47,6.11-4.06,16.71-1.7S88.69,68.09,72.66,64.15Z"/><path class="cls-64" d="M33.72,36.72c-12.49,3-.41,7.93,3.73,9.91s7,10.57,26,11,30.84-6.77,33.93-7S67.53,32.72,33.72,36.72Z"/><path class="cls-65" d="M32,25.83C29.5,39.4,47.87,51.34,55.38,54.9s23.12,4.83,33.24-7.21,9.66-34.93,9.66-34.93Z"/><path class="cls-66" d="M42.35,39.52C19.81,25.25,38.28,8.26,57,4s37.46,0,40.68,4.49S93.13,30.75,78.79,42.36,53.24,46.41,42.35,39.52Z"/><path class="cls-67" d="M38.45,28.06a2.61,2.61,0,0,0-.17-.28c-1.68-2.74-6-4.06-6-4.06a14.16,14.16,0,0,1,.93-3.94c.66-1.26,4.16,5.17,6.22,2.5s.89-10.71.89-10.71l2-1.38s-1.5,7.39-1.18,7.86,5.52-4.51,8.47-6.77,4.89-6.6,4.89-6.6l1.77-.47s-3,5.94-3.1,6S63.75,7.7,65.74,6.67a37.68,37.68,0,0,0,5.54-4.34l1.5,0S69.59,5.46,69.39,6.1s13.86-3,13.86-3l.89.13s-5.37,1.43-6.29,2.22,12.56.21,14.64.52a13.76,13.76,0,0,1,4.44,1.83s-3.85-.75-4.78.46-1.85,9.62-1.85,9.62,6.25-4.1,8.16-6.15l-.81,2.4s-1.93,2.17-8.76,7.66c0,0-2.66,5.84-3.7,7.66s7.1-3.83,10.57-8.6A33.07,33.07,0,0,1,91.58,27c-2.89,3.44-9.71,5.78-12,7.81S73.93,39.82,73.63,41s9.38-2.2,11.28-4.32c0,0-3.66,3.61-4.21,4.09s-8,1.43-10.12,1.18-5.75,3.82-9.45,4,7.1,1.93,7.1,1.93a12.29,12.29,0,0,1-5.23.5c-3-.34-5.78-3.18-7.76-3.89s-2.14-3.49,1-6.11,16.65-7.1,22.08-15.65,2.47-9.81,2.47-9.81-5.84-8-17.23-1.32S45.22,33.29,45.22,33.29Z"/><path class="cls-68" d="M36.79,35.18a59.57,59.57,0,0,1,8.9,8.74A8.12,8.12,0,0,0,55,46.55S51.23,37.15,36.79,35.18Z"/><path class="cls-69" d="M53.27,43.75c5.39,4.08,18.68-.6,28.85-11.56s9.62-23.68,10-25.27S68.51,3.06,51,11.08s-12.33,23-10.29,24.69A26.91,26.91,0,0,0,48,39.32c.59.09-.15-10.11,9.27-18.48s25.35-11,26.35-10.28S66.53,27.3,59.29,33.13s-9.74,7-9.74,7Z"/><path class="cls-70" d="M51.58,41.87c3.94,1.93,13.85-2.58,24.13-13.4S86.23,8.8,86.23,8.8,74.78,6.91,58,13,43.37,34.5,45.49,36.85s-.78,1.48-3.48-.21-.54-18.25,11.92-24.17S83.82,7.06,88.68,7.7,82,22,78,30,62.33,43.35,58.65,44.2,51.58,41.87,51.58,41.87Z"/><path class="cls-71" d="M43.17,46.33c-3.58-3.78.79-2.3,15.3,1.81S77.16,55,77.16,55a26.5,26.5,0,0,1-15.94,1.8C52.5,54.94,43.17,46.33,43.17,46.33Z"/><path class="cls-72" d="M77.4,47.54C72,54.61,79.25,57,84,49.56S79.55,44.74,77.4,47.54Z"/><path class="cls-73" d="M92.24,32c-6.18,6.58-2,11.24,1.78,4.52S94.56,29.5,92.24,32Z"/><path class="cls-74" d="M94.3,25.29c-2.66,2.84-1.09,4.61.45,1.42S94.3,25.29,94.3,25.29Z"/><path class="cls-75" d="M81.67,53.6c-.07-.59,7-5.91,7-5.91S87.2,51.15,81.67,53.6Z"/><path class="cls-76" d="M77.46,51.14c-2-1.85,4.34-6.18,6.39-4.64C84.64,47.09,81.92,55.18,77.46,51.14Z"/><path class="cls-76" d="M90.53,38.62c-2-1.29,2.08-5.92,4.11-6.44S93.69,40.64,90.53,38.62Z"/><path class="cls-77" d="M78.33,51.78c-1.16-1.32,3.39-4.58,5.07-3.93C84.24,48.17,81.75,54.63,78.33,51.78Z"/><path class="cls-77" d="M90.33,38.46c-1.15-1.42,4.11-4.6,4.84-4.88C95.58,33.43,93.16,41.4,90.33,38.46Z"/><path class="cls-78" d="M88.11,33c1.12-2.15-.58-2.36,1.09-5.14s6.21-6.18,6.21-6.18S92.55,28.93,88.11,33Z"/><path class="cls-78" d="M96.23,9.75c-1.08,1.64.29,2.67.85.73S96.23,9.75,96.23,9.75Z"/><path class="cls-78" d="M52.78,5.2c-1.27,1.79,2.44,3,6-.06S52.78,5.2,52.78,5.2Z"/><path class="cls-70" d="M65.93,31.37c-2.65,1.84.34,4.15,3.55,1.36S65.93,31.37,65.93,31.37Z"/><path class="cls-79" d="M86,49.49c1.82-3.41,0-6.31-1.76-7s2.86-6,4.5-7.95-.6,3.27.12,5.12,4.44,0,4.44,0A23,23,0,0,1,86,49.49Z"/><path class="cls-80" d="M60.64,28.83c-8.44,3.83-7,2.91-5.68.71s-.09-1-1.34-.7S55.36,23,61.44,18.75s9-2.49,8.71-1.64S69.72,19,71.5,18,80,14.09,80,14.09,67.15,26.63,60.64,28.83Z"/><path class="cls-81" d="M55.77,24.13c-1.94,3,8.88,2.42,12.17.1s2.2-6.22,2.21-7.12S62.88,14,55.77,24.13Z"/><path class="cls-81" d="M70.65,22.8c-.9.2-.05-3.94,2.08-5.39A24.07,24.07,0,0,1,78.82,15S74.56,20.73,70.65,22.8Z"/><path class="cls-82" d="M16.26,42.8c-1.64-2.11,2.78-9.14,4.27-10.4s6.28,2.3,8.16,4.38-1.93,6.82-3.76,8.28S16.26,42.8,16.26,42.8Z"/><path class="cls-83" d="M27.2,45.25c2.75-1.63,3.23-.46,5.17,0s2.78,3.32,3.1,3.74-5.22,2.06-8.64-1.3A1.39,1.39,0,0,1,27.2,45.25Z"/><path class="cls-84" d="M83.72,56.9c-.92-.48,4.78-5.47,8.81-6.42s5.85,3,7.39,4.31,1.07,4.59-6.24,4.74S83.72,56.9,83.72,56.9Z"/><path class="cls-85" d="M92.2,46c1.11-1.23,3.15-3.44,6-3.68s5,5.21,5.48,6.43-5.64.77-7.57-.35S92.2,46,92.2,46Z"/><path class="cls-86" d="M54.23,62.31c-1.61-.46,1.68-4.44,5.52-4s4.69,4.34,4.68,4.71S62.47,64.65,54.23,62.31Z"/><path class="cls-87" d="M54.75,60.17c1.84-1.81,5.75,3,6.88,3.34a5,5,0,0,0,2.4-.14s-.06,1-5.31.6-5.43-.53-5.33-1.79A2.9,2.9,0,0,1,54.75,60.17Z"/><path class="cls-87" d="M83.65,56.61c-.1-1.07,2.57-3.78,7.06-3.72s4.39,5,5.15,5.55,3.76-.37,3.76-.37-2.84,2.55-9.5,1.8S83.65,56.61,83.65,56.61Z"/><path class="cls-87" d="M15.77,42.14c0-2,1.49-7,4.58-6.92s4.17,9.5,3.83,10.15S17.64,45.29,15.77,42.14Z"/><path class="cls-87" d="M26.22,46.42c.58-2.1,4.11.34,5.63,1.82a3.46,3.46,0,0,0,2.8,1.23s-1.71,1.1-5.84-.12S26.22,46.42,26.22,46.42Z"/><path class="cls-87" d="M92.2,46c.15-1.19,4.2-3.37,6.71-2.49s3.19,6,3.19,6a12.16,12.16,0,0,1-5-.4A13.3,13.3,0,0,1,92.2,46Z"/><path class="cls-88" d="M20.81,32.77c-.71.33,0,1.32,1.44,3.87l1.73,3a6.12,6.12,0,0,0,2.3-3.15C26.72,34.63,23.57,31.51,20.81,32.77Z"/><path class="cls-88" d="M28.61,44.65c-.73.46,1.72,2.71,2.79,3.17a4.41,4.41,0,0,0,2.42.13s-1.63-2.66-3-3.1A4.22,4.22,0,0,0,28.61,44.65Z"/><path class="cls-89" d="M57.48,58.53c-.87.34-.3,1.7,1.78,2.88a5.12,5.12,0,0,0,3.89.59S62.85,56.82,57.48,58.53Z"/><path class="cls-89" d="M91.78,50.79c-1.12.9.82,2.2,2.24,3.63s4.86-.2,4.85-.35S95.39,48.6,91.78,50.79Z"/><path class="cls-89" d="M99,42.38c-.83-.07.68,1.16,1.34,2.29a4.27,4.27,0,0,0,1.7,1.6S102,44,99,42.38Z"/><path class="cls-2" d="M8.43,86.62S4.28,85,5.61,79.37,8.67,66.63,8.67,66.63s.54,6.29-.81,10.65S6.47,84,8.43,86.62Z"/><path class="cls-2" d="M32.22,22.75s-1.4,8.05,6,19.56A15.79,15.79,0,0,1,30.82,30.8C29.71,22.63,32.22,22.75,32.22,22.75Z"/></g></g></g></svg>