<svg xmlns="http://www.w3.org/2000/svg" xmlns:xlink="http://www.w3.org/1999/xlink" viewBox="0 0 127.34 126.46"><defs><style>.cls-1{isolation:isolate;}.cls-2{fill:#ff9fff;}.cls-3{fill:url(#Gradient_42);}.cls-4{fill:url(#Gradient_158);}.cls-5{fill:url(#Gradient_161);}.cls-6{fill:url(#Gradient_162);}.cls-36,.cls-39,.cls-40,.cls-61,.cls-68,.cls-69,.cls-7,.cls-70,.cls-71,.cls-72,.cls-73,.cls-74,.cls-75,.cls-76,.cls-77,.cls-83,.cls-86{mix-blend-mode:multiply;}.cls-8{fill:url(#Gradient_105);}.cls-9{fill:url(#Gradient_105-2);}.cls-10{fill:url(#Gradient_105-3);}.cls-11{fill:url(#Gradient_105-4);}.cls-12{fill:url(#Gradient_105-5);}.cls-13{fill:url(#Gradient_105-6);}.cls-14{fill:url(#Gradient_105-7);}.cls-15{fill:url(#Gradient_105-8);}.cls-16{fill:url(#Gradient_105-9);}.cls-17{fill:url(#Gradient_105-10);}.cls-18{fill:url(#Gradient_105-11);}.cls-19{fill:url(#Gradient_105-12);}.cls-20{fill:url(#Gradient_105-13);}.cls-21{fill:url(#Gradient_105-14);}.cls-22{fill:url(#Gradient_105-15);}.cls-23{fill:url(#Gradient_105-16);}.cls-24{fill:url(#Gradient_105-17);}.cls-25{fill:url(#Gradient_105-18);}.cls-26{fill:url(#Gradient_105-19);}.cls-27{fill:url(#Gradient_105-20);}.cls-28{fill:url(#Gradient_105-21);}.cls-29{fill:url(#Gradient_105-22);}.cls-30{fill:url(#Gradient_105-23);}.cls-31{fill:url(#Gradient_105-24);}.cls-32{fill:url(#Gradient_105-25);}.cls-33{fill:url(#Gradient_105-26);}.cls-34{fill:url(#Gradient_105-27);}.cls-35{fill:url(#Gradient_105-28);}.cls-36,.cls-37,.cls-39,.cls-71,.cls-72,.cls-83,.cls-85{opacity:0.5;}.cls-36{fill:url(#Gradient_160);}.cls-37,.cls-87,.cls-90{mix-blend-mode:soft-light;}.cls-38{fill:#ffe29e;}.cls-39{fill:#a11010;}.cls-40,.cls-61,.cls-69,.cls-70{opacity:0.3;}.cls-41{fill:url(#Gradient_159);}.cls-42{fill:url(#Gradient_159-2);}.cls-43{fill:url(#Gradient_159-3);}.cls-44{fill:url(#Gradient_159-4);}.cls-45{fill:url(#Gradient_159-5);}.cls-46{fill:url(#Gradient_159-6);}.cls-47{fill:url(#Gradient_159-7);}.cls-48{fill:url(#Gradient_159-8);}.cls-49{fill:url(#Gradient_159-9);}.cls-50{fill:url(#Gradient_159-10);}.cls-51{fill:url(#Gradient_159-11);}.cls-52{fill:url(#Gradient_159-12);}.cls-53{fill:url(#Gradient_159-13);}.cls-54{fill:url(#Gradient_159-14);}.cls-55{fill:url(#Gradient_159-15);}.cls-56{fill:url(#Gradient_159-16);}.cls-57{fill:url(#Gradient_159-17);}.cls-58{fill:url(#Gradient_159-18);}.cls-59{fill:url(#Gradient_159-19);}.cls-60{fill:url(#Gradient_159-20);}.cls-61{fill:#c91010;}.cls-62{fill:#ffe8ea;}.cls-63{opacity:0.95;fill:url(#Gradient_163);}.cls-64{fill:url(#Gradient_165);}.cls-65{fill:url(#Gradient_165-2);}.cls-66{fill:url(#Gradient_165-3);}.cls-67{fill:url(#Gradient_163-2);}.cls-68{fill:url(#Gradient_166);}.cls-69{fill:#b30010;}.cls-70{fill:#ce0010;}.cls-71{fill:#c40010;}.cls-72{fill:#d81310;}.cls-73,.cls-74,.cls-75,.cls-76{opacity:0.78;}.cls-73{fill:url(#Gradient_167);}.cls-74{fill:url(#Gradient_167-2);}.cls-75{fill:url(#Gradient_167-3);}.cls-76{fill:url(#Gradient_167-4);}.cls-77{fill:#9c0010;opacity:0.8;}.cls-78{fill:url(#Gradient_168);}.cls-79,.cls-80,.cls-81,.cls-82{opacity:0.76;mix-blend-mode:screen;}.cls-79{fill:url(#Gradient_132);}.cls-80{fill:url(#Gradient_132-2);}.cls-81{fill:url(#Gradient_132-3);}.cls-82{fill:url(#Gradient_132-4);}.cls-83,.cls-86{fill:#8b0010;}.cls-84,.cls-85{fill:#ff1f6a;mix-blend-mode:color-dodge;}.cls-86{opacity:0.4;}.cls-87{fill:#ffe8c9;}.cls-88{fill:#fff;}.cls-89{fill:#ffd6bf;}.cls-90{fill:#ffbdb3;}</style><linearGradient id="Gradient_42" x1="-78.55" y1="-69.31" x2="27.25" y2="-69.31" gradientTransform="translate(72.43 171.23) rotate(8.98)" gradientUnits="userSpaceOnUse"><stop offset="0" stop-color="#f94aae"/><stop offset="0.07" stop-color="#a43148"/><stop offset="0.09" stop-color="#a63345"/><stop offset="0.19" stop-color="#b03d34"/><stop offset="0.32" stop-color="#b84429"/><stop offset="0.5" stop-color="#bc4822"/><stop offset="1" stop-color="#bd4920"/></linearGradient><linearGradient id="Gradient_158" x1="-78.48" y1="-78.93" x2="27.02" y2="-78.93" gradientTransform="translate(72.43 171.23) rotate(8.98)" gradientUnits="userSpaceOnUse"><stop offset="0" stop-color="#d94f36"/><stop offset="1" stop-color="#f56f31"/></linearGradient><linearGradient id="Gradient_161" x1="-90.67" y1="-111.1" x2="35.23" y2="-93.29" gradientTransform="translate(72.43 171.23) rotate(8.98)" gradientUnits="userSpaceOnUse"><stop offset="0" stop-color="#ff9b86"/><stop offset="1" stop-color="#ffc39a"/></linearGradient><linearGradient id="Gradient_162" x1="-86.68" y1="-137.94" x2="38.47" y2="-120.23" gradientTransform="translate(72.43 171.23) rotate(8.98)" gradientUnits="userSpaceOnUse"><stop offset="0" stop-color="#ffbeb2"/><stop offset="1" stop-color="#ffe6ae"/></linearGradient><linearGradient id="Gradient_105" x1="-264.66" y1="-265.14" x2="-265.28" y2="-266.9" gradientTransform="matrix(0.88, 0.48, -0.48, 0.88, 195.71, 480.55)" gradientUnits="userSpaceOnUse"><stop offset="0" stop-color="#ffdbea"/><stop offset="0.1" stop-color="#f9cfe2"/><stop offset="0.27" stop-color="#e8b0ce"/><stop offset="0.51" stop-color="#ce7eac"/><stop offset="0.79" stop-color="#a9397f"/><stop offset="1" stop-color="#8b0059"/></linearGradient><linearGradient id="Gradient_105-2" x1="-280.99" y1="-265.28" x2="-282.47" y2="-269.42" xlink:href="#Gradient_105"/><linearGradient id="Gradient_105-3" x1="-276.9" y1="-269.56" x2="-277.55" y2="-271.39" xlink:href="#Gradient_105"/><linearGradient id="Gradient_105-4" x1="-560.76" y1="53.08" x2="-562.33" y2="48.49" gradientTransform="matrix(1.34, 0.73, -0.7, 1.29, 835.52, 452.11)" xlink:href="#Gradient_105"/><linearGradient id="Gradient_105-5" x1="-263.32" y1="-273.9" x2="-264.65" y2="-277.63" xlink:href="#Gradient_105"/><linearGradient id="Gradient_105-6" x1="-277.11" y1="-261.98" x2="-278.11" y2="-264.78" xlink:href="#Gradient_105"/><linearGradient id="Gradient_105-7" x1="-306.75" y1="-247.57" x2="-308.27" y2="-251.86" xlink:href="#Gradient_105"/><linearGradient id="Gradient_105-8" x1="-273.88" y1="-269.46" x2="-274.31" y2="-270.67" xlink:href="#Gradient_105"/><linearGradient id="Gradient_105-9" x1="-342.43" y1="-250.31" x2="-342.43" y2="-251.7" xlink:href="#Gradient_105"/><linearGradient id="Gradient_105-10" x1="-257.24" y1="-280.03" x2="-257.67" y2="-281.25" xlink:href="#Gradient_105"/><linearGradient id="Gradient_105-11" x1="-300.57" y1="-262.16" x2="-301.55" y2="-264.92" xlink:href="#Gradient_105"/><linearGradient id="Gradient_105-12" x1="-283.1" y1="-258.98" x2="-283.65" y2="-260.52" xlink:href="#Gradient_105"/><linearGradient id="Gradient_105-13" x1="-310.54" y1="-251.65" x2="-311.31" y2="-253.82" xlink:href="#Gradient_105"/><linearGradient id="Gradient_105-14" x1="-297.1" y1="-250.71" x2="-297.83" y2="-252.76" xlink:href="#Gradient_105"/><linearGradient id="Gradient_105-15" x1="-280.69" y1="-263.87" x2="-281.23" y2="-265.39" xlink:href="#Gradient_105"/><linearGradient id="Gradient_105-16" x1="-303.69" y1="-250.93" x2="-304.14" y2="-252.2" xlink:href="#Gradient_105"/><linearGradient id="Gradient_105-17" x1="86.46" y1="414.5" x2="86.46" y2="405.28" gradientTransform="translate(-140.12 -295.53) rotate(-9.09)" xlink:href="#Gradient_105"/><linearGradient id="Gradient_105-18" x1="-326.02" y1="-243.17" x2="-326.69" y2="-245.04" xlink:href="#Gradient_105"/><linearGradient id="Gradient_105-19" x1="-328.27" y1="-246.95" x2="-330.14" y2="-252.19" xlink:href="#Gradient_105"/><linearGradient id="Gradient_105-20" x1="-335.17" y1="-246.16" x2="-335.81" y2="-247.95" xlink:href="#Gradient_105"/><linearGradient id="Gradient_105-21" x1="-339.38" y1="-241.8" x2="-339.38" y2="-245.03" xlink:href="#Gradient_105"/><linearGradient id="Gradient_105-22" x1="-254.7" y1="-276.46" x2="-255.45" y2="-278.58" xlink:href="#Gradient_105"/><linearGradient id="Gradient_105-23" x1="-265.38" y1="-271.98" x2="-265.71" y2="-272.88" xlink:href="#Gradient_105"/><linearGradient id="Gradient_105-24" x1="-296.08" y1="-255.61" x2="-297.61" y2="-259.9" xlink:href="#Gradient_105"/><linearGradient id="Gradient_105-25" x1="-325.72" y1="-253.78" x2="-326.34" y2="-255.52" xlink:href="#Gradient_105"/><linearGradient id="Gradient_105-26" x1="-12.72" y1="-46.22" x2="-12.72" y2="-51.75" gradientTransform="translate(72.43 171.23) rotate(8.98)" xlink:href="#Gradient_105"/><linearGradient id="Gradient_105-27" x1="-47.18" y1="-48.31" x2="-47.18" y2="-55.57" gradientTransform="translate(72.43 171.23) rotate(8.98)" xlink:href="#Gradient_105"/><linearGradient id="Gradient_105-28" x1="-38.88" y1="-60.02" x2="-38.88" y2="-65.22" gradientTransform="translate(72.43 171.23) rotate(8.98)" xlink:href="#Gradient_105"/><linearGradient id="Gradient_160" x1="-24.8" y1="-64" x2="-24.8" y2="-73.5" gradientTransform="translate(72.43 171.23) rotate(8.98)" gradientUnits="userSpaceOnUse"><stop offset="0" stop-color="#90004a"/><stop offset="0.1" stop-color="#950a51"/><stop offset="0.26" stop-color="#a32565"/><stop offset="0.47" stop-color="#b95286"/><stop offset="0.72" stop-color="#d88fb2"/><stop offset="1" stop-color="#ffdbea"/></linearGradient><linearGradient id="Gradient_159" x1="21.09" y1="-89.38" x2="21.09" y2="-98.84" gradientTransform="translate(72.43 171.23) rotate(8.98)" gradientUnits="userSpaceOnUse"><stop offset="0" stop-color="#ffdbea"/><stop offset="0.21" stop-color="#eeafb8"/><stop offset="0.48" stop-color="#d9797c"/><stop offset="0.71" stop-color="#ca524f"/><stop offset="0.89" stop-color="#c03a34"/><stop offset="1" stop-color="#bd312a"/></linearGradient><linearGradient id="Gradient_159-2" x1="21.3" y1="-85.57" x2="21.3" y2="-88.6" xlink:href="#Gradient_159"/><linearGradient id="Gradient_159-3" x1="-14.35" y1="-87.5" x2="-14.35" y2="-93.75" xlink:href="#Gradient_159"/><linearGradient id="Gradient_159-4" x1="-37.83" y1="-91.47" x2="-37.83" y2="-103.27" xlink:href="#Gradient_159"/><linearGradient id="Gradient_159-5" x1="-25.44" y1="-103.24" x2="-25.44" y2="-106.59" xlink:href="#Gradient_159"/><linearGradient id="Gradient_159-6" x1="-60.66" y1="-76.26" x2="-60.66" y2="-82.42" xlink:href="#Gradient_159"/><linearGradient id="Gradient_159-7" x1="-64.85" y1="-82.72" x2="-64.85" y2="-88.05" xlink:href="#Gradient_159"/><linearGradient id="Gradient_159-8" x1="-78.51" y1="-86.55" x2="-78.51" y2="-102.37" xlink:href="#Gradient_159"/><linearGradient id="Gradient_159-9" x1="-71.72" y1="-102.81" x2="-71.72" y2="-108.84" xlink:href="#Gradient_159"/><linearGradient id="Gradient_159-10" x1="-28.96" y1="-89.13" x2="-28.96" y2="-94.27" xlink:href="#Gradient_159"/><linearGradient id="Gradient_159-11" x1="-0.67" y1="-67.24" x2="-0.67" y2="-71.29" xlink:href="#Gradient_159"/><linearGradient id="Gradient_159-12" x1="-9.73" y1="-71.59" x2="-9.73" y2="-77.31" xlink:href="#Gradient_159"/><linearGradient id="Gradient_159-13" x1="23.01" y1="-104.05" x2="23.01" y2="-107.68" xlink:href="#Gradient_159"/><linearGradient id="Gradient_159-14" x1="17.25" y1="-101.6" x2="17.25" y2="-103.85" xlink:href="#Gradient_159"/><linearGradient id="Gradient_159-15" x1="19.05" y1="-70.09" x2="19.05" y2="-74.98" xlink:href="#Gradient_159"/><linearGradient id="Gradient_159-16" x1="-42.09" y1="-104.65" x2="-42.09" y2="-107.84" xlink:href="#Gradient_159"/><linearGradient id="Gradient_159-17" x1="-81.24" y1="-114.68" x2="-81.24" y2="-120.84" xlink:href="#Gradient_159"/><linearGradient id="Gradient_159-18" x1="-63.65" y1="-117.74" x2="-63.65" y2="-120.61" xlink:href="#Gradient_159"/><linearGradient id="Gradient_159-19" x1="-47.79" y1="-90.1" x2="-47.79" y2="-92.42" xlink:href="#Gradient_159"/><linearGradient id="Gradient_159-20" x1="-49.83" y1="-75.85" x2="-49.83" y2="-80.46" xlink:href="#Gradient_159"/><linearGradient id="Gradient_163" x1="4.27" y1="-21.07" x2="4.27" y2="-101.82" gradientTransform="translate(55.35 120.35) rotate(6.37)" gradientUnits="userSpaceOnUse"><stop offset="0" stop-color="#f30"/><stop offset="0.34" stop-color="#e01f17"/><stop offset="0.77" stop-color="#bf082f"/><stop offset="1" stop-color="#b30038"/></linearGradient><linearGradient id="Gradient_165" x1="-9.7" y1="-85.28" x2="-9.7" y2="-109.05" gradientTransform="translate(55.35 120.35) rotate(6.37)" gradientUnits="userSpaceOnUse"><stop offset="0" stop-color="#dd0908"/><stop offset="0.44" stop-color="#ad0421"/><stop offset="0.8" stop-color="#8c0132"/><stop offset="1" stop-color="#7f0038"/></linearGradient><linearGradient id="Gradient_165-2" x1="15.52" y1="-91.01" x2="15.52" y2="-122.54" xlink:href="#Gradient_165"/><linearGradient id="Gradient_165-3" x1="29.27" y1="-76.06" x2="29.27" y2="-99.15" xlink:href="#Gradient_165"/><linearGradient id="Gradient_163-2" x1="6.24" y1="-74.78" x2="6.24" y2="-101.22" xlink:href="#Gradient_163"/><linearGradient id="Gradient_166" x1="26.31" y1="-18.71" x2="26.31" y2="-70.09" gradientTransform="translate(55.35 120.35) rotate(6.37)" gradientUnits="userSpaceOnUse"><stop offset="0" stop-color="#b10059"/><stop offset="0.21" stop-color="#c5397f"/><stop offset="0.49" stop-color="#de7eac"/><stop offset="0.73" stop-color="#f0b0ce"/><stop offset="0.9" stop-color="#fbcfe2"/><stop offset="1" stop-color="#ffdbea"/></linearGradient><linearGradient id="Gradient_167" x1="6.18" y1="-80.22" x2="6.18" y2="-100.96" gradientTransform="translate(55.35 120.35) rotate(6.37)" gradientUnits="userSpaceOnUse"><stop offset="0" stop-color="#ffdbea"/><stop offset="0.1" stop-color="#fbcfe2"/><stop offset="0.27" stop-color="#f2b0ce"/><stop offset="0.51" stop-color="#e27eac"/><stop offset="0.79" stop-color="#cc397f"/><stop offset="1" stop-color="#ba0059"/></linearGradient><linearGradient id="Gradient_167-2" x1="30.91" y1="-80.5" x2="30.91" y2="-98.45" xlink:href="#Gradient_167"/><linearGradient id="Gradient_167-3" x1="16.51" y1="-99.46" x2="16.51" y2="-121.5" xlink:href="#Gradient_167"/><linearGradient id="Gradient_167-4" x1="-12.37" y1="-89.42" x2="-12.37" y2="-108.43" xlink:href="#Gradient_167"/><linearGradient id="Gradient_168" x1="14.31" y1="-69.84" x2="14.31" y2="-93.74" gradientTransform="translate(55.35 120.35) rotate(6.37)" gradientUnits="userSpaceOnUse"><stop offset="0" stop-color="#ef0000"/><stop offset="0.42" stop-color="#c3001c"/><stop offset="0.8" stop-color="#a20030"/><stop offset="1" stop-color="#950038"/></linearGradient><linearGradient id="Gradient_132" x1="-14.75" y1="-39.58" x2="70.12" y2="-39.58" gradientTransform="translate(38.24 78.26) rotate(4.13)" gradientUnits="userSpaceOnUse"><stop offset="0" stop-color="#844fbd"/><stop offset="0.04" stop-color="#7c4ab2"/><stop offset="0.3" stop-color="#503073"/><stop offset="0.53" stop-color="#2e1b42"/><stop offset="0.73" stop-color="#150c1e"/><stop offset="0.89" stop-color="#060308"/><stop offset="1"/></linearGradient><linearGradient id="Gradient_132-2" x1="-8.23" y1="-93.59" x2="5.27" y2="-93.59" gradientTransform="translate(55.35 120.35) rotate(6.37)" xlink:href="#Gradient_132"/><linearGradient id="Gradient_132-3" x1="-42.91" y1="-96.8" x2="-24.13" y2="-96.8" gradientTransform="translate(55.35 120.35) rotate(6.37)" xlink:href="#Gradient_132"/><linearGradient id="Gradient_132-4" x1="-22.01" y1="-103.14" x2="-9.15" y2="-103.14" gradientTransform="translate(55.35 120.35) rotate(6.37)" xlink:href="#Gradient_132"/></defs><g class="cls-1"><g id="Layer_2" data-name="Layer 2"><g id="objects"><path class="cls-2" d="M17.48,111.27s-9.88-3.43-11.57-5.06S3.18,87.06,3.67,85.7,5,84,4.9,82.61-1.87,42,.51,34,15,27.81,18.45,23.52s18.48-8.15,23.22-8.95,2.66-1.22,9.48-4.08,13.76-.07,13.76-.07S66.26,4,75.49,1c8.38-2.77,13.78,1.4,13.78,1.4L64.18,121.85S26.59,114.88,17.48,111.27Z"/><path class="cls-3" d="M7.42,105.63c-1-3.73-1.89-17.81-1-19C8.42,83.78,45,73.51,62,76.2c21.76,3.44,46.88,29.15,47.81,31.7s-5.25,15.68-8.47,17.6-18.39,1.61-54.95-6C21.22,114.19,8,107.63,7.42,105.63Z"/><path class="cls-4" d="M6.38,86.63c-2.27,4.48,68.51,22.61,103,21.29,4.74-.19-27-27-47.4-31.72S8.76,81.91,6.38,86.63Z"/><path class="cls-5" d="M119.1,87.46c-4.7,1.71-7,8.11-4.84,10.76-2.54,5.45-4.45,9.31-4.45,9.31s-16-.72-44-5.13C40.73,98.43,9.06,90.71,6.93,87S1.24,35.89,4.81,33.34s36.15-9.7,53.54-7,67.83,31,68.94,38C127.82,67.76,123.27,77.84,119.1,87.46Z"/><path class="cls-6" d="M4.89,32.83C1,39.54,121.74,65.18,126.68,65.28S101.46,36.65,72.24,25.89C51.46,18.24,8,27.4,4.89,32.83Z"/><g class="cls-7"><path class="cls-8" d="M89.9,119.38c-1.94.87.42,2.32,1.23,1.56S91,118.9,89.9,119.38Z"/><path class="cls-9" d="M73.56,109.8c.42-2.68,7.28-.08,5,2.6s-1.7-.89-3.52-1.35S73.5,110.16,73.56,109.8Z"/><path class="cls-10" d="M81,109.65c-.75,1.25.08,2.37,1.23,1.2S81.38,109.08,81,109.65Z"/><path class="cls-11" d="M45.07,109.59c-.2-6.18,10.55-5.06,10.17.28S45.14,111.86,45.07,109.59Z"/><path class="cls-12" d="M93.75,110.79c-2.56,2.19,2.68,4.76,4.45,2.33S95.57,109.23,93.75,110.79Z"/><path class="cls-13" d="M75.78,116.71c-1.2-3.09,6.24-1.54,4.18.23S76.16,117.68,75.78,116.71Z"/><path class="cls-14" d="M42.57,112.41c-2.52,4,3.2,5.15,5.39,2.45S43.42,111.05,42.57,112.41Z"/><path class="cls-15" d="M83.28,112.46c.37-1.11,1.65-1,1.81-.06S83.17,112.8,83.28,112.46Z"/><path class="cls-16" d="M14.1,96.44c.31-1.13,1.59-1.06,1.8-.06S14,96.79,14.1,96.44Z"/><path class="cls-17" d="M103,111.13c.38-1.11,1.67-1,1.82-.06S102.83,111.47,103,111.13Z"/><path class="cls-18" d="M55.77,103.73c-2.33,1.8,2.16,3.8,3.62,2.5S56.93,102.83,55.77,103.73Z"/><path class="cls-19" d="M70.11,116.18c-.92.86,1.61,2.19,2.17,1.32S70.75,115.58,70.11,116.18Z"/><path class="cls-20" d="M43.3,108.67c-.91-.3-.59,1.3.56,2.27S44,108.91,43.3,108.67Z"/><path class="cls-21" d="M54.59,116.18c-1.68,1.19-.63,2.77.94,1.65S55.1,115.82,54.59,116.18Z"/><path class="cls-22" d="M74.31,113.67c1-1,3.21-.81,2.47.4S74,114,74.31,113.67Z"/><path class="cls-23" d="M48.55,114.11c.63-1.29,1.57.08,1.2.62S48.26,114.68,48.55,114.11Z"/><path class="cls-24" d="M7,91.77c1.09-2.06,6,2.09,5.71,5.86s-3.23,2.26-3.66,1S7,91.77,7,91.77Z"/><path class="cls-25" d="M25.76,109.16c-.73.32-.51,1,.13,1.8S27.09,108.57,25.76,109.16Z"/><path class="cls-26" d="M23,102.52c.41-1.72,2.17-2.29,4.53-.42s1.36,4.4,1,4.55S21.81,107.6,23,102.52Z"/><path class="cls-27" d="M18.31,102.82c-.95.79.6,1.64,1.79.93S20.14,101.31,18.31,102.82Z"/><path class="cls-28" d="M12.51,105.39c-3.32-1.85-1-4.49,1.6-2.8s3.82,3.22,3.26,3.23S13.7,106.05,12.51,105.39Z"/><path class="cls-29" d="M103.68,114.31c-2.33,2,.85,1.75,2.13.46S104.28,113.78,103.68,114.31Z"/><path class="cls-30" d="M92.77,113.81c-.93-.34-1.11.93.16,1S93.7,114.16,92.77,113.81Z"/><path class="cls-31" d="M57.89,110.68c-4.14,1.52-1.94,3.33-.35,3.69s3.3-1.52,3.3-1.52S62.92,108.83,57.89,110.68Z"/><path class="cls-32" d="M30.3,100.25a1.1,1.1,0,1,0,1.95,1C32.9,100,30.48,99.78,30.3,100.25Z"/><path class="cls-33" d="M58.19,122c-3.65-.93.71-5,6.73-4.3S77.68,123.39,77.7,124,65.7,123.87,58.19,122Z"/><path class="cls-34" d="M28.28,113.48c-1.07-1.4,3.57-5.4,8-4.17s3.6,6.62,1.41,7.3S28.28,113.48,28.28,113.48Z"/><path class="cls-35" d="M35.49,100.14c-.53,1.9,2.38,6.28,9,5.38s9.41-2.59,7.83-3.12a52,52,0,0,0-10.18-1.87C36.81,100,35.74,99.26,35.49,100.14Z"/></g><path class="cls-36" d="M9.08,89.06a34.19,34.19,0,0,0,7.27,5c1.81.87,3.93.44,5.77.33s2.69.73,7.89,1.83c5.55,1.17,7.6,1.63,7.44,2.48s4.16,1.67,6.28,1.39a27.74,27.74,0,0,1,11.57,1c4.25,1.52.93,1.14,4.83,2.48a12.4,12.4,0,0,0,6.78.81c2-.11,3,.55,7.81,2.13s8.5.55,11.56.82a53.78,53.78,0,0,0,7.3.07c.68,0,6.68.85,9.16,1.45s3.17.82,5.14.12,2.05-2,2.05-2a277.78,277.78,0,0,1-60.56-9.83c-18.92-5.46-16.08-5-20.19-5s-9.76-1.07-10.46-1.77c-4.08-4.08-5.43-2.47-7.63-3.14S6.81,86.88,9.08,89.06Z"/><g class="cls-37"><path class="cls-38" d="M57.46,107.4c-2.64.62-.44,2.72,4.29,1.81S60.54,106.67,57.46,107.4Z"/><path class="cls-38" d="M62.93,105.13c-3.19.6,2.77,4.43,8.19,3.29S69.33,103.93,62.93,105.13Z"/><path class="cls-38" d="M64.21,111.34c-6.54,3.71,3.14,4.89,5,2.2S66.26,110.17,64.21,111.34Z"/><path class="cls-38" d="M80.38,120.11c-3.9,1.19,5.32,4.57,8,3.46S85.79,118.45,80.38,120.11Z"/><path class="cls-38" d="M86.34,116.29c-2.19,1,1.66,1.76,2.08.67S87.79,115.62,86.34,116.29Z"/><path class="cls-38" d="M98.18,116.53c-2.77,3.32,1.43,3.38,2.39,1.18S99.26,115.24,98.18,116.53Z"/><path class="cls-38" d="M98.58,110.32c-.88.32.53.86,1.36.66S99.47,110,98.58,110.32Z"/><path class="cls-38" d="M34.75,104c-2.74-.2-1.7,4.91,2.63,4.86S42.4,104.61,34.75,104Z"/><path class="cls-38" d="M41.77,105.93c-1.48.9,2.24,1.93,3.46.75S42.6,105.43,41.77,105.93Z"/><path class="cls-38" d="M21.17,96.57c-3.4.2,3.06,4.36,5.47,4a4.12,4.12,0,0,0,3.4-2.4C30,98,26.81,96.24,21.17,96.57Z"/><path class="cls-38" d="M31,99.16c-.77.43,2.26,1.06,2.57.74S32.33,98.42,31,99.16Z"/><path class="cls-38" d="M31.74,106.52c-2.13-.85-1,2.1-.42,2.24S33.28,107.13,31.74,106.52Z"/><path class="cls-38" d="M16.57,97.15c-5.17,1.92,4,5.37,5,4S18.9,96.29,16.57,97.15Z"/></g><path class="cls-39" d="M61.05,117.86c-4.66.61,7.3,5.62,10.88,4.93S70.85,116.58,61.05,117.86Z"/><path class="cls-39" d="M49,105.61c-4.29.56-3.86,3.46,2.1,5.36S56.93,104.57,49,105.61Z"/><path class="cls-39" d="M39,100.49c-4.1-.1-1.89,1.46,2.24,3s8.78.21,9.46-.39S48.62,100.72,39,100.49Z"/><path class="cls-39" d="M57,103.81c-1.92,0-.84,2.26,1.42,2.16S58.91,103.84,57,103.81Z"/><path class="cls-39" d="M26.76,101.74c-4-1.27-4.4,2.92-.1,4.29S28.33,102.24,26.76,101.74Z"/><g class="cls-40"><path class="cls-41" d="M100.73,80.74c-4.46,6.25,4.86,5.23,8.86,2.89s5.34,1.67,6.23-.51S107.28,71.58,100.73,80.74Z"/><path class="cls-42" d="M106.19,87.71c-2.26,3.19,1.07,2.31,2.17,1S107.14,86.38,106.19,87.71Z"/><path class="cls-43" d="M68.64,77.25c-5.86,4,5.06,7.17,8.33,4.22S72.69,74.5,68.64,77.25Z"/><path class="cls-44" d="M42.48,63.86c-6.89,3.6.81,6.33,7.1,10.38s7.92-2.49,11-3.67S50.41,59.73,42.48,63.86Z"/><path class="cls-45" d="M62.7,61.84c-3.85.29,1.71,3.87,2.88,3.77S64.86,61.67,62.7,61.84Z"/><path class="cls-46" d="M21.92,84.38c.2-3.4,6-5.74,5.94-1.84S21.71,87.77,21.92,84.38Z"/><path class="cls-47" d="M19.46,76.23c0,3.49,3,4.66,4.49.72S19.45,73.86,19.46,76.23Z"/><path class="cls-48" d="M5.46,60.61c5.64-7.35,10.91,1,8.92,8.07s-5.51,6-7.87,1.65S4.58,61.76,5.46,60.61Z"/><path class="cls-49" d="M14.23,54.13c-2.1.86.17,5.19,5.23,4.19S24.89,49.78,14.23,54.13Z"/><path class="cls-50" d="M56.7,77c2.83-5.82,4.25-2.72,1.67.26S56.7,77,56.7,77Z"/><path class="cls-51" d="M69.92,102.16c3.12.59.65-3.5,10.71-1.8s14.2,5.54,14.2,5.54S78.75,105,69.92,102.16Z"/><path class="cls-52" d="M71.88,95.43c-3.86,3.52,3.73,5.1,5.81.92S73.8,93.69,71.88,95.43Z"/><path class="cls-53" d="M110.15,69.28c-2.39,2.47,2.34,4,3.54,1.34S111.08,68.32,110.15,69.28Z"/><path class="cls-54" d="M104.69,72.25c-1.64,1.59,1.4,1.63,2,.31S105.92,71.06,104.69,72.25Z"/><path class="cls-55" d="M103.12,100.54c-7.82,2-5,5.83.87,3.21S105.07,100,103.12,100.54Z"/><path class="cls-56" d="M46.11,58.06c-4.61.64.2,3.92,3.34,3.33S48.88,57.68,46.11,58.06Z"/><path class="cls-57" d="M11,39.22c-7.48.44-4,5.09.75,6.3S13.72,39.06,11,39.22Z"/><path class="cls-58" d="M26.08,42.07c-4.53,0,4.48,3.55,4.78,3.38S34.13,42.08,26.08,42.07Z"/><path class="cls-59" d="M38.62,73.06c-1.21,1.44.72,2.49,1.83.83S39.25,72.32,38.62,73.06Z"/><path class="cls-60" d="M29.87,84.74c-2.44,1.88,6,5.51,10.53,3.17S33.2,82.17,29.87,84.74Z"/></g><path class="cls-61" d="M50,63.17c-9.5-.53-3.74,7.24,1,9.1s8.55-1.87,8.09-3.52S54.46,63.42,50,63.17Z"/><path class="cls-61" d="M100.73,80.74c-2.73,2.88,6.46,2.37,9.34,1.53s-1.11-3.56,1.62-3.38-2-2.77-5.38-2A10.84,10.84,0,0,0,100.73,80.74Z"/><path class="cls-61" d="M74.61,100.09c-4.1.49,2.93,3.52,8.22,3.66s6.27-.83,6.27-.83S81.4,99.27,74.61,100.09Z"/><path class="cls-62" d="M12.58,37.69c3.21,2.23,9.06,3,14.63,3.55s1.62,1.66,6.39,2.95,21.89,5.4,21.89,5.4a96.37,96.37,0,0,1-19.23-8.92c-10.15-6.14-10.7-7-21.6-7.24S12.58,37.69,12.58,37.69Z"/><path class="cls-61" d="M62.8,76.94c-2,1.94,6,5.47,7.62,1.88S65.42,74.39,62.8,76.94Z"/><path class="cls-63" d="M69.54,21.52c-17-6.39-31.52-4-39.78-2.44S20.3,26,20.3,26s12.13.34,18.58,2.07S33.29,27.94,22,31.22,40.77,48.11,52.64,49.54s7.34,9,8.73,9.93c5.16,3.57.25,24.86-2.81,29.92s-1.41,10,5.13,10.7c8.48,1,7.53-8.58,7.42-15.23S74.55,61.08,77,58.6s3.34,7.41,9.9,8.88c9,2,9.4-6.05,16.15-6.6s21.68.21,7.76-9.79-14.24-13-14.29-16S76.43,24.12,69.54,21.52Z"/><path class="cls-64" d="M51.8,34c-12.2-2.44-10.72-12.8-4.33-19.21a13.11,13.11,0,0,1,21.16,3.44C72.76,26.36,67.57,37.18,51.8,34Z"/><path class="cls-65" d="M69,24.68C61.49,16,64.94,5.11,78.13.75S103.32,15.62,98.44,28C93.66,40.1,69,24.68,69,24.68Z"/><path class="cls-66" d="M82.46,37.26c-1.76-9.14,1.39-11.07,13.88-11.81s11.06,9.19,9.34,18.07S84.72,48.92,82.46,37.26Z"/><path class="cls-67" d="M59,41.59C53.31,31.26,55.41,19.52,72.7,20.5c17.49,1,15.57,13.56,11.31,20.69C79,49.5,62.26,47.64,59,41.59Z"/><path class="cls-68" d="M60.93,54.68c1.37,1.73,2,1.7,4.47,5.24s-1.73,20.84-5,28-3.46,12,4.86,12.35,3.17-20.33,5.58-33.21C73.29,53.93,77,56,78.43,55.49s2.23,5.58,5.86,9.54,11.94-.71,16.59-6,10.55-.09,12.83-.18a2.83,2.83,0,0,0,2.68-2.22s1.33.78.2,2.86-5,1-10.73,1.8-9,2.06-12.36,7.69-11.76,3.2-12.26-3.35S78.76,57.29,77,59,72.81,73.08,71.62,78.4s.78,10.34,0,14.54-.14,9.44-7.94,9.43-7.34-5.91-6.26-10.56,5.78-15,5.57-24-1.37-6.75-1.92-9.27A8.67,8.67,0,0,1,60.93,54.68Z"/><path class="cls-69" d="M61.33,52c-.41-2,10.38,1.49,13.59,3.07S71.92,61.05,70,72c-1.89,10.78-4.46,11.33-5.63-.63A138.44,138.44,0,0,0,61.33,52Z"/><path class="cls-69" d="M80.44,55.72c-1.76.15-1.5,8.32,5.57,10.46s13-5.12,15.58-6.48S88.46,55,80.44,55.72Z"/><path class="cls-69" d="M22.94,32.38c-2.14,1.23.11,5.49,15,11.34S59,48.07,61,48.29,45.83,41,49.29,39.9s2.06-7.2-7.63-8.84A43.62,43.62,0,0,0,22.94,32.38Z"/><path class="cls-70" d="M59,94c-1.75,2.34,1.2-7.93,6.35-9.58S70.41,90,69.5,91.86,62.38,89.46,59,94Z"/><path class="cls-71" d="M59.19,99.05c-2.92-4.86.94-13.8,7.36-13.94s5.35,13,1,16S59.19,99.05,59.19,99.05Z"/><path class="cls-72" d="M80.46,60.41c0-4,14.64-3.63,14.29.28s5.76-.25,8.87-.75-11.45-3.78-20.08-4.31S80.46,60.41,80.46,60.41Z"/><path class="cls-73" d="M69.54,21.52c-10.17,2-13.79,6.65-11.52,15s9.41,1.25,13.83-2.1,12.85-2.09,13.06.54S89.54,17.59,69.54,21.52Z"/><path class="cls-74" d="M87.3,39.51c-1.28-1.62-.87-9.47,2.12-12s11.15-2.58,14.24,2.71,1,11.87-2.29,13.79S91.94,39.35,91,35.18,87.3,39.51,87.3,39.51Z"/><path class="cls-75" d="M82.21,19.73C71.1,16.79,67.12,11.64,69.8,7.51s12-10,20.17-3.32,10.77,17.61,6.4,20-8.43-6.13-11.13-6.15S82.21,19.73,82.21,19.73Z"/><path class="cls-76" d="M48.73,29.64c-11.6-3.34-2.63-15.36,4.84-17.75S65.54,17,64.75,19,58.42,23.18,57,25.49s-2.1-1.21-5.24-1.57S54,25.21,54,27.62,48.73,29.64,48.73,29.64Z"/><path class="cls-77" d="M71.66,47.13s6.47.73,10-.36,1.38-3.22,5.12-1.89.77,2.59,7.73,3.23a69.34,69.34,0,0,0,12.41.07l-2.5-2.27s-6,2.54-10,1.32S86.57,37.86,86.27,36C86.27,36,82.77,48.37,71.66,47.13Z"/><path class="cls-77" d="M45.06,30.89s.9,1.11,5.6,1.78,5.7-3.16,5.7-3.16-.62,6.18,1.76,10.42c0,0-4.16-1.27-5.92-2.72s-1.71-3.13-4.94-4.37S45.06,30.89,45.06,30.89Z"/><path class="cls-71" d="M85,1.42C76.74-1.44,76.29,9.63,84.66,17s12.12,7.67,13.51,6.34S96.68,5.43,85,1.42Z"/><path class="cls-71" d="M45,21.53c-2.56,7.89,9,5.75,15.4-.38S49.77,6.79,45,21.53Z"/><path class="cls-71" d="M66.23,23.18c-7.81,4.7,9,9.51,15.93,8.3S79.52,15.17,66.23,23.18Z"/><path class="cls-71" d="M101.57,27.85c-6.52-6.44-12.35,7.51-5.56,12.6S109.49,35.67,101.57,27.85Z"/><path class="cls-78" d="M60.23,40c5.85,5.72,21.21,4,25-1.16s6.33,3.78,10.38,6.14,8.7-3.59,10.86-5.64,2,4.29,4.54,6.58c5,4.45,4.65,9.54,4.65,9.54s-1.47,1.93-26.42-1.78-33.91-9.53-33.05-11S47.63,35,43.58,31.34s-.95-6.73-.95-6.73-.35,4.3,5.37,5.5,7.85-2.59,8.78-3.38S53.41,33.3,60.23,40Z"/><path class="cls-79" d="M107.73,48.09c6.09,5.62,2.88,5.37-18.32,3.17S45.67,45.07,34.4,39s-8.8-8.18-.65-9.42,11.44,1.55,12.72,3.2,4,9.55-11.59,1.34C29,31,44.23,40.47,66.05,44.59s35.38,7.5,38.54,6.27.69-4.68.69-4.68Z"/><path class="cls-80" d="M57.49,33.92c-1.7-6.14,2.42-10.22,5.94-12.14s8.09-1.33,8.37-1.32-4.55,2.39-7.3,5.5,1.89,1.09-1.63,5.07S57.49,33.92,57.49,33.92Z"/><path class="cls-81" d="M23.06,23s2.07-3.14,7.52-4a102.09,102.09,0,0,1,11.94-1,55.72,55.72,0,0,0-7.81,3.45A20.79,20.79,0,0,1,23.06,23Z"/><path class="cls-82" d="M44.31,21A14.19,14.19,0,0,1,51,13.07C56.18,10.35,58.36,11,58.36,11s-4.16,1-5.7,2.33,3.87.27-.51,5.11S44.31,21,44.31,21Z"/><path class="cls-83" d="M107,40.3s-3.55,6.07-9.71,5.87-6.78-6.52-9.25-8-2.42,2.23-7.41,4.72S67.9,44.35,67.9,44.35,74.06,47,79.26,46s.82-4.43,7.67-3.87.15,1-.93,3.9,11.35,3.57,17.89,2.6,6.23-2.58,4.93-5.35S107,40.3,107,40.3Z"/><path class="cls-83" d="M59.13,40.45c-6.48-3.38-4.81-7.44-8-8.39s3.37-1.14,4.39-2.23S55.13,35.15,59.13,40.45Z"/><path class="cls-83" d="M20.3,26c-2.72-.11,10.43-.91,15.81-1.92s6.26-.15,5.81,2.37-1.56,2.26-1.56,2.26S27.91,26.29,20.3,26Z"/><path class="cls-84" d="M100.86,49.62C92.8,51.07,90.62,51.39,89.14,52s13.43,3,20,2.69,5-3.91,3.46-6.36-1.75-1.2-5.65-.16S100.86,49.62,100.86,49.62Z"/><path class="cls-84" d="M66.68,18.47c-3.36-3.62-.8-6.76.29-9s.69,3.51,5.5,7S68.77,20.71,66.68,18.47Z"/><path class="cls-84" d="M59.7,36.79c-2.13-3.8,4.83-6.08,9.82-5.53s-3.2,6.07-5,6.67,1.41.34,6.72-3,12-.26,11.06,3.27-9.45,7.29-16.37,4.15S59.7,36.79,59.7,36.79Z"/><path class="cls-85" d="M69.84,10c-.59-1,1.76-4.62,3.85-5.54S72.54,14.66,69.84,10Z"/><path class="cls-85" d="M56.24,14.65c-1.66,1.15-.73,4.06,1.58,2.23S57.47,13.8,56.24,14.65Z"/><path class="cls-84" d="M34.15,22.05c-3.81,2.44,2.32,2.52,6-.78S36.45,20.58,34.15,22.05Z"/><path class="cls-86" d="M63.55,74c2.9-12.82,6-11,6.58-4.69s5.42-8,7.09-11.72-7.91-3.11-12.74-5-2.36,6.3-1.94,7,1.43-.75,1.66,2.8A99,99,0,0,1,63.55,74Z"/><path class="cls-87" d="M61.52,47c-3.11.57,6.15,5.8,16.55,7.15s16.42,1.48,23.34,2.61,8.09-1.57,8.09-1.57a113.54,113.54,0,0,1-18.77-3c-8.06-2.28,6.7-1.51-6.42-3.61S64.81,46.43,61.52,47Z"/><path class="cls-88" d="M69.19,89.56c-1.69-.54-1.9,2.71-.43,3.52S71,90.15,69.19,89.56Z"/><path class="cls-88" d="M87.52,55c-1.24-.39,3.77-.57,10-.48s9,1.73,8,2.14S92.23,56.5,87.52,55Z"/><path class="cls-88" d="M91.8,48.72c-1.62.16.76,2.21,2.79,1.34S92.67,48.64,91.8,48.72Z"/><path class="cls-88" d="M101.49,28.75c-1.7.45,1,3.8,2.06,3.7S104.85,27.87,101.49,28.75Z"/><path class="cls-88" d="M78.91,29.2c-2.58.82.51,3.06,1.75,1.51S80.2,28.78,78.91,29.2Z"/><path class="cls-88" d="M91,9.83c-1.82.59-1.25,5.06,3.14,5.14S94.37,8.74,91,9.83Z"/><path class="cls-88" d="M55.88,32.6a12.59,12.59,0,0,0,.6,4.44,4.84,4.84,0,0,0,2.27,2.87A32,32,0,0,1,55.88,32.6Z"/><path class="cls-88" d="M39.37,40c-1.67,0,2,1.78,5.33,2.66a16.32,16.32,0,0,0,3.73.8S46.78,40,39.37,40Z"/><path class="cls-88" d="M91.18,43c-1-.67,1,0,3.28,1.45a9.9,9.9,0,0,0,3.05,1.49S94.13,47,91.18,43Z"/><path class="cls-88" d="M96.12,61.25C95,63.37,97.5,62.42,98,61.46S96.54,60.44,96.12,61.25Z"/><path class="cls-89" d="M99.63,82.93s.06,2.49,3.64,2.5a12.43,12.43,0,0,0,6.32-1.8s-2,3.28-7,2.93S99.63,82.93,99.63,82.93Z"/><path class="cls-89" d="M41.22,69c1.61,1.17,4.4,1.87,7.9,4.19s4.78,2.4,6.72,1.06a21.2,21.2,0,0,0,3-2.47,33.67,33.67,0,0,0-3.54,4.36c-.92,1.59-5.53-.18-9.53-3S41.22,69,41.22,69Z"/><path class="cls-89" d="M44.27,58.88c.16.85,1.7,2.17,3.68,2.34s2.57-.35,2.57-.35-.27,1.2-3.63.66S44.27,58.88,44.27,58.88Z"/><path class="cls-89" d="M5.59,68.28a7.46,7.46,0,0,0,4,4.51c3.11,1.24,5-5.1,5-5.1s-.79,6.11-4,7.1S5.59,68.28,5.59,68.28Z"/><path class="cls-89" d="M13.47,55.43s.25,2.09,4.44,2.33,5-2.6,5-2.6,1.35,3.32-4.12,3.51S13.47,55.43,13.47,55.43Z"/><path class="cls-62" d="M107.55,61.64a22.13,22.13,0,0,1,9.29-.89c5.58.54,9.06,2.86,9.29,3.5s-1.62.81-9.75-.29S107.55,61.64,107.55,61.64Z"/><path class="cls-89" d="M29.87,84.74c-1.24,1.67,3.56,3.73,6.67,3.61a11.7,11.7,0,0,0,4.36-.74s-.71,2.38-6.67,1.44S28.08,85.48,29.87,84.74Z"/><path class="cls-89" d="M104.69,72.25c-.72,1.87,1.47.87,1.47.87a2.23,2.23,0,0,1-2.22,1.61C102,74.86,104.69,72.25,104.69,72.25Z"/><path class="cls-90" d="M74.81,71.51c0,1.55,5.2,6.06,4.66,9.32s-3.42-2.28-4.67,4.61,7,3.57,5.54,7.14-2.44,4.82-1.07,6.3,13.93,4.1,17,3.65,6.87-6.62,9.77-5.33,5.35-6-2.09-7-9-5.1-3.94-10.42,15.7-1.35,16.36-.13a5.34,5.34,0,0,1,.12,5.22c-1.1,2.25,1.38,2.72,4.5-3.22s6.36-11.49,3.27-13.09-7.33-6-7.66-2.39S114,73,111.45,72.27s-3-2.53-4.15.39-6,5.43-5.12,1.84,3.3-4.92,6.49-5.79,6.25-2.45,3.91-3.6S104.46,61,100.34,64s-3.25,9.32-7.56,11.89-9.81-2-12-9S74.92,68,74.81,71.51Z"/><path class="cls-90" d="M18.18,45.16c-3.47,4.48,3.87,4.53,6.49,8.33s-3.14,7-6.61,6.39-1.62,11.23-3,13.71,7.51-7.14,10.15-1.34,9.18,6.27,9.95,4,5-5.3,6.47-5.47-7.52-4.92-2.44-8.39S40.25,56.5,43,55.2s9.24,1.62,9.56,3.88-.11,1.32,2.34,3.32,7.84,1.21,5.48-1.31,1.69-4.06-1.5-6.88S38.05,46.8,36,46.5s-3,2.5-6.85,1S22.05,40.16,18.18,45.16Z"/><path class="cls-2" d="M42.33,23.86A26.78,26.78,0,0,1,47,15.27a12.51,12.51,0,0,1,8.79-4.7,18.49,18.49,0,0,0-4.68-.08C49.48,10.82,44.61,13.64,42.33,23.86Z"/><path class="cls-2" d="M56.45,28.75a11.87,11.87,0,0,1,5.34-6.81,16.41,16.41,0,0,1,8.63-1.8S61.35,20.94,56.45,28.75Z"/></g></g></g></svg>