<svg xmlns="http://www.w3.org/2000/svg" xmlns:xlink="http://www.w3.org/1999/xlink" viewBox="0 0 131.67 105.94"><defs><style>.cls-1{isolation:isolate;}.cls-2{fill:#ff9fff;}.cls-3{fill:url(#Gradient_97);}.cls-4{fill:url(#Gradient_100);}.cls-5{fill:url(#Gradient_75);}.cls-6{fill:url(#Gradient_99);}.cls-7{fill:url(#Gradient_21);}.cls-10,.cls-11,.cls-14,.cls-15,.cls-18,.cls-24,.cls-26,.cls-33,.cls-8,.cls-9{mix-blend-mode:multiply;}.cls-8{fill:url(#Gradient_101);}.cls-9{fill:url(#Gradient_101-2);}.cls-10{fill:url(#Gradient_102);}.cls-11{fill:#ac0bac;}.cls-11,.cls-17,.cls-18{opacity:0.3;}.cls-12,.cls-13{fill:#ff1f6a;mix-blend-mode:color-dodge;}.cls-12,.cls-19,.cls-21,.cls-22{opacity:0.5;}.cls-14{fill:url(#Gradient_139);}.cls-15{fill:url(#Gradient_105);}.cls-16{fill:#ff954f;}.cls-16,.cls-17,.cls-20,.cls-21,.cls-22{mix-blend-mode:soft-light;}.cls-17,.cls-21{fill:#e06886;}.cls-18{fill:#ac1f90;}.cls-19{mix-blend-mode:screen;fill:url(#Gradient_26);}.cls-20,.cls-22,.cls-23{fill:#fff;}.cls-24{fill:url(#Gradient_139-2);}.cls-25{fill:#ffcaff;}.cls-27{fill:url(#Gradient_105-2);}.cls-28{fill:url(#Gradient_105-3);}.cls-29{fill:url(#Gradient_105-4);}.cls-30{fill:url(#Gradient_105-5);}.cls-31{fill:url(#Gradient_105-6);}.cls-32{fill:#ffd696;}.cls-33{fill:url(#Gradient_105-7);}</style><linearGradient id="Gradient_97" x1="-428.01" y1="79.64" x2="-428.01" y2="-14.82" gradientTransform="matrix(-0.84, -0.09, -0.11, 0.99, -295.39, -13.17)" gradientUnits="userSpaceOnUse"><stop offset="0" stop-color="#a43148"/><stop offset="0.18" stop-color="#af3c36"/><stop offset="0.39" stop-color="#b84428"/><stop offset="0.57" stop-color="#bb4723"/><stop offset="0.62" stop-color="#d15230"/><stop offset="0.69" stop-color="#e55d3b"/><stop offset="0.77" stop-color="#f46444"/><stop offset="0.86" stop-color="#fc6949"/><stop offset="1" stop-color="#ff6a4a"/></linearGradient><linearGradient id="Gradient_100" x1="-284.18" y1="53.57" x2="-267.71" y2="-32.22" gradientTransform="matrix(-0.91, -0.27, -0.28, 0.96, -162.27, -22.14)" gradientUnits="userSpaceOnUse"><stop offset="0" stop-color="#e05b43"/><stop offset="1" stop-color="#ff753b"/></linearGradient><linearGradient id="Gradient_75" x1="3.71" y1="70.72" x2="3.71" y2="2.93" gradientTransform="translate(91.08 28.41) rotate(6.1)" gradientUnits="userSpaceOnUse"><stop offset="0.07" stop-color="#e90022"/><stop offset="1" stop-color="#a7001d"/></linearGradient><linearGradient id="Gradient_99" x1="-0.81" y1="76.07" x2="-0.81" y2="-4.72" gradientTransform="translate(91.08 28.41) rotate(6.1)" gradientUnits="userSpaceOnUse"><stop offset="0" stop-color="#fb8163"/><stop offset="1" stop-color="#ffa07b"/></linearGradient><linearGradient id="Gradient_21" x1="-20.77" y1="59.49" x2="-20.77" y2="-26.24" gradientTransform="translate(91.08 28.41) rotate(6.1)" gradientUnits="userSpaceOnUse"><stop offset="0" stop-color="#4f0c1f"/><stop offset="0.31" stop-color="#561020"/><stop offset="0.75" stop-color="#691a22"/><stop offset="1" stop-color="#772224"/></linearGradient><linearGradient id="Gradient_101" x1="3.99" y1="56.27" x2="3.99" y2="1.82" gradientTransform="translate(91.08 28.41) rotate(6.1)" gradientUnits="userSpaceOnUse"><stop offset="0" stop-color="#ffdbea"/><stop offset="0.1" stop-color="#facfe2"/><stop offset="0.27" stop-color="#eeb0ce"/><stop offset="0.51" stop-color="#db7eac"/><stop offset="0.79" stop-color="#c0397f"/><stop offset="1" stop-color="#a90059"/></linearGradient><linearGradient id="Gradient_101-2" x1="2.45" y1="53.92" x2="2.45" y2="24.97" xlink:href="#Gradient_101"/><linearGradient id="Gradient_102" x1="-3.96" y1="68.9" x2="-3.96" y2="46.96" gradientTransform="translate(91.08 28.41) rotate(6.1)" gradientUnits="userSpaceOnUse"><stop offset="0" stop-color="#a90059"/><stop offset="0.21" stop-color="#c0397f"/><stop offset="0.49" stop-color="#db7eac"/><stop offset="0.73" stop-color="#eeb0ce"/><stop offset="0.9" stop-color="#facfe2"/><stop offset="1" stop-color="#ffdbea"/></linearGradient><linearGradient id="Gradient_139" x1="-83.25" y1="26.34" x2="27.56" y2="26.34" gradientTransform="translate(91.08 28.41) rotate(6.1)" gradientUnits="userSpaceOnUse"><stop offset="0" stop-color="#8b0059"/><stop offset="0.21" stop-color="#a9397f"/><stop offset="0.49" stop-color="#ce7eac"/><stop offset="0.73" stop-color="#e8b0ce"/><stop offset="0.9" stop-color="#f9cfe2"/><stop offset="1" stop-color="#ffdbea"/></linearGradient><linearGradient id="Gradient_105" x1="-74.84" y1="7.23" x2="-33.23" y2="7.23" gradientTransform="translate(91.08 28.41) rotate(6.1)" gradientUnits="userSpaceOnUse"><stop offset="0" stop-color="#ffdbea"/><stop offset="0.1" stop-color="#f9cfe2"/><stop offset="0.27" stop-color="#e8b0ce"/><stop offset="0.51" stop-color="#ce7eac"/><stop offset="0.79" stop-color="#a9397f"/><stop offset="1" stop-color="#8b0059"/></linearGradient><linearGradient id="Gradient_26" x1="-82.35" y1="35.02" x2="-73.54" y2="35.02" gradientTransform="translate(91.08 28.41) rotate(6.1)" gradientUnits="userSpaceOnUse"><stop offset="0" stop-color="#844fbd"/><stop offset="0.54" stop-color="#3b2354"/><stop offset="1"/></linearGradient><linearGradient id="Gradient_139-2" x1="-44.27" y1="79.32" x2="-44.27" y2="56.27" xlink:href="#Gradient_139"/><linearGradient id="Gradient_105-2" x1="-28.85" y1="17.91" x2="-28.85" y2="9.29" xlink:href="#Gradient_105"/><linearGradient id="Gradient_105-3" x1="-16.9" y1="9.38" x2="-16.9" y2="2.27" xlink:href="#Gradient_105"/><linearGradient id="Gradient_105-4" x1="3.2" y1="-1.29" x2="3.2" y2="-3" xlink:href="#Gradient_105"/><linearGradient id="Gradient_105-5" x1="-28.57" y1="66.73" x2="-28.57" y2="52.05" xlink:href="#Gradient_105"/><linearGradient id="Gradient_105-6" x1="34.85" y1="61.87" x2="34.85" y2="47.97" xlink:href="#Gradient_105"/><linearGradient id="Gradient_105-7" x1="134.6" y1="52.45" x2="182.4" y2="52.45" gradientTransform="translate(-54.86 -10.94) rotate(-3.57)" xlink:href="#Gradient_105"/></defs><g class="cls-1"><g id="Layer_2" data-name="Layer 2"><g id="objects"><path class="cls-2" d="M15.37,89.14S-2,77.74.19,49.11c2.28-29.72,17-32.68,17-32.68A51.81,51.81,0,0,1,39.87,2c14.52-4.55,24.3.29,24.3.29a50.91,50.91,0,0,1,27.43.59C106,7.37,75.84,93.73,66.12,100.48S15.37,89.14,15.37,89.14Z"/><path class="cls-3" d="M119.89,32S116,23.46,99.09,17.74C76.61,10.13,50.11,6.43,28.9,16c-35.5,16-32.38,57.55-13.53,73.18C31.88,102.81,65.78,106.69,79,105.82c2.22-.14,6.4-3.22,11.93-3.5,4.87-.24,10.7,2.48,18,.22C121.41,81.32,119.89,32,119.89,32Z"/><path class="cls-4" d="M100.22,94.25s-.68,11.33,11.78,7.63c17.42-5.17,34.41-66.13-4-79.27-33-11.29-64.39,4.93-66.26,45.33C40.14,103.43,84.28,116.84,100.22,94.25Z"/><path class="cls-5" d="M102.93,99s10.77-5.84,16.59-29.16C126.58,41.55,100,21.12,77.21,38c-22.28,16.46-21,53.55.17,56s26-26.14,22.71-34.65-9.64-4.61-11.1,1.8S100,74,83.44,79.68C67,85.27,63.64,51.75,91.37,49,119.31,46.2,114,68,107.48,83.29c-4,9.28-6.44,9.71-8.84,13C97.49,97.83,92.71,102.35,102.93,99Z"/><path class="cls-6" d="M103.49,99.69c.08-1.83,14.46-10.78,18.22-35,3.88-25.05-13.81-38-34.51-34.18C66.66,34.22,57.91,54,58.51,73.89c.6,19.37,9.38,22.17,22,22.21s18.16-5.76,23.77-20.84c5.73-15.4-2.12-24.32-10.39-23.82S79.77,58,84,61.37s7.86,8.18,2,15.22C82.29,81,65.82,75.13,75.56,58.45c6.37-10.91,27.56-12.41,33.28-3.68s2,22.23-3.4,32.88C100.09,98.14,85,103.77,73.57,103S41.18,94.4,44.23,67c3.16-28.42,28.88-51.77,61.45-40.31,32.25,11.35,23.48,44.71,15.7,61.56C113.78,104.71,103.49,99.69,103.49,99.69Z"/><path class="cls-7" d="M129.66,47.06s7.45-8.39-6.33-27.21c-6.09-8.33-43.8-32.83-75.31-8-19.75,15.59-19.46,30-25.63,43-3.82,8-10.62-7.71,3.31-27.47C43,2.79,75,11.68,75,11.68S77.58,7,60.19,3.37,16.07,10.73,8.77,32.57C1.67,53.81,6,63.2,13,73.56s15.71,10.34,21.74-2.5c6.14-13.06,7.87-43.8,34.7-51.2C96.64,12.35,123.46,22.15,129.66,47.06Z"/><path class="cls-8" d="M62.9,82s-3.53-13.66,1.87-25.41c5.48-11.93,4.83-8.17,8.75-11s3.21-6.82,8.73-9.78,11.14-3.69,22.17.47S117.74,45.92,118,52.19c.1,2.33,2,4.9,2.64,9.88S115,83.13,115,83.13s7.65-15.09,7-29.24c-.64-14.4-15.48-23.62-29.92-23.25s-27.24,15.75-30,27.27C59.4,69.26,62.9,82,62.9,82Z"/><path class="cls-9" d="M76,79.38s1.83,2.54,6.58,2.15,8.06-3.82,9.94-7.51-3.86-7.66-2.59-12.93,4.58-5.75,8.58-2.54.73,18.7.73,18.7,3.06-7.8,2.15-15.28S97.21,53.28,93,54.4s-6.16,7-4.38,10.7,4.06,5.28.94,10S81.23,80.82,76,79.38Z"/><path class="cls-10" d="M63.73,83.9a19.69,19.69,0,0,0,16.56,10c11.92.5,19.1-17.4,19.1-17.4S96.83,94.69,80.54,96.1,63.73,83.9,63.73,83.9Z"/><path class="cls-11" d="M78.84,38.46c-3.39,5.21,13.55,2.83,25.75,5.26s0-10-10.4-10.21S78.84,38.46,78.84,38.46Z"/><path class="cls-11" d="M72.54,77.77C69,77.73,68.6,91.87,80,92.9s16.26-9.35,17.86-19-2.77-10-.49-11.92-3.53-5.77-5.48-3.35S90.25,61.49,93,70.35,83.17,92.36,72.54,77.77Z"/><path class="cls-12" d="M70.87,64.07c-1.4,2-1.06-19.5,17.57-22.65s24.36,6,28.18,16.42-3.9,21.92-5.1,22.89,3.46-14,0-24.12S94.85,46.27,86.62,48C76.54,50,72.42,58.69,70.87,64.07Z"/><path class="cls-13" d="M69.86,86c-2,6.23-7.57-5.5-7.49-15.44S66,56.93,66,56.93s2.27,1.32,3.56,12.76C70.79,81,69.86,86,69.86,86Z"/><path class="cls-13" d="M99.35,95.85c-2,3.74,7,1.85,10.64-4.93S111.38,74,111.38,74,108.37,86.41,99.35,95.85Z"/><path class="cls-14" d="M118.78,28.57S109,15.24,83.46,14.76c-22.65-.43-36.93,14.73-42.4,31.71C35,65.19,31.65,76.29,21.93,77.1,9.71,78.11,4.4,54.44,5.25,48.44c0,0-1.95,10.5,2.81,23.55,4.69,12.84,15.58,16.43,24,15.79s6.39-32.43,20.28-54C66.66,11.62,104.16,18.78,118.78,28.57Z"/><path class="cls-15" d="M46.79,12.7S53.65,5.82,60.2,4.63c0,0-9.75-4.19-25.62,3.47C14.77,17.67,12.73,46.26,14.76,51.46s6.16,5,6.16,5S14.83,50.56,23.81,33C33,15,46.79,12.7,46.79,12.7Z"/><path class="cls-16" d="M62.58,36.16c-5.51,6.71,10.08-2.46,22.32-5.39S72.07,19,62.58,36.16Z"/><path class="cls-16" d="M62.87,99.62c-6.29-.78-16.85-6.94-17.54-23C44.62,60.28,52.38,49,56.55,45.73S53.81,71,60.65,85c6.72,13.79,20.82,12.76,24.4,12.06S85.22,106.13,62.87,99.62Z"/><path class="cls-16" d="M113.43,31.72c-5.12-1.86,6.79,5.15,8.85,20.34,2,14.91-3.74,27.93-4.34,30.33s9.29-3.73,10-21.94C128.59,41.8,113.43,31.72,113.43,31.72Z"/><path class="cls-17" d="M22.25,75.28c-4.78,1.1-2.53-12.19,6.68-31.66,9.45-20,18.83-22.35,21.19-22.39S40.82,36.4,36.37,55.46C32,74.05,27,74.2,22.25,75.28Z"/><path class="cls-17" d="M6.24,52.24c3.33,15.87,9.53-15,18.16-29.1C33.19,8.79,36.24,7.38,36.24,7.38S5.46,12.76,6.24,52.24Z"/><path class="cls-18" d="M58.74,8c-5.87,7.28,33.88,3.31,47.12,7.87S92.15-10.6,58.74,8Z"/><path class="cls-19" d="M7.64,62.67c-2.55-9.05-1.6-18,.18-23.14s4.17,3.28,4.87,13.4a126.4,126.4,0,0,1-.24,19.19A30.49,30.49,0,0,1,7.64,62.67Z"/><path class="cls-20" d="M79.91,7.16c-4.52.23.52,3.62,3.49,3.59S86.78,6.81,79.91,7.16Z"/><path class="cls-21" d="M118.18,20.33c-4.47-2.62.71,4.17,3.09,5.6S126.36,25.11,118.18,20.33Z"/><path class="cls-22" d="M24.6,73.13c-5.8.05.74-14.9,5.76-15.73S29.3,73.09,24.6,73.13Z"/><path class="cls-20" d="M18.67,22c-2,5.26,1.86,1.4,3.53-2.47S19.89,18.87,18.67,22Z"/><path class="cls-23" d="M35.89,51.51c-1.66,1.48-2,3.06-.86,3.7S37.15,50.38,35.89,51.51Z"/><path class="cls-24" d="M5.55,75.86S12,88,26.24,90.77s16.82-.58,23.41,4.33a67.2,67.2,0,0,0,24.57,10.83S15.46,105.25,5.55,75.86Z"/><path class="cls-23" d="M85.07,93.45c-3.91,1-.67-3.94,2.77-4.24S90.75,92.05,85.07,93.45Z"/><path class="cls-23" d="M85.53,46.26c-1.86,3.06,1.37,1.37,2,.51S86.3,45,85.53,46.26Z"/><path class="cls-25" d="M84.46,79.55C80,80.8,85.85,81.72,89,78.29S84.46,79.55,84.46,79.55Z"/><g class="cls-26"><path class="cls-27" d="M59.16,36.83c-4.44,8.94,3.4,7.08,4.7,1.39S60,35.15,59.16,36.83Z"/><path class="cls-28" d="M70.85,35.6c-3.91.56-.25-6.72,5.38-6.48S73.32,35.24,70.85,35.6Z"/><path class="cls-29" d="M94.53,26c-2.64,1.43-.87,1.56.46,1.36S95.78,25.3,94.53,26Z"/><path class="cls-30" d="M52.07,86c-3.38-15.76,7.73-8.82,9,2.18C62,95.8,53.08,90.69,52.07,86Z"/><path class="cls-31" d="M123.63,82.91c-.75-7.85-7.15,1.81-7.72,8S124.43,91.1,123.63,82.91Z"/></g><path class="cls-32" d="M52.31,86.78A8.44,8.44,0,0,0,58,91.36c4,.8,2.56-6,2.56-6s1.71,4.14.13,6.7S53.08,90.83,52.31,86.78Z"/><path class="cls-32" d="M116.78,87.15s-1.82,4,.41,5.42,5-3,5-3-1.94,4-5.57,5.1S116,88.2,116.78,87.15Z"/><path class="cls-32" d="M59,37.18s-1.4,3.57.3,4.9,3.64-1.63,3.64-1.63-1.77,3.09-4.16,3.21S57.8,38.64,59,37.18Z"/><path class="cls-2" d="M28.51,38.29S34.27,18.47,49.43,8.72c18.08-11.62,30-8,30-8S44.58-.1,28.51,38.29Z"/><path class="cls-33" d="M81.79,17.59s20.66-6.12,34.05.91,15.44,21.45,15.39,24a8.29,8.29,0,0,1-1.57,4.51S124.4,20.56,81.79,17.59Z"/></g></g></g></svg>