<svg xmlns="http://www.w3.org/2000/svg" xmlns:xlink="http://www.w3.org/1999/xlink" viewBox="0 0 114.47 112.61"><defs><style>.cls-1{isolation:isolate;}.cls-2{fill:#ff9fff;}.cls-3{fill:url(#Gradient_65);}.cls-4{fill:url(#Gradient_68);}.cls-18,.cls-5{fill:#ac1f90;}.cls-5{opacity:0.75;}.cls-12,.cls-16,.cls-18,.cls-19,.cls-20,.cls-23,.cls-24,.cls-28,.cls-30,.cls-32,.cls-5,.cls-6,.cls-8{mix-blend-mode:multiply;}.cls-6{fill:#cd77bb;}.cls-15,.cls-16,.cls-18,.cls-20,.cls-23,.cls-24,.cls-6,.cls-8{opacity:0.5;}.cls-15,.cls-7,.cls-9{fill:#ffff95;}.cls-21,.cls-28,.cls-30,.cls-7{opacity:0.3;}.cls-15,.cls-21,.cls-22,.cls-26,.cls-7,.cls-9{mix-blend-mode:soft-light;}.cls-8{fill:#dc8dbb;}.cls-9{opacity:0.71;}.cls-10{fill:url(#Gradient_65-2);}.cls-11{fill:url(#Gradient_68-2);}.cls-12{fill:#cf60ad;}.cls-12,.cls-32{opacity:0.2;}.cls-13{fill:url(#Gradient_65-3);}.cls-14{fill:url(#Gradient_68-3);}.cls-16{fill:#ffb6ca;}.cls-17{opacity:0.84;fill:url(#Gradient_74);}.cls-19{opacity:0.92;fill:url(#Gradient_22);}.cls-20{fill:#f04790;}.cls-21,.cls-22,.cls-25,.cls-26{fill:#ffcfb1;}.cls-22{opacity:0.86;}.cls-23{fill:#f02f90;}.cls-24{fill:#db1390;}.cls-27{fill:url(#Gradient_79);}.cls-28{fill:#cd57aa;}.cls-29{fill:url(#Gradient_82);}.cls-30{fill:#e757aa;}.cls-31{fill:#fff;}.cls-32{fill:#ff97aa;}</style><radialGradient id="Gradient_65" cx="-7.31" cy="2220.09" r="75.12" gradientTransform="matrix(0.83, 0.15, -0.14, 0.76, 375.74, -1598.63)" gradientUnits="userSpaceOnUse"><stop offset="0" stop-color="#f5ac5c"/><stop offset="0.34" stop-color="#f4a95b"/><stop offset="0.55" stop-color="#f1a156"/><stop offset="0.72" stop-color="#ec924f"/><stop offset="0.82" stop-color="#e78648"/><stop offset="0.85" stop-color="#e8854d"/><stop offset="0.88" stop-color="#ea835d"/><stop offset="0.92" stop-color="#ee7e77"/><stop offset="0.96" stop-color="#f3789a"/><stop offset="1" stop-color="#f972c0"/></radialGradient><linearGradient id="Gradient_68" x1="-87.94" y1="29.14" x2="-87.94" y2="-1.62" gradientTransform="translate(142.86 82.57) rotate(10.23)" gradientUnits="userSpaceOnUse"><stop offset="0" stop-color="#e37738"/><stop offset="0.45" stop-color="#dc6c3e"/><stop offset="1" stop-color="#d15948"/></linearGradient><radialGradient id="Gradient_65-2" cx="-6.67" cy="2185.74" r="79.14" xlink:href="#Gradient_65"/><linearGradient id="Gradient_68-2" x1="-87.9" y1="3.75" x2="-87.9" y2="-29.58" xlink:href="#Gradient_68"/><radialGradient id="Gradient_65-3" cx="-5.96" cy="2150.31" r="80.91" xlink:href="#Gradient_65"/><linearGradient id="Gradient_68-3" x1="-87.79" y1="-28.49" x2="-87.79" y2="-56.53" xlink:href="#Gradient_68"/><linearGradient id="Gradient_74" x1="-88.67" y1="46.81" x2="-88.67" y2="-68.24" gradientTransform="translate(142.86 82.57) rotate(10.23)" gradientUnits="userSpaceOnUse"><stop offset="0.07" stop-color="#f30"/><stop offset="1" stop-color="#b30038"/></linearGradient><linearGradient id="Gradient_22" x1="-111.27" y1="-53.54" x2="-69.31" y2="-53.54" gradientTransform="translate(142.86 82.57) rotate(10.23)" gradientUnits="userSpaceOnUse"><stop offset="0" stop-color="#a90079"/><stop offset="0.01" stop-color="#ab057b"/><stop offset="0.3" stop-color="#c85caa"/><stop offset="0.55" stop-color="#e0a2ce"/><stop offset="0.76" stop-color="#f1d4e9"/><stop offset="0.91" stop-color="#fbf3f9"/><stop offset="1" stop-color="#fff"/></linearGradient><linearGradient id="Gradient_79" x1="-92.25" y1="-50.32" x2="-47.87" y2="-50.32" gradientTransform="translate(142.86 82.57) rotate(10.23)" gradientUnits="userSpaceOnUse"><stop offset="0" stop-color="#ffbf81"/><stop offset="1" stop-color="#ffceb3"/></linearGradient><linearGradient id="Gradient_82" x1="-90.46" y1="-58.29" x2="-48.22" y2="-58.29" gradientTransform="translate(142.86 82.57) rotate(10.23)" gradientUnits="userSpaceOnUse"><stop offset="0" stop-color="#ffd8a6"/><stop offset="1" stop-color="#ffe7da"/></linearGradient></defs><g class="cls-1"><g id="Layer_2" data-name="Layer 2"><g id="objects"><path class="cls-2" d="M70.07.48a31.31,31.31,0,0,0-13.84.66c-7.09,2.1-9.31,4.38-13.86,5S30,6.42,28.22,8.33,15.44,11,10.3,14.94,4.9,27.85,6,32s3.9,8.73,3.87,9.78S6,42.56,2.53,51.37s6,17.1,6,17.1A19.46,19.46,0,0,0,.13,80.87c-1.43,8.25,9.06,16.5,17.68,20.45S71.89,37.09,71.89,37.09Z"/><path class="cls-3" d="M2.12,81.81c.27-8.32,10.45-24.42,54.32-16.51,41.07,7.4,45.48,26.29,43.14,34.1-2.28,7.63-15,16.68-49.87,11.71S1.84,90.35,2.12,81.81Z"/><path class="cls-4" d="M100.05,96.36a20.12,20.12,0,0,0-2.92-9.19C93,80,83,70.4,59.42,65.87c-20.63-4-33.9-2.35-41.78.06h0a31,31,0,0,0-8,3.61,14.43,14.43,0,0,0-1.26.91c-.37.31-.56.5-.56.5-6.65,5,7.18,13.18,23.23,19-4.37-3.57,6.21-2.37,12.65,1.83,3.25,2.12.41,2-3.4,1.18,1.86.54,3.72,1,5.53,1.48,3.11.77,6.1,1.38,8.85,1.8l1.6.24h0c19.21,2.91,17,2.5,23.86-1.54,7.18-4.21,13.53,1.29,14,2.53S100.08,98.11,100.05,96.36ZM54.62,93.24c-1.7,2.21-6.25,1.8-5.82-.61C49.36,89.46,56.33,91,54.62,93.24Z"/><path class="cls-5" d="M8,70.9c2.59-.67,11.87,11.58,43,19.52,19.46,5,30.68.39,37.91-2.45a25.91,25.91,0,0,1,8.55-1.7S83.18,67.61,49.56,64.12,8,70.9,8,70.9Z"/><path class="cls-6" d="M97.13,87.17s0,0,0,0c.73,2.24.53,6.93-8.6,5.4s-12.27,4.62-20.31,2.12,1.48-4.5-12.42-7S35.09,88.27,27.59,85,9.05,71.2,17.76,65.9l-.12,0h0a24.63,24.63,0,0,0-8,3.61,14.43,14.43,0,0,0-1.26.91C5,73.07,3.17,76.13,5.63,77.87,10,80.93,29,91.33,31,90.57s6.76.9,8.69,2.09c.17.1.34.2.53.29a24,24,0,0,0,5.53,1.48c2.35.48,5.66,1.1,10.45,2h0l5,1c16.6,3.31,17-1.37,24.84-1s12.63,5,14,1.1S96.48,85.06,97.13,87.17ZM54.62,93.24c-1.7,2.21-6.25,1.8-5.82-.61C49.36,89.46,56.33,91,54.62,93.24Z"/><path class="cls-7" d="M26.13,103.25c-16.61-10.94,15-5.61,40-3.31,25.21,2.31,16.07,12.33-.69,11.68S33.53,108.13,26.13,103.25Z"/><path class="cls-8" d="M7.29,93c-4.4-6.95-1.59-11.19,5-9.31S23.2,102,24.78,104,16.31,101.13,7.29,93Z"/><path class="cls-6" d="M46.53,110.63s25.82,1.47,38.23-1.45c12.61-3,14-7.88,14-7.88S93.49,118.27,46.53,110.63Z"/><path class="cls-9" d="M80.44,98c-4.2,1.71,0,3.73,3.77,1.85S82.82,97,80.44,98Z"/><path class="cls-10" d="M4.74,56.07c.32-9,11-26.52,56.71-18.28,42.79,7.71,47.19,28.12,44.67,36.59-2.45,8.25-15.76,18.1-52,13S4.42,65.31,4.74,56.07Z"/><path class="cls-11" d="M106.64,71.09a22.08,22.08,0,0,0-2.94-9.92C99.46,53.4,89.16,43.12,64.55,38.38c-21.37-4.11-35.19-2.3-43.44.36l-.13,0h0A35.58,35.58,0,0,0,13.7,42c-.22.12-.44.27-.65.41l-.46.31c-.47.31-.9.65-1.32,1a7.53,7.53,0,0,0-.58.55C7,47.21,9.37,51.09,15,55A10.7,10.7,0,0,1,13.33,53c-1.93-3.12,8.37.33,10,4.41.59,1.46-.18,1.92-1.54,1.68a119.88,119.88,0,0,0,13,5.6c.26.18.53.34.81.51a27.66,27.66,0,0,0,9.76,3h0l.26.07c1.52.44,3,.84,4.52,1.21,3.23.8,6.35,1.44,9.21,1.87.57.08,1.13.16,1.66.25h0c20,3,15.91,1,24,.23,1.27-.12,2.59-.23,3.9-.3h0c1.07-.07,2.14-.12,3.16-.14h0c4.38-.12,8.05.12,8.39,1C101,73.66,106.66,73,106.64,71.09ZM46.52,64.57c-4,1.45-10-1.4-5.68-2.5C43.36,61.43,50.53,63.1,46.52,64.57Z"/><path class="cls-6" d="M103.7,61.17s0,0,0,0c.74,2.42.48,7.49-9,5.9S81.85,72.2,73.5,69.56s1.58-4.88-12.88-7.49S39,62.82,31.24,59.33,12,44.55,21.11,38.74l-.13,0h0A24.71,24.71,0,0,0,13.7,42c-.22.12-.44.27-.65.41l-.46.31c-.47.31-.9.65-1.32,1-3.52,2.87-5.41,6.19-2.86,8.05C12.9,55.06,32.69,66.16,34.8,65.33a2.63,2.63,0,0,1,.78-.17c2.37-.28,6.48,1.23,8.26,2.37.06,0,.54.23,1.28.49l.18.07.31.1a43,43,0,0,0,4.52,1.21c2.45.5,5.89,1.15,10.87,2.12h0l5.18,1c14.72,2.95,17.2-.29,22.69-1.09h0a16.55,16.55,0,0,1,3.16-.14h0c8.21.38,13.09,5.3,14.55,1.08S103,58.89,103.7,61.17ZM21.81,59A15.17,15.17,0,0,1,15,55,10.7,10.7,0,0,1,13.33,53c-1.93-3.12,8.37.33,10,4.41.59,1.46-.18,1.92-1.54,1.68Zm19,3c2.52-.64,9.69,1,5.68,2.5S36.55,63.17,40.84,62.07Z"/><path class="cls-7" d="M29.62,79.06C12.4,67.37,45.21,72.9,71.26,75.2c26.24,2.31,16.62,13.19-.81,12.6S37.29,84.27,29.62,79.06Z"/><path class="cls-8" d="M10.08,68.09C5.52,60.61,4,54.44,10.9,56.42S26.58,77.69,28.21,79.88,19.42,76.84,10.08,68.09Z"/><path class="cls-6" d="M50.79,86.87s26.85,1.4,39.8-1.83c13.16-3.3,14.7-8.61,14.7-8.61S99.59,94.77,50.79,86.87Z"/><path class="cls-9" d="M86.19,73c-4.38,1.87,0,4,3.91,2S88.68,71.92,86.19,73Z"/><path class="cls-12" d="M76.33,54.94c-14.41,3.28,17.24,10.64,25,9S103.76,48.68,76.33,54.94Z"/><path class="cls-7" d="M33.46,52.42c-17.89-12.54,16.3-6.8,43.47-4.51,27.37,2.31,17.22,14.17-1,13.67C57.94,61.08,41.42,58,33.46,52.42Z"/><path class="cls-6" d="M52.23,36.83c.57.14,1.18.24,1.81.35Z"/><path class="cls-6" d="M26.61,62.23a93.67,93.67,0,0,0,16,7c7.75,2.36,12.28,2.34,25.68,4.64S86.37,72,86.37,72s-10.9,2.56-21.59-.09S43.82,67,37.16,65,26.61,62.23,26.61,62.23Z"/><path class="cls-5" d="M11.27,43.73C14,43.08,23.58,55.39,55.71,63.51a68.55,68.55,0,0,0,34.09.27,86.29,86.29,0,0,0,13.78-4.15S88.72,40.87,54,37.18,11.27,43.73,11.27,43.73Z"/><path class="cls-13" d="M7.64,27.68c.37-9.79,11-24.95,58.53-16.39,44.44,8,49.9,26.26,47.17,35.47-2.66,9-16.09,18.39-53.94,13.12S7.25,37.71,7.64,27.68Z"/><path class="cls-14" d="M114.47,41.08c0-.65-.41-4.11-3.54-8.56-4.75-6.73-15.86-15.77-41.43-20.63-22.21-4.22-36.45-3.2-44.93-1.27l-.13,0h0A39.26,39.26,0,0,0,17,13.12c-.23.09-.45.22-.68.32l-.47.25a13.49,13.49,0,0,0-1.34.79,7,7,0,0,0-.59.45c-3.83,2.34-1.23,5.71,4.73,9.24a10.56,10.56,0,0,1-1.8-1.8c-2.07-2.72,8.73.57,10.55,4.09.66,1.27-.12,1.63-1.55,1.38,4.08,1.82,8.77,3.61,13.66,5.23a8.72,8.72,0,0,0,.86.47A35.88,35.88,0,0,0,50.6,36.4h0l.27.07c1.61.43,3.2.83,4.76,1.19,3.39.8,6.67,1.46,9.66,1.93.6.09,1.18.17,1.75.27h0c20.92,3.26,16.59,1.41,25,1,1.31-.06,2.68-.11,4-.12h0c1.1,0,2.21,0,3.26,0h0c4.55.06,8.37.4,8.76,1.16C108.74,43.08,114.58,42.69,114.47,41.08ZM51.72,33.41c-4.11,1.11-10.43-1.54-6-2.32C48.33,30.63,55.84,32.3,51.72,33.41Zm4,2.08c-2.37-.66,14.92-3.67,22.12-1.59S69.56,39.34,55.7,35.49Z"/><path class="cls-8" d="M13.14,40.68c-4.71-8.09-1.62-13.1,5.57-11S30.3,51,32,53.32,22.84,50.09,13.14,40.68Z"/><path class="cls-6" d="M97.91,21.45C84.34,13,55.36,9.59,55.36,9.59S88.82,18.33,85.62,18,66.55,15.72,72,23.55c5.32,7.68,22.82,10,15,12-7.16,1.82-23.09,3.14-32.64,1.67,6.48,1.25,25.76,4.81,29.5,4.12,4.51-.82,14.64-.6,21.67-2.45S111.25,29.8,97.91,21.45ZM85.54,24.19c-4.44,1.49-13-2.52-10.19-3.82C79.51,18.44,90,22.69,85.54,24.19Zm6.64,8.53c-3.22.86-6.91-1.63-2.74-2.13C90.16,30.51,95.4,31.88,92.18,32.72Z"/><path class="cls-6" d="M13,19.76s5,4.63,5.57,5S17,21,21.5,23.29s5.56,4.27,3.64,4.33,9.55,5.9,20.65,9.59,27.61,4.58,35.83,5,9.72-1.44,14.44-1.42a90.93,90.93,0,0,1,9.21.56s-2.44-2-14.48-2.06-11.08,1.79-26.82-1-32.78-7.85-34.4-10.6a15.38,15.38,0,0,0-10-7.53c-5.34-1.17-3.06.94-4,1S13,19.76,13,19.76Z"/><path class="cls-7" d="M41.74,49.62c-17.22-11.69,15.59-6.17,41.63-3.87,26.24,2.31,16.44,10-.81,12.61C51.63,63,49.4,54.82,41.74,49.62Z"/><path class="cls-15" d="M74.79,44.92c-7.93-.1,0,10.9,9.78,9.76s8.18-6.44,6.19-7S80.92,45,74.79,44.92Z"/><path class="cls-15" d="M58.27,73.91c-9.19-.23-.32,6.81,4.61,6s4.93-5.06,2.23-5.34Z"/><path class="cls-6" d="M19.13,12.65C12.76,15,27.39,22.82,42.62,25s17.65-8.57,13.8-11.36S33.66,7.37,19.13,12.65Z"/><path class="cls-16" d="M21.19,28.13c-2,.28,3.45,6.05,8.06,7.75s12,.52,11.15.09S25.22,27.6,21.19,28.13Z"/><path class="cls-17" d="M85,27.28c-20.89-1.32-40.2-3.21-30.15.41S71,32.11,66.87,36.38a16.27,16.27,0,0,0-2.48,3.89c-3.06,6.33-4.67,17.83-5.63,22.47-1.58,7.65-4.53,4-6.6,6.52S50,87.13,46.78,89.17l-.14.09c-3.09,2.18-3.07,10.18-3.15,12.47,0,1.1,3.44,3.31,5.65,5.34,2.44,2.24,3.34,4.26-3.73,4.34-20.58.2-33.84-9.51-27.16-10.64.59-.1,1.18-.19,1.76-.24,5.88-.68,10.67.27,11.53-2,.94-2.47.27-7.4,2.62-11s3.38-1.91,4.28-2.89S40.5,72.06,41.83,67.4s8.63-5.31,9.22-7.56,3.84-16.24.77-15.56c-3.5.78-4.33,13.68-5.47,15.18S37,61.78,35.58,65.16c-3.11,7.31.11,11.93-4.89,14s-9-3.59-7.45-6,1.4-9.06,2.19-12.11c2-7.81,6.59-3.73,8.17-5s-.59-1.54-.83-3c-.06-.36,1.22,1.3,1.53-.54.94-5.51,2.16-18.46,4.16-19.36,2.68-1.21,3.7-4.15-6-8.35s-5.76-12.47-4.76-14.28,3-2.86,13.37-3.57S68-4.48,80.69,3.28c9.63,5.9,4,9.44,11.83,11.47a12,12,0,0,1,9,9.15S105.87,28.59,85,27.28Z"/><path class="cls-18" d="M100.12,20.34c1.49,5.28-8,6.14-25.33,4.85s-23.55-3.62-31.29-4,5.27,5.12,8.69,5.92,8.07-2.3,25.06-.39,25,.86,26.07.13S101.88,24,101.88,24,101.79,21.47,100.12,20.34Z"/><path class="cls-19" d="M84.34,12.35c-4.82-.62-9.44-1.54-29-2.76s-14.6,5.23,1.24,8.25S68,15.92,65.41,14.07s9.47-1.64,15.46-.13S84.34,12.35,84.34,12.35Z"/><path class="cls-18" d="M26.11,16.4s1.36,5.54,5.56,7.07S39.71,26,42,27.38s-1.26,4.81-2.79,5.33c0,0-.74-3.63-3.56-4.94s-7-3.37-8.81-5.57S26.11,16.4,26.11,16.4Z"/><path class="cls-18" d="M23.24,73.11S21.4,76.54,25.82,78s6.34-1.18,7.29-3.87.54-7.46,3.34-12.66,7.42-2.09,9.3-2.67S48,53.3,48,53.3s-.86,6.85-1.6,7.27-8.34,2-9.78,4.68-1.36,9.34-2.91,13.07-7.48,1.49-9.68.18S22.54,73.89,23.24,73.11Z"/><path class="cls-20" d="M25.67,64.91c-.28-4.53-1.17-5.43,3.66-5s5.3,3,3,7.16S25.91,68.82,25.67,64.91Z"/><path class="cls-20" d="M37.81,35.84c2.12-2.81,11.26-.59,11.34,3.35s-2.86,13.1-8.6,13.17S35,39.51,37.81,35.84Z"/><path class="cls-18" d="M45.41,111.41c-20.58.2-33.84-9.51-27.16-10.64.59-.1,1.18-.19,1.76-.24-.33,1.43-2.82,3.77,3.55,6.41,10,4.12,24.81,3.84,25.55,1.11a2.46,2.46,0,0,0,0-1C51.58,109.31,52.48,111.33,45.41,111.41Z"/><path class="cls-18" d="M47.62,87.26c3-5.21,2.71-15.79,3.54-17.67,2.19-5,4-1.12,6-6.3s5.69-22.44,7.19-23.2l0,.18c-3.06,6.33-4.24,21.55-6.13,25.89-2.39,5.45-4,.61-6.1,3.1S50,87.13,46.78,89.17l-.14.09A15.44,15.44,0,0,1,47.62,87.26Z"/><path class="cls-21" d="M44.51,30.2c-5.7,1.06.32,4.78,9.63,6.45s11.27,1.44,6.73-1.55,2.53-1.58,4-2.18S55.78,28.12,44.51,30.2Z"/><path class="cls-22" d="M46.3,21c-8.22-4.57,5.43-4.27,15.91-2.15s12,4.07,18.69,4.29-9.46,2.78-21.22.33S46.3,21,46.3,21Z"/><path class="cls-20" d="M32.56,100.73c-1.58-2.22-.09-8.18,1.36-9.39s8.78,1.7,9.14,3.8-1.8,7.59-2.78,7.91S32.81,101.1,32.56,100.73Z"/><path class="cls-20" d="M42.82,67c-1.52,0-2,7.75-2,11.1s7.51,4.3,8.94-1S47.12,67.17,42.82,67Z"/><path class="cls-20" d="M55.38,40.87c1.15-1-2,7-1.31,9.76s1.89-2.88,3.75-5.27,1.6,3.19,3,.54,2.7-6.28,1.69-6.79A61,61,0,0,0,50.6,36.4c-3.64-.27.65,3,1.95,3.87S54.08,42,55.38,40.87Z"/><path class="cls-22" d="M27.55,11.57c2.51-2.94,8.17-1.75,17.87-2.12s5.74-1.91,10-3.73A16.58,16.58,0,0,1,62.75,4.2s-6.9-.11-11.45,1.31-12.12,2-17.21,2.15S27.55,11.57,27.55,11.57Z"/><path class="cls-23" d="M74.15,14c-8.06.79,3.18,8.61,14.49,8.62S88.7,12.59,74.15,14Z"/><path class="cls-22" d="M38.43,33.66c-1.06.55,1.66,1.56,3.3,1S41.48,32.09,38.43,33.66Z"/><path class="cls-24" d="M28.21,15.67c-3-5,2.83-6,6.49-4.84s-.82,7-2,7.57S28.5,16.16,28.21,15.67Z"/><path class="cls-25" d="M51.27,64.89c-3.83,1.74,2.67,2.16,3.24,1.36S52.53,64.32,51.27,64.89Z"/><path class="cls-25" d="M60.87,35.1c-6.14.43,1.14,2.64,2.29,1.93S62.78,35,60.87,35.1Z"/><path class="cls-26" d="M20.12,101.32c-2,1,1.62,4.1,6.6,5.05s-2.38-1.84-1.8-3.7,6.33-2.73,4.18-2.69S21.73,100.52,20.12,101.32Z"/><path class="cls-25" d="M33.34,101.43c-1.3.28.69.77,1.6.56S33.78,101.33,33.34,101.43Z"/><path class="cls-25" d="M33.86,89.08c-1.09.38-.47,1.77,1,1.67S34.46,88.88,33.86,89.08Z"/><path class="cls-25" d="M28.91,56.67c-1.1.37-.48,1.76,1,1.66S29.51,56.46,28.91,56.67Z"/><path class="cls-25" d="M94.18,17.79c-3.62,1.63.71,3.42,2.67,2.07S95.44,17.22,94.18,17.79Z"/><path class="cls-23" d="M54.92,8.39c.49-2.67,8-6.78,15.32-4.69S81,9.79,79,10.25,54.92,8.39,54.92,8.39Z"/><path class="cls-25" d="M54.93,4.14c-2.17.6,2,1.47,3.21.47S56.54,3.69,54.93,4.14Z"/><path class="cls-5" d="M101.36,31c2.43,1.47-4.41,6.54-18,4.39s-20.73-7.09-22.12-9.89,10.53-5.26,22.17-3.8A29,29,0,0,1,101.36,31Z"/><path class="cls-27" d="M62.87,23.69c-1.51-.56-1.4-13.52,0-15.79S78.06,4.7,85,6.38s20.41,11.9,20.25,14.5-2.38,10.5-4.65,12.05-19.79,2.68-23.5,1.18C70.66,31.49,62.87,23.69,62.87,23.69Z"/><path class="cls-28" d="M62.82,7.9c.84-.67,17.09,10.08,17.9,10.83s-2,15.66-2,15.66-12.78-5.7-15.82-10.7C61.6,21.6,62.82,7.9,62.82,7.9Z"/><path class="cls-29" d="M64.62,7.07C63.53,7.29,76.7,17.33,81.5,18.88s23.62,1.34,23.62,1.34S93,8.85,86.13,6.54,64.62,7.07,64.62,7.07Z"/><path class="cls-30" d="M67.3,10.9c-2.57-1-2.62,10.86,1.16,15.67s7.57,6.1,9.05,6.17S81.16,16.44,67.3,10.9Z"/><path class="cls-31" d="M78.78,17.41C76.89,17.27,80.39,20.65,81,21s2.74-1.39,2.74-1.39S83.71,17.78,78.78,17.41Z"/><path class="cls-31" d="M91.33,19.62c-2.28-.6,4.66-.68,8.08-.43s3.85,1.24,3.85,1.24S95,20.58,91.33,19.62Z"/><path class="cls-32" d="M80.67,26.48c0,2.91,18.16-.24,21.45-3.8s-16.41-1.89-18-1.85S80.67,26.48,80.67,26.48Z"/><path class="cls-2" d="M26.16,19.73a8.52,8.52,0,0,1,.56-6.83,11.46,11.46,0,0,1,5.9-4.75s-.69-1.35-4.4.18S24.18,16,26.16,19.73Z"/><path class="cls-2" d="M61.78,15.65s.24-6.52,2.51-8.2,8.09-1.82,8.09-1.82-6.53-.75-9.29.76S61.78,15.65,61.78,15.65Z"/></g></g></g></svg>