<svg xmlns="http://www.w3.org/2000/svg" xmlns:xlink="http://www.w3.org/1999/xlink" viewBox="0 0 124.37 130.62"><defs><style>.cls-1{isolation:isolate;}.cls-2{fill:#ff9fff;}.cls-3{fill:url(#Gradient_42);}.cls-4{fill:url(#Gradient_59);}.cls-13,.cls-14,.cls-21,.cls-35,.cls-36,.cls-37,.cls-5,.cls-7{opacity:0.5;}.cls-11,.cls-12,.cls-16,.cls-19,.cls-21,.cls-23,.cls-24,.cls-25,.cls-28,.cls-30,.cls-31,.cls-33,.cls-34,.cls-36,.cls-37,.cls-5,.cls-68,.cls-7,.cls-8{mix-blend-mode:multiply;}.cls-5{fill:url(#Gradient_51);}.cls-6{fill:url(#Gradient_40);}.cls-25,.cls-28,.cls-68,.cls-7{fill:#ac1f90;}.cls-8{fill:#df95c8;}.cls-16,.cls-17,.cls-28,.cls-31,.cls-33,.cls-34,.cls-8{opacity:0.3;}.cls-9{fill:#ffbda4;opacity:0.97;}.cls-13,.cls-14,.cls-17,.cls-26,.cls-35,.cls-9{mix-blend-mode:soft-light;}.cls-10{fill:#ae4648;}.cls-11,.cls-36{fill:#860163;}.cls-11{opacity:0.61;}.cls-12,.cls-30{fill:#a90079;}.cls-12{opacity:0.37;}.cls-13{fill:#dd597a;}.cls-14{fill:#e06886;}.cls-15{fill:url(#Gradient_50);}.cls-16{fill:#df74c8;}.cls-17,.cls-26,.cls-27,.cls-35{fill:#fff;}.cls-18{fill:url(#Gradient_95);}.cls-19{fill:#bf2a92;opacity:0.89;}.cls-20{fill:url(#Gradient_76);}.cls-21{fill:#bf9f92;}.cls-22{fill:#797e00;}.cls-23{opacity:0.83;fill:url(#Gradient_1);}.cls-24{fill:#ca1b3b;opacity:0.52;}.cls-25{opacity:0.67;}.cls-29{fill:url(#Gradient_59-2);}.cls-30{opacity:0.8;}.cls-31{fill:url(#Gradient_22);}.cls-32{fill:#ffcdbd;}.cls-33{fill:#cf60ad;}.cls-34{fill:#d470b5;}.cls-38{fill:url(#Gradient_105);}.cls-39{fill:url(#Gradient_105-2);}.cls-40{fill:url(#Gradient_105-3);}.cls-41{fill:url(#Gradient_105-4);}.cls-42{fill:url(#Gradient_105-5);}.cls-43{fill:url(#Gradient_105-6);}.cls-44{fill:url(#Gradient_105-7);}.cls-45{fill:url(#Gradient_105-8);}.cls-46{fill:url(#Gradient_105-9);}.cls-47{fill:url(#Gradient_105-10);}.cls-48{fill:url(#Gradient_105-11);}.cls-49{fill:url(#Gradient_105-12);}.cls-50{fill:url(#Gradient_105-13);}.cls-51{fill:url(#Gradient_105-14);}.cls-52{fill:url(#Gradient_105-15);}.cls-53{fill:url(#Gradient_105-16);}.cls-54{fill:url(#Gradient_105-17);}.cls-55{fill:url(#Gradient_105-18);}.cls-56{fill:url(#Gradient_105-19);}.cls-57{fill:url(#Gradient_105-20);}.cls-58{fill:url(#Gradient_105-21);}.cls-59{fill:url(#Gradient_105-22);}.cls-60{fill:url(#Gradient_105-23);}.cls-61{fill:url(#Gradient_105-24);}.cls-62{fill:url(#Gradient_105-25);}.cls-63{fill:url(#Gradient_105-26);}.cls-64{fill:url(#Gradient_105-27);}.cls-65{fill:url(#Gradient_105-28);}.cls-66{fill:url(#Gradient_105-29);}.cls-67{fill:url(#Gradient_105-30);}.cls-69{fill:url(#Gradient_81);}</style><linearGradient id="Gradient_42" x1="-82.51" y1="58.67" x2="33.82" y2="58.67" gradientTransform="translate(93.31 29.13) rotate(8.05)" gradientUnits="userSpaceOnUse"><stop offset="0" stop-color="#f94aae"/><stop offset="0.07" stop-color="#a43148"/><stop offset="0.09" stop-color="#a63345"/><stop offset="0.19" stop-color="#b03d34"/><stop offset="0.32" stop-color="#b84429"/><stop offset="0.5" stop-color="#bc4822"/><stop offset="1" stop-color="#bd4920"/></linearGradient><linearGradient id="Gradient_59" x1="-83.36" y1="24.08" x2="35.59" y2="24.08" gradientTransform="translate(93.31 29.13) rotate(8.05)" gradientUnits="userSpaceOnUse"><stop offset="0" stop-color="#ffbba4"/><stop offset="1" stop-color="#ffd1c9"/></linearGradient><linearGradient id="Gradient_51" x1="-23.87" y1="42.36" x2="-23.87" y2="22.77" gradientTransform="translate(93.31 29.13) rotate(8.05)" gradientUnits="userSpaceOnUse"><stop offset="0" stop-color="#ffbdb6"/><stop offset="1" stop-color="#a90079"/></linearGradient><linearGradient id="Gradient_40" x1="-80.04" y1="68.94" x2="31.74" y2="68.94" gradientTransform="translate(93.31 29.13) rotate(8.05)" gradientUnits="userSpaceOnUse"><stop offset="0" stop-color="#f94aae"/><stop offset="0.08" stop-color="#db6248"/><stop offset="0.17" stop-color="#e96d3c"/><stop offset="0.31" stop-color="#f57532"/><stop offset="0.5" stop-color="#fc7b2c"/><stop offset="1" stop-color="#fe7c2a"/></linearGradient><linearGradient id="Gradient_50" x1="2" y1="50.77" x2="2" y2="32.26" gradientTransform="translate(93.31 29.13) rotate(8.05)" gradientUnits="userSpaceOnUse"><stop offset="0" stop-color="#ff9f93"/><stop offset="1" stop-color="#ff9093"/></linearGradient><radialGradient id="Gradient_95" cx="-84.65" cy="-5.25" r="25.65" gradientTransform="translate(168.04 61.26) rotate(15.11)" gradientUnits="userSpaceOnUse"><stop offset="0.67" stop-color="#e90022"/><stop offset="0.86" stop-color="#a7001d"/><stop offset="0.89" stop-color="#ab0022"/><stop offset="0.92" stop-color="#b50031"/><stop offset="0.96" stop-color="#c7004a"/><stop offset="0.99" stop-color="#e0006d"/><stop offset="1" stop-color="#e20070"/></radialGradient><linearGradient id="Gradient_76" x1="-83.6" y1="-11.33" x2="-83.6" y2="-41.85" gradientTransform="translate(168.04 61.26) rotate(15.11)" gradientUnits="userSpaceOnUse"><stop offset="0" stop-color="#637a00"/><stop offset="1" stop-color="#656800"/></linearGradient><linearGradient id="Gradient_1" x1="-93.7" y1="15.89" x2="-87.15" y2="-4.26" gradientTransform="translate(168.04 61.26) rotate(15.11)" gradientUnits="userSpaceOnUse"><stop offset="0" stop-color="#a90079"/><stop offset="1" stop-color="#fff"/></linearGradient><linearGradient id="Gradient_59-2" x1="-37.74" y1="23.02" x2="18.24" y2="23.02" xlink:href="#Gradient_59"/><linearGradient id="Gradient_22" x1="-38.62" y1="24.18" x2="14.46" y2="24.18" gradientTransform="translate(93.31 29.13) rotate(8.05)" gradientUnits="userSpaceOnUse"><stop offset="0" stop-color="#a90079"/><stop offset="0.01" stop-color="#ab057b"/><stop offset="0.3" stop-color="#c85caa"/><stop offset="0.55" stop-color="#e0a2ce"/><stop offset="0.76" stop-color="#f1d4e9"/><stop offset="0.91" stop-color="#fbf3f9"/><stop offset="1" stop-color="#fff"/></linearGradient><linearGradient id="Gradient_105" x1="13.15" y1="71.69" x2="13.15" y2="61.7" gradientTransform="translate(93.31 29.13) rotate(8.05)" gradientUnits="userSpaceOnUse"><stop offset="0" stop-color="#ffdbea"/><stop offset="0.1" stop-color="#f9cfe2"/><stop offset="0.27" stop-color="#e8b0ce"/><stop offset="0.51" stop-color="#ce7eac"/><stop offset="0.79" stop-color="#a9397f"/><stop offset="1" stop-color="#8b0059"/></linearGradient><linearGradient id="Gradient_105-2" x1="24.9" y1="66.29" x2="24.9" y2="58.94" xlink:href="#Gradient_105"/><linearGradient id="Gradient_105-3" x1="-63.45" y1="48.89" x2="-63.45" y2="39.47" xlink:href="#Gradient_105"/><linearGradient id="Gradient_105-4" x1="-14.26" y1="98.04" x2="-14.26" y2="92.32" xlink:href="#Gradient_105"/><linearGradient id="Gradient_105-5" x1="-48.46" y1="95.93" x2="-48.46" y2="88.32" xlink:href="#Gradient_105"/><linearGradient id="Gradient_105-6" x1="22.03" y1="84.01" x2="22.03" y2="81.21" xlink:href="#Gradient_105"/><linearGradient id="Gradient_105-7" x1="-5.48" y1="79.29" x2="-5.48" y2="73.7" xlink:href="#Gradient_105"/><linearGradient id="Gradient_105-8" x1="-9.36" y1="72.53" x2="-9.36" y2="69.59" xlink:href="#Gradient_105"/><linearGradient id="Gradient_105-9" x1="-37.51" y1="80.3" x2="-37.51" y2="72.69" xlink:href="#Gradient_105"/><linearGradient id="Gradient_105-10" x1="-35.63" y1="65.97" x2="-35.63" y2="59.75" xlink:href="#Gradient_105"/><linearGradient id="Gradient_105-11" x1="-30.36" y1="69.99" x2="-30.36" y2="65.09" xlink:href="#Gradient_105"/><linearGradient id="Gradient_105-12" x1="-61.58" y1="68.71" x2="-61.58" y2="61.1" xlink:href="#Gradient_105"/><linearGradient id="Gradient_105-13" x1="5.93" y1="51.78" x2="5.93" y2="49.73" xlink:href="#Gradient_105"/><linearGradient id="Gradient_105-14" x1="-71.76" y1="78.96" x2="-71.76" y2="76.92" xlink:href="#Gradient_105"/><linearGradient id="Gradient_105-15" x1="-41.13" y1="72.99" x2="-41.13" y2="70.94" xlink:href="#Gradient_105"/><linearGradient id="Gradient_105-16" x1="-27.08" y1="50.54" x2="-27.08" y2="46.3" xlink:href="#Gradient_105"/><linearGradient id="Gradient_105-17" x1="-19.45" y1="50.42" x2="-19.45" y2="48.14" xlink:href="#Gradient_105"/><linearGradient id="Gradient_105-18" x1="-54.81" y1="46.05" x2="-54.81" y2="43.37" xlink:href="#Gradient_105"/><linearGradient id="Gradient_105-19" x1="-35.44" y1="48.49" x2="-35.44" y2="45.02" xlink:href="#Gradient_105"/><linearGradient id="Gradient_105-20" x1="6.14" y1="96.07" x2="6.14" y2="93.33" xlink:href="#Gradient_105"/><linearGradient id="Gradient_105-21" x1="-38.49" y1="98.02" x2="-38.49" y2="96.09" xlink:href="#Gradient_105"/><linearGradient id="Gradient_105-22" x1="-76.36" y1="71.43" x2="-76.36" y2="57.74" xlink:href="#Gradient_105"/><linearGradient id="Gradient_105-23" x1="-76.21" y1="58.44" x2="-76.21" y2="55.69" xlink:href="#Gradient_105"/><linearGradient id="Gradient_105-24" x1="-60.56" y1="85.28" x2="-60.56" y2="79.7" xlink:href="#Gradient_105"/><linearGradient id="Gradient_105-25" x1="-64.38" y1="79.24" x2="-64.38" y2="76.02" xlink:href="#Gradient_105"/><linearGradient id="Gradient_105-26" x1="-58.59" y1="91.08" x2="-58.59" y2="86.24" xlink:href="#Gradient_105"/><linearGradient id="Gradient_105-27" x1="17.93" y1="96.42" x2="17.93" y2="92.18" xlink:href="#Gradient_105"/><linearGradient id="Gradient_105-28" x1="17.46" y1="80.09" x2="17.46" y2="78.7" xlink:href="#Gradient_105"/><linearGradient id="Gradient_105-29" x1="30.39" y1="49.45" x2="30.39" y2="41.77" xlink:href="#Gradient_105"/><linearGradient id="Gradient_105-30" x1="-76.63" y1="42.84" x2="-76.63" y2="40.03" xlink:href="#Gradient_105"/><linearGradient id="Gradient_81" x1="-23.41" y1="95.2" x2="-23.41" y2="77.95" gradientTransform="translate(93.31 29.13) rotate(8.05)" gradientUnits="userSpaceOnUse"><stop offset="0" stop-color="#4f0c1f"/><stop offset="0.31" stop-color="#561020"/><stop offset="0.75" stop-color="#691a22"/><stop offset="1" stop-color="#772224"/></linearGradient></defs><g class="cls-1"><g id="Layer_2" data-name="Layer 2"><g id="objects"><path class="cls-2" d="M10.92,113.62S8.61,113.18,7,110,3.26,98.17,3.39,95.93s1.46-2.42,1.74-4.42S2.66,72.15,4.87,68.76,4.4,54.05,4.63,49.17s-9-14.47-2-26.9c5.33-9.56,20.2-1.49,20.2-1.49s1.46-7.27,8.75-8C40.24,11.84,45.82,19,45.82,19s1.44-7.06,7.29-7.88S64.17,18.4,64.17,18.4,68,14.12,76.66,13.33s13.63,3,13.63,3a14,14,0,0,1,1.58-11.2A10.44,10.44,0,0,1,100.68.07s-7.34,7-8.66,12.77-.42,20.55-.42,20.55Z"/><path class="cls-3" d="M118.46,85.24c-4.35,4.13-1.13,3.52-1.38,4.32-2.93,9.36-6.55,20.43-9.25,27.56-.25.65-.07,3.8-.23,4.23A34.09,34.09,0,0,1,105,128.4h0a7.56,7.56,0,0,1-.69,1c-3.93,4.65-83.73-4.8-95-17.2-1-1.13-1.56-4.25-1.6-7.43h0A27.21,27.21,0,0,1,8,100.44c.06-.41,1.53-4.88,1.48-5.32,0-.28-1-1.72-1-2-1-11.45-.08-16.45.73-26.33C5.84,63.3,6.37,50.31,7.5,48.6c4.7-7.09,42.4-10.78,53.85-8.3S115,60.48,120.25,68.51C122.05,71.27,121.31,75.09,118.46,85.24Z"/><path class="cls-4" d="M8,51.23c-3.09-1.17-1-7.75,1.8-10.92S43.43,30,57,31.1s64.94,27.66,66.7,30.61-1.17,8.89-2.14,10.15S59.37,70.69,8,51.23Z"/><path class="cls-5" d="M9.82,40.31S22,47.45,63.72,56c45.58,9.36,59.4,8,60.43,8.51s-1.84,6.24-2.6,7.34-20.32,2.46-65.49-5.62c-45.35-8.11-48-15-48-15S3.08,49.75,9.82,40.31Z"/><path class="cls-6" d="M9.19,66.77s35.05,16.5,107.06,21.91c0,0,.36-.24.32,2.5s-7.13,25.65-9.61,28-73.6-7.76-97.88-19.92C3.74,96.6,6.73,69.74,6.88,68.72S9.19,66.77,9.19,66.77Z"/><path class="cls-7" d="M7.75,62S6.08,69,47.63,77.83c5.83,1.24,13.15-.51,18.37.36,8,1.32,15,5.16,21.38,6.11,19.1,2.85,30.62,1.39,30.62,1.39s-2.06,1.49-1.75,3S76.78,88,46.77,79.3C24.3,72.8,29.69,77,24.5,75.41,9.91,70.89,9.19,66.77,9.19,66.77A4.91,4.91,0,0,1,7.75,62Z"/><path class="cls-7" d="M6.94,95.62s5,8,45.62,14.41c4.81.76,9,3.16,13.1,3.77,30.51,4.52,42.17,3.31,42.17,3.31a25.57,25.57,0,0,1-.65,3.15c-.38,1.19-28.42-2-59.1-7.82S8.31,99.17,8.31,99.17A10.83,10.83,0,0,1,6.94,95.62Z"/><path class="cls-8" d="M11.67,97.69c-2.75-1.86-3-25.45-2.21-27.82s25.9,9.6,32.68,10.71c16.65,2.72,50.36,5,23,19-20.16,10.29,27,14,26.79,14.73C91.59,115.28,19,102.63,11.67,97.69Z"/><path class="cls-8" d="M15.66,114.78c-2.46-2.56-4-11-3.92-11.65s20.46,6.5,27.93,9.54a12.13,12.13,0,0,1,7.51,10.64S23.73,120,15.66,114.78Z"/><path class="cls-8" d="M13.25,66.56c-2.51-3.94-2.07-10.81-1.73-12s28,7.52,30.6,11S45.31,73.82,43,75,18.81,69.39,13.25,66.56Z"/><path class="cls-9" d="M40.88,77.72s11,5.33,30.83,8.88a148.21,148.21,0,0,0,37.38,1.66S74.47,87.19,40.88,77.72Z"/><path class="cls-9" d="M42.56,63.61s11.88,4,35.8,8.06,36.3,2,36.3,2S71.64,69.78,42.56,63.61Z"/><path class="cls-9" d="M23.68,106.24s11.07,4.9,40.6,10.42,38.37,3.74,38.37,3.74S51.25,115.35,23.68,106.24Z"/><path class="cls-7" d="M105,128.4h0a7.56,7.56,0,0,1-.69,1c-3.93,4.65-83.73-4.8-95-17.2-1-1.13-1.56-4.25-1.6-7.43.27.34,9,11.15,36.44,18.11C71.87,129.9,105,128.4,105,128.4Z"/><path class="cls-10" d="M39.49,41.09c-1.71,3.46.31,9.49.78,10.19l0,0h0s-22.84-7.59-26.46-8.16-6.71,3.19-7.2,2.45l0-.07-.12-.24a1.18,1.18,0,0,0-.1-.19c-.1-.19-.2-.42-.31-.69s-.31-.69-.48-1.13a39,39,0,0,1-1.9-6.2.59.59,0,0,1,0-.14c-1-4.81-1-10.6,2.79-14.3,7.57-7.36,16.17-.81,16.17-.81,12.56-17.21,23.94-1.53,23.94-1.53S49.29,11,57.92,14c11.21,3.9,8.8,19.63,16.9,22.73,0,0-16-2-16.85-.51s.35,3.62.35,3.62S41.33,37.38,39.49,41.09Z"/><path class="cls-11" d="M40.32,51.34s-22.84-7.59-26.46-8.16-6.71,3.19-7.2,2.45l0-.07-.12-.24a1.18,1.18,0,0,0-.1-.19c-.08-.19-.19-.42-.31-.69s-.31-.69-.48-1.13a31.25,31.25,0,0,1-1.9-6.2.59.59,0,0,1,0-.14c-.77-4.15-.56-8.91,2.92-12C14.18,18.09,24.86,29.38,29.66,36c4.44,6.14,10.08,14.69,10.61,15.25l0,0Z"/><path class="cls-12" d="M22.65,21.86a108.94,108.94,0,0,1,9,11.29c3.91,5.78,7.66,15.24,7.66,15.24s-.22-4.91,2.16-7,16.25-1.64,16.25-1.64S20.56,37.12,33,14C27.9,14.24,22.65,21.86,22.65,21.86Z"/><path class="cls-12" d="M71.19,36.32s-22.88-.84-16.89-23c-6.34.23-7.71,7.06-7.71,7.06A54.38,54.38,0,0,1,58,36.22S63.45,34.19,71.19,36.32Z"/><path class="cls-13" d="M8.92,24.28c-6.55,6.08,4,14.84,11.8,18.53s13.53,3.26,13.53,3.26S23.19,21.34,8.92,24.28Z"/><path class="cls-14" d="M57.58,13.9c-2.41-1.39-3.09,8.8-1.84,13s11,6.65,13,5.15S66.44,19,57.58,13.9Z"/><path class="cls-15" d="M62.52,65.89C72,67.74,70.2,71.22,73,75.8c1.08,1.77,4.39,2.87,6.4,2.15,6-2.18,4.86-6.43,7.32-7.34,4-1.48,3.78.13,13.53,2.64s14-.5,16-.62-1.94-6.75-3.45-7.86-13.62-1.35-29.18-4.12S62.52,65.89,62.52,65.89Z"/><path class="cls-16" d="M15,53.74c4.56,1-2.74-2,21.4,4.09S60.49,65,61,65.68,31.9,61.92,15,53.74Z"/><path class="cls-7" d="M62.52,65.89s5.91.78,8.23,3.19,1.12,4.45,4.93,6c7.48,3,10-6.19,14-6.35s5.74,2.5,13.62,3.17a58.83,58.83,0,0,0,13.52-.16,10.55,10.55,0,0,1,4.48.63s-4.22,0-5.82,1.45A14.18,14.18,0,0,1,103.61,77c-5.87-1.11-10-7.24-15-6.53-4.7.68-2.51,6-7.26,9.82-1.77,1.43-6.55.21-8.13-1.92C69.77,73.68,73.66,69.69,62.52,65.89Z"/><path class="cls-17" d="M72.83,70.31c-2.08-5.57,3.81-6,11.18-5s-1.8,8.18-5.81,9S72.83,70.31,72.83,70.31Z"/><path class="cls-17" d="M96.49,69.35C95.16,68,107.19,65.13,110,67.13s-.08,4.21-4.91,4.66A13.57,13.57,0,0,1,96.49,69.35Z"/><path class="cls-17" d="M50.61,61.14C26.82,56,42.26,51,56.85,57.5S55.83,62.28,50.61,61.14Z"/><path class="cls-18" d="M66.44,48c-11.38-12.69-6.82-32.93,9-33.23s30.55,9,30.44,24.06C105.76,52.56,81.15,64.41,66.44,48Z"/><path class="cls-19" d="M84.53,20.48C81,23.8,83,28.42,95.21,29.25S89.07,16.19,84.53,20.48Z"/><path class="cls-20" d="M102.34,6.53a4.34,4.34,0,0,1-.9,1h0l-.26.21h0l0,0-.16.13h0a14.47,14.47,0,0,0-6.22,9.89,17.81,17.81,0,0,0-.34,5.33,2.67,2.67,0,0,0,.75,1.72h0c.35.29.7.28.76.42.94,1.94-5,5.33-8.64,1.73-2.91-2.84-1.46-5.65-.65-5.94.58-.21,1.08.51,2,.3a2.87,2.87,0,0,0,1.35-.8c1.43-1.31.27-6.89,2.3-13.44A10,10,0,0,1,99.65.23,5.6,5.6,0,0,1,101.81,0C102.76.3,103.47,4.67,102.34,6.53Z"/><path class="cls-21" d="M101.13,7.75c-1.95,1.58-5.33,3.86-6.39,10a17.81,17.81,0,0,0-.34,5.33c-.45,1.43-1,2.48-2,2.74-3,.84-5.27-1.87-3.79-4.5a2.87,2.87,0,0,0,1.35-.8c1.43-1.31.27-6.89,2.3-13.44A10,10,0,0,1,99.65.23a5.24,5.24,0,0,0-2.13,4.42c.08,3.49,3.4,3.1,3.64,3.07Z"/><path class="cls-22" d="M99.65.23c-2.42.78-3.18,6-.46,7.23s3.39-1.24,3.72-4.21S101.17-.27,99.65.23Z"/><path class="cls-23" d="M63.87,28.81c-4,3.1,0,19.86,11.46,24.13S97,52.56,101.24,47.8,87.56,41.22,76.43,35.59,64.48,28.35,63.87,28.81Z"/><path class="cls-24" d="M64.86,42.42c-3.13-10.35,1.49-12.7,10.56-6s1.27,12.91-2.85,13.27S64.86,42.42,64.86,42.42Z"/><path class="cls-25" d="M86.33,21.28C85.6,23,87,26.76,90.54,27.8A5,5,0,0,0,96,26s-.6,4.35-6.46,2.46S83.67,23,86.33,21.28Z"/><path class="cls-26" d="M84.34,18c1.3.18-7.45-2.67-12.08.84S74.57,31.1,82.31,35s9.8-1.34,10.29-3.11-5.35-1.26-11.44-6.51S81.65,17.67,84.34,18Z"/><path class="cls-26" d="M94.55,31.45c-2-.34-2.72,5.09-2.8,6.44s6.72,5,10.52,4,1.48-10.76.28-11.72S99.17,32.23,94.55,31.45Z"/><path class="cls-27" d="M95.84,35.51c-2.74-.94-4.54,3-.48,4.51S97.17,36,95.84,35.51Z"/><path class="cls-26" d="M79.57,54.21C76.39,52.88,82.8,46.06,90,45s11.21,2.83,11.21,2.83S92.46,57.59,79.57,54.21Z"/><path class="cls-26" d="M67.62,19.92c-3.54-1-5.93,5.59-2.71,6.16C66.62,26.38,70.24,20.63,67.62,19.92Z"/><path class="cls-28" d="M95.15,24.83c-.3-.13-1.83-1.45-1.39-4.36C94.22,17.36,95,7.4,98,8a4.66,4.66,0,0,0,3-.11,14.47,14.47,0,0,0-6.22,9.89,17.81,17.81,0,0,0-.34,5.33A2.67,2.67,0,0,0,95.15,24.83Z"/><path class="cls-17" d="M92,12.24c-.1,5.29,2,.34,3.77-2.7s.95-3.52,1.3-6S92.51,3.4,92,12.24Z"/><path class="cls-14" d="M17.1,20.25c-4.39.43,6.07,7.13,10.46,13.06s6.51,9,6.51,9,.39-5-4.87-12.55S17.1,20.25,17.1,20.25Z"/><path class="cls-14" d="M35.6,14.36c-4.34-.62-6.76,9.12-.53,16.22s20.07,4.15,20.6,3.15S46,15.85,35.6,14.36Z"/><path class="cls-29" d="M61.35,40.3s6.38,7.42,19.81,10.33S97.43,52,97.43,52s7.39-.05,10,2.71-3.75,7.94-27.65,3.13-25.5-9.22-26.7-12.12S61.35,40.3,61.35,40.3Z"/><path class="cls-30" d="M97.43,52s-8.11,1.69-22.06-1.82-13.33-9-13.33-9l-1.13-3.27s1.91,5,16.34,10.41S97.43,52,97.43,52Z"/><path class="cls-31" d="M55.74,41.57C53.17,44.8,64,54.3,81.17,56.57s22.78.61,22.78.61-4.1,5.5-30.51-.14S50.07,45.08,55.74,41.57Z"/><path class="cls-17" d="M76.18,55.13C71.79,53,87.1,50.51,95.64,53S93.4,59.67,76.18,55.13Z"/><path class="cls-27" d="M99.77,53.8c-2,1,2.44,2,3.35,1S101.13,53.12,99.77,53.8Z"/><path class="cls-27" d="M106,62.57c-2.24-.89,10.41.48,11.09.86S114.77,66.07,106,62.57Z"/><path class="cls-32" d="M40.27,51.28c-3-2.4,7.13-2.41,14.85.06s17.67,5.72,17.67,5.72C67.16,58,50.15,56.89,40.27,51.28Z"/><path class="cls-27" d="M78.71,53.39c-1-.7,10.8,1.39,12.3,2S83,56.53,78.71,53.39Z"/><path class="cls-33" d="M57.7,57c-.85.53,4.21,2.72,7.27,4.35s11.71-.32,21,.39a133.23,133.23,0,0,1,17,2.39s-28.68-5.86-31.13-6.31S61.74,57.69,57.7,57Z"/><path class="cls-34" d="M13.59,45.63c-2.89-.55-4.72.89-5.84,3.09s6.9,5,17.34,5.89,16.06-1.69,16.65-2S19.46,46.1,13.59,45.63Z"/><path class="cls-35" d="M40,17.05c-1.72-.78-2.48,1.07-.06,2.93S42.36,18.13,40,17.05Z"/><path class="cls-17" d="M22.4,23.6c-1.87-.33-1.2,2.2,1.57,2.95S24.12,23.9,22.4,23.6Z"/><path class="cls-17" d="M58,17.28c-2.39,1.19-.92,2.51,1.16,2.25S59.26,16.65,58,17.28Z"/><path class="cls-36" d="M31.64,33.15c-1.87-2.88,6,2.92,13.16,4.46a87.47,87.47,0,0,0,10.68,1.8s-11.21-.67-14.45.36-1.72,8.9-1.72,8.9S32.18,34.91,31.64,33.15Z"/><path class="cls-26" d="M82.9,68.63c-1.3,2.71,1.61,2,2.1.3S83.37,67.64,82.9,68.63Z"/><path class="cls-26" d="M109.48,67.89c-2.48,1.28.77,3.3,3.86,1.57S111,67.13,109.48,67.89Z"/><g class="cls-37"><path class="cls-38" d="M90.63,100c-5.76-2.59,4.22-7.76,10.29-7.46s3.72,8.5,2,9.93-6-3.08-9-2.94S91.88,100.57,90.63,100Z"/><path class="cls-39" d="M106.09,92.08c-1,2-.27,3.29,1.68,5.52s3.8-1.32,5.2-4.18S106.89,90.47,106.09,92.08Z"/><path class="cls-40" d="M17.57,66.3c-3-4.23,7.44-8.23,9.91-6.36s4.83,6.59,2.87,8.66-3.63-.76-6.57-.68S19.11,68.49,17.57,66.3Z"/><path class="cls-41" d="M61.22,123.33c-7.47-6.62,7.93-6.42,10.76-1.44s-8.82,1.72-9.79,1.58Z"/><path class="cls-42" d="M24.13,114.13c-4.09-3.8,11.29-6.84,15.54-1.46s-1.63,7.26-5.51,3.73S27,116.75,24.13,114.13Z"/></g><g class="cls-37"><path class="cls-43" d="M102.47,113.1c-2,2.21,2,3.06,2.56,1.56A1.54,1.54,0,0,0,102.47,113.1Z"/><path class="cls-44" d="M73.16,104.07c-1-3.94,9.34-3.78,8,1.13s-2.73-.39-5.36-.11S73.3,104.61,73.16,104.07Z"/><path class="cls-45" d="M73,97.4c-.22,2.12,1.52,3.27,2.3,1.07S73.05,96.44,73,97.4Z"/><path class="cls-46" d="M41.1,102c-2.43-5.86,7.14-8.54,8.81-3.3S42,104.14,41.1,102Z"/><path class="cls-47" d="M45.75,85.64c-2,4.35,6.37,5.3,7.16,1S47.13,82.56,45.75,85.64Z"/><path class="cls-48" d="M51.34,93.24c-3.4-3.75,7.16-5.33,5.55-1.79S52.41,94.42,51.34,93.24Z"/><path class="cls-49" d="M19.14,83.57c-1,7,7.1,5.7,8.42.73S19.47,81.2,19.14,83.57Z"/><path class="cls-50" d="M90.83,80.89c-.19-1.74,1.5-2.29,2.31-1S90.89,81.43,90.83,80.89Z"/><path class="cls-51" d="M10.1,96.92c-.19-1.74,1.5-2.29,2.31-1S10.16,97.46,10.1,96.92Z"/><path class="cls-52" d="M41.27,95.3c-.19-1.74,1.5-2.29,2.31-1S41.33,95.83,41.27,95.3Z"/><path class="cls-53" d="M56.77,72.09c-2,3.7,5,4.23,6.12,1.67S57.75,70.25,56.77,72.09Z"/><path class="cls-54" d="M65.38,74.72c-.68,1.68,3.38,2.28,3.6.77S65.86,73.54,65.38,74.72Z"/><path class="cls-55" d="M31.68,64.22c-1.35,0,0,2.14,2,2.93S32.77,64.19,31.68,64.22Z"/><path class="cls-56" d="M50.67,69.13c-1.5,2.55.78,4.27,2.19,1.86S51.12,68.36,50.67,69.13Z"/><path class="cls-57" d="M84.37,124.38c.67-1.9,3.67-2.77,3.44-.69S84.13,125.08,84.37,124.38Z"/><path class="cls-58" d="M40.62,119.94c.08-2.16,2.09-.68,1.92.27S40.58,120.89,40.62,119.94Z"/><path class="cls-59" d="M6.24,75.76c2.36-2.5,7.07,5.34,5,10.64s-5.32,2-5.34,0S6.24,75.76,6.24,75.76Z"/><path class="cls-60" d="M9.11,73.83c-.77.82-.13,1.64,1.17,2.5S10.53,72.32,9.11,73.83Z"/><path class="cls-61" d="M17.17,102.67c-2.11-1.63,1.58-4.32,5.66-2.88s4.17,5.52,3.74,5.93S18.39,103.62,17.17,102.67Z"/><path class="cls-62" d="M17.19,97.07c-.82,1.6,1.67,2,2.83.4S18.76,94,17.19,97.07Z"/><path class="cls-63" d="M21.25,110.92c-5.32-.94-3.75-5.84.59-4.78s6.71,2.63,6,2.92S23.15,111.25,21.25,110.92Z"/><path class="cls-64" d="M96.5,124.68c-1.74,4,2.19,2,3-.42S97,123.66,96.5,124.68Z"/><path class="cls-65" d="M99.08,109.47c-1.41,0-.87,1.86.79,1.25S100.48,109.48,99.08,109.47Z"/><path class="cls-66" d="M115.4,76.87c-4.49,4.25-.58,5.69,1.69,5.39s3.4-3.82,3.4-3.82S120.85,71.72,115.4,76.87Z"/><path class="cls-67" d="M10.14,58.93c.06,2.4,2.93,2.56,3.07.43S10.12,58.19,10.14,58.93Z"/></g><path class="cls-7" d="M48.25,84.17c-2.07,2-.63,3.65,1.7,3.76a2.33,2.33,0,0,0,2.49-2.87C52.24,84.18,49.7,82.75,48.25,84.17Z"/><path class="cls-7" d="M43.18,96.8c-2.77,1.68.47,5.4,4.19,4S47.89,94,43.18,96.8Z"/><path class="cls-7" d="M23.72,81.44c-3.42,1.2-3.2,4.83-1,5.83s5-2,4.92-4.11S24.53,81.16,23.72,81.44Z"/><path class="cls-7" d="M61.75,118.36c-5,.58,5.24,5.23,8.49,4.55S70.31,117.38,61.75,118.36Z"/><path class="cls-7" d="M93,94.64c-5.47,2.53,2.89,5.81,6.81,4.29S104.07,89.52,93,94.64Z"/><path class="cls-7" d="M57.38,71.63c-1.74.63.71,3.09,3.45,3S62.82,69.67,57.38,71.63Z"/><path class="cls-68" d="M51.41,90.8c-1.78,1.56,2.51,3.12,4.24.86S53.47,89,51.41,90.8Z"/><path class="cls-69" d="M11.34,99.41c-3.85-1.9-3.11-3.93-4.82-3.79S4.89,99,5.71,101.36s1.11,7.86,2.41,7.7c.73-.09,5.08-3.65,14.67.25,4.18,1.69,3.93,6.14,9.91,7.37,4.46.93,11.15-2.55,16.73-1.78,30.19,4.2,35.25,7.26,53.3,9.81.93.14,3.6-.94,4.08-.43s4.2-2.12,5-5.45-.17-6.33-1.48-5.77-26.51,1.1-57.72-3S11.34,99.41,11.34,99.41Z"/><path class="cls-7" d="M5.27,96.86s.81,9.06,3.23,10.38,5.55-1.49,12.1.09,4.45,5.91,11.89,7.7,12.57-1.65,14.57-2.41S49.32,114,54.8,115s38.46,5,45,7.69,12.27-3.3,12.2-5.46c0,0-.75,6.24-5.19,7L105.68,127a35.09,35.09,0,0,0-6.46-.17c-3.67.23-25.35-9.48-47.2-10.52-7.88-.37-11.87,4.92-20.11,2.81s-5.55-6.33-11.12-9.73-12.67-.35-12.67-.35-.53.72-1.55-3.75S4.93,99,5.27,96.86Z"/><path class="cls-14" d="M63.72,112.69c-6-.09,21.57,8.29,32.59,9s13.51-6.14,13-7S71.49,112.81,63.72,112.69Z"/><path class="cls-14" d="M30.15,113.43c-8.88-6.29-2.16-5.77,7.42-4.75S38,119,30.15,113.43Z"/><path class="cls-26" d="M103,115.81c-2.06,2.37,2.72,2.65,3.2,1.42S103.51,115.18,103,115.81Z"/><path class="cls-26" d="M37.76,111.81c-.89,1.43,1.55,1.29,2,.28S38.11,111.25,37.76,111.81Z"/><path class="cls-7" d="M6.27,92.12c.82,5.88,6.17,8.12,15.85,5.66s9.36,7.61,25.93,10.27,36.75,5.8,42.27,4,9-4.62,14.15-4.53,4.4,4.55,4.71,5a2.16,2.16,0,0,0,.74.67s-24.44,2.28-56.34-2.93-41.77-8.82-44.5-10.94-2.14-3.65-2.14-3.65Z"/><path class="cls-2" d="M75.36,14.27a15.24,15.24,0,0,0-11.08,5.5C60,25.27,59.41,34,61,38.58c0,0-3.86-12.63,3.15-20.43s22-4,22.58-3.39S77.91,14.08,75.36,14.27Z"/><path class="cls-2" d="M90.22,20.28c1.21-2.18,1.1-8.5,1.67-11.82S95.5,1.93,95.5,1.93a11.53,11.53,0,0,0-5.22,8.16C89.44,15.83,90.89,17,90.22,20.28Z"/></g></g></g></svg>