<svg xmlns="http://www.w3.org/2000/svg" xmlns:xlink="http://www.w3.org/1999/xlink" viewBox="0 0 144.24 102.23"><defs><style>.cls-1{isolation:isolate;}.cls-2{fill:#ff9fff;}.cls-3{fill:url(#Gradient_164);}.cls-4{fill:url(#Gradient_170);}.cls-5{fill:url(#Gradient_18);}.cls-6{fill:url(#Gradient_170-2);}.cls-7{fill:url(#Gradient_19);}.cls-8{fill:url(#Gradient_170-3);}.cls-9{fill:url(#Gradient_4);}.cls-10{fill:url(#Gradient_170-4);}.cls-11{fill:url(#Gradient_10);}.cls-12{fill:url(#Gradient_9);}.cls-13{fill:url(#Gradient_4-2);}.cls-14,.cls-15,.cls-16{fill:#bf2a92;}.cls-14{opacity:0.4;}.cls-14,.cls-15,.cls-16,.cls-17,.cls-23,.cls-33,.cls-35,.cls-36,.cls-37,.cls-38,.cls-40{mix-blend-mode:multiply;}.cls-15,.cls-23,.cls-36,.cls-42,.cls-43{opacity:0.5;}.cls-16,.cls-17,.cls-37,.cls-39{opacity:0.3;}.cls-17{fill:#750092;}.cls-18{fill:url(#Gradient_14);}.cls-19{fill:url(#Gradient_17);}.cls-20{fill:#ff988e;opacity:0.97;}.cls-20,.cls-39,.cls-41,.cls-42{mix-blend-mode:soft-light;}.cls-21{fill:url(#Gradient_17-2);}.cls-22{fill:#ffa96a;}.cls-24{fill:url(#Gradient_105);}.cls-25{fill:url(#Gradient_105-2);}.cls-26{fill:url(#Gradient_105-3);}.cls-27{fill:url(#Gradient_105-4);}.cls-28{fill:url(#Gradient_105-5);}.cls-29{fill:url(#Gradient_105-6);}.cls-30{fill:url(#Gradient_105-7);}.cls-31{fill:url(#Gradient_105-8);}.cls-32{fill:url(#Gradient_105-9);}.cls-33,.cls-36,.cls-37{fill:#ac1f90;}.cls-33{opacity:0.74;}.cls-34{fill:url(#Gradient_21);}.cls-35,.cls-38,.cls-40{opacity:0.92;}.cls-35{fill:url(#Gradient_22);}.cls-38{fill:url(#Gradient_147);}.cls-39{fill:#e06886;}.cls-40{fill:url(#Gradient_22-2);}.cls-41,.cls-42,.cls-44{fill:#fff;}.cls-43{mix-blend-mode:screen;fill:url(#Gradient_26);}</style><radialGradient id="Gradient_164" cx="270.37" cy="7150.04" r="120.67" gradientTransform="matrix(0.74, 0.1, -0.07, 0.51, 382.26, -3598.86)" gradientUnits="userSpaceOnUse"><stop offset="0" stop-color="#de803b"/><stop offset="0.3" stop-color="#dd7d3c"/><stop offset="0.49" stop-color="#d9753e"/><stop offset="0.65" stop-color="#d16641"/><stop offset="0.78" stop-color="#c75246"/><stop offset="0.82" stop-color="#c44b48"/><stop offset="0.85" stop-color="#c74b4d"/><stop offset="0.89" stop-color="#cf4b5d"/><stop offset="0.93" stop-color="#dc4b77"/><stop offset="0.98" stop-color="#ef4a9a"/><stop offset="1" stop-color="#f94aae"/></radialGradient><radialGradient id="Gradient_170" cx="196.12" cy="7178.6" r="96.22" gradientTransform="matrix(0.78, 0.11, -0.07, 0.51, 420.35, -3593.35)" gradientUnits="userSpaceOnUse"><stop offset="0" stop-color="#cf6a3b"/><stop offset="0.36" stop-color="#ce673c"/><stop offset="0.58" stop-color="#cb5f40"/><stop offset="0.77" stop-color="#c65046"/><stop offset="0.82" stop-color="#c44b48"/><stop offset="0.85" stop-color="#c74b4d"/><stop offset="0.89" stop-color="#cf4b5d"/><stop offset="0.93" stop-color="#dc4b77"/><stop offset="0.98" stop-color="#ef4a9a"/><stop offset="1" stop-color="#f94aae"/></radialGradient><radialGradient id="Gradient_18" cx="196.25" cy="7156.45" r="98.36" gradientTransform="matrix(0.78, 0.11, -0.07, 0.51, 420.35, -3593.35)" gradientUnits="userSpaceOnUse"><stop offset="0" stop-color="#ef953b"/><stop offset="0.71" stop-color="#da6d46"/><stop offset="0.82" stop-color="#d66648"/><stop offset="0.85" stop-color="#d8654d"/><stop offset="0.89" stop-color="#dd605d"/><stop offset="0.93" stop-color="#e65977"/><stop offset="0.98" stop-color="#f24f9a"/><stop offset="1" stop-color="#f94aae"/></radialGradient><radialGradient id="Gradient_170-2" cx="201.56" cy="7205.31" r="94.71" xlink:href="#Gradient_170"/><radialGradient id="Gradient_19" cx="200.71" cy="7197.94" r="92.13" gradientTransform="matrix(0.78, 0.11, -0.07, 0.51, 420.35, -3593.35)" gradientUnits="userSpaceOnUse"><stop offset="0" stop-color="#ef953b"/><stop offset="0.28" stop-color="#e37f41"/><stop offset="0.6" stop-color="#d96d46"/><stop offset="0.82" stop-color="#d66648"/><stop offset="0.85" stop-color="#d8654d"/><stop offset="0.89" stop-color="#dd605d"/><stop offset="0.93" stop-color="#e65977"/><stop offset="0.98" stop-color="#f24f9a"/><stop offset="1" stop-color="#f94aae"/></radialGradient><radialGradient id="Gradient_170-3" cx="197.72" cy="7126.06" r="97.63" xlink:href="#Gradient_170"/><radialGradient id="Gradient_4" cx="199.04" cy="7117.83" r="99.45" gradientTransform="matrix(0.78, 0.11, -0.07, 0.51, 420.35, -3593.35)" gradientUnits="userSpaceOnUse"><stop offset="0" stop-color="#ef953b"/><stop offset="0.31" stop-color="#ee923c"/><stop offset="0.51" stop-color="#e98a3e"/><stop offset="0.67" stop-color="#e17b42"/><stop offset="0.82" stop-color="#d76748"/><stop offset="0.82" stop-color="#d66648"/><stop offset="0.85" stop-color="#d8654d"/><stop offset="0.89" stop-color="#dd605d"/><stop offset="0.93" stop-color="#e65977"/><stop offset="0.98" stop-color="#f24f9a"/><stop offset="1" stop-color="#f94aae"/></radialGradient><radialGradient id="Gradient_170-4" cx="211.15" cy="7113.1" r="91.55" xlink:href="#Gradient_170"/><linearGradient id="Gradient_10" x1="40.94" y1="-51.7" x2="55.68" y2="-51.7" gradientTransform="translate(81.15 109.62) rotate(7.71)" gradientUnits="userSpaceOnUse"><stop offset="0" stop-color="#cf6a3b"/><stop offset="0.44" stop-color="#ce673c"/><stop offset="0.71" stop-color="#cb5f40"/><stop offset="0.94" stop-color="#c65046"/><stop offset="1" stop-color="#c44b48"/></linearGradient><linearGradient id="Gradient_9" x1="40.45" y1="-57.47" x2="55.69" y2="-57.47" gradientTransform="translate(81.15 109.62) rotate(7.71)" gradientUnits="userSpaceOnUse"><stop offset="0" stop-color="#f94aae"/><stop offset="0.02" stop-color="#f24f9a"/><stop offset="0.07" stop-color="#e65977"/><stop offset="0.11" stop-color="#dd605d"/><stop offset="0.15" stop-color="#d8654d"/><stop offset="0.18" stop-color="#d66648"/><stop offset="0.18" stop-color="#d76748"/><stop offset="0.33" stop-color="#e17b42"/><stop offset="0.49" stop-color="#e98a3e"/><stop offset="0.69" stop-color="#ee923c"/><stop offset="1" stop-color="#ef953b"/></linearGradient><radialGradient id="Gradient_4-2" cx="213.83" cy="7104.48" r="86.27" xlink:href="#Gradient_4"/><linearGradient id="Gradient_14" x1="-53.97" y1="-50.43" x2="-53.97" y2="-60.32" gradientTransform="translate(81.15 109.62) rotate(7.71)" gradientUnits="userSpaceOnUse"><stop offset="0" stop-color="#d45224"/><stop offset="0.03" stop-color="#cf4f24"/><stop offset="0.33" stop-color="#a43222"/><stop offset="0.61" stop-color="#841d20"/><stop offset="0.84" stop-color="#71111f"/><stop offset="1" stop-color="#6a0c1f"/></linearGradient><linearGradient id="Gradient_17" x1="-11.65" y1="-26.23" x2="-11.65" y2="-34.1" gradientTransform="translate(81.15 109.62) rotate(7.71)" gradientUnits="userSpaceOnUse"><stop offset="0" stop-color="#c05024"/><stop offset="0.24" stop-color="#a43a22"/><stop offset="0.55" stop-color="#842121"/><stop offset="0.82" stop-color="#71111f"/><stop offset="1" stop-color="#6a0c1f"/></linearGradient><linearGradient id="Gradient_17-2" x1="40.33" y1="-41.05" x2="40.33" y2="-48.98" xlink:href="#Gradient_17"/><linearGradient id="Gradient_105" x1="-12.53" y1="-33.98" x2="-12.53" y2="-35.35" gradientTransform="translate(81.15 109.62) rotate(7.71)" gradientUnits="userSpaceOnUse"><stop offset="0" stop-color="#ffdbea"/><stop offset="0.1" stop-color="#f9cfe2"/><stop offset="0.27" stop-color="#e8b0ce"/><stop offset="0.51" stop-color="#ce7eac"/><stop offset="0.79" stop-color="#a9397f"/><stop offset="1" stop-color="#8b0059"/></linearGradient><linearGradient id="Gradient_105-2" x1="-28.93" y1="-16.06" x2="-28.93" y2="-18.01" xlink:href="#Gradient_105"/><linearGradient id="Gradient_105-3" x1="-68.21" y1="-45.38" x2="-68.21" y2="-52.82" xlink:href="#Gradient_105"/><linearGradient id="Gradient_105-4" x1="-38.11" y1="-39.31" x2="-38.11" y2="-42.18" xlink:href="#Gradient_105"/><linearGradient id="Gradient_105-5" x1="-36.16" y1="-20.73" x2="-36.16" y2="-22.76" xlink:href="#Gradient_105"/><linearGradient id="Gradient_105-6" x1="2.28" y1="-66.04" x2="2.28" y2="-71.95" xlink:href="#Gradient_105"/><linearGradient id="Gradient_105-7" x1="6.04" y1="-75" x2="6.04" y2="-76.91" xlink:href="#Gradient_105"/><linearGradient id="Gradient_105-8" x1="-50.88" y1="-81.51" x2="-50.88" y2="-87.17" xlink:href="#Gradient_105"/><linearGradient id="Gradient_105-9" x1="-40.67" y1="-76.81" x2="-40.67" y2="-79.48" xlink:href="#Gradient_105"/><linearGradient id="Gradient_21" x1="-20.07" y1="-34.54" x2="-20.07" y2="-106.67" gradientTransform="translate(81.15 109.62) rotate(7.71)" gradientUnits="userSpaceOnUse"><stop offset="0" stop-color="#4f0c1f"/><stop offset="0.31" stop-color="#561020"/><stop offset="0.75" stop-color="#691a22"/><stop offset="1" stop-color="#772224"/></linearGradient><linearGradient id="Gradient_22" x1="-82.62" y1="-73.77" x2="16.12" y2="-73.77" gradientTransform="translate(81.15 109.62) rotate(7.71)" gradientUnits="userSpaceOnUse"><stop offset="0" stop-color="#a90079"/><stop offset="0.01" stop-color="#ab057b"/><stop offset="0.3" stop-color="#c85caa"/><stop offset="0.55" stop-color="#e0a2ce"/><stop offset="0.76" stop-color="#f1d4e9"/><stop offset="0.91" stop-color="#fbf3f9"/><stop offset="1" stop-color="#fff"/></linearGradient><linearGradient id="Gradient_147" x1="-9.41" y1="-97.12" x2="40.33" y2="-97.12" gradientTransform="translate(81.15 109.62) rotate(7.71)" gradientUnits="userSpaceOnUse"><stop offset="0" stop-color="#fff"/><stop offset="0.09" stop-color="#fbf3f9"/><stop offset="0.24" stop-color="#f1d4e9"/><stop offset="0.45" stop-color="#e0a2ce"/><stop offset="0.7" stop-color="#c85caa"/><stop offset="0.99" stop-color="#ab057b"/><stop offset="1" stop-color="#a90079"/></linearGradient><linearGradient id="Gradient_22-2" x1="-69.52" y1="-84.7" x2="19.03" y2="-84.7" xlink:href="#Gradient_22"/><linearGradient id="Gradient_26" x1="-80.15" y1="-60.53" x2="-54.73" y2="-60.53" gradientTransform="translate(81.15 109.62) rotate(7.71)" gradientUnits="userSpaceOnUse"><stop offset="0" stop-color="#844fbd"/><stop offset="0.54" stop-color="#3b2354"/><stop offset="1"/></linearGradient></defs><g class="cls-1"><g id="Layer_2" data-name="Layer 2"><g id="objects"><path class="cls-2" d="M83.94,2.43A208.14,208.14,0,0,0,51.65,0C28,0,9.5,14.36,8.93,16.94s-2.31,2.71-3.33,5.2,1,10,.68,12.8S-.38,42.57,0,45.44s5.79,10.9,6.31,15.71S1,65,5.6,72.89c9.24,15.94,39.15,25.67,61.89,27.47S83.94,2.43,83.94,2.43Z"/><path class="cls-3" d="M9.67,69C5.45,49,8.91,22.36,22.75,16.7c23.08-9.44,83.17,3.84,102.07,12.39C142.34,37,135.89,75.51,131,84.18,121.84,100.26,15.63,97.21,9.67,69Z"/><path class="cls-4" d="M2.11,44.55s3.31,13.78,6.34,16.6S41.19,80.47,76.92,83.92c36,3.48,49.1-12,49.1-12s-20,3.94-53.32-2C39.16,63.82,2.11,44.55,2.11,44.55Z"/><path class="cls-5" d="M126.34,70.74S110.6,83.4,66.88,75.27C16.24,65.84,2.26,46.63,2.11,44.55s9.36-14,9.36-14,11.28,12.63,45.4,23.68C89.94,64.89,126.34,70.74,126.34,70.74Z"/><path class="cls-6" d="M6.33,70.07c.85,3.13,14.51,24.45,60,30.66,46.65,6.38,57.69-9.51,59.47-12.5s1.86-16.83,1.86-16.83S122.8,90.13,88,88.78C53.86,87.46,21.66,76.65,6.33,70.07Z"/><path class="cls-7" d="M8.45,61.15s-2.57,6.46-2.12,8.92S27.05,89.82,77.58,93.92c44.81,3.64,50.06-22.52,50.06-22.52S116.3,87.23,76.92,83.92C20.66,79.2,8.45,61.15,8.45,61.15Z"/><path class="cls-8" d="M9.35,33.23S24,48.47,63.84,58.54c38.94,9.85,62.85,11,62.85,11s1.55-7.93-2.69-18.91c-4.46-11.55-64-28-86.44-33.75C14.9,11.07,9.08,21.43,8.23,21.93S9.35,33.23,9.35,33.23Z"/><path class="cls-9" d="M126.69,69.51s6.5-21.45-.11-33.7c-7-12.93-50.7-22.39-76-25.22S9.92,20.18,9.92,20.18s5.86.52,59.5,21.35C121.35,61.69,126.69,69.51,126.69,69.51Z"/><path class="cls-10" d="M126.69,69.51A97.76,97.76,0,0,0,135,45.44c2.85-14.29-18-28.54-49.64-34.64-31.95-6.15-55,.72-55,.72s31,1.12,69,16.41C135.77,42.54,126.69,69.51,126.69,69.51Z"/><path class="cls-11" d="M127.64,71.4s3.39,1.66,6.26.14c5.17-2.73,10.34-12.85,10.34-12.85s-7.91-3.85-10.43,1.11S127.64,71.4,127.64,71.4Z"/><path class="cls-12" d="M135,45.44s9.22,10,9.2,13.25-17.08,12.65-17.08,12.65S134.12,54.63,135,45.44Z"/><path class="cls-13" d="M35.17,10.41s37.58-5.3,74.27,10.34c27.75,11.82,20.68,41.13,20.68,41.13s6.41-13.89,6.25-22C136.21,31.49,108.37-1.15,35.17,10.41Z"/><path class="cls-14" d="M131.08,68.76c-3.83.73-.34-5.37-.34-5.37s-2.76,4.11-3.49,5-7.66.64-7.66.64,5.7,1.53,6.23,1.62-7.4,4.74-20.35,6.75a88.8,88.8,0,0,1-25.15-.15s16.21,6.9,28,4.41c12.08-2.54,18.88-10.44,19.28-10.27s-.92,3.08-.07,3.39,3.53-2.55,3.53-2.55-2.53-1.14-1.28-2.31Z"/><path class="cls-15" d="M21.09,41.79c-8.8-10.42,4.58,1.62,31.82,11.06C79.39,62,101,57.9,104,59.78s7.22,3.7,5.1,4.86-15.67.69-26.46-1.72-12.26-4.69-17.91-5.15S43,52.11,43,52.11A86.64,86.64,0,0,0,72.46,65.5c17.07,4,22.36-.14,32.89,1.61A184.5,184.5,0,0,0,125,69.27S103.17,51.37,60.68,39C16.82,26.3,9.68,23.58,9,24.83s1.72,7.48,2.8,9.88S21.09,41.79,21.09,41.79Z"/><path class="cls-15" d="M12.82,65.37C9,60,29.52,68.72,54.12,74.8c24.26,6,24.64,7.13,29,8.36s13.59.34,13.59.34a36.56,36.56,0,0,1-13.24-1.79c-6.88-2.34-3.42-4.48-3.9-4.53a226.5,226.5,0,0,1-39-8.53C18.29,61.8,6.42,49,4.69,48.38S7.38,60.14,8.92,61.75,12.82,65.37,12.82,65.37Z"/><path class="cls-16" d="M19.35,79.59S27,94.82,55.82,98.93c51.76,7.39,61.17-4,64-5.08s-.39-5.72.77-8.84-3,7-24.32,8.91C75.52,95.74,43.35,92.87,19.35,79.59Z"/><path class="cls-17" d="M20.91,65.24S31.12,68.66,47.8,73.9c16.42,5.15,24.71,5.77,24.71,5.77s-20.08-5.7-34-9.84C23.19,65.25,20.91,65.24,20.91,65.24Z"/><path class="cls-18" d="M18.56,40.27c2.53,1.52,8.16.75,13.78,2.53s10,8.52,19.31,11.93C51.65,54.73,27.62,47.92,18.56,40.27Z"/><path class="cls-19" d="M34.39,69.29s16.31,6.07,23,8.37,4.51.28,10.9,1.47,9.3,2.81,14.81,4,11.44,2.14,18.88.16,11.87-3.27,11.87-3.27-10.13,2.75-13.13,2.75-2.06-1.67-8-1.16-4.68.81-13.94-1.08-8.89-1.17-16.25-2.63S53,69.72,34.39,69.29Z"/><path class="cls-20" d="M35.26,28.59c-10.84-3.88,27.86-10.22,53.64-3.5,25.4,6.62,34.51,29.51,34.15,32.65S95.83,50,73.58,43.16A295.65,295.65,0,0,1,35.26,28.59Z"/><path class="cls-20" d="M24.34,61.92c-1.68-2.81,22.9.26,49.57,3.91s35.5,9.24,35.5,9.24S83.71,85.77,24.34,61.92Z"/><path class="cls-20" d="M45.72,89C42,86.67,50.8,83,78.45,84.24c28,1.28,32.72,3,32.72,3S98.67,100.18,45.72,89Z"/><path class="cls-21" d="M127.44,73.08c-.29-1.56-1.48.71-3.36.89s2.24-3.2,1.74-3.31.9-2.06,2.41-3.6,1.88,1.9,1.59,2.87.55,3.12-.15,3.7S127.62,74,127.44,73.08Z"/><path class="cls-15" d="M69.61,18.15s26.48-4.95,44.85,5.16c17.77,9.77,16.6,31.26,16.31,33.94a7.62,7.62,0,0,1-2.3,4.41,51.19,51.19,0,0,0-11.89-21.72C106.56,28.9,69.61,18.15,69.61,18.15Z"/><path class="cls-22" d="M26.85,25.57c-4.21-2.45,12.32,6.61,20.85,6.27s10.95,2.56,11.43,3.85,3.69,1.14,6.4,2.59S85.2,47.55,85.2,47.55,38.39,32.28,26.85,25.57Z"/><path class="cls-22" d="M59.91,73.66c2.39.41,13.86.38,16.6.42s4.91,1.28,8.89,2.12,11.39,1.74,11.39,1.74A153.37,153.37,0,0,1,59.91,73.66Z"/><path class="cls-22" d="M31.32,84.7S62,92.92,74.11,93.24s11-2.57,17.82-2.73,9.22.25,14.62-.55,6.69-4.07,9.17-4.41,5.38-3,5.38-3-8.71,11.17-32.87,11.58C64.53,94.55,38.77,87.63,31.32,84.7Z"/><g class="cls-23"><path class="cls-24" d="M73.16,74.23c-4.43-1.11-.11-1.77,1.7-1S74.58,74.58,73.16,74.23Z"/><path class="cls-25" d="M53.15,88c-2.14.66.67,2.48,3.19,1.59S54.88,87.44,53.15,88Z"/><path class="cls-26" d="M14.48,48.59c-2.83,1.78,7.76,9.74,11.14,6.69S19.47,45.44,14.48,48.59Z"/><path class="cls-27" d="M47.63,62.63c-3.07,1.28.79,3.47,2.89,3S48.86,62.11,47.63,62.63Z"/><path class="cls-28" d="M46.45,82.59c-.41.79,2.37,2.61,3.47,1.15S46.89,81.7,46.45,82.59Z"/><path class="cls-29" d="M89,40.37c-5.53,2.84,3.6,4.69,7,4.24S98.78,35.35,89,40.37Z"/><path class="cls-30" d="M96,34.61c-4.12,1.25,2.22,1.76,3.44,1.31S99.4,33.59,96,34.61Z"/><path class="cls-31" d="M38.51,16.56C26.34,18,45.33,25.37,49,20.82S40.17,16.37,38.51,16.56Z"/><path class="cls-32" d="M49.21,26c-.58,2.84,3.16,2.08,4.26.58S49.37,25.26,49.21,26Z"/></g><path class="cls-33" d="M135.72,38.14a18,18,0,0,1,.43,5c-.29,1.74-4.55,7.76-5.51,8.67s-4.13,1.4-5.25,2.23-13.58,2.13-18.18,2.32-11.5-9.24-34.06,2.74c-8,4.25-26.44-9.29-35.49-7.55S31,56.17,33.54,59s9.22,10.12,8,10.82-13.63.23-22.41-3S5.27,55.9,5.62,53.59,16.87,47.72,17.52,46s-6.32-1.4-8.69-5.12,1-7.18,1-7.18Z"/><path class="cls-34" d="M135.72,38.14c-1.58,1.55-6.89,8-8.89,13.6s-22.82.06-33.35-.65c-9.81-.66-13.79,9.42-32.32,4.44-1.34-.37-2.78-.82-4.29-1.35a128.67,128.67,0,0,0-15.08-4.34c-3.79-.72-7.94-.21-10.18,1.25l0,0a3,3,0,0,0-1.6,3c.18,1.14,1.08,2.46,2.93,3.93C40.73,64.24,44,66.41,43,68.78a.84.84,0,0,1-.66.4,1.15,1.15,0,0,1-.22,0,7.64,7.64,0,0,1-1.79,0h0a43.71,43.71,0,0,1-7.05-1.45.1.1,0,0,1-.07,0,97.44,97.44,0,0,1-9.95-3.32h0A61.81,61.81,0,0,1,9.63,57.37C3.69,52.91,3.3,49.79,6.14,48h0a13.38,13.38,0,0,1,5.29-1.57h.06c.91-.11,1.89-.18,2.92-.21.69,0,1.27,0,1.76-.09,4.64-.37.69-1.66-1-4.26A24,24,0,0,1,11,38.65c-3.7-3.72-2.92-6.92-3.74-12a10.63,10.63,0,0,1,0-4.09c.63-2.6,2.65-2.4,2.65-2.4-.48-.86,1-7.45,24-14.24s54-5.69,82.6,3.15c14.82,4.57,14.17,12.58,17.37,18.4h0a.37.37,0,0,0,.06.1c0,.1.12.23.22.4s.24.46.37.77C136.84,33.61,136.42,37.45,135.72,38.14Z"/><path class="cls-35" d="M13.1,15.29c-2.66,4.6,20.16,15.36,39.42,16.27s58.55,7.93,54,8.54-23.87,6-40.35,3.7S50.9,34.65,33,30.15s-23.06-10-23.06-10S9.78,17.58,13.1,15.29Z"/><path class="cls-36" d="M11.51,46.43c.91-.11,1.89-.18,2.92-.21,7.25-.21,2.63-1.48.79-4.35-8.45-5.32-6.88-8.75-7.93-15.2a10.63,10.63,0,0,1,0-4.09s.47,8.93,6.16,15.82c.39.47.77.91,1.13,1.32A35.11,35.11,0,0,0,19,44c2.11,1.7,3.28,2.2,3.6,3.36C23.06,49.09,18.86,46.07,11.51,46.43Z"/><path class="cls-36" d="M133.93,27.51l0,0h0Z"/><path class="cls-36" d="M135.72,38.14c-1.58,1.55-6.89,8-8.89,13.6s-22.82.06-33.35-.65-14.35,11-36.61,3.09a128.67,128.67,0,0,0-15.08-4.34c-3.79-.72-7.94-.21-10.18,1.25a11.07,11.07,0,0,1,3.17-2.68h0a13.69,13.69,0,0,1,4.16-1.6,15.59,15.59,0,0,1,2.84-.29c6.86-.05,20.53,7.77,32.9,6.33S88.39,49.49,93,47.44s19.35,2,29.69,1.16,5.44-6.26,10.37-10.5c3.56-3.07,2.4-7.24,1.49-9.32C136.84,33.61,136.42,37.45,135.72,38.14Z"/><path class="cls-36" d="M33.29,67.77a.1.1,0,0,1-.07,0c-2.55-.78-5.8-1.85-9.95-3.32h0A61.81,61.81,0,0,1,9.63,57.37C3.69,52.91,3.3,49.79,6.14,48h0c-1.4,1.38-.23,9.36,11.89,12s14.29,2.21,17.64,6.25a7.82,7.82,0,0,0,4.65,3h0a5,5,0,0,0,1.79,0,1.15,1.15,0,0,0,.22,0S43.61,70.92,33.29,67.77Z"/><path class="cls-36" d="M61.16,55.53c-1.34-.37-2.78-.82-4.29-1.35a128.67,128.67,0,0,0-15.08-4.34c-3.79-.72-7.94-.21-10.18,1.25l0,0a3,3,0,0,0-1.6,3A13.62,13.62,0,0,1,17.9,52c-5.59-4-1.94-3.9-1.71-5.84,4.64-.37.69-1.66-1-4.26A24,24,0,0,1,11,38.65c-1.91-2.54-3.47-5.47-2.82-8.73-.44-6.11,10.56,1.53,26.72,10.82C48.75,48.68,60.17,53.94,61.16,55.53Z"/><path class="cls-37" d="M32.22,38.5C27.91,36,38.79,36,52,40.64s18.55,7.74,18.86,9.06S57.47,49.89,48.25,47A55,55,0,0,1,32.22,38.5Z"/><path class="cls-37" d="M20.53,22.54C11.29,15.23,31.93,2.25,56,3.3s10.32,7.62,4.22,9.49,18.63-.34,44.88,9S94.24,35.9,66.65,32.22,20.53,22.54,20.53,22.54Z"/><path class="cls-38" d="M133.18,26c-7.34-7.2-17.14-13.11-44.09-13.46-13.91-.18,10.12-1.2,18-3.71s19.36,6.44,21,9.66a8.41,8.41,0,0,0,4,4.09Z"/><path class="cls-39" d="M81,33.37c-3.18-.13,19.81,10.5,35.86,11.54S135,32.54,135.4,30.82,115.73,20.6,112.89,20.39s4.08,3.49.18,8.65S81,33.37,81,33.37Z"/><path class="cls-39" d="M66.14,43.8c-2.72-.59,5.79,8,12.56,7.5a29.25,29.25,0,0,0,14.15-5.48C94,44.81,73.21,45.36,66.14,43.8Z"/><path class="cls-39" d="M61.08,1.69c6.75,1,11.76,7.82,26.37,8s19.92-1.85,19.92-1.85S91.38,1.78,61.08,1.69Z"/><path class="cls-39" d="M12.71,51.39c-6.06-.69-5,6.24,4.51,8.08S31.57,63,33.31,63.05,29.56,53.31,12.71,51.39Z"/><path class="cls-39" d="M14.86,19.17c-2-3,3.69-5.83,5-7.21s-4.3,5.44-.76,9,16.19,5.77,25.49,7.51a110.43,110.43,0,0,1,12.51,2.83A94,94,0,0,1,31.4,27.87C18.86,24.09,14.86,19.17,14.86,19.17Z"/><path class="cls-40" d="M28.73,20.69c11.91,1.09,24.87-5.84,48.55-4.35s32.28,8.54,33.94,11.2-9.12,4.28-14.91,3.92.08-8.94-23.89-10.32S47.32,20.52,48,24.91,28.57,23.69,24.1,22.6,28.73,20.69,28.73,20.69Z"/><path class="cls-41" d="M97.82,45.6c-2.81-2.45,6.78-1.23,8.28.82S99.81,47.34,97.82,45.6Z"/><path class="cls-41" d="M76.41,45.76c-9.93,7,6.38,7.73,9.69,3.49S79.52,43.56,76.41,45.76Z"/><path class="cls-41" d="M82.92,5.13c-5.63-.49.16,3.47,4,2.67S85.56,5.36,82.92,5.13Z"/><path class="cls-42" d="M22.4,60.23c-2.53-1.64,3-2.09,4.5-.52S24.31,61.47,22.4,60.23Z"/><path class="cls-41" d="M49.45,21.27c-1.55.82,3.65,0,8.32-.29s12,0,12,0-3.75-.58-5.91-.8-2.3.75-5.34.21S53,18.21,49.45,21.27Z"/><path class="cls-41" d="M89.65,25.35c-1.42,0,.47,2.46,1.52,2.53S92.27,25.35,89.65,25.35Z"/><path class="cls-43" d="M12.4,38.59c-5-6.51-.34-6.8,11.7-2.08s11,8.34,9.92,10.84-7.71-3-11.68-2.47S12.4,38.59,12.4,38.59Z"/><path class="cls-44" d="M107.73,46.8c-.16.53,1.22.53,1.84.25S108.19,45.24,107.73,46.8Z"/><path class="cls-44" d="M24.21,34.47c-1.33-1.79,3.06-1.76,4.47.6S26.21,37.15,24.21,34.47Z"/><path class="cls-2" d="M7.08,55.53S4.25,52,5.7,49.44a5.21,5.21,0,0,1,4-2.72s-3.67-.16-5.41,2S7.08,55.53,7.08,55.53Z"/><path class="cls-2" d="M7.82,31.35a41.18,41.18,0,0,0,2.61,5.91A11,11,0,0,0,14,41.06s-6.07-2.23-6.92-5.19a21.07,21.07,0,0,1-.28-7.09l.94,2.29Z"/></g></g></g></svg>