<svg xmlns="http://www.w3.org/2000/svg" xmlns:xlink="http://www.w3.org/1999/xlink" viewBox="0 0 7.81 10.85"><defs><style>.cls-1{fill:url(#radial-gradient);}.cls-2{fill:url(#radial-gradient-2);}.cls-3{fill:url(#radial-gradient-3);}</style><radialGradient id="radial-gradient" cx="4.99" cy="-232.58" r="0.01" gradientTransform="matrix(1, 0, 0, -1, 0, -221.86)" gradientUnits="userSpaceOnUse"><stop offset="0" stop-color="#ff6d00"/><stop offset="0.51" stop-color="#ff7a00"/><stop offset="1" stop-color="#ff8b00"/></radialGradient><radialGradient id="radial-gradient-2" cx="5.94" cy="-231.8" r="0.01" xlink:href="#radial-gradient"/><radialGradient id="radial-gradient-3" cx="6.71" cy="-229.4" r="0.03" xlink:href="#radial-gradient"/></defs><g id="Layer_2" data-name="Layer 2"><g id="Layer_1-2" data-name="Layer 1"><g id="Layer_2-2" data-name="Layer 2"><g id="objects"><path class="cls-1" d="M4.81,10.22a2.24,2.24,0,0,0,.61.18,2.81,2.81,0,0,1-3,0A2.51,2.51,0,0,0,3,10.23a2.44,2.44,0,0,0,1.84,0Z"/><path class="cls-2" d="M6.68,8.84s.23.73-.17,1.12c-.65.63-1.67.26-2.27-.23a1.12,1.12,0,0,1-.34-.38,1.16,1.16,0,0,1-.35.38c-.6.49-1.62.86-2.26.23-.41-.39-.18-1.12-.18-1.12-.08.61.66,1,1.17.4.26-.28.66-.71,1.08-.71a.61.61,0,0,1,.54.35.58.58,0,0,1,.54-.35c.41,0,.81.43,1.07.71C6,9.8,6.77,9.45,6.68,8.84Z"/><path class="cls-3" d="M7.81,2.75A1.63,1.63,0,0,0,6.19,1.12a1.53,1.53,0,0,0-.7.16,1.63,1.63,0,0,0-3.18,0,1.63,1.63,0,0,0-1.37,3,1.35,1.35,0,0,0,.34.11V6.08a.39.39,0,0,0-.11.27v.39a.32.32,0,0,0,.22.33,2.64,2.64,0,0,0,0,2.23.54.54,0,0,0,.3.1.59.59,0,0,0,.23-.05A2.18,2.18,0,0,1,1.92,7a8.55,8.55,0,0,1,4,0,2.2,2.2,0,0,1,0,2.34.59.59,0,0,0,.23.05.51.51,0,0,0,.3-.1,2.64,2.64,0,0,0,0-2.23.35.35,0,0,0,.22-.33V6.35a.36.36,0,0,0-.12-.27V4.34A1.63,1.63,0,0,0,7.81,2.75ZM5,3.83a.08.08,0,0,1,.11,0h0a1.54,1.54,0,0,0,.79.43.08.08,0,0,1,.06.1s0,.06-.07.06h0A1.75,1.75,0,0,1,5,3.94a.14.14,0,0,1,0-.06A.08.08,0,0,1,5,3.83ZM3.59,3.17a0,0,0,0,1,.05,0,1.93,1.93,0,0,0,.48,0,.08.08,0,0,1,.09.06.08.08,0,0,1-.07.09,1.81,1.81,0,0,1-.52,0l-.05,0a.07.07,0,0,1,0-.06A.1.1,0,0,1,3.59,3.17ZM1.74,4.32a.05.05,0,0,1,.05,0,1.55,1.55,0,0,0,1.08-.64.08.08,0,0,1,.11,0,.08.08,0,0,1,0,.11,1.68,1.68,0,0,1-1.19.7h0a.08.08,0,0,1-.08-.07A.08.08,0,0,1,1.74,4.32Z"/></g></g></g></g></svg>