<svg xmlns="http://www.w3.org/2000/svg" xmlns:xlink="http://www.w3.org/1999/xlink" viewBox="0 0 93.98 130.37"><defs><style>.cls-1{fill:url(#radial-gradient);}.cls-2{fill:url(#radial-gradient-2);}.cls-3{fill:url(#radial-gradient-3);}</style><radialGradient id="radial-gradient" cx="60.15" cy="128.88" r="0.08" gradientUnits="userSpaceOnUse"><stop offset="0" stop-color="#ff6d00"/><stop offset="0.51" stop-color="#ff7a00"/><stop offset="1" stop-color="#ff8b00"/></radialGradient><radialGradient id="radial-gradient-2" cx="71.61" cy="119.51" r="0.16" xlink:href="#radial-gradient"/><radialGradient id="radial-gradient-3" cx="80.77" cy="90.56" r="0.4" xlink:href="#radial-gradient"/></defs><g id="Layer_2" data-name="Layer 2"><g id="objects"><path class="cls-1" d="M58,122.87A28.32,28.32,0,0,0,65.3,125a33.74,33.74,0,0,1-36.62,0,28.32,28.32,0,0,0,7.26-2.1,28.49,28.49,0,0,0,22.1,0Z"/><path class="cls-2" d="M80.47,106.3s2.75,8.68-2.11,13.41c-7.75,7.55-20,3.1-27.26-2.71A13.7,13.7,0,0,1,47,112.36,13.63,13.63,0,0,1,42.87,117c-7.28,5.81-19.5,10.26-27.25,2.71-4.86-4.73-2.11-13.41-2.11-13.41-1,7.28,7.92,11.45,14.06,4.76,3.11-3.39,7.93-8.54,12.92-8.54a7.11,7.11,0,0,1,6.5,4.22,7.11,7.11,0,0,1,6.5-4.22c5,0,9.81,5.15,12.92,8.54C72.55,117.75,81.51,113.58,80.47,106.3Z"/><path class="cls-3" d="M94,33a19.52,19.52,0,0,0-27.9-17.66,19.54,19.54,0,0,0-38.18,0A19.54,19.54,0,1,0,15.52,52.15V73.1a4.39,4.39,0,0,0-1.37,3.17V81a4.27,4.27,0,0,0,2.67,4A31.28,31.28,0,0,0,17,111.74a5.88,5.88,0,0,0,3.58,1.19,7,7,0,0,0,2.78-.61,26.13,26.13,0,0,1-.18-28.07,101.58,101.58,0,0,1,47.6,0,26.13,26.13,0,0,1-.18,28.07,7,7,0,0,0,2.78.61A5.9,5.9,0,0,0,77,111.74,31.37,31.37,0,0,0,77.16,85a4.27,4.27,0,0,0,2.67-4V76.27a4.39,4.39,0,0,0-1.37-3.17V52.15A19.55,19.55,0,0,0,94,33ZM59.78,46a.93.93,0,0,1,1.32,0,18.48,18.48,0,0,0,9.54,5.23.93.93,0,0,1-.19,1.84.62.62,0,0,1-.19,0,20.34,20.34,0,0,1-10.5-5.75,1,1,0,0,1-.26-.66A.92.92,0,0,1,59.78,46ZM43.24,38.08a.89.89,0,0,1,.69-.15,19,19,0,0,0,5.74,0,.93.93,0,0,1,.27,1.85,21,21,0,0,1-6.32-.06,1,1,0,0,1-.61-.38,1,1,0,0,1-.16-.7A.92.92,0,0,1,43.24,38.08ZM21.05,51.87a.94.94,0,0,1,.63-.35,18.62,18.62,0,0,0,13-7.69.93.93,0,1,1,1.51,1.09,20.5,20.5,0,0,1-14.34,8.46h-.11a.94.94,0,0,1-.93-.83A1,1,0,0,1,21.05,51.87Z"/></g></g></svg>