<svg xmlns="http://www.w3.org/2000/svg" xmlns:xlink="http://www.w3.org/1999/xlink" viewBox="0 0 349.74 326.66"><defs><style>.cls-1{isolation:isolate;}.cls-2{fill:url(#Áåçûìÿííûé_ãðàäèåíò_1054);}.cls-3{fill:#ba7c81;}.cls-19,.cls-3,.cls-4,.cls-47,.cls-52{opacity:0.48;}.cls-12,.cls-14,.cls-16,.cls-19,.cls-21,.cls-25,.cls-27,.cls-3,.cls-30,.cls-32,.cls-37,.cls-4,.cls-41,.cls-42,.cls-43,.cls-47,.cls-51,.cls-52,.cls-6,.cls-7,.cls-9{mix-blend-mode:multiply;}.cls-4{fill:url(#Áåçûìÿííûé_ãðàäèåíò_989);}.cls-5{fill:url(#Áåçûìÿííûé_ãðàäèåíò_1049);}.cls-6{fill:#9d3627;opacity:0.55;}.cls-25,.cls-27,.cls-30,.cls-32,.cls-37,.cls-42,.cls-43,.cls-7,.cls-9{opacity:0.35;}.cls-7{fill:url(#Áåçûìÿííûé_ãðàäèåíò_989-2);}.cls-16,.cls-8{opacity:0.5;}.cls-11,.cls-13,.cls-20,.cls-26,.cls-28,.cls-31,.cls-33,.cls-36,.cls-38,.cls-39,.cls-44,.cls-45,.cls-46,.cls-48,.cls-49,.cls-50,.cls-8{mix-blend-mode:screen;}.cls-8{fill:url(#Áåçûìÿííûé_ãðàäèåíò_953);}.cls-9{fill:#f57281;}.cls-10{fill:url(#Áåçûìÿííûé_ãðàäèåíò_1058);}.cls-11{fill:#633346;opacity:0.36;}.cls-12,.cls-14{opacity:0.64;}.cls-12{fill:url(#Áåçûìÿííûé_ãðàäèåíò_285);}.cls-13{fill:#b57290;opacity:0.15;}.cls-14{fill:url(#Áåçûìÿííûé_ãðàäèåíò_1065);}.cls-15{fill:url(#Áåçûìÿííûé_ãðàäèåíò_1045);}.cls-16,.cls-21{fill:#d71a76;}.cls-17{fill:#b40f58;}.cls-18{fill:url(#Áåçûìÿííûé_ãðàäèåíò_1054-2);}.cls-19{fill:url(#Áåçûìÿííûé_ãðàäèåíò_989-3);}.cls-20,.cls-45{fill:#ffd9e0;}.cls-20{opacity:0.21;}.cls-21{opacity:0.41;}.cls-22{fill:url(#Áåçûìÿííûé_ãðàäèåíò_1049-2);}.cls-23{opacity:0.54;}.cls-24{fill:#fc7775;}.cls-25{fill:url(#Áåçûìÿííûé_ãðàäèåíò_1003);}.cls-26,.cls-31,.cls-33,.cls-38{opacity:0.28;}.cls-26{fill:url(#Áåçûìÿííûé_ãðàäèåíò_953-2);}.cls-27{fill:url(#Áåçûìÿííûé_ãðàäèåíò_989-4);}.cls-28,.cls-44{fill:#ffcba3;}.cls-28,.cls-36,.cls-39{opacity:0.9;}.cls-29,.cls-46{opacity:0.32;}.cls-30{fill:url(#Áåçûìÿííûé_ãðàäèåíò_1003-2);}.cls-31{fill:url(#Áåçûìÿííûé_ãðàäèåíò_953-3);}.cls-32{fill:url(#Áåçûìÿííûé_ãðàäèåíò_1003-3);}.cls-33{fill:url(#Áåçûìÿííûé_ãðàäèåíò_953-4);}.cls-34{fill:url(#Áåçûìÿííûé_ãðàäèåíò_1049-3);}.cls-35{fill:url(#Áåçûìÿííûé_ãðàäèåíò_1049-4);}.cls-36{fill:url(#Áåçûìÿííûé_ãðàäèåíò_953-5);}.cls-37{fill:url(#Áåçûìÿííûé_ãðàäèåíò_1003-4);}.cls-38{fill:url(#Áåçûìÿííûé_ãðàäèåíò_953-6);}.cls-39{fill:url(#Áåçûìÿííûé_ãðàäèåíò_953-7);}.cls-40{fill:url(#Áåçûìÿííûé_ãðàäèåíò_1054-3);}.cls-41{fill:#9b0767;opacity:0.56;}.cls-42{fill:url(#Áåçûìÿííûé_ãðàäèåíò_989-5);}.cls-43{fill:url(#Áåçûìÿííûé_ãðàäèåíò_989-6);}.cls-44{opacity:0.3;}.cls-45,.cls-51{opacity:0.42;}.cls-46{fill:url(#Áåçûìÿííûé_ãðàäèåíò_1031);}.cls-47{fill:url(#Áåçûìÿííûé_ãðàäèåíò_989-7);}.cls-48{opacity:0.65;fill:url(#Áåçûìÿííûé_ãðàäèåíò_1031-2);}.cls-49,.cls-50{fill:#d7426d;}.cls-49{opacity:0.6;}.cls-50{opacity:0.91;}.cls-51{fill:url(#Áåçûìÿííûé_ãðàäèåíò_1042);}.cls-52{fill:#f99f9d;}</style><linearGradient id="Áåçûìÿííûé_ãðàäèåíò_1054" x1="294.32" y1="153.76" x2="349.5" y2="106.02" gradientUnits="userSpaceOnUse"><stop offset="0" stop-color="#f57c92"/><stop offset="0.27" stop-color="#f99eb5"/><stop offset="0.57" stop-color="#fcbed5"/><stop offset="0.83" stop-color="#fed2ea"/><stop offset="1" stop-color="#ffd9f1"/></linearGradient><linearGradient id="Áåçûìÿííûé_ãðàäèåíò_989" x1="307.41" y1="169.12" x2="334.59" y2="101.4" gradientUnits="userSpaceOnUse"><stop offset="0" stop-color="#f57281"/><stop offset="0.45" stop-color="#faa7a3"/><stop offset="0.81" stop-color="#fecbb9"/><stop offset="1" stop-color="#ffd9c2"/></linearGradient><linearGradient id="Áåçûìÿííûé_ãðàäèåíò_1049" x1="73.18" y1="136.9" x2="40.88" y2="136.9" gradientUnits="userSpaceOnUse"><stop offset="0" stop-color="#ffd8c2"/><stop offset="0.21" stop-color="#ffd0bc"/><stop offset="0.52" stop-color="#ffbcad"/><stop offset="0.89" stop-color="#ff9a93"/><stop offset="1" stop-color="#ff8f8b"/></linearGradient><linearGradient id="Áåçûìÿííûé_ãðàäèåíò_989-2" x1="23.31" y1="159.28" x2="33.33" y2="134.33" xlink:href="#Áåçûìÿííûé_ãðàäèåíò_989"/><linearGradient id="Áåçûìÿííûé_ãðàäèåíò_953" x1="1.19" y1="158.18" x2="16.91" y2="119.02" gradientUnits="userSpaceOnUse"><stop offset="0" stop-color="#ff8f8b"/><stop offset="0.11" stop-color="#ff9a8f"/><stop offset="0.48" stop-color="#ffbc9a"/><stop offset="0.79" stop-color="#ffd0a1"/><stop offset="1" stop-color="#ffd8a4"/></linearGradient><linearGradient id="Áåçûìÿííûé_ãðàäèåíò_1058" x1="175.61" y1="307.67" x2="175.61" y2="195.24" gradientUnits="userSpaceOnUse"><stop offset="0" stop-color="#7a294a"/><stop offset="1" stop-color="#4c1542"/></linearGradient><linearGradient id="Áåçûìÿííûé_ãðàäèåíò_285" x1="179.41" y1="307.67" x2="179.41" y2="195.24" gradientUnits="userSpaceOnUse"><stop offset="0" stop-color="#400040"/><stop offset="0.08" stop-color="#470947"/><stop offset="0.22" stop-color="#592159"/><stop offset="0.4" stop-color="#764876"/><stop offset="0.6" stop-color="#9f7e9f"/><stop offset="0.82" stop-color="#d2c3d2"/><stop offset="1" stop-color="#fff"/></linearGradient><linearGradient id="Áåçûìÿííûé_ãðàäèåíò_1065" x1="175.29" y1="315.89" x2="175.29" y2="201.98" gradientUnits="userSpaceOnUse"><stop offset="0" stop-color="#fff"/><stop offset="0.18" stop-color="#d2c3d2"/><stop offset="0.4" stop-color="#9f7e9f"/><stop offset="0.6" stop-color="#764876"/><stop offset="0.78" stop-color="#592159"/><stop offset="0.92" stop-color="#470947"/><stop offset="1" stop-color="#400040"/></linearGradient><linearGradient id="Áåçûìÿííûé_ãðàäèåíò_1045" x1="225.28" y1="80.7" x2="123.16" y2="278.68" gradientUnits="userSpaceOnUse"><stop offset="0.08" stop-color="#f55ebb"/><stop offset="0.25" stop-color="#eb46a3"/><stop offset="0.52" stop-color="#dc2682"/><stop offset="0.66" stop-color="#d71a76"/><stop offset="0.9" stop-color="#d71a76"/></linearGradient><linearGradient id="Áåçûìÿííûé_ãðàäèåíò_1054-2" x1="183.33" y1="190.18" x2="235.83" y2="35.85" xlink:href="#Áåçûìÿííûé_ãðàäèåíò_1054"/><linearGradient id="Áåçûìÿííûé_ãðàäèåíò_989-3" x1="188.65" y1="163.35" x2="235.85" y2="45.73" xlink:href="#Áåçûìÿííûé_ãðàäèåíò_989"/><linearGradient id="Áåçûìÿííûé_ãðàäèåíò_1049-2" x1="166.36" y1="132.25" x2="47.21" y2="132.25" xlink:href="#Áåçûìÿííûé_ãðàäèåíò_1049"/><linearGradient id="Áåçûìÿííûé_ãðàäèåíò_1003" x1="109.85" y1="165.67" x2="128.82" y2="165.67" gradientUnits="userSpaceOnUse"><stop offset="0" stop-color="#ffd9c2"/><stop offset="0.19" stop-color="#fecbb9"/><stop offset="0.55" stop-color="#faa7a3"/><stop offset="1" stop-color="#f57281"/></linearGradient><linearGradient id="Áåçûìÿííûé_ãðàäèåíò_953-2" x1="-7005.79" y1="2104.42" x2="-7011.9" y2="2123.67" gradientTransform="matrix(0.91, 0.75, -0.4, 0.61, 7348.5, 4153.3)" xlink:href="#Áåçûìÿííûé_ãðàäèåíò_953"/><linearGradient id="Áåçûìÿííûé_ãðàäèåíò_989-4" x1="67.19" y1="196.99" x2="91.17" y2="137.24" xlink:href="#Áåçûìÿííûé_ãðàäèåíò_989"/><linearGradient id="Áåçûìÿííûé_ãðàäèåíò_1003-2" x1="43.35" y1="12.15" x2="57.32" y2="12.15" gradientTransform="translate(68.33 50.19) rotate(16.88)" xlink:href="#Áåçûìÿííûé_ãðàäèåíò_1003"/><linearGradient id="Áåçûìÿííûé_ãðàäèåíò_953-3" x1="-7126.51" y1="2005.42" x2="-7131.11" y2="2019.91" gradientTransform="matrix(0.65, 0.99, -0.56, 0.47, 5893.99, 6158.8)" xlink:href="#Áåçûìÿííûé_ãðàäèåíò_953"/><linearGradient id="Áåçûìÿííûé_ãðàäèåíò_1003-3" x1="58.74" y1="19.92" x2="66.7" y2="19.92" gradientTransform="translate(68.33 50.19) rotate(16.88)" xlink:href="#Áåçûìÿííûé_ãðàäèåíò_1003"/><linearGradient id="Áåçûìÿííûé_ãðàäèåíò_953-4" x1="-7114.63" y1="2005.57" x2="-7117.25" y2="2013.81" gradientTransform="matrix(0.65, 0.99, -0.56, 0.47, 5893.99, 6158.8)" xlink:href="#Áåçûìÿííûé_ãðàäèåíò_953"/><linearGradient id="Áåçûìÿííûé_ãðàäèåíò_1049-3" x1="209.68" y1="175.12" x2="138.34" y2="175.12" xlink:href="#Áåçûìÿííûé_ãðàäèåíò_1049"/><linearGradient id="Áåçûìÿííûé_ãðàäèåíò_1049-4" x1="312.05" y1="168.66" x2="258.35" y2="168.66" xlink:href="#Áåçûìÿííûé_ãðàäèåíò_1049"/><linearGradient id="Áåçûìÿííûé_ãðàäèåíò_953-5" x1="268.02" y1="189.23" x2="283.58" y2="150.46" xlink:href="#Áåçûìÿííûé_ãðàäèåíò_953"/><linearGradient id="Áåçûìÿííûé_ãðàäèåíò_1003-4" x1="286" y1="275.18" x2="298.1" y2="275.18" gradientTransform="matrix(0.94, -0.34, 0.34, 0.94, -101.76, 8.55)" xlink:href="#Áåçûìÿííûé_ãðàäèåíò_1003"/><linearGradient id="Áåçûìÿííûé_ãðàäèåíò_953-6" x1="-6831.67" y1="2073.61" x2="-6835.65" y2="2086.15" gradientTransform="matrix(1.12, 0.39, -0.16, 0.71, 8227.72, 1375.06)" xlink:href="#Áåçûìÿííûé_ãðàäèåíò_953"/><linearGradient id="Áåçûìÿííûé_ãðàäèåíò_953-7" x1="150.54" y1="205.49" x2="173.56" y2="148.14" xlink:href="#Áåçûìÿííûé_ãðàäèåíò_953"/><linearGradient id="Áåçûìÿííûé_ãðàäèåíò_1054-3" x1="57.13" y1="98.14" x2="74.73" y2="34.87" xlink:href="#Áåçûìÿííûé_ãðàäèåíò_1054"/><linearGradient id="Áåçûìÿííûé_ãðàäèåíò_989-5" x1="149.65" y1="206.84" x2="163.41" y2="172.56" xlink:href="#Áåçûìÿííûé_ãðàäèåíò_989"/><linearGradient id="Áåçûìÿííûé_ãðàäèåíò_989-6" x1="269.51" y1="194.33" x2="280.81" y2="166.15" xlink:href="#Áåçûìÿííûé_ãðàäèåíò_989"/><linearGradient id="Áåçûìÿííûé_ãðàäèåíò_1031" x1="50.27" y1="191.42" x2="341.23" y2="191.42" gradientUnits="userSpaceOnUse"><stop offset="0"/><stop offset="0.04" stop-color="#07050a"/><stop offset="0.39" stop-color="#483561"/><stop offset="0.68" stop-color="#7757a1"/><stop offset="0.89" stop-color="#946dc8"/><stop offset="1" stop-color="#9f75d7"/></linearGradient><linearGradient id="Áåçûìÿííûé_ãðàäèåíò_989-7" x1="57.07" y1="98.12" x2="74.67" y2="34.85" xlink:href="#Áåçûìÿííûé_ãðàäèåíò_989"/><linearGradient id="Áåçûìÿííûé_ãðàäèåíò_1031-2" x1="50.27" y1="195" x2="341.23" y2="195" xlink:href="#Áåçûìÿííûé_ãðàäèåíò_1031"/><linearGradient id="Áåçûìÿííûé_ãðàäèåíò_1042" x1="204.21" y1="326.66" x2="204.21" y2="235.67" gradientUnits="userSpaceOnUse"><stop offset="0" stop-color="#fff"/><stop offset="0.26" stop-color="#e0b2d0"/><stop offset="0.52" stop-color="#c369a3"/><stop offset="0.74" stop-color="#ad3483"/><stop offset="0.91" stop-color="#a0136f"/><stop offset="1" stop-color="#9b0767"/></linearGradient></defs><g class="cls-1"><g id="Layer_2" data-name="Layer 2"><g id="Ñëîé_1" data-name="Ñëîé 1"><path class="cls-2" d="M301.47,96.82s10.78,1.67,15.57-5,1.91-2.71-2.16-2.91-3.11-5,3.59-9.06,10.18,2.27,3.68,10.29c-4.83,6,1.11,18.68,11.64,26.82s20.59,26.81,13.65,41.17-18.67,13.65-18.67,13.65L296,168.66Z"/><path class="cls-3" d="M305.33,96.8c12.13,7.68,34.57,25.56,7.64,54.15S305.33,96.8,305.33,96.8Z"/><path class="cls-3" d="M312.49,157.5c12.51,3.54,32.19,2.11,24.72,9.08s-17.78,4.51-17.78,4.51l-9.22-5Z"/><path class="cls-4" d="M344,163.62c3.75-5.06,5.42-13.49-6.79-10.66-13.2,3-25.89,1.35-19.84-3.86s12.83-21.1,9.69-29.54S311.21,101.92,313.15,98s7.45-6.38,9-9.61-.12-2.79-2.79-.52c.48,0-.05.72-2.32,3.9-4.79,6.7-15.57,5-15.57,5L296,168.66l32.8,3.09s7.7.47,14.32-7l.23-.28C343.55,164.2,343.78,163.91,344,163.62Z"/><path class="cls-5" d="M20.72,159.3S2.07,161.52.15,148.11,14.9,114.29,25,112.62s16.52,48.6,16.52,48.6Z"/><path class="cls-6" d="M16,157.87c9.07-12.45,27.75-8.5,29.23-7s4.62,13.2,3.18,13.65S16,157.87,16,157.87Z"/><path class="cls-7" d="M16,157.87c-4.31-2.94-10.68-9.25-8.62-12.76S17.78,132.67,23,126,43.27,142,43.27,142v21.6Z"/><path class="cls-8" d="M23.88,120.82c1.77-6.91-.64-8.12-3-6.86C11.73,118.23-1.51,136.48.15,148.11c0,.07,0,.14.05.21C2.31,152.05,22.25,127.19,23.88,120.82Z"/><path class="cls-9" d="M24.49,155c-21.08-10.33-7.43-40.92.47-42.41S47.48,156.55,42.86,160,24.49,155,24.49,155Z"/><path class="cls-10" d="M21,210.73s8.25,22.89,17.54,24a121,121,0,0,1,14.79,2.47s45.06,54.58,74.29,66.2,49.53-3.87,49.53-3.87,30.27,5.63,49.53-6,27.52-25.36,27.52-25.36a20.28,20.28,0,0,0,12.38-3.52c6.53-4.22,12.72-16.2,12.72-16.2s30.27-19,39.9-27.82,12-25.35,12-25.35L35.83,197S15,197.76,21,210.73Z"/><path class="cls-11" d="M61.05,218.83c31-3.42,41.5,8.46,44,12s-3.67,34-10.09,35.92-37.61-24.42-41.73-34.05S52.57,219.77,61.05,218.83Z"/><path class="cls-11" d="M112.41,269.31c-4.9-6-6.42-27.7-4.12-35.69s12.84-7.51,30.26,7,30,23.71,33.25,38.73-11.69,14.79-21.09,12.21S117.23,275.18,112.41,269.31Z"/><path class="cls-11" d="M146.12,232.92c-1.9,9,.23,11.27,4.36,14.32s27.29,19.72,30.27,22.54-1.61,17.14-3.9,22.07,19,7,41.5-1.92,33-22,44-40.11,20.31-27.52-1.66-26.67-66.45-2.37-79.74-.05S147.27,227.52,146.12,232.92Z"/><path class="cls-11" d="M48.44,221.65c-1.15-4.46-7.57-10.8-13-12S18.65,205,21,210.73c0,0,8.25,22.89,17.54,24C47.06,234.56,49.59,226.11,48.44,221.65Z"/><path class="cls-11" d="M274.08,239.49c-5.73,3.76-19.93,25.08-16.52,25.83,4.06.89,11.15-3,16.16-8a74,74,0,0,0,5.62-8.94C280.72,240.67,279.8,235.74,274.08,239.49Z"/><path class="cls-11" d="M328.67,205.16c2.57-6.44-45.44,10.64-48.76,17.08s-.57,12.79,3.1,20.28c0,0,1.9,2.34,8-1.85a6.39,6.39,0,0,1,1.42-.73c9.42-6.21,21.37-14.39,26.78-19.35,4-3.66,6.76-8.67,8.61-13.27.24-.67.48-1.32.73-1.91Z"/><path class="cls-11" d="M154.84,296.07c-11.93-3.52-45.64-23.71-52.29-25.59s-3.43,4.93,6.2,17.14a39,39,0,0,0,10.1,11.27,63,63,0,0,0,8.81,4.46c29.24,11.62,49.53-3.87,49.53-3.87A84.84,84.84,0,0,1,154.84,296.07Z"/><path class="cls-12" d="M38.58,234.68a121,121,0,0,1,14.79,2.47s45.06,54.58,74.29,66.2,49.53-3.87,49.53-3.87,30.27,5.63,49.53-6,27.52-25.36,27.52-25.36a20.28,20.28,0,0,0,12.38-3.52c6.53-4.22,12.72-16.2,12.72-16.2s30.27-19,39.9-27.82c6.91-6.31,10.09-16.57,11.34-21.89-4.43,1.88-12.8,5.61-10.8,6.12,2.68.7.92,5.83-4.49,12.61s-30.27,24-34.4,16.63-1-11.82.86-13.73-8.77,1.14-17.11,1.91-52.45-.85-36.71.62,24.76-.59,24.59,3.28-8.43,30.37-19.52,38.91S181.58,281,183.9,276.5s9.29-13.74,4.56-15.41S157.93,251.23,151,246s-4.69-13.51-4.69-13.51-4.17,6.82-7.18,6.2a26.22,26.22,0,0,1-6.4-2.53s16.28,13.23,17.13,13.94.89.76,4.32,3.74,11.52,19.36,0,20-43.08-5.31-45.4-21.16.25-22.1,3.37-23.6-1.83-.61-5.52-1.49-12.46-5.15-12.46-5.15a28.42,28.42,0,0,1,7.21,6.06c3.89,4.34,3.41,14.32,1,17.75s-12,2.12-24.25,0-23.65-13.82-25.2-19.89,5.45-7.06,5.45-7.06a32.84,32.84,0,0,1-5.88.1c-2.58-.26-14.36-11.88-8.42-4.49s-11,18.5-15.75,10.67C31.2,230.19,34.8,234.25,38.58,234.68Z"/><path class="cls-13" d="M54.79,230.05c-2.74-5.42,14.2,8.48,25.21,12.5s24.49,4.28,17.81,5.06-20.1-2-24.81-3.34S57.58,235.58,54.79,230.05Z"/><path class="cls-13" d="M109.72,255.12c-1.7-7,2,2.59,12,8.33s43.05,9.93,33,10.35-18.48-1.86-30.16-5.82S110.2,257.11,109.72,255.12Z"/><path class="cls-13" d="M159.44,250.34c8.27,3.58,26.6,9.86,30.83,10.57s2.78-6.76,1.9-10.57-1.8,7.25-4,7.59S150.65,246.53,159.44,250.34Z"/><path class="cls-13" d="M247.16,243.21c1.89-4.67-2.5,2.55-7.09,8.28s-11.59,12.28-19.17,15.72-1.63,3.75,4,1.19,9.19-3.09,15.29-12.06S247.16,243.21,247.16,243.21Z"/><path class="cls-14" d="M328.15,195.26,35.83,197S15,197.76,21,210.73c0,0,4.88,13.5,11.36,20.24,3.44,2.73.47-7.1,3.15-11S46,222.27,47.94,228s1.42,3.24,3.58-2.42,27.49-6.39,39.34-2.26,15,8.65,14.18,12.21-.07,3.37,4.81-4.87,23.25,6.12,28.7,10,2.58-5.84,11.38-10.33,26.93-4.12,32.5.72,10.11,25,10.71,31.25,5.3,9.21,5.38,14.3-14.34,24.07-7.14,24.19c6.18.09,17.34-1.33,22.18-2.08.78-.19,1.55-.4,2.32-.62,1.43-2.22-4.53-16.07-6.88-21.61-2.51-5.92,3.17-16.45,8.32-21.24s3.53-23.47,11.61-28,19.11,1.94,20.78,9.14,24.29,8.28,27.52-4.29,19.58-20.65,33.4-23.52,10.22,11.74,14.79,3.85a56.13,56.13,0,0,0,5.22-14Z"/><path class="cls-15" d="M29.92,228c-6.06-10.58-4.94-16.39-1.67-17.82s13.18,2.37,17,8,11,1.16,17.81,0,42.91,2.79,51,6,20.71-10.11,40.58-9.76,31.12,2.88,33.52,11.14,2.15,32.13,9.81,39.82,5.51,10.45,2.52,18.35-1.68,15.44-4.55,23-4,19.27,9.45,19.87,13.17-14.13,9.58-21.91-3.11-16.16-7.18-25-1.39-13.49,2-19,2.79-16.17,4.34-25,11.26-17.1,20.35-15.2,26.46,14.12,43.21.84,39.87-20.47,46.57-18.8,1.71,6.23,6.36,3.24,15.78-9.46,8.84-24.66S308.66,162.53,294.29,168s-223,4.31-251.38-9S-.18,166.6.18,193.18s17.36,39.14,24.66,39.26S29.92,228,29.92,228Z"/><path class="cls-16" d="M275.18,184.66c-5.67,9.06-17.32,8.5-29.27,5.19s-25-14.76-34.2-12.09S213,167.64,227,167.21s75.85-8.55,86.72-3.73,13.35,6.61,8.47,5.76-7.27-1.08-7.27-1.08l-2.8-2.49s-30.36-.76-34.85,0-8.76,12.09-8.76,12.09Z"/><path class="cls-17" d="M25.56,249.32c9.24-4.2,25.85,9.1,13.88,16.16S9.76,256.5,25.56,249.32Z"/><path class="cls-18" d="M103.6,79c-.54-12.9,10.06-12.57,23.35-11.13s-2.16-13.29,14.72-24.06,44-11.14,51.47-30.89S202.36-.38,203.8,9s12.92,14.37,16.87,20.11,1.08,7.54,2.88,13.65,19-1.44,26.21,15.44c0,0,28.37,9,39.86,13.65s14,24.06,14,24.06,20.87,9.69,18.35,32.32-17.59,32.68-34.83,37.7-27.37,10.78-39.9,8-24-4-37.46,3.51S103.6,79,103.6,79Z"/><path class="cls-19" d="M141.67,43.79C124.79,54.56,140.23,69.28,127,67.85S103.06,66.08,103.6,79c0,0,92.66,105.94,106.15,98.4s24.93-6.3,37.46-3.51,22.66-3,39.9-8c11.69-3.4,22.37-9.14,28.83-19.52-5.87-2.22-11.91-1.62-20,3-13.77,7.9-69.19,40.93-31.12,11.93s-21.91-53.59-51.41-53.23-46.27-12.93-42.53-29.52,30.37-11.78,35.15-33.33-11.3-36.41-7.41-43.9c-1.39,1.74-3.17,5.35-5.51,11.58C185.71,32.65,158.55,33,141.67,43.79Z"/><path class="cls-3" d="M245.49,62.12a2.73,2.73,0,0,0,.55-.18C246.71,61.61,246.43,61.76,245.49,62.12Z"/><path class="cls-3" d="M292.1,97.15c3.88-5.51,3-20.56,1.52-16.56-1.73,4.66-12.71,16.47-29.85,18.39-10.26.94-19.66.46-26.93-7-8-8.14-10.19-17.42-11.35-28.32l.16.07c7.65,2.62,16.93-.54,19.84-1.66-3.89,1-18.94-.6-20.91-8.86-.28-3.38-.58-6.88-1-10.55a19.29,19.29,0,0,1-.63-6.7c-.21,10.29-9.55,33.44,1,52.87s39,8.47,62.48,18,15.32,33.84,8.38,41.8a7.47,7.47,0,0,0-1.54,2.25l2.74-1.58c.83-.48,1.62-.88,2.41-1.28a43.43,43.43,0,0,0,11.95-18.83C314.94,113.57,307.86,99.41,292.1,97.15Z"/><path class="cls-3" d="M145.38,96.8c10.77-18.9-10.53-17.46-11.49-33.74s-.72,12,0,20.83c.27,3.35,2.72,18,6.11,35,5.47,5.78,11.19,11.73,16.93,17.54C147.65,121.33,140.54,105.3,145.38,96.8Z"/><path class="cls-3" d="M282.08,100.89c-28.8.91-48.55,1.55-57.85-21.49-3.51-8.69-3.7-21.6-2.58-34.31-2.21,11.8-5.83,28.87,2.26,43.79,10.53,19.43,39,8.47,62.48,18s15.32,33.84,8.38,41.8a7.47,7.47,0,0,0-1.54,2.25l2.74-1.58c.83-.48,1.62-.88,2.41-1.28C315.84,125,310.89,100,282.08,100.89Z"/><path class="cls-3" d="M133.89,83.89c.2,2.44,1.55,10.85,3.58,21.81a10.07,10.07,0,0,0,5.64-4.81c6.26-12.21-7-22.69-9.85-38.47C133.25,68.41,133.5,79,133.89,83.89Z"/><path class="cls-20" d="M142,45.09c5.5-2.12.36,5.88,10.95,4.44s6.68,6.47,3.16,17.78,3.24,18.09-11,9.2S133.05,48.54,142,45.09Z"/><path class="cls-20" d="M175.6,105.7c24.27,6.78,55.67,14.4,57.46,29.12s-6.38-3.47-34.29-5-32.88-7.88-36.55-18.11S166.66,103.19,175.6,105.7Z"/><path class="cls-3" d="M209.75,177.38c13.49-7.55,24.93-6.3,37.46-3.51a30.23,30.23,0,0,0,6.92.73,8.88,8.88,0,0,1,1-2.58c-5.21,2.26-5.25.95,6.15-8,11.34-17.41,3-44.25-23.71-48.95-27.69-4.87-56.81-4.67-65.39-24.26a18.92,18.92,0,0,1-1-2.77c-.06-.2-.16-.37-.21-.58a16.12,16.12,0,0,1,.9-11.68c.09-.19.19-.36.28-.54,7.42-14.86,34.37-25.29,32-53.41-1.77-5.09-3.91-9.47-5.12-13.1,1.43,3.65,1,7.64-.7,11.65-11.24,37.91-39.17,42.38-35.81,62.5,3.09,18.55,17.72,21.44,47.1,31.53,2.66.83,5.21,1.7,7.62,2.67l.1,0c34.6,12.44,33.16,38.39,27.78,48.58s-33.39.83-33.39.83l-6.9,10.4C206.93,177.8,208.63,178,209.75,177.38Z"/><path class="cls-21" d="M202.12,205.12c10.83,4.22,26.63-4.58,20.89-3.5s-9.4.53-17.09-4.32S141,184.13,123,193.59s-23,11.58.81,4.68,34.41-6.21,34.41-6.21l30.31,4Z"/><path class="cls-21" d="M47.94,183.91c-22.62-6.17-27.18-20.24-17.77-21.56s16.49.66,17,1.2S47.94,183.91,47.94,183.91Z"/><path class="cls-3" d="M261.26,164.07c11.34-17.41,3-44.25-23.71-48.95-27.69-4.87-56.81-4.67-65.39-24.26a18.92,18.92,0,0,1-1-2.77c-.06-.2-.16-.37-.21-.58a16.12,16.12,0,0,1,.9-11.68c.09-.19.19-.36.28-.54,7.42-14.86,34.37-25.29,32-53.41-1.77-5.09-3.91-9.47-5.12-13.1,5,12.79-12.63,29.86-28.1,37s-22.54,41.42,4.69,56.26,55.73,10.06,62.19,37.35c4.7,19.83-26.35,28-43.7,31,7.38,5.53,13,8.39,15.66,6.92,13.49-7.55,24.93-6.3,37.46-3.51a30.23,30.23,0,0,0,6.92.73,8.88,8.88,0,0,1,1-2.58C249.9,174.28,249.86,173,261.26,164.07Z"/><path class="cls-22" d="M37.17,149.72c5.41,18.93,1.16,30.53,11.53,34.12s20.79.18,26.18,11.4,27.29.81,37.7-7.09,49.32,1.8,53.93,4.67,9.16-68.23,3.47-82.6S134.85,68.21,94.27,65s-68.1,6.11-73.55,23S31.42,129.61,37.17,149.72Z"/><g class="cls-23"><path class="cls-24" d="M122.7,160.46c12.5,5.23,4.24,15.58-10.32,10S110.59,155.4,122.7,160.46Z"/><path class="cls-25" d="M112.38,170.46c14.56,5.58,22.82-4.77,10.32-10-.26-.1-.51-.21-.77-.3-2.69-1-5.32-1.12-6.88-.55-4.17,1.52-5.09,6-1.22,8.51,4.45,2.92.65,3.53-4,1.19A23.52,23.52,0,0,0,112.38,170.46Z"/><path class="cls-26" d="M122.7,160.46c4.55,1.9,6.34,4.5,6.08,6.75.65-3-1-6.35-5.8-8.47-6.4-2.82-13.21-.47-16,3.21C109.63,159.2,116.29,157.78,122.7,160.46Z"/></g><path class="cls-3" d="M47.94,183.91c-8.38-1.61-18.24-18.11-13.23-20s5.65-6.72-1.33-13-1.07-14-5.55-25.57,12.54-.39,16.85,15.16-.25,28,3.18,37.27,24.49,7.71,30.72,8.85,6.17,5.84,17.54,5.4,12.66-1.92,13.2-12.34,21.32-34,62.93-31.54l.38-18.41s18.42.95,23.12,14.4S227,170.33,238,169.24s13.17-7.8,13.89-15.81,6.69,1,5.12,7.35,6.27-.31,16-7.48,25.64-8,27.92-4.6-45.71,29.56-52.65,27.14,24,13.37,17.73,14-20.6-4.95-27.06-10.07-21.26-11.23-30.74,2-71.49,10.49-84.42,16.52.58-10.32-10.24-6.21-33,12.22-37.88,5.71C70.28,190.5,72.38,188.63,47.94,183.91Z"/><path class="cls-27" d="M112.76,131.23c-9.87.72-38-3.31-61.94-12.93-9.13-3.66-1.44,51.53,5.14,67.19,7.74,1.14,14.8,1.17,18.92,9.75,5.38,11.22,27.29.81,37.7-7.09,1.73-1.31,6.49-2.4,9.49-2.85C124.19,171.69,121.64,130.58,112.76,131.23Z"/><path class="cls-28" d="M105.65,129.26c44.75.35,68.73-10.78,62.31-23-8.83-15-36.57-38.33-73.69-41.29-39-3.1-65.89,5.43-72.76,21.08C16.6,99.49,61.13,128.9,105.65,129.26Z"/><g class="cls-29"><path class="cls-24" d="M115.81,75.61c8.35,4.22,1.59,5.52-8.17.75S107.73,71.52,115.81,75.61Z"/><path class="cls-30" d="M107.64,76.36c9.76,4.77,16.52,3.47,8.17-.75l-.51-.26a18.46,18.46,0,0,0-4.81-1.63c-3.08-.45-4.12.68-1.62,2.26,2.87,1.81.14,1.18-2.91-.5C106.44,75.75,107,76,107.64,76.36Z"/><path class="cls-31" d="M115.81,75.61c3,1.53,4.06,2.68,3.68,3.29.73-.74-.12-2.08-3.33-3.74-4.26-2.21-9.27-3-11.54-2.47C106.71,72.44,111.53,73.44,115.81,75.61Z"/></g><g class="cls-29"><path class="cls-24" d="M124.18,87c4.76,2.4.91,3.14-4.65.43S119.58,84.67,124.18,87Z"/><path class="cls-32" d="M119.53,87.43c5.56,2.71,9.41,2,4.65-.43l-.29-.15a11,11,0,0,0-2.74-.93c-1.75-.25-2.34.39-.92,1.29,1.64,1,.08.67-1.66-.29C118.85,87.08,119.16,87.25,119.53,87.43Z"/><path class="cls-33" d="M124.18,87c1.73.87,2.32,1.53,2.1,1.88.41-.43-.07-1.19-1.89-2.14a11.91,11.91,0,0,0-6.58-1.4A13.89,13.89,0,0,1,124.18,87Z"/></g><path class="cls-34" d="M123.83,198.27s-4.54-21.78,0-32.79,61.77-20.83,75.9-20.35,14.6,5.74,13.16,24.89-10.77,35.1-10.77,35.1-23-11.39-41.18-11.63S123.83,198.27,123.83,198.27Z"/><path class="cls-35" d="M246.17,178s13.48,14.37,22.3,11.5,19.6-26.58,46.41-21.31c0,0,.24-14.84-9.57-19.39s-30.88,3.75-42.62,12.92S244.5,173.9,246.17,178Z"/><path class="cls-36" d="M291.06,166.12c15-5.72,19.82-12.7,16.36-16.08a11.7,11.7,0,0,0-2.11-1.27,11.41,11.41,0,0,0-1.55-.56l-.45-.15c-10.45-2.78-29.63,5-40.62,13.63-5.87,4.6-10.43,7.65-13.3,10.07C242.1,179.29,273.82,172.71,291.06,166.12Z"/><g class="cls-29"><path class="cls-24" d="M268.78,164.19c8-1.43,4,3-5.26,4.79S261.05,165.58,268.78,164.19Z"/><path class="cls-37" d="M263.52,169c9.23-1.8,13.23-6.22,5.26-4.79l-.49.1a16,16,0,0,0-4.18,1.37c-2.36,1.3-2.49,2.62.06,2.41,2.93-.24.71.75-2.27,1.17C262.37,169.18,262.91,169.1,263.52,169Z"/><path class="cls-38" d="M268.78,164.19c2.9-.52,4.21-.26,4.26.36.11-.89-1.17-1.38-4.25-.85-4.1.7-8,2.79-9.27,4.32C260.83,166.75,264.69,164.93,268.78,164.19Z"/></g><path class="cls-39" d="M185.48,170.05c14.53-1.88,28.34-7.2,27.39-17.17-1.24-5.49-4.8-7.47-13.14-7.75-13.4-.46-65.5,8.34-74.75,18.64C120.51,169.15,171.16,171.9,185.48,170.05Z"/><path class="cls-40" d="M90.1,64.68S83.82,80.19,53.69,81.25,24,71.92,28.55,62.58,50.46,53.26,57,46.78c5.07-5,5.27-14.13,5.27-19.87s7.42,4.31,11,8.86S89.12,44.39,98,47s11.45,13.15,5.6,19.14C103.58,66.16,96.43,65,90.1,64.68Z"/><path class="cls-41" d="M341.23,186.44c-4.52-10.13-38.34,16.32-56.75,24.33-20.35,8.86-41.42-7.18-57.7,3.36s-40.46-9.1-54.15-6.6-56.46,9.95-84.95,7.07-39.5-26.81-56.22-18.43-34,4.31-29.6-18.36A60.48,60.48,0,0,0,.18,193.18c.36,26.57,17.36,39.14,24.66,39.26S29.92,228,29.92,228c-6.06-10.58-4.94-16.39-1.67-17.82s13.18,2.37,17,8,11,1.16,17.81,0,42.91,2.79,51,6,20.71-10.11,40.58-9.76,31.12,2.88,33.52,11.14,2.15,32.13,9.81,39.82,5.51,10.45,2.51,18.35-1.67,15.44-4.54,23-4,19.27,9.45,19.87,13.17-14.13,9.58-21.91-3.11-16.16-7.18-25-1.39-13.49,2-19,2.79-16.17,4.34-25,11.26-17.1,20.35-15.2,26.46,14.12,43.21.84,39.87-20.47,46.57-18.8,1.71,6.23,6.36,3.24c3.2-2.06,9.45-5.75,10.8-12.79l0-.12A16.44,16.44,0,0,0,341.23,186.44Z"/><path class="cls-42" d="M183,172c-5.21.72-34.59-2-46-1.36-3.85.22-5.11,14.16-3.67,25.57a144.54,144.54,0,0,1,27.61-2.71c6.86.09,14.4,1.76,21.13,3.81C183.77,189.07,187,171.44,183,172Z"/><path class="cls-43" d="M293.87,165c-4,1.91-24.24,8.26-33.69,10.13-3.19.63-1,7.75,3.64,14.47a9.23,9.23,0,0,0,4.65-.12c6.63-2.16,14.35-16.06,29.15-20.62C296.92,166.28,295.77,164.09,293.87,165Z"/><path class="cls-28" d="M77.05,125.35c39.76,9.82,68.82.76,78.93-2.88s-15.75.5-37.65.86S50.31,118.75,77.05,125.35Z"/><path class="cls-28" d="M158.24,170.19c-11-.7,24.37-1.79,37.3-6.64s18.56-8.68,16.46-5.68S206.05,173.25,158.24,170.19Z"/><path class="cls-28" d="M281.22,169.4c-10.91,3.06,3-3.71,12.71-10.26S307.31,147,308.43,152,299.18,164.36,281.22,169.4Z"/><path class="cls-44" d="M133.26,129.41c37.51-10.81,37.79-10.83,37.65,1.13s-16.67,21.55-29.84,17.84S125.71,131.58,133.26,129.41Z"/><path class="cls-44" d="M194.09,170.46c11.31-2.2,15.22-9.23,16.65-1.8s-4.55,28.56-12.45,29.11S189.66,171.32,194.09,170.46Z"/><path class="cls-44" d="M308.52,154.39c-2,3.4-6.69,7.84-9.2,8.68s6.33,3.25,10.89,3.05S311.55,149.31,308.52,154.39Z"/><path class="cls-45" d="M208.25,39.48C204.76,60.8,195,66,188.49,84.06s19.5,23,38.29,20.06,5.67,1-2.55-10.64-7.1-32.37-5.33-48.39-9.28-26.83-10.65-18.54S209.79,30,208.25,39.48Z"/><path class="cls-46" d="M314,194.15l.77-.44,1.64-.94.86-.49,1.52-.85.88-.49q.75-.42,1.5-.81c.26-.15.54-.29.8-.43.61-.33,1.22-.64,1.81-.94l.41-.21c.72-.36,1.43-.71,2.12-1l.57-.26,1.47-.66.71-.3,1.24-.5.7-.26c.4-.15.79-.28,1.17-.4l.64-.21c.41-.12.81-.22,1.2-.32l.46-.11a12.59,12.59,0,0,1,1.51-.26l.27,0a10.11,10.11,0,0,1,1.08,0c.15,0,.28,0,.43,0a4.61,4.61,0,0,1,.77.11l.41.11a4.35,4.35,0,0,1,.63.25l.35.18a3.75,3.75,0,0,1,.53.44c.08.08.17.15.24.23a3.71,3.71,0,0,1,.58.91,25.59,25.59,0,0,0-1.81-5.35,19.49,19.49,0,0,0-1.42-2.58c-.17-.27-.37-.51-.55-.77-.38-.53-.76-1.06-1.19-1.56-.05-.06-.1-.14-.15-.21l-.38-.38c-.05-.06-.12-.11-.18-.17a30.33,30.33,0,0,0-13.4-7.92c3.22,1.74,3.14,2.29,0,1.74-4.87-.84-7.27-1.08-7.27-1.08l-2.78-2.47-.67,0-3.06-.06A41.11,41.11,0,0,0,294.29,168a39.46,39.46,0,0,1-8.23,1.31c-5.2,3.58-10.64,7.09-15.92,10.12l5,5.19c-5.67,9.06-17.32,8.5-29.27,5.19-5.41-1.5-11-4.66-16.45-7.43a60.92,60.92,0,0,0-10.56-3c-6.13-1.33-1,12.35,5.33,15.84s27.51,1.4,18.53,6.21-19.18,14-48.55.16-43.74-5.85-47.69-2.93c-2.85,2.1,11.48,2.5,24.75,5.52-11.62,2-25.09,6.26-34.75,7.51-13.59,1.76-63.41-4.2-86.25-13.52,9.51,5.36,20.32,14.67,37.41,16.39,28.49,2.88,71.26-4.57,84.95-7.07,3.56-.65,7.84.2,12.5,1.63,3.63,1.11,7.49,2.56,11.44,3.94l.62.21,1.43.49c.67.23,1.35.45,2,.66l.89.28,1.56.46.88.25c.75.21,1.5.4,2.24.58l.63.14c.61.14,1.21.27,1.82.38l.72.14c.77.13,1.54.25,2.3.34l.45,0c.65.07,1.29.11,1.94.14l.64,0c.77,0,1.52,0,2.27,0l.3,0c.67-.05,1.33-.13,2-.23l.58-.1a20,20,0,0,0,2.19-.53l.15,0a17.72,17.72,0,0,0,2-.76l.54-.25a19.73,19.73,0,0,0,2.06-1.13c16.28-10.54,37.35,5.5,57.7-3.36,1.22-.53,2.52-1.15,3.87-1.83l.1-.05q2-1,4.17-2.21c5.92-3.26,12.53-7.34,18.95-11.12Zm-36.39.57c11.33-1.18,56.72-17.3,37.42-3.36-10.11,6.94-24.37,13.6-32.91,13.76-7.48.14-16.6-.88-25.6-.73C248,201.44,267.17,195.81,277.57,194.72Z"/><path class="cls-45" d="M233.6,64.34c12.57-.43,12.17-3.16,16.16-4S285,71,291.78,75.72s-24,22.5-37,22.3-24.06-17.73-25.68-24.4S227,64.57,233.6,64.34Z"/><path class="cls-45" d="M226.06,50.79c.87,5.82,21,6.34,18.85,2.47s-11.49-6.24-15.8-6.42S225.52,47.2,226.06,50.79Z"/><path class="cls-45" d="M241.14,110c18.94,3.34,32.5-8.8,47.95,0s12.93,24.24,8.53,32.14-5.3-7.18-20.39-14.9S235,109,241.14,110Z"/><path class="cls-45" d="M296,96c4.67,0,9.84.28,15.75,6.46s10,15.32,8.19,22-6.7-9.1-9.22-15.21-9.43-12-14-12.09S293.32,96,296,96Z"/><path class="cls-47" d="M53.69,81.25C83.82,80.19,90.1,64.68,90.1,64.68c6.33.36,13.48,1.48,13.48,1.48a10.79,10.79,0,0,0,2.21-3.31C107,53,93.91,47.5,89.84,55.74S78.35,73.59,66.5,68.57s-29.81-16-38.73-4.26C24.06,73.15,25.41,82.25,53.69,81.25Z"/><path class="cls-48" d="M326.61,179.75c-2.16,8-30.77,25.12-44.53,25.37s-33-3.44-46.92,3.5-35.43-1.92-47.68-4.88-36.11,6.08-51,8c-13.59,1.76-63.41-4.2-86.25-13.52,9.51,5.36,20.32,14.67,37.41,16.39,28.49,2.88,71.26-4.57,84.95-7.07s37.87,17.13,54.15,6.6,37.35,5.5,57.7-3.36c18.41-8,52.23-34.46,56.75-24.33a25.59,25.59,0,0,0-1.81-5.35,21.1,21.1,0,0,0-3.31-5.12l-.38-.38a24.22,24.22,0,0,0-2.67-2.49C330.66,171.9,328.25,173.69,326.61,179.75Z"/><path class="cls-49" d="M158.24,195c6.33-1.2,19,1.61,27.6,5.16S172.67,199,165,198.7,150.51,196.47,158.24,195Z"/><path class="cls-50" d="M297.05,170.16c8.08-3.22,19.69-1.28,25.1.51s-7.39,5.51-17.8,5.15S286.62,174.31,297.05,170.16Z"/><path class="cls-49" d="M220.32,179.17c8.57,1.51,19.39,10.42,24.06,11.61s-14,.72-20.15-2.27S216.52,178.5,220.32,179.17Z"/><path class="cls-3" d="M185.56,198.43c-7.78-3.46-17.21-7.33-24.24-9.16-14.29-3.73-25.93.67-37.49,9,0,0,18.92-5,37.11-4.78C169,193.59,178,195.9,185.56,198.43Z"/><path class="cls-3" d="M282.26,175.84c-3.59,6-6.46,6.74-18.79,4.77-11.29-1.81-12.21,1.35-4,7.49,3.1,1.49,6.28,2.26,9,1.37,7.13-2.32,15.53-18.22,32.62-21.48C293.86,168.15,285,171.22,282.26,175.84Z"/><path class="cls-51" d="M191.39,247.88c1.21,7.21,3.05,14.06,6.54,17.56,7.66,7.7,5.51,10.45,2.51,18.35s-1.67,15.44-4.54,23-4,19.27,9.45,19.87,13.17-14.13,9.58-21.91-3.11-16.16-7.18-25-1.39-13.49,2-19,2.79-16.17,4.34-25C210,251.92,195.76,269.25,191.39,247.88Z"/><path class="cls-45" d="M190.65,97.26c-4.68-5.64,9.39,2,22.22,2.37s15.64-.45,20.43,1.39-2.88,3.47-14.4,3.91S195.09,102.62,190.65,97.26Z"/><path class="cls-45" d="M254,110.26c-7.84.33,12.46,1,26.36,4.09s20.14,13.69,19.13,7.8-9.9-14.56-21.12-15.31S261.88,109.93,254,110.26Z"/><path class="cls-45" d="M271.87,93.26c-8,3.06,8.1-7.16,8.53-13.86s-9.87-13.68-1.12-9.74,16.18,6,12.78,9.74S280,90.12,271.87,93.26Z"/><path class="cls-45" d="M314.88,120.09c-4.28-10.79-.58-19.23,3.34-8S319.74,132.34,314.88,120.09Z"/><path class="cls-3" d="M103.58,66.16s-7.4-5.26-10.51-5.73-2.79,10.47-17,15.29S53.76,77.38,42.86,78.9s-12.21-4-16.91.5S40.16,94,55.84,88.88s26.94-16,35.32-19A88.23,88.23,0,0,1,103.58,66.16Z"/><path class="cls-45" d="M46.63,57.55c13.69-1.39,25.73-9,19.87-23.94s5.26,3.83,12.92,7.54,22.39,6,17.84,8.14-14.48,7.19-18.79,12S60.09,64.85,53.53,62,40.88,58.14,46.63,57.55Z"/><path class="cls-45" d="M79.29,60.41c-3.85,2.14-4.32-7.65,0-10.4s23.35-3.57,16.83-.17S83,58.36,79.29,60.41Z"/><path class="cls-52" d="M29.27,63.78C33.73,58.33,45.79,71.39,48.78,76s-17.24.86-19.51-2.4S26.82,66.77,29.27,63.78Z"/><path class="cls-20" d="M326.79,114.35c6.66,11.75,5.39,21.55,4.49,28S345,146.47,346.75,151s4.94-13.86-5.11-24.86S323.46,108.47,326.79,114.35Z"/><path class="cls-45" d="M336.13,125.15c2.6,7.65,12.83,18.72,11.53,12.58s-6.51-12.85-12.26-18.16S335.19,122.4,336.13,125.15Z"/><path class="cls-13" d="M287,235.58c-5.31.48,6.64-9.54,16.55-14s19.76-12.74,11.7-4.12S292.71,235.07,287,235.58Z"/></g></g></g></svg>