<svg xmlns="http://www.w3.org/2000/svg" xmlns:xlink="http://www.w3.org/1999/xlink" viewBox="0 0 80.03 81.51"><defs><style>.cls-1{isolation:isolate;}.cls-2{fill:#6d181d;}.cls-3{fill:#bf2a92;}.cls-12,.cls-23,.cls-3,.cls-6{opacity:0.6;}.cls-12,.cls-14,.cls-15,.cls-16,.cls-18,.cls-23,.cls-3,.cls-6,.cls-7{mix-blend-mode:multiply;}.cls-4{fill:url(#Áåçûìÿííûé_ãðàäèåíò_109);}.cls-5{fill:url(#Áåçûìÿííûé_ãðàäèåíò_109-2);}.cls-15,.cls-16,.cls-18,.cls-6,.cls-7,.cls-8{fill:#bf6d92;}.cls-14,.cls-7{opacity:0.7;}.cls-9{fill:#ffa7a1;}.cls-18,.cls-9{opacity:0.5;}.cls-17,.cls-9{mix-blend-mode:soft-light;}.cls-10{fill:#ff7a5f;}.cls-11{fill:#a8292f;}.cls-12{fill:#cb89a7;}.cls-13{fill:#e0574f;}.cls-15{opacity:0.8;}.cls-16{opacity:0.3;}.cls-17{fill:#ffa9a4;}.cls-19{fill:#ff8189;}.cls-20{fill:#785f7b;}.cls-21{fill:#fe8350;}.cls-22{fill:#d1483b;}.cls-23{fill:#980f79;}.cls-24{fill:url(#Áåçûìÿííûé_ãðàäèåíò_109-3);}.cls-25{fill:#f86f48;}.cls-26{fill:#ff9a6f;}.cls-27{fill:#92182f;}.cls-28{fill:#b0322f;}.cls-29{fill:#ff7a60;}</style><linearGradient id="Áåçûìÿííûé_ãðàäèåíò_109" x1="33.87" y1="6.26" x2="33.87" y2="6.25" gradientUnits="userSpaceOnUse"><stop offset="0" stop-color="#c04a48"/><stop offset="1" stop-color="#d9612c"/></linearGradient><linearGradient id="Áåçûìÿííûé_ãðàäèåíò_109-2" x1="40.25" y1="81.44" x2="40.25" y2="6.41" xlink:href="#Áåçûìÿííûé_ãðàäèåíò_109"/><linearGradient id="Áåçûìÿííûé_ãðàäèåíò_109-3" x1="61.1" y1="28.26" x2="61.1" y2="0" xlink:href="#Áåçûìÿííûé_ãðàäèåíò_109"/></defs><g class="cls-1"><g id="Layer_2" data-name="Layer 2"><g id="layer1"><path class="cls-2" d="M6.15,28.52c-.28-2.29-2.82-8.85-1.64-10.9s9.5-2.45,10-2.32S10.24,20.71,6.15,28.52Z"/><path class="cls-3" d="M4.58,22.1c1.27,5,9.05-6.81,9.05-6.81h.84L6.15,28.52S4.84,23.49,4.58,22.1Z"/><path class="cls-4" d="M33.88,6.26h0Z"/><path class="cls-5" d="M78.1,43.57A37.84,37.84,0,0,1,76.32,55.1h0s0,0,0,0h0c-.2.57-.39,1.15-.62,1.7l-.2.56a37.08,37.08,0,0,1-6.26,10.51c-.12.16-.27.31-.41.47a37.22,37.22,0,0,1-8.67,7.39h0a36.84,36.84,0,0,1-11.63,4.72l-.18,0-.13,0a.18.18,0,0,1-.09,0l-.2,0h0c-.24.06-.49.1-.73.15h0a35.84,35.84,0,0,1-4.16.54h-.09c-.88.06-1.76.1-2.66.1A37.74,37.74,0,0,1,13.13,70c-.22-.22-.44-.46-.66-.69l-.81-.91c-.69-.79-1.34-1.61-2-2.46h0a.48.48,0,0,1-.08-.12l0,0a.19.19,0,0,1-.06-.07h0A52.31,52.31,0,0,0,8.3,60c-.55-1.52-3-1.84-3-1.84v0A37.62,37.62,0,0,1,2.39,43.57c0-.83,0-1.66.08-2.47s.11-1.37.2-2.05a35.4,35.4,0,0,1,1.2-5.93.83.83,0,0,1,0-.15c.31-1.08.67-2.14,1.07-3.19,0-.09.08-.19.12-.28.25-.63.52-1.26.82-1.87a.54.54,0,0,1,0-.11,37.41,37.41,0,0,1,6.7-9.87l0,0c.27-.3.57-.6.87-.89l.26-.26a37.13,37.13,0,0,1,14-8.63c.83-.31,1.59-.55,2.26-.75l.5-.13h.08c.67-.18,1.36-.33,2-.46h0a1.2,1.2,0,0,1,.32-.06.1.1,0,0,0-.05.06,3.07,3.07,0,0,0-.26.4c-.08.17-.17.35-.25.56a16.79,16.79,0,0,0-.92,4,76,76,0,0,0-.25,12.36c.12,1.71-.86,6.16-1.46,9.49a24.62,24.62,0,0,0-.41,3.14,2.29,2.29,0,0,0,0,.64,1.89,1.89,0,0,0,.26.56,11.7,11.7,0,0,0,3.27,2.89l.34-.13,0-.18a1,1,0,0,1,0,.18l1-.36.16,0a65.61,65.61,0,0,1,10-2.91c.82-.1,1.94-.16,3.22-.18,4.52-.07,11.16.27,14.47-.06a8.58,8.58,0,0,0,3.52-1.52,46.56,46.56,0,0,0,6.9-6c.38-.38.71-.74,1-1,.54-.57.85-.94.85-.94h0a36.94,36.94,0,0,1,2.37,6.41c.06.26.13.53.2.8.28,1.17.52,2.36.69,3.56,0,.24.07.48.09.71a1.12,1.12,0,0,1,0,.24,1.86,1.86,0,0,1,0,.33c.1.86.17,1.72.19,2.6a0,0,0,0,1,0,.05C78.09,42.54,78.1,43.06,78.1,43.57Z"/><path class="cls-6" d="M46,76.64a9.47,9.47,0,0,0,1.16,4.16h0L43,81.34h-.09c0-.13.33-1.35.74-2.87.32-1.16.7-2.51,1.09-3.65.9-2.72,2.81-7,.36-11.59a39.2,39.2,0,0,0-2.29-3.54c-3.22-4.48-8.4-10.91-11.13-14.88l-.08-.11c-.52-.77-.93-1.43-1.24-2-.1-.2-.21-.41-.31-.62L30,42a4.46,4.46,0,0,0-3.09-2.49h0c-2.61-.71-6.29,0-9.45,2.5a12.59,12.59,0,0,0-2.88,3.77.56.56,0,0,0-.07.14h0c-3.33,6.22-5.42,16.64-4.78,20a.48.48,0,0,1-.08-.12l0,0-.05-.07h0A52.31,52.31,0,0,0,8.3,60c-.55-1.52-3-1.84-3-1.84l.21-.36c0-.06.07-.13.12-.2v0l.57-1,.12-.18c.89-1.56,2.31-4,3.8-6.53v0c1.31-2.25,2.7-4.6,3.85-6.56L14.8,42a5.47,5.47,0,0,1,.72-1,.1.1,0,0,1,0-.05.49.49,0,0,1,.13-.12,0,0,0,0,0,0,0c3.88-3.92,12.58-1.75,13.79-4.45a2.29,2.29,0,0,0,0,.64,1.89,1.89,0,0,0,.26.56,11.7,11.7,0,0,0,3.27,2.89l.34-.13c0,.1,0,.21,0,.31a.43.43,0,0,0,0,.05c-.09.68-.18,1.35-.26,2a6.36,6.36,0,0,0,.84,3.41l.45.84c3.18,5.64,11.16,13.61,14.47,18h0A16,16,0,0,1,50,66.63a4.6,4.6,0,0,1,.45,1.25C51.23,71.77,46.09,74.91,46,76.64Z"/><path class="cls-6" d="M74.44,27.32h0Z"/><path class="cls-7" d="M12.7,17.62A47.4,47.4,0,0,0,6.18,36.55C4.84,47.7,8,49.23,7.76,51.83s-2.44,6.36-2.44,6.36S-5.4,38.26,12.7,17.62Z"/><path class="cls-7" d="M9.69,65.92s1-5.11,2.19-5.36S23.65,73.79,42.94,74.88c0,0,1.64,4.8,0,6.46C42.91,81.34,23.27,84.27,9.69,65.92Z"/><path class="cls-7" d="M47.91,80.66a7.79,7.79,0,0,1,0-4.93c.86-2.93,11.69-6.35,20.88-20.84s3.87-27.6,5.43-27,6,16.93,1.18,29.75S58.7,78,47.91,80.66Z"/><path class="cls-8" d="M33.88,6.25h0Z"/><path class="cls-8" d="M74.44,27.32h0Z"/><path class="cls-6" d="M33.4,40.34l0-.18a1,1,0,0,1,0,.18c0,.11,0,.21,0,.31a.43.43,0,0,0,0,.05c-.5,2.36-1.94-.93-5.09-1.43-3.46-.55-4-.36-4-.36a20.35,20.35,0,0,1,5-.73c.16,0,.34-.23.56-.6a11.7,11.7,0,0,0,3.27,2.89Z"/><path class="cls-6" d="M43.66,60s3.17,5,3.17,8.73a19,19,0,0,1-1.59,7.1s5-2.18,4.44-7.34S43.66,60,43.66,60Z"/><path class="cls-6" d="M8.3,60s.57-6.13,1.64-8.86a77.23,77.23,0,0,1,5.71-10.3,95.77,95.77,0,0,0-5.5,9c-2.82,5.56-4.61,7.38-4.52,7.86S7.85,58.36,8.3,60Z"/><path class="cls-9" d="M32.53,7.43a16.79,16.79,0,0,0-.92,4,76,76,0,0,0-.25,12.36c.12,1.71-.86,6.16-1.46,9.49a13.24,13.24,0,0,1-4.43,3.28c-5.1,2.09-7.9.79-9.77,2.35S13,47.19,9.69,47c-2.66-.13-4.4-12-.55-21.7a22.57,22.57,0,0,1,3.56-6.19C19.79,10.53,30,8,32.53,7.43Z"/><path class="cls-9" d="M74.34,40.75a7.21,7.21,0,0,1-.21.92,17.66,17.66,0,0,1-.74,2.39c-.06.2-.14.39-.22.59s0,.13-.08.2c-.23.53-.47,1.07-.74,1.6A31.74,31.74,0,0,1,62.44,58.2l-.45.29c-.32.21-.64.4-1,.58h0l-.27.16c-4.42,2.39-9.38,2.73-14.05-1.06a43,43,0,0,1-9.76-10.35,14,14,0,0,1-2.41-7.9,65.61,65.61,0,0,1,10-2.91c.82-.1,1.94-.16,3.22-.18,4.52-.07,11.16.27,14.47-.06a8.58,8.58,0,0,0,3.52-1.52,46.56,46.56,0,0,0,6.9-6,11,11,0,0,1,1,1.94s0,0,0,0a13.88,13.88,0,0,1,.71,2.23,0,0,0,0,0,0,0,1.55,1.55,0,0,0,0,.21l.09.52A18,18,0,0,1,74.34,40.75Z"/><path class="cls-9" d="M24.86,40C19.3,41.69,12.12,51.32,13.58,58.19s21.61,15.5,26.67,15.24,2.17-9.12,0-13.9S27.87,39,24.86,40Z"/><path class="cls-10" d="M14.47,45.91s4.21-7.69,13.25-6c0,0-1.46-1.48-6.5-.25S14.47,45.91,14.47,45.91Z"/><path class="cls-10" d="M34,5.75a1.58,1.58,0,0,0-.93.66.1.1,0,0,0-.05.06,3.07,3.07,0,0,0-.26.4,6.37,6.37,0,0,0-2.09.07l-.06,0h0A19.82,19.82,0,0,1,34,5.75Z"/><path class="cls-10" d="M33.87,6.25h0Z"/><path class="cls-10" d="M29.54,40.83s3.09.59,3.33,1.11S32.08,43.1,34,46.26,31.11,45.48,29.54,40.83Z"/><path class="cls-11" d="M19,67.39c-1-3.21,7.12-.07,6.9,2.92S20.62,72.4,19,67.39Z"/><path class="cls-11" d="M64.42,59.53c-1.48-5.27-9.34,5.58-8.37,8.34S66.73,67.71,64.42,59.53Z"/><path class="cls-12" d="M57.51,63.23c-1.5,3,4.47,2.65,6.24,0s-.07-4.7-1.19-4.83S58.64,61,57.51,63.23Z"/><path class="cls-12" d="M19.66,66.36a3.4,3.4,0,0,0,3.19,4.09c3,.14,1.93-2.94,0-3.63S19.86,66,19.66,66.36Z"/><path class="cls-13" d="M56,66.86s1.68,1.74,6.69,0c0,0-1.91,2.48-4.52,2.5A2,2,0,0,1,56,66.86Z"/><path class="cls-13" d="M20.43,70a4.83,4.83,0,0,0,3.65,1.32c2.21-.18,1.66-2,1.66-2s1.06,2.22-1,2.82S20.43,70,20.43,70Z"/><path class="cls-2" d="M42.46,43.19c.46-2.6,7.15-2.07,9.58-1.21s3.15,6,0,8.44S41.73,47.29,42.46,43.19Z"/><path class="cls-2" d="M71.7,36.55c.73-4,6.07-3.55,7.89-1.11s-2.38,8.73-4.9,10S71.7,36.55,71.7,36.55Z"/><path class="cls-2" d="M14.47,30.82c-3.09-3.52,1.58-13.88,6-15.52s5.7,4.4,5.58,10.39S15.78,32.31,14.47,30.82Z"/><path class="cls-2" d="M34.09,67.39c-3.64-3.49,1.49-5,5.11-4.76s1.57,5.78,0,6.26A6.21,6.21,0,0,1,34.09,67.39Z"/><path class="cls-2" d="M60.14,75.79s9.32.75,13.56-4.75,2.59-16.15,2.59-16.15S70.18,67.48,60.14,75.79Z"/><path class="cls-3" d="M42.8,45.6a18.44,18.44,0,0,0,6.12,3.87c3.12,1,5.16-2.69,5.16-2.69a29.44,29.44,0,0,1-1.34,5c-.54.88-6-.09-6.73-.79A48.12,48.12,0,0,1,42.8,45.6Z"/><path class="cls-3" d="M13.67,29.25c1.59,2,9-.51,10.82-1.93s1-7.94,1-7.94,1.53,5.12,1,8.16-6,6.11-9.69,6.45S13.67,29.25,13.67,29.25Z"/><path class="cls-3" d="M32.94,64.67c.44,1.92,3,4.09,5.31,3.44a4.78,4.78,0,0,0,3-3.12s.19,3.73-1.67,4.64S31.47,70.85,32.94,64.67Z"/><path class="cls-3" d="M72.21,41.28C73,44.17,80,37,80,37a7.41,7.41,0,0,1-1.65,4.51c-1.78,2.36-3.11,6.64-4.84,7.07S72.21,41.28,72.21,41.28Z"/><path class="cls-3" d="M76.6,60.56c-2.16-2.28-6.14,13.2-6.14,13.2a18.39,18.39,0,0,1-10.32,2s12.21-10.62,16.15-20.9C76.29,54.89,76.65,59.31,76.6,60.56Z"/><path class="cls-9" d="M34.68,63.23c-2.32,1.58,2.91,5,3.87,4.88s3.33-2.69,2.09-4.07S34.68,63.23,34.68,63.23Z"/><path class="cls-9" d="M44.28,42c-2.62,2.2-.52,5.87,4.16,6s4.94-3.87,4.48-5.39S45.67,40.82,44.28,42Z"/><path class="cls-9" d="M72.17,35.44c-.85,1-.09,5.22,1.53,5.39S80.35,37.2,80,36.32,74.58,32.58,72.17,35.44Z"/><path class="cls-9" d="M13.65,25.69c-.44,4.53,9.84,2.63,11.53.58s-.07-10.6-3.47-10.36S13.83,23.82,13.65,25.69Z"/><path class="cls-9" d="M5.32,17.62c-2,3.18,1.34,4.6,3.41,3.33a11.18,11.18,0,0,0,4-5C12.91,15,6.56,15.68,5.32,17.62Z"/><path class="cls-2" d="M4.2,43.19c1.13-1.31,1.24-7.74,1.43-9.44s-4.31-.64-5.4,1.68S4.2,43.19,4.2,43.19Z"/><path class="cls-9" d="M.23,35.43C-.93,38,2.6,39.33,3.78,39.19s1.4-4.91,1.54-5.68S1.37,32.9.23,35.43Z"/><g class="cls-14"><path class="cls-8" d="M27.29,54.28c-2.57.27-1.59,4,.93,2.77S28.22,54.17,27.29,54.28Z"/><path class="cls-8" d="M27.05,49.64c-.94.45-.2,2.49,1.17,1.4S28.32,49,27.05,49.64Z"/><path class="cls-8" d="M64.12,50.8c-.26-.92,1.21-2.15,2.06-1.35S64.42,51.89,64.12,50.8Z"/></g><path class="cls-15" d="M42.8,59.7s6.64,5.08,7.61,7.16-3.72,3.79-3.72,3.79a13.36,13.36,0,0,0-.89-6.39A19.84,19.84,0,0,0,42.8,59.7Z"/><path class="cls-16" d="M47.71,36.84a20.69,20.69,0,0,0-4.51,5.27l-.75,1.11h0c-2,3-3.74,5.63-5.32,4.72l-.19-.12c-2.36-1.52-3-4.78-2.57-7.85l.16,0a65.61,65.61,0,0,1,10-2.91C45.31,36.92,46.43,36.86,47.71,36.84Z"/><path class="cls-17" d="M32.77,6.47a.81.81,0,0,1,.27,0,3.07,3.07,0,0,0-.26.4c-.08.17-.17.35-.25.56a16.79,16.79,0,0,0-.92,4A29,29,0,0,0,21.09,14c-6.1,3-10.6,9.26-11.95,11.31-.29.42-.43.67-.43.67C13.24,13.42,24.84,8.64,30.13,7.09l.5-.13h0l.08,0c1-.28,1.75-.42,2-.46Z"/><path class="cls-16" d="M73.6,31.23s0,0,0,0a5.58,5.58,0,0,1-3.94,3.91,9.5,9.5,0,0,1-4,.11,46.56,46.56,0,0,0,6.9-6c.38-.38.71-.74,1-1a2.72,2.72,0,0,1,.11.25A4.83,4.83,0,0,1,73.6,31.23Z"/><path class="cls-18" d="M47.91,80.66s-.54-4.48.2-5.36a58.68,58.68,0,0,1,8.48-5.64c.49,0,3.16,1.06,5.65-.77S64,62.08,65.63,60s6.5-6.37,8.5-6.31-1.3,8.88-9.36,17A37.5,37.5,0,0,1,47.91,80.66Z"/><path class="cls-18" d="M27.55,72c-1.77-.51-3,1.58-6.46.82s.86,5.83,11.75,7.81,9.82-4,10-4.87S34.67,74,27.55,72Z"/><path class="cls-19" d="M51.5,42.55c-.62-.19-.4,2.71.34,3.05S54,43.32,51.5,42.55Z"/><path class="cls-19" d="M21.46,28c0-1.57,2.25-3.27,3.25-3.17s.55,1.61-.45,2.65S21.45,28.39,21.46,28Z"/><path class="cls-19" d="M76.1,40.46c-1.54.26.54-2.57,1.49-2.41S78.2,40.09,76.1,40.46Z"/><path class="cls-20" d="M33.4,40.34l0-.18a1,1,0,0,1,0,.18Z"/><path class="cls-20" d="M33.87,6.25h0Z"/><path class="cls-20" d="M74.44,27.32h0Z"/><path class="cls-21" d="M34,5.75c3.32-.58,7,12.54,7.21,16.15s-.07,11.88.55,12.92,13.85,1.53,15.49,1,13.47-8.45,17.17-8.54c0,0-5.53,8.15-9.67,10.2s-21.59,1.35-24.32,1.79-5.5,2.25-7.17,1.93S28.74,38.83,28.22,37s2.16-12.16,2.41-16.74-.15-8.74,0-10.4S34,5.75,34,5.75Z"/><path class="cls-22" d="M34.94,7.43C32.59,7,31.3,11,31.36,12.13S31.13,25.06,31.05,27s-1,7.31-.42,10,2.18,3.45,4.31,2.9A69.11,69.11,0,0,1,51.3,38.05c6.57.22,13.4-1.14,15-2s4.53-5.83,4.55-6.71-9.32,5.58-10.76,6.13-10.6,1.32-13.23,1.18-5-.32-5.64-1.52-.89-11.74-1-15.24S35.63,7.55,34.94,7.43Z"/><path class="cls-23" d="M28.64,37.9c1.1,1.45,9-.27,10.49-1.06a11.92,11.92,0,0,0,2.65-2s-.33-.35-.39-3.32.26-8.73-.42-9.6-9.33,1.9-10.55,3.19S28.08,37.17,28.64,37.9Z"/><path class="cls-23" d="M58,35.54c-.68.38,5.81,1.18,6.48,1.49s9.11-8,9.13-8.77S65.25,31.46,58,35.54Z"/><path class="cls-24" d="M79.09,14.59h0a3.89,3.89,0,0,0-1.24,2.7l-.21.33c-1.6.05-3.21.25-3.91,1.69a15.28,15.28,0,0,1-1.44,2.26l-.09.11c-.31.4-.64.82-1,1.25l-.11.13a23.44,23.44,0,0,1-2.39,2.39c-1.66,1.86-3.59,3.13-6.05,2.72A4.58,4.58,0,0,1,61,27.85a28.2,28.2,0,0,0-7.56-1.39c-1.65-.15-3.31-.23-4.79-.29h-.12l-1.79-.06-1.3-.05H45.1a1.64,1.64,0,0,0-.33.26A1.89,1.89,0,0,1,45,26h-.19c-1-.05-1.6-.12-1.65-.25A6.59,6.59,0,0,1,44,23.66c.05-.11.1-.22.16-.33.17-.31.34-.65.53-1a1.14,1.14,0,0,1,0-.32c.23-2,2.62-5.27,4.25-8.07,0,0,0,0,0,0A18.12,18.12,0,0,0,50.42,10a15.56,15.56,0,0,0-1-3.42h0C48.12,4.39,46.24,2,46.57.27L46.49.1h.13C47.48,0,48.34,0,49.21,0A37.57,37.57,0,0,1,61.09,1.9l.07,0A38,38,0,0,1,73.93,9.17a36.39,36.39,0,0,1,4.57,4.72l.1.1,0,0C78.78,14.21,78.94,14.39,79.09,14.59Z"/><path class="cls-6" d="M46.47.1a.2.2,0,0,1,0-.07l0,.07Z"/><path class="cls-6" d="M49.39,6.6C48.12,4.39,46.24,2,46.57.27,47,1.15,48.4,4.05,49.39,6.6Z"/><path class="cls-6" d="M49,13.88A18.12,18.12,0,0,0,50.42,10C50.52,10.94,49.87,12.33,49,13.88Z"/><path class="cls-6" d="M60,27.17a7.38,7.38,0,0,0,2.65,1A4.58,4.58,0,0,1,61,27.85a28.2,28.2,0,0,0-7.56-1.39,24.93,24.93,0,0,0-5.18-1.2,3.86,3.86,0,0,0-2.82.8H45.1a1.64,1.64,0,0,0-.33.26A1.89,1.89,0,0,1,45,26h-.19c-1-.05-1.6-.12-1.65-.25A6.59,6.59,0,0,1,44,23.66c.05-.11.1-.22.16-.33.17-.31.34-.65.53-1,0,.64.6,1,1.48,1.26.35.1.75.18,1.2.26h0C50.41,24.35,55.41,24.5,60,27.17Z"/><path class="cls-6" d="M79.08,14.6a3.61,3.61,0,0,0-1,2.57l-.28.34c-1.6,0-3.35.37-4,1.81a15.28,15.28,0,0,1-1.44,2.26l-.09.11c-.32.39-.67.81-1,1.25l-.11.13a23.44,23.44,0,0,1-2.39,2.39,28.17,28.17,0,0,0,2.46-3.29,0,0,0,0,1,0,0,0,0,0,0,1,0,0s0,0,0,0h0l0,0a.73.73,0,0,0,.11-.15A41.69,41.69,0,0,1,74,18.14a10.12,10.12,0,0,1,4.63-3.43A3.35,3.35,0,0,1,79.08,14.6Z"/><path class="cls-6" d="M71.16,22.13h0a0,0,0,0,0,0,0S71.15,22.14,71.16,22.13Z"/><path class="cls-6" d="M78.63,14.7h0a4.87,4.87,0,0,0-1,2.81c-1.6,0-3.21.36-3.91,1.8a12.34,12.34,0,0,0-2.42,2.62.73.73,0,0,1-.11.15l0,0a21.46,21.46,0,0,1,3.72-5.19A7.77,7.77,0,0,1,78.63,14.7Z"/><path class="cls-6" d="M51.86,25.4c-.46-.11-4-1-5.71-.34a2.3,2.3,0,0,0-.43.25A2.71,2.71,0,0,0,45,26h-.19c-1-.05-1.6-.12-1.65-.25A6.59,6.59,0,0,1,44,23.66c1.81-.23,4.76.64,6.49,1.24Z"/><path class="cls-9" d="M48.17.72c-.7,1.43,2.77,5.87,2.77,9.31s-5.53,9.4-5.1,11.57,11.4,3.1,16.26,4.52,9.35-8.89,13.47-11.56S62.63-.75,48.17.72Z"/><path class="cls-9" d="M48.51,26.15l.11,0h-.11l-1.79-.06A2.85,2.85,0,0,1,48.51,26.15Z"/><path class="cls-10" d="M48.51,26.15s0,0,0,0l-1.79-.06-1.3-.05H45.1a4.6,4.6,0,0,1,3.14-.79A2,2,0,0,1,48.51,26.15Z"/><path class="cls-2" d="M73.92,9.18S66.39,3.76,61.09,1.9a3.68,3.68,0,0,1,1.4-1h0C63.84.25,66.19-.24,70.05.72a5.82,5.82,0,0,1,3.74,2.39.16.16,0,0,1,0,.06C75.43,5.75,73.92,9.18,73.92,9.18Z"/><path class="cls-3" d="M73.92,9.18S66.39,3.76,61.09,1.9a3.68,3.68,0,0,1,1.4-1c-1.3,1,7.74,4.11,10.32,4.83,2.33.66,1.26-2,1-2.54C75.43,5.75,73.92,9.18,73.92,9.18Z"/><g class="cls-14"><path class="cls-8" d="M61,20.23c-1.58-2.05,1.83-3.55,3.36-2.68S62.4,22.05,61,20.23Z"/><path class="cls-8" d="M56.16,10.19c0-1.42,1.91-1.56,2-.4S56.16,11.61,56.16,10.19Z"/></g><path class="cls-15" d="M52.06,25.22c-.15,0-.76-.19-1.56-.32a8.48,8.48,0,0,0-4.35.16,2.3,2.3,0,0,0-.43.25,4.4,4.4,0,0,0-.94.72c-1-.05-1.6-.12-1.65-.25A6.59,6.59,0,0,1,44,23.66c.05-.11.1-.22.16-.33a9.62,9.62,0,0,1,1.91.23l.1,0,1.2.26h0A35.07,35.07,0,0,1,52.06,25.22Z"/><path class="cls-16" d="M47.19,20.73c.37-2,4.6-8.11,5.87-9.08s11.44,2,13.18,6.79-3.53,7.82-9.54,5.9S46.92,22.2,47.19,20.73Z"/><path class="cls-17" d="M48.17.72c.12,1.51,1.27,3.67,2,4s8.44-.58,14.18,1.45,12.55,8.79,13,8.43A3.57,3.57,0,0,1,78.63,14,51.21,51.21,0,0,0,65.55,4.33,35.75,35.75,0,0,0,48.17.72Z"/><path class="cls-25" d="M79.08,14.6c1.72-.23-7,12-7.92,12.59s-7.1,1.41-8.53,1.57S43.78,26.19,43.45,26s2.73-2.14,4.51-1.86S61.34,28.18,63.4,28a10.59,10.59,0,0,0,6.14-3.31c1.64-1.74,4.61-6.33,6.09-7.74A15.44,15.44,0,0,1,79.08,14.6Z"/><path class="cls-23" d="M70.49,27.44s-5.94.65-7.09.55S51,24.16,48.52,24.28s-5.12,1.14-5.09,1.42,17.27,3.21,18.84,3.06S70.49,27.44,70.49,27.44Z"/><path class="cls-25" d="M40,8.85c-.16-.81,3-3.55,3.49-3.47s1.65,2.8,1.06,3.47-2.84.93-3.38,1S40,8.85,40,8.85Z"/><path class="cls-25" d="M45.5,32.48c-1.41,2.17.94,4.1,2.21,4.36s5-2.7,5.19-3.5S48,30.13,47.53,30.07,45.93,31.81,45.5,32.48Z"/><path class="cls-26" d="M45.7,32.16c-.57,1.15,2.54,2.66,3.28,2.72a7.22,7.22,0,0,0,3.34-1.78c.15-.38-3.53-3.06-4.61-2.66A5.49,5.49,0,0,0,45.7,32.16Z"/><path class="cls-26" d="M43.53,5.38c-.43,0-2.06,1.92-1.63,2.24A7,7,0,0,0,44.74,8C45,8,44,5.44,43.53,5.38Z"/><path class="cls-6" d="M41.21,9.87c-.77.09.44-1.59.89-1.8s2.49.16,2.49.47S43.78,9.56,41.21,9.87Z"/><path class="cls-25" d="M56.75,33.73c-.81-.16-2.12-4.14-1.87-4.55s3.23-.45,3.62.35-.24,3-.36,3.51S56.75,33.73,56.75,33.73Z"/><path class="cls-26" d="M54.88,29.18c-.21.38,1,2.64,1.45,2.37a7.26,7.26,0,0,0,1.48-2.47C57.81,28.84,55.14,28.73,54.88,29.18Z"/><path class="cls-6" d="M58.14,33c-.22.75-1.3-1-1.32-1.51s1.1-2.24,1.39-2.12S58.84,30.55,58.14,33Z"/><path class="cls-6" d="M45.09,34.2c.08-1,1.06-.78,1.36-.56s2.2,1.45,2.29,1.58-.69,1.72-1,1.62A3.91,3.91,0,0,1,45.09,34.2Z"/><path class="cls-26" d="M35.11,31.27c-.31-1.22,1.08-.65,1.4-.26S35.48,32.72,35.11,31.27Z"/><path class="cls-27" d="M28.22,37s-2.74,1.89-2.68,1.89a40.66,40.66,0,0,0,4.63.64,9.07,9.07,0,0,0,3.23-1.1Z"/><path class="cls-27" d="M33,41.43a5.22,5.22,0,0,1,1.47-1.09,24,24,0,0,0-3.71,0c-.44.19,2.28,3.15,2.28,3.15Z"/><path class="cls-28" d="M63.15,38.05c-1.37,1.47,1.93,3.12,2.61,2.78s1-4.68,1-4.68A17.18,17.18,0,0,0,63.15,38.05Z"/><path class="cls-26" d="M66.78,36.38a7.41,7.41,0,0,1,1.59-2.92A28.07,28.07,0,0,1,71,31.31s-2.94,4.14-3.26,4.55A1.74,1.74,0,0,1,66.78,36.38Z"/><path class="cls-26" d="M61.94,38.29c0,.07.66.67.88.63A11.17,11.17,0,0,0,64.09,37S61.85,37.26,61.94,38.29Z"/><path class="cls-26" d="M57.81,38.75s-2.53-.23-4-.24-5.09-.2-8.1-.29a15.63,15.63,0,0,0-5.63,1s4.06.23,6.44.07S57.81,38.75,57.81,38.75Z"/><path class="cls-29" d="M28.22,36.84a42.74,42.74,0,0,1,.45-4.53c.25-1,2.1,4.31,2.57,5.55S28.22,36.84,28.22,36.84Z"/><path class="cls-26" d="M30.76,39.56c-.77.25,0,.49.76.6A4,4,0,0,0,33,40S32.49,39,30.76,39.56Z"/><path class="cls-28" d="M46.57.27s2,8.38,2,9.76a42,42,0,0,1-.95,6s3.53-4.87,3.25-6.41S46.57.27,46.57.27Z"/><path class="cls-23" d="M48.62,10c.44.73,2.25-.61,2.25-.61S48.75,5.17,48,4,48.62,10,48.62,10Z"/></g></g></g></svg>