<svg xmlns="http://www.w3.org/2000/svg" xmlns:xlink="http://www.w3.org/1999/xlink" viewBox="0 0 79.1 68.03"><defs><style>.cls-1{isolation:isolate;}.cls-2{fill:url(#Áåçûìÿííûé_ãðàäèåíò_164);}.cls-3,.cls-9{fill:#e33292;}.cls-3{opacity:0.57;}.cls-11,.cls-14,.cls-22,.cls-3,.cls-7,.cls-9{mix-blend-mode:multiply;}.cls-4{fill:#ff75c7;}.cls-10,.cls-4,.cls-6{mix-blend-mode:soft-light;}.cls-5{fill:url(#Áåçûìÿííûé_ãðàäèåíò_150);}.cls-6{fill:#ffd8ff;}.cls-11,.cls-7{fill:#e50092;}.cls-22,.cls-7{opacity:0.8;}.cls-10,.cls-12,.cls-8{fill:#ffb3c7;}.cls-9{opacity:0.5;}.cls-12{mix-blend-mode:overlay;}.cls-13{fill:url(#Áåçûìÿííûé_ãðàäèåíò_161);}.cls-14{fill:#d41892;opacity:0.4;}.cls-15{fill:#ff8b9a;}.cls-16{fill:#ff7095;}.cls-17{fill:url(#Áåçûìÿííûé_ãðàäèåíò_119);}.cls-18{fill:url(#Áåçûìÿííûé_ãðàäèåíò_164-2);}.cls-19{fill:url(#Áåçûìÿííûé_ãðàäèåíò_164-3);}.cls-20{fill:#fff;}.cls-21{fill:url(#Áåçûìÿííûé_ãðàäèåíò_8);}.cls-22{fill:#bf2a92;}.cls-23{fill:url(#Áåçûìÿííûé_ãðàäèåíò_164-4);}.cls-24{fill:#ac0036;}.cls-25{fill:#ff243b;}</style><linearGradient id="Áåçûìÿííûé_ãðàäèåíò_164" x1="39.44" y1="67.83" x2="39.44" y2="6.17" gradientUnits="userSpaceOnUse"><stop offset="0" stop-color="#ff3d57"/><stop offset="1" stop-color="#e0001d"/></linearGradient><linearGradient id="Áåçûìÿííûé_ãðàäèåíò_150" x1="39.55" y1="52.45" x2="39.55" y2="23.92" gradientUnits="userSpaceOnUse"><stop offset="0" stop-color="#ff3c46"/><stop offset="1" stop-color="#e0001d"/></linearGradient><linearGradient id="Áåçûìÿííûé_ãðàäèåíò_161" x1="57.82" y1="38.55" x2="57.82" y2="33.12" gradientUnits="userSpaceOnUse"><stop offset="0" stop-color="#ff4831"/><stop offset="1" stop-color="#ca0000"/></linearGradient><linearGradient id="Áåçûìÿííûé_ãðàäèåíò_119" x1="31.38" y1="39.17" x2="31.38" y2="4.04" gradientUnits="userSpaceOnUse"><stop offset="0" stop-color="#ff0901"/><stop offset="1" stop-color="#9c002e"/></linearGradient><linearGradient id="Áåçûìÿííûé_ãðàäèåíò_164-2" x1="72.34" y1="12.44" x2="72.34" y2="0.21" xlink:href="#Áåçûìÿííûé_ãðàäèåíò_164"/><linearGradient id="Áåçûìÿííûé_ãðàäèåíò_164-3" x1="-22.35" y1="164.54" x2="-22.35" y2="154.84" gradientTransform="matrix(0.86, -0.51, 0.51, 0.86, -56.74, -139.23)" xlink:href="#Áåçûìÿííûé_ãðàäèåíò_164"/><linearGradient id="Áåçûìÿííûé_ãðàäèåíò_8" x1="43.6" y1="47.01" x2="34.62" y2="30.13" gradientUnits="userSpaceOnUse"><stop offset="0" stop-color="#9c002e"/><stop offset="1" stop-color="#ff0901"/></linearGradient><linearGradient id="Áåçûìÿííûé_ãðàäèåíò_164-4" x1="53.88" y1="27.62" x2="53.88" y2="0.35" xlink:href="#Áåçûìÿííûé_ãðàäèåíò_164"/></defs><g class="cls-1"><g id="Layer_2" data-name="Layer 2"><g id="layer1"><path class="cls-2" d="M73.66,33.12A34.68,34.68,0,0,1,73,39.69a0,0,0,0,1,0,0v0c0,.13-.1.53-.25,1.16a32.83,32.83,0,0,1-2,6.06.84.84,0,0,1-.06.14,33.38,33.38,0,0,1-2.6,4.82,0,0,0,0,1,0,0l-.06.09a29.72,29.72,0,0,1-2.56,3.46l-.41.48a34.82,34.82,0,0,1-6.74,6q-.35.24-.69.45h0c-.53.33-1,.63-1.57.92s-1.07.59-1.62.86-1.12.55-1.67.8l-.66.29a34.65,34.65,0,0,1-13.19,2.59h-.78c-.73,0-1.46-.06-2.18-.13l-.59,0-.55-.06a34.64,34.64,0,0,1-14.52-5.16l-.1-.07-.3-.19s0,0,0,0A34.79,34.79,0,0,1,8.61,49.93l-.28-.48a5.9,5.9,0,0,1-.32-.6H8c-.19-.38-.37-.76-.55-1.14h0l-.18-.4c-.1-.23-.22-.46-.32-.69s-.29-.7-.42-1.06a33.41,33.41,0,0,1-1.29-4.12,71.75,71.75,0,0,0,13.16.83h.1c1.18,0,2.33,0,3.45-.11A80.06,80.06,0,0,0,40.29,39c1-.3,1.94-.59,2.75-.87a41.18,41.18,0,0,0,4-1.56l1.07-3.13,0-.15h0s4.53-3.85,9.77-8.87c3.79-3.64,4.35-9.65,3.81-14.09q0-.48-.12-.93c-.11-.65-.24-1.26-.37-1.81h0c-.14-.53-.29-1-.44-1.4A34.51,34.51,0,0,1,72.13,23a30.92,30.92,0,0,1,1,3.85h0a2.21,2.21,0,0,1,0,.25h0s0,0,0,0c.07.36.13.72.17,1.09h0c.14.92.24,1.85.29,2.8a.13.13,0,0,1,0,.06l0,.5Q73.66,32.34,73.66,33.12Z"/><path class="cls-3" d="M64.59,26.81a15.17,15.17,0,0,1-3.91,4.65l-.31.25a24.8,24.8,0,0,1-2.27,1.62l-.18.11c-.72.46-1.49.9-2.29,1.32l-.48.25a50.49,50.49,0,0,1-6.39,2.71h0a75.43,75.43,0,0,1-7.69,2.22,88.86,88.86,0,0,1-19.12,2.37c-1.22,0-2.4,0-3.53-.06h.09c1.18,0,2.33,0,3.45-.11A80.06,80.06,0,0,0,40.29,39c1-.3,1.94-.59,2.75-.87a41.18,41.18,0,0,0,4-1.56l1.07-3.13,0-.15h0s4.53-3.85,9.77-8.87c3.79-3.64,4.35-9.65,3.81-14.09C65.91,14.64,67.91,20.29,64.59,26.81Z"/><path class="cls-4" d="M34.84,67.59c-1.66-1.42,13.87-3.72,25-11.68S73,39.69,73,39.69s-2.5,14.74-15.38,22.67S34.84,67.59,34.84,67.59Z"/><path class="cls-5" d="M75.22,45.05a33.79,33.79,0,0,1-4.49,2l-.13,0-.38.14c-.55.21-1.14.43-1.78.64a79.52,79.52,0,0,1-14.09,3.39,98.65,98.65,0,0,1-13.79,1.12c-.53,0-1.07,0-1.61,0A95.87,95.87,0,0,1,23.1,51.19,69.54,69.54,0,0,1,7,46.63l0,0h0a38.12,38.12,0,0,1-3.95-2c-1.51-.88-2.44-2.71-3-4.85a11.23,11.23,0,0,0,2.64,1.05c.71.2,1.57.4,2.59.58a71.75,71.75,0,0,0,13.16.83h.1c1.18,0,2.33,0,3.45-.11A80.06,80.06,0,0,0,40.29,39c1-.3,1.94-.59,2.75-.87a41.18,41.18,0,0,0,4-1.56l1.07-3.13,0-.15a114.6,114.6,0,0,0,12.5-1.83c2.12-.42,4-.87,5.71-1.3.53-.14,1-.27,1.5-.41,1.07-.29,2-.58,2.75-.83l0,0A6.42,6.42,0,0,0,73,27.83a1.44,1.44,0,0,0,.07-.59.49.49,0,0,0,0-.12c0-.1,0-.19,0-.3h0A18.67,18.67,0,0,0,72.46,24l0-.08.07,0c.56.2,4.36,1.64,5.69,3.34a0,0,0,0,1,0,0,2.26,2.26,0,0,1,.36.63.76.76,0,0,1,0,.11.43.43,0,0,0,0,.05C80.44,34.67,76.64,44.23,75.22,45.05Z"/><path class="cls-6" d="M78.6,28c-.09.34-1.55,1.34-4.12,2.6h0l-.87.42c-.84.39-1.79.8-2.83,1.22h0c-2,.82-4.36,1.65-7,2.43l0,0c-1.07.32-2.2.63-3.37.92l-.14,0-.11,0-.38.09c-1.07.26-2.18.51-3.33.74l-1.18.23c-2,.38-4.2.7-6.43.94h0c-1.84.2-3.75.34-5.7.41a41.18,41.18,0,0,0,4-1.56l1.07-3.13a95.56,95.56,0,0,0,12.24-1.73c2.24-.47,4.23-1,5.93-1.48l.14,0,1.45-.45A32.19,32.19,0,0,0,72,28.16l0,0a2.49,2.49,0,0,0,1-.67.88.88,0,0,0,.07-.23.59.59,0,0,0,0-.14s0,0,0,0a8,8,0,0,0-.63-3,.19.19,0,0,0,0-.09l0-.08.07,0c.56.27,4.41,2.1,5.69,3.34a0,0,0,0,1,0,0C78.5,27.59,78.65,27.84,78.6,28Z"/><path class="cls-7" d="M7,46.61s27.76,15.09,63.64.53l-.34.77s-10,8.72-31.77,9.3a53.61,53.61,0,0,1-31-9.52Z"/><path class="cls-8" d="M72.43,23.92s5.92,3,6.17,4.12-7.87,4.4-10.45,4.4,4.56-2.94,5.16-4.26S72.43,23.92,72.43,23.92Z"/><path class="cls-9" d="M55.73,51.41C42.64,51,53.67,39.58,60.91,36s15.94-5.41,17.06-5,.1,10.18-4.87,14.28S59.56,51.53,55.73,51.41Z"/><path class="cls-10" d="M8,48.84s14.87,18.91,32.33,17a46.21,46.21,0,0,0,27.8-13.91S56.68,68.16,36.9,67.72,8,48.84,8,48.84Z"/><path class="cls-11" d="M73.13,27.07h0l0,0a3.27,3.27,0,0,1-1,1l0,0a9.08,9.08,0,0,1-1.35.74l0,0a21.81,21.81,0,0,1-4.2,1.28l-.14,0,.09-.07c.58-.51,3.76-3.47,3.11-7.13A30.22,30.22,0,0,0,61.64,9.39c-.11-.65-.24-1.26-.37-1.81h0c-.14-.53-.29-1-.44-1.4A34.51,34.51,0,0,1,72.13,23a30.92,30.92,0,0,1,1,3.85h0A2.21,2.21,0,0,1,73.13,27.07Z"/><path class="cls-12" d="M19.41,61.7c-6.82-6.85,13.82-5.47,25.16,2.88C49.17,68,28.54,70.86,19.41,61.7Z"/><path class="cls-9" d="M17.48,49.52c-1.23.13-6.75-1.31-11-4a16.9,16.9,0,0,1-2.29-1.72,7.85,7.85,0,0,1-1.59-3c.71.2,1.57.4,2.59.58a71.75,71.75,0,0,0,13.16.83C18.68,45.69,18.33,49.43,17.48,49.52Z"/><path class="cls-12" d="M72.16,23l0,0c-2.48-5.29-7.61-11.64-10.86-15.38h0c-.14-.53-.29-1-.44-1.4a3.23,3.23,0,0,0-.15-.34C69.1,11.94,72,22.35,72.16,23Z"/><path class="cls-8" d="M23.08,51.92c-2.65-2,14.82-2,18.56,1.19A63.86,63.86,0,0,1,23.08,51.92Z"/><path class="cls-10" d="M38.94,49.39a10.48,10.48,0,0,1-5,1.46,17.53,17.53,0,0,1-4.62-.29c-.65-.13-1.31-.3-2-.51a8.3,8.3,0,0,1-5.36-7.74,1,1,0,0,1,0-.17A80.06,80.06,0,0,0,40.29,39a1.61,1.61,0,0,1,.4.21,1.35,1.35,0,0,1,.36.73C41.54,42.22,40.12,48.51,38.94,49.39Z"/><path class="cls-13" d="M56.65,33.2c-2.27.81-2.55,5.8,1.91,5.32S59.08,32.35,56.65,33.2Z"/><path class="cls-14" d="M56.65,33.2c-1.52.41-1.42,3.53.7,3.74s2.88-1.72,2.4-2.26S57.52,33,56.65,33.2Z"/><path class="cls-15" d="M55.4,37c-.14-.46,2.3,1.29,3.57,1.06,2.34-.44.87-2.49,1.12-2.42a1.75,1.75,0,0,1-.88,2.81A3.12,3.12,0,0,1,55.4,37Z"/><path class="cls-16" d="M0,39.79S4.81,29.6,7.88,26.93,14.1,11,18.49,6.63,44.33.21,47.06,0,58.84,4.44,60.82,6.17s2,11.16.84,14.08S50.82,31,49.92,31.77s-1.48,3.41-1.9,4.74-14.48,3.82-15.8,4.69-15,2.7-20.51,2.13S0,39.79,0,39.79Z"/><path class="cls-17" d="M57.18,7.81c.88.61,0,9.22-1.56,11.7S45.5,28.9,45.23,29.37s-3.82,4.89-4.08,5.48S20.71,38.3,14.45,39s-9-1-9.22-1.93S11,28.72,12.94,28s5.34-14.74,9.87-18.32S45.91.08,57.18,7.81Z"/><path class="cls-18" d="M67.15,9.61C66.93,8.06,70,.74,71.35.23s6.39,7.11,6.2,8.84-5.26,3.18-6.39,3.36S67.15,9.61,67.15,9.61Z"/><path class="cls-16" d="M67.15,9.61c.6,2.58,6.28-.74,7.32-1.95S73.87.81,71.94.32,66.64,7.47,67.15,9.61Z"/><path class="cls-19" d="M8.25,13.44a3.71,3.71,0,0,1-4.87-.58C1.77,11.28,1.6,7.11,2.09,6S7.9,7.23,8.58,8.8,8.25,13.44,8.25,13.44Z"/><path class="cls-16" d="M2.78,12c.72,1.07,3.43-2.1,4-3.3S3.57,4.85,2.36,5.79,2.38,11.44,2.78,12Z"/><path class="cls-10" d="M21.92,12.66c-3.2,5.09.18,7.25.89,10.34S38,22.69,47.39,20.09,55.49,11.6,55,8.29s-19-3.1-25.61-.88S21.92,12.66,21.92,12.66Z"/><path class="cls-10" d="M20.56,26.71C17.2,29,27.05,30,36.15,28.84s16.06-6.24,14.4-7.73S38.92,24.32,31.22,25,20.56,26.71,20.56,26.71Z"/><path class="cls-20" d="M6.84,36.76c-1.35-.07.67-2.32,1.38-2.46S8.64,36.86,6.84,36.76Z"/><path class="cls-20" d="M34.71,29.93c-.72-.68,6-3.23,7.62-2.51S38.87,33.8,34.71,29.93Z"/><path class="cls-20" d="M20.71,15.44c-2.11,2.87,3.5,2.69,4.92.45S22,13.62,20.71,15.44Z"/><path class="cls-21" d="M19,38.44c9-1.26,10.89,2.29,13.22,6.8,2.12,4.07,6.57,5.26,9.42,2.6s4.77-12.46,5.21-16.4,4.51-7.52,4.51-7.52-7.29,3.87-10.21,6.41S19,38.44,19,38.44Z"/><path class="cls-10" d="M24.34,36.23c-3.83,1.51,6.12,1.75,12,1.9s8.21-5.72,9-7.9-3.19.36-8.19,2.15S26.17,35.51,24.34,36.23Z"/><path class="cls-22" d="M14.17,39a52,52,0,0,1,10.36-2.24c6.27-.76,7.21,5.5,9.11,8.86s6.18,2.08,9-1.75,3.8-9.58,3.8-9.58S46,44.44,43.54,47.8s-7,3.09-9.95,1.46c-4-2.21-1.94-8-7.71-10.09C22.77,38,14.17,39,14.17,39Z"/><path class="cls-20" d="M31.65,38.19c-3-.79,6.59-2,7.79-1.6S37.15,39.64,31.65,38.19Z"/><path class="cls-23" d="M49.25.55c-1.13.56.19,7.08,0,8.56s-2.63,8-2.54,9.29,2.56,9.22,2.56,9.22,6.64-2.36,9.22-5.09S60.79,14.05,61,11,58.54,1,56.39.55,49.25.55,49.25.55Z"/><path class="cls-16" d="M56.39.55s-1.07,7-1.93,8.56-2.64,7.71-3.88,8.19-3.87,1.1-3.87,1.1,1.68-6.81,2.44-8.78-1-7.82.1-9.07S56.39.55,56.39.55Z"/><path class="cls-11" d="M57.33,23.55c-1.24.84-6-5.32-5.78-6.55s3.2-7.74,3.86-11.1S58.08,2,58.08,2s2.11,2,2.34,8.45S58.63,22.67,57.33,23.55Z"/><path class="cls-8" d="M47.09,18.4c-.31.49,4.94,0,5,0s.56-2.87,0-3S47.09,18.4,47.09,18.4Z"/><path class="cls-22" d="M70.76,12.39c-1.26-.2-2.09-.93-2-1.31s4.44-2.45,5.35-2.71,3.32,1.14,3.32,1.14S72.94,12.43,70.76,12.39Z"/><path class="cls-24" d="M10,39c-1.7.79-2.29,3.61-2.52,4S11.33,50.3,12,50.55s5.79-.3,6.39.34c0,0-6.22-2-7.07-3.48S8,42.82,8.58,42.05,13,39.13,13,39.13Z"/><path class="cls-24" d="M46.85,31.44s1.36,2,2.14,1.93S59.49,31.81,62.94,31s6.71,1.1,7.39,1.07-2.73,8.69-5.1,10.53S64,46.33,64,47a10.9,10.9,0,0,1-.91,2.54,14.6,14.6,0,0,0,.47-3.2c-.09-.9-.56-1.33-.52-2.37s2.23-1.61,3.36-3.76,1.33-6.14,1-6.8-2.94-1.8-4.93-1.85a94.15,94.15,0,0,0-13.58,2.21,1.9,1.9,0,0,1-2.23-.59Z"/><path class="cls-24" d="M14.74,25.06a25,25,0,0,0-2.66-3.68l-.77-.62L12.45,18s1.43,3,1.72,3.92A29.51,29.51,0,0,1,14.74,25.06Z"/><path class="cls-25" d="M68.13,31.36c-.58-.17-.12,4.33-.21,4.93s2.38-2.59,2.4-3.41S68.13,31.36,68.13,31.36Z"/><path class="cls-25" d="M7.48,43c-.21-.93,1.1-2.12,1.1-2.12a20.81,20.81,0,0,0-.33,2.77C8.27,44.36,7.59,43.42,7.48,43Z"/></g></g></g></svg>