<svg xmlns="http://www.w3.org/2000/svg" xmlns:xlink="http://www.w3.org/1999/xlink" viewBox="0 0 64.68 78.16"><defs><style>.cls-1{isolation:isolate;}.cls-2{fill:url(#Áåçûìÿííûé_ãðàäèåíò_464);}.cls-3{fill:url(#Áåçûìÿííûé_ãðàäèåíò_464-2);}.cls-4{fill:url(#Áåçûìÿííûé_ãðàäèåíò_464-3);}.cls-5{fill:url(#Áåçûìÿííûé_ãðàäèåíò_464-4);}.cls-6{fill:url(#Áåçûìÿííûé_ãðàäèåíò_435);}.cls-7{fill:url(#Áåçûìÿííûé_ãðàäèåíò_435-2);}.cls-8{fill:#f2513b;opacity:0.2;}.cls-12,.cls-14,.cls-15,.cls-21,.cls-8,.cls-9{mix-blend-mode:multiply;}.cls-9{fill:#d41892;}.cls-12,.cls-9{opacity:0.6;}.cls-10,.cls-11{fill:#ffeca4;}.cls-10{opacity:0.97;}.cls-10,.cls-13{mix-blend-mode:soft-light;}.cls-12,.cls-14,.cls-15{fill:#e77592;}.cls-13{fill:#ff956d;}.cls-14{opacity:0.3;}.cls-15{opacity:0.36;}.cls-16{fill:#ffac56;}.cls-17{fill:#ac1900;}.cls-18{fill:#ff7739;}.cls-19{fill:#c73139;}.cls-20{fill:url(#Áåçûìÿííûé_ãðàäèåíò_435-3);}.cls-21{fill:#a72092;opacity:0.8;}</style><linearGradient id="Áåçûìÿííûé_ãðàäèåíò_464" x1="31.54" y1="78.11" x2="44.8" y2="-6.96" gradientUnits="userSpaceOnUse"><stop offset="0" stop-color="#b9112f"/><stop offset="0.11" stop-color="#bd182f"/><stop offset="0.28" stop-color="#c82c30"/><stop offset="0.48" stop-color="#da4d32"/><stop offset="0.69" stop-color="#f27734"/><stop offset="1" stop-color="#f3ac2c"/></linearGradient><linearGradient id="Áåçûìÿííûé_ãðàäèåíò_464-2" x1="31.65" y1="78.13" x2="44.91" y2="-6.94" xlink:href="#Áåçûìÿííûé_ãðàäèåíò_464"/><linearGradient id="Áåçûìÿííûé_ãðàäèåíò_464-3" x1="31.62" y1="78.15" x2="31.62" y2="31.46" xlink:href="#Áåçûìÿííûé_ãðàäèåíò_464"/><linearGradient id="Áåçûìÿííûé_ãðàäèåíò_464-4" x1="21.99" y1="76.62" x2="35.25" y2="-8.45" xlink:href="#Áåçûìÿííûé_ãðàäèåíò_464"/><linearGradient id="Áåçûìÿííûé_ãðàäèåíò_435" x1="35.08" y1="24.03" x2="35.08" y2="0.36" gradientUnits="userSpaceOnUse"><stop offset="0" stop-color="#e74940"/><stop offset="1" stop-color="#e9722c"/></linearGradient><linearGradient id="Áåçûìÿííûé_ãðàäèåíò_435-2" x1="26.95" y1="77.9" x2="26.95" y2="15.83" xlink:href="#Áåçûìÿííûé_ãðàäèåíò_435"/><linearGradient id="Áåçûìÿííûé_ãðàäèåíò_435-3" x1="42.72" y1="40.51" x2="42.72" y2="21.38" xlink:href="#Áåçûìÿííûé_ãðàäèåíò_435"/></defs><g class="cls-1"><g id="Layer_2" data-name="Layer 2"><g id="layer1"><path class="cls-2" d="M22,10.45a18.41,18.41,0,0,1-1.18-1.51c.48-.56,1-1.09,1.48-1.6a24.32,24.32,0,0,1,8-5.46c.27-.12.55-.23.82-.33.42-.15.84-.29,1.26-.41L33.06,1A18.6,18.6,0,0,1,37.72.36a19.62,19.62,0,0,1,2.55.17l.2,0,.21,0,.15,0c9.21,1.52,17,9.73,21,21.16a39,39,0,0,0-8.78,2,4.42,4.42,0,0,1-.51.16,5,5,0,0,1-.76.1,10.51,10.51,0,0,1-1.65,0c-.27,0-.55,0-.85-.1a39.89,39.89,0,0,1-8.2-2.26,88.86,88.86,0,0,1-11.27-5.17A27.45,27.45,0,0,1,22,10.45Z"/><path class="cls-3" d="M64.68,39.13a51,51,0,0,1-4.82,22.14C55.14,71,47.38,77.49,38.57,77.88l-.76,0h-.14a18.71,18.71,0,0,1-4.43-.53h0c-.3-.07-.59-.15-.89-.24-.12,0-.25-.07-.37-.12h0a16.32,16.32,0,0,1-1.88-.69,22.26,22.26,0,0,1-3.59-1.93,31.47,31.47,0,0,1-10-11.32,50.27,50.27,0,0,1-5.75-23.94,54.21,54.21,0,0,1,1.37-12.22c.22-1,.47-1.91.74-2.84.4.26.78.49,1.13.69s.7.41,1,.56l.46.23a3.53,3.53,0,0,1,.55.35l.43.33.2.16,0,0,.19.16c1.05.87,2.53,2.21,4.24,3.8l1.14,1.09.58.55c2.77,2.65,5.9,5.74,8.67,8.54,3.93,4,7.14,7.36,7.55,8.05h0c.23.36.94.22,2-.25,3.12-1.45,9-6.09,11.65-8.63a8.76,8.76,0,0,0,1.25-1.39,1.16,1.16,0,0,1,.2-.25c1.73-1.65,9.75-1.11,10.47-2.51C64.64,36.75,64.68,37.93,64.68,39.13Z"/><path class="cls-4" d="M41,48.36c0,1.66,0,3.31-.09,4.91C40.75,60.78,40.47,67.48,40,72c0,0,0,.08,0,.11q-.06.56-.12,1.05v0a.09.09,0,0,1,0,0c-.11,1-.23,1.8-.38,2.49,0,.2-.08.39-.13.57a3.36,3.36,0,0,1-.62,1.49.42.42,0,0,1-.16.11l-.06,0c-3.82.57-11.55,0-11.55,0s0-.12-.05-.36c0,0,0-.06,0-.09,0-.34-.12-.86-.21-1.54-.06-.45-.12-1-.2-1.52-.41-3.18-1-8.3-1.73-14.39-.07-.72-.16-1.47-.24-2.22v-.07c-.12-1-.23-2.07-.34-3.14-.08-.83-.17-1.68-.26-2.53-.61-6.15-1.19-12.78-1.59-19.18,0-.47-.06-.94-.09-1.4l.58.55c2.77,2.65,5.9,5.74,8.67,8.54,3.93,4,7.14,7.36,7.55,8.05h0C39.28,49,40,48.83,41,48.36Z"/><path class="cls-5" d="M22,10.45c.08-1.11.18-2.15.3-3.11a17.73,17.73,0,0,1,1.3-5.25A3,3,0,0,1,25.08.46a1.72,1.72,0,0,1,.39-.1,60.59,60.59,0,0,1,14.8.17l.2,0,.21,0,.15,0s0,1.23.05,3.39V4.3c0,.51,0,1.06,0,1.66s0,1.21,0,1.88h0c0,.43,0,.88,0,1.35,0,3.43.1,7.7.13,12.41a88.86,88.86,0,0,1-11.27-5.17A27.45,27.45,0,0,1,22,10.45Z"/><path class="cls-6" d="M18.55,4a7.11,7.11,0,0,1-.17-1.59A19.58,19.58,0,0,1,25.08.46q.42,0,.84-.06c.34,0,.69,0,1,0a19.13,19.13,0,0,1,5.38.78A19.78,19.78,0,0,1,34.68,2a23.92,23.92,0,0,1,6.23,4A35.21,35.21,0,0,1,49.7,18.35,44.6,44.6,0,0,1,51.78,24a10.51,10.51,0,0,1-1.65,0c-.27,0-.55,0-.85-.1a39.89,39.89,0,0,1-8.2-2.26,88.86,88.86,0,0,1-11.27-5.17,27.45,27.45,0,0,1-7.82-6,18.41,18.41,0,0,1-1.18-1.51A13.62,13.62,0,0,1,18.55,4Z"/><path class="cls-7" d="M53.91,39.13c0,11.73-3.62,22.26-9.36,29.36l-.07.09a29,29,0,0,1-4.61,4.59l-.19.15,0,0a24.05,24.05,0,0,1-3.06,2l-.09,0,0,0c-.68.36-1.37.69-2.07,1a17.7,17.7,0,0,1-2,.72,18.13,18.13,0,0,1-1.8.43h0A19,19,0,0,1,27,77.9q-.45,0-.9,0a.61.61,0,0,1-.19,0,3.11,3.11,0,0,1-.43,0,7.53,7.53,0,0,1-.83-.08l-.14,0a10.45,10.45,0,0,1-1.12-.18c-.28,0-.54-.11-.81-.18a.53.53,0,0,1-.17,0l-.54-.14h0c-.26-.07-.52-.14-.78-.23s-.6-.2-.89-.32h0l-.55-.22a3.64,3.64,0,0,1-.57-.25,4.9,4.9,0,0,1-.52-.24,4.81,4.81,0,0,1-.51-.25c-.16-.07-.31-.16-.46-.24-.37-.19-.74-.41-1.1-.63s-.48-.3-.72-.47-.64-.43-1-.67-.57-.43-.84-.65a8,8,0,0,1-.64-.54,2.73,2.73,0,0,1-.33-.28q-.33-.29-.66-.6a.1.1,0,0,1-.05,0l-.05,0-.07-.08s0,0,0,0l-.57-.56c-.57-.57-1.13-1.18-1.66-1.82l0,0A34.69,34.69,0,0,1,7.27,65.6l0-.06a42,42,0,0,1-2.51-4.49A51.23,51.23,0,0,1,0,39.13a50.48,50.48,0,0,1,5.42-23.3,2.14,2.14,0,0,0,.21,1.76c1.07,2.14,4.59,4.79,7.25,6.48.4.26.78.49,1.13.69s.7.41,1,.56l.46.23a3.53,3.53,0,0,1,.55.35l.43.33.2.16,0,0,.19.16c1.05.87,2.53,2.21,4.24,3.8l1.14,1.09.58.55c2.77,2.65,5.9,5.74,8.67,8.54,3.93,4,7.14,7.36,7.55,8.05h0c.23.36.94.22,2-.25,3.12-1.45,9-6.09,11.65-8.63a8.76,8.76,0,0,0,1.25-1.39C53.91,38.6,53.91,38.87,53.91,39.13Z"/><path class="cls-8" d="M39.05,48.61l0,.09-.07.15A16.46,16.46,0,0,1,33,55.72l0,0a14.18,14.18,0,0,1-1.76.95h-.05a4.4,4.4,0,0,1-.5.21c-.28.11-.57.21-.88.31a11.94,11.94,0,0,1-2.39.5l-.87.07H26a12.62,12.62,0,0,1-1.51-.09c-5.32-.64-9.8-4.62-11.94-10.14a.28.28,0,0,1,0-.06,20,20,0,0,1-1.32-7.21,21,21,0,0,1,.11-2.12h0s0-.05,0-.15a.9.9,0,0,0,0-.18,19.51,19.51,0,0,1,.53-2.8l0-.13a19.44,19.44,0,0,1,1.18-3.18,0,0,0,0,0,0,0,18,18,0,0,1,1-1.88.25.25,0,0,0,0-.07,16.08,16.08,0,0,1,1.48-2s0,0,0,0a14.27,14.27,0,0,1,1.14-1.19c1.05.87,2.53,2.21,4.24,3.8l1.14,1.09.58.55c2.77,2.65,5.9,5.74,8.67,8.54,3.93,4,7.14,7.36,7.55,8.05Z"/><path class="cls-9" d="M22.24,31.46l.58.55c-.16.29-.33.57-.49.85-4.5,7.51-8.51,12.63-10.53,6.86a15.52,15.52,0,0,1-.44-1.54h0s0-.05,0-.15a.9.9,0,0,0,0-.18c.08-.43.22-1.23.48-2.26v0h0c0-.09.09-.39.22-.83,0-.14.09-.29.14-.43s.09-.28.14-.43c.2-.67.45-1.38.75-2.12a0,0,0,0,0,0,0,19.92,19.92,0,0,1,3.29-5.47l.2.16,0,0,.19.16c1.05.87,2.53,2.21,4.24,3.8Z"/><path class="cls-10" d="M12.57,47.51C13.32,42,21,55.2,28,56S39,48.6,39,48.6s-3.72,9.7-14.19,9.2S12.57,47.51,12.57,47.51Z"/><path class="cls-10" d="M39.56,6.55a26.15,26.15,0,0,0-8.48-5A20.49,20.49,0,0,0,25.92.4c-.29,0-.45,0-.45,0A27.68,27.68,0,0,1,33.06,1,24.3,24.3,0,0,1,36.56,2,22,22,0,0,1,40.88,4.3a25.13,25.13,0,0,1,8.21,9.64.09.09,0,0,1,0,.06l.29.58a2.14,2.14,0,0,1,.1.22c.46,1,.89,2,1.29,3.08l.08.23.06.16,0,.1a45.3,45.3,0,0,1,1.57,5.54,5,5,0,0,1-.76.1,10.51,10.51,0,0,1-1.65,0c-2.32-7.51-5.69-12.63-9.19-16.12a.12.12,0,0,0,0,0C40.45,7.37,40,7,39.56,6.55Z"/><path class="cls-10" d="M54.1,38.09a56.11,56.11,0,0,1-1.62,14.74,42.28,42.28,0,0,1-3.2,8.66.34.34,0,0,1-.06.12,34.07,34.07,0,0,1-9.36,11.61l-.54.41a19.33,19.33,0,0,1-2.75,1.74l-.09,0a30.53,30.53,0,0,0,2.4-2.24.47.47,0,0,0,.1-.1L40,72a48.09,48.09,0,0,0,3.7-4.59,47.13,47.13,0,0,0,8.95-27.67,8.76,8.76,0,0,0,1.25-1.39A1.16,1.16,0,0,1,54.1,38.09Z"/><path class="cls-11" d="M35.17,1.69c-3-.62,6.76,5.63,11,12.25S51,18.37,51,18.37,46.38,3.63,35.17,1.69Z"/><path class="cls-12" d="M37.72,77.91c-6.83-1.37,9.9-5,14.73-24.94S60,36.1,63.06,39.08,62.84,74.75,37.72,77.91Z"/><path class="cls-10" d="M46.45,7.11c-1.05-.05,2.52,6.29,4.21,8.6s8.4,1.54,8.76,1.33S54.51,8,52.55,7.11,46.45,7.11,46.45,7.11Z"/><path class="cls-13" d="M12.88,24.07c.4.26.78.49,1.13.69-.65.7-1.28,1.41-1.87,2.15C4.84,35.94,1.75,47.37,1,40.3A40.78,40.78,0,0,1,5.63,17.59C6.7,19.73,10.22,22.38,12.88,24.07Z"/><path class="cls-13" d="M49.28,23.87a39.89,39.89,0,0,1-8.2-2.26,88.86,88.86,0,0,1-11.27-5.17,27.45,27.45,0,0,1-7.82-6,18.41,18.41,0,0,1-1.18-1.51,13.62,13.62,0,0,1-2.26-5,21.38,21.38,0,0,1,5-1.88,20,20,0,0,1,2.21-.4,13.24,13.24,0,0,1,4.46.19C34.39,2.77,38,5.59,41,9.2A56.66,56.66,0,0,1,49.28,23.87Z"/><path class="cls-14" d="M12,71.43c-4.48-7,8-9.72,18.1-13.2S46.49,49,48.9,50,45.81,70.86,34.6,76.05,12,71.43,12,71.43Z"/><path class="cls-15" d="M16.44,26.23l.2.16a19.36,19.36,0,0,0-2.41,3.36.25.25,0,0,1,0,.07,24.88,24.88,0,0,0-1.8,4c-.05.15-.1.29-.14.43s-.1.29-.14.43c-.13.44-.2.74-.22.83h0c0-.07,0-.25,0-.51A24.9,24.9,0,0,1,15,25.32l.46.23a3.53,3.53,0,0,1,.55.35Z"/><path class="cls-11" d="M28,56c-2.73.11,1.1,1.34,3.28.65a7,7,0,0,0,3.43-2.75S32.73,56.1,28,56Z"/><path class="cls-15" d="M31.49,40.55c-1.62,6.06-4.2,11.23-6.2,11.45a10,10,0,0,1-1.37,0,13.09,13.09,0,0,1-4.09-.89,9,9,0,0,1-.92-.39,12,12,0,0,1-5.09-4.5.21.21,0,0,0,0-.06,14.33,14.33,0,0,1-2-6.48,22.42,22.42,0,0,1,.08-4.14v0h0c0-.21,0-.42.07-.63a18.47,18.47,0,0,1,4.05-9l.43.33.2.16,0,0,.19.16c1.05.87,2.53,2.21,4.24,3.8l1.14,1.09.58.55C25.59,34.66,28.72,37.75,31.49,40.55Z"/><path class="cls-10" d="M59.86,61.27C55.14,71,47.38,77.49,38.57,77.88c0,0,0,0-.06,0-3.82.56-11.55,0-11.55,0-6.54,0-12.53-3.36-17.2-8.93,0,0,7.78,6.83,15.51,8.25,6.14,1.12,13.28-.76,14.52-1.06,12.42-3,20-15.12,20-15.12Z"/><path class="cls-10" d="M4.72,61.05c-1.51-6.86,5.86,4,8.21,8S7.4,68.14,4.72,61.05Z"/><path class="cls-11" d="M13.36,46.19c-1.23,0,.92,6.74,4.85,7.09S16.23,46.25,13.36,46.19Z"/><path class="cls-13" d="M16.86,26.57c1.05.87,2.53,2.21,4.24,3.8-2.92,2.16-6.35,3.29-5.94-.77a5.06,5.06,0,0,1,.55-1.82s0,0,0,0a6.47,6.47,0,0,1,1-1.35Z"/><path class="cls-16" d="M5.42,15.83c3.9-1.5,19.72,4.78,22,5.94s17.52,16.82,20,18.62,5.23-2.4,6.51-3.49,10.66-1.32,10.66-1.32a20.63,20.63,0,0,1-6.26,2.53c-3.31.64-5.21,1.17-5.21,1.17s-10.45,9.59-13.32,9.51S23.32,32.31,19.51,30.05s-5.83-3.67-9.75-5.58S4.43,16.21,5.42,15.83Z"/><path class="cls-17" d="M49.28,40.76a13.83,13.83,0,0,1-4,3.39A14.55,14.55,0,0,0,41,48.36S33.35,71,33.59,72.7a8.76,8.76,0,0,0,1.49,3.41l-3.59,2-2.95-.56s4.11-1,4.68-1.74-1.06-2.77.59-12.72a47,47,0,0,1,1.24-6.2c.23-.75,3.79-6.68,4.55-7.77a43.19,43.19,0,0,1,4-4.57C44.6,43.63,46.38,43.87,49.28,40.76Z"/><path class="cls-14" d="M20.67,30.67c-2-3,8.9-6.45,9.61-6.18S46.05,39,46.26,40.28,43.77,45.53,41,46.45,22.26,33,20.67,30.67Z"/><path class="cls-10" d="M6.91,18.72c.44,1,5.58,6.51,7.77,7.18s9.43-1.17,11.89-2.45-8.95-6.35-14-7.09S6.45,17.6,6.91,18.72Z"/><path class="cls-11" d="M52.41,39.91c-.78.69.44-2.57,1.5-3s3.75,1.33,3.75,1.33S52.68,39.67,52.41,39.91Z"/><path class="cls-11" d="M10.77,25c-1.25-.62,4.14,1.26,4.71,1.6a6.67,6.67,0,0,1,1.39,1.87S11.78,25.47,10.77,25Z"/><path class="cls-11" d="M39.78,48.79A5,5,0,0,1,38,49.88c-.69.08-3.13-4.76-3.13-4.76S40.92,46.93,39.78,48.79Z"/><path class="cls-17" d="M.08,36.23C1.19,41.61,16,31.4,19.51,31.46s6.35-1.4,9-2.63a16.64,16.64,0,0,1,5.31-1.37L32.12,26s-6.52,3.85-9.3,4.4-4.13-1-5.73-1.07S12.91,34.21,6.82,36.2,0,35.11,0,35.11Z"/><path class="cls-18" d="M33.63,72.15s2-12.3,2.85-14.75,4.28-8.34,4.28-8.34S38,58.18,36.48,62.85,33.63,72.15,33.63,72.15Z"/><path class="cls-18" d="M13.36,33.77s7.32-1.46,8.25-1.58,4.8-2.39,4.8-2.39a43.85,43.85,0,0,1-4.17,1.66c-.71.12-1.46-.45-3.69-.19S13.36,33.77,13.36,33.77Z"/><path class="cls-19" d="M30.83,17s10.05,3.54,13.46,4.79,17.54,0,17.54,0-7,1.47-8.7,2.29a6.49,6.49,0,0,1-4.29.41C48,24.26,34.43,20.25,30.83,17Z"/><path class="cls-20" d="M32.36,24.88a77.05,77.05,0,0,0-.71,8c.11,1.68,5.54,7,5.85,7.63s16.3-5.68,16.3-5.68S40.48,22.62,38.7,21.55,32.36,24.88,32.36,24.88Z"/><path class="cls-16" d="M38.7,21.55c-2.38.36,1.33,8,2.44,10.05S46,36,46.65,36.26s7.15-1.47,7.15-1.47S40.48,21.46,38.7,21.55Z"/><path class="cls-21" d="M37.5,40.47l5.15-3.58,4-.63,7.15-1.47S40.68,40.5,37.5,40.47Z"/><path class="cls-11" d="M36.38,21.88c-1,.56,1.87,3.3,2.34,3.26s.09-3.28,0-3.59S36.38,21.88,36.38,21.88Z"/></g></g></g></svg>