<svg xmlns="http://www.w3.org/2000/svg" xmlns:xlink="http://www.w3.org/1999/xlink" viewBox="0 0 77.43 75.17"><defs><style>.cls-1{isolation:isolate;}.cls-2{fill:url(#Áåçûìÿííûé_ãðàäèåíò_383);}.cls-19,.cls-3,.cls-7{fill:#bf2a92;}.cls-18,.cls-26,.cls-3{opacity:0.5;}.cls-18,.cls-20,.cls-26,.cls-3,.cls-7{mix-blend-mode:multiply;}.cls-22,.cls-4{fill:#ffd8ff;}.cls-4{opacity:0.3;}.cls-13,.cls-22,.cls-4{mix-blend-mode:soft-light;}.cls-5{fill:#893537;}.cls-6{fill:url(#Áåçûìÿííûé_ãðàäèåíò_410);}.cls-20,.cls-7{opacity:0.8;}.cls-8{fill:#fff;}.cls-9{fill:#f77a77;}.cls-10{fill:#ffc1a7;}.cls-11{fill:#ffaa86;}.cls-12{fill:#ffab9f;}.cls-13{fill:#ffb3c7;}.cls-14{fill:#ae4648;}.cls-15{fill:url(#Áåçûìÿííûé_ãðàäèåíò_533);}.cls-16{fill:#ef6d57;}.cls-17{fill:#ce5757;}.cls-20{fill:#a72092;}.cls-21{fill:url(#Áåçûìÿííûé_ãðàäèåíò_383-2);}.cls-22{opacity:0.2;}.cls-23{fill:#9d4648;}.cls-24{fill:url(#Áåçûìÿííûé_ãðàäèåíò_410-2);}.cls-25{fill:url(#Áåçûìÿííûé_ãðàäèåíò_411);}.cls-26{fill:#c0673b;}.cls-27{fill:#a94f37;}.cls-28{fill:#9d3448;}.cls-29{fill:url(#Áåçûìÿííûé_ãðàäèåíò_7);}.cls-30{fill:url(#Áåçûìÿííûé_ãðàäèåíò_7-2);}</style><linearGradient id="Áåçûìÿííûé_ãðàäèåíò_383" x1="38.25" y1="75.17" x2="38.25" y2="28.8" gradientUnits="userSpaceOnUse"><stop offset="0" stop-color="#4f0c1f"/><stop offset="0.31" stop-color="#561020"/><stop offset="0.75" stop-color="#691a22"/><stop offset="1" stop-color="#772224"/></linearGradient><linearGradient id="Áåçûìÿííûé_ãðàäèåíò_410" x1="29.5" y1="69.2" x2="29.5" y2="31.19" gradientUnits="userSpaceOnUse"><stop offset="0" stop-color="#9a2933"/><stop offset="1" stop-color="#b1383b"/></linearGradient><linearGradient id="Áåçûìÿííûé_ãðàäèåíò_533" x1="15.94" y1="36.35" x2="65.54" y2="36.35" gradientUnits="userSpaceOnUse"><stop offset="0" stop-color="#772224"/><stop offset="0.09" stop-color="#782123"/><stop offset="1" stop-color="#7f1e1f"/></linearGradient><linearGradient id="Áåçûìÿííûé_ãðàäèåíò_383-2" x1="51.78" y1="-181.83" x2="51.78" y2="-217.21" gradientTransform="translate(-55.62 192.78) rotate(18.07)" xlink:href="#Áåçûìÿííûé_ãðàäèåíò_383"/><linearGradient id="Áåçûìÿííûé_ãðàäèåíò_410-2" x1="38.95" y1="-191.33" x2="38.95" y2="-209.17" gradientTransform="translate(-55.62 192.78) rotate(18.07)" xlink:href="#Áåçûìÿííûé_ãðàäèåíò_410"/><linearGradient id="Áåçûìÿííûé_ãðàäèåíò_411" x1="-57.43" y1="-325.43" x2="-59.82" y2="-331.1" gradientTransform="translate(-110.26 317.77) rotate(40.92)" gradientUnits="userSpaceOnUse"><stop offset="0" stop-color="#772224"/><stop offset="0.25" stop-color="#691a22"/><stop offset="0.69" stop-color="#561020"/><stop offset="1" stop-color="#4f0c1f"/></linearGradient><linearGradient id="Áåçûìÿííûé_ãðàäèåíò_7" x1="18.23" y1="19.82" x2="18.23" y2="8.75" gradientUnits="userSpaceOnUse"><stop offset="0" stop-color="#6d151f"/><stop offset="0.65" stop-color="#721c22"/><stop offset="1" stop-color="#772224"/></linearGradient><linearGradient id="Áåçûìÿííûé_ãðàäèåíò_7-2" x1="28.9" y1="25.16" x2="28.9" y2="18.3" xlink:href="#Áåçûìÿííûé_ãðàäèåíò_7"/></defs><g class="cls-1"><g id="Layer_2" data-name="Layer 2"><g id="layer1"><path class="cls-2" d="M76.48,64a0,0,0,0,1,0,0c0,.12,0,.24,0,.35a9.69,9.69,0,0,1-.09,1,0,0,0,0,1,0,0l0,.2a3.63,3.63,0,0,1-.11.59,3.59,3.59,0,0,1-.08.35.07.07,0,0,1,0,0h0q0,.16-.09.3a6.3,6.3,0,0,1-.5,1.24,5.13,5.13,0,0,1-1.59,1.47l-.52.33a20.57,20.57,0,0,1-1.84,1l-.21.1h0l-.4.19-.55.24-.34.15-.14.06h0l-.75.3h0l-.54.2a24,24,0,0,1-5.16,1.3l-3.11.33-.67.07-.47,0-.51.05-1,.09-2.13.18-1.1.09-1.11.08-.54,0L51,74.61h-.09l-1.83.1H49l-.37,0-1.74.09-.56,0h-.1L42.86,75l-2.15.07H40c-.92,0-1.82,0-2.74.06-1.59,0-3.18,0-4.76,0H31l-1.92,0-1.24,0s0,0-.06,0l-1.18,0a107.81,107.81,0,0,1-13.57-1.27l-1.43-.26A35.77,35.77,0,0,1,6,72l-.57-.22a13.41,13.41,0,0,1-3.1-1.66c-.2-.15-.39-.31-.56-.46a4.93,4.93,0,0,1-.71-.74,3.48,3.48,0,0,1-.28-.39,3.26,3.26,0,0,1-.24-.4,4.3,4.3,0,0,1-.35-.9A1.84,1.84,0,0,1,.18,67c0-.1,0-.2,0-.3h0c-.06-.51-.09-1-.11-1.57v0A42.59,42.59,0,0,1,2.1,51.64v0l0,0,.46-1.51a93,93,0,0,1,4.86-12c.25-.52.51-1.05.78-1.57.48-1,1-1.93,1.5-2.89l.16-.28c.84-1.55,1.72-3.07,2.62-4.56.12.34.28.81.49,1.33.08.21.18.42.27.64l.14.3.06.12a11.08,11.08,0,0,0,1.81,2.75.57.57,0,0,0,.14.13,3.05,3.05,0,0,0,.53.49,4.11,4.11,0,0,0,.59.44,14.68,14.68,0,0,0,4.23,1.36c2.75.59,5.69,1,6.08,1.47.63.76,9,3,11.56,4.84,2.26,1.62,12,3.68,15.49,4.18l.46.07c.29,0,.51,0,.65,0s.54,0,1-.07l.55-.06c3.49-.36,11.29-1.49,14-2.78l.29-.15a2.42,2.42,0,0,0,.41-.28c1.18,2.77,2.2,5.48,3,8a49.08,49.08,0,0,1,2,8.45s0,.07,0,.12A21.9,21.9,0,0,1,76.48,64Z"/><path class="cls-3" d="M76.05,64.39h0a3.85,3.85,0,0,1-.26,1.23,2.81,2.81,0,0,1-.46.68,0,0,0,0,0,0,0,8.6,8.6,0,0,1-1.06,1h0a28.51,28.51,0,0,1-5.68,3.17c-3.31,1.46-6.6,2.44-7.13,2a.37.37,0,0,1-.12-.17,8.57,8.57,0,0,1-.43-2.13.41.41,0,0,0,0-.11,86.94,86.94,0,0,0-1.57-8.91.22.22,0,0,0,0-.08A119.7,119.7,0,0,0,55,47c.19,0,.54,0,1-.07l.55-.06c3.49-.36,11.29-1.49,14-2.78l.29-.15a99.24,99.24,0,0,1,3.67,10.83C75.72,59.12,76.2,62.48,76.05,64.39Z"/><path class="cls-4" d="M58.1,69.14a3.44,3.44,0,0,1-.6,1.39l0,0c-1,1.25-3.53,2.15-6.95,2.72l-.1,0a99.52,99.52,0,0,1-20.29.62H29.8l-.38,0c-2.87-.17-5.74-.42-8.47-.75H20.8c-2-.25-4-.52-5.77-.83l-.32-.06c-4.88-.86-8.81-2-10.79-3.25l-.11-.07A3.87,3.87,0,0,1,3,68.23a1.73,1.73,0,0,1-.35-.51h0a1,1,0,0,1-.1-.28c-1.56-7,1.16-17,5.6-26.75.15-.3.29-.61.43-.91.77-1.65,1.59-3.29,2.44-4.91l.57-1.07,0,0c.41-.75.82-1.51,1.24-2.25l.15-.26.28-.49.14.3.06.12a11.08,11.08,0,0,0,1.81,2.75.57.57,0,0,0,.14.13,3.05,3.05,0,0,0,.53.49,4.11,4.11,0,0,0,.59.44,14.68,14.68,0,0,0,4.23,1.36c2.75.59,5.69,1,6.08,1.47.63.76,9,3,11.56,4.84,2.26,1.62,12,3.68,15.49,4.18C57.1,56.54,59,65.29,58.1,69.14Z"/><path class="cls-3" d="M75.53,68.14c-.9,1.69-7.29,4.82-12.14,5.38C43.91,75.78,1.31,77.37.13,66.67c-.07-.52-.1-1-.12-1.6.4.79,4.62,7.8,29.79,8.83C56.47,75,57.83,70.46,61.3,70s10.36-1.5,13-2.68c2.29-1,2.1-5.91,2-7C76.7,63.58,76.5,66.33,75.53,68.14Z"/><path class="cls-3" d="M49,74.72S57,71.39,59.89,70.4s10.24.24,10.78.48S68.05,74.32,49,74.72Z"/><path class="cls-5" d="M59.31,61.21c-1.34-4.54-3.06-9.42-5-14.29.29,0,.51,0,.65,0s.54,0,1-.07a76.19,76.19,0,0,1,3.26,14.17.22.22,0,0,1,0,.08A.28.28,0,0,1,59.31,61.21Z"/><path class="cls-3" d="M12.51,28.8c.12.34.28.81.49,1.33-.33.54-.65,1.08-1,1.61l-.23.4c-1.32,2.28-2.52,4.51-3.61,6.58l-.47.9c-3.4,6.64-5.47,11.63-5.62,12l.48-1.56A112.92,112.92,0,0,1,7.48,37.28c.41-.91.83-1.78,1.25-2.63q1.81-3.69,3.69-6.76a3.11,3.11,0,0,0,.09.9Z"/><path class="cls-6" d="M55,60.28c0,6.92-12.94,9.56-26.15,8.8l-1-.06-.25,0c-1-.07-2-.16-3-.28l-.76-.08-1.41-.19-.18,0-1.18-.19c-2-.32-4-.73-5.86-1.21l-.07,0a44.1,44.1,0,0,1-5.38-1.76c-4.11-1.67-5.5-4-5.77-6.08v0A6.75,6.75,0,0,1,4.13,57h0c0-.11,0-.22.07-.32s.13-.48.2-.69a9.24,9.24,0,0,1,.51-1.27c.44-.9,1.5.61,4,2.47l.38.28a24.34,24.34,0,0,0,13.32,4.4,94.51,94.51,0,0,0,13-.15h0c1.92-.17,3.66-.41,5.2-.69a28.1,28.1,0,0,0,3.62-.9,9.08,9.08,0,0,0,2.87-1.42,3,3,0,0,0,.29-.26,1.91,1.91,0,0,0,.44-.66c1.18-3.11-1-5.32-8.19-6.07l-.6-.06c-.76-.07-1.57-.13-2.44-.16-.55,0-1.12-.05-1.72-.05-.91,0-1.88,0-2.9,0-12.91.18-21.3-5.63-23.67-10a0,0,0,0,0,0,0c-.13-.24-.25-.47-.35-.7a8.84,8.84,0,0,1-.41-1.06,5.7,5.7,0,0,1-.28-1.52,4.47,4.47,0,0,1,0-.82,5,5,0,0,1,1.25-2.63A6.12,6.12,0,0,1,9.34,34l.39-.36a15.59,15.59,0,0,1,2.08-1.5c.32-.21.67-.41,1-.62l.13-.07.5-.26a11.08,11.08,0,0,0,1.81,2.75.57.57,0,0,0,.14.13,3.05,3.05,0,0,0,.53.49c-1.61.41-2.32,1-2.53,2.06A4.37,4.37,0,0,0,13.37,38s0,0,0,0h0c.48,3.67,5.87,6.28,17,7.16l.27,0c1.1.09,2.25.15,3.47.21l2,.06h.37C53.76,46,54.9,52.25,55,58.59,55,59.15,55,59.72,55,60.28Z"/><path class="cls-7" d="M16.54,35a14.68,14.68,0,0,0,4.23,1.36c-4.05.21-7.19.51-7.39,1.67,0,0,0,0,0,0-.08-.24-.69-2.12.63-3.2a5,5,0,0,1,1.42-.74,3.05,3.05,0,0,0,.53.49A4.11,4.11,0,0,0,16.54,35Z"/><path class="cls-7" d="M8.49,41.38s4.15,6.1,15.62,8.67c12.12,2.71,18.66,0,22.9,2.68,4.42,2.77.28,5.94.28,5.94s0-5.07-4.95-5.86-11.33,3.73-21,1.95C12,53.05,8.49,41.38,8.49,41.38Z"/><path class="cls-7" d="M4,59.14S9.2,69.89,31,68.57c22.39-1.35,24-10,24-10s1.92,8-8,10.53S4.06,72.74,4,59.14Z"/><path class="cls-4" d="M19.93,45.87c-1.89.39-9.4-2-11.36-6.1a4.53,4.53,0,0,1-.37-1.05,4.28,4.28,0,0,1-.1-1.24,5.73,5.73,0,0,1,.13-.95A5.93,5.93,0,0,1,9.34,34a5.48,5.48,0,0,1,.55-.64A8.92,8.92,0,0,1,12,31.74a7.68,7.68,0,0,1,1-.48l.42-.19.06.12a11.08,11.08,0,0,0,1.81,2.75c-5.66,2.17-1.12,8.1,4.59,10C26.38,46.2,22.38,45.35,19.93,45.87Z"/><path class="cls-4" d="M16.47,61.66c-8-1.43.33,8.53,12.8,7.39s16-3.86,17.38-6.74S38,65.52,16.47,61.66Z"/><path class="cls-8" d="M11.19,34.9c-.86,0,.84-1.9,1.62-1.72S12.57,34.85,11.19,34.9Z"/><path class="cls-8" d="M50.89,51.24c-1.83.09.13,4.42,1.93,4.51S54.12,51.08,50.89,51.24Z"/><path class="cls-8" d="M15.29,63.67c-.38-.92,1.62-1.33,2.41-.3S15.86,65,15.29,63.67Z"/><path class="cls-9" d="M30.58,46.89c-1-.58.19-3.35,1.64-4.28s4,1.83,4.24,3.3S30.58,46.89,30.58,46.89Z"/><path class="cls-9" d="M34.82,50.33c0-1.74,3.78-1.48,4.81-.83s-.24,2.7-2.41,3.22S34.82,50.33,34.82,50.33Z"/><path class="cls-9" d="M24.69,65.33C22.5,67.13,24.31,69,26,69.4s3.62-2.58,4-3.42S25.45,64.7,24.69,65.33Z"/><path class="cls-9" d="M33.64,66.5c-.07-1.29,1.93-.64,2.32,0S33.77,68.88,33.64,66.5Z"/><path class="cls-9" d="M4.27,56.82c-.62-1.32-.65-5.26,1.29-6.25s5.66,3.6,4.25,5.68S5,58.39,4.27,56.82Z"/><path class="cls-7" d="M3.9,54.52a3.73,3.73,0,0,0,3.49,3.3,3.57,3.57,0,0,0,2-1.11s.18,1.87-2.76,2.59S3.9,54.52,3.9,54.52Z"/><path class="cls-7" d="M23.68,67.24c0,.15,3.88,1.05,4.1,1.17s.85-.33.85-.33-1.48,2.12-2.48,2.26C23.68,70.7,23.68,67.24,23.68,67.24Z"/><path class="cls-7" d="M33.66,66.74c.22.61,2.13.34,2.13.34s-.33,1.26-1.4,1.14S33.66,66.74,33.66,66.74Z"/><path class="cls-7" d="M30.28,45.57c-.05.61,2.61,1.16,4,1.12a2.38,2.38,0,0,0,2-1.43,1.93,1.93,0,0,1,.66,1.08C37,46.89,36,47.92,33,48s-2.78-1.38-2.78-1.38Z"/><path class="cls-7" d="M35.17,51.64c.59.8,4.54-1.81,4.76-1.8s0,1.4,0,1.4a3.63,3.63,0,0,1-2.52,2.93C35.12,54.87,35.17,51.64,35.17,51.64Z"/><path class="cls-10" d="M3.9,54.52C4,55.43,6.82,53.17,7.17,52a1.22,1.22,0,0,0-1.26-1.59C5.33,50.46,3.52,52.22,3.9,54.52Z"/><path class="cls-10" d="M31.22,43.59c-.84,1.61-.59,2-.3,2.32a10.25,10.25,0,0,0,3.36.78c.41,0-1-4.08-1.53-4.08S31.22,43.59,31.22,43.59Z"/><path class="cls-11" d="M35.17,49.55c-.27.39,2.76,1.19,3.07,1.11a7.94,7.94,0,0,0,1.39-1.16S36.42,48.38,35.17,49.55Z"/><path class="cls-9" d="M35.18,64.29c-1.37-2.68,3.76-5.58,5.33-5.6s5.39,1.77,5.27,3S37.39,68.61,35.18,64.29Z"/><path class="cls-7" d="M35,63.72c.44,1,6.06.56,7.72,0A8.85,8.85,0,0,0,45.6,62a11.87,11.87,0,0,1-4.14,3.87C39,67,38,66.94,37.11,66.84S35,63.72,35,63.72Z"/><path class="cls-12" d="M35,63.72c.91.45,4,.27,5.37.07s.55-3.19-.22-4a1.48,1.48,0,0,0-1.58-.47S34.53,61.35,35,63.72Z"/><path class="cls-10" d="M38.82,59.2c-.26.13,2,.39,3.18.31s-1.07-.87-1.49-.82A14.29,14.29,0,0,0,38.82,59.2Z"/><path class="cls-4" d="M3,68.22c-.66-2,14.16,5.16,31.37,5s22.85-4.69,23.74-4.1-1.62,3-7.94,4.11S30.78,73.93,19.4,73,4.42,69.58,3,68.22Z"/><path class="cls-3" d="M74.72,59.26a1.52,1.52,0,0,1-.32.06c-2.47.31-14.77-.39-15.09-2.38-.2-1.23-1.88-6.2-2.73-10.1,3.49-.36,11.29-1.49,14-2.78a93.25,93.25,0,0,1,4,12.18C75,58,75.07,59.15,74.72,59.26Z"/><path class="cls-13" d="M75.53,68.14c-.89,1.68-7.29,4.81-12.13,5.38-4.68.54-10.71,1-17.17,1.35,0,0,16.06-1.55,23.08-5.43,6.8-3.75,5.09-16.94,5-17.76a49.08,49.08,0,0,1,2,8.45s0,.07,0,.12C76.71,63.58,76.5,66.33,75.53,68.14Z"/><path class="cls-14" d="M12.42,27.89c2.05-2.25,19.21-1.77,20.48-1.63s8.5,6.77,9.44,6.68,1.54.24,3.89.45,12.94,4.54,15.13,5.31,9.5,5.21,9.5,5.21-11.92,4.22-15.54,3.92-14-3.64-15-3.77-6.28-2.74-8.13-3.59-13-4-15-4.17-5.64-3.76-5.41-4.16A35.8,35.8,0,0,0,12.42,27.89Z"/><path class="cls-15" d="M65.54,43.63c-.18.55-11.56,2-14.5,1.25S36,40.61,34.7,39.56s-15.59-4.63-16.86-5-2.75-4.66-1.3-5.47a8.9,8.9,0,0,1,2.56-.77h0c4.6-.85,12.57-.78,13.18-.39s7.71,6.09,8,6.18a41.37,41.37,0,0,1,6.83,1.36c1.68.57,8.15,3.25,13,5.41l.1,0h0C63.27,42.27,65.61,43.41,65.54,43.63Z"/><path class="cls-16" d="M12,31.23s-3.2,2.43-2.33,4.45,4.77-.74,4.77-.74Z"/><path class="cls-3" d="M60.07,40.84c-1-.38-7.22-2.72-10.23-3.66-3.29-1-8.59-2-9.48-2.18s-2-1.65-2.34-1.83-5.74-5.28-6.69-5.06-12.23.18-12.23.18h0c4.6-.85,12.57-.78,13.18-.39s7.71,6.09,8,6.18a41.37,41.37,0,0,1,6.83,1.36C48.8,36,55.27,38.68,60.07,40.84Z"/><path class="cls-17" d="M46.23,45.7c-.5-1.24,10.93-.31,13.84-.26s-2,2.43-4.49,2.4S46.23,45.7,46.23,45.7Z"/><path class="cls-17" d="M13.71,27.05c-1.51.67-2.22,3.63-1.2,5.06A13,13,0,0,0,17,35.23c.53.17-1.15-4.21-1-4.9a7.22,7.22,0,0,1,1.46-2.08S14.17,26.84,13.71,27.05Z"/><g class="cls-18"><path class="cls-19" d="M26.15,33.82c-.23-1.11,8.25.71,8.8,1.86S26.56,35.76,26.15,33.82Z"/><path class="cls-19" d="M36.92,39.26c-.56-.9,3.42.42,4.18,1.12S37.68,40.47,36.92,39.26Z"/><path class="cls-19" d="M46.77,37c-2.93-.52-2.27,4.25.57,5.19s7.08,1.33,7.81,0S48.56,37.26,46.77,37Z"/><path class="cls-19" d="M28.77,28.57c-2.57-.21.48,2.19,3.23,2.66S32.37,28.85,28.77,28.57Z"/></g><path class="cls-20" d="M49.35,34.22s-8.59-1.33-12.88,2.13S49.06,47,55,47s15.56-2.91,15.56-2.91S57.73,36.26,49.35,34.22Z"/><path class="cls-21" d="M77.06,42.25s0,0,0,0h0c-.12.35-1.71.3-3.85-.08h0c-.79-.14-1.65-.34-2.54-.58-2.67-.39-5.28-.88-6.77-1.23-.55-.12-.95-.22-1.15-.29L62.3,40c-.3-.13-.71-.33-1.2-.59L60.43,39l-.18-.09c-3.81-2-10.55-6.08-12-8a30.63,30.63,0,0,0-5.12-4.55C41,24.66,39,23.19,38.78,22.71a1.85,1.85,0,0,0-.67-.6c-.41-.29-1-.62-1.66-1h0l-1.25-.71c-2-1.13-4.38-2.46-5.32-3.58l0-.05a11.39,11.39,0,0,1-1.48-.41l1.25.11-.11-.15,0-.08c-.09-.12-.16-.25-.24-.37-.27-.08-.44-.18-.43-.28h0a.53.53,0,0,1,.11-.09.35.35,0,0,1,.09-.07,10.28,10.28,0,0,1-.43-1.09c0-.18-.11-.38-.16-.58-.1-.41-.18-.81-.24-1.22,1.06-.88,2.12-1.72,3.17-2.52A7.79,7.79,0,0,1,32,9.53l.18-.14c.85-.64,1.72-1.27,2.57-1.86l.85-.59.56-.37c.39-.26.77-.51,1.16-.75l0,0,.05,0A45.06,45.06,0,0,1,47.06.91l.83-.25.37-.1L48.93.4l.65-.12c.33-.06.66-.11,1-.14a.06.06,0,0,1,.06,0h0s0,0,0,0l.25,0,.31,0s0,0,0,0a0,0,0,0,1,0,0,6.61,6.61,0,0,1,2.29.28l.14,0c.17,0,.35.1.55.14l.05,0c1.53.42,3.5.75,5.45,1.37.44.14.85.29,1.24.43A10.57,10.57,0,0,1,65.8,5.74h0a5.22,5.22,0,0,1,.33.45,52.94,52.94,0,0,1,4.67,9.26v0a100.24,100.24,0,0,1,4.61,15.18,3,3,0,0,1,.06.32c.84,3.76,1.49,7.57,1.94,11.28Z"/><path class="cls-3" d="M70.64,41.64c-2.67-.39-5.28-.88-6.77-1.23-.55-.12-.95-.22-1.15-.29L62.3,40c-.3-.13-.71-.33-1.2-.59q-.15-2.16-.36-4.5a2.24,2.24,0,0,0,0-.24,3.27,3.27,0,0,0,0-.44c0-.51-.1-1-.14-1.57s-.14-1.26-.21-1.9-.16-1.44-.24-2.13l0-.22C58.48,14.84,57.42,9.27,57,7a.14.14,0,0,1,0-.06c0-.26-.1-.48-.13-.66s0-.11,0-.16c-.12-.7-.06-.67.19-.62l.09,0,.16,0h0c.29.06.58.11.86.18a25.22,25.22,0,0,1,3.1.87h0l.83.32a16,16,0,0,1,7.36,6.15c.48.73,1,1.53,1.4,2.39v0c1.85,3.59,3.39,8.47,4.61,15.18a3,3,0,0,1,.06.32c.66,3.65,1.13,7.15,1.47,10.43,0,0,0,.06,0,.08l.06.77s0,0,0,0h0c-.12.35-1.71.3-3.85-.08h0C72.39,42.08,71.53,41.88,70.64,41.64Z"/><path class="cls-4" d="M60.25,38.93c-3.81-2-10.55-6.08-12-8a30.63,30.63,0,0,0-5.12-4.55C41,24.66,39,23.19,38.78,22.71a1.85,1.85,0,0,0-.67-.6c-.41-.29-1-.62-1.66-1h0l-1.25-.71c-2-1.13-4.38-2.46-5.32-3.58l0-.05a11.39,11.39,0,0,1-1.48-.41l1.25.11-.11-.15,0-.08c-.09-.12-.16-.25-.24-.37-.27-.08-.44-.18-.43-.28h0a.53.53,0,0,1,.11-.09.35.35,0,0,1,.09-.07,10.28,10.28,0,0,1-.43-1.09c1.57-1.34,3.13-2.62,4.68-3.82l1.31-1h0C35.19,9,35.8,8.6,36.4,8.17h0l.84-.59c.91-.63,1.8-1.22,2.66-1.78l.2-.13C45.2,2.42,49.48.59,51.77,1s4.16,4.94,5.59,11.54c.13.65.28,1.3.4,2,.19.93.35,1.88.51,2.86a.75.75,0,0,1,0,.2c.55,3.41,1,7.12,1.33,11,0,.13,0,.27,0,.41.09,1.11.17,2.23.25,3.35,0,.43.06.86.08,1.29,0,.1,0,.2,0,.3l0,.55h0c0,.09,0,.19,0,.28C60.15,36.11,60.2,37.53,60.25,38.93Z"/><path class="cls-22" d="M49.64.25c3.66-1,5.45,2.49,6.13,4.21s9,2.91,9.7,2.32,1.2-2.62-5.82-4.87S51.4-.15,49.64.25Z"/><path class="cls-22" d="M77.05,42.3h0c-.12.35-1.71.3-3.85-.08h0c-.79-.14-1.65-.34-2.54-.58s-1.75-.5-2.61-.81c-2.5-.91-4.81-2.18-5.86-3.76A3.56,3.56,0,0,1,61.65,36c-.07-.32-.16-.71-.24-1.16a.31.31,0,0,1,0-.13q0-.16-.06-.36c-.09-.46-.18-1-.27-1.51-.2-1.27-.4-2.76-.61-4.37a.52.52,0,0,1,0-.11c-.53-4-1-8.89-1.31-13-.3-4.73-.31-8.44.33-8.74,0,0,1.19.1,2.61.31,1.89.27,4.21.73,4.77,1.39.83,1,1.36,1.82,2.59,4.76l.74,1.82c1.61,4,6.12,22.2,6.81,26.52,0,0,0,.06,0,.08a4.13,4.13,0,0,1,.08.76S77.06,42.29,77.05,42.3Z"/><path class="cls-5" d="M62.3,40c-.3-.13-.71-.33-1.2-.59L60.43,39c-.1-1.45-.21-2.89-.33-4.31l0-.3c0-.18,0-.37,0-.56h0c0-.1,0-.2,0-.3,0-.45-.08-.88-.11-1.31-.1-1.1-.21-2.18-.31-3.25,0-.15,0-.3,0-.45-.41-4-.84-7.77-1.24-11a.75.75,0,0,0,0-.2c-.79-6.42-1.46-10.77-1.51-11.13l.21.71A.14.14,0,0,0,57,7q1.23,4.32,2.12,8.36c1,4.64,1.78,9,2.28,13h0c.2,1.53.35,3,.48,4.43,0,.42.07.82.1,1.23l0,.36h0c.08.91.13,1.79.18,2.65S62.27,39,62.3,40Z"/><path class="cls-3" d="M49.62.26l0,0A54.72,54.72,0,0,0,39.21,5.67L39,5.78c-.82.53-1.65,1.08-2.46,1.66q-.61.42-1.23.87c-.65.46-1.29.94-1.92,1.42-.38.29-.77.58-1.14.88-1.32,1-2.62,2.08-3.89,3.14-.1-.41-.18-.81-.24-1.22,0-.23-.06-.44-.1-.66q1.76-1.44,3.4-2.65c.79-.59,1.58-1.15,2.34-1.66.39-.27.78-.52,1.17-.76s1-.64,1.48-.93l.72-.44a1.93,1.93,0,0,0,.21-.13A45.71,45.71,0,0,1,47.89.66l.37-.1,1-.25a0,0,0,0,0,0,0l.18,0s0,0,0,0Z"/><path class="cls-23" d="M56.76,6.2C56.49,6,55.25,1.72,53.06.71A5.14,5.14,0,0,0,49.3.32a9.84,9.84,0,0,1,4.64.15A4.45,4.45,0,0,1,57.4,4.23,5.14,5.14,0,0,1,56.76,6.2Z"/><path class="cls-24" d="M57.46,16.35c-.8,2.46-3.18,4.78-6.93,5.91l-.11,0c-.17.05-.35.11-.53.15a11.25,11.25,0,0,1-1.21.25h0a19.5,19.5,0,0,1-4.14.26h0l-.78,0c-.65,0-1.31-.11-2-.22l-3.63-.58c-.41-.29-1-.62-1.66-1h0l-1.25-.71c-2-1.13-4.38-2.46-5.32-3.58l0-.05a11.39,11.39,0,0,1-1.48-.41l1.25.11-.11-.15c.88,0,1.8,0,2.76.13a.65.65,0,0,1,.19,0h0l1.82.18.79.08h0l.31,0,.35,0h0l.9.1h0s0,0,0,0h0l.3,0,4,.47c1.59.18,3.13.34,4.52.4h.08a13.36,13.36,0,0,0,4.82-.42,5.44,5.44,0,0,0,2.78-1.8h0a0,0,0,0,0,0,0,1.38,1.38,0,0,0,.27-.85s0,0,0,0c0-1.1-1.27-2.21-3.56-3.06C46.66,10.41,39.2,8.87,34.57,9.51h0c-.39.06-.77.13-1.12.22a4.77,4.77,0,0,0-2.14,1,.92.92,0,0,1,0-.22,3.71,3.71,0,0,1,0-.54c0-.23.07-.51.13-.79a4.39,4.39,0,0,1,1.22-2.31h0a2.78,2.78,0,0,1,1.2-.6,21,21,0,0,1,2.56-.43l.26,0h.14a3.73,3.73,0,0,1,.47,0h.06c.61-.06,1.22-.09,1.83-.1h.89a33.58,33.58,0,0,1,7.29.83l0,0a26.79,26.79,0,0,1,3.35,1l.25.1c2.74,1,4.9,2.45,5.92,4.12a5.87,5.87,0,0,1,.4.79,5.26,5.26,0,0,1,.4,2A6.08,6.08,0,0,1,57.46,16.35Z"/><path class="cls-7" d="M31.29,10.77s-.23-1.64,3.52-2.37c6-1.19,13.81,1.12,17.21,3.22a3,3,0,0,1,1.19,4s.3-2.36-3-3.28S36.71,9.68,31.29,10.77Z"/><path class="cls-7" d="M49.82,26.25c-1.63.64-4,.53-6.67.1C41,24.66,39,23.19,38.78,22.71a1.85,1.85,0,0,0-.67-.6c-.41-.29-1-.62-1.66-1a50.3,50.3,0,0,0,6.73.84s0,0,0,0c.31,0,.62,0,.94,0a22.86,22.86,0,0,0,3.32-.17,20.62,20.62,0,0,0,2.85-.55c5.71-1.56,7.14-4.91,7.14-4.91S55.86,23.9,49.82,26.25Z"/><path class="cls-4" d="M43.11,21c-2.22,0-5-.24-7.93-.56-2-1.13-4.38-2.46-5.32-3.58l0-.05c-.6-.13-.9-.36-.23-.3l-.11-.15,0-.08c.92,0,1.87.09,2.86.18h.15q.61,0,1.23.12l.61.08.79.08h0l.31,0,.37,0h0c.3,0,.61.06.9.1h0l.3,0c1.35.17,2.68.34,3.91.52s2.6.42,3.64.67l.25.06h0l.16.05h0a8.41,8.41,0,0,1,2.29.86h0a1.12,1.12,0,0,1,.59.77C48,20.7,46.07,21,43.11,21Z"/><path class="cls-4" d="M36.71,5.82c-4.09,2.3,3.64,1.43,9.79,3.48s7.83,4.25,9.52,3.47-2.64-5.09-8.23-6.2A48.93,48.93,0,0,0,36.71,5.82Z"/><path class="cls-8" d="M44.12,6.46c-1.66.93,2.79,1.27,3.5,1S45.41,5.74,44.12,6.46Z"/><path class="cls-8" d="M56.16,1.71c-1.08-.88-.26,3.69.6,4.49S60,4.86,56.16,1.71Z"/><path class="cls-9" d="M35.08,16.69c-.47-3,5.3-4.13,6.81-3.67s4.56,3.36,4.08,4.44S35.84,21.49,35.08,16.69Z"/><path class="cls-9" d="M43,21.43c.12-3.08,7.1-3.35,7.4.4S43,23.24,43,21.43Z"/><path class="cls-9" d="M32.68,6.91c-.73-.14-.53-1.4,1.47-3A1.91,1.91,0,0,1,37.31,5.8C36.88,7,32.68,6.91,32.68,6.91Z"/><path class="cls-7" d="M35.07,16.09c.12,1.06,5.59,2.42,7.35,2.4a8.8,8.8,0,0,0,3.28-.75,11.77,11.77,0,0,1-5.14,2.4c-2.65.33-3.64-.06-4.44-.43S35.07,16.09,35.07,16.09Z"/><path class="cls-7" d="M43,21.43c.45.83,5.8,1.3,6.33,1.31s1-1.11,1-1.11a5.14,5.14,0,0,1,.14,1.76c-.13.71-.94,1.84-3.48,1.52A4.9,4.9,0,0,1,43,21.43Z"/><path class="cls-11" d="M41.89,13c-2.55-.38-2.06,1.38,1.18,2.74S44.59,13.43,41.89,13Z"/><path class="cls-11" d="M35,3.49a4.93,4.93,0,0,0-2.08,2.05c-.16.61,3.18-.53,3.48-1.3S35,3.49,35,3.49Z"/><path class="cls-10" d="M35.07,16.09c.73.71,3.73,1.5,5.1,1.73s1.5-2.86,1-3.86A1.5,1.5,0,0,0,39.83,13S35.37,13.69,35.07,16.09Z"/><path class="cls-10" d="M36.49,4c-.12-.1,0,.54.24.81a1.3,1.3,0,0,0,.53.4A1.11,1.11,0,0,0,36.49,4Z"/><path class="cls-7" d="M32.68,6.91a7.94,7.94,0,0,1,2.63-1.85,2.23,2.23,0,0,1,2,.53,1.49,1.49,0,0,1-.09.91A5.56,5.56,0,0,1,34,7.59C32.9,7.52,32.68,6.91,32.68,6.91Z"/><path class="cls-3" d="M71.73,41.8l1.45.42c-.79-.14-1.65-.34-2.54-.58-2.67-.39-5.28-.88-6.77-1.23.22-.32.48-.48.78-.39,0,0,1.47.33,3.38.81C69.18,41.12,70.49,41.45,71.73,41.8Z"/><path class="cls-25" d="M61.59,28.47c-2.46-1-6.26,2.69-2.16,5.56S64.2,29.58,61.59,28.47Z"/><path class="cls-26" d="M61.59,28.47c-1.55-.79-3.68,1.73-2.05,3.44s3.59.73,3.57,0S62.47,28.93,61.59,28.47Z"/><path class="cls-27" d="M57.89,30.5c.22-.46,1,2.69,2.24,3.42,2.24,1.34,2.47-1.32,2.63-1.09s-.71,2.82-2.78,1.82A3.66,3.66,0,0,1,57.89,30.5Z"/><path class="cls-28" d="M28.06,11.87s.46,4.32.49,4.86,8.85,4.63,9.3,5.49a27.36,27.36,0,0,0,3.57,4.43,47.33,47.33,0,0,0,5.29,3.15c.92.36,1,.93,1.3,1.28a42.47,42.47,0,0,0,5.92,4.62c1.88,1,8.37,4.26,8.37,4.26s-2.3-1.44-3-2-8.82-6.86-11.85-8.55S43,26,41.14,24.36a36,36,0,0,0-3.46-2.73c-.48-.32-6.33-4.65-7.21-5.46S28.06,11.87,28.06,11.87Z"/><path class="cls-29" d="M13,9c-.63,1.51.08,8.44.84,9.41s7.7,1.75,8.72,1.23,1.23-5.42,1.12-7.39S13.44,8,13,9Z"/><path class="cls-5" d="M12.82,9.75c-.05,1.34,9,4.71,9.51,4.47a2.92,2.92,0,0,0,.7-2.67C22.71,10.77,12.74,7.17,12.82,9.75Z"/><path class="cls-20" d="M22.31,19.73c-.77-.34-.1-4.23.15-4.89s1.19-2.73,1.19-2.73a28.13,28.13,0,0,1-.11,4.37A6.36,6.36,0,0,1,22.31,19.73Z"/><path class="cls-30" d="M25.33,21.88c-.41-1.35,2.83-3.12,3.9-3.53s2.91,2.11,3.25,4.22S29,25.09,28.06,25.16,25.33,21.88,25.33,21.88Z"/><path class="cls-5" d="M25.33,21.88c.15,1.24,3.13.78,4.22-.15s.33-2.86,0-3.12S25.13,20.16,25.33,21.88Z"/><path class="cls-20" d="M27.72,25.06C27.2,25,26.18,23,26.29,23a19.77,19.77,0,0,1,3.83-.75c.66.1,1.33,1.3,1.41,1.67S29.6,25.17,27.72,25.06Z"/></g></g></g></svg>