<svg xmlns="http://www.w3.org/2000/svg" xmlns:xlink="http://www.w3.org/1999/xlink" viewBox="0 0 104.65 103.29"><defs><style>.cls-1{fill:none;}.cls-2{isolation:isolate;}.cls-3{fill:url(#Áåçûìÿííûé_ãðàäèåíò_27);}.cls-4{fill:#740e98;}.cls-5,.cls-55,.cls-6{fill:#b82e46;}.cls-43,.cls-5,.cls-99{opacity:0.42;}.cls-10,.cls-100,.cls-101,.cls-103,.cls-104,.cls-106,.cls-108,.cls-11,.cls-111,.cls-113,.cls-116,.cls-119,.cls-122,.cls-124,.cls-126,.cls-128,.cls-13,.cls-14,.cls-140,.cls-144,.cls-149,.cls-150,.cls-151,.cls-152,.cls-153,.cls-154,.cls-155,.cls-156,.cls-16,.cls-160,.cls-161,.cls-162,.cls-163,.cls-164,.cls-167,.cls-17,.cls-170,.cls-173,.cls-176,.cls-178,.cls-19,.cls-21,.cls-25,.cls-27,.cls-28,.cls-33,.cls-36,.cls-40,.cls-41,.cls-42,.cls-43,.cls-44,.cls-46,.cls-5,.cls-50,.cls-51,.cls-52,.cls-55,.cls-57,.cls-58,.cls-6,.cls-64,.cls-66,.cls-67,.cls-70,.cls-74,.cls-75,.cls-76,.cls-77,.cls-78,.cls-79,.cls-80,.cls-81,.cls-82,.cls-83,.cls-84,.cls-85,.cls-86,.cls-87,.cls-88,.cls-89,.cls-90,.cls-91,.cls-92,.cls-93,.cls-96,.cls-98{mix-blend-mode:multiply;}.cls-147,.cls-42,.cls-6,.cls-67{opacity:0.31;}.cls-7{fill:url(#Áåçûìÿííûé_ãðàäèåíò_27-2);}.cls-148,.cls-8,.cls-9{opacity:0.83;}.cls-8{fill:url(#Áåçûìÿííûé_ãðàäèåíò_239);}.cls-9{fill:url(#Áåçûìÿííûé_ãðàäèåíò_243);}.cls-10,.cls-11,.cls-52{opacity:0.46;}.cls-10{fill:url(#Áåçûìÿííûé_ãðàäèåíò_312);}.cls-11{fill:url(#Áåçûìÿííûé_ãðàäèåíò_312-2);}.cls-12{fill:url(#Áåçûìÿííûé_ãðàäèåíò_33);}.cls-13{fill:#a13302;}.cls-13,.cls-17,.cls-28,.cls-36{opacity:0.47;}.cls-14,.cls-16,.cls-25,.cls-57,.cls-58{opacity:0.25;}.cls-14{fill:url(#Áåçûìÿííûé_ãðàäèåíò_50);}.cls-15{fill:url(#Áåçûìÿííûé_ãðàäèåíò_27-3);}.cls-16{fill:url(#Áåçûìÿííûé_ãðàäèåíò_67);}.cls-17{fill:url(#Áåçûìÿííûé_ãðàäèåíò_67-2);}.cls-18{fill:url(#Áåçûìÿííûé_ãðàäèåíò_124);}.cls-19,.cls-21{fill:#770051;}.cls-160,.cls-161,.cls-162,.cls-163,.cls-164,.cls-19,.cls-62,.cls-64,.cls-70{opacity:0.64;}.cls-20,.cls-22{opacity:0.53;}.cls-109,.cls-130,.cls-131,.cls-132,.cls-133,.cls-134,.cls-135,.cls-146,.cls-147,.cls-148,.cls-157,.cls-158,.cls-20,.cls-22,.cls-68,.cls-69,.cls-72,.cls-99{mix-blend-mode:screen;}.cls-20{fill:url(#Áåçûìÿííûé_ãðàäèåíò_85);}.cls-21,.cls-73{opacity:0.32;}.cls-22{fill:#ff8e4a;}.cls-23,.cls-53,.cls-56{fill:#7f7f7f;}.cls-23{opacity:0.13;}.cls-23,.cls-35,.cls-47,.cls-53,.cls-54,.cls-56{mix-blend-mode:color-dodge;}.cls-24{fill:#ffcaca;}.cls-25{fill:url(#Áåçûìÿííûé_ãðàäèåíò_51);}.cls-26{fill:url(#Áåçûìÿííûé_ãðàäèåíò_12);}.cls-27,.cls-35{opacity:0.28;}.cls-27{fill:url(#Áåçûìÿííûé_ãðàäèåíò_305);}.cls-28{fill:#bd2e46;}.cls-29{fill:#3d101f;}.cls-30{clip-path:url(#clip-path);}.cls-31{fill:url(#Áåçûìÿííûé_ãðàäèåíò_288);}.cls-32{fill:url(#Áåçûìÿííûé_ãðàäèåíò_8183);}.cls-33,.cls-40{opacity:0.68;}.cls-33{fill:url(#Áåçûìÿííûé_ãðàäèåíò_8175);}.cls-34{fill:#ffeaef;}.cls-35{fill:#ce8600;}.cls-36,.cls-44{fill:#9e2e46;}.cls-37{clip-path:url(#clip-path-2);}.cls-38{fill:url(#Áåçûìÿííûé_ãðàäèåíò_288-2);}.cls-39{fill:url(#Áåçûìÿííûé_ãðàäèåíò_8183-2);}.cls-40{fill:url(#Áåçûìÿííûé_ãðàäèåíò_8175-2);}.cls-41{opacity:0.74;fill:url(#Áåçûìÿííûé_ãðàäèåíò_297);}.cls-42{fill:#c72e46;}.cls-43{fill:url(#Áåçûìÿííûé_ãðàäèåíò_300);}.cls-44{opacity:0.11;}.cls-45{fill:url(#Áåçûìÿííûé_ãðàäèåíò_313);}.cls-46{fill:#d8659f;}.cls-47{fill:#c0482d;}.cls-48{fill:#a0202a;}.cls-49{fill:#ffe7ed;}.cls-50{fill:#a53773;opacity:0.35;}.cls-51{opacity:0.56;fill:url(#Áåçûìÿííûé_ãðàäèåíò_232);}.cls-52{fill:#9e0056;}.cls-53{opacity:0.2;}.cls-54,.cls-72{fill:#ae6f27;}.cls-54,.cls-66{opacity:0.38;}.cls-144,.cls-55{opacity:0.39;}.cls-56{opacity:0.36;}.cls-57{fill:url(#Áåçûìÿííûé_ãðàäèåíò_51-2);}.cls-58{fill:url(#Áåçûìÿííûé_ãðàäèåíò_51-3);}.cls-59{fill:#7f6491;}.cls-60,.cls-62{fill:#b46c9e;}.cls-61{fill:#ecd5db;}.cls-63{fill:#a56fa1;}.cls-64{fill:url(#Áåçûìÿííûé_ãðàäèåíò_94);}.cls-65{fill:url(#Áåçûìÿííûé_ãðàäèåíò_201);}.cls-66{fill:url(#Áåçûìÿííûé_ãðàäèåíò_526);}.cls-67{fill:#900040;}.cls-68,.cls-72{opacity:0.54;}.cls-68{fill:url(#Áåçûìÿííûé_ãðàäèåíò_484);}.cls-69{fill:#ff9751;}.cls-70{fill:url(#Áåçûìÿííûé_ãðàäèåíò_94-2);}.cls-71{fill:url(#Áåçûìÿííûé_ãðàäèåíò_427);}.cls-74{fill:url(#Áåçûìÿííûé_ãðàäèåíò_428);}.cls-75{fill:url(#Áåçûìÿííûé_ãðàäèåíò_428-2);}.cls-76{fill:url(#Áåçûìÿííûé_ãðàäèåíò_428-3);}.cls-77{fill:url(#Áåçûìÿííûé_ãðàäèåíò_428-4);}.cls-78{fill:url(#Áåçûìÿííûé_ãðàäèåíò_428-5);}.cls-79{fill:url(#Áåçûìÿííûé_ãðàäèåíò_428-6);}.cls-80{fill:url(#Áåçûìÿííûé_ãðàäèåíò_428-7);}.cls-81{fill:url(#Áåçûìÿííûé_ãðàäèåíò_428-8);}.cls-82{fill:url(#Áåçûìÿííûé_ãðàäèåíò_428-9);}.cls-83{fill:url(#Áåçûìÿííûé_ãðàäèåíò_428-10);}.cls-84{fill:url(#Áåçûìÿííûé_ãðàäèåíò_428-11);}.cls-85{fill:#f57281;}.cls-86{fill:url(#Áåçûìÿííûé_ãðàäèåíò_428-12);}.cls-87{fill:url(#Áåçûìÿííûé_ãðàäèåíò_428-13);}.cls-88{fill:url(#Áåçûìÿííûé_ãðàäèåíò_428-14);}.cls-89{fill:url(#Áåçûìÿííûé_ãðàäèåíò_428-15);}.cls-90{fill:url(#Áåçûìÿííûé_ãðàäèåíò_428-16);}.cls-91{fill:url(#Áåçûìÿííûé_ãðàäèåíò_428-17);}.cls-101,.cls-92{fill:#b0295b;}.cls-92{opacity:0.22;}.cls-93{fill:#ba767b;}.cls-100,.cls-103,.cls-113,.cls-124,.cls-126,.cls-93,.cls-98{opacity:0.48;}.cls-94{fill:url(#Áåçûìÿííûé_ãðàäèåíò_425);}.cls-95{fill:#4a0002;}.cls-111,.cls-96{fill:#b01c52;}.cls-97{fill:url(#Áåçûìÿííûé_ãðàäèåíò_1054);}.cls-98{fill:url(#Áåçûìÿííûé_ãðàäèåíò_30);}.cls-99{fill:#ffd9e0;}.cls-100{fill:#f99f9d;}.cls-101,.cls-146{opacity:0.51;}.cls-102{fill:url(#Áåçûìÿííûé_ãðàäèåíò_1054-2);}.cls-103{fill:url(#Áåçûìÿííûé_ãðàäèåíò_30-2);}.cls-104{fill:#faa4a1;opacity:0.24;}.cls-105{fill:url(#Áåçûìÿííûé_ãðàäèåíò_21);}.cls-106{fill:#869c00;}.cls-107{fill:url(#Áåçûìÿííûé_ãðàäèåíò_28);}.cls-108,.cls-116,.cls-119,.cls-122,.cls-128,.cls-140,.cls-167,.cls-170,.cls-173,.cls-176,.cls-178{opacity:0.58;}.cls-108{fill:url(#Áåçûìÿííûé_ãðàäèåíò_20);}.cls-109{fill:#fe5164;}.cls-110{fill:#f8e8ff;}.cls-111{opacity:0.6;}.cls-112{fill:url(#Áåçûìÿííûé_ãðàäèåíò_1054-3);}.cls-113{fill:url(#Áåçûìÿííûé_ãðàäèåíò_30-3);}.cls-114{fill:url(#Áåçûìÿííûé_ãðàäèåíò_21-2);}.cls-115{fill:url(#Áåçûìÿííûé_ãðàäèåíò_28-2);}.cls-116{fill:url(#Áåçûìÿííûé_ãðàäèåíò_20-2);}.cls-117{fill:url(#Áåçûìÿííûé_ãðàäèåíò_21-3);}.cls-118{fill:url(#Áåçûìÿííûé_ãðàäèåíò_28-3);}.cls-119{fill:url(#Áåçûìÿííûé_ãðàäèåíò_20-3);}.cls-120{fill:url(#Áåçûìÿííûé_ãðàäèåíò_21-4);}.cls-121{fill:url(#Áåçûìÿííûé_ãðàäèåíò_28-4);}.cls-122{fill:url(#Áåçûìÿííûé_ãðàäèåíò_20-4);}.cls-123{fill:url(#Áåçûìÿííûé_ãðàäèåíò_1054-4);}.cls-124{fill:url(#Áåçûìÿííûé_ãðàäèåíò_30-4);}.cls-125{fill:url(#Áåçûìÿííûé_ãðàäèåíò_1054-5);}.cls-126{fill:url(#Áåçûìÿííûé_ãðàäèåíò_30-5);}.cls-127{fill:url(#Áåçûìÿííûé_ãðàäèåíò_28-5);}.cls-128{fill:url(#Áåçûìÿííûé_ãðàäèåíò_20-5);}.cls-129{fill:url(#Áåçûìÿííûé_ãðàäèåíò_21-5);}.cls-130{fill:#605d00;opacity:0.66;}.cls-131{fill:url(#Áåçûìÿííûé_ãðàäèåíò_18);}.cls-132{fill:url(#Áåçûìÿííûé_ãðàäèåíò_18-2);}.cls-133{fill:url(#Áåçûìÿííûé_ãðàäèåíò_18-3);}.cls-134{fill:url(#Áåçûìÿííûé_ãðàäèåíò_18-4);}.cls-135{fill:url(#Áåçûìÿííûé_ãðàäèåíò_18-5);}.cls-136{fill:#e98e5e;}.cls-137{clip-path:url(#clip-path-3);}.cls-138{fill:url(#Áåçûìÿííûé_ãðàäèåíò_21-6);}.cls-139{fill:url(#Áåçûìÿííûé_ãðàäèåíò_28-6);}.cls-140{fill:url(#Áåçûìÿííûé_ãðàäèåíò_20-6);}.cls-141{fill:url(#Áåçûìÿííûé_ãðàäèåíò_23);}.cls-142{fill:url(#Áåçûìÿííûé_ãðàäèåíò_418);}.cls-143{fill:url(#Áåçûìÿííûé_ãðàäèåíò_418-2);}.cls-144{fill:#880467;}.cls-145{fill:url(#Áåçûìÿííûé_ãðàäèåíò_416);}.cls-146{fill:#d73362;}.cls-147{fill:#fcb8a7;}.cls-148{fill:#681b05;}.cls-149{fill:url(#Áåçûìÿííûé_ãðàäèåíò_428-18);}.cls-150{fill:url(#Áåçûìÿííûé_ãðàäèåíò_428-19);}.cls-151{fill:url(#Áåçûìÿííûé_ãðàäèåíò_428-20);}.cls-152{fill:url(#Áåçûìÿííûé_ãðàäèåíò_428-21);}.cls-153{fill:url(#Áåçûìÿííûé_ãðàäèåíò_428-22);}.cls-154{fill:url(#Áåçûìÿííûé_ãðàäèåíò_428-23);}.cls-155{fill:url(#Áåçûìÿííûé_ãðàäèåíò_428-24);}.cls-156{fill:url(#Áåçûìÿííûé_ãðàäèåíò_428-25);}.cls-157{fill:url(#Áåçûìÿííûé_ãðàäèåíò_18-6);}.cls-158{fill:url(#Áåçûìÿííûé_ãðàäèåíò_18-7);}.cls-159{fill:#fff;}.cls-160{fill:url(#Áåçûìÿííûé_ãðàäèåíò_98);}.cls-161{fill:url(#Áåçûìÿííûé_ãðàäèåíò_98-2);}.cls-162{fill:url(#Áåçûìÿííûé_ãðàäèåíò_98-3);}.cls-163{fill:url(#Áåçûìÿííûé_ãðàäèåíò_98-4);}.cls-164{fill:url(#Áåçûìÿííûé_ãðàäèåíò_98-5);}.cls-165{fill:url(#Áåçûìÿííûé_ãðàäèåíò_21-7);}.cls-166{fill:url(#Áåçûìÿííûé_ãðàäèåíò_28-7);}.cls-167{fill:url(#Áåçûìÿííûé_ãðàäèåíò_20-7);}.cls-168{fill:url(#Áåçûìÿííûé_ãðàäèåíò_21-8);}.cls-169{fill:url(#Áåçûìÿííûé_ãðàäèåíò_28-8);}.cls-170{fill:url(#Áåçûìÿííûé_ãðàäèåíò_20-8);}.cls-171{fill:url(#Áåçûìÿííûé_ãðàäèåíò_21-9);}.cls-172{fill:url(#Áåçûìÿííûé_ãðàäèåíò_28-9);}.cls-173{fill:url(#Áåçûìÿííûé_ãðàäèåíò_20-9);}.cls-174{fill:url(#Áåçûìÿííûé_ãðàäèåíò_21-10);}.cls-175{fill:url(#Áåçûìÿííûé_ãðàäèåíò_28-10);}.cls-176{fill:url(#Áåçûìÿííûé_ãðàäèåíò_20-10);}.cls-177{fill:url(#Áåçûìÿííûé_ãðàäèåíò_28-11);}.cls-178{fill:url(#Áåçûìÿííûé_ãðàäèåíò_20-11);}.cls-179{fill:url(#Áåçûìÿííûé_ãðàäèåíò_21-11);}</style><linearGradient id="Áåçûìÿííûé_ãðàäèåíò_27" x1="294.91" y1="42.93" x2="294.91" y2="37.84" gradientTransform="matrix(-1, 0, 0, 1, 365.57, 0)" gradientUnits="userSpaceOnUse"><stop offset="0" stop-color="#ffbead"/><stop offset="0.56" stop-color="#ff937e"/></linearGradient><linearGradient id="Áåçûìÿííûé_ãðàäèåíò_27-2" x1="297.02" y1="37" x2="297.02" y2="23.91" xlink:href="#Áåçûìÿííûé_ãðàäèåíò_27"/><linearGradient id="Áåçûìÿííûé_ãðàäèåíò_239" x1="300.97" y1="19.69" x2="296.44" y2="19.69" gradientTransform="matrix(-1, 0, 0, 1, 365.57, 0)" gradientUnits="userSpaceOnUse"><stop offset="0" stop-color="#911a30"/><stop offset="1" stop-color="#ac3b39"/></linearGradient><linearGradient id="Áåçûìÿííûé_ãðàäèåíò_243" x1="308.46" y1="20.94" x2="306.5" y2="20.94" gradientTransform="matrix(-1, 0, 0, 1, 365.57, 0)" gradientUnits="userSpaceOnUse"><stop offset="0" stop-color="#ad3b39"/><stop offset="1" stop-color="#911a30"/></linearGradient><linearGradient id="Áåçûìÿííûé_ãðàäèåíò_312" x1="297.9" y1="27.08" x2="297.9" y2="19.46" gradientTransform="matrix(-1, 0, 0, 1, 365.57, 0)" gradientUnits="userSpaceOnUse"><stop offset="0.38" stop-color="#fff"/><stop offset="1" stop-color="#a53773"/></linearGradient><linearGradient id="Áåçûìÿííûé_ãðàäèåíò_312-2" x1="306.49" y1="27.09" x2="306.49" y2="20.56" xlink:href="#Áåçûìÿííûé_ãðàäèåíò_312"/><linearGradient id="Áåçûìÿííûé_ãðàäèåíò_33" x1="294.84" y1="81.77" x2="294.84" y2="30.11" gradientTransform="matrix(-1, 0, 0, 1, 365.57, 0)" gradientUnits="userSpaceOnUse"><stop offset="0" stop-color="#fec337"/><stop offset="0.09" stop-color="#feb936"/><stop offset="0.5" stop-color="#ff8a33"/><stop offset="0.82" stop-color="#ff6e31"/><stop offset="1" stop-color="#ff6330"/></linearGradient><linearGradient id="Áåçûìÿííûé_ãðàäèåíò_50" x1="299.44" y1="83.5" x2="299.44" y2="55.86" gradientTransform="matrix(-1, 0, 0, 1, 365.57, 0)" gradientUnits="userSpaceOnUse"><stop offset="0" stop-color="#fff"/><stop offset="0.06" stop-color="#fcf8f6"/><stop offset="0.15" stop-color="#f5e4df"/><stop offset="0.26" stop-color="#e9c3b8"/><stop offset="0.4" stop-color="#d89682"/><stop offset="0.54" stop-color="#c35e3f"/><stop offset="0.67" stop-color="#b02900"/></linearGradient><linearGradient id="Áåçûìÿííûé_ãðàäèåíò_27-3" x1="325.85" y1="68.67" x2="325.85" y2="39.24" xlink:href="#Áåçûìÿííûé_ãðàäèåíò_27"/><linearGradient id="Áåçûìÿííûé_ãðàäèåíò_67" x1="297.81" y1="63.7" x2="297.81" y2="59.3" gradientTransform="matrix(-1, 0, 0, 1, 365.57, 0)" gradientUnits="userSpaceOnUse"><stop offset="0" stop-color="#fff"/><stop offset="1" stop-color="#a13302"/></linearGradient><linearGradient id="Áåçûìÿííûé_ãðàäèåíò_67-2" x1="298.12" y1="45.8" x2="298.12" y2="43.42" xlink:href="#Áåçûìÿííûé_ãðàäèåíò_67"/><linearGradient id="Áåçûìÿííûé_ãðàäèåíò_124" x1="341.91" y1="68.74" x2="284.57" y2="126.08" gradientTransform="matrix(-1, 0, 0, 1, 365.57, 0)" gradientUnits="userSpaceOnUse"><stop offset="0" stop-color="#f5af69"/><stop offset="0.2" stop-color="#f4aa66"/><stop offset="0.44" stop-color="#f09c5c"/><stop offset="0.7" stop-color="#e9844c"/><stop offset="0.81" stop-color="#e67843"/></linearGradient><linearGradient id="Áåçûìÿííûé_ãðàäèåíò_85" x1="290.72" y1="65.59" x2="336.09" y2="110.95" gradientTransform="matrix(-1, 0, 0, 1, 365.57, 0)" gradientUnits="userSpaceOnUse"><stop offset="0"/><stop offset="1" stop-color="#ff8e4a"/></linearGradient><linearGradient id="Áåçûìÿííûé_ãðàäèåíò_51" x1="309.2" y1="86.13" x2="309.2" y2="64.44" gradientTransform="matrix(-1, 0, 0, 1, 365.57, 0)" gradientUnits="userSpaceOnUse"><stop offset="0" stop-color="#fff"/><stop offset="0" stop-color="#fefdfe"/><stop offset="0.11" stop-color="#dbcae0"/><stop offset="0.22" stop-color="#bc9dc5"/><stop offset="0.33" stop-color="#a277af"/><stop offset="0.45" stop-color="#8d589c"/><stop offset="0.57" stop-color="#7d408e"/><stop offset="0.69" stop-color="#712e84"/><stop offset="0.83" stop-color="#6a247e"/><stop offset="1" stop-color="#68217c"/></linearGradient><linearGradient id="Áåçûìÿííûé_ãðàäèåíò_12" x1="314.38" y1="64.87" x2="295.47" y2="64.87" gradientTransform="matrix(-1, 0, 0, 1, 365.57, 0)" gradientUnits="userSpaceOnUse"><stop offset="0" stop-color="#ffbead"/><stop offset="1" stop-color="#ff937e"/></linearGradient><linearGradient id="Áåçûìÿííûé_ãðàäèåíò_305" x1="298.34" y1="33.54" x2="300.42" y2="24.02" gradientTransform="matrix(-1, 0, 0, 1, 365.57, 0)" gradientUnits="userSpaceOnUse"><stop offset="0.22" stop-color="#fff"/><stop offset="1" stop-color="#c73773"/></linearGradient><clipPath id="clip-path"><path class="cls-1" d="M70.47,24.44c-.14-.83-2.14-2.83-3.81-1.91s-1.11,3.3-1,3.7,1.68,1.13,3.11.6A2.47,2.47,0,0,0,70.47,24.44Z"/></clipPath><linearGradient id="Áåçûìÿííûé_ãðàäèåíò_288" x1="297.58" y1="27.02" x2="297.58" y2="23.56" gradientTransform="matrix(-1, 0, 0, 1, 365.57, 0)" gradientUnits="userSpaceOnUse"><stop offset="0" stop-color="#f1c1b5"/><stop offset="0.47" stop-color="#fff0ea"/></linearGradient><linearGradient id="Áåçûìÿííûé_ãðàäèåíò_8183" x1="3255.38" y1="-59.83" x2="3255.38" y2="-63.22" gradientTransform="matrix(1.03, 0.19, -0.19, 0.99, -3288.34, -544.14)" gradientUnits="userSpaceOnUse"><stop offset="0" stop-color="#613b62"/><stop offset="0.5" stop-color="#602953"/><stop offset="1" stop-color="#601b48"/></linearGradient><linearGradient id="Áåçûìÿííûé_ãðàäèåíò_8175" x1="3436.06" y1="-22.18" x2="3436.06" y2="-23.95" gradientTransform="matrix(0.9, 0.17, -0.18, 0.9, -3031.09, -551.91)" gradientUnits="userSpaceOnUse"><stop offset="0" stop-color="#601b48"/><stop offset="0.5" stop-color="#602953"/><stop offset="1" stop-color="#613b62"/></linearGradient><clipPath id="clip-path-2"><path class="cls-1" d="M60.74,26.61c-.17-1.29-1-3.39-1.85-3.33s-.3,2-.19,2.34a2.7,2.7,0,0,0,1.14,1.59A.59.59,0,0,0,60.74,26.61Z"/></clipPath><linearGradient id="Áåçûìÿííûé_ãðàäèåíò_288-2" x1="313.61" y1="29.69" x2="313.61" y2="26.72" gradientTransform="matrix(-1, 0, 0.03, 0.99, 372.33, -2.09)" xlink:href="#Áåçûìÿííûé_ãðàäèåíò_288"/><linearGradient id="Áåçûìÿííûé_ãðàäèåíò_8183-2" x1="5305.48" y1="351.49" x2="5305.48" y2="347.44" gradientTransform="matrix(0.77, -0.13, 0.08, 0.82, -4058.18, 415.74)" xlink:href="#Áåçûìÿííûé_ãðàäèåíò_8183"/><linearGradient id="Áåçûìÿííûé_ãðàäèåíò_8175-2" x1="4680.74" y1="-157.73" x2="4680.74" y2="-159.74" gradientTransform="matrix(0.81, 0, -0.07, 0.82, -3758.42, 165.91)" xlink:href="#Áåçûìÿííûé_ãðàäèåíò_8175"/><linearGradient id="Áåçûìÿííûé_ãðàäèåíò_297" x1="302.91" y1="30.66" x2="302.91" y2="29.54" gradientTransform="matrix(-1, 0, 0, 1, 365.57, 0)" gradientUnits="userSpaceOnUse"><stop offset="0" stop-color="#cc3773"/><stop offset="1" stop-color="#fff"/></linearGradient><linearGradient id="Áåçûìÿííûé_ãðàäèåíò_300" x1="302.96" y1="32.14" x2="302.96" y2="27.89" gradientTransform="matrix(-1, 0, 0, 1, 365.57, 0)" gradientUnits="userSpaceOnUse"><stop offset="0.27" stop-color="#c73773"/><stop offset="0.75" stop-color="#fff"/></linearGradient><linearGradient id="Áåçûìÿííûé_ãðàäèåíò_313" x1="294.55" y1="26.46" x2="293.71" y2="7.5" gradientTransform="matrix(-1, 0, 0, 1, 365.57, 0)" gradientUnits="userSpaceOnUse"><stop offset="0.39" stop-color="#911a30"/><stop offset="1" stop-color="#c75b41"/></linearGradient><linearGradient id="Áåçûìÿííûé_ãðàäèåíò_232" x1="286.66" y1="25.57" x2="288.89" y2="25.57" gradientTransform="matrix(-1, 0, 0, 1, 365.57, 0)" gradientUnits="userSpaceOnUse"><stop offset="0.1" stop-color="#fff"/><stop offset="1" stop-color="#a53773"/></linearGradient><linearGradient id="Áåçûìÿííûé_ãðàäèåíò_51-2" x1="313.9" y1="76.67" x2="313.9" y2="67.6" xlink:href="#Áåçûìÿííûé_ãðàäèåíò_51"/><linearGradient id="Áåçûìÿííûé_ãðàäèåíò_51-3" x1="306.09" y1="83.99" x2="306.09" y2="72.43" xlink:href="#Áåçûìÿííûé_ãðàäèåíò_51"/><linearGradient id="Áåçûìÿííûé_ãðàäèåíò_94" x1="298.42" y1="93.03" x2="355.33" y2="93.03" gradientTransform="matrix(-1, 0, 0, 1, 365.57, 0)" gradientUnits="userSpaceOnUse"><stop offset="0" stop-color="#fff"/><stop offset="1" stop-color="#a10051"/></linearGradient><linearGradient id="Áåçûìÿííûé_ãðàäèåíò_201" x1="-3735.12" y1="90.25" x2="-3688.34" y2="90.25" gradientTransform="matrix(-1, 0, 0, 1, -3676.61, 0)" gradientUnits="userSpaceOnUse"><stop offset="0" stop-color="#b3383b"/><stop offset="1" stop-color="#e06a3a"/></linearGradient><linearGradient id="Áåçûìÿííûé_ãðàäèåíò_526" x1="-3735.14" y1="90.06" x2="-3695.33" y2="90.06" gradientTransform="matrix(-1, 0, 0, 1, -3676.61, 0)" gradientUnits="userSpaceOnUse"><stop offset="0" stop-color="#fff"/><stop offset="0.06" stop-color="#eac7e6"/><stop offset="0.13" stop-color="#d693cf"/><stop offset="0.2" stop-color="#c566bb"/><stop offset="0.27" stop-color="#b841aa"/><stop offset="0.34" stop-color="#ad259d"/><stop offset="0.41" stop-color="#a51094"/><stop offset="0.48" stop-color="#a1048f"/><stop offset="0.54" stop-color="#9f008d"/></linearGradient><linearGradient id="Áåçûìÿííûé_ãðàäèåíò_484" x1="-3711.4" y1="89.41" x2="-3688.39" y2="89.41" gradientTransform="matrix(-1, 0, 0, 1, -3676.61, 0)" gradientUnits="userSpaceOnUse"><stop offset="0"/><stop offset="1" stop-color="#ff9751"/></linearGradient><linearGradient id="Áåçûìÿííûé_ãðàäèåíò_94-2" x1="313.56" y1="87.59" x2="349.13" y2="87.59" xlink:href="#Áåçûìÿííûé_ãðàäèåíò_94"/><linearGradient id="Áåçûìÿííûé_ãðàäèåíò_427" x1="330.18" y1="87.57" x2="330.18" y2="73.76" gradientTransform="matrix(-1, 0, 0, 1, 365.57, 0)" gradientUnits="userSpaceOnUse"><stop offset="0" stop-color="#ff847f"/><stop offset="0.16" stop-color="#ff968d"/><stop offset="0.52" stop-color="#ffb8a6"/><stop offset="0.81" stop-color="#ffccb6"/><stop offset="1" stop-color="#ffd4bc"/></linearGradient><linearGradient id="Áåçûìÿííûé_ãðàäèåíò_428" x1="319.21" y1="84.53" x2="319.21" y2="82.25" gradientTransform="matrix(-1, 0, 0, 1, 365.57, 0)" gradientUnits="userSpaceOnUse"><stop offset="0" stop-color="#ffd9c2"/><stop offset="0.19" stop-color="#fecbb9"/><stop offset="0.55" stop-color="#faa7a3"/><stop offset="1" stop-color="#f57281"/></linearGradient><linearGradient id="Áåçûìÿííûé_ãðàäèåíò_428-2" x1="326.37" y1="244.71" x2="326.37" y2="242.42" gradientTransform="matrix(-0.44, -0.44, -0.5, 0.5, 298.25, 99.49)" xlink:href="#Áåçûìÿííûé_ãðàäèåíò_428"/><linearGradient id="Áåçûìÿííûé_ãðàäèåíò_428-3" x1="281.78" y1="227.86" x2="281.78" y2="225.58" gradientTransform="matrix(-0.79, -0.78, -0.56, 0.57, 372.46, 166.13)" xlink:href="#Áåçûìÿííûé_ãðàäèåíò_428"/><linearGradient id="Áåçûìÿííûé_ãðàäèåíò_428-4" x1="294.38" y1="155.41" x2="294.38" y2="154.62" gradientTransform="matrix(-0.91, -0.4, -0.4, 0.91, 378.85, 62.21)" xlink:href="#Áåçûìÿííûé_ãðàäèåíò_428"/><linearGradient id="Áåçûìÿííûé_ãðàäèåíò_428-5" x1="237.05" y1="225.79" x2="237.05" y2="225" gradientTransform="matrix(-0.44, -0.77, -0.87, 0.49, 335.83, 153.46)" xlink:href="#Áåçûìÿííûé_ãðàäèåíò_428"/><linearGradient id="Áåçûìÿííûé_ãðàäèåíò_428-6" x1="234.11" y1="219.88" x2="234.11" y2="219.09" gradientTransform="matrix(-0.44, -0.77, -0.87, 0.49, 335.83, 153.46)" xlink:href="#Áåçûìÿííûé_ãðàäèåíò_428"/><linearGradient id="Áåçûìÿííûé_ãðàäèåíò_428-7" x1="234.6" y1="232.89" x2="234.6" y2="232.1" gradientTransform="matrix(-0.44, -0.77, -0.87, 0.49, 335.83, 153.46)" xlink:href="#Áåçûìÿííûé_ãðàäèåíò_428"/><linearGradient id="Áåçûìÿííûé_ãðàäèåíò_428-8" x1="247.22" y1="239.92" x2="247.22" y2="239.13" gradientTransform="matrix(-0.44, -0.77, -0.87, 0.49, 335.83, 153.46)" xlink:href="#Áåçûìÿííûé_ãðàäèåíò_428"/><linearGradient id="Áåçûìÿííûé_ãðàäèåíò_428-9" x1="243.05" y1="105.61" x2="243.05" y2="105.16" gradientTransform="matrix(-1.58, -0.7, -0.89, 2, 515.86, 40.47)" xlink:href="#Áåçûìÿííûé_ãðàäèåíò_428"/><linearGradient id="Áåçûìÿííûé_ãðàäèåíò_428-10" x1="233.6" y1="99.47" x2="233.6" y2="98.98" gradientTransform="matrix(-1.99, -0.88, -1.12, 2.54, 600.53, 35.37)" xlink:href="#Áåçûìÿííûé_ãðàäèåíò_428"/><linearGradient id="Áåçûìÿííûé_ãðàäèåíò_428-11" x1="348.44" y1="144.77" x2="348.44" y2="144.28" gradientTransform="matrix(-0.69, -0.3, -0.45, 1.01, 329.74, 40.63)" xlink:href="#Áåçûìÿííûé_ãðàäèåíò_428"/><linearGradient id="Áåçûìÿííûé_ãðàäèåíò_428-12" x1="339.37" y1="137.66" x2="339.37" y2="137.17" gradientTransform="matrix(-0.69, -0.3, -0.45, 1.01, 329.74, 40.63)" xlink:href="#Áåçûìÿííûé_ãðàäèåíò_428"/><linearGradient id="Áåçûìÿííûé_ãðàäèåíò_428-13" x1="325.07" y1="142.2" x2="325.07" y2="141.71" gradientTransform="matrix(-0.69, -0.3, -0.45, 1.01, 329.74, 40.63)" xlink:href="#Áåçûìÿííûé_ãðàäèåíò_428"/><linearGradient id="Áåçûìÿííûé_ãðàäèåíò_428-14" x1="318.99" y1="136.37" x2="318.99" y2="135.88" gradientTransform="matrix(-0.69, -0.3, -0.45, 1.01, 329.74, 40.63)" xlink:href="#Áåçûìÿííûé_ãðàäèåíò_428"/><linearGradient id="Áåçûìÿííûé_ãðàäèåíò_428-15" x1="271.71" y1="139.22" x2="271.71" y2="138.73" gradientTransform="matrix(-1.22, -0.54, -0.47, 1.06, 424.43, 82.91)" xlink:href="#Áåçûìÿííûé_ãðàäèåíò_428"/><linearGradient id="Áåçûìÿííûé_ãðàäèåíò_428-16" x1="258.6" y1="127.18" x2="258.6" y2="126.69" gradientTransform="matrix(-1.22, -0.54, -0.47, 1.06, 424.43, 82.91)" xlink:href="#Áåçûìÿííûé_ãðàäèåíò_428"/><linearGradient id="Áåçûìÿííûé_ãðàäèåíò_428-17" x1="256.2" y1="108.26" x2="256.2" y2="107.77" gradientTransform="matrix(-1.61, -0.71, -0.73, 1.64, 510.77, 80.62)" xlink:href="#Áåçûìÿííûé_ãðàäèåíò_428"/><linearGradient id="Áåçûìÿííûé_ãðàäèåíò_425" x1="330.24" y1="88.75" x2="330.24" y2="68.3" gradientTransform="matrix(-1, 0, 0, 1, 365.57, 0)" gradientUnits="userSpaceOnUse"><stop offset="0.63" stop-color="#6b0c06"/><stop offset="0.66" stop-color="#721109"/><stop offset="0.78" stop-color="#8a2013"/><stop offset="0.9" stop-color="#982919"/><stop offset="1" stop-color="#9d2c1b"/></linearGradient><linearGradient id="Áåçûìÿííûé_ãðàäèåíò_1054" x1="331.54" y1="22.64" x2="333.93" y2="14.03" gradientTransform="matrix(-1.04, 0.22, 0, 1, 370.78, -24.41)" gradientUnits="userSpaceOnUse"><stop offset="0" stop-color="#f57c92"/><stop offset="0.27" stop-color="#f99eb5"/><stop offset="0.57" stop-color="#fcbed5"/><stop offset="0.83" stop-color="#fed2ea"/><stop offset="1" stop-color="#ffd9f1"/></linearGradient><linearGradient id="Áåçûìÿííûé_ãðàäèåíò_30" x1="331.51" y1="22.45" x2="333.65" y2="14.75" gradientTransform="matrix(-1.04, 0.22, 0, 1, 370.78, -24.41)" gradientUnits="userSpaceOnUse"><stop offset="0" stop-color="#f57281"/><stop offset="0.45" stop-color="#faa7a3"/><stop offset="0.81" stop-color="#fecbb9"/><stop offset="1" stop-color="#ffd9c2"/></linearGradient><linearGradient id="Áåçûìÿííûé_ãðàäèåíò_1054-2" x1="308.26" y1="27.97" x2="310.65" y2="19.36" xlink:href="#Áåçûìÿííûé_ãðàäèåíò_1054"/><linearGradient id="Áåçûìÿííûé_ãðàäèåíò_30-2" x1="308.23" y1="27.78" x2="310.37" y2="20.08" xlink:href="#Áåçûìÿííûé_ãðàäèåíò_30"/><linearGradient id="Áåçûìÿííûé_ãðàäèåíò_21" x1="324.82" y1="62.56" x2="320.08" y2="67.3" gradientTransform="matrix(-1, 0, 0, 1, 365.57, 0)" gradientUnits="userSpaceOnUse"><stop offset="0" stop-color="#86ae00"/><stop offset="1" stop-color="#605d00"/></linearGradient><linearGradient id="Áåçûìÿííûé_ãðàäèåíò_28" x1="-41.25" y1="65.13" x2="-38.13" y2="68.24" gradientTransform="translate(80.61)" gradientUnits="userSpaceOnUse"><stop offset="0.27" stop-color="#e7001d"/><stop offset="1" stop-color="#9f0012"/></linearGradient><linearGradient id="Áåçûìÿííûé_ãðàäèåíò_20" x1="-43.01" y1="66.83" x2="-37.45" y2="66.83" gradientTransform="translate(80.61)" gradientUnits="userSpaceOnUse"><stop offset="0" stop-color="#fff"/><stop offset="0.02" stop-color="#faedee"/><stop offset="0.09" stop-color="#e6a6ac"/><stop offset="0.17" stop-color="#d56b75"/><stop offset="0.23" stop-color="#c73d4a"/><stop offset="0.29" stop-color="#be1c2c"/><stop offset="0.34" stop-color="#b80719"/><stop offset="0.37" stop-color="#b60012"/></linearGradient><linearGradient id="Áåçûìÿííûé_ãðàäèåíò_1054-3" x1="319.78" y1="24.67" x2="321.92" y2="16.99" xlink:href="#Áåçûìÿííûé_ãðàäèåíò_1054"/><linearGradient id="Áåçûìÿííûé_ãðàäèåíò_30-3" x1="319.72" y1="24.6" x2="321.78" y2="17.2" xlink:href="#Áåçûìÿííûé_ãðàäèåíò_30"/><linearGradient id="Áåçûìÿííûé_ãðàäèåíò_21-2" x1="347.49" y1="65.89" x2="343.87" y2="69.5" xlink:href="#Áåçûìÿííûé_ãðàäèåíò_21"/><linearGradient id="Áåçûìÿííûé_ãðàäèåíò_28-2" x1="35.61" y1="67.85" x2="39.36" y2="71.6" gradientTransform="translate(-14.75)" xlink:href="#Áåçûìÿííûé_ãðàäèåíò_28"/><linearGradient id="Áåçûìÿííûé_ãðàäèåíò_20-2" x1="34.62" y1="69.97" x2="40.21" y2="69.97" gradientTransform="translate(-14.75)" xlink:href="#Áåçûìÿííûé_ãðàäèåíò_20"/><linearGradient id="Áåçûìÿííûé_ãðàäèåíò_21-3" x1="318.16" y1="64.85" x2="312.11" y2="70.9" xlink:href="#Áåçûìÿííûé_ãðàäèåíò_21"/><linearGradient id="Áåçûìÿííûé_ãðàäèåíò_28-3" x1="319.24" y1="68.27" x2="315.98" y2="71.53" gradientTransform="matrix(-1, 0, 0, 1, 365.57, 0)" xlink:href="#Áåçûìÿííûé_ãðàäèåíò_28"/><linearGradient id="Áåçûìÿííûé_ãðàäèåíò_20-3" x1="321.68" y1="69.71" x2="315.17" y2="69.71" gradientTransform="matrix(-1, 0, 0, 1, 365.57, 0)" xlink:href="#Áåçûìÿííûé_ãðàäèåíò_20"/><linearGradient id="Áåçûìÿííûé_ãðàäèåíò_21-4" x1="339.13" y1="64.26" x2="336.49" y2="66.9" xlink:href="#Áåçûìÿííûé_ãðàäèåíò_21"/><linearGradient id="Áåçûìÿííûé_ãðàäèåíò_28-4" x1="337.7" y1="65.21" x2="334.81" y2="68.1" gradientTransform="matrix(-1, 0, 0, 1, 365.57, 0)" xlink:href="#Áåçûìÿííûé_ãðàäèåíò_28"/><linearGradient id="Áåçûìÿííûé_ãðàäèåíò_20-4" x1="338.69" y1="67.34" x2="334.22" y2="67.34" gradientTransform="matrix(-1, 0, 0, 1, 365.57, 0)" xlink:href="#Áåçûìÿííûé_ãðàäèåíò_20"/><linearGradient id="Áåçûìÿííûé_ãðàäèåíò_1054-4" x1="314.09" y1="28.84" x2="316.49" y2="20.23" xlink:href="#Áåçûìÿííûé_ãðàäèåíò_1054"/><linearGradient id="Áåçûìÿííûé_ãðàäèåíò_30-4" x1="314.06" y1="28.66" x2="316.2" y2="20.95" xlink:href="#Áåçûìÿííûé_ãðàäèåíò_30"/><linearGradient id="Áåçûìÿííûé_ãðàäèåíò_1054-5" x1="325.91" y1="26.22" x2="328.04" y2="18.53" xlink:href="#Áåçûìÿííûé_ãðàäèåíò_1054"/><linearGradient id="Áåçûìÿííûé_ãðàäèåíò_30-5" x1="325.84" y1="26.14" x2="327.9" y2="18.75" xlink:href="#Áåçûìÿííûé_ãðàäèåíò_30"/><linearGradient id="Áåçûìÿííûé_ãðàäèåíò_28-5" x1="330.94" y1="68.43" x2="327.71" y2="71.67" gradientTransform="matrix(-1, 0, 0, 1, 365.57, 0)" xlink:href="#Áåçûìÿííûé_ãðàäèåíò_28"/><linearGradient id="Áåçûìÿííûé_ãðàäèåíò_20-5" x1="332.85" y1="69.61" x2="327.02" y2="69.61" gradientTransform="matrix(-1, 0, 0, 1, 365.57, 0)" xlink:href="#Áåçûìÿííûé_ãðàäèåíò_20"/><linearGradient id="Áåçûìÿííûé_ãðàäèåíò_21-5" x1="329.11" y1="67.31" x2="325.02" y2="71.41" xlink:href="#Áåçûìÿííûé_ãðàäèåíò_21"/><linearGradient id="Áåçûìÿííûé_ãðàäèåíò_18" x1="311.24" y1="73.16" x2="317.62" y2="73.16" gradientTransform="matrix(-1, 0, 0, 1, 365.57, 0)" gradientUnits="userSpaceOnUse"><stop offset="0"/><stop offset="1" stop-color="#681b05"/></linearGradient><linearGradient id="Áåçûìÿííûé_ãðàäèåíò_18-2" x1="320.47" y1="73.03" x2="325.01" y2="73.03" xlink:href="#Áåçûìÿííûé_ãðàäèåíò_18"/><linearGradient id="Áåçûìÿííûé_ãðàäèåíò_18-3" x1="332.73" y1="72.97" x2="339.33" y2="72.97" xlink:href="#Áåçûìÿííûé_ãðàäèåíò_18"/><linearGradient id="Áåçûìÿííûé_ãðàäèåíò_18-4" x1="346.92" y1="70.86" x2="349.33" y2="70.86" xlink:href="#Áåçûìÿííûé_ãðàäèåíò_18"/><linearGradient id="Áåçûìÿííûé_ãðàäèåíò_18-5" x1="340.08" y1="73.02" x2="343.9" y2="73.02" xlink:href="#Áåçûìÿííûé_ãðàäèåíò_18"/><clipPath id="clip-path-3"><path class="cls-1" d="M21,39.65A94.25,94.25,0,0,0,34,40a95.55,95.55,0,0,0,13-1c0-.13-2.83-14.31-12.43-14.31C20.6,24.66,21,39.53,21,39.65Z"/></clipPath><linearGradient id="Áåçûìÿííûé_ãðàäèåíò_21-6" x1="-1487.66" y1="-125.56" x2="-1490.87" y2="-122.35" gradientTransform="translate(1529.18 67.76) rotate(-3.23)" xlink:href="#Áåçûìÿííûé_ãðàäèåíò_21"/><linearGradient id="Áåçûìÿííûé_ãðàäèåíò_28-6" x1="1870.69" y1="-123.51" x2="1874.06" y2="-120.14" gradientTransform="matrix(-1, 0.06, 0.06, 1, 1909.1, 46.06)" xlink:href="#Áåçûìÿííûé_ãðàäèåíò_28"/><linearGradient id="Áåçûìÿííûé_ãðàäèåíò_20-6" x1="1869.77" y1="-121.61" x2="1874.82" y2="-121.61" gradientTransform="matrix(-1, 0.06, 0.06, 1, 1909.1, 46.06)" xlink:href="#Áåçûìÿííûé_ãðàäèåíò_20"/><linearGradient id="Áåçûìÿííûé_ãðàäèåíò_23" x1="-1492.28" y1="30.12" x2="-1502.34" y2="40.17" gradientTransform="translate(1532.39)" gradientUnits="userSpaceOnUse"><stop offset="0" stop-color="#ffd4bc"/><stop offset="0.19" stop-color="#ffccb6"/><stop offset="0.48" stop-color="#ffb8a6"/><stop offset="0.84" stop-color="#ff968d"/><stop offset="1" stop-color="#ff847f"/></linearGradient><linearGradient id="Áåçûìÿííûé_ãðàäèåíò_418" x1="-1507.01" y1="37.31" x2="-1490.05" y2="37.31" gradientTransform="translate(1532.39)" gradientUnits="userSpaceOnUse"><stop offset="0" stop-color="#9f0012"/><stop offset="0.73" stop-color="#e7001d"/></linearGradient><linearGradient id="Áåçûìÿííûé_ãðàäèåíò_418-2" x1="-1506.8" y1="38.85" x2="-1490.12" y2="38.85" xlink:href="#Áåçûìÿííûé_ãðàäèåíò_418"/><linearGradient id="Áåçûìÿííûé_ãðàäèåíò_416" x1="-1498.6" y1="38.09" x2="-1498.6" y2="29.91" gradientTransform="translate(1532.39)" gradientUnits="userSpaceOnUse"><stop offset="0.35" stop-color="#6b0c06"/><stop offset="0.77" stop-color="#9b2b1a"/><stop offset="1" stop-color="#9d2c1b"/></linearGradient><linearGradient id="Áåçûìÿííûé_ãðàäèåíò_428-18" x1="-1709.89" y1="-1613.88" x2="-1709.89" y2="-1615.94" gradientTransform="matrix(0.44, -0.44, 0.5, 0.5, 1599.71, 99.49)" xlink:href="#Áåçûìÿííûé_ãðàäèåíò_428"/><linearGradient id="Áåçûìÿííûé_ãðàäèåíò_428-19" x1="-735.64" y1="-1394.31" x2="-735.64" y2="-1395.02" gradientTransform="matrix(0.44, -0.77, 0.87, 0.49, 1562.13, 153.46)" xlink:href="#Áåçûìÿííûé_ãðàäèåíò_428"/><linearGradient id="Áåçûìÿííûé_ãðàäèåíò_428-20" x1="-734.94" y1="-1386.27" x2="-734.94" y2="-1386.98" gradientTransform="matrix(0.44, -0.77, 0.87, 0.49, 1562.13, 153.46)" xlink:href="#Áåçûìÿííûé_ãðàäèåíò_428"/><linearGradient id="Áåçûìÿííûé_ãðàäèåíò_428-21" x1="-738.38" y1="-1391.89" x2="-738.38" y2="-1392.6" gradientTransform="matrix(0.44, -0.77, 0.87, 0.49, 1562.13, 153.46)" xlink:href="#Áåçûìÿííûé_ãðàäèåíò_428"/><linearGradient id="Áåçûìÿííûé_ãðàäèåíò_428-22" x1="-714.69" y1="-252.17" x2="-714.69" y2="-252.56" gradientTransform="matrix(1.58, -0.7, 0.89, 2, 1382.1, 40.47)" xlink:href="#Áåçûìÿííûé_ãðàäèåíò_428"/><linearGradient id="Áåçûìÿííûé_ãðàäèåíò_428-23" x1="-531.58" y1="-183.72" x2="-531.58" y2="-184.15" gradientTransform="matrix(1.99, -0.88, 1.12, 2.54, 1297.43, 35.37)" xlink:href="#Áåçûìÿííûé_ãðàäèåíò_428"/><linearGradient id="Áåçûìÿííûé_ãðàäèåíò_428-24" x1="-1861.78" y1="-562.41" x2="-1861.78" y2="-562.85" gradientTransform="matrix(0.69, -0.3, 0.45, 1.01, 1568.21, 40.63)" xlink:href="#Áåçûìÿííûé_ãðàäèåíò_428"/><linearGradient id="Áåçûìÿííûé_ãðàäèåíò_428-25" x1="-969.98" y1="-540.9" x2="-969.98" y2="-541.34" gradientTransform="matrix(1.22, -0.54, 0.47, 1.06, 1473.53, 82.91)" xlink:href="#Áåçûìÿííûé_ãðàäèåíò_428"/><linearGradient id="Áåçûìÿííûé_ãðàäèåíò_18-6" x1="-1504.96" y1="32.18" x2="-1493.92" y2="32.18" gradientTransform="translate(1532.39)" xlink:href="#Áåçûìÿííûé_ãðàäèåíò_18"/><linearGradient id="Áåçûìÿííûé_ãðàäèåíò_18-7" x1="-1491.77" y1="30.21" x2="-1489.6" y2="32.39" gradientTransform="translate(1532.39)" xlink:href="#Áåçûìÿííûé_ãðàäèåíò_18"/><linearGradient id="Áåçûìÿííûé_ãðàäèåíò_98" x1="292.74" y1="88.59" x2="282.29" y2="88.59" gradientTransform="matrix(-1, 0, 0, 1, 365.57, 0)" gradientUnits="userSpaceOnUse"><stop offset="0" stop-color="#a10051"/><stop offset="1" stop-color="#fff"/></linearGradient><linearGradient id="Áåçûìÿííûé_ãðàäèåíò_98-2" x1="302.87" y1="94.23" x2="292.42" y2="94.23" xlink:href="#Áåçûìÿííûé_ãðàäèåíò_98"/><linearGradient id="Áåçûìÿííûé_ãðàäèåíò_98-3" x1="298.71" y1="96.1" x2="288.26" y2="96.1" xlink:href="#Áåçûìÿííûé_ãðàäèåíò_98"/><linearGradient id="Áåçûìÿííûé_ãðàäèåíò_98-4" x1="279.33" y1="93.98" x2="268.88" y2="93.98" xlink:href="#Áåçûìÿííûé_ãðàäèåíò_98"/><linearGradient id="Áåçûìÿííûé_ãðàäèåíò_98-5" x1="353.19" y1="95.29" x2="342.74" y2="95.29" xlink:href="#Áåçûìÿííûé_ãðàäèåíò_98"/><linearGradient id="Áåçûìÿííûé_ãðàäèåíò_21-7" x1="289.78" y1="82.52" x2="285.04" y2="87.26" xlink:href="#Áåçûìÿííûé_ãðàäèåíò_21"/><linearGradient id="Áåçûìÿííûé_ãðàäèåíò_28-7" x1="-6.21" y1="85.09" x2="-3.09" y2="88.2" xlink:href="#Áåçûìÿííûé_ãðàäèåíò_28"/><linearGradient id="Áåçûìÿííûé_ãðàäèåíò_20-7" x1="-7.97" y1="86.79" x2="-2.41" y2="86.79" xlink:href="#Áåçûìÿííûé_ãðàäèåíò_20"/><linearGradient id="Áåçûìÿííûé_ãðàäèåíò_21-8" x1="304.9" y1="87.82" x2="301.28" y2="91.44" xlink:href="#Áåçûìÿííûé_ãðàäèåíò_21"/><linearGradient id="Áåçûìÿííûé_ãðàäèåíò_28-8" x1="78.2" y1="89.79" x2="81.94" y2="93.53" gradientTransform="translate(-14.75)" xlink:href="#Áåçûìÿííûé_ãðàäèåíò_28"/><linearGradient id="Áåçûìÿííûé_ãðàäèåíò_20-8" x1="77.21" y1="91.9" x2="82.8" y2="91.9" gradientTransform="translate(-14.75)" xlink:href="#Áåçûìÿííûé_ãðàäèåíò_20"/><linearGradient id="Áåçûìÿííûé_ãðàäèåíò_21-9" x1="275.57" y1="86.78" x2="269.52" y2="92.83" xlink:href="#Áåçûìÿííûé_ãðàäèåíò_21"/><linearGradient id="Áåçûìÿííûé_ãðàäèåíò_28-9" x1="276.65" y1="90.2" x2="273.39" y2="93.46" gradientTransform="matrix(-1, 0, 0, 1, 365.57, 0)" xlink:href="#Áåçûìÿííûé_ãðàäèåíò_28"/><linearGradient id="Áåçûìÿííûé_ãðàäèåíò_20-9" x1="279.09" y1="91.65" x2="272.58" y2="91.65" gradientTransform="matrix(-1, 0, 0, 1, 365.57, 0)" xlink:href="#Áåçûìÿííûé_ãðàäèåíò_20"/><linearGradient id="Áåçûìÿííûé_ãðàäèåíò_21-10" x1="351.98" y1="91.06" x2="349.35" y2="93.7" xlink:href="#Áåçûìÿííûé_ãðàäèåíò_21"/><linearGradient id="Áåçûìÿííûé_ãðàäèåíò_28-10" x1="350.56" y1="92.01" x2="347.67" y2="94.9" gradientTransform="matrix(-1, 0, 0, 1, 365.57, 0)" xlink:href="#Áåçûìÿííûé_ãðàäèåíò_28"/><linearGradient id="Áåçûìÿííûé_ãðàäèåíò_20-10" x1="351.54" y1="94.14" x2="347.07" y2="94.14" gradientTransform="matrix(-1, 0, 0, 1, 365.57, 0)" xlink:href="#Áåçûìÿííûé_ãðàäèåíò_20"/><linearGradient id="Áåçûìÿííûé_ãðàäèåíò_28-11" x1="296.05" y1="92.1" x2="292.82" y2="95.33" gradientTransform="matrix(-1, 0, 0, 1, 365.57, 0)" xlink:href="#Áåçûìÿííûé_ãðàäèåíò_28"/><linearGradient id="Áåçûìÿííûé_ãðàäèåíò_20-11" x1="297.97" y1="93.28" x2="292.13" y2="93.28" gradientTransform="matrix(-1, 0, 0, 1, 365.57, 0)" xlink:href="#Áåçûìÿííûé_ãðàäèåíò_20"/><linearGradient id="Áåçûìÿííûé_ãðàäèåíò_21-11" x1="294.22" y1="90.98" x2="290.13" y2="95.07" xlink:href="#Áåçûìÿííûé_ãðàäèåíò_21"/></defs><g class="cls-2"><g id="Layer_2" data-name="Layer 2"><g id="Ñëîé_1" data-name="Ñëîé 1"><path class="cls-3" d="M73,33.33c-.36.54-.11,7.69.18,8.69s-5.39,1.08-5.1.68.4-4.84.14-6.64S73,33.33,73,33.33Z"/><path class="cls-4" d="M80.36,77.43A25,25,0,0,1,79.67,84l-21.25-.39V79.35Z"/><path class="cls-5" d="M73,33.33c-.36.54-.11,7.69.18,8.69s-5.39,1.08-5.1.68.4-4.84.14-6.64S73,33.33,73,33.33Z"/><path class="cls-6" d="M72.88,34.37l0,1.28s-3.28,4.93-4.47,1.77,4.37-3.05,4.37-3.05Z"/><path class="cls-7" d="M57.38,15.13a19.4,19.4,0,0,0-.47,7.25c.29,1,1.65,2.51,1.87,4s-1.19,2.12-.65,4.81,5.56,6.86,7.43,7,6.93-2.7,9-5.5,2.08-4.49,2.08-4.49,2.3.72,3.37-2.72-.5-4.13-1.47-4.21-3.23,1.87-2.94,3.13c0,0-2.3-6.68-3.45-9s-12.71-2.19-13.64-1.33S57.38,15.13,57.38,15.13Z"/><path class="cls-8" d="M70.68,21.12a8.24,8.24,0,0,0-4.1-1c-1.51.05-2.45.47-2.52.72s-.48-1.44-.44-1.91,1.08-.95.85-.63a3.35,3.35,0,0,0-.57,1.51c.09.22.5-1.26.87-1.29a7.59,7.59,0,0,1,3.34.16c.8.3,1.48,1,1.3,1s.44.08.74.44S70.85,21.24,70.68,21.12Z"/><path class="cls-9" d="M59.74,21.44a6.21,6.21,0,0,0-.73-1.7,1.09,1.09,0,0,0-.9-.27c-.19,0,.16.39.1.39a.44.44,0,0,0-.47-.09,1.74,1.74,0,0,0-1,1,2.65,2.65,0,0,0,.15,1.65c.16.16-.24-.09.54-.88S59.74,21.44,59.74,21.44Z"/><path class="cls-10" d="M71.51,23.33c-.52-4.46-5-4-6.15-3.64-2.48.85-1.31,4.09-1.13,5.27s.61,2,1,2.11a15.83,15.83,0,0,0,5.46-1.2C71.74,25.18,71.51,23.33,71.51,23.33Z"/><path class="cls-11" d="M60.79,27.09c.83-.78.19-3.16-1-5.65-1.05-2.11-2.79.16-2.76.7a6.47,6.47,0,0,0,1.08,2.32c.44.65.83,1.86,1,2S60.79,27.09,60.79,27.09Z"/><path class="cls-12" d="M72.86,37v2.3s-3.1,1.29-4.48.23V37.94s-2,.72-2.39,1.36A23.54,23.54,0,0,0,65.43,42c-.1.07-4.29-.11-5.72.37s-2.07,2.6-2.07,3.9a14.06,14.06,0,0,1-.79,4.57,52.6,52.6,0,0,1-2.79,5.54c-.22.08-1,.27-2.06,2.21s4.12,5.86,5.32,5.89S53.89,81.77,58.63,81.7,68.87,81,72.87,80.62s7.81-1.22,8.06-2.77a4.57,4.57,0,0,0-1.26-3.44c-.25-.11-.36,0-.54-.29s-1.68-4-2.55-4.85S81.65,68,81.65,68a8.1,8.1,0,0,1,4.63,1.29c2,1.43,2.33.54,3-1.19a10.82,10.82,0,0,0,0-5.31c-.22-.36-1.12-.75-1.15-1a19.34,19.34,0,0,0-.36-3.37c-.25-.33-1.26-1.55-2.66-7.11s-1-7.4-3.12-8.58a11.19,11.19,0,0,0-5.1-1.12c-.18,0-.32-.72-.21-.75a.83.83,0,0,0,.39-.29c.16-.2-.3-2.82-1.49-3.36A5.58,5.58,0,0,0,72.86,37Z"/><path class="cls-13" d="M58.1,60.58c-1.4-1.89-5.48-1.86-5.48-1.86s1,2.05,1,2,4.46-.15,4.46-.15Z"/><path class="cls-14" d="M73.83,61.3c-3.1.34-8.57-2.28-10.34-2s-4.06,1.61-4.86.92-.46-1.35-2.26-1.75-4-.11-4,.83,4.17,9,6,12.34-4.17,10.53.28,11.25,14.32,1,17.91-.37,3.73-3.79,2.73-3.41-9.15,1.77-12.79,1.1-4.09-1.16,1.55-2.07,10.37-2.72,9.8-3A62.39,62.39,0,0,0,67,70.9c-4.11-1,4.36-1.5,7.14-1.46s.43-.34-1.68-1.15,3.68-4.9,4-5.77.87-3,2-3.53-.93-3.48-.93-3.1S75.94,61.07,73.83,61.3Z"/><path class="cls-13" d="M77.05,40.62a.83.83,0,0,1-.39.29c-.11,0,0,.75.21.75-4.54-.13-5.55,2.41-8.77,2.34s-2.67-2-2.67-2A23.54,23.54,0,0,1,66,39.3c-.27,1,.55,2.78,4.84,2.42s6.66-2.15,5.37-3.88A4.78,4.78,0,0,1,77.05,40.62Zm3.35,34.8a.47.47,0,0,0,0,.2c.27,1.62-13.19,3.54-15.29,3.3s15.22-2.19,14-4.8c-.18-.29-1.68-4-2.55-4.85S81.65,68,81.65,68a8.1,8.1,0,0,1,4.63,1.29c2,1.43,2.33.54,3-1.19a10.82,10.82,0,0,0,0-5.31c-.22-.36-1.12-.75-1.15-1a19.34,19.34,0,0,0-.36-3.37c-.25-.33-1.26-1.55-2.66-7.11-.92-3.68-1.07-5.72-1.67-7,.84,2-.3,5.63.7,6.92s2.21,5.26,2.4,6-.77,1.79.19,2,.53,2,.48,2-3-2.41-4.45-2.2-3.06.93-2.56.68S86,60.91,87.64,62s.47,3.59.25,3.8-4.27-3.41-7.68-4.16-3.56,1.08-3.77.93,1.29-3,1.72-3.37.83-.11.9-.43a50.33,50.33,0,0,0-2.19-5.14c-.32-.72-1.83-2.26-1.65-1.83s-.57,1.62,0,1.76,1.92,1.05,2,1.53-2.49-.33-2.23,0,.33.36.91,1S74,60,72.75,60.32s-8.09-1-8.88-1.39-2.33.6-4.38.37S56,56.45,55.76,55s4.64-5.14,5.29-6.19.06-2.66-.19-3.35-1.18,3-1.8,4.35c-1.17,2.64-3.06,3.39-3.73,4.77s-.76,1.65-.4,1.62.75,0,1.44,1.29,1.86,1.47,0,.94-4.09-.91-4.5.54c-.25,2,4.33,5.45,5.45,5.47S53.89,81.77,58.63,81.7,68.87,81,72.87,80.62s7.81-1.22,8.06-2.77A4.1,4.1,0,0,0,80.4,75.42Z"/><path class="cls-15" d="M42.65,42.45c.48.12.47,2.73.51,3.13S52,58,52.62,58.72c2.23,2.29,1.54,6.14,1.54,6.14s-1.42,3.34-2.3,3.77-3.78-2.08-6.15-8.87-4.6-12.5-5.32-12.71-5.56-1.19-6.21-1.33S32.53,44.86,32,45s-2.29.43-3.05.72-3.3-1.33-3.62-1.58.28-1.26.71-1.36S40.57,42,42.65,42.45Z"/><path class="cls-13" d="M70.66,68.38c-4.73-.52-6.93-.76-7-.47s2,6.84,1.34,9,2.28,1.5.47,1.71,1,1.83.64,2.4S77.66,79.74,79,79.78s0,2.71-8.27,3.72S58.35,85.19,58.1,83s-.35-5.94-.55-9.72-.81-6.08.87-6.47,2.15-1.19,5-.76A38.24,38.24,0,0,1,70.66,68.38Z"/><path class="cls-6" d="M51.86,68.63c-.88.43-3.78-2.08-6.15-8.87-.34-1-.67-1.89-1-2.8,2,5.25,6.27,10.64,8.18,10.42A3.46,3.46,0,0,1,51.86,68.63Z"/><path class="cls-6" d="M41.29,43.42c.32.79,1.58,3.27.14,1s-1.76-1.61-5.06-1.76-10.09.36-10.09.36a2.68,2.68,0,0,0,3.23,1.27c2.19-.73,2.41-1.12,4,0s6.13,1.87,7,2.81a.38.38,0,0,0-.13-.08c-.72-.22-5.56-1.19-6.21-1.33S32.53,44.86,32,45s-2.29.43-3.05.72-3.3-1.33-3.62-1.58.28-1.26.71-1.36,13.8-.79,16.46-.37C42.43,42.42,41,42.64,41.29,43.42Z"/><path class="cls-16" d="M64.14,59.3C65,60,71.91,63,71.34,63s-4,1.23-4.89.43S64.14,59.3,64.14,59.3Z"/><path class="cls-17" d="M65.39,43.42c.06.9,4.44,2,4.08,2s-1.61.75-2.83,0A2.66,2.66,0,0,1,65.39,43.42Z"/><path class="cls-18" d="M0,100.7a7.7,7.7,0,0,0,.74,2.47c.17.16,103,.16,103.17,0a7.7,7.7,0,0,0,.74-2.47c0-.57-8.9-17.62-9.67-18s-84.67-.3-85.31,0S0,100.13,0,100.7Z"/><path class="cls-19" d="M.74,103.17A7.7,7.7,0,0,1,0,100.7H104.65a7.7,7.7,0,0,1-.74,2.47C103.75,103.33.91,103.33.74,103.17Z"/><path class="cls-20" d="M88,83.18c14.37,1.44,13.55,15.81-34.2,16.17s-58.3-16-31.71-16.17S81.93,82.57,88,83.18Z"/><path class="cls-21" d="M98.24,101c4.78.55-17.52,1.5-44.62,1.88s-37.24-2.19-37.24-2.19Z"/><path class="cls-22" d="M104.65,100.7s-20.56-.37-30.92-.53-20.3.53-20.3.53Z"/><path class="cls-23" d="M80.41,83c16,.73-7.6,6.27-23.13,5.39s-22.2-5-11.1-5.47S80.41,83,80.41,83Z"/><path class="cls-24" d="M58.46,64.44s1.73,2.89,2,3.66c2.44,6,1.41,13.57,1.39,13.88S60,82.2,60,82.32a17.94,17.94,0,0,1,.22,2.56c-.07.69-.93,1.3-2.27,1.24-1.18,0-3.12-1.22-4.46-1.46s-2-.14-2.08-.36.34-7.44.27-7.63-1.06-.46-1.06-.62-.11-9.9,0-10.69.53-.92.53-.92Z"/><path class="cls-25" d="M60.5,68.1c2.44,6,1.41,13.57,1.39,13.88S60,82.2,60,82.32a17.94,17.94,0,0,1,.22,2.56c-.07.69-.93,1.3-2.27,1.24-1.18,0-3.12-1.22-4.46-1.46s-2-.14-2.08-.36.34-7.44.27-7.63-1.06-.46-1.06-.62-.11-9.9,0-10.69.53-.92.53-.92H53c.37.72.66,1.56-.37,1.07-1.68-.78-1.79.24-1.72.78s1.22.72,1.29,2-.5,15.51-.38,15.68.85-.14,1.24-1.29.9-1.79,2.26,1.15,2.63,2.31,3.06,1.44.36-14.47.46-15.12S60,80.55,60,81s.5.32.75,0a41.25,41.25,0,0,0,.73-9c-.26-2-2.85-6.72-3.65-6a8.74,8.74,0,0,1-1.26-.33,8.67,8.67,0,0,1,0-1.2h1.89S60.19,67.33,60.5,68.1Z"/><path class="cls-26" d="M78.86,62.43C76.5,62.19,64,64.29,63.14,64.15s-2-2.57-2.46-3.24-4.92-1.12-5.47-1.07a2.17,2.17,0,0,0-1,.34,8.5,8.5,0,0,0-2.58.24c-.72.31-.39,1.14-.43,2s-.06,2.3,0,2.47,1.47.59,1.47.59.1.6.29.72a14.72,14.72,0,0,0,2.34.12,8.6,8.6,0,0,0,1.8.12c.65-.09,1.1-1.1,1.1-1.1s.89-.19,2.3,2.73c.13.28,2.11-1,2.61-1.13S72.37,68.89,78,69.63s8.07-.24,8.74-.79S85.34,63.07,78.86,62.43Z"/><path class="cls-27" d="M71.51,26c-.92,1.36-2.11,2.64-4.64,1.92s-4.21-2-4.87-1.73-.64,1.91-2,1.63-2,.43-1.78,2.33.11,2.41,2.05,3-.25-1.27,2.77-2,4.71,1.82,7.69,1.18C77,31,73.7,22.76,71.51,26Z"/><path class="cls-28" d="M70.35,25.28s-.93,2.52-4,1.45C66.33,26.73,69.31,28.6,70.35,25.28Z"/><path class="cls-29" d="M70.48,24.37A2.7,2.7,0,0,0,71,23.6,4.2,4.2,0,0,0,69,22.08c-1.62-.62-4.12,0-3.5,3.36Z"/><g class="cls-30"><path class="cls-31" d="M70.47,24.44c-.14-.83-2.14-2.83-3.81-1.91s-1.11,3.3-1,3.7,1.68,1.13,3.11.6A2.47,2.47,0,0,0,70.47,24.44Z"/><path class="cls-32" d="M67.92,22.78A1.7,1.7,0,1,1,68,26.17a1.84,1.84,0,0,1-1.75-1.07A1.77,1.77,0,0,1,67.92,22.78Z"/><path class="cls-33" d="M67.93,23.6c1.07,0,1,1.68,0,1.63a.86.86,0,0,1-.81-.6A.81.81,0,0,1,67.93,23.6Z"/><path class="cls-34" d="M66.82,25.84c.34-.19,0-.78-.27-.62S66.28,26.15,66.82,25.84Z"/><path class="cls-35" d="M69.3,25.14c0-.32-.4-.61-.56-.43s-.26.61-.89.53-.69-.54-.93-.53-.44.82,0,1.1a1.91,1.91,0,0,0,1.49.18C69,25.85,69.32,25.43,69.3,25.14Z"/><path class="cls-36" d="M70.66,25.06c-.55-2.89-5.17-1.93-5.12.49,0,0-1.71-3.37,2.21-3.59,2.14-.11,2.73,1.42,2.89,2.88C70.65,24.92,70.66,25.06,70.66,25.06Z"/></g><path class="cls-28" d="M60.67,27s-.69.85-1.63-.57c0,0,.44,1.06,1,1.11S60.67,27,60.67,27Z"/><path class="cls-29" d="M60.44,25.43a3.57,3.57,0,0,0-1.24-2.29c-1.09-.81-1.27,1.52-1.25,1.68s.69.49,1.22.47A6.45,6.45,0,0,1,60.44,25.43Z"/><g class="cls-37"><path class="cls-38" d="M60.74,26.61c-.17-1.29-1-3.39-1.85-3.33s-.3,2-.19,2.34a2.7,2.7,0,0,0,1.14,1.59A.59.59,0,0,0,60.74,26.61Z"/><path class="cls-39" d="M59.51,23.46a.57.57,0,0,1,.74.2c.71.77,1.08,2.6.22,3a1.13,1.13,0,0,1-1.38-.68C58.78,25.23,58.66,23.82,59.51,23.46Z"/><path class="cls-40" d="M60,24.13c.78-.16,1,1.53.2,1.63a.62.62,0,0,1-.67-.47C59.43,24.89,59.52,24.24,60,24.13Z"/><path class="cls-34" d="M59.34,26.08c.09-.28-.34-.54-.42-.29S59.2,26.53,59.34,26.08Z"/><path class="cls-35" d="M61.24,25.66c0-.34-.25-.63-.39-.45s-.41.75-.88.67-.43-.59-.62-.58-.21.72.11,1a.89.89,0,0,0,1,.23A1.19,1.19,0,0,0,61.24,25.66Z"/><path class="cls-36" d="M60.86,26.19c-.5-2.65-2.56-2.66-2.33-.51,0,0-1.09-3.29.72-2.76,1,.3,1.39,1.75,1.59,3.07C60.85,26.06,60.86,26.19,60.86,26.19Z"/></g><path class="cls-41" d="M64.32,29.55c-.17.37-1,.49-1.1.46-.48-.08-1.13.44-1.65.25s-.3-.52-.4-.42-.37.24-.31.36a.66.66,0,0,0,.59.27c.25,0,0,.33,1.28.12a2.88,2.88,0,0,0,1.33-.14C64.72,30.2,64.37,29.45,64.32,29.55Z"/><path class="cls-36" d="M63.54,30.19c-.81,0-.94.14-.89.25a.24.24,0,0,0,.25.08A6.79,6.79,0,0,0,63.54,30.19Z"/><path class="cls-36" d="M61.5,30.41a2.83,2.83,0,0,1-.32-.28c-.11-.12-.15,0-.07.1S61.5,30.41,61.5,30.41Z"/><path class="cls-42" d="M64.45,29.75c0,.77-.84,1.37-2.17,1.31s-1.41-.8-1.5-1.09.43-1.12.43-1a1.11,1.11,0,0,0,.89,1.56c.65.18.28-.8,1.44-.46.73.21.68-.74.75-.68A.36.36,0,0,1,64.45,29.75Z"/><path class="cls-43" d="M62.4,26.87c-.74,0-.9,1.44-.9,1.44A7.51,7.51,0,0,0,60.78,30c-.05,1,2,1.72,3.39.48C65,29.71,63.84,26.87,62.4,26.87Z"/><path class="cls-44" d="M61.5,28.31c.32-.61.62-1.17,2.2,0,.59.45-.43-1.88-1.42-2.14S61.5,28.31,61.5,28.31Z"/><path class="cls-23" d="M62.31,27.7c.8.13.84,1.3.43,1.66s-1.24.45-1.48.18S61.62,27.59,62.31,27.7Z"/><path class="cls-23" d="M64,28.73c.57.32-.61,1-.75,1S63,28.19,64,28.73Z"/><path class="cls-5" d="M67.3,36.78c2.35-.42,5.37-3.53,6.4-5.66.94-2,.55-6.07.16-7.47l.65-2.24c.61,1.69,1.07,3,1.07,3-.29-1.26,2-3.2,2.94-3.13s2.55.76,1.47,4.21-3.37,2.72-3.37,2.72a6.66,6.66,0,0,1-.93,2.67l-.08.14c-.06.12-.13.24-.2.36l-.11.18-.24.38-.11.18-.41.58c-.12.17-.26.33-.4.5l-.15.16a3.18,3.18,0,0,1-.3.33l-.19.2-.31.29-.22.2c-.1.1-.21.19-.32.28l-.24.2-.33.26-.26.2-.33.24a2.83,2.83,0,0,1-.28.2l-.32.22-.3.2-.22.13c-.28.18-.56.34-.84.5l-.12.07-.44.23-.16.08-.43.21-.15.07-.41.18-.14,0a3.25,3.25,0,0,1-.4.15l-.11,0-.39.13-.08,0a3.69,3.69,0,0,1-1.14.16c-1.3-.1-4.13-2.15-5.91-4.3C63,37.58,64.51,37.28,67.3,36.78Z"/><path class="cls-45" d="M75.84,24.87c0,.66-2.63-.77-3.23-2.85a22,22,0,0,0-2-4.86c-.59-.95-4.64-3.3-8.34-3.23s-4.68,1.3-4.91,1.73A22.2,22.2,0,0,0,56.75,21s-.58,0-1.16-.87-.33-3.32-.33-3.32a5.37,5.37,0,0,1-.53-1c-.19-.48-1.17-7.44,9-9.26a2.3,2.3,0,0,1,.19-1.22c.26-.36,6.92-2,12.18,2.92a13.3,13.3,0,0,1-1-6.44c.41-3.35,3.07-1.27,3.76.26s.1,0-1.27.5S76.49,8.4,76.49,8.4s.89-4,4.19-2.94a10.22,10.22,0,0,1,7,7.16,3.69,3.69,0,0,1-.38,3.06,1.42,1.42,0,0,1,1,.21c.62.34-1.59,4.54-3.27,5.59S83,22,83,22a8.41,8.41,0,0,1-.21,5.82c-1.32,2.66-5.17,3.3-5.22,3.52s.26,1.2-.36,1.48a9.73,9.73,0,0,1-2.79.13,11.89,11.89,0,0,0,2.23-4.69,3.11,3.11,0,0,0,3-1.72C80.36,25,80.84,22,79,21.42S75.87,23.43,75.84,24.87Z"/><path class="cls-23" d="M65.71,35.5c-1.37-.88-3.78,0-3.54.36C63.75,38.61,66.9,36.26,65.71,35.5Z"/><path class="cls-46" d="M66.86,32.09c-.52.43-.86,2-2.09,2.46a2.48,2.48,0,0,1-2.54-.2c-.39-.4-.44-1.33-1-1.81s1.83.11,3.51-.08A9.23,9.23,0,0,0,66.86,32.09Z"/><path class="cls-46" d="M66.48,32.06c-.73.13-2.94-.51-4-.51a1.51,1.51,0,0,0-1.43.7l.47.12,4-.06Z"/><path class="cls-47" d="M66.25,32.6c-.43.38-2.18.94-2.56,1.2s.1.86.36.8a2.5,2.5,0,0,0,1.85-1.34A2.11,2.11,0,0,0,66.25,32.6Z"/><path class="cls-48" d="M67.89,31.55a1,1,0,0,0-.82-.43c-.14,0,.26.43-.18.81a1.37,1.37,0,0,1-.73.18c-.36,0-2.6.09-3.33.09s-1.51,0-1.8,0-.31-.41-.36-.49-.11-.2-.39,0-.15.69,0,.65.4-.24.68-.09.93,1.3,1.8,1.4A5.29,5.29,0,0,0,66,32.79c.78-.65.88-.78,1.21-.89C67.9,31.66,68.15,32,67.89,31.55Z"/><path class="cls-49" d="M66.48,32.11,62,32.29a5.81,5.81,0,0,0,.74,1.08C63.23,33.66,66,33.31,66.48,32.11Z"/><path class="cls-50" d="M65.82,33.62a2.69,2.69,0,0,1-2.63,1.47c-.25,0-1.09-.73-.84-.65A3.27,3.27,0,0,0,65.82,33.62Z"/><path class="cls-36" d="M62.23,32.62c-.41-.62,3.16.2,3.53.24s1-.76.86-.76-3.78,0-4.61,0-1.06.11-.91.28.92,1.15,1.49,1.17S62.67,33.47,62.23,32.62Z"/><path class="cls-5" d="M76.82,25.57s.12-2.27.86-2.69,1.75.75,1.93,1.23a1.23,1.23,0,0,1,0,.93,1.46,1.46,0,0,0-.89-1.28c-.91-.43-1,1.08-1,1.08a1.26,1.26,0,0,1,1.22.45c.55.63-.91,2.22-1.3,1.73s-.38-1.77-.77-.93S76.82,25.57,76.82,25.57Z"/><path class="cls-51" d="M76.68,26.34c.23-2,1.67-1.59,2.07-1.24s-.08.7-.41.88-.26-.26-.7-.46S76.68,26.34,76.68,26.34Z"/><path class="cls-52" d="M77.18,32.79a9.73,9.73,0,0,1-2.79.13,11.89,11.89,0,0,0,2.23-4.69,3.11,3.11,0,0,0,3-1.72C80.36,25,80.84,22,79,21.42s-3.13,2-3.16,3.45c0,.66-2.63-.77-3.23-2.85a22,22,0,0,0-2-4.86c-.59-.95-4.64-3.3-8.34-3.23s-4.68,1.3-4.91,1.73A22.2,22.2,0,0,0,56.75,21s-.58,0-1.16-.87a.53.53,0,0,1-.08-.15c-.12-.45,1.19-.71.8-1.14a9.77,9.77,0,0,1-1.06-2v0a.85.85,0,0,0,.86.26c.24-.1-1.4-3.42,0-3.88s5,.19,9.7.77,13.32.57,13.09-.19S74.84,6.78,70.4,7.4s-8.82,2.73-10.07,4.26,1.29-3.54,6.19-4.55,7.5.14,7.93.29.63,0-1.89-1.52a12.49,12.49,0,0,1,3.52,2.36A13.2,13.2,0,0,1,75.34,6c0-.11-.58-3.1.5-3.8s2.7-.6,3.22.44a.5.5,0,0,1,0,.13,1.86,1.86,0,0,0-1.56-.19c-1.36.53-1.05,5.84-1.05,5.84-.31.9.74,4.41,3.87,4.12s4.53-3.35,6.44-1.24a3.73,3.73,0,0,1,.63,4.21c-.07.12-.12.18-.1.19a29.45,29.45,0,0,0-4-.34c-1.49.05-.77,3.36.52,2.4s4.7-2.45,4.41-1A11,11,0,0,1,85,21.48c-1.25.79-1.77.68-2,.57L83,22c1,4.5-3.77,8.62-4.68,9l-.11,0a2.06,2.06,0,0,0-.64.26C77.49,31.53,77.8,32.51,77.18,32.79Z"/><path class="cls-23" d="M65.12,14.58c4.29,1.43-1.49,4.21-3.4,4.52s-4.67.36-4.74,0-.24-2.92,1.7-3.9A8.54,8.54,0,0,1,65.12,14.58Z"/><path class="cls-5" d="M87.19,15.42c-.58-2.59-5.1-.94-5.72-.94s-.27-1.36-.79-1.58-2.8-.9-2.89-1A9,9,0,0,1,80,15.27c.67,2-8.14,1.73-9.26,1.37s.53.81,4.55,1.12,4.47-1.48,4.69-1.65S81,18.05,81.49,19.2s-.6,3.73-.89,3.9-.43,3.21-1.26,4.2,1.9-.76,3-2,.36-3.91.32-4,.55,1.08,1.33.72,1.94-1.23,1.39-1.46S83,20.16,82,18.93s-.53-3.63,1.41-3.59S87.24,15.63,87.19,15.42Z"/><path class="cls-5" d="M77,29.89c-.39-1.36-1.23,1.05-1.9,2-.87,1.25,0,.85,1,.52S77.45,31.36,77,29.89Z"/><path class="cls-5" d="M67.46,15.08a24,24,0,0,0-6.57-1.81c-3.65-.44-4.65.06-4.58,1.55a12.89,12.89,0,0,0,.62,3.54,4.87,4.87,0,0,1,1.5-3C59.45,14.67,62.75,13.51,67.46,15.08Z"/><path class="cls-5" d="M70.37,6.82c.91,0-6.49,2-7.31,2.68S63,6.61,70.37,6.82Z"/><path class="cls-5" d="M72.28,20.18c0-.41,1.46,2.7,2.63,3.09s1.34-.6,1.24-.3-.27,1.74-.64,1.83S72.54,23.89,72.28,20.18Z"/><path class="cls-53" d="M84.51,10.58c-2-.05-3.81-3.71-3.83-4.52S78.57,5,77.42,6.81s-.44.9.76.42,3.24,1.17,3.69,2.18,0,3,.76,2.39S85,10.59,84.51,10.58Z"/><path class="cls-53" d="M66.39,8.57c-.82.62-2.3,1.68,2.58,2.23s10.27,2.36,9.34,2.87-6.63.53-6.63.53c-1.13.12,3.16-1.23-1-2.71s-8.09-.89-7.92-1.22a.33.33,0,0,0,0-.41,20.75,20.75,0,0,1,2.53-1.14C66.23,8.46,66.83,8.23,66.39,8.57Z"/><path class="cls-53" d="M59.59,9.79c-3.54.46-4.27,1.8-3.92,1.29A9.15,9.15,0,0,1,59.86,7.8c2.22-.71,1.18-.33.81,0S61,8.93,62.43,9.11c-.22.17-.42.35-.61.52A16,16,0,0,0,59.59,9.79Z"/><path class="cls-5" d="M75.72,26.58a2.94,2.94,0,0,0,3,1c.43-.31-.31.61-1.71.69C75.85,28.35,75.72,26.58,75.72,26.58Z"/><path class="cls-6" d="M51.24,62.45c0-.52-.08-1,0-1.42.07-.17,1.75-.11,1.75-.11s1.46-.77,1.29-.57a12.2,12.2,0,0,0-1.37,1.74c0,.09.5.21,1.24.33a7.32,7.32,0,0,1,1.17-1.68c.12-.05-.82,1.41-.92,1.72.62.1,1.37.2,2.07.29a14.23,14.23,0,0,1,1.78-1.9s-1.29,1.5-1.46,1.81c0,0,0,.07,0,.12,1.07.13,2,.23,2.06.23.25,0,1-1.41,1.12-1.34s-.33,2.27-.42,3.31,2,2.12,2.48,2,1.92-.29,2.21-.29,9.32,3,16.68,2.17c5.41-.58,4.92-2.59,4.28-3.61,1.52,1.57,2,3.24,1.62,3.54-.67.55-3.09,1.53-8.74.79S63.61,66.88,63.11,67s-2.48,1.41-2.61,1.13c-1.41-2.92-2.3-2.73-2.3-2.73s-.45,1-1.1,1.1a4.81,4.81,0,0,1-1.26,0L55,66.35A11,11,0,0,1,53,66.23c-.19-.12-.29-.72-.29-.72s-1.46-.43-1.47-.59S51.19,63.34,51.24,62.45Z"/><path class="cls-13" d="M72.87,37.6a2.14,2.14,0,0,1,1.72.42c.67.63-2.94,2.28-5.74,2.21s-.46-1.81-.46-1.81v.48a4.92,4.92,0,0,0,4.48.36Z"/><path class="cls-54" d="M74.91,38.48c1.24-.37,1.77-.08,1.6.66s-3.21,3.13-7.18,2.62-3.48-2.48-3.06-2.41.2.88,3.2.88A11,11,0,0,0,74.91,38.48Z"/><path class="cls-13" d="M76.44,40.92c-.32-.07-5.39,2.5-7.16,2.57s-3.83-1.44-3.79-1S66.06,44,68,44a7.91,7.91,0,0,0,4-1.2,8.66,8.66,0,0,1,4.86-1.13.58.58,0,0,1-.25-.42C76.62,41,76.66,41,76.44,40.92Z"/><path class="cls-54" d="M80.72,42.45c1.49.5-.33,4.92-7.22,8.42S62.14,53.23,59,53s2.39-2.59,3-5.89-2.61-4.61,0-4.85,2.47,1.79,5.67,2S74,40.22,80.72,42.45Z"/><path class="cls-13" d="M86.87,68.55c.84.26,1.88-1.91-1.45-4.11S78.82,61,77.85,61.5s-.91,1-.91,1,4.5-.4,7.24,2S86.87,68.55,86.87,68.55Z"/><path class="cls-23" d="M79.87,63c4.17,1.65-1.78,6.11-5,5.56S63.68,64.46,67,63.85,77.49,62.07,79.87,63Z"/><path class="cls-23" d="M50.19,56.38c2.63,4-6.35-1-6.93-4.34s-.43-5.62.65-4.91S50.19,56.38,50.19,56.38Z"/><path class="cls-55" d="M52.89,61c-.56.78-.31,4.21-.27,4.37s.14-2.75.27-3.27,1.64-1.88,1.37-1.74A6.44,6.44,0,0,0,52.89,61Z"/><path class="cls-55" d="M58.23,60.85a13.89,13.89,0,0,0-1.82,2A17.3,17.3,0,0,0,56,66.32a5.72,5.72,0,0,1-1.38-.15c-.23-.06-.21-3.5-.22-3.66s1.06-1.83.93-1.77a7,7,0,0,0-1.19,1.72,21.09,21.09,0,0,0,.24,3.84l1.89.15s.37-3.49.53-3.79S58.23,60.85,58.23,60.85Z"/><path class="cls-55" d="M26.14,42.9a3.61,3.61,0,0,0,2.51,1.8,26.57,26.57,0,0,0,3.43.14,15.22,15.22,0,0,1-4,0c-1.46-.27-2.63-1.7-2.43-1.85A.58.58,0,0,1,26.14,42.9Z"/><path class="cls-23" d="M53.67,60.32c.57.15-.53.52-1.14.5s-1.33-.1-1.1-.25A3,3,0,0,1,53.67,60.32Z"/><path class="cls-55" d="M59.53,62.1a13.4,13.4,0,0,1-.93,1.27,10,10,0,0,0-.4,2s.46-1.48.52-1.56c.32-.38.86.47.77.24s-.46-.86-.37-.92.83-.34.76-.76S60,61.43,59.53,62.1Z"/><path class="cls-56" d="M58.89,67.64c.18,3.12.83,8.74,1,9.12s2-3.2,1.6-4.74S58.81,66.21,58.89,67.64Z"/><path class="cls-56" d="M58.56,71.83C58.49,70,57.7,67.52,55.11,67s-2.82-.09-2.73,1.44-.38,9.07-.26,9.79,1.54-1.49,2-1.34,1.15,5.21,3.19,5.61S58.56,71.83,58.56,71.83Z"/><path class="cls-57" d="M52.07,67.6c-.2-.31-1.33,7.73-.68,8.37s.73,1.18.66,0S52.27,67.91,52.07,67.6Z"/><path class="cls-58" d="M58.89,72.5c0-.83.91,5.82,1,6.79S60.14,84.5,60,84a34.2,34.2,0,0,1-1.15-6Z"/><path class="cls-59" d="M17.28,39.69c0,.16,6.13,2,6.13,2L24.2,43l20.33-.64L45.15,41s5.53-2.06,5.52-2.21-7.5-.87-16.72-.63S17.27,39.45,17.28,39.69Z"/><path class="cls-60" d="M17.28,39.69c0,.24,7.52,1.75,16.75,1.51S50.68,39,50.67,38.81s-7.5-.87-16.72-.63S17.27,39.45,17.28,39.69Z"/><path class="cls-61" d="M17.28,39.69c0,.24,7.51,1.12,16.73.88S50.68,39,50.67,38.81s-7.5-.87-16.72-.63S17.27,39.45,17.28,39.69Z"/><path class="cls-62" d="M21,39.65A94.25,94.25,0,0,0,34,40a95.55,95.55,0,0,0,13-1,107.78,107.78,0,0,0-13-.21A110.92,110.92,0,0,0,21,39.65Z"/><path class="cls-63" d="M44.65,42.1l-.12.27L24.2,43l-.72-1.19A171.62,171.62,0,0,1,44.65,42.1Z"/><path class="cls-13" d="M61.14,47.13c-.32-.72-1.71,3.4-1.36,3.07S61.76,48.5,61.14,47.13Z"/><path class="cls-13" d="M77.71,56.32c-.7-.72-.46,3.83-.31,3.52s.62-.91,1-1S79.14,57.81,77.71,56.32Z"/><path class="cls-64" d="M13.05,90.53C1,91.45,31.22,96.07,38,95.46s39.47-3.69,25.82-4.33S13.05,90.53,13.05,90.53Z"/><path class="cls-65" d="M58.4,86.87c.43,0-.55,4.51-1.3,4.65S37,95.17,34.53,95.14,12.94,91.51,12.41,91.2s-.91-4.44-.54-4.77,26.08-1,26.5-1.06C39.2,85.31,51.22,86.59,58.4,86.87Z"/><path class="cls-66" d="M20,86c-4.32,0,3.06,3.22,11.84,3.57s10.23-.24,8.93-.11S36,91.12,35.84,91.68s-.94,3-.27,3.06,19.73-3.61,21.06-4.17,2.26-3.68,1.77-3.7-20-1.5-20-1.5Z"/><path class="cls-67" d="M57.78,87.52c-.21-.68-22.34,2.88-22.61,3.06s-.68,4.57-.36,4.56,22.29-3.49,22.47-3.73A9.7,9.7,0,0,0,57.78,87.52Z"/><path class="cls-68" d="M11.77,88.46c.57,1.23,9.81,3.34,13.26,3.41s10.65-1.05,9.66-1.25S12.06,86.66,12,87A10.12,10.12,0,0,0,11.77,88.46Z"/><path class="cls-69" d="M21.59,88.37c.85.09-3.54-.25-4.09-.29s-4.55-1-3.59-.93S21.59,88.37,21.59,88.37Z"/><path class="cls-70" d="M49.16,86.77c6.79.55-.18,1.46-4,1.52s-19.59.31-22.91-.2-9.27-1-3.16-1.15S49.16,86.77,49.16,86.77Z"/><path class="cls-71" d="M48.84,87.56S52,79.91,52.71,74.1s-34.66-2.7-34.66-2.7.69,10,3.28,16.16A130.06,130.06,0,0,0,48.84,87.56Z"/><path class="cls-72" d="M37,80.82c1.16-9.51-7.81-7-11.49-6.38s-7.1-1.2-5.29,6.66C21.63,87,35.63,92.33,37,80.82Z"/><g class="cls-73"><path class="cls-74" d="M47.36,82.37c-.8-.73-3,2.09-1.94,2.16S48.16,83.09,47.36,82.37Z"/><path class="cls-75" d="M33.69,79.05c0-.72-2.36-.25-1.93.24S33.68,79.76,33.69,79.05Z"/><path class="cls-76" d="M25.57,76.18c-.22-1-3.5-1.12-2.73-.28S25.8,77.21,25.57,76.18Z"/><path class="cls-77" d="M47.43,84.78c-.19-.36-1.37.19-1,.37S47.61,85.14,47.43,84.78Z"/><path class="cls-78" d="M36.91,81.21c.08-.37-1.14-.55-1-.22S36.83,81.58,36.91,81.21Z"/><path class="cls-79" d="M43.33,80.58c.08-.37-1.14-.55-1-.22S43.25,80.94,43.33,80.58Z"/><path class="cls-80" d="M31.8,86.59c.08-.37-1.14-.55-1-.22S31.72,87,31.8,86.59Z"/><path class="cls-81" d="M20.19,80.29c.08-.36-1.15-.55-1-.22S20.1,80.66,20.19,80.29Z"/><path class="cls-82" d="M38.46,81.46c-.27-.72-1.71.1-1.08.43S38.74,82.19,38.46,81.46Z"/><path class="cls-83" d="M25.62,82.23c-.34-.91-1.62-.3-1.36.55C24.38,83.18,26,83.15,25.62,82.23Z"/><path class="cls-84" d="M26,81.39c-.1-.35-.56-.09-.49.24C25.5,81.78,26.06,81.74,26,81.39Z"/><path class="cls-85" d="M25.33,80.16c-.14-.27-.55-.14-.44.11S25.47,80.42,25.33,80.16Z"/><path class="cls-85" d="M44.37,81.07c-.14-.26-.55-.13-.44.12S44.51,81.34,44.37,81.07Z"/><path class="cls-85" d="M43.62,82.13c-.14-.27-.55-.14-.44.11S43.76,82.39,43.62,82.13Z"/><path class="cls-85" d="M26.55,75.3c-.14-.26-.55-.13-.44.12S26.69,75.57,26.55,75.3Z"/><path class="cls-85" d="M46.64,78.68c-.14-.27-.55-.13-.44.12S46.78,79,46.64,78.68Z"/><path class="cls-85" d="M48.37,86.91c-.14-.26-.55-.13-.44.12S48.51,87.18,48.37,86.91Z"/><path class="cls-85" d="M29.79,85.44c-.14-.27-.55-.13-.44.11S29.93,85.71,29.79,85.44Z"/><path class="cls-85" d="M21.34,83.36c-.14-.27-.54-.13-.44.11S21.48,83.63,21.34,83.36Z"/><path class="cls-86" d="M35.37,76.93c-.1-.35-.57-.09-.49.24C34.91,77.32,35.47,77.28,35.37,76.93Z"/><path class="cls-87" d="M43.15,85.87c-.1-.35-.57-.08-.49.24C42.69,86.27,43.25,86.22,43.15,85.87Z"/><path class="cls-88" d="M49.94,81.81c-.1-.35-.57-.09-.49.24C49.48,82.2,50,82.16,49.94,81.81Z"/><path class="cls-89" d="M27.2,82.91c-.27-.43-1-.25-.75.15C26.55,83.24,27.47,83.35,27.2,82.91Z"/><path class="cls-90" d="M48.88,77.26c-.27-.44-1-.26-.76.14C48.22,77.59,49.15,77.7,48.88,77.26Z"/><path class="cls-91" d="M20.66,75.87c-.32-.63-1.29-.3-1,.29C19.74,76.44,21,76.51,20.66,75.87Z"/></g><path class="cls-92" d="M48.51,79.15c-1.5,3.57-6.46,6.06-8.55,7.2s5.91,1.93,7.82.82S51.46,72.09,48.51,79.15Z"/><path class="cls-92" d="M49.22,74.72c2,4.47.22,11.2-1.12,12.16s-7.15,1.66-9.83.18-.78-10.91,3.21-12.78A8.69,8.69,0,0,1,49.22,74.72Z"/><path class="cls-93" d="M21.33,87.56a31.65,31.65,0,0,1-1.57-5.4c.29,0,.54.25.69,1.09.83,4.46,6.54,4.31,10,4.62s18.35,0,19.33-3.34c-.54,1.82-.93,3-.93,3A130.06,130.06,0,0,1,21.33,87.56Z"/><path class="cls-93" d="M19.75,82c-.67-4.4-.14-6.57.35-7s1.36,1.07,1.56,3.52.81,6.09.9,6.45.72.87.3-1.16-.49-6.32,1.45-8.32,3-.83,3.25,1.24.56,3.56.66,1.3.62-3.35,2-2.77,1.48,1.8,1.56,4.49,1.35,3.82,1.14,1.06.18-6,2-6.35,4.45.68,4.88,5.29.9,7,.9,7,.28.28.14-1.48a15.82,15.82,0,0,1,.5-5.56c.53-1.72,2.53-2.34,3-3.38a2.51,2.51,0,0,1,2.64-1.4c.92.23,1.87,0,2.43,1.4s1.07,1.84,1,4.1.13,2.49.13,2.49l.84-1.87.32-5.86L50.22,74H45.73l-4.91.31-8.51-1.83L20,72.19l-2.37.26,1.2,7.7Z"/><path class="cls-94" d="M53.79,74.86c.37-1,.94-2,.49-2.63s-.49-.59-.49-.59a1.86,1.86,0,0,0-.86-1.83c-1.11-.83-7-1.39-11.77-1.49s-21.35.28-23.36.73a2,2,0,0,0-.9,3.49,37.46,37.46,0,0,0,1,6.1c.73,2.59,2.12,4.47,1.94,5.27s-1.35,1.62-1.69,2.59,1.69,1.21,3.46,1.52,0-.52-.25-1.19-2.21-7.37-2.32-10,.94-4,2-1.52.87,7.34.59,8.83,1.14,2.67,1.35,1-1.49-1.84-.59-6.9c.44-2.46,1.05-4.07,3.12-4.56s2.14,1.3,1.83,3.21.21,2.49.69,2.8.14-3-.14-4.43.73-1.45,2.25-.76,1.63,1.9,1.56,4.33-.55,1.63.24,2.6,1.7,1.06,1.14-.79a11.38,11.38,0,0,1-.58-5.55c.38-1.77,1.62-1.7,4.22-.8s2.7,2.7,3.22,5.82a15.37,15.37,0,0,1-.21,6.62c-.35,1.21-.55.78-1.25,1.58s4.33.32,5.44.22-.59-1.59-1.7-1.8-1.45-1.66-1.56-5.3.14-3.3,1.46-3.75.24-1.24,2-2.21,3-1.52,4.5-.28,1.21.59,1.93,1.18.21,3.49,0,4.84-.14,1.92.37,2.2,1.41-.22,1.49-1.61-.79-2.11-.51-3.84S53,76.87,53.79,74.86Z"/><path class="cls-95" d="M27.58,81.87c-.64-.2-.23-1.47.12-1.44S28.32,82.09,27.58,81.87Z"/><path class="cls-95" d="M32.23,85.27c-.66.22-1.12-1.3-.32-1.49A.76.76,0,1,1,32.23,85.27Z"/><path class="cls-96" d="M19.58,84.42a1.62,1.62,0,0,0,.23-.51c.18-.8-1.21-2.68-1.94-5.27a37.46,37.46,0,0,1-1-6.1,1.9,1.9,0,0,1-.6-2.12c-.26,1.68,1.13,1.92,2.91,2s3.15.87,5.25.88,4-.1,6.33-.23,6.39.39,8.92.51a14.87,14.87,0,0,0,4.7-.46c1.48-.29,4.18.31,6.88.52,2.53.19,3.11-.47,3.14-1a5.65,5.65,0,0,1-.64,2.24c-.76,2-1.56,1.35-1.83,3.08s.59,2.46.51,3.84-1,1.88-1.49,1.61-.55-.85-.37-2.2.69-4.25,0-4.84-.41.07-1.93-1.18-2.7-.69-4.5.28-.73,1.76-2,2.21-1.56.12-1.46,3.75.45,5.09,1.56,5.3,2.8,1.69,1.7,1.8-6.13.59-5.44-.22.9-.37,1.25-1.58a15.37,15.37,0,0,0,.21-6.62c-.52-3.12-.63-4.92-3.22-5.82s-3.84-1-4.22.8a11.38,11.38,0,0,0,.58,5.55c.56,1.85-.34,1.76-1.14.79s-.31-.18-.24-2.6,0-3.64-1.56-4.33-2.52-.69-2.25.76S28.5,80,28,79.67s-1-.9-.69-2.8.19-3.69-1.83-3.21-2.68,2.1-3.12,4.56c-.9,5.06.8,5.24.59,6.9s-1.63.48-1.35-1,.48-6.41-.59-8.83-2.11-1.15-2,1.52,2,9.35,2.32,10,2,1.5.25,1.19c-1.49-.26-3.16-.47-3.45-1.11C21.81,88.07,20.36,83.45,19.58,84.42Z"/><path class="cls-96" d="M50.24,70.57c2.69.91,3.62,2,1.31,2s-2.69.71-4.65.29-3.22-.59-4.4-.17a6.48,6.48,0,0,1-3.76.27c-1-.32-3.24-.08-5.8-.27s-4.89.25-6,.12-4.5-.21-5.09-.16a13.75,13.75,0,0,1-3.57-.81c-.57-.28.5-.52,1.58-1.17s-5.07-.58.06-1.34,15.41-1.47,15.41-1.47l11,.7Z"/><path class="cls-96" d="M49.93,71.8c2.36.2.12,1-3.19.84s-4.69-.79-1.6-.89A44.47,44.47,0,0,1,49.93,71.8Z"/><path class="cls-96" d="M38.64,71.84c2.36.2.12,1-3.2.84s-4.69-.79-1.6-.89A44.62,44.62,0,0,1,38.64,71.84Z"/><path class="cls-96" d="M25.54,71.69c2.36.2.12,1.06-3.19.84s-4.69-.79-1.6-.89A44.47,44.47,0,0,1,25.54,71.69Z"/><path class="cls-96" d="M34.05,68.44c3,.43.15,2.22-4,1.77s-5.89-1.66-2-1.87A35.29,35.29,0,0,1,34.05,68.44Z"/><path class="cls-96" d="M43.21,68.53c2.36.16.12.8-3.19.64s-4.69-.6-1.6-.67S43.21,68.53,43.21,68.53Z"/><path class="cls-97" d="M24.34,70.21c2.9-.47,2.86-1.92,2.42-3.13s-1.57-1.63-2.21-2.4c-.49-.59-1-1.09-1-1.89s-1.06.3-1.4,1-1.7,1.69-2.28,2.44a2.39,2.39,0,0,0-.29,2.88A6.36,6.36,0,0,0,24.34,70.21Z"/><path class="cls-98" d="M24.34,70.21a6.25,6.25,0,0,1-4.42-1,1.21,1.21,0,0,1-.47-1.41c.32-.83,1.11-1.24,1.41-.43.39,1.07,1.11,2.26,2.25,1.32s2.87-2.86,3.73-1.39C27.19,68.47,27.06,69.77,24.34,70.21Z"/><path class="cls-99" d="M25,66.75c-1.32.09-2.48-.73-1.91-2.94s-.85.2-1.59.87-1.81,1.75-1.37,2A5.13,5.13,0,0,1,22,67.92c.41.58,1.77.13,2.4-.41S25.58,66.71,25,66.75Z"/><path class="cls-99" d="M21.88,67.82c.37.22.41-1.16,0-1.45s-2.25,0-1.62.32S21.52,67.61,21.88,67.82Z"/><path class="cls-100" d="M26.69,67.26c-.43-.67-1.59,1.41-1.88,2.12s1.66-.24,1.88-.74A1.46,1.46,0,0,0,26.69,67.26Z"/><path class="cls-101" d="M27.42,67.18c-.57-1-2.27.69-2.3,1.94s1.83.85,2.3,0A2.53,2.53,0,0,0,27.42,67.18Z"/><path class="cls-102" d="M48.67,70.35c2.9-.47,2.85-1.92,2.42-3.13s-1.58-1.63-2.21-2.4c-.49-.59-1-1.09-1-1.89s-1.06.3-1.41,1-1.7,1.69-2.28,2.44a2.39,2.39,0,0,0-.29,2.88A6.38,6.38,0,0,0,48.67,70.35Z"/><path class="cls-103" d="M48.67,70.35a6.19,6.19,0,0,1-4.42-1,1.2,1.2,0,0,1-.48-1.4c.32-.84,1.12-1.24,1.42-.43.39,1.07,1.1,2.26,2.24,1.32s2.87-2.86,3.73-1.4C51.52,68.6,51.39,69.9,48.67,70.35Z"/><path class="cls-99" d="M49.35,66.89C48,67,46.87,66.16,47.43,64s-.85.19-1.59.87-1.81,1.75-1.37,2a5.21,5.21,0,0,1,1.81,1.29c.41.58,1.77.12,2.4-.41S49.9,66.85,49.35,66.89Z"/><path class="cls-99" d="M46.2,68c.37.22.42-1.16,0-1.46s-2.25,0-1.62.33S45.84,67.75,46.2,68Z"/><path class="cls-100" d="M51,67.4c-.43-.67-1.59,1.41-1.88,2.11s1.66-.23,1.88-.73A1.49,1.49,0,0,0,51,67.4Z"/><path class="cls-104" d="M47.53,64.2a1.54,1.54,0,0,0,1.16,2.3c1.37.23-.11-.55-.55-1.48S47.72,63.75,47.53,64.2Z"/><path class="cls-101" d="M43.54,66.65c1-.17,2.11,1.22,1.93,2.35s-1.8,1-2.09.32A7,7,0,0,1,43.54,66.65Z"/><path class="cls-105" d="M43.7,64.77a2.17,2.17,0,0,0-.29-2.55c-1.1-1.28-1.64-1.16-1.59,0a2.28,2.28,0,0,0,.44,1.51,3.47,3.47,0,0,0-1.92-.47c-1,.1-.37,1-.37,1s3.05,1.86,3.44,3.4.88,1.59,1-.37c0,0,.51,1,.34-.51A2.48,2.48,0,0,0,43.7,64.77Z"/><path class="cls-106" d="M42.85,61.65s1.32,1.87.17,3,.78-.16-.76-.88-2.17-.39-2.17-.39,1.65.08,1.82.8S43.16,66.82,43.5,68s.76.61.59-.86a2.59,2.59,0,0,0-1.11-2,4,4,0,0,1,1.41,2.14s.48.91.17-.51S43.41,65,43.41,65l.29-.26A2.43,2.43,0,0,0,42.85,61.65Z"/><path class="cls-107" d="M38.59,68.52C37.49,67.7,37.51,65,39.94,64s4.29,1.43,3.94,3.36S39.63,69.29,38.59,68.52Z"/><path class="cls-108" d="M43.88,67.32c-.34,1.94-4.25,2-5.29,1.2a2,2,0,0,1-.69-1.47c.05-.36.3-.37,1.19.12S41.3,68,41.88,67s.65-3,1.41-2A3.17,3.17,0,0,1,43.88,67.32Z"/><path class="cls-109" d="M42.33,64.8c-.16.41-1.61,0-2.69.4s-1.69,1.57-1.52.86a3.28,3.28,0,0,1,2.46-2.16C41.79,63.83,42.53,64.25,42.33,64.8Z"/><path class="cls-110" d="M40.44,64a1.43,1.43,0,0,1-1.58.85S39.66,63.91,40.44,64Z"/><path class="cls-111" d="M43.45,66a2.61,2.61,0,0,1-1.75,2.57c-1,.27.14.4,1.31-.25S43.52,65.2,43.45,66Z"/><path class="cls-96" d="M39.33,66.22c.1.08.53-.14.45-.3S39.11,66.06,39.33,66.22Z"/><path class="cls-96" d="M41.19,66.05c.1.07.53-.15.45-.3S41,65.88,41.19,66.05Z"/><path class="cls-96" d="M41.83,64.75c.11.07.54-.15.46-.3S41.61,64.59,41.83,64.75Z"/><path class="cls-96" d="M40,68c.1.07.53-.15.45-.3S39.76,67.85,40,68Z"/><path class="cls-96" d="M42.85,67.5c.11.07.54-.15.46-.3S42.63,67.34,42.85,67.5Z"/><path class="cls-96" d="M41,68.91c.1,0,.53-.11.45-.22S40.77,68.79,41,68.91Z"/><path class="cls-96" d="M38.12,67c.11,0,.26-.48.14-.48S37.9,67.12,38.12,67Z"/><path class="cls-96" d="M39.64,64.92c.11,0,.45-.3.33-.38S39.38,64.89,39.64,64.92Z"/><path class="cls-112" d="M36.78,69.62c3.06-.41,3-1.66,2.55-2.7S37.67,65.51,37,64.85c-.51-.51-1.09-.94-1.09-1.64s-1.12.27-1.48.88-1.79,1.46-2.4,2.1a1.78,1.78,0,0,0-.3,2.49A7.81,7.81,0,0,0,36.78,69.62Z"/><path class="cls-113" d="M36.78,69.62a7.65,7.65,0,0,1-4.65-.86.94.94,0,0,1-.49-1.21c.33-.72,1.17-1.07,1.48-.37.41.92,1.16,1.95,2.37,1.13s3-2.46,3.92-1.2C39.79,68.11,39.65,69.24,36.78,69.62Z"/><path class="cls-99" d="M37.5,66.63c-1.39.08-2.61-.63-2-2.53s-.9.16-1.68.75-1.9,1.5-1.44,1.68a5.58,5.58,0,0,1,1.9,1.11c.44.51,1.87.11,2.53-.35S38.08,66.6,37.5,66.63Z"/><path class="cls-99" d="M34.19,67.56c.39.19.44-1,0-1.26s-2.37,0-1.71.28S33.81,67.37,34.19,67.56Z"/><path class="cls-100" d="M39.26,67.08c-.45-.58-1.68,1.21-2,1.82s1.75-.2,2-.64A1.05,1.05,0,0,0,39.26,67.08Z"/><path class="cls-114" d="M21.56,67a2.48,2.48,0,0,0,1.11-2.19c0-.44-1.78.38-2.18,2a2.2,2.2,0,0,0-.86-1.89c-1-.66-1,2.05-.21,2.49a2.75,2.75,0,0,0-1.85,1.38c-.5,1.11-.85,1.79,1.12.79s0,.08,0,.08a2.82,2.82,0,0,0-.36,1.91c.2,1,.57,1,1.09.11a2.35,2.35,0,0,0,.36-1.55Z"/><path class="cls-106" d="M22.23,66.33a3.69,3.69,0,0,0,.42-1.22c.09-.66-1.69,1.11-2,1.85s-.31.38-.31.38a2,2,0,0,0,0-1.55c-.33-.87-1-1.28-1-.21a3.53,3.53,0,0,0,.61,2,8.9,8.9,0,0,0-1.75.83c-.65.45-1,1.74-.45,1.54A20.71,20.71,0,0,0,19.63,69s.12.11-.32.36-.46,1-.46,1.77.07,1.9.91-.3A24.56,24.56,0,0,1,22.23,66.33Z"/><path class="cls-115" d="M20.14,67.46c1.3-1.87,3.55-1.47,4.79.35s2.39,3.58-.59,4.27S17.63,71.08,20.14,67.46Z"/><path class="cls-116" d="M24.34,72.08c-2.72.64-6.08-.73-4.71-3.74a1.57,1.57,0,0,0,.29,1.83c.88.74,1.47-.06,2.65-.09s2.25.74,2.66.27.35-1.54-.38-2.64a.39.39,0,0,1,.08.1C26.18,69.62,27.32,71.39,24.34,72.08Z"/><path class="cls-109" d="M24.38,67.6a3.89,3.89,0,0,0-4.27.9c-.62,1-.67,0,0-.88a2.58,2.58,0,0,1,2.47-1.26C23.73,66.48,25.23,68.09,24.38,67.6Z"/><path class="cls-110" d="M22.77,66.39a9.88,9.88,0,0,1-2.43,1A2.23,2.23,0,0,1,22.77,66.39Z"/><path class="cls-111" d="M25.14,71.41c-1.44.49-5.44-.66-4.8-.16A4.85,4.85,0,0,0,24,72C25.49,71.69,26,71.13,25.14,71.41Z"/><path class="cls-96" d="M24.28,68.83c-.11.08-.57-.16-.49-.32S24.52,68.66,24.28,68.83Z"/><path class="cls-96" d="M22.29,68.64c-.11.08-.57-.16-.48-.32S22.53,68.47,22.29,68.64Z"/><path class="cls-96" d="M21.6,67.25c-.11.08-.57-.15-.49-.32S21.84,67.08,21.6,67.25Z"/><path class="cls-96" d="M23.57,70.74c-.11.08-.57-.15-.48-.32S23.82,70.57,23.57,70.74Z"/><path class="cls-96" d="M20.51,70.19c-.11.08-.57-.15-.49-.32S20.75,70,20.51,70.19Z"/><path class="cls-96" d="M22.49,71.81c-.11.08-.57-.16-.48-.32S22.73,71.64,22.49,71.81Z"/><path class="cls-96" d="M25.72,70c-.11-.06-.28-.51-.14-.51S26,70.06,25.72,70Z"/><path class="cls-96" d="M24,67.44c-.12,0-.49-.32-.36-.41S24.22,67.4,24,67.44Z"/><path class="cls-101" d="M31.16,68.19c.47,1.12.85,1.52,1.54.08s-.62-2.36-1-1.86A5.11,5.11,0,0,0,31.16,68.19Z"/><path class="cls-117" d="M51.21,68.36a6.81,6.81,0,0,0-.64-3.4c-.84-1.68-1.25-.13-1.19,1a3.52,3.52,0,0,0-1.86-1c-1.2-.23,1.31,1.82,1.31,1.82s1.36,2.33,1.33,3.52S51.82,72,52,71.51,51.62,70,51.62,70a2.18,2.18,0,0,0,1.62,1C54.21,70.92,53.06,68.88,51.21,68.36Z"/><path class="cls-106" d="M50.46,64.76c-.76-1.36,1.26,2.58-.16,3.68-.88.68-.29-1.7-.92-2.46s-2.4-1.07-1.54-.8a4.26,4.26,0,0,1,2.06,2.16,23,23,0,0,1,.4,3.87s2.87,1.82,1-1.31l-.23-.67A3.36,3.36,0,0,0,53,70.92c1.32.39-1.28-2.47-2.19-2.39s.4-.17.4-.17A8.7,8.7,0,0,0,50.46,64.76Z"/><path class="cls-118" d="M50.47,67.64c-1.3-1.88-3.54-1.47-4.79.34s-2.39,3.58.59,4.28S53,71.25,50.47,67.64Z"/><path class="cls-119" d="M50.47,67.64c2.51,3.61-1.22,5.31-4.2,4.62-1.38-.32-1.87-.87-1.88-1.55,0,.38.54.66,1.78-.36,1.44-1.18,1.61.31,3.27,0,3.42-.63-.35-4.08.64-3.18A3,3,0,0,1,50.47,67.64Z"/><path class="cls-109" d="M49.23,67c.35.68-2.67,3.18-3.74,3.5s-.17-2.36,1-3.29S48.85,66.31,49.23,67Z"/><path class="cls-110" d="M47.71,66.78s.08,1.46-2.05,1.5C45.66,68.28,46.53,66.73,47.71,66.78Z"/><path class="cls-111" d="M49.92,71.61c-1.89.74-5.4-.33-4.53,0a5.53,5.53,0,0,0,3.23.4C50.24,71.81,50.71,71.3,49.92,71.61Z"/><path class="cls-96" d="M46.25,69.17c.11.08.57-.15.48-.32S46,69,46.25,69.17Z"/><path class="cls-96" d="M48.24,69c.11.08.57-.15.48-.32S48,68.81,48.24,69Z"/><path class="cls-96" d="M48.93,67.59c.11.08.57-.15.48-.31S48.69,67.42,48.93,67.59Z"/><path class="cls-96" d="M47,71.09c.11.07.57-.16.49-.32S46.71,70.91,47,71.09Z"/><path class="cls-96" d="M50,70.54c.11.08.57-.16.48-.32S49.78,70.37,50,70.54Z"/><path class="cls-96" d="M48.63,71.72c.09.1.58,0,.53-.21S48.42,71.51,48.63,71.72Z"/><path class="cls-96" d="M44.81,70.29c.11-.05.28-.51.14-.51S44.57,70.41,44.81,70.29Z"/><path class="cls-96" d="M46.58,67.78c.12,0,.48-.32.36-.41S46.3,67.75,46.58,67.78Z"/><path class="cls-120" d="M29.26,64.14c.47-.45.09-1.57-.19-1.81s-1,1.12-1.16,1.67a1.7,1.7,0,0,0,0-.78c-.08-.53-1.76.91-1.39,2.64,0,0-1.22.82-1.36,1.48s1.17.38,1.54,0-.22,0,.05.66.28.49,1,.23S29.26,64.14,29.26,64.14Z"/><path class="cls-106" d="M29.26,64.14a1.39,1.39,0,0,0,.07-1.4c-.36-.92-1.16,1.7-1.16,1.7l-.32,0,.09-.59s.06-1-.34-.51a3.82,3.82,0,0,0-.7,2.37c.17.45-.13.33-.13.33s-1,.68-1.23,1.26.69.42,1.4-.17.16-.11,0,.36.1,1,.65.77S29.26,64.14,29.26,64.14Z"/><path class="cls-121" d="M31.34,68.29c1-.73,1-3.18-1.21-4.08s-3.84,1.28-3.53,3S30.4,69,31.34,68.29Z"/><path class="cls-122" d="M31.34,68.29c-.94.7-4.43.66-4.74-1.07A2.54,2.54,0,0,1,26.69,66c-.23,1.19,2,2.1,2.9,1.43s2.1-2.14,2.34-1.05A2,2,0,0,1,31.34,68.29Z"/><path class="cls-109" d="M30.28,64.67c-1.14-.47-2.49,1.19-2.87,1.93s-1.05-.66,0-1.75a2.22,2.22,0,0,1,2.72-.53C30.8,64.58,30.8,64.88,30.28,64.67Z"/><path class="cls-110" d="M28.53,64.14A2.27,2.27,0,0,1,27,65.37S27.24,64.64,28.53,64.14Z"/><path class="cls-111" d="M31.56,67a4.11,4.11,0,0,1-2.63,1.46c-.74.12,1.09.39,2,0S32,66.41,31.56,67Z"/><path class="cls-96" d="M30.45,65.78c-.09.07-.49-.13-.41-.27S30.66,65.63,30.45,65.78Z"/><path class="cls-96" d="M28.76,65.26c-.1.07-.49-.13-.42-.27S29,65.11,28.76,65.26Z"/><path class="cls-96" d="M28.29,66.93c-.09.07-.49-.13-.41-.27S28.5,66.79,28.29,66.93Z"/><path class="cls-96" d="M29.85,67.41c-.09.07-.49-.13-.41-.27S30.06,67.26,29.85,67.41Z"/><path class="cls-96" d="M27,67.49c-.09,0-.28-.37-.18-.37S27.15,67.57,27,67.49Z"/><path class="cls-96" d="M28.93,68.32c-.09.07-.49-.13-.41-.27S29.13,68.17,28.93,68.32Z"/><path class="cls-96" d="M31.68,66.73c-.1,0-.24-.43-.12-.43S31.88,66.83,31.68,66.73Z"/><path class="cls-96" d="M30.21,64.5c-.1,0-.43-.23-.34-.27S30.43,64.51,30.21,64.5Z"/><path class="cls-123" d="M42.57,72.52c2.9-.47,2.86-1.91,2.42-3.13s-1.57-1.63-2.21-2.4c-.49-.59-1-1.09-1-1.89s-1.06.31-1.4,1-1.7,1.69-2.28,2.43a2.41,2.41,0,0,0-.29,2.89A6.38,6.38,0,0,0,42.57,72.52Z"/><path class="cls-124" d="M42.57,72.52a6.15,6.15,0,0,1-4.42-1,1.22,1.22,0,0,1-.47-1.41c.32-.83,1.11-1.23,1.41-.42C39.48,70.77,40.2,72,41.34,71s2.87-2.85,3.73-1.39C45.42,70.78,45.29,72.08,42.57,72.52Z"/><path class="cls-99" d="M43.25,69.06c-1.32.09-2.48-.72-1.91-2.94s-.85.2-1.59.87-1.81,1.75-1.37,2a5.3,5.3,0,0,1,1.81,1.29c.41.58,1.77.12,2.4-.42S43.81,69,43.25,69.06Z"/><path class="cls-99" d="M40.11,70.13c.37.22.41-1.15,0-1.45s-2.25,0-1.62.32S39.75,69.92,40.11,70.13Z"/><path class="cls-100" d="M44.92,69.58c-.43-.67-1.59,1.4-1.88,2.11s1.66-.23,1.88-.74A1.44,1.44,0,0,0,44.92,69.58Z"/><path class="cls-101" d="M38.79,71.79c.92.5,1.91-1.38,1.4-2.3S38.79,71.79,38.79,71.79Z"/><path class="cls-125" d="M30.39,72.53c3-.41,3-1.66,2.55-2.7s-1.66-1.41-2.33-2.07c-.51-.51-1.1-.94-1.1-1.64S28.4,66.39,28,67s-1.78,1.46-2.39,2.1a1.79,1.79,0,0,0-.31,2.49A7.83,7.83,0,0,0,30.39,72.53Z"/><path class="cls-126" d="M30.39,72.53a7.63,7.63,0,0,1-4.65-.86.94.94,0,0,1-.5-1.21c.33-.72,1.17-1.07,1.48-.37.42.92,1.17,2,2.37,1.13s3-2.46,3.92-1.2C33.39,71,33.25,72.15,30.39,72.53Z"/><path class="cls-99" d="M31.1,69.54c-1.38.08-2.6-.62-2-2.53s-.9.16-1.67.75-1.91,1.5-1.45,1.68a5.71,5.71,0,0,1,1.91,1.11c.43.51,1.86.11,2.52-.35S31.69,69.51,31.1,69.54Z"/><path class="cls-99" d="M27.79,70.47c.39.19.44-1,0-1.26s-2.36,0-1.7.28S27.42,70.28,27.79,70.47Z"/><path class="cls-100" d="M32.86,70c-.45-.58-1.67,1.21-2,1.82s1.74-.2,2-.64A1.05,1.05,0,0,0,32.86,70Z"/><path class="cls-127" d="M39.18,69c-1-3.1-4-2.8-5.52-.5s-1.16,3.64,2.06,3.89S39.78,71,39.18,69Z"/><path class="cls-128" d="M39.18,69c.6,1.94-.25,3.63-3.46,3.39-2-.16-2.93-.76-2.92-1.77a.86.86,0,0,0,1.72.08c.16-1.14.85-.8.87-1.73s.45-2.43,1.72-2.18A3,3,0,0,1,39.18,69Z"/><path class="cls-109" d="M35.32,67.71a32.57,32.57,0,0,1-2,2.75c-.44.46-.31-.65.42-1.74S36.26,66.31,35.32,67.71Z"/><path class="cls-110" d="M34.8,67.53a2.33,2.33,0,0,1-1.45,1.82S33.44,68.67,34.8,67.53Z"/><path class="cls-111" d="M37.22,67.53c-1-.16-1.38,1.61-.92,2.62s1.85,1.85,2.56,1A2.38,2.38,0,0,0,37.22,67.53Z"/><path class="cls-111" d="M37.19,71.94c-1.14,0-3.38-.35-3.22-.08s2.19.43,3.22.23S37.67,71.92,37.19,71.94Z"/><path class="cls-129" d="M38.14,68s.53-1.38,1.63-1.54.16,1.82-.87,2.23a7,7,0,0,1,2.41,1.45c1,1-2.33.39-2.45.33A3.48,3.48,0,0,1,38.74,73c-.62,1.18-1.58-.49-1.71-1.27a2.54,2.54,0,0,1,.14-1.36,2.3,2.3,0,0,1-1.87.22c-.79-.41,1-.87,1.56-1.06a2.66,2.66,0,0,1-.35-2.17C36.93,66.31,38.14,68,38.14,68Z"/><path class="cls-106" d="M40.26,66.86c.06-.54-1.67.52-2,1.33,0,0-.68-1-1.1-.91s-.29,1.73.07,2.23c0,0-1.43.45-1.69.84s.76.47,1.88-.15A5.82,5.82,0,0,0,37.89,73c.58,1.07,1.22-.38,1.16-1.19a9,9,0,0,0-.19-1.34s2.37.5,2.61.06-2.86-1.73-2.86-1.73a2.12,2.12,0,0,0,.29-.11A2.56,2.56,0,0,0,40.26,66.86Z"/><path class="cls-106" d="M37.52,69.51a2.8,2.8,0,0,1,.45-.06,3.9,3.9,0,0,1,.46-.53,1.93,1.93,0,0,1-.13.56.54.54,0,0,1,.46.72,1,1,0,0,0-.55-.55.73.73,0,0,1-.61.37,3.84,3.84,0,0,1,.3-.47A1.48,1.48,0,0,0,37.52,69.51Z"/><path class="cls-96" d="M34.63,69.17c.11.08.57-.15.48-.32S34.39,69,34.63,69.17Z"/><path class="cls-96" d="M36.14,67c.11,0,.57,0,.48-.12S35.9,66.92,36.14,67Z"/><path class="cls-96" d="M33.86,70.35c.11.08.57-.16.48-.32S33.62,70.18,33.86,70.35Z"/><path class="cls-96" d="M35.33,71.09c.11.07.57-.16.49-.32S35.09,70.91,35.33,71.09Z"/><path class="cls-96" d="M33.58,71.61c.11.08.57-.16.49-.32S33.34,71.44,33.58,71.61Z"/><path class="cls-96" d="M36.42,72.15c.11.08.57-.15.48-.32S36.17,72,36.42,72.15Z"/><path class="cls-96" d="M33.19,70.29c.11-.05.28-.51.14-.51S33,70.41,33.19,70.29Z"/><path class="cls-96" d="M35,67.78c.12,0,.48-.32.36-.41S34.68,67.75,35,67.78Z"/><path class="cls-104" d="M23.18,64a1.54,1.54,0,0,0,1.15,2.3c1.38.23-.1-.56-.55-1.48S23.37,63.55,23.18,64Z"/><path class="cls-104" d="M29.12,67.09a1.55,1.55,0,0,0,1.15,2.31c1.38.22-.1-.56-.54-1.48S29.31,66.65,29.12,67.09Z"/><path class="cls-104" d="M35.59,64.13a1.54,1.54,0,0,0,1.15,2.31c1.37.23-.11-.56-.55-1.48S35.78,63.69,35.59,64.13Z"/><path class="cls-104" d="M41.49,66.59a1.54,1.54,0,0,0,1.16,2.3c1.37.23-.11-.55-.55-1.47S41.68,66.15,41.49,66.59Z"/><path class="cls-130" d="M19.11,65c.17-.26.2,1,0,1.42S18.68,65.62,19.11,65Z"/><path class="cls-130" d="M36.71,67.3c.26-.26.3,1,.07,1.42S36.07,68,36.71,67.3Z"/><path class="cls-130" d="M47.36,65.25c-.12-.42,1.16.19,1.47.68S47.66,66.3,47.36,65.25Z"/><path class="cls-130" d="M39.9,63.61c-.26-.22,1-.21,1.42,0S40.54,64.16,39.9,63.61Z"/><path class="cls-130" d="M42,61.55c.3-.66,1.37.58,1.25,1.39S41.29,63.19,42,61.55Z"/><path class="cls-130" d="M49.75,64.48c.4-.51,1,1,.74,1.72S48.77,65.73,49.75,64.48Z"/><path class="cls-130" d="M27.08,63.8c.24-.21-.08,1-.35,1.37S26.49,64.31,27.08,63.8Z"/><path class="cls-130" d="M28.68,62.67c.26-.18-.17,1-.47,1.34S28.05,63.13,28.68,62.67Z"/><path class="cls-130" d="M39.47,66.55c.32-.09-.54.9-1,1.14S38.69,66.78,39.47,66.55Z"/><path class="cls-130" d="M19.53,67.36c.44,0-.91.66-1.2.75S18.63,67.31,19.53,67.36Z"/><path class="cls-130" d="M26.59,66c.43-.12-.74.85-1,1S25.67,66.24,26.59,66Z"/><path class="cls-130" d="M36.67,69.6c.44-.06-.85.5-1.13.59S35.73,69.74,36.67,69.6Z"/><path class="cls-130" d="M22.26,64.85A3.84,3.84,0,0,1,21,66.13c-.36.17,0-.6.52-1S22.31,64.71,22.26,64.85Z"/><path class="cls-130" d="M18.92,69.88a3.69,3.69,0,0,1-.5,1.51c-.16.17-.07-1.53.27-1.76S18.92,69.88,18.92,69.88Z"/><path class="cls-111" d="M34.51,73.33c-1.93-.19-3-.15-2.95.41a8.42,8.42,0,0,0,.49,2.38c.22.13,0-1.86.75-2.33S35.27,73.4,34.51,73.33Z"/><path class="cls-111" d="M30.91,74.68a2.49,2.49,0,0,0-3-1.35c-.52.26-.31.92-.21,1.12s.1-.4.64-.51a6.11,6.11,0,0,1,2.28.74C30.83,74.77,31,74.93,30.91,74.68Z"/><path class="cls-111" d="M28.1,77.58c-.2-.4-.88,1.13-.63,1.52s.7.56.7.05A7,7,0,0,0,28.1,77.58Z"/><path class="cls-111" d="M28,81.16c-.19-.48-.91.3-.47.55S28,81.36,28,81.16Z"/><path class="cls-111" d="M33,80.77c-.25-.4-1.47-.47-1.24.13s.58.83,1,.3S33.29,81.22,33,80.77Z"/><path class="cls-111" d="M32.77,84.4c-.13-.5-1.13.08-1,.53S32.94,85.05,32.77,84.4Z"/><path class="cls-111" d="M20.59,86.48a1.58,1.58,0,0,1-1.33.71c-.49,0,.29.39,1.52.44S20.9,86.09,20.59,86.48Z"/><path class="cls-111" d="M22.77,84.11c-.11.64-.5,1.28-.88.92s0,.8.5.73S22.82,83.82,22.77,84.11Z"/><path class="cls-111" d="M25.12,73.46c-2.6-.26-2.94.24-3,1.61s-.18,4.16,0,3.42.4-3,1.27-3.81S25.57,73.5,25.12,73.46Z"/><path class="cls-111" d="M20.71,74.18c.35.3.11-2.43-2-1.47-.85.38-.54,4.61,0,6.2s.6,1.62.35-.23-.45-3.65.17-4.5S20.51,74,20.71,74.18Z"/><path class="cls-111" d="M47.5,74.18c-1.82-1.46-3.21-1.09-4.09-.51s-.48,2.44-1.33,2.28-1.4.36-1.52,1.85-.13,2.74.12,1.67.38-1.65,1.29-2,.59-.86,1.23-1.56a4,4,0,0,1,3-1.77C47.67,74.2,47.91,74.51,47.5,74.18Z"/><path class="cls-111" d="M42.9,87.21c-.75-.43-1.84,1.22-2.74,1.08s-1.11-.3-1.37,0-.43.38,2.34.29S45,88.39,42.9,87.21Z"/><path class="cls-111" d="M54,73.67c-.9,1.38-1.82,1.55-2.39,2.11s-.1,3.73,0,2.9a2.7,2.7,0,0,1,.92-2.16C53.4,75.68,54.31,73.19,54,73.67Z"/><path class="cls-111" d="M52.23,81.05c-.56-.64-1.58-.62-1.47,0S51.21,84,51.92,83,52.35,81.18,52.23,81.05Z"/><path class="cls-131" d="M54.23,73.09c.23-.26.2.16-1.84-.26s-3,.34-4.1.32.56.24,2.51.41S53.84,73.52,54.23,73.09Z"/><path class="cls-132" d="M44.77,72.94a14.75,14.75,0,0,1-3.82.55c-1-.07.13-.25,1.32-.62a3.76,3.76,0,0,1,2.39-.2C45.41,72.85,45,72.85,44.77,72.94Z"/><path class="cls-133" d="M32.62,73c-1.66-.08-4.5.17-6,.2s2.65-.48,3.74-.53S33.51,73.08,32.62,73Z"/><path class="cls-134" d="M18.3,72.34c-1.15,0-2.34-.94-2-1.85s.95-1.28.76-1A1.78,1.78,0,0,0,17.18,71c.31.46.23,1,1.07,1.17S18.3,72.34,18.3,72.34Z"/><path class="cls-135" d="M25.21,73.27c1.58,0-4.11-.71-3.49-.42A12.75,12.75,0,0,0,25.21,73.27Z"/><path class="cls-136" d="M43.25,73.33c.59-.11-1-.34-1.54-.12s-1.59.28-.58.36A7,7,0,0,0,43.25,73.33Z"/><path class="cls-136" d="M33.17,73c-2.9,0-5.69.2-6.14.21a14.39,14.39,0,0,1,3.36-.56C31.5,72.67,34.57,73.05,33.17,73Z"/><path class="cls-136" d="M18.37,72.35c.94.09-1.18-.54-1.66-1.23s-.38-.93-.44-.36S16.31,72.15,18.37,72.35Z"/><g class="cls-137"><path class="cls-96" d="M30.45,31.75c-2.12.31-.05,1,2.93.58s4.19-1,1.39-.89A40,40,0,0,0,30.45,31.75Z"/><path class="cls-138" d="M33.75,27.28a2.23,2.23,0,0,1-1.14-1.9c0-.4,1.64.24,2.09,1.66a2,2,0,0,1,.67-1.75c.84-.65,1,1.78.34,2.22a2.53,2.53,0,0,1,1.76,1.13c.52,1,.87,1.57-1,.78s0,.07,0,.07a2.52,2.52,0,0,1,.44,1.69c-.13.92-.45,1-1,.16A2.08,2.08,0,0,1,35.53,30Z"/><path class="cls-106" d="M33.11,26.77a3.29,3.29,0,0,1-.46-1.08c-.12-.58,1.6.9,1.93,1.55s.29.32.29.32a1.85,1.85,0,0,1-.09-1.39c.25-.8.82-1.21.92-.25a3,3,0,0,1-.44,1.79,8,8,0,0,1,1.64.65c.61.37,1.05,1.5.5,1.35a18.8,18.8,0,0,1-1.78-.7s-.1.1.31.3.48.86.52,1.56.06,1.7-.84-.22A22.2,22.2,0,0,0,33.11,26.77Z"/><path class="cls-139" d="M35.07,27.66c-1.29-1.61-3.3-1.12-4.31.58s-1.93,3.34.79,3.79S37.55,30.77,35.07,27.66Z"/><path class="cls-140" d="M31.55,32c2.5.42,5.45-1,4-3.61a1.41,1.41,0,0,1-.15,1.66c-.76.71-1.34,0-2.4.06s-2,.79-2.39.39-.4-1.35.18-2.38l-.06.09C29.75,29.94,28.83,31.58,31.55,32Z"/><path class="cls-109" d="M31.24,28a3.55,3.55,0,0,1,3.91.56c.63.82.61-.07,0-.79a2.37,2.37,0,0,0-2.31-1C31.76,27,30.5,28.51,31.24,28Z"/><path class="cls-110" d="M32.62,26.85a9.2,9.2,0,0,0,2.25.71A2,2,0,0,0,32.62,26.85Z"/><path class="cls-111" d="M30.79,31.48c1.49-2.27,4.87-.89,4.32-.41a4.39,4.39,0,0,1-3.21.83C30.49,31.74,30.36,32.12,30.79,31.48Z"/><path class="cls-96" d="M31.35,29.08c.11.06.51-.17.42-.31S31.13,28.94,31.35,29.08Z"/><path class="cls-96" d="M33.14,28.8c.1.06.5-.17.41-.32S32.91,28.66,33.14,28.8Z"/><path class="cls-96" d="M33.68,27.51c.1.07.5-.17.42-.31S33.45,27.37,33.68,27.51Z"/><path class="cls-96" d="M32.11,30.75c.1.07.5-.17.41-.31S31.88,30.61,32.11,30.75Z"/><path class="cls-96" d="M34.84,30.09c.11.07.51-.17.42-.31S34.61,30,34.84,30.09Z"/><path class="cls-96" d="M33.15,31.65c.1.06.5-.17.41-.32S32.92,31.5,33.15,31.65Z"/><path class="cls-96" d="M30.13,30.16c.09-.06.21-.47.09-.47S29.92,30.27,30.13,30.16Z"/><path class="cls-96" d="M31.56,27.81c.12,0,.42-.31.3-.38S31.31,27.8,31.56,27.81Z"/><path class="cls-130" d="M35.85,25.62c-.17-.23-.12.89,0,1.28S36.27,26.19,35.85,25.62Z"/><path class="cls-130" d="M35.91,27.71c-.4.05.86.55,1.12.61S36.72,27.61,35.91,27.71Z"/><path class="cls-130" d="M33,25.39a3.68,3.68,0,0,0,1.22,1.08c.34.13,0-.54-.53-.83S32.91,25.27,33,25.39Z"/><path class="cls-130" d="M36.32,29.77a3.3,3.3,0,0,0,.55,1.32c.15.15,0-1.38-.35-1.56S36.32,29.77,36.32,29.77Z"/><path class="cls-141" d="M24.92,33.38s.7,6.31,1.09,7.38,14.9.41,15.64-.27.92-7.4.92-7.4V31.5Z"/><path class="cls-93" d="M26.46,34.87c0-1.24-1.12.88-.72,2.81s1.47,3.89,1.22,2.83A24.85,24.85,0,0,1,26.46,34.87Z"/><path class="cls-93" d="M31.37,38.49c-.33,0-4.34.13-4.46.1s-.48-1.17,0-1.19,0-.11,0-.11l15.26.06v-.23a11.93,11.93,0,0,1-4-.2,5,5,0,0,0-3.34,0c-1,.27-8,.21-8.07-.07s-.48-2.56.46-2.82,3.69-.42,4,.42.86.69,1.67,0,1.39-.22,3.4.29,2.68-1.08,4.09-1.6,2,0,2.2.74h0c0-.5,0-.81,0-.81V31.5L24.92,33.38s.7,6.31,1.09,7.38,14.9.41,15.64-.27a2.29,2.29,0,0,0,.4-1.08,6.1,6.1,0,0,1-2.71,1.26c-2.72.7-11.3.44-11.54.28s-.44-1.57,0-1.61.11-.19.11-.19l14.11-.6.19-.4c-1.29.45-5.55.12-7.22.42A11.54,11.54,0,0,1,31.37,38.49Z"/><path class="cls-142" d="M25.38,37.12s7.72.12,8.67.07a10.56,10.56,0,0,1,3.84-.11,17.17,17.17,0,0,0,4.45.1v.48a6.59,6.59,0,0,0-2.72-.19,6,6,0,0,1-2.52-.09c-.46,0-1.3.27-2.48.31s-2.82-.38-3.91-.37-1,.32-1.78.21-2.35-.15-2.69-.19a2.72,2.72,0,0,0-.79.07Z"/><path class="cls-143" d="M25.6,38.7s2.52.07,3.69,0a7.64,7.64,0,0,1,2.43,0,24.48,24.48,0,0,0,4.5-.12c1.36-.14,2.91-.17,4.1-.2a8.69,8.69,0,0,0,1.92-.25,1.38,1.38,0,0,1-.14,1c-.27.58-1.71-.23-2.34-.2s-.55.21-3,.51a19.24,19.24,0,0,1-4.54-.12,14.09,14.09,0,0,1-2.43.14,16.34,16.34,0,0,0-3.22,0,3.34,3.34,0,0,1-.8.09A1.66,1.66,0,0,1,25.6,38.7Z"/><path class="cls-144" d="M25.63,39.24c-.05-.34,0,.3,1.74-.18.73-.19,2.62.52,3.85.26s1.22-.53,2-.18a5.31,5.31,0,0,0,3.11.16,19.38,19.38,0,0,1,3.38-.73c.59.07,1.3.58,1.73.61a2.78,2.78,0,0,0,.59,0s0,.28-1,.26a16.05,16.05,0,0,0-3.73,0,22.88,22.88,0,0,1-4.44.2,28.68,28.68,0,0,0-3.11,0,9.37,9.37,0,0,1-2.31-.21,7.1,7.1,0,0,0-1.71.25l0-.16A1,1,0,0,1,25.63,39.24Z"/><path class="cls-144" d="M25.43,37.34a4.37,4.37,0,0,1,1.3-.09,13.68,13.68,0,0,0,2.84.15,4.81,4.81,0,0,1,2.77,0c1.42.4,3.76-.37,4.13-.37s1.31.45,1.91.47a16.54,16.54,0,0,1,2.89-.16,2.17,2.17,0,0,0,1,.09l0,.38a9.15,9.15,0,0,1-1.9-.25c-.45-.19-1.17.2-2.89.1s-3.67.25-5,.18-1.86-.5-2.95-.27-1.27.32-1.81.12a8,8,0,0,0-2.22,0Z"/><path class="cls-145" d="M25.79,33.81c.41-.4,4.63-.3,5.26-.16s.92,1.92,1.54.92.31-1.09,2.1-1a10,10,0,0,0,5-.44c1.88-.73,2.91-.14,2.89.39s-.44,3.38-.38,4,1.43-.4,1.66-1.14-.86-2.07-.63-3.35.55-1.74-.51-2.53-3.69-.82-6-.13c-2.74.82-3.62,1.42-6.35,1.19-3.44-.29-5.25-.14-6.1.47s-.45,1.41,0,2.64.4,1.48.19,2,.89,2,1,1.12S24.83,34.76,25.79,33.81Z"/><path class="cls-146" d="M28.33,39a12.67,12.67,0,0,0,2.32.29c.38-.06-.92-.63-1.4-.59S27.94,38.94,28.33,39Z"/><path class="cls-146" d="M32.94,39a6.19,6.19,0,0,0,1.37.35c.54.08,0-.47-.4-.5S32.71,38.88,32.94,39Z"/><path class="cls-146" d="M40.26,38.61a2.27,2.27,0,0,0,1.47.55c.37,0,.55-.5.43-.61S40,38.41,40.26,38.61Z"/><path class="cls-146" d="M37.17,37.11a4.87,4.87,0,0,0,1.28.34c.36,0-.27-.32-.67-.35S36.86,37,37.17,37.11Z"/><path class="cls-146" d="M32.32,37.32a1.57,1.57,0,0,0,1.11.09C33.68,37.33,32,37.15,32.32,37.32Z"/><path class="cls-146" d="M28.43,37.33a2.15,2.15,0,0,0,1.05,0c.21-.09-.7-.1-1-.11S28.21,37.29,28.43,37.33Z"/><path class="cls-147" d="M39.94,34.41c1.72.73,2,3.13,2.09,2s.59-2.91-.37-3.27S38.72,33.89,39.94,34.41Z"/><path class="cls-147" d="M27,34.55c.56.18,1.34,1.88,1.72,2.2s-1.65.15-1.85,0S26.47,34.38,27,34.55Z"/><path class="cls-147" d="M27.2,37.71c.32.14,1.13.57,1.48.67s-1.43.27-1.72.08S26.56,37.43,27.2,37.71Z"/><path class="cls-147" d="M27.89,39.65a14.34,14.34,0,0,0,2.61,1.06c1,.41-2.16.25-2.59.1S27.53,39.34,27.89,39.65Z"/><path class="cls-96" d="M24.24,34.7c.49,1.22.4,1.48.19,2s.89,2,1,1.12-.64-3,.32-4c.41-.4,4.63-.3,5.26-.16s.92,1.92,1.54.92.31-1.09,2.1-1a10,10,0,0,0,5-.44c1.88-.73,2.91-.14,2.89.39s-.44,3.38-.38,4,1.43-.4,1.66-1.14a.53.53,0,0,0,0-.22c0,.7-.53.52-1,.22s.1-2.77.49-1.94a2.82,2.82,0,0,1-.16-1.41c.1-.57.23-1,.26-1.28-.25,1.25-1.92.1-3.4-.26s-3.44,1-7,1.24c-2.89.17-7.1-.22-8.07-.74a.73.73,0,0,0-.78,0C23.35,32.66,23.76,33.47,24.24,34.7Z"/><path class="cls-148" d="M39.53,30.84c1.12-.19,2.16-.71,2.56-.48s-1.65,1.22-4.1,1.12C36.6,31.42,39.53,30.84,39.53,30.84Z"/><path class="cls-148" d="M42.9,36c.19-.49.48-1.35.79-.61s0,1.38-.26,1.28S42.75,36.38,42.9,36Z"/><g class="cls-73"><path class="cls-149" d="M40,35.85c0-.64,2.13-.23,1.75.21S40,36.49,40,35.85Z"/><path class="cls-150" d="M27.75,36.86c-.08-.33,1-.49.88-.2S27.82,37.19,27.75,36.86Z"/><path class="cls-151" d="M35,40.26c-.07-.33,1-.49.89-.2S35.12,40.59,35,40.26Z"/><path class="cls-152" d="M28.65,40.16c-.07-.32,1-.49.89-.2S28.73,40.49,28.65,40.16Z"/><path class="cls-153" d="M27.18,34.65c.24-.64,1.54.08,1,.38S26.94,35.3,27.18,34.65Z"/><path class="cls-154" d="M34.17,34.49c.3-.82,1.46-.28,1.24.48C35.3,35.33,33.87,35.31,34.17,34.49Z"/><path class="cls-155" d="M37.55,34.86c.09-.31.52-.08.45.22C38,35.22,37.46,35.18,37.55,34.86Z"/><path class="cls-85" d="M38.11,33.76c.12-.24.49-.12.4.1S38,34,38.11,33.76Z"/><path class="cls-85" d="M34.21,40.61c.12-.24.49-.12.4.1S34.08,40.85,34.21,40.61Z"/><path class="cls-85" d="M40.05,39.65c.13-.24.5-.12.4.1S39.93,39.89,40.05,39.65Z"/><path class="cls-156" d="M32.75,35.1c.24-.39.87-.23.68.13C33.34,35.4,32.51,35.5,32.75,35.1Z"/></g><path class="cls-157" d="M27.5,32.44c1.71,0,5-.72,6.14-.54s6.15-.68,4.5-.2a27.41,27.41,0,0,1-8.46,1.05C26.84,32.48,27.5,32.44,27.5,32.44Z"/><path class="cls-158" d="M40.18,31.35a4.09,4.09,0,0,0,2.29.79c.74.09,1.36-.52.56-1.06S39,30.39,40.18,31.35Z"/><path class="cls-136" d="M42.92,36.34c.49-.2.59.34.59.34S42.68,36.43,42.92,36.34Z"/><path class="cls-136" d="M41.37,31.8c1-.2,1.19.34,1.19.34S40.91,31.9,41.37,31.8Z"/><path class="cls-136" d="M33.23,32.65c-.49,0,2.08-.69,2.67-.62s.86,0,.4.14A9.57,9.57,0,0,1,33.23,32.65Z"/><path class="cls-136" d="M31.92,32.76c.6,0-1-.16-1.32-.09S30.61,32.87,31.92,32.76Z"/><path class="cls-136" d="M41.2,31c-.41,0,1-.65,1-.65A1.32,1.32,0,0,1,41.2,31Z"/><path class="cls-111" d="M39.4,32c.32.67.76.94,1.9.64s.13-.66-.82-.83S39.25,31.65,39.4,32Z"/><path class="cls-111" d="M42.52,32.67c.33.18.7.18.49,1s-.5,1.27-.43.87a2.26,2.26,0,0,0-.06-1.32C42.33,32.89,42.28,32.55,42.52,32.67Z"/><path class="cls-111" d="M31.21,32.89c.52,0,.8,1.39.86,1.68s-.59-.85-1-1.11S30.58,32.86,31.21,32.89Z"/><path class="cls-111" d="M25.68,33.3a2.23,2.23,0,0,1,2.54-.48c.82.43,1.6.59.33.62a9.58,9.58,0,0,0-2.86.26C25.41,33.9,25.56,33.42,25.68,33.3Z"/><path class="cls-111" d="M23.93,33.39c.45.49,1.26,1.38,1.27,1.85s-.34,1-.43,1-.07-.6-.44-1.41S23.76,33.2,23.93,33.39Z"/><path class="cls-111" d="M24.72,37.09c.45.18.8.61.67.8s-.53,0-.75-.48S24.59,37,24.72,37.09Z"/><path class="cls-111" d="M42.7,36.38c.37.35.92.13.61.48s-.77.58-.89.48S42.28,36,42.7,36.38Z"/></g><path class="cls-159" d="M39.72,39.72s-13.31.56-16.24.16C23.48,39.88,32.64,41.27,39.72,39.72Z"/><path class="cls-160" d="M78.55,87.92c9.76.3,2.07,1.46-2.3,1.37S70.76,87.68,78.55,87.92Z"/><path class="cls-161" d="M68.42,93.56c9.77.3,2.08,1.46-2.3,1.37S60.63,93.32,68.42,93.56Z"/><path class="cls-162" d="M72.58,95.42c9.77.3,2.08,1.46-2.3,1.38S64.8,95.18,72.58,95.42Z"/><path class="cls-163" d="M92,93.3c9.77.3,2.08,1.46-2.3,1.37S84.18,93.06,92,93.3Z"/><path class="cls-164" d="M18.1,94.61c9.77.31,2.07,1.46-2.3,1.38S10.31,94.37,18.1,94.61Z"/><path class="cls-165" d="M78.74,84.72a2.16,2.16,0,0,0-.29-2.54c-1.1-1.28-1.64-1.16-1.58,0a2.25,2.25,0,0,0,.43,1.51,3.47,3.47,0,0,0-1.92-.47c-1,.1-.37,1-.37,1s3,1.86,3.44,3.4.88,1.59,1-.37c0,0,.52,1,.34-.51A2.51,2.51,0,0,0,78.74,84.72Z"/><path class="cls-106" d="M77.9,81.61s1.31,1.87.16,3,.78-.16-.76-.88-2.16-.39-2.16-.39,1.64.07,1.81.8,1.25,2.68,1.6,3.82.76.61.58-.86a2.6,2.6,0,0,0-1.1-2,4,4,0,0,1,1.4,2.14s.48.91.17-.51S78.45,85,78.45,85l.29-.27A2.41,2.41,0,0,0,77.9,81.61Z"/><path class="cls-166" d="M73.63,88.48c-1.1-.82-1.08-3.55,1.35-4.56s4.29,1.43,4,3.36S74.67,89.25,73.63,88.48Z"/><path class="cls-167" d="M78.93,87.28c-.35,1.93-4.26,2-5.3,1.2A2,2,0,0,1,72.94,87c0-.36.3-.38,1.19.12,1,.57,2.22.85,2.79-.21s.65-3,1.41-2A3.22,3.22,0,0,1,78.93,87.28Z"/><path class="cls-109" d="M77.37,84.76c-.15.41-1.61,0-2.68.4S73,86.73,73.16,86a3.28,3.28,0,0,1,2.46-2.16C76.83,83.79,77.58,84.21,77.37,84.76Z"/><path class="cls-110" d="M75.48,84a1.41,1.41,0,0,1-1.58.85S74.7,83.87,75.48,84Z"/><path class="cls-111" d="M78.49,85.92c-.13,1.36-.72,2.31-1.75,2.57s.14.4,1.31-.26S78.57,85.16,78.49,85.92Z"/><path class="cls-96" d="M74.37,86.18c.11.08.54-.14.45-.3S74.15,86,74.37,86.18Z"/><path class="cls-96" d="M76.23,86c.1.08.53-.14.45-.29S76,85.84,76.23,86Z"/><path class="cls-96" d="M76.88,84.71c.1.07.53-.15.45-.3S76.65,84.55,76.88,84.71Z"/><path class="cls-96" d="M75,88c.1.07.53-.15.45-.3S74.8,87.81,75,88Z"/><path class="cls-96" d="M77.9,87.46c.1.07.53-.15.45-.3S77.67,87.3,77.9,87.46Z"/><path class="cls-96" d="M76,88.87c.1,0,.53-.11.45-.22S75.82,88.75,76,88.87Z"/><path class="cls-96" d="M73.17,87c.1,0,.26-.47.13-.47S72.94,87.08,73.17,87Z"/><path class="cls-96" d="M74.68,84.88c.11,0,.45-.3.33-.38S74.42,84.85,74.68,84.88Z"/><path class="cls-168" d="M64.15,88.88a2.48,2.48,0,0,0,1.11-2.19c0-.44-1.78.38-2.18,2a2.21,2.21,0,0,0-.86-1.9c-1-.65-1,2-.21,2.49a2.75,2.75,0,0,0-1.85,1.38c-.51,1.12-.85,1.79,1.12.79s0,.08,0,.08a2.88,2.88,0,0,0-.37,1.91c.21,1,.58,1,1.09.11A2.33,2.33,0,0,0,62.39,92Z"/><path class="cls-106" d="M64.82,88.26A3.69,3.69,0,0,0,65.24,87c.09-.65-1.69,1.11-2,1.85s-.31.38-.31.38a2,2,0,0,0,0-1.55c-.33-.87-1-1.28-1-.21a3.53,3.53,0,0,0,.61,1.95,9.59,9.59,0,0,0-1.75.83c-.65.45-1,1.74-.45,1.54a20.71,20.71,0,0,0,1.91-.91s.11.11-.32.37-.46,1-.46,1.77.07,1.89.91-.31A25,25,0,0,1,64.82,88.26Z"/><path class="cls-169" d="M62.73,89.39c1.3-1.87,3.54-1.47,4.79.35s2.39,3.58-.59,4.27S60.22,93,62.73,89.39Z"/><path class="cls-170" d="M66.93,94c-2.72.64-6.08-.73-4.71-3.74a1.55,1.55,0,0,0,.29,1.83c.88.74,1.47-.06,2.65-.09s2.25.74,2.66.27.35-1.54-.38-2.64a.39.39,0,0,1,.08.1C68.77,91.56,69.91,93.32,66.93,94Z"/><path class="cls-109" d="M67,89.53a3.89,3.89,0,0,0-4.27.9c-.62.95-.67,0,0-.88a2.6,2.6,0,0,1,2.47-1.26C66.32,88.41,67.82,90,67,89.53Z"/><path class="cls-110" d="M65.36,88.32a9.88,9.88,0,0,1-2.43,1A2.24,2.24,0,0,1,65.36,88.32Z"/><path class="cls-111" d="M67.73,93.34c-1.44.49-5.44-.66-4.8-.16a4.85,4.85,0,0,0,3.61.71C68.08,93.62,68.55,93.06,67.73,93.34Z"/><path class="cls-96" d="M66.87,90.76c-.11.08-.57-.15-.49-.32S67.11,90.59,66.87,90.76Z"/><path class="cls-96" d="M64.88,90.57c-.11.08-.57-.15-.48-.32S65.12,90.4,64.88,90.57Z"/><path class="cls-96" d="M64.19,89.18c-.11.08-.57-.15-.49-.32S64.43,89,64.19,89.18Z"/><path class="cls-96" d="M66.16,92.67c-.11.08-.57-.15-.48-.32S66.4,92.5,66.16,92.67Z"/><path class="cls-96" d="M63.1,92.13c-.11.07-.58-.16-.49-.32S63.34,92,63.1,92.13Z"/><path class="cls-96" d="M65.08,93.74c-.11.08-.57-.16-.48-.32S65.32,93.57,65.08,93.74Z"/><path class="cls-96" d="M68.31,91.88c-.11-.06-.28-.51-.14-.51S68.54,92,68.31,91.88Z"/><path class="cls-96" d="M66.54,89.37c-.13,0-.49-.32-.36-.41S66.81,89.33,66.54,89.37Z"/><path class="cls-171" d="M93.8,90.3a6.85,6.85,0,0,0-.64-3.41c-.84-1.68-1.26-.12-1.19,1a3.52,3.52,0,0,0-1.86-1c-1.2-.23,1.31,1.82,1.31,1.82s1.36,2.33,1.33,3.52,1.66,1.63,1.84,1.17-.38-1.55-.38-1.55a2.18,2.18,0,0,0,1.62,1C96.8,92.86,95.65,90.81,93.8,90.3Z"/><path class="cls-106" d="M93.05,86.69c-.76-1.36,1.26,2.58-.16,3.68-.88.69-.29-1.7-.92-2.46s-2.4-1.07-1.54-.8a4.26,4.26,0,0,1,2.06,2.16,23,23,0,0,1,.4,3.87s2.87,1.82,1-1.31l-.23-.66a3.4,3.4,0,0,0,1.92,1.69c1.32.39-1.27-2.48-2.18-2.4s.4-.16.4-.16A8.73,8.73,0,0,0,93.05,86.69Z"/><path class="cls-172" d="M93.06,89.57c-1.3-1.88-3.54-1.47-4.79.34s-2.39,3.59.59,4.28S95.57,93.18,93.06,89.57Z"/><path class="cls-173" d="M93.06,89.57c2.51,3.61-1.22,5.31-4.2,4.62-1.38-.32-1.87-.87-1.88-1.55,0,.38.54.66,1.78-.36,1.44-1.18,1.61.31,3.27,0,3.42-.63-.35-4.08.64-3.18A3,3,0,0,1,93.06,89.57Z"/><path class="cls-109" d="M91.82,89c.35.68-2.67,3.18-3.74,3.5s-.17-2.35,1-3.29S91.44,88.24,91.82,89Z"/><path class="cls-110" d="M90.3,88.72s.08,1.45-2,1.49C88.25,90.21,89.12,88.66,90.3,88.72Z"/><path class="cls-111" d="M92.51,93.54c-1.89.75-5.4-.33-4.53,0a5.6,5.6,0,0,0,3.23.41C92.83,93.74,93.3,93.23,92.51,93.54Z"/><path class="cls-96" d="M88.84,91.11c.11.07.57-.16.48-.32S88.6,90.93,88.84,91.11Z"/><path class="cls-96" d="M90.83,90.92c.11.07.57-.16.48-.32S90.58,90.74,90.83,90.92Z"/><path class="cls-96" d="M91.52,89.53c.11.07.57-.16.48-.32S91.28,89.35,91.52,89.53Z"/><path class="cls-96" d="M89.54,93c.11.08.57-.16.49-.32S89.3,92.84,89.54,93Z"/><path class="cls-96" d="M92.61,92.47c.11.08.57-.15.48-.32S92.37,92.3,92.61,92.47Z"/><path class="cls-96" d="M91.21,93.66c.1.09.59,0,.54-.22S91,93.44,91.21,93.66Z"/><path class="cls-96" d="M87.4,92.22c.11,0,.28-.51.14-.51S87.16,92.34,87.4,92.22Z"/><path class="cls-96" d="M89.17,89.72c.12,0,.48-.33.35-.42S88.89,89.68,89.17,89.72Z"/><path class="cls-174" d="M16.41,90.94c.47-.45.09-1.57-.19-1.81s-1,1.12-1.16,1.67a1.7,1.7,0,0,0,0-.78c-.09-.53-1.77.91-1.39,2.64,0,0-1.22.82-1.36,1.48s1.17.38,1.54,0-.23,0,.05.66.28.49.95.23S16.41,90.94,16.41,90.94Z"/><path class="cls-106" d="M16.41,90.94a1.37,1.37,0,0,0,.06-1.4c-.36-.92-1.16,1.7-1.16,1.7l-.31,0,.08-.59s.07-1-.33-.51A3.83,3.83,0,0,0,14,92.55c.17.45-.12.33-.12.33s-1.05.68-1.23,1.26.69.42,1.4-.17.16-.11,0,.36.11,1,.65.77S16.41,90.94,16.41,90.94Z"/><path class="cls-175" d="M18.48,95.1c1-.74,1-3.19-1.21-4.09s-3.84,1.28-3.53,3S17.55,95.79,18.48,95.1Z"/><path class="cls-176" d="M18.48,95.1c-.93.69-4.42.65-4.74-1.08a2.67,2.67,0,0,1,.1-1.25c-.24,1.19,2,2.1,2.9,1.43s2.1-2.14,2.33-1A2,2,0,0,1,18.48,95.1Z"/><path class="cls-109" d="M17.43,91.47c-1.14-.47-2.49,1.19-2.87,1.93s-1.06-.66,0-1.75a2.2,2.2,0,0,1,2.71-.53C17.94,91.38,18,91.68,17.43,91.47Z"/><path class="cls-110" d="M15.67,90.94a2.27,2.27,0,0,1-1.49,1.24S14.38,91.44,15.67,90.94Z"/><path class="cls-111" d="M18.71,93.78a4.13,4.13,0,0,1-2.63,1.46c-.74.12,1.09.39,2,0S19.11,93.22,18.71,93.78Z"/><path class="cls-96" d="M17.6,92.58c-.1.07-.49-.13-.42-.27S17.8,92.43,17.6,92.58Z"/><path class="cls-96" d="M15.9,92.06c-.09.07-.48-.13-.41-.27S16.11,91.91,15.9,92.06Z"/><path class="cls-96" d="M15.44,93.73c-.1.07-.49-.13-.42-.27S15.64,93.59,15.44,93.73Z"/><path class="cls-96" d="M17,94.21c-.1.07-.49-.13-.42-.27S17.2,94.06,17,94.21Z"/><path class="cls-96" d="M14.11,94.29c-.09,0-.28-.37-.18-.37S14.29,94.37,14.11,94.29Z"/><path class="cls-96" d="M16.07,95.12c-.09.07-.48-.13-.41-.27S16.28,95,16.07,95.12Z"/><path class="cls-96" d="M18.82,93.53c-.09,0-.23-.43-.12-.43S19,93.63,18.82,93.53Z"/><path class="cls-96" d="M17.36,91.3c-.1,0-.43-.23-.34-.27S17.57,91.31,17.36,91.3Z"/><path class="cls-177" d="M74.07,92.69c-1-3.1-4-2.8-5.52-.5s-1.16,3.64,2.06,3.89S74.67,94.63,74.07,92.69Z"/><path class="cls-178" d="M74.07,92.69c.6,1.94-.25,3.63-3.46,3.39-2-.16-2.93-.76-2.92-1.77a.86.86,0,0,0,1.72.07c.16-1.14.85-.79.87-1.72s.45-2.43,1.72-2.18A3,3,0,0,1,74.07,92.69Z"/><path class="cls-109" d="M70.21,91.37a31.37,31.37,0,0,1-2,2.76c-.44.46-.31-.65.42-1.75S71.14,90,70.21,91.37Z"/><path class="cls-110" d="M69.69,91.2A2.33,2.33,0,0,1,68.24,93S68.33,92.33,69.69,91.2Z"/><path class="cls-111" d="M72.11,91.2c-1-.16-1.38,1.61-.92,2.61s1.85,1.86,2.56,1A2.38,2.38,0,0,0,72.11,91.2Z"/><path class="cls-111" d="M72.08,95.6c-1.14.05-3.38-.35-3.22-.07s2.19.43,3.22.22S72.56,95.59,72.08,95.6Z"/><path class="cls-179" d="M73,91.62s.53-1.38,1.63-1.54.16,1.82-.87,2.23a7,7,0,0,1,2.41,1.45c1,1-2.33.39-2.45.33a3.47,3.47,0,0,1-.12,2.56c-.62,1.18-1.58-.49-1.71-1.27A2.54,2.54,0,0,1,72.06,94a2.27,2.27,0,0,1-1.87.21c-.8-.4,1-.86,1.56-1A2.66,2.66,0,0,1,71.4,91C71.82,90,73,91.62,73,91.62Z"/><path class="cls-106" d="M75.15,90.53c.06-.55-1.67.52-2,1.33,0,0-.68-1-1.1-.91s-.29,1.73.07,2.23c0,0-1.43.45-1.69.84s.76.47,1.88-.15a5.83,5.83,0,0,0,.43,2.75c.58,1.07,1.22-.38,1.16-1.19a9,9,0,0,0-.19-1.34s2.37.49,2.61.06-2.86-1.73-2.86-1.73a2.83,2.83,0,0,0,.29-.11A2.56,2.56,0,0,0,75.15,90.53Z"/><path class="cls-106" d="M72.41,93.18a2.8,2.8,0,0,1,.45-.06,3.23,3.23,0,0,1,.46-.53,1.78,1.78,0,0,1-.13.55.55.55,0,0,1,.46.73,1,1,0,0,0-.55-.56.72.72,0,0,1-.61.38,5,5,0,0,1,.3-.48A1.74,1.74,0,0,0,72.41,93.18Z"/><path class="cls-96" d="M69.52,92.84c.11.08.57-.15.48-.32S69.28,92.67,69.52,92.84Z"/><path class="cls-96" d="M71,90.65c.11,0,.57-.06.48-.12S70.79,90.59,71,90.65Z"/><path class="cls-96" d="M68.75,94c.11.07.57-.16.48-.32S68.5,93.84,68.75,94Z"/><path class="cls-96" d="M70.22,94.75c.11.08.57-.15.49-.32S70,94.58,70.22,94.75Z"/><path class="cls-96" d="M68.47,95.28c.11.07.57-.16.49-.32S68.23,95.1,68.47,95.28Z"/><path class="cls-96" d="M71.3,95.82c.11.08.58-.15.49-.32S71.06,95.65,71.3,95.82Z"/><path class="cls-96" d="M68.08,94c.11-.06.28-.51.14-.51S67.84,94.07,68.08,94Z"/><path class="cls-96" d="M69.85,91.45c.12,0,.48-.32.35-.41S69.57,91.41,69.85,91.45Z"/></g></g></g></svg>