<svg xmlns="http://www.w3.org/2000/svg" xmlns:xlink="http://www.w3.org/1999/xlink" viewBox="0 0 1091.62 717.23"><defs><style>.cls-1{isolation:isolate;}.cls-2{fill:#9d2759;}.cls-10,.cls-100,.cls-16,.cls-17,.cls-2,.cls-22,.cls-23,.cls-24,.cls-40,.cls-43,.cls-52,.cls-66,.cls-7,.cls-76,.cls-84,.cls-85,.cls-92,.cls-94,.cls-95{opacity:0.5;}.cls-10,.cls-109,.cls-14,.cls-15,.cls-16,.cls-17,.cls-2,.cls-21,.cls-23,.cls-25,.cls-35,.cls-36,.cls-37,.cls-40,.cls-49,.cls-52,.cls-56,.cls-57,.cls-6,.cls-60,.cls-61,.cls-62,.cls-66,.cls-69,.cls-7,.cls-73,.cls-74,.cls-75,.cls-85,.cls-86,.cls-87,.cls-9,.cls-90,.cls-94,.cls-95{mix-blend-mode:multiply;}.cls-10,.cls-100,.cls-107,.cls-11,.cls-110,.cls-111,.cls-112,.cls-113,.cls-114,.cls-115,.cls-116,.cls-117,.cls-119,.cls-120,.cls-121,.cls-122,.cls-123,.cls-124,.cls-125,.cls-126,.cls-128,.cls-129,.cls-130,.cls-131,.cls-132,.cls-133,.cls-134,.cls-135,.cls-137,.cls-138,.cls-139,.cls-140,.cls-141,.cls-142,.cls-143,.cls-144,.cls-145,.cls-146,.cls-147,.cls-148,.cls-149,.cls-150,.cls-151,.cls-152,.cls-153,.cls-17,.cls-18,.cls-19,.cls-20,.cls-21,.cls-22,.cls-23,.cls-24,.cls-25,.cls-26,.cls-27,.cls-28,.cls-29,.cls-3,.cls-30,.cls-31,.cls-32,.cls-33,.cls-34,.cls-35,.cls-36,.cls-37,.cls-38,.cls-39,.cls-40,.cls-41,.cls-43,.cls-44,.cls-45,.cls-46,.cls-47,.cls-48,.cls-5,.cls-50,.cls-51,.cls-54,.cls-55,.cls-56,.cls-57,.cls-58,.cls-59,.cls-6,.cls-60,.cls-61,.cls-67,.cls-69,.cls-7,.cls-70,.cls-71,.cls-72,.cls-73,.cls-74,.cls-75,.cls-76,.cls-77,.cls-78,.cls-79,.cls-8,.cls-81,.cls-82,.cls-83,.cls-84,.cls-85,.cls-86,.cls-87,.cls-88,.cls-89,.cls-9,.cls-90,.cls-91,.cls-92,.cls-93,.cls-94,.cls-95,.cls-96,.cls-97,.cls-98,.cls-99{fill-rule:evenodd;}.cls-11,.cls-13,.cls-22,.cls-24,.cls-26,.cls-3,.cls-38,.cls-39,.cls-41,.cls-43,.cls-44,.cls-48,.cls-58,.cls-65,.cls-72,.cls-83,.cls-84,.cls-88,.cls-91,.cls-93{mix-blend-mode:soft-light;}.cls-3{fill:url(#radial-gradient);}.cls-4{fill:url(#Безымянный_градиент_299);}.cls-5{fill:url(#Безымянный_градиент_307);}.cls-10,.cls-14,.cls-16,.cls-35,.cls-37,.cls-50,.cls-6,.cls-62{fill:#c52759;}.cls-21,.cls-26,.cls-38,.cls-57,.cls-6,.cls-60,.cls-61,.cls-62,.cls-69,.cls-72,.cls-73,.cls-74{opacity:0.3;}.cls-66,.cls-7{fill:#9f7389;}.cls-42,.cls-8{fill:#fff;}.cls-15,.cls-9{fill:#e192ab;}.cls-15,.cls-36,.cls-37,.cls-39,.cls-49,.cls-56,.cls-75,.cls-87,.cls-9{opacity:0.2;}.cls-11,.cls-13{fill:#ffc7c0;}.cls-109,.cls-11,.cls-13,.cls-25,.cls-48,.cls-58,.cls-83,.cls-88{opacity:0.8;}.cls-12{fill:#ffe2c9;}.cls-17,.cls-52{fill:#af2759;}.cls-18{fill:#616f15;}.cls-19{fill:#795e15;}.cls-20{fill:#798315;}.cls-21,.cls-23,.cls-25,.cls-27{fill:#a97f22;}.cls-22{fill:#baddce;}.cls-24,.cls-38{fill:#ffddb0;}.cls-26{fill:#4df9ff;}.cls-28{fill:url(#Безымянный_градиент_97);}.cls-29{fill:url(#Безымянный_градиент_118);}.cls-30{fill:url(#Безымянный_градиент_117);}.cls-31{fill:url(#Безымянный_градиент_111);}.cls-32{fill:url(#Безымянный_градиент_103);}.cls-33{fill:url(#Безымянный_градиент_66);}.cls-34{fill:url(#Безымянный_градиент_82);}.cls-36{fill:#be6659;}.cls-39,.cls-43,.cls-44{fill:#ddc7c0;}.cls-40{fill:#a42745;}.cls-41,.cls-48,.cls-65{fill:#ffc29a;}.cls-44{opacity:0.6;}.cls-45{fill:url(#Безымянный_градиент_464);}.cls-46{fill:url(#Безымянный_градиент_475);}.cls-47{fill:url(#Безымянный_градиент_467);}.cls-51{fill:#ff795c;}.cls-53{fill:url(#Безымянный_градиент_299-2);}.cls-54{fill:url(#Безымянный_градиент_388);}.cls-55{fill:#ae3940;}.cls-56,.cls-57{fill:#c5937c;}.cls-58{fill:#e5c7d8;}.cls-59{fill:#efe1e8;}.cls-60{fill:#8d5466;}.cls-61{fill:#aa7c7c;}.cls-63{fill:url(#Безымянный_градиент_299-3);}.cls-64{fill:url(#Безымянный_градиент_299-4);}.cls-67{fill:url(#Безымянный_градиент_273);}.cls-68{fill:url(#Безымянный_градиент_259);}.cls-69{fill:#ff7f00;}.cls-70{fill:url(#Безымянный_градиент_259-2);}.cls-71{fill:url(#Безымянный_градиент_246);}.cls-72{fill:#ffffec;}.cls-73{fill:#c56600;}.cls-74{fill:#d74a00;}.cls-75{fill:#ff9c9c;}.cls-100,.cls-76,.cls-92{mix-blend-mode:screen;}.cls-76{fill:url(#Безымянный_градиент_60);}.cls-77{fill:#d95422;}.cls-78{fill:#3b181d;}.cls-79,.cls-80{fill:#7c311d;}.cls-81{fill:url(#Безымянный_градиент_381);}.cls-82{fill:url(#Безымянный_градиент_381-2);}.cls-83,.cls-84{fill:#e5ffa6;}.cls-85{fill:#a72759;}.cls-86,.cls-95{fill:#c5a759;}.cls-87,.cls-88{fill:#a9a659;}.cls-89{fill:#bfbd15;}.cls-90,.cls-94{fill:#d96059;}.cls-90{opacity:0.7;}.cls-91{fill:#e0ff59;}.cls-92{fill:url(#Безымянный_градиент_383);}.cls-93{fill:#fcf;}.cls-96{fill:url(#Безымянный_градиент_413);}.cls-97{fill:url(#Безымянный_градиент_426);}.cls-98{fill:#ffcc95;}.cls-99{fill:url(#Безымянный_градиент_381-3);}.cls-100{fill:url(#Безымянный_градиент_436);}.cls-101{fill:url(#Безымянный_градиент_490);}.cls-102{fill:url(#Безымянный_градиент_259-3);}.cls-103{fill:url(#Безымянный_градиент_492);}.cls-104{fill:url(#Безымянный_градиент_490-2);}.cls-105{fill:url(#Безымянный_градиент_259-4);}.cls-106{fill:url(#Безымянный_градиент_492-2);}.cls-107{fill:#ffb;}.cls-108{fill:url(#Безымянный_градиент_1088);}.cls-110{fill:url(#Безымянный_градиент_1094);}.cls-111{fill:url(#Безымянный_градиент_1094-2);}.cls-112{fill:url(#Безымянный_градиент_1094-3);}.cls-113{fill:url(#Безымянный_градиент_1094-4);}.cls-114{fill:url(#Безымянный_градиент_1094-5);}.cls-115{fill:url(#Безымянный_градиент_1094-6);}.cls-116{fill:url(#Безымянный_градиент_1094-7);}.cls-117{fill:url(#Безымянный_градиент_1094-8);}.cls-118{fill:url(#Безымянный_градиент_1088-2);}.cls-119{fill:url(#Безымянный_градиент_1094-9);}.cls-120{fill:url(#Безымянный_градиент_1094-10);}.cls-121{fill:url(#Безымянный_градиент_1094-11);}.cls-122{fill:url(#Безымянный_градиент_1094-12);}.cls-123{fill:url(#Безымянный_градиент_1094-13);}.cls-124{fill:url(#Безымянный_градиент_1094-14);}.cls-125{fill:url(#Безымянный_градиент_1094-15);}.cls-126{fill:url(#Безымянный_градиент_1094-16);}.cls-127{fill:url(#Безымянный_градиент_1088-3);}.cls-128{fill:url(#Безымянный_градиент_1094-17);}.cls-129{fill:url(#Безымянный_градиент_1094-18);}.cls-130{fill:url(#Безымянный_градиент_1094-19);}.cls-131{fill:url(#Безымянный_градиент_1094-20);}.cls-132{fill:url(#Безымянный_градиент_1094-21);}.cls-133{fill:url(#Безымянный_градиент_1094-22);}.cls-134{fill:url(#Безымянный_градиент_1094-23);}.cls-135{fill:url(#Безымянный_градиент_1094-24);}.cls-136{fill:url(#Безымянный_градиент_1088-4);}.cls-137{fill:url(#Безымянный_градиент_1094-25);}.cls-138{fill:url(#Безымянный_градиент_1094-26);}.cls-139{fill:url(#Безымянный_градиент_1094-27);}.cls-140{fill:url(#Безымянный_градиент_1094-28);}.cls-141{fill:url(#Безымянный_градиент_1094-29);}.cls-142{fill:url(#Безымянный_градиент_1094-30);}.cls-143{fill:url(#Безымянный_градиент_1094-31);}.cls-144{fill:url(#Безымянный_градиент_1094-32);}.cls-145{fill:url(#Безымянный_градиент_1088-5);}.cls-146{fill:url(#Безымянный_градиент_1094-33);}.cls-147{fill:url(#Безымянный_градиент_1094-34);}.cls-148{fill:url(#Безымянный_градиент_1094-35);}.cls-149{fill:url(#Безымянный_градиент_1094-36);}.cls-150{fill:url(#Безымянный_градиент_1094-37);}.cls-151{fill:url(#Безымянный_градиент_1094-38);}.cls-152{fill:url(#Безымянный_градиент_1094-39);}.cls-153{fill:url(#Безымянный_градиент_1094-40);}</style><radialGradient id="radial-gradient" cx="649.38" cy="418.47" r="473.49" gradientUnits="userSpaceOnUse"><stop offset="0" stop-color="#fff"/><stop offset="0.23" stop-color="#fff" stop-opacity="0.99"/><stop offset="0.31" stop-color="#fefdfd" stop-opacity="0.97"/><stop offset="0.37" stop-color="#fcfafa" stop-opacity="0.92"/><stop offset="0.42" stop-color="#faf7f5" stop-opacity="0.85"/><stop offset="0.46" stop-color="#f7f2f0" stop-opacity="0.77"/><stop offset="0.49" stop-color="#f4ece9" stop-opacity="0.66"/><stop offset="0.52" stop-color="#f0e4e0" stop-opacity="0.53"/><stop offset="0.55" stop-color="#ebdcd6" stop-opacity="0.39"/><stop offset="0.58" stop-color="#e5d2cb" stop-opacity="0.22"/><stop offset="0.61" stop-color="#dfc8bf" stop-opacity="0.04"/><stop offset="0.61" stop-color="#dec6bd" stop-opacity="0"/></radialGradient><radialGradient id="Безымянный_градиент_299" cx="18.41" cy="932.78" r="44.67" gradientTransform="translate(-17.92 -522.37) rotate(-21.27)" gradientUnits="userSpaceOnUse"><stop offset="0.2" stop-color="#d8d9e9"/><stop offset="0.24" stop-color="#d2cedf"/><stop offset="0.38" stop-color="#c1aec0"/><stop offset="0.52" stop-color="#b394a8"/><stop offset="0.67" stop-color="#aa8297"/><stop offset="0.82" stop-color="#a4778d"/><stop offset="1" stop-color="#a2748a"/></radialGradient><linearGradient id="Безымянный_градиент_307" x1="22.38" y1="1179.11" x2="22.38" y2="955.73" gradientTransform="translate(-17.92 -522.37) rotate(-21.27)" gradientUnits="userSpaceOnUse"><stop offset="0" stop-color="#c74a3b"/><stop offset="0.99" stop-color="#ff843b"/></linearGradient><linearGradient id="Безымянный_градиент_97" x1="766.32" y1="320.95" x2="756.05" y2="303.16" gradientTransform="matrix(1.05, 0.13, 0, 1, 49.2, 130.77)" gradientUnits="userSpaceOnUse"><stop offset="0" stop-color="#471422"/><stop offset="0.75" stop-color="#491622"/><stop offset="1" stop-color="#4f1b22"/></linearGradient><linearGradient id="Безымянный_градиент_118" x1="697.69" y1="300.36" x2="794.19" y2="300.36" gradientTransform="matrix(1.05, 0.13, 0, 1, 49.2, 130.77)" gradientUnits="userSpaceOnUse"><stop offset="0" stop-color="#7f555c"/><stop offset="0.05" stop-color="#7f535a"/><stop offset="0.62" stop-color="#7e3f49"/><stop offset="1" stop-color="#7e3843"/></linearGradient><linearGradient id="Безымянный_градиент_117" x1="361.99" y1="781.94" x2="751.42" y2="781.94" gradientTransform="translate(2.84 -105.08) rotate(-5.2)" gradientUnits="userSpaceOnUse"><stop offset="0" stop-color="#3b0e2e"/><stop offset="0.62" stop-color="#552536"/><stop offset="1" stop-color="#602e39"/></linearGradient><linearGradient id="Безымянный_градиент_111" x1="359.74" y1="705.57" x2="752.21" y2="705.57" gradientTransform="translate(2.84 -105.08) rotate(-5.2)" gradientUnits="userSpaceOnUse"><stop offset="0" stop-color="#cbb3b7"/><stop offset="0.33" stop-color="#c5acb0"/><stop offset="0.82" stop-color="#b3989c"/><stop offset="1" stop-color="#ab8f93"/></linearGradient><linearGradient id="Безымянный_градиент_103" x1="370.16" y1="744.78" x2="716.38" y2="744.78" gradientTransform="translate(1.9 -131.9) rotate(-6.51)" gradientUnits="userSpaceOnUse"><stop offset="0" stop-color="#917279"/><stop offset="0.5" stop-color="#886770"/><stop offset="1" stop-color="#7c5862"/></linearGradient><linearGradient id="Безымянный_градиент_66" x1="932.88" y1="545.81" x2="932.88" y2="440.34" gradientUnits="userSpaceOnUse"><stop offset="0" stop-color="#b04d34"/><stop offset="0.25" stop-color="#b75439"/><stop offset="0.63" stop-color="#cb6747"/><stop offset="1" stop-color="#e58159"/></linearGradient><linearGradient id="Безымянный_градиент_82" x1="762.56" y1="317.36" x2="762.56" y2="274.71" gradientTransform="matrix(1.05, 0.13, 0, 1, 49.2, 130.77)" gradientUnits="userSpaceOnUse"><stop offset="0" stop-color="#92312a"/><stop offset="0.6" stop-color="#99342a"/><stop offset="1" stop-color="#a13829"/></linearGradient><linearGradient id="Безымянный_градиент_464" x1="810.24" y1="-628.95" x2="810.24" y2="-1175.13" gradientTransform="matrix(0.81, 0.58, -0.58, 0.81, -271.22, 502.85)" gradientUnits="userSpaceOnUse"><stop offset="0" stop-color="#b54c29"/><stop offset="1" stop-color="#dc4f31"/></linearGradient><linearGradient id="Безымянный_градиент_475" x1="813.46" y1="-610.09" x2="813.46" y2="-1154.31" gradientTransform="matrix(0.82, 0.57, -0.57, 0.82, -264.14, 493.8)" gradientUnits="userSpaceOnUse"><stop offset="0" stop-color="#e56854"/><stop offset="0.16" stop-color="#ef8157"/><stop offset="1" stop-color="#ef8151"/></linearGradient><linearGradient id="Безымянный_градиент_467" x1="813.26" y1="-1062.49" x2="813.26" y2="-1118.71" gradientTransform="matrix(0.82, 0.57, -0.57, 0.82, -264.14, 493.8)" gradientUnits="userSpaceOnUse"><stop offset="0" stop-color="#e58159"/><stop offset="0.36" stop-color="#de684b"/><stop offset="0.74" stop-color="#d85440"/><stop offset="1" stop-color="#d64d3c"/></linearGradient><radialGradient id="Безымянный_градиент_299-2" cx="454.4" cy="-372.82" r="253.16" gradientTransform="translate(-173.97 703.6) rotate(28)" xlink:href="#Безымянный_градиент_299"/><linearGradient id="Безымянный_градиент_388" x1="248.62" y1="-288.82" x2="248.62" y2="-374.04" gradientTransform="matrix(0.89, 0.46, -0.46, 0.89, -168.59, 689.43)" gradientUnits="userSpaceOnUse"><stop offset="0" stop-color="#b04d34"/><stop offset="0.25" stop-color="#b75136"/><stop offset="0.63" stop-color="#cb5d3a"/><stop offset="1" stop-color="#e56d40"/></linearGradient><radialGradient id="Безымянный_градиент_299-3" cx="209.78" cy="-349.06" r="19.17" gradientTransform="matrix(0.89, 0.46, -0.46, 0.89, -168.59, 689.43)" xlink:href="#Безымянный_градиент_299"/><radialGradient id="Безымянный_градиент_299-4" cx="314.76" cy="-341.67" r="20" gradientTransform="matrix(0.86, 0.44, -0.46, 0.89, -198.22, 674.15)" xlink:href="#Безымянный_градиент_299"/><linearGradient id="Безымянный_градиент_273" x1="481.56" y1="889.55" x2="481.56" y2="741.24" gradientTransform="translate(-6 -238.57) rotate(-11.66)" gradientUnits="userSpaceOnUse"><stop offset="0" stop-color="#9d2222"/><stop offset="0.44" stop-color="#c63f1f"/><stop offset="0.79" stop-color="#e0501e"/><stop offset="1" stop-color="#ea571d"/></linearGradient><linearGradient id="Безымянный_градиент_259" x1="481.63" y1="882.56" x2="481.63" y2="742.47" gradientTransform="translate(-6 -238.57) rotate(-11.66)" gradientUnits="userSpaceOnUse"><stop offset="0.01" stop-color="#fcd4c2"/><stop offset="0.18" stop-color="#fddfd5"/><stop offset="0.41" stop-color="#fee8e5"/><stop offset="0.66" stop-color="#ffedee"/><stop offset="1" stop-color="#ffeff1"/></linearGradient><linearGradient id="Безымянный_градиент_259-2" x1="494.21" y1="809.97" x2="494.21" y2="734.54" xlink:href="#Безымянный_градиент_259"/><radialGradient id="Безымянный_градиент_246" cx="403.24" cy="714.76" r="218.89" gradientTransform="translate(-6 -238.57) rotate(-11.66)" gradientUnits="userSpaceOnUse"><stop offset="0" stop-color="#f80"/><stop offset="0.31" stop-color="#fd8401"/><stop offset="0.59" stop-color="#f87904"/><stop offset="0.86" stop-color="#ef6708"/><stop offset="0.99" stop-color="#e95a0b"/></radialGradient><linearGradient id="Безымянный_градиент_60" x1="471.99" y1="765.3" x2="551.06" y2="765.3" gradientTransform="translate(-6 -238.57) rotate(-11.66)" gradientUnits="userSpaceOnUse"><stop offset="0" stop-color="#ffc9ff"/><stop offset="0.09" stop-color="#f7c3f7"/><stop offset="0.22" stop-color="#e1b2e1"/><stop offset="0.38" stop-color="#be96be"/><stop offset="0.57" stop-color="#8c6e8c"/><stop offset="0.77" stop-color="#4d3d4d"/><stop offset="0.99" stop-color="#010101"/><stop offset="0.99"/></linearGradient><linearGradient id="Безымянный_градиент_381" x1="697.25" y1="-516.57" x2="697.25" y2="-516.59" gradientTransform="matrix(0.92, 0.38, -0.38, 0.92, -171.4, 378.73)" gradientUnits="userSpaceOnUse"><stop offset="0" stop-color="#c40029"/><stop offset="1" stop-color="#ef1d19"/></linearGradient><linearGradient id="Безымянный_градиент_381-2" x1="742.17" y1="-382.74" x2="742.17" y2="-530.77" xlink:href="#Безымянный_градиент_381"/><linearGradient id="Безымянный_градиент_383" x1="731.9" y1="-438.93" x2="791.92" y2="-438.93" gradientTransform="matrix(0.92, 0.38, -0.38, 0.92, -171.4, 378.73)" gradientUnits="userSpaceOnUse"><stop offset="0.01"/><stop offset="0.12" stop-color="#151015"/><stop offset="0.34" stop-color="#4a3a4a"/><stop offset="0.67" stop-color="#a07ea0"/><stop offset="1" stop-color="#ffc9ff"/></linearGradient><radialGradient id="Безымянный_градиент_413" cx="697.25" cy="-516.58" r="0.11" gradientTransform="matrix(0.92, 0.38, -0.38, 0.92, -171.4, 378.73)" gradientUnits="userSpaceOnUse"><stop offset="0" stop-color="#ffc02d"/><stop offset="0.18" stop-color="#ffb32e"/><stop offset="0.53" stop-color="#ff9031"/><stop offset="0.99" stop-color="#ff5736"/><stop offset="1" stop-color="#ff5636"/></radialGradient><linearGradient id="Безымянный_градиент_426" x1="688.26" y1="-382.74" x2="688.26" y2="-524.7" gradientTransform="matrix(0.92, 0.38, -0.38, 0.92, -171.4, 378.73)" gradientUnits="userSpaceOnUse"><stop offset="0" stop-color="#ff0018"/><stop offset="0.36" stop-color="#ff2b21"/><stop offset="0.66" stop-color="#ff4b27"/><stop offset="0.75" stop-color="#ff6229"/><stop offset="0.91" stop-color="#ff852c"/><stop offset="1" stop-color="#ff922d"/></linearGradient><linearGradient id="Безымянный_градиент_381-3" x1="461.39" y1="585.94" x2="461.39" y2="430.18" gradientTransform="translate(14.67 -158.67) rotate(-7.5)" xlink:href="#Безымянный_градиент_381"/><linearGradient id="Безымянный_градиент_436" x1="416.37" y1="539.63" x2="478.85" y2="539.63" gradientTransform="translate(14.67 -158.67) rotate(-7.5)" gradientUnits="userSpaceOnUse"><stop offset="0" stop-color="#ffc9ff"/><stop offset="0.33" stop-color="#a07ea0"/><stop offset="0.66" stop-color="#4a3a4a"/><stop offset="0.88" stop-color="#151015"/><stop offset="0.99"/></linearGradient><linearGradient id="Безымянный_градиент_490" x1="-330.6" y1="1500.55" x2="-154.62" y2="1500.55" gradientTransform="matrix(0.59, -0.81, 0.81, 0.59, -274.57, -857.15)" gradientUnits="userSpaceOnUse"><stop offset="0" stop-color="#b87589"/><stop offset="0.41" stop-color="#b8748c"/><stop offset="0.71" stop-color="#b76f95"/><stop offset="0.97" stop-color="#b567a5"/><stop offset="0.99" stop-color="#b566a7"/></linearGradient><linearGradient id="Безымянный_градиент_259-3" x1="-240.7" y1="1525.29" x2="-240.7" y2="1480.74" gradientTransform="matrix(0.59, -0.81, 0.81, 0.59, -274.57, -857.15)" xlink:href="#Безымянный_градиент_259"/><linearGradient id="Безымянный_градиент_492" x1="-336.46" y1="1518.04" x2="-144.94" y2="1518.04" gradientTransform="matrix(0.59, -0.81, 0.81, 0.59, -274.57, -857.15)" gradientUnits="userSpaceOnUse"><stop offset="0.01" stop-color="#b566a7"/><stop offset="0.16" stop-color="#bb76a5"/><stop offset="0.39" stop-color="#c286a3"/><stop offset="0.65" stop-color="#c68fa2"/><stop offset="1" stop-color="#c792a2"/></linearGradient><linearGradient id="Безымянный_градиент_490-2" x1="-448.6" y1="1532.18" x2="-266.75" y2="1532.18" gradientTransform="translate(-321.22 -901.31) rotate(-57.87)" xlink:href="#Безымянный_градиент_490"/><linearGradient id="Безымянный_градиент_259-4" x1="-358.28" y1="1558.22" x2="-358.28" y2="1513.67" gradientTransform="translate(-321.22 -901.31) rotate(-57.87)" xlink:href="#Безымянный_градиент_259"/><linearGradient id="Безымянный_градиент_492-2" x1="-454.03" y1="1549.57" x2="-262.52" y2="1549.57" gradientTransform="translate(-321.22 -901.31) rotate(-57.87)" xlink:href="#Безымянный_градиент_492"/><radialGradient id="Безымянный_градиент_1088" cx="510.21" cy="396.11" r="16.29" gradientUnits="userSpaceOnUse"><stop offset="0" stop-color="#90000c"/><stop offset="0.81" stop-color="#560020"/><stop offset="1" stop-color="#a40c25"/></radialGradient><linearGradient id="Безымянный_градиент_1094" x1="509.87" y1="398.29" x2="509.87" y2="393.55" gradientUnits="userSpaceOnUse"><stop offset="0.01" stop-color="#e39095"/><stop offset="1" stop-color="#592254"/></linearGradient><linearGradient id="Безымянный_градиент_1094-2" x1="511.95" y1="392.35" x2="511.95" y2="391.64" xlink:href="#Безымянный_градиент_1094"/><linearGradient id="Безымянный_градиент_1094-3" x1="521.06" y1="406.78" x2="521.06" y2="398.29" xlink:href="#Безымянный_градиент_1094"/><linearGradient id="Безымянный_градиент_1094-4" x1="523.73" y1="398.3" x2="523.73" y2="395.22" xlink:href="#Безымянный_градиент_1094"/><linearGradient id="Безымянный_градиент_1094-5" x1="518.38" y1="409.85" x2="518.38" y2="407.54" xlink:href="#Безымянный_градиент_1094"/><linearGradient id="Безымянный_градиент_1094-6" x1="511.76" y1="406.96" x2="511.76" y2="401.38" xlink:href="#Безымянный_градиент_1094"/><linearGradient id="Безымянный_градиент_1094-7" x1="510.66" y1="399.9" x2="510.66" y2="397.66" xlink:href="#Безымянный_градиент_1094"/><linearGradient id="Безымянный_градиент_1094-8" x1="519.32" y1="396.79" x2="519.32" y2="391.49" xlink:href="#Безымянный_градиент_1094"/><radialGradient id="Безымянный_градиент_1088-2" cx="567.33" cy="80.71" r="16.29" xlink:href="#Безымянный_градиент_1088"/><linearGradient id="Безымянный_градиент_1094-9" x1="566.99" y1="82.89" x2="566.99" y2="78.14" xlink:href="#Безымянный_градиент_1094"/><linearGradient id="Безымянный_градиент_1094-10" x1="569.07" y1="76.95" x2="569.07" y2="76.24" xlink:href="#Безымянный_градиент_1094"/><linearGradient id="Безымянный_градиент_1094-11" x1="578.19" y1="91.38" x2="578.19" y2="82.89" xlink:href="#Безымянный_градиент_1094"/><linearGradient id="Безымянный_градиент_1094-12" x1="580.85" y1="82.9" x2="580.85" y2="79.82" xlink:href="#Безымянный_градиент_1094"/><linearGradient id="Безымянный_градиент_1094-13" x1="575.5" y1="94.45" x2="575.5" y2="92.14" xlink:href="#Безымянный_градиент_1094"/><linearGradient id="Безымянный_градиент_1094-14" x1="568.88" y1="91.56" x2="568.88" y2="85.98" xlink:href="#Безымянный_градиент_1094"/><linearGradient id="Безымянный_градиент_1094-15" x1="567.78" y1="84.5" x2="567.78" y2="82.25" xlink:href="#Безымянный_градиент_1094"/><linearGradient id="Безымянный_градиент_1094-16" x1="576.44" y1="81.39" x2="576.44" y2="76.09" xlink:href="#Безымянный_градиент_1094"/><radialGradient id="Безымянный_градиент_1088-3" cx="768.51" cy="290.36" r="12.43" xlink:href="#Безымянный_градиент_1088"/><linearGradient id="Безымянный_градиент_1094-17" x1="768.25" y1="292.02" x2="768.25" y2="288.41" xlink:href="#Безымянный_градиент_1094"/><linearGradient id="Безымянный_градиент_1094-18" x1="769.84" y1="287.5" x2="769.84" y2="286.95" xlink:href="#Безымянный_градиент_1094"/><linearGradient id="Безымянный_градиент_1094-19" x1="776.79" y1="298.5" x2="776.79" y2="292.03" xlink:href="#Безымянный_градиент_1094"/><linearGradient id="Безымянный_градиент_1094-20" x1="778.83" y1="292.03" x2="778.83" y2="289.69" xlink:href="#Безымянный_градиент_1094"/><linearGradient id="Безымянный_градиент_1094-21" x1="774.75" y1="300.84" x2="774.75" y2="299.08" xlink:href="#Безымянный_градиент_1094"/><linearGradient id="Безымянный_градиент_1094-22" x1="769.7" y1="298.64" x2="769.7" y2="294.39" xlink:href="#Безымянный_градиент_1094"/><linearGradient id="Безымянный_градиент_1094-23" x1="768.86" y1="293.26" x2="768.86" y2="291.54" xlink:href="#Безымянный_градиент_1094"/><linearGradient id="Безымянный_градиент_1094-24" x1="775.47" y1="290.88" x2="775.47" y2="286.84" xlink:href="#Безымянный_градиент_1094"/><radialGradient id="Безымянный_градиент_1088-4" cx="1079.24" cy="188.5" r="12.43" xlink:href="#Безымянный_градиент_1088"/><linearGradient id="Безымянный_градиент_1094-25" x1="1078.98" y1="190.17" x2="1078.98" y2="186.55" xlink:href="#Безымянный_градиент_1094"/><linearGradient id="Безымянный_градиент_1094-26" x1="1080.56" y1="185.64" x2="1080.56" y2="185.09" xlink:href="#Безымянный_градиент_1094"/><linearGradient id="Безымянный_градиент_1094-27" x1="1087.52" y1="196.64" x2="1087.52" y2="190.17" xlink:href="#Безымянный_градиент_1094"/><linearGradient id="Безымянный_градиент_1094-28" x1="1089.55" y1="190.17" x2="1089.55" y2="187.83" xlink:href="#Безымянный_градиент_1094"/><linearGradient id="Безымянный_градиент_1094-29" x1="1085.47" y1="198.98" x2="1085.47" y2="197.22" xlink:href="#Безымянный_градиент_1094"/><linearGradient id="Безымянный_градиент_1094-30" x1="1080.42" y1="196.78" x2="1080.42" y2="192.53" xlink:href="#Безымянный_градиент_1094"/><linearGradient id="Безымянный_градиент_1094-31" x1="1079.58" y1="191.4" x2="1079.58" y2="189.68" xlink:href="#Безымянный_градиент_1094"/><linearGradient id="Безымянный_градиент_1094-32" x1="1086.19" y1="189.02" x2="1086.19" y2="184.98" xlink:href="#Безымянный_градиент_1094"/><radialGradient id="Безымянный_градиент_1088-5" cx="804.46" cy="256.62" r="15.98" xlink:href="#Безымянный_градиент_1088"/><linearGradient id="Безымянный_градиент_1094-33" x1="804.13" y1="258.75" x2="804.13" y2="254.1" xlink:href="#Безымянный_градиент_1094"/><linearGradient id="Безымянный_градиент_1094-34" x1="806.17" y1="252.93" x2="806.17" y2="252.23" xlink:href="#Безымянный_градиент_1094"/><linearGradient id="Безымянный_градиент_1094-35" x1="815.11" y1="267.08" x2="815.11" y2="258.76" xlink:href="#Безымянный_градиент_1094"/><linearGradient id="Безымянный_градиент_1094-36" x1="817.72" y1="258.76" x2="817.72" y2="255.75" xlink:href="#Безымянный_градиент_1094"/><linearGradient id="Безымянный_градиент_1094-37" x1="812.48" y1="270.09" x2="812.48" y2="267.83" xlink:href="#Безымянный_градиент_1094"/><linearGradient id="Безымянный_градиент_1094-38" x1="805.99" y1="267.26" x2="805.99" y2="261.79" xlink:href="#Безымянный_градиент_1094"/><linearGradient id="Безымянный_градиент_1094-39" x1="804.9" y1="260.34" x2="804.9" y2="258.13" xlink:href="#Безымянный_градиент_1094"/><linearGradient id="Безымянный_градиент_1094-40" x1="813.4" y1="257.28" x2="813.4" y2="252.09" xlink:href="#Безымянный_градиент_1094"/></defs><g class="cls-1"><g id="Layer_2" data-name="Layer 2"><g id="objects"><path class="cls-2" d="M496.18,677.85C380.42,707,659.47,737,810.54,700.12S666.67,634.87,496.18,677.85Z"/><path class="cls-3" d="M577.2,683.42c-221.16-24-232-411.19-33.46-510.66s351.78,189,352.35,308.33S701.68,696.91,577.2,683.42Z"/><path class="cls-4" d="M364.75,344.72c4.09-8.9-13.28-19-24.94-13.36s-17,26.34-8.62,29.25,20.28-5.5,14.5,3.17l5.41-2.54,5.42-2.55C346.91,357.26,360.7,353.57,364.75,344.72Z"/><path class="cls-5" d="M482.64,536.88c2.23,6.1-4.05,12.76-4.05,12.76l-96.68,37.63s-8.5-.76-10.77-6.6a6.45,6.45,0,0,1-.21-.62v0c-1.61-5.71,4.26-12.45,4.26-12.45s-35.69-92.12-37.34-112.11c-1.11-13.29,6.63-23.07,11.36-28.75,2.48-3,4.12-4.79,3.26-5.42-10.34,3.65-18.61,5.31-20.77,3a16.39,16.39,0,0,1-1.82-2.33h0a10.88,10.88,0,0,1-1-2,6.7,6.7,0,0,1,1.39-7.48c-3.34-1.14-5.94-2.36-7.08-4.1a6.76,6.76,0,0,1-.75-1.66v0c-2.85-8.65,1.54-34.15,28.24-46.71,27.19-12.79,47.36,1.79,51,10.33a7.07,7.07,0,0,1,.56,1.84c.27,1.8-.48,4.17-1.71,6.94a9.94,9.94,0,0,1,6.12,8.19s0,0,0,.06a15.26,15.26,0,0,1,.08,3.14c-.24,2.9-7.51,8.26-17.43,13.92-.18.81.89,1.12,2.79,1.31,6.21.65,21.35.15,30.78,12.44,12.31,16,47.52,111.74,47.52,111.74s7.93.76,11.27,5.2h0v0a.21.21,0,0,1,.05.07l.08.13A7.27,7.27,0,0,1,482.64,536.88Z"/><path class="cls-6" d="M402.18,372.08c.27,1.8-.48,4.17-1.71,6.94,0,0-33.28,19.75-70.27,33.39-3.34-1.14-5.94-2.36-7.08-4.1a6.76,6.76,0,0,1-.75-1.66c1.78,4.62,66.9-15.09,79.25-36.41A7.07,7.07,0,0,1,402.18,372.08Z"/><path class="cls-6" d="M406.6,387.27a15.26,15.26,0,0,1,.08,3.14c-.24,2.9-7.51,8.26-17.43,13.92-.18.81.89,1.12,2.79,1.31,0,0-20.15,2.84-42.84,21.07,2.48-3,4.12-4.79,3.26-5.42-10.34,3.65-18.61,5.31-20.77,3a16.39,16.39,0,0,1-1.82-2.33c.3.27,5.76,4.33,40-11.07C403.71,395.62,406.39,388.14,406.6,387.27Z"/><path class="cls-6" d="M375.18,567.57s67.26-20.37,95.16-37.75l-4.18-11.36s4.88,8-39.42,28.66c-43,20-54.08,13.88-54.08,13.88Z"/><path class="cls-6" d="M481.69,535.12l.08.13Z"/><path class="cls-6" d="M482.64,536.88c2.23,6.1-4.05,12.76-4.05,12.76l-96.68,37.63s-8.5-.76-10.77-6.6a6.45,6.45,0,0,1-.21-.62c1.43,2.61,6.29,5.87,60.55-15.31,52.06-20.31,51.07-28.1,50.29-29.49A7.27,7.27,0,0,1,482.64,536.88Z"/><path class="cls-7" d="M329.08,359.21c3.43,1.76,17.32-8.54,22.87-16.46s.4-12.39.4-12.39,8.37,2.16,11.53,7.22c0,0-4.24-4-7.29-.15-.76,1,2.59,7-3.66,14.76a26.22,26.22,0,0,1-15.28,8.94S333.84,362.15,329.08,359.21Z"/><path class="cls-8" d="M341.38,351.39c-7,4.15-1.91-11.76,4.49-15.59S355.68,342.93,341.38,351.39Z"/><path class="cls-9" d="M330.2,412.41a9.7,9.7,0,0,1-7.21-8.34c-1.11-7.18,6.11-26.1,29.27-34.27,23.51-8.28,31.49,16.43,30.63,18.6S339.74,409.66,330.2,412.41Z"/><path class="cls-9" d="M335.16,425.34c-5.66-.31-9.21-9.06,9.29-17.1,18.72-8.14,43.07-7.54,45.39-6.58S361.3,420.16,335.16,425.34Z"/><path class="cls-9" d="M379.79,566.14s-31.23-97.85-25.88-115.43c5.42-17.79,37.95-3.83,71.26,35.85,33.11,39.44,25.95,53.23,25.95,53.23S412.89,556.3,379.79,566.14Z"/><path class="cls-10" d="M337.73,368.23s13.71-5.19,19.09-7,4.56-5.17,4.56-5.17S349.62,357.85,337.73,368.23Z"/><path class="cls-10" d="M359.62,400.27s13.12-8,23.12-14.27,16.94-6.51,16.94-6.51S376,393.73,359.62,400.27Z"/><path class="cls-10" d="M354.57,419.77c-1.89-.29,25-13.1,29.86-15.67s13.82-5.34,13.82-5.34-7,4.37-9,5.57-6.3,3.29-17,8.49A103.24,103.24,0,0,1,354.57,419.77Z"/><path class="cls-10" d="M413.39,575s28.94-13.45,43.2-20.93,25-8.9,25-8.9-3.35,4.57-5.41,5.38Z"/><path class="cls-11" d="M351.62,425.63c-2.23,1.47-9.19,14.56-8.41,16.59s30.77.72,47.91-1.64c17.3-2.37,24.39-26.83,20.13-29.85S382.17,405.62,351.62,425.63Z"/><path class="cls-11" d="M337.74,370.33c-5.22,6.23,13.32-1.3,31.43-2.31,18.27-1,5.77-12.41-.2-12.33S367.16,359.23,337.74,370.33Z"/><path class="cls-12" d="M401.09,426.23c-4.56,3.56,5.94,9.75,9.19,4.87S409.79,419.41,401.09,426.23Z"/><path class="cls-12" d="M374.75,362.77c-5.27,3.34,3.84,6.63,7,5.18S385.9,355.71,374.75,362.77Z"/><path class="cls-13" d="M418.5,554.8c-12.64,7,14,6.84,35-1.89,21.32-8.86,23.81-16.78,21.8-19.67S438.46,543.76,418.5,554.8Z"/><path class="cls-13" d="M360,401.17c-2.46,2.84,23.41-.14,33.88-5.38s10-14.68,7.27-15.42S360,401.17,360,401.17Z"/><path class="cls-12" d="M386.75,388.25c-3,2.26,3.67,2.12,7.35-2.2S389.77,386,386.75,388.25Z"/><path class="cls-14" d="M345.54,359.76s7.25-4.87,10.6-6.69-2.44,2.5-2.87,3.69,1.4,1.48,1.4,1.48-7.88,3.72-7.78,3.46a2.13,2.13,0,0,0,.13-1.9C346.59,359.06,345.54,359.76,345.54,359.76Z"/><path class="cls-15" d="M334.57,406.29c-8.62-2.46-4.07-23.74,9-32.55s24.48,13.24,21,20S334.57,406.29,334.57,406.29Z"/><path class="cls-13" d="M321.61,401.27c.83,2.69,3-11.19,9.23-18.28S321.9,378.27,321.61,401.27Z"/><path class="cls-11" d="M337.84,455.46c8.39-21.65,13.06,15.13,21.71,43.45,8.57,28,12.51,60.49,12.51,60.49S341.82,478.45,337.84,455.46Z"/><path class="cls-12" d="M443.84,542.65c-4.19,2.86,6.09,2.08,11.53-2.18S443.84,542.65,443.84,542.65Z"/><path class="cls-16" d="M431.25,433.24c-4.87-9.54,6.32,36.7,32.64,79.37C463.89,512.61,441,450,431.25,433.24Z"/><path class="cls-16" d="M352.46,421.29s5.13,4,20.13-2,16.66-14.92,16.66-14.92S358.07,419.45,352.46,421.29Z"/><path class="cls-17" d="M470.34,529.82s-38.09-26.5-55.11-20.21-6,61.88,0,62.12,55.11-21.52,55.11-21.52Z"/><path class="cls-18" d="M399.25,231.86S362.37,196.18,373,169.22a40.57,40.57,0,0,1,20.53,17.38c7.62,13,8.79,43.46,8.79,43.46Z"/><path class="cls-19" d="M396.06,211.4l6.74,15.92S415.89,256.53,449,293.4c-2.27,2.16-5.39.84-7.22-.3.44.72.7,1.15.78,1.31-.13-.15-.62-.77-1.45-1.75h0c-.52-.38-.84-.65-.84-.65q-3.36-3.87-6.5-7.64l-.07-.08c-14-16.73-24.9-31.6-31.5-41-4.66-6.65-7.17-10.6-7.17-10.6Z"/><path class="cls-20" d="M402.19,243.24c1.61,1.61,3.23,3.11,4.87,4.48,13.87,11.56,30.88,39,34.73,45.38.44.72.7,1.15.78,1.31-.13-.15-.62-.77-1.45-1.75h0c-1.49-1.75-4-4.69-7.34-8.29l-.07-.08C422.1,271.67,401.08,251,382.4,244.1c-29.43-10.88-60.27,8.11-73.83,11.61,0,0,26.17-38.4,47.21-44.06C374.19,206.69,387.64,228.73,402.19,243.24Z"/><path class="cls-20" d="M441,284.17s-22.62-31.11-18.47-57.56c4.27-27.29,47.2-46,55.67-52.33,0,0-26.07-11.91-49.28-1.51-23.84,10.67-20,49-8.88,69.1,8.23,14.83-.15,19.43-.15,19.43Z"/><path class="cls-20" d="M409.69,242.94s-15.2-34.2-11.1-49.48c4.15-15.49,23.32-22.58,34.08-37.39a50.27,50.27,0,0,0-35.14,15.86c-15.12,16.39,7.12,50.34,4.75,58.13S409.69,242.94,409.69,242.94Z"/><path class="cls-20" d="M397.67,235.86S378.72,212.06,367,206c-12.1-6.25-32-4.78-32-4.78s21-13.83,36.73-9.2C387,196.49,397.67,235.86,397.67,235.86Z"/><path class="cls-21" d="M413.43,203.45c-2.06.82-.3-16.9,10.38-27,11.82-11.14,44.74-4.74,46.67-3.13s-19.62,16.28-30,23.1S413.43,203.45,413.43,203.45Z"/><path class="cls-18" d="M409.69,242.94c-.41-8,18.1-54.66,18.1-54.66s-22.1,32.66-25.06,37.3S409.69,242.94,409.69,242.94Z"/><path class="cls-20" d="M419.06,257.65c4.27-1.57-16.49-22.86-16.78-27.59s11.2.54,25.38-3.8c13.91-4.25,36.95-23.9,37.64-24.1s-23.91-16.13-32-18-22.14,26.43-30.25,38.57c-6.56,9.82,5.9,16.9,8.88,22.26s-.4,6,1,7.93S419.06,257.65,419.06,257.65Z"/><path class="cls-22" d="M402,224.78c-.76,2.22,10,4.51,23.89-.7,13.68-5.12,37.58-22.26,38-23.13s-25.48-15.87-32.52-16.69-17,22.25-19,25.36S402.45,223.32,402,224.78Z"/><path class="cls-23" d="M318.73,252.08c-6.34-4.24,20.07-33,34.28-37.18,13.95-4.07,35.4,16,39.33,21.43s-4,4.25-20.46,3.47C354.93,239,318.73,252.08,318.73,252.08Z"/><path class="cls-23" d="M378.29,196.06c-8.21-11.59,6.24-9.14,10.25-6.93s6.68,24.11,6.12,27.61S382.06,201.36,378.29,196.06Z"/><path class="cls-24" d="M394.06,177.41c-3.29,15.12,9.6,4.13,18.46-3.81s14.55-14.28,15.51-15.27S401.63,160.89,394.06,177.41Z"/><path class="cls-21" d="M363.29,203.53c6,2.85,14.69,9.9,18.52,9.56s-5.16-16-11.19-20.34-26.12,6.18-26.71,7.27S359.29,201.65,363.29,203.53Z"/><path class="cls-23" d="M432.24,184.09c-.7-3.18,33.62-2.42,33.62-2.42l-16.37,10.45S435.59,184.93,432.24,184.09Z"/><path class="cls-21" d="M413.41,207.53c-1.13,2.09,25.16-5.93,33.09-6.59s-9.93-15.94-16.27-14.57S413.41,207.53,413.41,207.53Z"/><path class="cls-25" d="M417.43,236.65c3.41,4.62,4.92-9.15,4.92-9.15l-8,.62S416.28,234.14,417.43,236.65Z"/><path class="cls-25" d="M397.67,235.86c2.77,4.4,12.91,16.25,14.93,16.18s-.06-7.15-2.91-9.1-7.56-11.34-8.48-14.37a5,5,0,0,1,1.32-5.06s-7-16.51-7.9-17.47-4.55,7.08-6.82,3.85S397.67,235.86,397.67,235.86Z"/><path class="cls-23" d="M439.07,282.75S425,268.34,424.13,264a15.09,15.09,0,0,1,1.13-8.59Z"/><path class="cls-21" d="M353.19,241.54c9.53-.8,17.54-2.17,20-3.41s-7.76-11.83-20.62-12.28C339.43,225.38,348.25,242,353.19,241.54Z"/><path class="cls-26" d="M433.62,220.52c-13,6.38-5.46-13.43,4.45-18s23.57-.72,23.57-.72C461.08,203.17,437.72,218.51,433.62,220.52Z"/><path class="cls-26" d="M396,183.82c-3.46.91-.27-9.72,4.35-13.89s17.89-9.47,14.36-3.05S401.34,182.43,396,183.82Z"/><path class="cls-26" d="M371.07,180.69c.34,4,15.08,7.25,18.12,7.28s-1.53-7.81-6.63-12.28-8-5.29-8.92-4.46S371.07,180.69,371.07,180.69Z"/><path class="cls-24" d="M345.77,216.36a32.72,32.72,0,0,1,18.13-.79c10.79,2.53,18.71,9.47,19.63,9.68s-7.89-10.86-17.92-13.06S345.77,216.36,345.77,216.36Z"/><path class="cls-23" d="M411.33,210.14c2.08-2.61,24.41-7.11,24.41-7.11S415.92,203.41,411.33,210.14Z"/><path class="cls-25" d="M403.39,184.12s1.22-3.19,8.53-10S429.75,159,429.75,159s-7.28,8.51-12.21,12.07S406.29,179.62,403.39,184.12Z"/><path class="cls-25" d="M452.32,190.31s12.05-11.36,15.75-13.14,10.08-2.89,10.08-2.89Z"/><path class="cls-27" d="M441.79,293.1c.44.72.7,1.15.78,1.31-.13-.15-.62-.77-1.45-1.75C441.32,292.8,441.54,293,441.79,293.1Z"/><path class="cls-28" d="M809.31,558.76s39.84-24.11,79.59-26.86a13.21,13.21,0,0,0-7.7-13.62c-9.16-4.27-65.61,21.63-65.61,21.63Z"/><path class="cls-29" d="M812.89,542.64,780.1,526.1s47.39-20.6,63.63-19.85,37.47,12,37.47,12S835,533.14,812.89,542.64Z"/><path class="cls-30" d="M816.38,542.64a291.33,291.33,0,0,1-14.7,40.48s-.3.68-.86,1.92c-16.94,37.36-37,62.76-37,62.76-121.06,86.27-257,24.59-257,24.59-40.21-31.46-63.4-70.38-73.4-90-3.73-7.33-5.47-11.7-5.47-11.7Z"/><path class="cls-31" d="M426.48,563.58c-13.77,21.83,98.36,36.13,201.61,30.58,83.36-4.48,166.65-20.31,184.85-44.16C859,489.61,486,469.27,426.48,563.58Z"/><path class="cls-32" d="M454.07,565.36c-.16,19.34,94.45,29.89,188.38,19.11,72.61-8.34,142.17-22,155.1-39.43,15-20.21-57.63-37.71-143.87-37.5C558.12,507.76,454.37,528.8,454.07,565.36Z"/><path class="cls-33" d="M1041.91,516.3s-98.86,1-162.94,29.38l-.27.13s-1.5-11.73-4.2-23.86c-4.16-18.63-54.92-20.58-54.92-20.58s79.55-113.77,212.1-30.64c.13.11.24.22.36.34.44.44,1.26,1.28,2.3,2.47C1040.18,480.24,1052.78,498,1041.91,516.3Z"/><path class="cls-34" d="M819.58,501.37,817.3,512s27-1.35,45.57,12.05v12l-20.54,7,36.37,2.73s1.08-18.6-3.29-27.87S842.47,494.73,819.58,501.37Z"/><path class="cls-35" d="M800.82,585c-16.94,37.36-37,62.76-37,62.76-123.44,86.27-257,24.59-257,24.59-40.21-31.46-63.4-70.38-73.4-90,0,0,63.46,86.61,157.52,102.23C678.85,699.2,745,657.12,763.93,641,781.09,626.43,796.91,593.5,800.82,585Z"/><path class="cls-36" d="M592.51,510.44c-63.24,11.3-41.93,78,2.25,77.74,0,0,193.2-12.79,204.67-47.39C807.31,517,653.38,499.57,592.51,510.44Z"/><path class="cls-6" d="M876.15,519.72s87.36-35.54,117.16-39.52,51.87,14.71,51.57,23.95-5.51,10.43-5.51,10.43-90.78,3.14-160.67,31.22C878.7,545.8,880.29,528.15,876.15,519.72Z"/><path class="cls-10" d="M835,499.7c-12.73,3.15,26.82,22.76,27.91,24.38s0,12,0,12l-10.64,6.6,26.47,3.16s1.28-20.85-4-29S841.37,499.61,835,499.7Z"/><path class="cls-37" d="M1002.06,479.65c-54,4.93-74.06,47-71.54,48.24s56-10,67.56-15.16S1039,476.28,1002.06,479.65Z"/><path class="cls-38" d="M829,490.11c-.22,4.2,26.65,7.63,39.43,17.9s90.31-21.25,111.17-28.36S919.24,397.68,829,490.11Z"/><path class="cls-36" d="M740.17,515.29c-89,4.11-24.77,72.64,35.76,42.58S740.17,515.29,740.17,515.29Z"/><path class="cls-39" d="M622.13,595.54C583,605.37,651.74,680.25,704.57,666c61.62-16.66,91.63-81.64,92.82-91.57s-59.61,10.73-102.14,16.69S634.46,592.44,622.13,595.54Z"/><path class="cls-10" d="M1041.91,516.3s-98.86,1-162.94,29.38c3.68-1.79,43.87-21,85.73-29.71,43.92-9.14,61.4-1.21,72.13-3.24,9.86-1.87,7-27.26-2.49-39.19C1040.18,480.24,1052.78,498,1041.91,516.3Z"/><path class="cls-6" d="M849.72,471.29s12.69-8.17,80.23-4.85c69.62,3.43,6.82,61.55,6.82,61.55L948,525.9s16.46-21.07,20.75-41.23-55.19-28.73-115-16.1Z"/><path class="cls-6" d="M862.12,462.64s64.33-14.43,111.42-1.61-3.53,60.9-3.53,60.9l5.42-.79s18.11-18.91,20.23-41.2S939.94,446.58,866.93,460Z"/><path class="cls-6" d="M920.79,441.33s72,9.7,97,27.35,1.52,48.58,1.52,48.58l-12.58.91s27.23-26.63,8.67-45.92c-30.7-31.91-122.68-24.4-122.68-24.4S911.74,442.12,920.79,441.33Z"/><path class="cls-6" d="M835,499.7c-17.86-6.26,92.84-21.9,113.11-8.59,8.92,5.86-50.48,45.4-52.56,47.17s37.37-27.6,26.27-36.22C915.68,497.32,835,499.7,835,499.7Z"/><path class="cls-40" d="M814.86,512.73s24.39,4.6,37.64,15.15l3.58,10.48,6.79-2.32s.85-9.46,0-12S849.79,512.61,817.3,512Z"/><path class="cls-41" d="M942.57,493.07c-6.88-3.33,17.61-19,40.34-22.8s33.59,10.57,34.57,11.4-22.38-3.85-43.84,2.9S942.57,493.07,942.57,493.07Z"/><path class="cls-42" d="M686.17,589.14c-1.79,2.63,56.61-6.12,58.08-9.64S696,574.68,686.17,589.14Z"/><path class="cls-42" d="M747.11,578.85c-1.38-.4,6.89-4.92,12.19-3S748.8,579.34,747.11,578.85Z"/><path class="cls-42" d="M474.56,539.82c-1.19-1.79,22.13-16.6,40.8-17S474.56,539.82,474.56,539.82Z"/><path class="cls-43" d="M457.8,567.63c-3.38-13.31,40.93-36.56,66.76-40.53s32,51.66,40.74,58.42S473,589.23,457.8,567.63Z"/><path class="cls-44" d="M759.69,580.77c-5.2,2.48-21.75,42-24.15,68.83-1.39,15.6,36.18-16.08,53.73-52.55S778.89,571.58,759.69,580.77Z"/><path class="cls-12" d="M921.64,502.34c-4.94-.14,6.66-5.85,10.31-5.29S930.43,502.57,921.64,502.34Z"/><path class="cls-17" d="M557.92,515.37s13.08,51.3,44.43,63.57c48.19,18.86,71.29-57.4,82.26-66.33s36-10.4,36-10.4-66.85-6.85-108.57,2S557.92,515.37,557.92,515.37Z"/><path class="cls-45" d="M881.92,364.86c2.75-13.31-2.53-35.82-2.52-44.73,0-20.77-.74-35.63,14.51-49.15C949,222.14,1009.35,146.77,1047.3,94.8v0c23-31.54,36.85-53.55,36.76-55.4-.78-16-12.21-23.55-15.16-23.27-2.15-.76-19.25,8.5-35.89,17.52-6.65,3.61-93.16,115.52-149.85,231-15.25,31.07-59.33,32.68-81.59,49.16C787,324.59,754.36,363.43,735,388.08c-9,11.53-15.06,15.5-15.41,16.94-1,4.18,79.1,92,83.18,90.44C804.75,494.76,878.18,383,881.92,364.86Zm160.87-309.8c21.42,2-13.76,43.29-27.41,37.51C1002.33,87,1028.69,53.71,1042.79,55.06Z"/><path class="cls-46" d="M829,448.7l0,0c18-29.59,38.71-66.74,43.88-84.55a81.83,81.83,0,0,0,2.79-18.77c0-.29,0-.6,0-.92s.05-.74.06-1.1c.32-8.68,0-17.77-.12-26.68-.21-20.76,1-40.76,16.13-54.44,54.59-49.43,114.11-125.44,151.5-177.82h0c22.71-31.79,36.62-54,36.17-55.8-2.88-11.68-15.23-14.66-18.18-14.35-2.16-.73-16.39-.05-32.94,9.15-6.6,3.68-91.91,116.51-147.36,232.59-14.91,31.24-59,33.32-81.06,50-14.47,11-46.69,50.15-65.75,75-8.92,11.63-15.08,20.28-15.41,21.72-1,4.19,77.42,90.26,81.49,88.71C802.26,490.69,814.77,472.13,829,448.7Zm209.38-404c21.44,1.81-13.3,43.44-27,37.81C998.3,77.11,1024.31,43.5,1038.42,44.69Z"/><path class="cls-37" d="M786.79,320.88s33.16-19.2,59-4.82c28.65,15.95,10.06,72.29,5.36,84.45s35.35-71.16,11-95.77C837.2,279.6,786.79,320.88,786.79,320.88Z"/><path class="cls-10" d="M800.32,491.42c-4.07,1.55-82.47-84.52-81.49-88.71.33-1.44,6.49-10.09,15.41-21.72-.51,1-8.59,17.21-8.89,22.61-.64,11.14,63.08,79,70.73,80.4,10.61,1.88,32-33.78,33-35.3C814.77,472.13,802.26,490.69,800.32,491.42Z"/><path class="cls-47" d="M1040.54,41.41C1024,40.1,993.76,79.27,1009,85.63,1025,92.31,1065.83,43.42,1040.54,41.41ZM1011.42,82.5c-13.12-5.39,12.89-39,27-37.81C1059.86,46.5,1025.12,88.13,1011.42,82.5Z"/><path class="cls-10" d="M1010.23,68.19s11.61-29.08,35-31.29c25-2.35,2.63,21.06-12.32,35.23,0,0,24.25-24.84,6.84-27.55C1024.91,42.26,1010.23,68.19,1010.23,68.19Z"/><path class="cls-48" d="M1009.82,47.77c-4.22,8.78,20.67-11.11,38.1-13.35,18.23-2.34,6.82,14.24-6.09,33.94s31.68-26.9,34.23-39.06c1.27-6-5.06-12.35-15.07-13.16-9.74-.79-22.91,3.63-27.74,6.46C1023.74,28.17,1009.82,47.77,1009.82,47.77Z"/><path class="cls-6" d="M875.72,316.64c-1.71-24.26-6.83-34.3,2-44.76,11.65-13.83,20.87-16.91,60-58.09,40.71-42.9,104.63-128,105.67-129.41C1006,136.76,946.44,212.77,891.85,262.2,876.75,275.88,875.51,295.88,875.72,316.64Z"/><g class="cls-49"><path class="cls-50" d="M980.2,86.92c50.14-12.31-71,158.84-71,158.84l7.06-6.95s52.49-75.55,74.7-124.73c22-48.64-4.75-35.85-4.75-35.85Z"/><path class="cls-50" d="M991.13,71.27s19-5.62,7.18,32.55c-12.09,39.1-51.67,102.41-51.67,102.41l5.92-6.68s38.22-63,48.94-95.81c10.52-32.22-8-35.85-8-35.85Z"/><path class="cls-50" d="M930.34,164.62s7.43-6.69,11.57-4.3-42.13,94.54-42.13,94.54l-6,5.61s44-85,40.55-88.16S918,185.7,918,185.7Z"/><path class="cls-50" d="M836.34,289.07C848.44,284,747,437.42,747,437.42l5.16,5.71s86.81-128.48,95.79-145.95-2.78-11.71-2.78-11.71Z"/><path class="cls-50" d="M810.43,299.67c26.65-8.76-66.31,134.56-66.31,134.56L743,433S792,354.84,805,325.46c12.81-29.12-1.85-21.64-1.85-21.64Z"/><path class="cls-50" d="M775.78,330.31s15.07-6.7,12.23,11C785.1,359.42,736.88,426,736.88,426l-3.4-3.94s39.94-55.85,47.75-76.11c7.72-20.06-15.85-3.63-15.85-3.63Z"/><path class="cls-50" d="M876,302.27S805.44,421.19,772.86,465.45l4.6,4.79s82.59-117.19,92.3-136.35S876,302.27,876,302.27Z"/></g><path class="cls-48" d="M999.69,80.34c-17.21,4.38-93.13,110.43-76.27,127.07,18.2,18,114.73-117.78,109.91-119.94s-16.19-1-24.37-1.84C1001,84.77,1002.59,79.6,999.69,80.34Z"/><path class="cls-37" d="M859.17,302.17c-5.83-3.37,5.54,34.91.75,65.21C855.5,395.29,882.5,325.55,859.17,302.17Z"/><path class="cls-37" d="M776.06,333.81c17-17.64,50.22-45.16,78.7-32.1,31.8,14.57,4.14,99.49-26.89,140.09-30.25,39.57-89.62-20.4-96.58-35.53C724.66,391.85,776.06,333.81,776.06,333.81Z"/><path class="cls-51" d="M876.13,357c2.14,3.61,4.12,3.58,6.57.13s-5.29-40.6-5.29-40.6S874.23,351.83,876.13,357Z"/><path class="cls-10" d="M884.87,282.05c-6.39,3,.53-13.78,8.88-21.58s16-5.09,15.47-4.1-5.1,5.48-11.05,10S884.87,282.05,884.87,282.05Z"/><path class="cls-52" d="M462.68,638.06s30.11-32.62,91.36-31.67,95,71.87,96.49,80.68S524.14,700.31,462.68,638.06Z"/><path class="cls-17" d="M758.39,451.38,782,476.5s13.68-20.89,16.39-56.37-12.63-49.68-27.06-47S758.39,451.38,758.39,451.38Z"/><path class="cls-53" d="M306.32,534.36S473.87,618.42,581,660.46c0,0-60.47,44.13-151.81,9.91s-141.12-75-141.12-75S299,581,282.86,570.63Z"/><path class="cls-54" d="M311.31,526.12c-3.7,6.49-40.95,66.69-43.91,62.6s-1-18.26-12.82-25.19-34.24-1.74-67.66-27l-1.66-1.28c-32.12-24.69-42.46-44.93-58.62-45.54a31.53,31.53,0,0,1-8.88-1.45h0c-8.37-2.76-9.67-8.42-9.67-8.42a93.94,93.94,0,0,1,5.82-11.71c.16-.31.35-.63.55-.94,10.67-17.74,16.9-44,16.9-44,17.84,6.91,142.09,97.16,157.84,98.52S315,519.63,311.31,526.12Z"/><path class="cls-10" d="M267.4,588.72c-3-4.11-1-18.26-12.82-25.19s-34.24-1.74-67.66-27-43.85-46.21-60.28-46.82-18.56-9.86-18.56-9.86a93.94,93.94,0,0,1,5.82-11.71c-7.07,12.46,6.24,15.87,26.17,19.7,20.41,3.93,63.88,53.94,85.68,63.48s33.87,7.47,42,8.14S274.86,580.29,267.4,588.72Z"/><path class="cls-43" d="M148.66,449.05c-23.48-13.63,28.44,69.76,64.27,93s68.84,2.18,74.62-9S179.74,467.09,148.66,449.05Z"/><path class="cls-6" d="M289.19,521.69c6.59.33-5.1,24.26-4.36,29.78s21-18,22.74-25.59S300.16,524,289.19,521.69Z"/><path class="cls-6" d="M240.72,559.35c-7.38-3.62,22.78,1.15,27.87,1.16s2,11.66.26,15.09S261.38,565,253,561.93,240.72,559.35,240.72,559.35Z"/><path class="cls-55" d="M131.35,423.17c5.92,3-23.27,56.65-23.27,56.65S114.08,433,131.35,423.17Z"/><path class="cls-56" d="M291.61,583s98,66.17,157.72,81c71.09,17.73,107.07-13.49,107.07-13.49L581,660.46s-55.82,38.21-132.74,16.07S288.1,595.32,288.1,595.32s3-4.58,3.45-6.32C291.93,587.54,291.61,583,291.61,583Z"/><path class="cls-57" d="M479.88,682.46s2.34-9.94,4.24-11.52,35.51-1.07,51.88-9.28,36.56,3.68,36.56,3.68S531.46,689.28,479.88,682.46Z"/><path class="cls-57" d="M406.21,661.25s4.34-11.14,2.8-11.82-35-14.83-59.31-31.27c-8.2-5.55-20.48,3.53-20.48,3.53S369.23,645.5,406.21,661.25Z"/><path class="cls-58" d="M329.32,546.91c-25.92-4.37-19,33.62,1.47,56.18S423,659,465.3,665.18,536.57,648,536.85,644,412.67,592.31,329.32,546.91Z"/><path class="cls-59" d="M291.61,583S475.18,714.9,556.4,650.52C556.4,650.52,495.78,724.18,291.61,583Z"/><path class="cls-60" d="M306.32,534.36l1.53.78s-5.49,5.35-17,44.63a17.8,17.8,0,0,0-8-9.14S299.38,545.38,306.32,534.36Z"/><path class="cls-59" d="M406.54,660.61s3.09-8.51,4.11-9.26,24.12,8.37,27.36,9.39,1,13,1,13S415.54,665.56,406.54,660.61Z"/><path class="cls-61" d="M307.85,535.14S467.55,621.59,581,660.46C581,660.46,448.57,606.66,307.85,535.14Z"/><path class="cls-62" d="M223,506.65c-4.28,4.38-2.64,14.82,2.43,17.57,6.6,3.59,16.86-.08,16.41-10S225.77,503.83,223,506.65Z"/><path class="cls-62" d="M174.76,469.64c-6.85,4.39-10.71,15.15.41,20.7s16-8.58,14-13.3S177.43,467.92,174.76,469.64Z"/><path class="cls-63" d="M174.53,472c-5.91,2-7.13,9.44-.45,13.74s12.34-2.73,12.21-6.48S179.51,470.3,174.53,472Z"/><path class="cls-64" d="M224.33,508c-4.4,3.63-.15,14,6.34,14.64s9.3-6.15,8.67-8.9S229.71,503.51,224.33,508Z"/><path class="cls-65" d="M220.59,513.14a13,13,0,0,0,5.69,10.7c5.92,3.86,12.54-1.33,12.54-1.33s-5.87,6.87-13.63,4.1S220.59,513.14,220.59,513.14Z"/><path class="cls-65" d="M168.17,480.22s-1.79,3.61,2.63,9.34,11.22,2.58,13.21.94c0,0-3.34,2.84-9.61-.55A11.63,11.63,0,0,1,168.17,480.22Z"/><path class="cls-66" d="M225.36,517.71c-.68-1.43,9.27-.55,12.17-1.33S230.39,526,225.36,517.71Z"/><path class="cls-66" d="M170.83,479.18c-1.13.7,3.51,6,8.43,5.95s6.51-3.39,6.68-3.94S181.4,486,170.83,479.18Z"/><path class="cls-42" d="M224.63,509.52c-3.09,4.91,6.09,8.72,11.18,3.87S226.73,506.21,224.63,509.52Z"/><path class="cls-42" d="M170.82,477.61c-.6,1.8,9.11,6.62,12.49,1.86S173.94,468.28,170.82,477.61Z"/><path class="cls-62" d="M185.26,535.22c-32.12-24.69-42.46-44.93-58.62-45.54a31.53,31.53,0,0,1-8.88-1.45c-3.35-1.43,15.17-2.6,28.51,1.77S170.57,523.33,185.26,535.22Z"/><path class="cls-12" d="M271.32,517.09c-3.25-.48,4.81,8.58,9.26,7.27S271.32,517.09,271.32,517.09Z"/><path class="cls-12" d="M144.45,438.81c-4.63-.22,1.91,9.56,10.81,11.22S148.26,439,144.45,438.81Z"/><path class="cls-37" d="M133.69,449.59c-2.84-2.66-20.36,20-16.94,27.29s25.58,8.43,35.71,11.05S133.69,449.59,133.69,449.59Z"/><path class="cls-6" d="M127.15,426.46c6.37-3.3-7,29.14-11.1,37.13s-7,9.83-7,9.83a238,238,0,0,1,6.75-26.5A73,73,0,0,1,127.15,426.46Z"/><path class="cls-67" d="M777.57,368.52c-27.9-14.28-64.33,4.58-64.33,4.58L618,457s-93.35-36.7-118.11-36.22-61.08,14.46-47,16.45c12.89,1.85,33.94-.33,51.57,21.79l.08.09a71,71,0,0,1,4.62,6.52c15.47,24.41,21.9,64.63,57.23,76.33l0,0a71.4,71.4,0,0,0,24.09,3.26c57.29-1.23,147.05-70.72,164.3-88.91C780.14,429.57,805.47,382.82,777.57,368.52ZM565.64,524.21c3.63-1.07,20.83,11,14,11.3S559.13,526.13,565.64,524.21Zm15.78,19.13c-17.51-4.27,22.26-5,35.72-7.37S606.94,546.07,581.42,543.34Zm41.34-5.82c-2.14-.31,6.87-4,8.17-3.12S625.48,537.93,622.76,537.52ZM780.32,397c-.35-4.1-4.44-19.65-2.48-20.2,0,0,8.16.41,8.29,6.68S780.69,401.06,780.32,397Z"/><path class="cls-68" d="M651,524.27c-101.45,44-129-78.16-172.7-84.48-14.45-2.08-17.74-5.79-13.52-9.45,4.52-3.94,17.73-7.83,35.12-9.66a204.62,204.62,0,0,1,53,1.48c5.83.94,11.27,1.59,16.35,2,47,3.78,62.42-13.61,62.42-13.61,35.57-13.57,61.35-29.68,83.2-38.19,18.63-7.25,34.38-9,50.88,1.14C801.6,395.47,752.46,480.31,651,524.27Z"/><path class="cls-69" d="M568.05,425.87s-13.28,13-20.1,22.8,45.41,18.56,108.42,7.15,66.63-60,64.79-67.34S568.05,425.87,568.05,425.87Z"/><path class="cls-70" d="M625.62,381.34c31.66-9.21,74.33,6.1,93.11,8.25,0,0-15.74,51.75-79.39,65.72s-89.87-9.09-89.87-9.09,9.64-6,22.68-26.5S609.3,386.09,625.62,381.34Z"/><path class="cls-71" d="M710.83,401s-30.07,40-76.66,52.69-76.25-7.06-76.25-7.06,14.6-41,60.3-61.92c25.42-11.65,51.21-5.3,69.1,2.64a.35.35,0,0,0,.13.05c3.64,1.62,7,3.3,9.87,4.91l.1.06A104.71,104.71,0,0,1,710.83,401Z"/><path class="cls-72" d="M560.12,443.59c3,12,65.74,6.52,95.19-26.45s-22.58-36.08-47.1-26.76S560.12,443.59,560.12,443.59Z"/><path class="cls-73" d="M713.45,373.46l-.87.7A4.79,4.79,0,0,1,713.45,373.46Z"/><path class="cls-74" d="M651,524.27c-101.45,44-129-78.16-172.7-84.48-14.45-2.08-17.74-5.79-13.52-9.45-1.77,7.86,23,7.7,34.05,17s54,85.36,116.65,80.9,141-72.06,155.46-109.77-15.75-51.54-35.29-50.06c-14.41,1.08-20.14,3.75-22.15,5.06l1.34-1.06c18.63-7.25,34.38-9,50.88,1.14C801.6,395.47,752.46,480.31,651,524.27Z"/><path class="cls-6" d="M686.74,391.66c-18.89.43-31.34,35.1-45.24,50.49s37,2.65,67-38.33C708.54,403.82,701.81,391.33,686.74,391.66Z"/><path class="cls-8" d="M664.78,383.4c1.22-1.45,3.63,1.23,2.34,4.07S660.56,388.39,664.78,383.4Z"/><path class="cls-8" d="M593.1,464c-17.52-.49,30.27,21,64.5,13.3s41.78-35.76,39.7-36.44S665.14,466,593.1,464Z"/><path class="cls-8" d="M654.38,481.87c-12.27,4.08.15,11.58,14.64,1.16S666.65,477.78,654.38,481.87Z"/><path class="cls-75" d="M544.56,496.33c-10.5-28.17,70.25,9.7,131.31.76S771.81,416,771.81,416s-44.76,88.36-126.56,109.45S544.56,496.33,544.56,496.33Z"/><path class="cls-75" d="M736.18,381.2c-10.2,6.59-22.48,33.69-22.59,68.26s52.64-20.59,54.66-50.69S741.61,377.69,736.18,381.2Z"/><path class="cls-8" d="M609.35,399.92c-9.26-5.29-10.26,6-8.61,10.57S614,402.58,609.35,399.92Z"/><path class="cls-6" d="M687.32,387.33c-12.07-4.82-34.15-10.29-61.85-2.21-42.65,12.43-67.55,61.49-67.55,61.49s14.6-41,60.3-61.92C643.64,373,669.43,379.39,687.32,387.33Z"/><path class="cls-6" d="M569.22,424.16h0s-5.78,4.45-24.47-.79-44.82-2.62-44.82-2.62l0-.08a204.62,204.62,0,0,1,53,1.48C558.7,423.1,564.14,423.75,569.22,424.16Z"/><path class="cls-6" d="M687.61,383.24s7.14,1.53,10.41,2.26,20.57-16.15,43-21.32c0,0-13.73,1.12-42.89,15.61C698.09,379.79,690.4,383.81,687.61,383.24Z"/><path class="cls-76" d="M612,420.85s20.74-1.38,38.17-7.88,18.34-24.66,26.31-27.51,10.24,6.2,10.24,6.2-15,1.65-32.55,24.15S612,420.85,612,420.85Z"/><path class="cls-8" d="M491.75,426c-3.65,4.46,6.82,7.64,19.63,1.51S494.6,422.51,491.75,426Z"/><path class="cls-8" d="M714.46,380.82c-1.45,5.43,3.73,2.59,10.74-2.21S716.26,374.06,714.46,380.82Z"/><path class="cls-77" d="M696.91,489.46c-14.93-.89-34.84,16.43-25.93,17.72C682.85,508.92,711.85,490.34,696.91,489.46Z"/><path class="cls-77" d="M533.19,486.68c-2.93-4.64,5.41-1.64,7.12,4.29S536.75,492.34,533.19,486.68Z"/><path class="cls-77" d="M769.42,404.42c-4.66-2.33-4.84,22.29-5.36,25.17S781.16,410.27,769.42,404.42Z"/><path class="cls-8" d="M666.73,498.08c-.36,3.23,9.2-3.75,11-5.4S667.37,492.23,666.73,498.08Z"/><path class="cls-8" d="M759.17,433.19c-2.79.73,2.72-8.42,3.33-10.94S766.79,431.22,759.17,433.19Z"/><path class="cls-8" d="M530.48,479.77c.74,2.52,5.14,3.21,8.47,7.43S540.73,477.23,530.48,479.77Z"/><path class="cls-77" d="M756.72,427.71c-3.42,1.51.11-2.69,1.42-5.68S761.66,425.51,756.72,427.71Z"/><path class="cls-77" d="M513.24,449.69c.54,2.61,4.82,3.66,5.3,1.64S512.7,447.08,513.24,449.69Z"/><path class="cls-10" d="M566.41,541.94c-35.33-11.7-41.76-51.92-57.23-76.33a71,71,0,0,0-4.62-6.52c.77.8,6.81,7.3,15.34,22.87C529,498.62,539.53,527.94,566.41,541.94Z"/><path class="cls-8" d="M559.41,504.24c2.5-2.38,12.41,12.58,20.78,17s16.23,1.14,17.33,2.36-1,3.06-1,3.06S570,524.59,559.41,504.24Z"/><path class="cls-8" d="M752.82,371.25c-2.59,1.55,16.25,10.91,19.08,19.79S775.31,377.74,752.82,371.25Z"/><path class="cls-78" d="M719.55,445.19a1.16,1.16,0,1,1-1.37-.9A1.16,1.16,0,0,1,719.55,445.19Z"/><path class="cls-78" d="M593,413.73a1.16,1.16,0,1,1-1.37-.9A1.17,1.17,0,0,1,593,413.73Z"/><path class="cls-78" d="M615.55,321.68a1.16,1.16,0,1,1-1.37-.9A1.15,1.15,0,0,1,615.55,321.68Z"/><path class="cls-78" d="M922.13.93A1.16,1.16,0,1,1,920.76,0,1.16,1.16,0,0,1,922.13.93Z"/><path class="cls-78" d="M766.3,144.42a1.16,1.16,0,1,1-1.37-.9A1.16,1.16,0,0,1,766.3,144.42Z"/><path class="cls-78" d="M715.91,427.54a1.16,1.16,0,1,1-1.37-.9A1.17,1.17,0,0,1,715.91,427.54Z"/><path class="cls-78" d="M778.45,86a1.16,1.16,0,1,1-1.37-.9A1.16,1.16,0,0,1,778.45,86Z"/><path class="cls-79" d="M717.62,415.13a2.15,2.15,0,1,1-2.54-1.68A2.15,2.15,0,0,1,717.62,415.13Z"/><path class="cls-79" d="M490.43,359.31a2.15,2.15,0,1,1-2.54-1.68A2.15,2.15,0,0,1,490.43,359.31Z"/><circle class="cls-80" cx="248.97" cy="437.69" r="2.15" transform="translate(-253.48 404.46) rotate(-56.58)"/><path class="cls-79" d="M4.27,551.87a2.16,2.16,0,1,1-2.55-1.68A2.15,2.15,0,0,1,4.27,551.87Z"/><path class="cls-79" d="M686.72,346.32a2.15,2.15,0,1,1-2.55-1.67A2.16,2.16,0,0,1,686.72,346.32Z"/><path class="cls-79" d="M319.87,87a2.15,2.15,0,1,1-2.54-1.67A2.16,2.16,0,0,1,319.87,87Z"/><path class="cls-79" d="M964.68,294.12a2.15,2.15,0,1,1-2.54-1.67A2.16,2.16,0,0,1,964.68,294.12Z"/><path class="cls-79" d="M241.53,439.41a2.16,2.16,0,1,1-2.54-1.67A2.16,2.16,0,0,1,241.53,439.41Z"/><path class="cls-79" d="M626.71,215.43a2.15,2.15,0,1,1-2.54-1.68A2.15,2.15,0,0,1,626.71,215.43Z"/><circle class="cls-80" cx="597.47" cy="497.23" r="2.15" transform="matrix(0.55, -0.84, 0.84, 0.55, -145.79, 724.74)"/><path class="cls-79" d="M632.85,379.64a2.16,2.16,0,1,1-2.54-1.67A2.16,2.16,0,0,1,632.85,379.64Z"/><path class="cls-79" d="M583.09,414.6a2.15,2.15,0,1,1-2.55-1.68A2.15,2.15,0,0,1,583.09,414.6Z"/><path class="cls-79" d="M616.53,396.54a2.15,2.15,0,1,1-2.55-1.67A2.16,2.16,0,0,1,616.53,396.54Z"/><path class="cls-79" d="M545.74,182.6a2.15,2.15,0,1,1-2.54-1.67A2.16,2.16,0,0,1,545.74,182.6Z"/><path class="cls-79" d="M463.75,95.8a2.15,2.15,0,1,1-2.55-1.67A2.16,2.16,0,0,1,463.75,95.8Z"/><path class="cls-78" d="M512.88,430a1.16,1.16,0,1,1-1.37-.9A1.17,1.17,0,0,1,512.88,430Z"/><path class="cls-78" d="M718.41,469.84a1.16,1.16,0,1,1-1.37-.9A1.17,1.17,0,0,1,718.41,469.84Z"/><path class="cls-78" d="M756.07,368.93a1.16,1.16,0,1,1-1.38-.9A1.17,1.17,0,0,1,756.07,368.93Z"/><path class="cls-78" d="M615.55,274.85a1.16,1.16,0,1,1-1.37-.9A1.16,1.16,0,0,1,615.55,274.85Z"/><path class="cls-78" d="M619.92,387.2a1.16,1.16,0,1,1-1.37-.9A1.16,1.16,0,0,1,619.92,387.2Z"/><path class="cls-78" d="M579,504.32a1.16,1.16,0,1,1-1.37-.9A1.16,1.16,0,0,1,579,504.32Z"/><path class="cls-78" d="M594.39,426.09a1.16,1.16,0,1,1-1.38-.9A1.16,1.16,0,0,1,594.39,426.09Z"/><path class="cls-78" d="M554,187.83a1.16,1.16,0,1,1-1.38-.9A1.16,1.16,0,0,1,554,187.83Z"/><path class="cls-78" d="M562.06,130.26a1.16,1.16,0,1,1-1.38-.9A1.16,1.16,0,0,1,562.06,130.26Z"/><path class="cls-78" d="M624,387.55a1.16,1.16,0,1,1-1.37-.9A1.16,1.16,0,0,1,624,387.55Z"/><path class="cls-78" d="M582.59,417.08a1.17,1.17,0,0,1-.91,1.37,1.16,1.16,0,1,1,.91-1.37Z"/><path class="cls-78" d="M587.85,416a1.16,1.16,0,1,1-1.37-.9A1.16,1.16,0,0,1,587.85,416Z"/><path class="cls-78" d="M754.74,406a1.16,1.16,0,1,1-1.37-.91A1.16,1.16,0,0,1,754.74,406Z"/><path class="cls-78" d="M637,404.64a1.16,1.16,0,1,1-1.37-.9A1.17,1.17,0,0,1,637,404.64Z"/><path class="cls-78" d="M621.38,290.76a1.16,1.16,0,1,1-1.38-.9A1.16,1.16,0,0,1,621.38,290.76Z"/><path class="cls-78" d="M650.26,382.75a1.16,1.16,0,1,1-1.37-.9A1.17,1.17,0,0,1,650.26,382.75Z"/><path class="cls-81" d="M671,169.9v0l-.27-.12Z"/><path class="cls-82" d="M744.66,238.71l0,.11a118.81,118.81,0,0,1-12.15,22.86l-.16.21A113.06,113.06,0,0,1,703.88,291h0v0l-.05,0a.32.32,0,0,1-.08.06,93,93,0,0,1-13.36,7.74.1.1,0,0,0-.09.05c-13.48,6.3-28.17,8.89-43,6.15.38-.31.75-.64,1.15-1l.51-.48a47.47,47.47,0,0,0,5.43-6.68,2.79,2.79,0,0,0,.2-.31c.17-.25.34-.48.52-.75.82-1.23,1.66-2.55,2.49-3.94A172.77,172.77,0,0,0,670,265.52a224,224,0,0,0,9.09-30.22c.46-2,.86-4,1.24-6a142.85,142.85,0,0,0,2.43-19.81c.11-1.93.15-3.83.14-5.7,0-.73,0-1.46,0-2.18l0-.71c-.41-10.33-2.63-19.33-7.33-25.67-.88-1.19-1.8-2.35-2.76-3.43h0c-.54-.63-1.09-1.25-1.65-1.84h0c-.93-1-1.91-2-2.91-2.9-.3-.31-.62-.58-.94-.88a48.45,48.45,0,0,0,5.12,1.55h0s0,0,0,0,0,0,0,0,0,0,0,0c.9.23,1.8.41,2.68.56.24,0,.49.08.76.12l.42.07c1.2.16,2.69.35,4.36.54l.39,0c.38.05.76.08,1.15.14,4.38.49,9.94,1.11,16,2a172,172,0,0,1,22.4,4.67c2.36.68,4.69,1.41,6.94,2.26l.15,0c13.72,5.08,24.52,13.07,24.22,26A100,100,0,0,1,744.66,238.71Z"/><path class="cls-83" d="M742.18,219.13c-6.88,12.87-24,24.38-61.82,10.18a142.85,142.85,0,0,0,2.43-19.81,3.53,3.53,0,0,0,1.56.9c7.77,1.6,11.12-2.23,18.72-15s26.75-16.35,41.64-2.47C744.71,192.92,751,202.57,742.18,219.13Z"/><path class="cls-84" d="M719.25,211.82c-9.06-1.78-13.86,7.45-13.14,13.93s12.13,4.58,18.24-2.49S722.63,212.49,719.25,211.82Z"/><path class="cls-85" d="M670.74,169.8l.28.1v0Z"/><path class="cls-85" d="M691.7,180.91a1,1,0,0,0-.13.58,4.29,4.29,0,0,0,.53,1.44c.77,1.46,1,3.82.87,6.52A53.62,53.62,0,0,1,689,206.22c-1.1,2.43-2.15,3.58-2.78,2.35a44,44,0,0,0-3.33-4.77c0-.73,0-1.46,0-2.18l0-.71c-.41-10.33-2.63-19.33-7.33-25.67-.88-1.19-1.8-2.35-2.76-3.43h0c-.54-.63-1.09-1.25-1.65-1.84h0c-.93-1-1.91-2-2.91-2.9,1.37.36,2.78.69,4.25,1l.55.11h0c.67.12,1.33.24,2,.33.16,0,.32,0,.49.08l.47.07.54.06c1.35.17,2.73.3,4.16.39l.4,0c.37,0,.75.06,1.12.07,5.32.42,10.8,1.18,16,2.09,8.68,1.52,16.67,3.46,22.12,4.91,3.92,1,6.55,1.81,7.22,2l.15,0s-3.86,1.29-14.51,4.36C704.29,185.17,693,179.12,691.7,180.91Z"/><path class="cls-20" d="M720.65,175.92a1.55,1.55,0,0,0-.28.24,28.61,28.61,0,0,1-9.66,5.22c-8.92,2.8-20.28-2.91-26.48-6.75h0c-.81-.5-1.52-1-2.13-1.37,1.17.85,2.69,2,4.32,3.25a.22.22,0,0,0,.07.06c1.68,1.3,3.53,2.8,5.24,4.35,2.87,2.58,5.47,5.29,6.74,7.61,3.26,5.94-6.27,15.15-9.4,17.7a5.19,5.19,0,0,1-.86.66s0,0,0,0v0c-.36-.33-2.49-2.36-5.24-5.21l0-.71c-.41-10.33-2.63-19.33-7.33-25.67-.88-1.19-1.8-2.35-2.76-3.43h0c-.54-.63-1.09-1.25-1.65-1.84h0c-.93-1-1.91-2-2.91-2.9-.3-.31-.62-.58-.94-.88-8.71-7.78-19-12.78-28.54-16-.56-.2-1.11-.38-1.67-.55a30.35,30.35,0,0,1-5.4-14.52s16.91,13.24,26.78,19.3a75.83,75.83,0,0,1,10.88,7.81c-.69-.7-1.55-1.6-2.51-2.62l0,0s0,0,0,0a.15.15,0,0,1-.08-.08s0,0,0,0,0-.07-.08-.11l-.11-.09c-.26-.31-.72-.8-1.28-1.47-4-4.5-8.83-10.71-10.52-16a8.43,8.43,0,0,1-.41-2.68,4.8,4.8,0,0,1,0-.66c.33-5.34,4.85-10.87,8.38-14.4l.49-.49,0,0a45.94,45.94,0,0,1,3.57-3.21s3,27.06,8.21,39a0,0,0,0,0,0,0,16.72,16.72,0,0,0,2.27,4s1.72,0,4.54-.33a.82.82,0,0,0,.22,0c8.41-.92,26.08-4.34,37.64-16.94a32.58,32.58,0,0,1-.75,9.94l0,0a.38.38,0,0,1,0,.15.25.25,0,0,1,0,.1,26.76,26.76,0,0,1-2.34,6.36l0,0a21.83,21.83,0,0,1-2.14,3.33c-6.58,8.51-30.59,1.34-30.59,1.34l-1.82.33-.43.09-.27.05.25,0,.49.1c3.13.66,15.58,3.15,24.94,3.36,10.78.25,20.77-4.8,20.77-4.8A25.58,25.58,0,0,1,720.65,175.92Z"/><path class="cls-86" d="M682.61,166.9s22.43-8,30.31-13.17,5.93,2.47,5.93,2.47-1.55,11.7-12.27,13.15S682.61,166.9,682.61,166.9Z"/><path class="cls-86" d="M663.18,123.52c.79-.76-4.84,19.46-3.25,24.69s6.87,11.41,6.87,11.41-13.22-14.37-12.53-21.16S663.18,123.52,663.18,123.52Z"/><path class="cls-87" d="M688.18,206.88s0,0,0,0v0c-.37-.37-2.55-2.69-5.27-5.92-.41-10.33-2.63-19.33-7.33-25.67-.88-1.19-1.8-2.35-2.76-3.43h0a14.91,14.91,0,0,1,1.75-2.75l0-.05q.33-.39.48-.54a.84.84,0,0,1,.12-.13,1.2,1.2,0,0,1,.37.21,6.5,6.5,0,0,1,.87.74v0c.27.25.55.57.86.91.13.15.28.3.42.48h0a111.34,111.34,0,0,1,10.68,15.21s0,0,0,.05a28.88,28.88,0,0,1,1.93,3.92C692.6,195.88,688.18,206.88,688.18,206.88Z"/><path class="cls-87" d="M670.74,169.8l.28.1v0Z"/><path class="cls-87" d="M671.61,170.15l-.49-.19h0c-.93-1-1.91-2-2.91-2.9-.3-.31-.62-.58-.94-.88-8.71-7.78-19-12.78-28.54-16a48.44,48.44,0,0,1-5.45-11.39s33,21,37.56,24.95l.13.11a1.58,1.58,0,0,0,.13.13s0,0,0,.05l0,0v0l.15.17a4.4,4.4,0,0,1,1.17,3.51v0l0,.21A5,5,0,0,1,671.61,170.15Z"/><path class="cls-88" d="M675.89,168.18c-.73.16,12.11,17.29,14.09,19.83s7.32,1.09,7.32,1.09S694.23,181.37,675.89,168.18Z"/><path class="cls-20" d="M666.86,162.91c11.53,8.41,9.46-22.27,9.46-22.27s5.06-1.74,12.89,1.76c0,0-12.77,21.18-5,30.7C684.2,173.1,673.27,170.4,666.86,162.91Z"/><path class="cls-89" d="M676.32,140.64s9.8,5.09,12.89,1.76C689.21,142.4,680,137,676.32,140.64Z"/><path class="cls-90" d="M712.94,282.22a32.61,32.61,0,0,1-6.25,4.58,0,0,0,0,0,0,0,70.49,70.49,0,0,1-19.2,7.12c-1.66.38-3.35.74-5.06,1h0a97.78,97.78,0,0,1-19.62,1.38c-2.56-.07-5.12-.26-7.65-.56.82-1.23,1.66-2.55,2.49-3.94A172.77,172.77,0,0,0,670,265.52a224,224,0,0,0,9.09-30.22c9.53,7.87,18,15.37,24.56,21.36,4.32,4,7.77,7.28,10.06,9.62C719.07,271.7,718,277.32,712.94,282.22Z"/><path class="cls-91" d="M703.86,291a61.24,61.24,0,0,1-13.49,7.83.1.1,0,0,0-.09.05,72.79,72.79,0,0,1-15.93,4.78,70.46,70.46,0,0,1-25.38-.11,47.47,47.47,0,0,0,5.43-6.68,2.79,2.79,0,0,0,.2-.31c1,.2,2,.38,3,.55h.09a79.69,79.69,0,0,0,8.55.87l0,0a82.6,82.6,0,0,0,21.81-1.78l.52-.1A68.19,68.19,0,0,0,703.86,291Z"/><path class="cls-92" d="M732.47,261.68l-.16.21a102,102,0,0,1-19.37,20.33c-2.07,1.65-4.16,3.18-6.25,4.58a0,0,0,0,0,0,0,83.14,83.14,0,0,1-18,9.29c-.21.07-.4.15-.61.21-8.56,3-16.25,3.6-21.72,1.67l0,0c-.56-.19-1.09-.42-1.59-.64a17.93,17.93,0,0,1-1.91-1,16.35,16.35,0,0,1-5.16-4.5A172.77,172.77,0,0,0,670,265.52c5.65-2.86,13-5.22,22.33-6.73,4.07-.67,7.84-1.37,11.32-2.13a141.08,141.08,0,0,0,23.06-6.82c1.2-.47,2.39-1,3.52-1.49a4.49,4.49,0,0,0,.54-.26c10.89-5,13.86-9.38,13.86-9.38l0,.11A96.2,96.2,0,0,1,732.47,261.68Z"/><path class="cls-8" d="M710.31,215.56c-5.73,6.77-.8,14.85,6.68,7.87S714.06,211.13,710.31,215.56Z"/><path class="cls-93" d="M688.11,296.22a.31.31,0,0,1-.09.11c-1.81,2.16-6.8,5.32-13.67,7.33a47.35,47.35,0,0,1-25.89.37l.51-.48a47.47,47.47,0,0,0,5.43-6.68c1.06.08,2.14.18,3.23.24h.09c2.3.15,4.63.24,7,.23A57.72,57.72,0,0,0,682.39,295h0a15.37,15.37,0,0,1,5.06-1C689,294.05,689.15,295,688.11,296.22Z"/><path class="cls-94" d="M743.67,229.4c-2-4.6-26,13.24-39.38,20s9.93,6.43,26-1S743.67,229.4,743.67,229.4Z"/><path class="cls-95" d="M675,159.39s-1.17,4.63-5.73,4.78c0,0,.25,2.79,7.47,5.82s3.65-6.15,7-17.4-4.07-11-5.47-5S675,159.39,675,159.39Z"/><path class="cls-96" d="M671,169.92l-.27-.12.28.1Z"/><path class="cls-97" d="M637,149.65c-17.64.76-89.69,66.85,10.27,155.38,0,0,29.34-19.89,38.74-81.45S646.19,149.25,637,149.65Z"/><path class="cls-10" d="M663.41,175.39c-4.86-4.44-17.2,20.85-18.52,27.26s14.26-1.33,20.37,4.48-8,39.74-20.42,41.82-13.54-.42-19.19,9.48,12.92,38.08,20.84,38.26S715.42,198.1,663.41,175.39Z"/><path class="cls-10" d="M648.53,164c-1.48-12.57-29.31-13.16-40,12.49-15.29,36.6.39,68.52,3.13,76.11s13.73-5.76,14.23-8.61-12.66-22.56-7.41-44.14,14,1.44,20.53-3.66S648.53,164,648.53,164Z"/><path class="cls-10" d="M645.41,200.41c-1.06,4.63,9.94.24,19.85,6.72s-14.34,45.71-12.52,57.1S683,234.42,682,207.1s-19.91-31.63-22.56-29.88S645.92,198.17,645.41,200.41Z"/><path class="cls-83" d="M657.46,155.76c6,2.73-11.38,28.55-15.67,37.63s-7.27,3.75-11.37,5.44-6.56,29.62-2.09,39.4,27-13.92,30.67-23.29-13.84-6.13-16.62-10.45,14.8-32,17.81-35.64,9,2.13,13.65,4.22S669.84,160.66,657.46,155.76Z"/><path class="cls-98" d="M653.91,198.21s2.67-7,8.72-6.21S653.91,198.21,653.91,198.21Z"/><path class="cls-98" d="M662,201.56s12.85-6.57,15.16-.21S662,201.56,662,201.56Z"/><path class="cls-10" d="M639,196.19c-4.46,6-13.13-9.8-16.19-5.19s-3.83,27-14,22.81-7.8-42.56,16.44-55.74S653.51,176.81,639,196.19Z"/><path class="cls-98" d="M632.79,188.73s1.37-13.55-3.41-13.46S632.79,188.73,632.79,188.73Z"/><path class="cls-98" d="M626.73,188.05s-4.43-12.48-8.17-9.6S626.73,188.05,626.73,188.05Z"/><path class="cls-98" d="M618.76,193.1s-9-5.66-11-3.12S618.76,193.1,618.76,193.1Z"/><path class="cls-98" d="M616.78,219s-10.94,2.91-10.07,7.35S616.78,219,616.78,219Z"/><path class="cls-98" d="M667.07,209.7s8.71-5.48,11.68.1S667.07,209.7,667.07,209.7Z"/><path class="cls-98" d="M667.14,216s10.21-1.26,10.53,5.05S667.14,216,667.14,216Z"/><path class="cls-98" d="M655.79,239.47s10.12,4.24,9.12,6.71C662.55,252,655.79,239.47,655.79,239.47Z"/><path class="cls-99" d="M596.56,355.64c11.67-2-22.37-135-48.39-143.91-31.78-10.9-65,1.69-64.9,51.71S567.26,360.71,596.56,355.64Z"/><path class="cls-90" d="M488.32,279.19c4.39,6.71,56.54,22.62,80.94,11.58s32.24,51.63,22.34,59.66S497.81,319.29,488.32,279.19Z"/><path class="cls-83" d="M490.09,236.7c-10.17,26.94,23.82,57.5,61,56.47s16.16-64.76-3.71-76.67A39.37,39.37,0,0,0,490.09,236.7Z"/><path class="cls-8" d="M496.22,247.47c-3.84,14.74,5.45,11.82,5.06,1.74S496.22,247.47,496.22,247.47Z"/><path class="cls-100" d="M494.11,292.88s28.95,15.53,47.83,18.45,25,27.32,17.67,31.82S509.77,315.17,494.11,292.88Z"/><path class="cls-90" d="M571.51,290.48c-17.83-3.05-12,29.24,8.73,41.21S592.9,294.13,571.51,290.48Z"/><path class="cls-101" d="M759.7,302c-12.79-11.18,2.88-51.62,41.57-104s59.56-39.41,59.56-39.41l-13.23-9.61s-30.77,12.87-67.83,66S743.06,294.92,759.7,302Z"/><path class="cls-102" d="M744.1,298.23c13.77,17.83,122.47-110.8,115.19-149.75S720.62,267.84,744.1,298.23ZM850.81,158.45C856,191.19,763,302.15,751.92,287.39,733.07,262.22,845.59,125.72,850.81,158.45Z"/><path class="cls-103" d="M746.16,300l10.6,5.22s37.89-27.9,75.34-79.47S866.62,154,866.62,154l-9.25-10s6.89,23.38-33.48,79S746.16,300,746.16,300Z"/><path class="cls-104" d="M750.88,299.43c-13.51-10.29-12.32-35.46,23.72-89.74,45.22-68.12,70.85-57,70.85-57l-9.82-12.6s-30.74,11.7-67.26,74.33C735.75,270.4,724.24,293.78,750.88,299.43Z"/><path class="cls-105" d="M738.39,300c14.94,16.86,114.73-118.8,104.84-157.17S712.92,271.24,738.39,300Zm99.48-152.15c6.86,34-84.35,160-96.45,145.46C720.81,268.57,831,113.82,837.87,147.84Z"/><path class="cls-106" d="M740.57,301.56l7.61,2.41s35.63-27.84,69.52-81.82,29.91-76.37,29.91-76.37L841,138.5s8.46,22.86-28.09,81.05S740.57,301.56,740.57,301.56Z"/><path class="cls-107" d="M639.14,377.92s10.16-3,51.85,1.63c0,0,47.69-17,61-28.07s30.45-32.61,47.55-47.51,58.73-16.91,74.33-38.51S901.94,215,918,182,991.13,71.27,991.13,71.27,936.22,155.1,920,183.3s-34.51,72.27-49.49,86.93S810.93,296,800,306s-48,53.75-48,53.75,11.81,3.82,16.39,5.28c0,0-27.05-3.09-46.85,5s-24.76,13-32.29,14.17S663.93,377.09,639.14,377.92Z"/><path class="cls-107" d="M735.05,504s37.85,2.82,60.86,13.83l17.37-6.92s1.4-8.16,3.1-11.51,42.81-54.65,102.31-59,98.82,22.13,98.82,22.13-50.11-28-101.48-20.74-95.85,56.82-96.45,59.64,0,10.62,0,10.62l-20.89,8.37A412.92,412.92,0,0,0,735.05,504Z"/><path class="cls-107" d="M490.05,288.73s8.23,24.87,45.44,49.93,63.17,19.68,64.6,18.93-.67-24.71-5.36-39.36c0,0,5.65,32.45,1.83,37.41S518.93,341.73,490.05,288.73Z"/><path class="cls-107" d="M607.61,257.65s32.24,42,42.68,47.1,59.86-8.78,80.41-40.69c-19.23,32.94-66.89,51-82.17,45.05S607.61,257.65,607.61,257.65Z"/><path class="cls-107" d="M417.05,412.45s11.28,5.73,17.52,23.39,33.35,83.11,35.77,85.85,23.47-1.48,23.47-1.48l-23.47,9.61S433.71,427.67,417.05,412.45Z"/><path class="cls-107" d="M388.6,358.59s10.28,4.66,13.94,9.52.25,10.34.25,10.34,5.92,5.25,6.85,10.53-12.38,10.46-12.38,10.46,8.25-4.79,9.14-8.11-3.43-9-6.72-11.84c0,0,3.69-5.71,1.66-10.13S388.6,358.59,388.6,358.59Z"/><path class="cls-107" d="M401.92,255.42s23.42,20.12,33.82,32.49,12.74,9.37,16,6.65-12.85-13.81-18.52-24.19-10.41-27.43-10.41-27.43,6,24.6,8.36,29c4.78,8.8,15.35,18.37,16.08,20.72s-.79,3.4-6.16-.67S416.45,263.49,401.92,255.42Z"/><circle class="cls-108" cx="515.87" cy="400.09" r="10.58"/><g class="cls-109"><path class="cls-110" d="M508.74,394.63a6.94,6.94,0,0,0-.78,2c-.08.44-.17,1.16.17,1.51s.77,0,1.06-.25a8.68,8.68,0,0,0,1.62-1.75,6.54,6.54,0,0,0,.88-1.27c.08-.19.22-.49.13-.69s-.86-.6-1.15-.63A1.9,1.9,0,0,0,508.74,394.63Z"/><path class="cls-111" d="M511.19,392.33c.17-.52.17-.69.7-.69.24,0,.63,0,.78.2s-1,.67-1.25.42Z"/><path class="cls-112" d="M519.06,399.45a11.4,11.4,0,0,0-.83,1.68,9.89,9.89,0,0,0-.79,3,2.47,2.47,0,0,0,.26,1.69,3.3,3.3,0,0,0,1.42.78,2.31,2.31,0,0,0,2.14-.1,7.18,7.18,0,0,0,1.63-1.53c.29-.34.54-.71.82-1.06a5.69,5.69,0,0,0,.64-1,4.61,4.61,0,0,0,.37-1.68,2.51,2.51,0,0,0-.64-1.73,3.52,3.52,0,0,0-2.59-1.18,3,3,0,0,0-1.11.09C519.91,398.55,519.59,399,519.06,399.45Z"/><path class="cls-113" d="M523.73,398.07a2.24,2.24,0,0,1-.55-.51,4.11,4.11,0,0,1-.28-.6,2.42,2.42,0,0,1-.25-1.12.61.61,0,0,1,.37-.59c.31-.11.69.18.89.39a2.89,2.89,0,0,1,.88,1.44c.13.77-.73.78-1.14,1.22Z"/><path class="cls-114" d="M516.85,408.93a2.84,2.84,0,0,1,.28-.65,2.32,2.32,0,0,1,.47-.33,3,3,0,0,1,1.38-.41c.43,0,.88.22.93.68a1.36,1.36,0,0,1-1,1.35,2.82,2.82,0,0,1-1.14.28A.92.92,0,0,1,516.85,408.93Z"/><path class="cls-115" d="M509.58,401.66a2.69,2.69,0,0,0-.39.62,6.49,6.49,0,0,1-.05.77l0,.55a3.38,3.38,0,0,0,.76,2.65,4.52,4.52,0,0,0,2.31.68,2.53,2.53,0,0,0,1.92-.38,2.79,2.79,0,0,0,.26-1.95,3.4,3.4,0,0,0-1-2.14,4.52,4.52,0,0,0-2-1A2.31,2.31,0,0,0,509.58,401.66Z"/><path class="cls-116" d="M510.34,399.75c-.15-.05-.48-.08-.58-.24a1.42,1.42,0,0,1-.1-.55,1.53,1.53,0,0,1,.19-.89,1,1,0,0,1,1.38-.21,1.12,1.12,0,0,1,.42,1.11c-.08.7-.94.75-1.46.93Z"/><path class="cls-117" d="M517.38,391.87a5.61,5.61,0,0,0,0,2.82,2.51,2.51,0,0,0,1.25,1.78,1.79,1.79,0,0,0,1.21.29c.41-.13.69-.69.89-1a4.93,4.93,0,0,0,.7-1.32,2.11,2.11,0,0,0-.44-1.56,3.63,3.63,0,0,0-1.44-1.22A2.74,2.74,0,0,0,517.38,391.87Z"/></g><circle class="cls-118" cx="572.99" cy="84.69" r="10.58"/><g class="cls-109"><path class="cls-119" d="M565.86,79.23a6.94,6.94,0,0,0-.78,2c-.08.44-.17,1.15.17,1.51s.77,0,1.06-.26a8.11,8.11,0,0,0,1.62-1.74,6.54,6.54,0,0,0,.88-1.27c.08-.19.22-.49.13-.69a1.81,1.81,0,0,0-1.15-.64A1.93,1.93,0,0,0,565.86,79.23Z"/><path class="cls-120" d="M568.31,76.93c.17-.52.17-.69.7-.69.24,0,.63,0,.79.2s-1,.67-1.26.41Z"/><path class="cls-121" d="M576.18,84a12,12,0,0,0-.83,1.69,9.82,9.82,0,0,0-.79,3,2.47,2.47,0,0,0,.26,1.69,3.18,3.18,0,0,0,1.42.77,2.28,2.28,0,0,0,2.14-.09A7.18,7.18,0,0,0,580,89.54c.29-.34.54-.72.82-1.06a5.69,5.69,0,0,0,.64-1,4.61,4.61,0,0,0,.37-1.68,2.51,2.51,0,0,0-.64-1.74,3.55,3.55,0,0,0-2.59-1.17,2.9,2.9,0,0,0-1.1.08C577,83.15,576.71,83.6,576.18,84Z"/><path class="cls-122" d="M580.85,82.67a2.28,2.28,0,0,1-.55-.52,5.34,5.34,0,0,1-.28-.59,2.42,2.42,0,0,1-.25-1.12.64.64,0,0,1,.37-.6c.31-.11.69.19.89.4a2.86,2.86,0,0,1,.88,1.43c.13.78-.73.78-1.14,1.23Z"/><path class="cls-123" d="M574,93.53a2.66,2.66,0,0,1,.28-.65,2,2,0,0,1,.47-.33,3,3,0,0,1,1.38-.41c.43,0,.88.22.93.68a1.36,1.36,0,0,1-1,1.35,2.73,2.73,0,0,1-1.15.27A.91.91,0,0,1,574,93.53Z"/><path class="cls-124" d="M566.7,86.26a2.49,2.49,0,0,0-.39.62,6.64,6.64,0,0,1,0,.77l0,.55a3.39,3.39,0,0,0,.76,2.64,4.43,4.43,0,0,0,2.31.69c.53.06,1.53.06,1.92-.38a2.8,2.8,0,0,0,.26-2,3.38,3.38,0,0,0-1-2.14,4.42,4.42,0,0,0-2-1A2.31,2.31,0,0,0,566.7,86.26Z"/><path class="cls-125" d="M567.47,84.35c-.16,0-.49-.08-.59-.24a1.42,1.42,0,0,1-.1-.55,1.6,1.6,0,0,1,.19-.89,1,1,0,0,1,1.38-.21,1.12,1.12,0,0,1,.42,1.11c-.07.7-.94.75-1.46.93Z"/><path class="cls-126" d="M574.5,76.47a5.5,5.5,0,0,0,0,2.82,2.5,2.5,0,0,0,1.24,1.78,1.74,1.74,0,0,0,1.21.28c.41-.12.69-.68.89-1a4.66,4.66,0,0,0,.7-1.32,2.1,2.1,0,0,0-.44-1.56,3.55,3.55,0,0,0-1.44-1.22A2.7,2.7,0,0,0,574.5,76.47Z"/></g><circle class="cls-127" cx="772.83" cy="293.4" r="8.07"/><g class="cls-109"><path class="cls-128" d="M767.39,289.23a5.64,5.64,0,0,0-.59,1.54c-.06.33-.13.88.13,1.15s.58,0,.81-.19a6.51,6.51,0,0,0,1.23-1.34,4.24,4.24,0,0,0,.67-1c.06-.15.17-.38.1-.53s-.65-.46-.88-.49A1.47,1.47,0,0,0,767.39,289.23Z"/><path class="cls-129" d="M769.26,287.48c.13-.4.13-.53.54-.52.18,0,.48,0,.6.15s-.78.51-1,.31Z"/><path class="cls-130" d="M775.27,292.91a9.55,9.55,0,0,0-.64,1.28,7.48,7.48,0,0,0-.6,2.27,1.86,1.86,0,0,0,.2,1.29,2.44,2.44,0,0,0,1.08.59,1.74,1.74,0,0,0,1.63-.08,5.3,5.3,0,0,0,1.25-1.16c.22-.26.41-.55.62-.81a4,4,0,0,0,.49-.75,3.5,3.5,0,0,0,.28-1.28,1.9,1.9,0,0,0-.49-1.32,2.67,2.67,0,0,0-2-.9,2.16,2.16,0,0,0-.84.07C775.92,292.22,775.67,292.57,775.27,292.91Z"/><path class="cls-131" d="M778.83,291.86a1.75,1.75,0,0,1-.42-.39,2.72,2.72,0,0,1-.21-.46,1.68,1.68,0,0,1-.19-.85.48.48,0,0,1,.27-.46c.24-.08.53.15.68.3a2.27,2.27,0,0,1,.68,1.1c.1.59-.56.59-.87.93Z"/><path class="cls-132" d="M773.58,300.14a1.54,1.54,0,0,1,.22-.49,1.52,1.52,0,0,1,.35-.26,2.32,2.32,0,0,1,1.05-.31.66.66,0,0,1,.71.52,1,1,0,0,1-.73,1,2.11,2.11,0,0,1-.88.21A.7.7,0,0,1,773.58,300.14Z"/><path class="cls-133" d="M768,294.6a1.45,1.45,0,0,0-.3.47c0,.2,0,.39,0,.59s0,.28,0,.42a2.56,2.56,0,0,0,.58,2,3.27,3.27,0,0,0,1.76.52,2,2,0,0,0,1.46-.28,2.13,2.13,0,0,0,.2-1.49,2.6,2.6,0,0,0-.79-1.64,3.35,3.35,0,0,0-1.52-.75A1.73,1.73,0,0,0,768,294.6Z"/><path class="cls-134" d="M768.62,293.14c-.12,0-.37-.06-.45-.18a1,1,0,0,1-.07-.42,1.21,1.21,0,0,1,.14-.68.72.72,0,0,1,1-.16.83.83,0,0,1,.32.84c-.05.54-.71.58-1.11.72Z"/><path class="cls-135" d="M774,287.13a4.13,4.13,0,0,0,0,2.15,1.92,1.92,0,0,0,.95,1.36,1.36,1.36,0,0,0,.92.22c.31-.1.53-.52.68-.78a3.65,3.65,0,0,0,.54-1,1.63,1.63,0,0,0-.34-1.18,2.71,2.71,0,0,0-1.1-.94A2.09,2.09,0,0,0,774,287.13Z"/></g><circle class="cls-136" cx="1083.55" cy="191.54" r="8.07"/><g class="cls-109"><path class="cls-137" d="M1078.12,187.37a5.36,5.36,0,0,0-.6,1.54c-.06.33-.13.88.13,1.15s.59,0,.81-.19a7.1,7.1,0,0,0,1.24-1.33,4.49,4.49,0,0,0,.66-1c.06-.15.17-.38.1-.53s-.65-.46-.87-.48A1.44,1.44,0,0,0,1078.12,187.37Z"/><path class="cls-138" d="M1080,185.62c.13-.4.13-.53.54-.52.18,0,.48,0,.6.15s-.78.51-1,.31Z"/><path class="cls-139" d="M1086,191.05a9.55,9.55,0,0,0-.64,1.28,7.78,7.78,0,0,0-.6,2.27,1.86,1.86,0,0,0,.2,1.29,2.42,2.42,0,0,0,1.09.59,1.72,1.72,0,0,0,1.62-.08,5.3,5.3,0,0,0,1.25-1.16c.22-.26.41-.55.63-.81a4.55,4.55,0,0,0,.48-.75,3.51,3.51,0,0,0,.29-1.28,2,2,0,0,0-.49-1.32,2.69,2.69,0,0,0-2-.9,2.16,2.16,0,0,0-.84.07C1086.64,190.36,1086.39,190.71,1086,191.05Z"/><path class="cls-140" d="M1089.55,190a1.57,1.57,0,0,1-.42-.39,3.82,3.82,0,0,1-.21-.46,1.68,1.68,0,0,1-.19-.85.47.47,0,0,1,.28-.46c.24-.08.52.15.68.3a2.33,2.33,0,0,1,.67,1.1c.1.59-.56.6-.87.93Z"/><path class="cls-141" d="M1084.3,198.28a1.8,1.8,0,0,1,.22-.49,1.52,1.52,0,0,1,.35-.26,2.46,2.46,0,0,1,1.06-.31c.32,0,.67.17.7.52a1,1,0,0,1-.73,1,2.1,2.1,0,0,1-.87.21A.71.71,0,0,1,1084.3,198.28Z"/><path class="cls-142" d="M1078.76,192.74a1.79,1.79,0,0,0-.3.47,5.85,5.85,0,0,1,0,.59c0,.14,0,.28,0,.42a2.56,2.56,0,0,0,.58,2,3.37,3.37,0,0,0,1.76.53c.4.05,1.17,0,1.46-.29a2.13,2.13,0,0,0,.2-1.49,2.6,2.6,0,0,0-.79-1.64,3.35,3.35,0,0,0-1.52-.75A1.73,1.73,0,0,0,1078.76,192.74Z"/><path class="cls-143" d="M1079.34,191.28c-.12,0-.37-.06-.45-.18a1.48,1.48,0,0,1-.07-.42,1.14,1.14,0,0,1,.15-.68.71.71,0,0,1,1-.16.85.85,0,0,1,.32.84c-.06.54-.72.58-1.12.72Z"/><path class="cls-144" d="M1084.71,185.27a4.13,4.13,0,0,0,0,2.15,1.92,1.92,0,0,0,1,1.36,1.31,1.31,0,0,0,.92.22c.32-.1.53-.52.68-.78a3.51,3.51,0,0,0,.54-1,1.59,1.59,0,0,0-.34-1.18,2.72,2.72,0,0,0-1.1-.94A2.09,2.09,0,0,0,1084.71,185.27Z"/></g><path class="cls-145" d="M820.38,260.52A10.37,10.37,0,1,1,810,250.15,10.37,10.37,0,0,1,820.38,260.52Z"/><g class="cls-109"><path class="cls-146" d="M803,255.16a7,7,0,0,0-.77,2c-.07.43-.16,1.13.17,1.48s.76,0,1-.25a8.59,8.59,0,0,0,1.59-1.71,6.18,6.18,0,0,0,.86-1.25c.08-.18.22-.48.13-.68a1.8,1.8,0,0,0-1.13-.62A1.9,1.9,0,0,0,803,255.16Z"/><path class="cls-147" d="M805.42,252.91c.17-.51.17-.68.69-.67.24,0,.62-.05.77.19s-1,.66-1.23.41Z"/><path class="cls-148" d="M813.15,259.89a11,11,0,0,0-.82,1.65,9.8,9.8,0,0,0-.78,2.91,2.39,2.39,0,0,0,.26,1.66,3.06,3.06,0,0,0,1.39.76,2.26,2.26,0,0,0,2.1-.09,6.94,6.94,0,0,0,1.6-1.51c.28-.33.53-.69.81-1a6.14,6.14,0,0,0,.62-1,4.21,4.21,0,0,0,.36-1.64,2.47,2.47,0,0,0-.62-1.7,3.41,3.41,0,0,0-2.55-1.15,2.64,2.64,0,0,0-1.08.08C814,259,813.66,259.45,813.15,259.89Z"/><path class="cls-149" d="M817.72,258.54a2.39,2.39,0,0,1-.54-.51,5.14,5.14,0,0,1-.27-.58,2.33,2.33,0,0,1-.24-1.1.61.61,0,0,1,.35-.58c.31-.11.68.18.88.38a2.9,2.9,0,0,1,.87,1.41c.12.76-.72.77-1.12,1.2Z"/><path class="cls-150" d="M811,269.19a2.38,2.38,0,0,1,.28-.63,1.68,1.68,0,0,1,.46-.33,2.86,2.86,0,0,1,1.35-.4.84.84,0,0,1,.91.66,1.33,1.33,0,0,1-.94,1.33,2.92,2.92,0,0,1-1.12.27A.92.92,0,0,1,811,269.19Z"/><path class="cls-151" d="M803.85,262.06a2.07,2.07,0,0,0-.38.61q0,.38-.06.75c0,.18,0,.37,0,.55a3.28,3.28,0,0,0,.74,2.59,4.46,4.46,0,0,0,2.27.67c.51.06,1.49.06,1.87-.37a2.72,2.72,0,0,0,.26-1.92,3.36,3.36,0,0,0-1-2.1,4.35,4.35,0,0,0-1.94-1A2.28,2.28,0,0,0,803.85,262.06Z"/><path class="cls-152" d="M804.6,260.19c-.16-.05-.48-.08-.58-.24a1.57,1.57,0,0,1-.1-.54,1.55,1.55,0,0,1,.19-.87.93.93,0,0,1,1.35-.2,1.07,1.07,0,0,1,.42,1.08c-.08.69-.92.74-1.43.92Z"/><path class="cls-153" d="M811.5,252.46a5.38,5.38,0,0,0,0,2.76,2.48,2.48,0,0,0,1.22,1.75,1.66,1.66,0,0,0,1.18.28c.41-.12.69-.67.88-1a4.73,4.73,0,0,0,.69-1.29,2.08,2.08,0,0,0-.43-1.53,3.59,3.59,0,0,0-1.42-1.2A2.62,2.62,0,0,0,811.5,252.46Z"/></g></g></g></g></svg>