<svg xmlns="http://www.w3.org/2000/svg" xmlns:xlink="http://www.w3.org/1999/xlink" viewBox="0 0 57.41 76.78"><defs><style>.cls-1{isolation:isolate;}.cls-2{fill:url(#Áåçûìÿííûé_ãðàäèåíò_309);}.cls-3{fill:url(#Áåçûìÿííûé_ãðàäèåíò_314);}.cls-4{fill:#ffd8ff;}.cls-14,.cls-4,.cls-5{opacity:0.5;}.cls-10,.cls-17,.cls-4,.cls-8{mix-blend-mode:soft-light;}.cls-5{fill:#e06e00;}.cls-14,.cls-22,.cls-23,.cls-5,.cls-9{mix-blend-mode:multiply;}.cls-6{fill:url(#Áåçûìÿííûé_ãðàäèåíò_302);}.cls-7{fill:#ffe250;}.cls-8{fill:#b3b35e;}.cls-9{fill:#c62792;}.cls-22,.cls-23,.cls-9{opacity:0.3;}.cls-10{fill:#b3ff5e;}.cls-11{fill:#fff;}.cls-12{fill:url(#Áåçûìÿííûé_ãðàäèåíò_304);}.cls-13{fill:url(#Áåçûìÿííûé_ãðàäèåíò_304-2);}.cls-14{fill:#ff5410;}.cls-15{fill:#ffe365;}.cls-16{fill:url(#Áåçûìÿííûé_ãðàäèåíò_21);}.cls-17{fill:#ffeca4;opacity:0.97;}.cls-18{fill:url(#Áåçûìÿííûé_ãðàäèåíò_458);}.cls-19{fill:url(#Áåçûìÿííûé_ãðàäèåíò_22);}.cls-20{fill:#ff8e09;}.cls-21{fill:url(#Áåçûìÿííûé_ãðàäèåíò_314-2);}.cls-22{fill:#e77592;}.cls-23{fill:#e75992;}.cls-24{fill:url(#Áåçûìÿííûé_ãðàäèåíò_314-3);}.cls-25{fill:url(#Áåçûìÿííûé_ãðàäèåíò_314-4);}</style><linearGradient id="Áåçûìÿííûé_ãðàäèåíò_309" x1="30.11" y1="76.78" x2="30.11" y2="9.36" gradientUnits="userSpaceOnUse"><stop offset="0" stop-color="#ff5900"/><stop offset="0.16" stop-color="#ff5e00"/><stop offset="0.34" stop-color="#ff6b00"/><stop offset="0.52" stop-color="#ff8100"/><stop offset="0.72" stop-color="#ffa000"/><stop offset="0.77" stop-color="#ffab00"/><stop offset="0.88" stop-color="#ffce00"/><stop offset="1" stop-color="#ff0"/></linearGradient><linearGradient id="Áåçûìÿííûé_ãðàäèåíò_314" x1="22.67" y1="76.29" x2="22.67" y2="9.08" gradientUnits="userSpaceOnUse"><stop offset="0" stop-color="#ff9500"/><stop offset="1" stop-color="#ffa200"/></linearGradient><linearGradient id="Áåçûìÿííûé_ãðàäèåíò_302" x1="27.03" y1="76.7" x2="27.03" y2="28.6" gradientUnits="userSpaceOnUse"><stop offset="0" stop-color="#ff5e00"/><stop offset="0.74" stop-color="#ffea00"/><stop offset="1" stop-color="#ffdc00"/></linearGradient><linearGradient id="Áåçûìÿííûé_ãðàäèåíò_304" x1="43.61" y1="29.63" x2="43.61" y2="26.86" gradientUnits="userSpaceOnUse"><stop offset="0" stop-color="#ffdc00"/><stop offset="1" stop-color="#ff5900"/></linearGradient><linearGradient id="Áåçûìÿííûé_ãðàäèåíò_304-2" x1="44.79" y1="172.24" x2="44.79" y2="168.66" gradientTransform="translate(41.67 -133.96) rotate(24.56)" xlink:href="#Áåçûìÿííûé_ãðàäèåíò_304"/><linearGradient id="Áåçûìÿííûé_ãðàäèåíò_21" x1="30.28" y1="39.6" x2="30.28" y2="13.09" gradientUnits="userSpaceOnUse"><stop offset="0" stop-color="#ffab00"/><stop offset="0.07" stop-color="#ffa000"/><stop offset="0.32" stop-color="#ff8100"/><stop offset="0.56" stop-color="#ff6b00"/><stop offset="0.79" stop-color="#ff5e00"/><stop offset="1" stop-color="#ff5900"/></linearGradient><linearGradient id="Áåçûìÿííûé_ãðàäèåíò_458" x1="23.51" y1="26.2" x2="23.51" y2="12.52" gradientUnits="userSpaceOnUse"><stop offset="0" stop-color="#d14d00"/><stop offset="1" stop-color="#c51a00"/></linearGradient><linearGradient id="Áåçûìÿííûé_ãðàäèåíò_22" x1="45.39" y1="64.33" x2="45.39" y2="37.77" gradientUnits="userSpaceOnUse"><stop offset="0" stop-color="#d13700"/><stop offset="1" stop-color="#c51a00"/></linearGradient><linearGradient id="Áåçûìÿííûé_ãðàäèåíò_314-2" x1="21.37" y1="23.92" x2="21.37" y2="0.28" xlink:href="#Áåçûìÿííûé_ãðàäèåíò_314"/><linearGradient id="Áåçûìÿííûé_ãðàäèåíò_314-3" x1="52.2" y1="22.87" x2="52.2" y2="10.64" xlink:href="#Áåçûìÿííûé_ãðàäèåíò_314"/><linearGradient id="Áåçûìÿííûé_ãðàäèåíò_314-4" x1="26.58" y1="-125.25" x2="26.58" y2="-134.95" gradientTransform="matrix(0.7, 0.72, -0.72, 0.7, -69.71, 80.63)" xlink:href="#Áåçûìÿííûé_ãðàäèåíò_314"/></defs><g class="cls-1"><g id="Layer_2" data-name="Layer 2"><g id="layer1"><path class="cls-2" d="M57.35,40.42c0,.51-.08,1-.13,1.49a32.89,32.89,0,0,1-1.16,5.83l0,.07a32.27,32.27,0,0,1-3.18,7.32l0,0c-.23.4-.48.79-.73,1.18s-.51.76-.77,1.13c-.52.73-1.06,1.44-1.61,2.12-.3.35-.59.7-.9,1-.59.66-1.19,1.29-1.81,1.9s-1.25,1.2-1.89,1.75-1.27,1.08-1.92,1.59l0,0c-.64.5-1.29,1-1.94,1.44-1.42,1-2.84,1.89-4.22,2.68l-1.64.9h0c-.61.33-1.22.64-1.82.93a68.81,68.81,0,0,1-7.74,3.21C17.57,78,5.7,76.3,5.7,76.3v-.11l-.07-1.5v-.3l-.26-6.26a0,0,0,0,1,0,0L4.75,53.87h0l-.3-7.29,0-.92v-.09l0-.93v-.14L4,35.05v0l0-.61-.06-1.63h0l-.25-6-.2-4.66L3.2,17l0-.5L3.1,14.68,2.88,9.36a.93.93,0,0,1,.42.24,3.81,3.81,0,0,0,.83.4l.39.15.89.33,1.19.43c4.45,1.59,12.24,4.22,15.88,6,.68.33,1.44.72,2.27,1.16l1.84,1c.1-.08-.1.06,0,0-.07.09.15-.05.07,0l.66.37.4.22.61.34,2.19,1.22h0c4.21,2.37,8.29,4.66,9.49,4.88a6.46,6.46,0,0,1,1.56.73l.15.08c0-.13.15,0,.36.21.57.34,1.22.75,1.93,1.22l.15.1.07,0,.13.09.4.27.51.36a.78.78,0,0,0,.23-.05l.06.24.06,0,0,0c.52.36,1.06.75,1.6,1.15l.07,0C51.7,33.89,56.51,38,57.35,40.42Z"/><path class="cls-3" d="M45.21,40c0,.18,0,.36,0,.53s0,.06,0,.1,0,.08,0,.12c0,.5-.09,1-.15,1.49a2.91,2.91,0,0,1,0,.31s0,.07,0,.1a.43.43,0,0,0,0,.11c0,.32-.08.63-.13.94s-.08.51-.13.76c0,0,0,.06,0,.09a2.33,2.33,0,0,1,0,.28c0,.25-.09.5-.15.74a.15.15,0,0,1,0,.09c-.23,1.08-.51,2.12-.83,3.13s-.73,2.16-1.17,3.19c-.14.34-.29.68-.45,1-.32.71-.67,1.39-1,2.06a36.84,36.84,0,0,1-3.76,5.61l-.12.13a40.79,40.79,0,0,1-8.23,7.59l-.17.11a46.18,46.18,0,0,1-12.4,6.22c-.52.16-1,.32-1.54.46s-.75.21-1.13.3h0a23.71,23.71,0,0,1-7.43.8h0l-.42,0C4,76,2.91,75.42,2.54,74.52a7.51,7.51,0,0,1-.3-1c0-.15-.07-.31-.1-.48s-.08-.45-.12-.69-.08-.52-.13-.8c-.12-.88-.25-1.91-.36-3.06a.43.43,0,0,1,0,0,1.49,1.49,0,0,0,0-.21s0-.09,0-.14,0-.21,0-.33,0-.13,0-.2v0c0-.36-.07-.72-.1-1.1-.05-.55-.1-1.13-.14-1.73s-.1-1.32-.15-2c0-.5-.06-1-.1-1.53,0-.09,0-.18,0-.27-.08-1.48-.17-3-.24-4.68,0-.44,0-.89-.07-1.35s-.05-1-.07-1.47C.4,49.8.28,46,.2,42.22.06,35.74,0,29.08.11,23.08c0-.44,0-.88,0-1.33.08-4.13.22-7.91.45-11.07v0c0-.1,0-.21,0-.31A.92.92,0,0,1,.73,10a1.13,1.13,0,0,1,.49-.5,1.44,1.44,0,0,1,.45-.17,2.46,2.46,0,0,1,1.08,0,1.89,1.89,0,0,1,.11-.25l0,.28a.93.93,0,0,1,.42.24,3.81,3.81,0,0,0,.83.4l.39.15.89.33,1.19.43c4.45,1.59,12.24,4.22,15.88,6,.68.33,1.44.72,2.27,1.16l1.84,1c.1-.08-.1.06,0,0-.07.09.15-.05.07,0l.66.37.4.22.61.34,2.19,1.22h0c4.21,2.37,8.29,4.66,9.49,4.88a6.46,6.46,0,0,1,1.56.73l.15.08c0-.13.15,0,.36.21.57.34,1.22.75,1.93,1.22l.15.1.07,0,.15.62c0,.15.07.29.1.45h0a2.93,2.93,0,0,1,0,.29l0,.15a31.11,31.11,0,0,1,.52,3.32l.09,1.06a5.68,5.68,0,0,1,0,.59s0,.07,0,.1,0,.22,0,.33l0,.8C45.31,37.44,45.29,38.69,45.21,40Z"/><path class="cls-4" d="M26.66,19.09l.66.37c-2.06,2-5,4.55-8.12,7-5,4-10.52,7.66-13.62,8.47A3.19,3.19,0,0,1,4,35h0a1.08,1.08,0,0,1-.72-.69A16.36,16.36,0,0,1,2.77,31V31A89.43,89.43,0,0,1,3,18.76c0-.06,0-.11,0-.16.05-.55.1-1.09.17-1.63s.16-1.3.25-1.93a32.73,32.73,0,0,1,1.07-4.89l.89.33,1.19.43c4.45,1.59,12.24,4.22,15.88,6,.68.33,1.44.72,2.27,1.16l1.84,1c.1-.08-.1.06,0,0C26.52,19.14,26.74,19,26.66,19.09Z"/><path class="cls-4" d="M4.39,40.87C2.15,38.35,28.52,23.43,32.3,23.93s8.51,14.85,4.53,22.29S5.75,42.39,4.39,40.87Z"/><path class="cls-4" d="M3.74,44.67c-2.39,1,.31,26.61,4.29,28.59S32,62.42,31.6,57.05,5.54,44,3.74,44.67Z"/><path class="cls-5" d="M6.14,70.43C7.3,72.62,14,72,22.24,66s8.31-10.83,8.31-10.83A4.39,4.39,0,0,1,32,57.81c0,1.39-5.87,8.78-14.8,13.78-5.33,3-8.38,3-9.26,2.54S6.14,70.43,6.14,70.43Z"/><path class="cls-5" d="M4.39,40.87s16.15,7.63,26.66,6.45S37.3,31.84,37.3,31.84s4,13.26-1.86,16.89S8.68,43.71,4.39,40.87Z"/><path class="cls-5" d="M27.32,19.46l.4.22c-2.09,2.05-5,4.62-8,7a84.76,84.76,0,0,1-9.4,6.82A25.22,25.22,0,0,1,8,34.7H8c-2.31,1-3.4.75-4,.34l0,0a4.07,4.07,0,0,1-.59-.58,1,1,0,0,0,.61,0A15.4,15.4,0,0,0,7.23,33h0c.8-.43,1.68-.94,2.62-1.5s1.73-1.05,2.63-1.64l.09-.06c1.85-1.17,3.78-2.47,5.61-3.77,2.43-1.72,4.69-3.43,6.35-4.85a21.14,21.14,0,0,0,2.12-2Z"/><path class="cls-6" d="M48.29,42.81v0a32.77,32.77,0,0,1-.37,3.37,32.16,32.16,0,0,1-1.19,4.92C42.06,65.42,28.38,72,19.25,74.82h0l-.19.06h0a41.88,41.88,0,0,1-8.42,1.82c-1.37-.07-4.92-.4-4.92-.4l.42-.06h0c.7-.1,2.17-.34,4.15-.79h0c5.86-1.36,16.19-4.67,24.12-12.14l0,0h0l.09-.09A34.29,34.29,0,0,0,40.94,55c.37-.67.72-1.35,1-2.06.16-.33.31-.67.45-1a28,28,0,0,0,1.11-3,31.33,31.33,0,0,0,.89-3.37.15.15,0,0,0,0-.09c.06-.24.11-.49.15-.74a2.33,2.33,0,0,0,0-.28s0-.06,0-.09c0-.25.09-.51.13-.76s.1-.62.13-.94a.43.43,0,0,1,0-.11s0-.07,0-.1a2.91,2.91,0,0,0,0-.31c.06-.49.11-1,.15-1.49,0,0,0-.08,0-.12s0-.07,0-.1c.06-.94.1-1.9.11-2.9,0-.46,0-.92,0-1.37l0-.8c0-.11,0-.22,0-.33s0-.07,0-.1a5.68,5.68,0,0,0,0-.59c0-.36,0-.72-.09-1.06-.05-.65-.12-1.29-.22-1.91a.78.78,0,0,0,0-.14c-.08-.58-.17-1.15-.29-1.7a3.43,3.43,0,0,0-.09-.44c0-.19-.07-.38-.11-.56l.4.27.51.36a.78.78,0,0,0,.23-.05l.06.24.06,0,0,0c.52.36,1.06.75,1.6,1.15a44.12,44.12,0,0,1,1,7A39.47,39.47,0,0,1,48.29,42.81Z"/><path class="cls-5" d="M5.62,41.64S18,45.8,24.81,47.18s8.24,2.32,8.24,2.32a30.06,30.06,0,0,1-14-.77A51.53,51.53,0,0,1,5.62,41.64Z"/><path class="cls-5" d="M6.14,70.43s1.37,1.86,7.41.27,11.09-6.65,11.09-6.65-1.28,6.78-10,10.08C7.07,77,6.23,74.4,6.14,70.43Z"/><path class="cls-5" d="M28.33,20a49.65,49.65,0,0,1-7.62,7.45c-.34.28-.69.56-1.06.84C14.29,32.46,10.33,34.07,8,34.7H8a8.8,8.8,0,0,1-2.35.39.15.15,0,0,1,0-.16c.06-.45,1.37-1.47,3.27-2.8l1-.69c1.28-.88,2.75-1.85,4.26-2.86,1.31-.88,2.65-1.79,3.92-2.69a50.14,50.14,0,0,0,4.63-3.59c1.5-1.36,2.81-2.43,3.92-3.26.1-.08-.66.1-.56,0-.07.09.71-.09.63,0l.66.37.4.22Z"/><path class="cls-7" d="M5,39.17S20.19,28.65,26.09,26.42s7.77-1.58,7.77-1.58-1.22-1.39-2.25-1.39-7.92,2.64-16.31,8.28S5,39.17,5,39.17Z"/><path class="cls-7" d="M4.52,10.15l.89.33a40,40,0,0,0-1.19,5.31c-.34,2.06-.6,4.26-.81,6.33C3,26.58,2.8,30.45,2.77,31V31c0-1.78-.07-7,.24-12.21,0-.06,0-.11,0-.16,0-.71.09-1.43.15-2.13,0-.53.09-1,.15-1.55A39.23,39.23,0,0,1,4.13,10Z"/><path class="cls-7" d="M3.18,45.63c1.18-1,21,5,27.37,9.5,0,0-2.49-2.78-12.41-6.57S2.6,43.26,3.18,45.63Z"/><path class="cls-8" d="M2.75,9.33A15.47,15.47,0,0,0,1.63,13a21.63,21.63,0,0,0-.28,2.15h0c-.06.62-.08.86-.14.47a17.34,17.34,0,0,1,.08-3v-.05a.17.17,0,0,0,0-.07c.09-1,.21-2,.37-3.12A2.46,2.46,0,0,1,2.75,9.33Z"/><path class="cls-8" d="M45.28,39.65c0,.56-.07,1.11-.13,1.65,0,0,0,0,0,.06a29.39,29.39,0,0,1-.47,3.07s0,.06,0,.09c-.08.37-.16.74-.25,1.1-.16.67-.35,1.33-.55,2a33.7,33.7,0,0,1-3.93,8.28l-.09.15c-6,9.13-14.64,13.49-14.38,12.71.42-1.24,7.69-8.81,7.61-11.18s-3.81-4.92-3.9-6.34,7.86,1.32,9.48-5.4a20.06,20.06,0,0,0,.43-2.5c.73-6.26-1-13.46-2.8-16.55-2.09-3.5-5.4-4.26-5.72-5.31a.6.6,0,0,1,0-.2c4.21,2.37,8.29,4.66,9.49,4.88a6.46,6.46,0,0,1,1.56.73l.15.08c0-.13.15,0,.36.21.57.34,1.22.75,1.93,1.22.07.23.13.45.19.69l.12.49h0A34.32,34.32,0,0,1,45.21,35s0,.07,0,.1,0,.22,0,.33A31.43,31.43,0,0,1,45.28,39.65Z"/><path class="cls-8" d="M24.75,18.06a44.54,44.54,0,0,1-7.1,7.62c-1.15,1-2.34,2-3.53,2.91-.52.41-1,.79-1.54,1.16l-.09.06a35.55,35.55,0,0,1-3.64,2.33c-.57.32-1.11.59-1.61.81h0c-1.76.76-3,.82-3.36-.16h0a18.75,18.75,0,0,1-.25-6A77.47,77.47,0,0,1,5.08,16.59c.16-.74.32-1.46.5-2.15a1.16,1.16,0,0,1,0-.18c.06-.24.12-.48.19-.72l0-.1c.24-.91.49-1.76.76-2.53,4.45,1.59,12.24,4.22,15.88,6C23.16,17.23,23.92,17.62,24.75,18.06Z"/><path class="cls-8" d="M6.22,38.32c-1.69,3.51,20.89,9.84,26.48,7.49s2.95-17.5.35-19.39S7.63,35.4,6.22,38.32Z"/><path class="cls-8" d="M4.25,46.63C.8,48,7.76,62.39,13.42,64.74s12.74-6.42,13.12-9.61S7.49,45.37,4.25,46.63Z"/><path class="cls-9" d="M17.56,75.07c-6.57-.87,12.84-3.25,21.81-16S56.06,47.74,56.06,47.74,46.86,71.87,17.56,75.07Z"/><path class="cls-7" d="M45.16,45.89a34,34,0,0,1-2.16,6,35.66,35.66,0,0,1-5.82,8.79l-.12.13a22,22,0,0,1-2.6,2.51l.09-.09A43.86,43.86,0,0,0,39.83,56l.09-.15A41.22,41.22,0,0,0,44.26,45.7a.28.28,0,0,0,0-.13c.25-.92.47-1.87.64-2.84a.43.43,0,0,1,0-.11s0-.07,0-.1c.07-.38.13-.77.18-1.16,0,0,0,0,0-.06.1-.8.18-1.62.22-2.45a.17.17,0,0,0,0-.07,1.21,1.21,0,0,0,0-.19,31.16,31.16,0,0,0-.11-4.3,28.32,28.32,0,0,0-.41-2.85.78.78,0,0,0,0-.14c-.09-.43-.18-.85-.28-1.27l0-.15c0-.1,0-.2-.08-.29h0c0-.16-.08-.32-.13-.47s-.11-.43-.17-.64l.07,0,.13.09.4.27.51.36a.78.78,0,0,0,.23-.05l.06.24a.14.14,0,0,0,0,.06v0a31,31,0,0,1,.73,5.58A36.05,36.05,0,0,1,45.16,45.89Z"/><path class="cls-10" d="M52.84,55.13C45.27,67.94,30.5,73.41,25.77,75.07,17.56,78,5.69,76.3,5.69,76.3v-.11C4,76,2.9,75.42,2.53,74.52c-1.1-2.69-2-17-2.34-32.3C.65,49.29.56,72,3.51,73.76c6.35,3.88,21.64.29,27.21-1.89C42.38,67.32,52.84,55.13,52.84,55.13Z"/><path class="cls-11" d="M5.45,15.54c-.1,3.29,3-.08,2.49-2.75S5.54,12.7,5.45,15.54Z"/><path class="cls-11" d="M17.44,30.27c-2.27,1.64,2.16,1.6,4.08-.5S20.59,28,17.44,30.27Z"/><path class="cls-11" d="M4.25,44.51c-2.44.26,1.24,2.06,5.61,2.62S6.92,44.21,4.25,44.51Z"/><path class="cls-7" d="M48.29,42.81v0a27.44,27.44,0,0,1-.54,3.39c-1.41,6.25-4.4,7.22-4.73,6.4a1.9,1.9,0,0,1,0-.79c.07-.65.28-1.63.54-2.84l.06-.24c.08-.37.16-.76.25-1.17.13-.59.27-1.23.41-1.89a.59.59,0,0,0,0-.13h0c.31-1.52.62-3.21.87-5,0,0,0-.07,0-.1,0-.28.08-.57.11-.85l.09-.8a.17.17,0,0,0,0-.07,1.21,1.21,0,0,0,0-.19,34.94,34.94,0,0,0-.51-9h0c0-.14,0-.27-.07-.4s0-.24-.05-.35l.51.36a.78.78,0,0,0,.23-.05l.06.24.06,0,0,0c.52.36,1.06.75,1.6,1.15l.07,0A36.67,36.67,0,0,1,48.29,42.81Z"/><path class="cls-12" d="M45.62,29.46l0,0-.08,0a1.63,1.63,0,0,1-.46.09.9.9,0,0,1-.24,0l-.31,0h-.09s0,0,0,0l-.09,0h0L44,29.46a2.86,2.86,0,0,1-.35-.12,2.64,2.64,0,0,1-2-2.48l.15.08c0-.13.15,0,.36.21.57.34,1.22.75,1.93,1.22l.15.1.07,0,.13.09.4.27.51.36a.78.78,0,0,0,.23-.05l.06.24Z"/><path class="cls-7" d="M45.56,29.42l.06,0a.05.05,0,0,1,0,0,1.55,1.55,0,0,1-.46.13h-.24l-.31,0h-.25l-.37-.1a2.86,2.86,0,0,1-.35-.12,2.77,2.77,0,0,1-1.88-2.4c0-.13.15,0,.36.21a8.59,8.59,0,0,0,2.12,1.91.35.35,0,0,0,.13.05.06.06,0,0,0,.05,0,.16.16,0,0,0,.09,0h0a1.81,1.81,0,0,0,.31,0,1.44,1.44,0,0,0,.46,0,.78.78,0,0,0,.23-.05Z"/><path class="cls-13" d="M11.6,37.78c-1.65-.19-3.27,2.71-.31,3.71S13.36,38,11.6,37.78Z"/><path class="cls-14" d="M11.6,37.78c-1.06-.2-1.9,1.68-.62,2.42s2.28-.19,2.14-.65S12.21,37.9,11.6,37.78Z"/><path class="cls-7" d="M9.74,39.64c0-.31,1.08,1.44,1.95,1.66,1.58.41,1.25-1.22,1.38-1.11a1.14,1.14,0,0,1-1.34,1.42A2.18,2.18,0,0,1,9.74,39.64Z"/><path class="cls-5" d="M1.58,67.49h0c0,.51,0,.84-.05.94a.43.43,0,0,1,0,0,1.49,1.49,0,0,0,0-.21s0-.09,0-.14,0-.21,0-.33,0-.13,0-.2v0c-.08-1.07-.22-3-.39-5.45a1,1,0,0,1,0-.17c0-.28,0-.58-.06-.88L.92,60a.34.34,0,0,1,0-.1l0-.54c-.07-1-.13-2-.19-3.17,0-.44,0-.89-.07-1.35s-.05-1-.07-1.47C.14,45-.17,34.14.11,23.08c0-.44,0-.88,0-1.33.1-3.58.26-7.16.51-10.68,0-.36,0-.71.08-1.06a1.13,1.13,0,0,1,.49-.5c0,.87,0,1.86.06,2.93a.28.28,0,0,1,0,.09v.05c0,.8,0,1.64.06,2.53h0c.19,7.64.46,18,.68,24.43C2.36,49.06,1.75,63.6,1.58,67.49Z"/><path class="cls-15" d="M57.35,40.42C49.18,52.2,25.27,39,21.26,28.06,16,23.92.65,11.08.65,11.07-3.94,3.59,32,18.54,32,18.54,41.17,23.74,53.56,30.81,57.35,40.42Z"/><path class="cls-16" d="M8,13.52C7,14.07,22.81,25,23.19,25.37s8.71,10.77,11.74,12.4S47.34,40.25,52,39,33.39,22.23,32,21.25,12.33,11,8,13.52Z"/><path class="cls-17" d="M10.33,13.92c-.88,0,2.28,3.74,3.15,4.38s6.12.16,9.19.73,13.59,5.47,18.42,9.84,7.27,6.78,7.27,6.78S45.5,29.56,34.79,23.73s-18.71-8.79-21-9.44A7.67,7.67,0,0,0,10.33,13.92Z"/><path class="cls-17" d="M31.61,34.23c-2.61-4,12.73.21,16.55,2.1s-1.72,4.26-9,2.37S31.61,34.23,31.61,34.23Z"/><path class="cls-11" d="M29.27,28.87c-1.1-.16.49,2.68,1.28,2.44S31.44,29.2,29.27,28.87Z"/><path class="cls-11" d="M10.74,13.86c-1.23.32,1.07,1.17,3.39,1.25S14.28,13,10.74,13.86Z"/><path class="cls-18" d="M8.48,14.29a8.2,8.2,0,0,1,5.35-.65c2.66.76,15.62,6.13,16.91,6.87s8.38,5.69,8.38,5.69-6.94-5.86-9.49-6.69-15.66-6.83-19.45-7S8.48,14.29,8.48,14.29Z"/><path class="cls-19" d="M34.93,37.77a10.28,10.28,0,0,1,0,4.45c-.55,2.23-.27,10.3.13,14.8a68.13,68.13,0,0,0,.95,7c.19,1.38,9.15-2.61,12.75-6.81s5.69-13,6.54-14.17l.85-1.21L52,39l-.83.19s3.35,1.78,3.67,2.46-1.76,4.58-2,5.57-6.6,12-10.71,13.49-6-3.24-6.74-7.81A30.31,30.31,0,0,1,36,42c.31-1.28,1.13-1.41,1.2-1.91S34.93,37.77,34.93,37.77Z"/><path class="cls-20" d="M36.83,64.33s5.62-3,7.74-5.28S50.16,52,50.16,52a10.31,10.31,0,0,1-1.72,5C46.68,59.87,40.66,63.38,36.83,64.33Z"/><path class="cls-21" d="M36.74,23.92c-4-2.08-5-12.54-5.68-14.06S26.53,2.49,21.52.52,6,9.51,6,9.51l8.12,3.58S28.21,18.6,36.74,23.92Z"/><path class="cls-15" d="M19.47.32c-.12.46,6.36,7,8.86,9.68s4.78,11.27,6.42,12.73a35.79,35.79,0,0,0,3.89,2.89L41,24.19s-6.64-4.42-7.14-5.75S33.1,10.69,33,9.51,23.21.39,22.14.09A5.67,5.67,0,0,0,19.47.32Z"/><path class="cls-22" d="M8,9.6C7,8.48,17.22,1.31,19.47,2.18s7.75,7,8.86,9.5.37,6.55-1,6.62S9,10.68,8,9.6Z"/><path class="cls-23" d="M33,9.51c-1.62-2-2.3.84-2.76,1.79s3.58,9.89,3.58,9.89V18.44A31.33,31.33,0,0,1,33,9.51Z"/><path class="cls-24" d="M47,20.05c-.22-1.55,2.87-8.88,4.2-9.38s6.39,7.1,6.2,8.83S52.15,22.69,51,22.87,47,20.05,47,20.05Z"/><path class="cls-15" d="M47,20.05c.61,2.58,6.28-.75,7.32-2s-.6-6.84-2.53-7.34S46.5,17.9,47,20.05Z"/><path class="cls-25" d="M39,12.65a3.71,3.71,0,0,1-.6-4.87c1.16-1.93,5.16-3.09,6.41-2.89s.14,5.94-1.23,7S39,12.65,39,12.65Z"/><path class="cls-15" d="M39.07,7c-.86,1,2.86,2.84,4.16,3.1s3-4,1.81-5S39.55,6.47,39.07,7Z"/><path class="cls-22" d="M50.62,22.83c-1.26-.2-2.09-.94-2-1.31s4.44-2.46,5.35-2.71,3.32,1.13,3.32,1.13S52.8,22.87,50.62,22.83Z"/><path class="cls-22" d="M39,12.65c-1.61-1.65-.43-3.91-.07-4.28s3.43,2.2,3.92,2.61S39.65,13.31,39,12.65Z"/></g></g></g></svg>