<svg xmlns="http://www.w3.org/2000/svg" xmlns:xlink="http://www.w3.org/1999/xlink" viewBox="0 0 76.55 77.35"><defs><style>.cls-1{isolation:isolate;}.cls-2{fill:url(#Áåçûìÿííûé_ãðàäèåíò_14);}.cls-3{fill:#e75992;}.cls-3,.cls-5,.cls-9{opacity:0.5;}.cls-18,.cls-20,.cls-3,.cls-6,.cls-9{mix-blend-mode:multiply;}.cls-4,.cls-5{fill:#ffd8ff;}.cls-4{opacity:0.3;}.cls-4,.cls-5,.cls-7{mix-blend-mode:soft-light;}.cls-6{fill:#bf2a92;opacity:0.6;}.cls-7{fill:#ffb8df;}.cls-8{fill:#fff;}.cls-9{fill:#d15992;}.cls-10{fill:#ffb895;}.cls-11{fill:#ff938b;}.cls-12{fill:#c94f3e;}.cls-13{fill:url(#Áåçûìÿííûé_ãðàäèåíò_37);}.cls-14{fill:#75131d;}.cls-15{fill:#f26a45;}.cls-16{fill:#4b031d;}.cls-17{fill:url(#Áåçûìÿííûé_ãðàäèåíò_38);}.cls-18{fill:#ca0092;opacity:0.71;}.cls-19{fill:#9f271d;}.cls-20{fill:#ff6d7c;opacity:0.2;}</style><radialGradient id="Áåçûìÿííûé_ãðàäèåíò_14" cx="46.29" cy="28.99" r="46.68" gradientUnits="userSpaceOnUse"><stop offset="0" stop-color="#8e2e25"/><stop offset="0.48" stop-color="#862724"/><stop offset="0.68" stop-color="#691b1c"/><stop offset="0.87" stop-color="#561416"/><stop offset="1" stop-color="#4f1114"/></radialGradient><linearGradient id="Áåçûìÿííûé_ãðàäèåíò_37" x1="51.04" y1="43.95" x2="28.46" y2="4.84" gradientUnits="userSpaceOnUse"><stop offset="0" stop-color="#f27925"/><stop offset="1" stop-color="#e7522e"/></linearGradient><linearGradient id="Áåçûìÿííûé_ãðàäèåíò_38" x1="47.8" y1="57.66" x2="33.87" y2="33.54" gradientUnits="userSpaceOnUse"><stop offset="0" stop-color="#e7522e"/><stop offset="1" stop-color="#f27925"/></linearGradient></defs><g class="cls-1"><g id="Layer_2" data-name="Layer 2"><g id="layer1"><path class="cls-2" d="M76.55,39.07c0,.42,0,.84,0,1.26s0,1.15-.09,1.71v0c0,.45-.09.91-.14,1.36,0,.2,0,.4-.07.6s0,.16,0,.25l-.06.49a38.34,38.34,0,0,1-2.58,9.18c-.18.43-.37.85-.57,1.28s-.26.55-.41.83-.35.73-.55,1.08-.35.65-.54,1c0,.09-.1.19-.16.28-.16.29-.33.57-.51.85s-.3.48-.46.72l-.15.23c-.23.35-.46.69-.7,1-.36.51-.73,1-1.11,1.49s-.68.86-1,1.27l-.55.63c-.35.39-.71.78-1.08,1.15s-.71.73-1.08,1.07a.46.46,0,0,1-.07.07c-.37.35-.75.7-1.14,1s-.57.5-.87.74l-.57.46q-.51.4-1,.78c-.42.31-.84.61-1.28.91s-1.1.72-1.67,1.06l-.64.37-.39.23,0,0c-.56.32-1.12.61-1.7.89l-.2.09-.18.1a38.61,38.61,0,0,1-3.68,1.55l-.89.3-.78.25c-.39.12-.79.24-1.18.34-1,.28-2,.51-3.07.7l-.84.14c-.94.16-1.9.28-2.87.36q-.42,0-.84.06c-.81,0-1.63.08-2.45.08a38.26,38.26,0,0,1-30.8-61c.5-.68,1-1.35,1.57-2,.81-.95,1.65-1.85,2.54-2.71.39-.36.78-.71,1.18-1.05l.39-.34c.77-.66,1.52-1.26,2.13-1.74l.3-.23,1-.72.37-.26a37.4,37.4,0,0,1,6.16-3.36h0l0,0,.13-.06c.89-.37,1.8-.73,2.73-1l.17-.05c.74-.25,1.49-.48,2.24-.68l.09,0a0,0,0,0,1,0,0s0,0,.07,0A38.69,38.69,0,0,1,38.28.8,38.14,38.14,0,0,1,66.42,13.14,36,36,0,0,1,68.8,16h0c.38.5.75,1,1.1,1.52,0,0,0,0,0,0l.61.92a38,38,0,0,1,4,8.34v0A38.41,38.41,0,0,1,76.55,39.07Z"/><path class="cls-3" d="M16.81,10.65C10.66,7.38-11.51,47.74,21.2,70c27.9,19,50.88-13.89,51.47-19.5s-15.13,9.7-37.82,2.14S20.69,12.72,16.81,10.65Z"/><path class="cls-3" d="M31.74,73.41c-15.34-8.3,26.76-20,36-23S66,63.88,54.86,71A25.75,25.75,0,0,1,31.74,73.41Z"/><path class="cls-4" d="M44.74,2.57C26,.79,15.52,22.43,23.79,42S69,53.2,72.68,44.09,68.53,4.84,44.74,2.57Z"/><path class="cls-5" d="M73.55,54A38.28,38.28,0,0,1,0,39.08S4.45,71,29.53,74.5s44-20.56,44-20.56Z"/><path class="cls-5" d="M47.37,75.26c-1.5.08,9.63-7.16,12.42-7S57.14,74.75,47.37,75.26Z"/><path class="cls-6" d="M24,29.27s-4.31-12.93,11.86-18S58.64,19.78,59.9,25.59c0,0-3.82-10.22-16.71-10.87C32.7,14.2,25.3,19.77,24,29.27Z"/><path class="cls-6" d="M37.6,32.7c2.48,6.14,14,7.89,21.3,5.75s6.91-8,6.91-8a15.45,15.45,0,0,1-1,7.37C63.23,41.36,41,46.47,37.6,32.7Z"/><path class="cls-6" d="M43.68,30.75s-.79-3.35,1.3-5.63,5.48-2.23,6.16,1.07a6.41,6.41,0,0,1-1.88,5.62s.62-5.43-2.34-4.8A4.31,4.31,0,0,0,43.68,30.75Z"/><path class="cls-6" d="M28.59,2h.06l-.11,0Z"/><path class="cls-7" d="M18.36,30.44c-.58,8.66,2-8.32,9.09-14.51S40.22,10,41.05,9.23,31,7.94,24.17,14.31,18.42,29.47,18.36,30.44Z"/><path class="cls-7" d="M58,37.74c-1.74-.11,3.23-4.85,3-11.76s4.65-.07,4.2,5S60.9,37.94,58,37.74Z"/><path class="cls-8" d="M62.06,34c-1.13,0,.46-2.71,1.43-3S65.38,34.11,62.06,34Z"/><path class="cls-8" d="M40.6,24.63c-.84,2,3.62.29,3.88-1.09S41.31,23,40.6,24.63Z"/><path class="cls-8" d="M23,16.79c-.5,2.87,3.29-.12,3.36-1.74S23.34,14.92,23,16.79Z"/><path class="cls-9" d="M12,54.85l0,0c-1.33-2.89,3.94-3.33,4.54-.9,0,0,0,0,0,0C17.1,56.37,13,56.91,12,54.85Z"/><path class="cls-6" d="M16.5,53.91a4.11,4.11,0,0,0-2.7-1.11c-1.88,0-1.61,2.23-1.81,2.05l0,0C10.63,51.92,15.9,51.48,16.5,53.91Z"/><path class="cls-6" d="M5,42.86v0Z"/><path class="cls-9" d="M15.25,44.92c-1.15,4.39-7,1.92-8.52.75A5.63,5.63,0,0,1,5,42.86H5v0C4,39.65,4.33,35,6.85,32.46c3-2.91,7.75,4.85,8.46,10v0A6.54,6.54,0,0,1,15.25,44.92Z"/><path class="cls-6" d="M15.31,42.44c-.16-.59-2.86-10.55-7.43-9.59S5,42.37,5,42.84C4,39.65,4.33,35,6.85,32.46,9.8,29.55,14.6,37.31,15.31,42.44Z"/><path class="cls-10" d="M23.44,6.94c-.55-1.25,1.45-3.4,2.94-2.72a2.29,2.29,0,0,1,1.44,2.91C27.38,7.91,23.54,7.17,23.44,6.94Z"/><path class="cls-10" d="M33.2,7C33,6,34,4.75,34.8,5.19s1,1.45.72,1.84S33.27,7.38,33.2,7Z"/><path class="cls-10" d="M29.69,23.05c-.82-1.64,3.21-3.71,4.72-3.32s2.81,2.72,2,4.08S30.26,24.18,29.69,23.05Z"/><path class="cls-11" d="M16.55,7.56c-.33.23-.64.49-1,.73Z"/><path class="cls-11" d="M11.59,11.64c.39-.36.78-.71,1.18-1.05C12.37,10.94,12,11.28,11.59,11.64Z"/><path class="cls-11" d="M12.77,10.59c.9-.81,1.84-1.58,2.82-2.3C14.82,8.88,13.81,9.68,12.77,10.59Z"/><path class="cls-6" d="M29.58,22.08c.11,1,5.41,2.69,7,1.46s1.57,3.83-3.81,3.45S29.58,22.08,29.58,22.08Z"/><path class="cls-6" d="M40.49,44.56c.37,2.3,5.58,2.27,6.9.72,0,0,.7,2.64-3.29,2.77S40.52,48.47,40.49,44.56Z"/><path class="cls-6" d="M33.31,6.09C33.2,7,35.52,7,35.52,7s.27.46-1.67.83S33.31,6.09,33.31,6.09Z"/><path class="cls-6" d="M23.44,5.94c-.09.63,1.57,1.33,2.82,1.37s1.66-.45,1.66-.45.19,1.43-3.69,1.46S23.44,5.94,23.44,5.94Z"/><path class="cls-12" d="M68.57,37.75c-3.66,4.4-14.36,8.37-24.65,10.66A95.58,95.58,0,0,1,33.8,50.12h0c-.89.09-1.73.17-2.55.23H31l-.92,0h0c-.61,0-1.19,0-1.75,0a15.84,15.84,0,0,1-5.16-.63,4.19,4.19,0,0,1-.9-.42c-4.68-3-13-20.11-14.81-28.66h0C7,18.67,7,17.1,7.48,16.35s1-1.35,1.57-2a22.51,22.51,0,0,1,2.54-2.71c.39-.36.78-.71,1.18-1.05l.39-.34c.77-.66,1.52-1.26,2.13-1.74l.3-.23,1-.72.37-.26a37.4,37.4,0,0,1,6.16-3.36h0l0,0,.13-.06a22.69,22.69,0,0,1,2.73-1l.17-.05c.74-.25,1.49-.48,2.24-.68l.09,0h0l.05,0,.12,0c2.31-.66,17.68-4.62,28.44.84.27.14.54.28.81.44l0,0A24,24,0,0,1,64.63,9.1h0c.07.15.14.3.22.45h0c.53,1.13,1,2.32,1.56,3.56.31.76.62,1.53.91,2.31l.3.81c.5,1.35,1,2.73,1.36,4.11h0c.07.26.15.51.22.77a.13.13,0,0,1,0,.06h0a1.55,1.55,0,0,1,.07.23c0,.16.09.32.13.48C71.07,28.21,71.43,34.31,68.57,37.75Z"/><path class="cls-13" d="M55.65,7.56C48.71,4.9,31.09,4.64,25.1,7s-11,8.41-11.47,17.19S27.3,44.56,34.12,46.24s26.78-5.13,30-11.92S62.86,10.33,55.65,7.56Z"/><path class="cls-14" d="M65.19,27c.91-2.76,5.62,2.18,5.5,3.92s-1.28,10.37-2.75,12.2S58.43,44.7,57,44.88s1-3.34,1.88-6.43S65.19,27,65.19,27Z"/><path class="cls-15" d="M56.74,43.2c.52-1.24.52-1.9,1.18-1.86s9,1.55,8.74,2.4-5.43.94-8.23,1.28a12.79,12.79,0,0,1-2.89.12C55.46,45.17,56.74,43.2,56.74,43.2Z"/><path class="cls-14" d="M8.65,27.77C8.63,25,12,22.21,13,22.08s3.61,11.17,4.42,12.57-2,4.48-3.34,4.32S8.65,27.77,8.65,27.77Z"/><path class="cls-15" d="M15.31,39.71c-.2,0-3-2.79-3.33-4s5.57-.41,7,.83S15.31,39.71,15.31,39.71Z"/><path class="cls-16" d="M58.42,39.85c-.79-.38-2.5,1.22-2.5,1.22l2,.27s7.83,1.92,8.74,2.4,4.29,6.18,5.59,8.19-3.4,10.16-3.4,10.16,2.73-4.11,2.84-4.34,1.34-5.16,1.39-6,.33-4.27-.86-4.36-4.45-3.24-5-4.18-5.83-2-8-2.26S58.42,39.85,58.42,39.85Z"/><path class="cls-16" d="M17,33.13s-3.95,1.24-4.93,1.52-2.63.07-4,2.57a64.79,64.79,0,0,0-4,11.19c-.38,1.8,0,7.87,0,7.87s.09-7.24.66-9.39,4-9.66,5-10.42,2.08-.25,2.75-.12,3.3-.67,4.72-.66a5.5,5.5,0,0,1,2.17.35Z"/><path class="cls-17" d="M23.16,39.71c3.8,2.94,7.14,8.62,7.26,12.81s3.16,9.82,8.81,9.59S47.78,48.34,49,46.34s5.48-4.59,5.48-4.59S43.81,44.1,38.22,44.6,23.16,39.71,23.16,39.71Z"/><path class="cls-18" d="M25.67,42.12s3.73,3.51,4.83,7.79,2.79,10.81,8.08,10.89,8.16-12.38,8.71-14.3,6.93-4.38,6.93-4.38-5.45,3.59-5.69,5.37-2.72,15.78-9.62,16.42-8.68-8.84-9.22-12.63S25.67,42.12,25.67,42.12Z"/><path class="cls-4" d="M23,33.15c-2.32,1.39,1.29,9.2,11.91,11.2s18-3.81,19.64-4.5S40,39.3,32.82,37.4,24.56,32.2,23,33.15Z"/><path class="cls-4" d="M20.3,11.14c-7.19,3.71,9.17,9.31,21.17,13S58.73,22,59,16.17,36.4,2.83,20.3,11.14Z"/><path class="cls-8" d="M44.8,44.12c-1.09-.37,4.3-2,5.82-2.47S49.78,45.84,44.8,44.12Z"/><path class="cls-8" d="M19.58,30c-2.35.9,3.87,6.28,6.8,6.22S25,27.93,19.58,30Z"/><path class="cls-19" d="M13.5,22.54s2.09-8.18,8.68-12.35c5.45-3.44,12.3-7.1,30.15-3.2C60.52,8.78,63.64,18.9,63.64,18.9S62.13,13,59.43,10.19c-5.25-5.35-16.1-7-24.63-6.81S23,6.56,19.06,9.61,13.5,22.54,13.5,22.54Z"/><path class="cls-8" d="M52.33,19c-1.27,0-1.77,2.69,0,2.42A1.21,1.21,0,0,0,52.33,19Z"/><path class="cls-20" d="M26.38,20.17C18.14,21.73,31,34.47,41.27,36.69S57,30.37,57.62,26.8s-5-1.46-12-2.26S28.6,19.74,26.38,20.17Z"/></g></g></g></svg>