<svg xmlns="http://www.w3.org/2000/svg" xmlns:xlink="http://www.w3.org/1999/xlink" viewBox="0 0 76.93 74.85"><defs><style>.cls-1{isolation:isolate;}.cls-2{fill:url(#Áåçûìÿííûé_ãðàäèåíò_14);}.cls-3{fill:#e75992;}.cls-17,.cls-23,.cls-24,.cls-25,.cls-3,.cls-35,.cls-5{opacity:0.5;}.cls-11,.cls-17,.cls-23,.cls-24,.cls-3,.cls-31,.cls-35{mix-blend-mode:multiply;}.cls-4,.cls-5{fill:#ffd8ff;}.cls-4{opacity:0.3;}.cls-14,.cls-15,.cls-19,.cls-25,.cls-4,.cls-5{mix-blend-mode:soft-light;}.cls-6{fill:url(#Áåçûìÿííûé_ãðàäèåíò_402);}.cls-7{fill:url(#Áåçûìÿííûé_ãðàäèåíò_216);}.cls-8{fill:url(#Áåçûìÿííûé_ãðàäèåíò_254);}.cls-9{fill:#ff5c7f;}.cls-10{fill:url(#Áåçûìÿííûé_ãðàäèåíò_264);}.cls-11,.cls-35{fill:#ca6d92;}.cls-11{opacity:0.71;}.cls-12{fill:#d65963;}.cls-13{fill:#9a2754;}.cls-14{fill:#ffd9c7;}.cls-15{fill:#b8abc7;}.cls-16{fill:#fff;}.cls-17{fill:#c23e86;}.cls-18{fill:#ffa67c;}.cls-19{fill:#d8d1e0;}.cls-20,.cls-31{fill:#a72092;}.cls-21{fill:#bb4948;}.cls-22,.cls-23{fill:#f86f48;}.cls-24{fill:#d1646b;}.cls-25{fill:#ffd8c2;}.cls-26{fill:#ff9a6f;}.cls-27{fill:#ffa977;}.cls-28{fill:#92182f;}.cls-29{fill:#77142f;}.cls-30{fill:url(#Áåçûìÿííûé_ãðàäèåíò_7);}.cls-31{opacity:0.8;}.cls-32{fill:url(#Áåçûìÿííûé_ãðàäèåíò_402-2);}.cls-33{fill:url(#Áåçûìÿííûé_ãðàäèåíò_7-2);}.cls-34{fill:#ff8e6f;}.cls-36{fill:#70102f;}</style><radialGradient id="Áåçûìÿííûé_ãðàäèåíò_14" cx="39.15" cy="30.19" r="40.99" gradientUnits="userSpaceOnUse"><stop offset="0" stop-color="#8e2e25"/><stop offset="0.48" stop-color="#862724"/><stop offset="0.68" stop-color="#691b1c"/><stop offset="0.87" stop-color="#561416"/><stop offset="1" stop-color="#4f1114"/></radialGradient><linearGradient id="Áåçûìÿííûé_ãðàäèåíò_402" x1="18.16" y1="21.97" x2="18.16" y2="6.53" gradientUnits="userSpaceOnUse"><stop offset="0" stop-color="#ff7600"/><stop offset="0.62" stop-color="#ff9200"/><stop offset="1" stop-color="#ffa000"/></linearGradient><linearGradient id="Áåçûìÿííûé_ãðàäèåíò_216" x1="30.29" y1="59.77" x2="30.29" y2="42.45" gradientUnits="userSpaceOnUse"><stop offset="0" stop-color="#d60042"/><stop offset="1" stop-color="#ff1820"/></linearGradient><linearGradient id="Áåçûìÿííûé_ãðàäèåíò_254" x1="6.48" y1="54.49" x2="6.48" y2="36.28" gradientUnits="userSpaceOnUse"><stop offset="0" stop-color="#657cec"/><stop offset="0.39" stop-color="#6680e6"/><stop offset="0.92" stop-color="#688bd4"/><stop offset="1" stop-color="#688dd1"/></linearGradient><linearGradient id="Áåçûìÿííûé_ãðàäèåíò_264" x1="11.02" y1="68.03" x2="11.02" y2="55.59" gradientUnits="userSpaceOnUse"><stop offset="0" stop-color="#d60042"/><stop offset="1" stop-color="#ae0020"/></linearGradient><linearGradient id="Áåçûìÿííûé_ãðàäèåíò_7" x1="50.87" y1="13.6" x2="50.87" gradientUnits="userSpaceOnUse"><stop offset="0" stop-color="#6d151f"/><stop offset="0.65" stop-color="#721c22"/><stop offset="1" stop-color="#772224"/></linearGradient><linearGradient id="Áåçûìÿííûé_ãðàäèåíò_402-2" x1="68.73" y1="32.86" x2="68.73" y2="15.32" xlink:href="#Áåçûìÿííûé_ãðàäèåíò_402"/><linearGradient id="Áåçûìÿííûé_ãðàäèåíò_7-2" x1="23.48" y1="4.53" x2="23.48" y2="-17.85" gradientTransform="translate(37.02 47.73) rotate(11.25)" xlink:href="#Áåçûìÿííûé_ãðàäèåíò_7"/></defs><g class="cls-1"><g id="Layer_2" data-name="Layer 2"><g id="layer1"><path class="cls-2" d="M64.34,60a35.5,35.5,0,0,1-8.4,7.63c-.79.52-1.6,1-2.43,1.46A35.47,35.47,0,0,1,40,73.3l-1.13.1c-.8,0-1.62.08-2.44.08A35.56,35.56,0,0,1,17,67.8h0l-.12-.09,0,0s0,0,0,0c-.44-.27-.87-.57-1.29-.87a33,33,0,0,1-3.67-3h0A35.87,35.87,0,0,1,6.24,57l0,0c-.28-.44-.56-.89-.82-1.35s-.66-1.18-1-1.78h0c-.08-.14-.15-.28-.22-.42h0c-.17-.34-.33-.69-.49-1h0a35.06,35.06,0,0,1-2.51-8v-.06a34.29,34.29,0,0,1-.57-5,1.09,1.09,0,0,1,0-.18c0-.45,0-.9,0-1.36A35.69,35.69,0,0,1,10.72,12.76h0l.11-.11.37-.37c.58-.58,1.19-1.14,1.81-1.68a35.4,35.4,0,0,1,5.64-4c.73-.42,1.48-.82,2.25-1.18h0c.33-.16.66-.32,1-.46l0,0c1.86,1.17,4.54,2.78,5.43,3.78l.15.17A16,16,0,0,1,29,12.75c.24.8.48,1.67.71,2.56.58,2.11,1.15,4.29,1.64,5.86,1.17,3.68,7.74,9.06,8.37,9.65s5.85,13.1,9.84,20.44c.15.28.3.56.45.82.33.6.65,1.14,1,1.64,2.11,3.4,6.6,5,10.41,5.82l.4-.34-.33.36C62.47,59.77,63.46,59.92,64.34,60Z"/><path class="cls-3" d="M61.75,59.2l-.33.36a46.28,46.28,0,0,1-7.14,6.36L54,66.1h0a35.93,35.93,0,0,1-5.42,3.17c-.25.12-.5.24-.75.34h0a28.13,28.13,0,0,1-6.68,2,26.77,26.77,0,0,1-3.6.37A25.62,25.62,0,0,1,29.48,71a32.23,32.23,0,0,1-9.06-4.38A40.34,40.34,0,0,1,11.7,58.7c-.46-.55-.88-1.11-1.29-1.68s-.67-1-1-1.45-.48-.75-.7-1.13S8.2,53.51,8,53.05a32.7,32.7,0,0,1-3.17-9q-.11-.5-.18-1c-.1-.55-.18-1.1-.24-1.64l0-.28v0a37.33,37.33,0,0,1-.23-4.2c0-.2,0-.4,0-.6A41.12,41.12,0,0,1,9.49,16.77c.28-.48.57-.94.86-1.36s.55-.8.83-1.15h0a13.73,13.73,0,0,1,1.18-1.37c1.53-1.59,3-2.28,3.95-1.75s1.13,3.57,1.23,7.71V19c0,.7,0,1.44.06,2.21a.08.08,0,0,0,0,0c0,.26,0,.54,0,.81a2.81,2.81,0,0,1,0,.29c0,.36,0,.72.05,1.09C18,30.21,19.14,38.33,24,44.15c.1.13.21.26.32.38.25.29.5.57.78.84a18.11,18.11,0,0,0,4.06,3.15A18.49,18.49,0,0,0,32,49.94c.37.15.74.29,1.13.42a40.84,40.84,0,0,0,4.24,1.16l.7.14.31.06.27.05.27,0a38.18,38.18,0,0,0,11,.26c.33.6.65,1.14,1,1.64,2.11,3.4,6.6,5,10.41,5.82Z"/><path class="cls-4" d="M49.53,51.26a40.88,40.88,0,0,1-10.6,0l-.21,0-.19,0-.24,0c-.26,0-.51-.08-.76-.13a25.94,25.94,0,0,1-5.42-1.6,20.93,20.93,0,0,1-2.54-1.3,16.6,16.6,0,0,1-4.46-3.85c-.14-.17-.28-.35-.4-.53a.07.07,0,0,1,0-.06,15.55,15.55,0,0,1-1.83-3.22,33.52,33.52,0,0,1-2.26-7.85,32.8,32.8,0,0,1-.41-5.89A26.79,26.79,0,0,1,20.36,24c.09-.83.22-1.64.37-2.44h0c0-.16.07-.32.11-.47a2.59,2.59,0,0,1,.09-.4h0a.24.24,0,0,1,0-.09c.08-.36.17-.72.28-1.08h0a1,1,0,0,1,.06-.21h0c.13-.47.28-.93.44-1.39a1.43,1.43,0,0,1,.08-.22,20,20,0,0,1,.82-2h0a22.49,22.49,0,0,1,2.34-4c.25-.36.51-.7.79-1a18.28,18.28,0,0,1,1.63-1.77l.15.17A16,16,0,0,1,29,12.75c.24.8.48,1.67.71,2.56.58,2.11,1.15,4.29,1.64,5.86,1.17,3.68,7.74,9.06,8.37,9.65S45.54,43.92,49.53,51.26Z"/><path class="cls-5" d="M61.42,59.56c1,.21,2,.36,2.92.46a35.5,35.5,0,0,1-8.4,7.63c-.79.52-1.6,1-2.43,1.46A35.47,35.47,0,0,1,40,73.3l-1.13.1c-.8,0-1.62.08-2.44.08A35.56,35.56,0,0,1,17,67.8h0l-.12-.09a34.63,34.63,0,0,1-5-3.93h0A35.87,35.87,0,0,1,6.24,57l0,0c-.28-.44-.56-.89-.82-1.35s-.66-1.18-1-1.78h0c-.08-.14-.15-.28-.22-.42h0c-.17-.34-.33-.69-.49-1h0a35.06,35.06,0,0,1-2.51-8v0a34.56,34.56,0,0,1-.57-5,1.09,1.09,0,0,1,0-.18c0-.45,0-.9,0-1.36,0,0,.05.36.17,1a.51.51,0,0,1,0,.13c.09.47.22,1.07.38,1.78h0A56.39,56.39,0,0,0,5.5,52.79c.24.49.49,1,.76,1.47.15.29.31.57.48.86.06.11.12.22.19.33.17.29.34.59.53.88C11.61,63.08,18.12,69.4,28.2,70.82l1.28.15a33.74,33.74,0,0,0,7.86-.11h0c.46-.06.91-.12,1.36-.2h0a40.25,40.25,0,0,0,9.2-2.75c1.17-.49,2.31-1,3.4-1.61.5-.26,1-.53,1.46-.8h0a58.7,58.7,0,0,0,8.56-6l.4-.34Z"/><path class="cls-6" d="M11.65,21c1.33,2.32,7.83.3,11.84-3.12S27.18,5.63,18.66,6.61,8.91,16.19,11.65,21Z"/><path class="cls-7" d="M36.28,57.36C31.36,62.79,24.75,58,23,53.65c-2.11-5.15-1.14-8.58,2-10.16a12.12,12.12,0,0,1,5.89-1,8.1,8.1,0,0,1,7.79,7.7A9.4,9.4,0,0,1,36.28,57.36Z"/><path class="cls-8" d="M12.35,52a3.93,3.93,0,0,1-.55.93C9.63,55.72,2.12,55.18.6,47.8-.69,41.52.38,36.74,3.48,36.31h0a4.25,4.25,0,0,1,1.82.2C10.15,38,14.44,47.39,12.35,52Z"/><path class="cls-9" d="M48.94,74.2c-5.6,1.73-11.83-.2-11.6-3.3a4.5,4.5,0,0,1,.11-.64c1.17-4,10.1-5.79,15.33-4.76h0l.74.17C58.88,67.13,54.54,72.47,48.94,74.2Z"/><path class="cls-10" d="M5.39,55.59S1.76,70,17,67.8C17,67.8,9.21,62.07,5.39,55.59Z"/><path class="cls-11" d="M36.28,57.36C31.36,62.79,24.75,58,23,53.65c-2.11-5.15-1.14-8.58,2-10.16C21.51,45.71,30.91,54.27,34.72,55c3.13.62,3.81-3.33,4-4.85A9.4,9.4,0,0,1,36.28,57.36Z"/><path class="cls-11" d="M12.35,52a3.93,3.93,0,0,1-.55.93C9.63,55.72,2.12,55.18.6,47.8-.69,41.52.38,36.74,3.48,36.31c-1.88,1.47,3.5,14,5.85,16A2,2,0,0,0,12.35,52Z"/><path class="cls-11" d="M48.94,74.2c-5.6,1.73-11.83-.2-11.6-3.3a4.5,4.5,0,0,1,.11-.64C38.74,71.78,51.69,69,54.21,68s-1.16-2.43-1.42-2.54l.74.17C58.88,67.13,54.54,72.47,48.94,74.2Z"/><path class="cls-11" d="M11.48,11.15c-.93,2.61.13,6.89,2,8s8.77-1.39,11.35-2.89c0,0-2.16,5-9,6.65S7.56,18.73,11.48,11.15Z"/><path class="cls-11" d="M24.09,55.59C26.5,58,32.93,57.51,35.76,55a8,8,0,0,0,2.83-5.58s1.14,3-.55,7.48a7.18,7.18,0,0,1-7.42,4.48C26.58,60.76,24.09,55.59,24.09,55.59Z"/><path class="cls-11" d="M6.21,56.94a19.58,19.58,0,0,0,1.67,7.29C9.59,68.08,17,67.8,17,67.8A63,63,0,0,1,6.21,56.94Z"/><path class="cls-11" d="M2.47,51.86A14.22,14.22,0,0,0,9.24,53a3.77,3.77,0,0,0,3.63-3.22s.17,5-2.68,5.72S4.14,54.05,2.47,51.86Z"/><path class="cls-11" d="M12.35,21.64c.46.34,2-1.57,3.73-2.32a54,54,0,0,1,7-1.7S18.59,22.94,12.35,21.64Z"/><path class="cls-11" d="M22,5l-1,.44c.32-.17.65-.32,1-.48l0,0Z"/><path class="cls-12" d="M10.79,23.17a9.54,9.54,0,0,0,5.43.7,8,8,0,0,0,5.17-3.53S15.33,23.91,10.79,23.17Z"/><path class="cls-13" d="M27.1,59.77a6.82,6.82,0,0,0,5.73,2c3.88-.26,5.21-4.87,5.21-4.87S33.16,64.63,27.1,59.77Z"/><path class="cls-13" d="M6.48,55.47c-1.09.12-.05,1.15,2.22.82S7.57,55.34,6.48,55.47Z"/><path class="cls-11" d="M41,74.38c-4.42-2.32,5.37-5,9.66-5.39s4.15,1.13,3.87,1.82S50.11,75.89,41,74.38Z"/><path class="cls-14" d="M25.19,44.15C23.52,46,31.5,54,34.41,54.49s4.23-5.35,2.52-8.51S27.84,41.24,25.19,44.15Z"/><path class="cls-15" d="M4.11,36.89C2.45,38.4,6.89,48.08,9.35,50.51s3.49-3,1.93-7S5.12,36,4.11,36.89Z"/><path class="cls-14" d="M15.16,7.6C12.79,9,10.66,16.14,13.6,18.66S24.67,15.36,25,11.78,19.76,4.9,15.16,7.6Z"/><path class="cls-16" d="M29.57,48.11c-1.43.93-.09,2,1.76,2.12S31.48,46.87,29.57,48.11Z"/><path class="cls-16" d="M17.1,9.62c-1.1,2.11,3.45,1.69,3.81,0S17.89,8.11,17.1,9.62Z"/><path class="cls-16" d="M4.43,41.35c-1,.47.22,1.75.59,2.14S4.94,41.11,4.43,41.35Z"/><path class="cls-17" d="M29.68,15.31A4.13,4.13,0,0,1,29,12.8v-.05C29.21,13.55,29.45,14.42,29.68,15.31Z"/><path class="cls-17" d="M27,14.32c-1.19-.31-.57,3.6-7.45,8.08C17.12,24,18.3,25,23.1,23.17S27,14.32,27,14.32Z"/><path class="cls-17" d="M9.35,57.6c3.54,2.49,7.37,1.26,6.74-4S13.63,50,13.31,51.11,12.35,56.49,9.35,57.6Z"/><path class="cls-16" d="M48,67c-.74,2.91,3.34,1.16,4,0S48.23,66.07,48,67Z"/><path class="cls-5" d="M20.16,26.73c-1.26,2.6.89,8.14,2.94,10.16s5.81-6.78,3.93-9.68S20.78,25.47,20.16,26.73Z"/><path class="cls-18" d="M21.63,20.15c-.43.46,1.14-.2,1.47-1S21.63,20.15,21.63,20.15Z"/><path class="cls-18" d="M35.67,60.25c-1.09.18.57-1.11,1.17-1.8S37,60,35.67,60.25Z"/><path class="cls-11" d="M6.21,64.25c.49.76,2-1.34,4.26-1S17,67.8,17,67.8,8.77,69.48,6.21,64.25Z"/><path class="cls-19" d="M1.32,37.7S.54,46.49,2.47,51.86C2.47,51.86-2.21,44.2,1.32,37.7Z"/><path class="cls-19" d="M5.06,60.27S7,67.2,17,67.8C17,67.8,5.28,69.76,5.06,60.27Z"/><path class="cls-20" d="M61.35,59.54l.4-.34-.33.36Z"/><path class="cls-21" d="M22,5c.85-.93,15.65,4.9,17,6.07s9.94,10,14.11,12.53,4.29,7.65,4.67,9.07S65.08,44.85,66.6,47s-2.26,13-2.26,13-9.26-.34-14.81-5.75-8.37-17.93-9.61-19.88a46.47,46.47,0,0,0-5.07-6c-1.48-1.55-2.08-3.26-4.3-6.45S20.15,7,22,5Z"/><path class="cls-22" d="M62.55,55.59c-.5-.07-9.47-2.82-12.55-5s-7.15-18.51-7.91-19.42-4.8-3-6.78-5.74a153.47,153.47,0,0,1-8.85-15.12c-.55-1.17-.78-1.9-.48-1.86a22.18,22.18,0,0,1,7.72,3.3h0c6.67,4.06,13.87,10.52,15.82,11.85,2.77,1.88,3.55,6.83,5.16,8.36s7.86,13.75,8.37,16.23c0,.26.1.55.13.86C63.45,51.65,63,55.66,62.55,55.59Z"/><path class="cls-23" d="M26,8.42a22.18,22.18,0,0,1,7.72,3.3c-.31-.08-5.35-1.51-7.24-1.44C25.91,9.11,25.68,8.38,26,8.42Z"/><path class="cls-24" d="M56,26.58c-2.74-1-10.1-.83-11.64-.31s6.16,3.2,9.46,4.37,3.82,1.3,3.82,1.3S57.06,27,56,26.58Z"/><path class="cls-24" d="M42.09,31.14a2.9,2.9,0,0,0-1.77,3.18c.19,1.39,2.65,7.23,3.22,7.71s8.81,1,9.67,1,.54-4.29-1.11-6.78S42.09,31.14,42.09,31.14Z"/><path class="cls-24" d="M23.1,5.69c-.59,0,4.13,10.32,6.22,11.93s11.45-1.4,11-3.59S28.72,5.36,23.1,5.69Z"/><path class="cls-25" d="M35.31,23.17c-1.71-.39-.29,4.61.89,5.72s6.59,1.93,6.59,1.93,11,4.37,11.9,4.62,3.06-2.79,3.06-2.79S47,28.84,43.07,26.77A81.84,81.84,0,0,0,35.31,23.17Z"/><path class="cls-25" d="M31.68,19.4c-1,.75,8.69,5.32,11.11,6s11,.36,11.55,0-7.43-6.42-10-7.78S31.68,19.4,31.68,19.4Z"/><path class="cls-25" d="M47.31,50.24C45.83,45,62.91,45,64.34,45.4s1.25,4.8,1.12,6.84-2.87,7.47-5.18,7.06S48.86,55.79,47.31,50.24Z"/><path class="cls-26" d="M43.66,27.07c-.94.06-.39,4.32,2,5.38a67,67,0,0,0,7.39,3c1,.14,3.3-2.7,3.3-2.7Z"/><path class="cls-27" d="M46.65,50.24c.77-1.5-.78-4.78-2.09-5.82S46.65,50.24,46.65,50.24Z"/><path class="cls-28" d="M63.19,49h0s-2.49-5.11-4.86-9.69a46,46,0,0,0-5-7.9c-.66-.83-1.23-.69-2.46-2s-.76-4.67-3.13-6.29-8.34-6.6-8.34-6.6L38,15.8l-4.33-4.07c6.67,4.06,13.87,10.52,15.82,11.85,2.77,1.88,3.55,6.83,5.16,8.36s7.86,13.75,8.37,16.23C63.11,48.43,63.16,48.72,63.19,49Z"/><path class="cls-28" d="M53,52.28s5.44.93,7.71,1.18S63.19,49,63.19,49s.69,6.22-.51,6.87S53,52.28,53,52.28Z"/><path class="cls-28" d="M41.84,36.74c-.73-.26-1.08,1.69-.25,3.78s3,.64,3,.64S42.71,37.05,41.84,36.74Z"/><path class="cls-29" d="M35.31,29.59c-.46-1.17,1-3.75.89-4.93S38.72,24,38.72,24s-4.07-1.27-4.2-1.82,1.15,2.88.79,4.21l-.8,2.93Z"/><path class="cls-29" d="M31.68,19.4c-1.68-1.47.44.33.44.33s-3.86.32-4.24,1.33-4.55,2.76-7,2.82-2.57,1.7-2.57,1.7.73-1.8.85-2,3.29-.13,4.5-.57,3.06-1.29,3.37-2.56-.51-2.21.72-2.84S31.68,19.4,31.68,19.4Z"/><path class="cls-29" d="M48.19,23.55a1.87,1.87,0,0,0-.5-1.39s1.81-1.28,1.54-1.51l-2.07-1.82-.53,2.46C46.57,21.57,47.84,22.42,48.19,23.55Z"/><path class="cls-29" d="M66.6,47l-4.13-.54a14.67,14.67,0,0,0-1.12,1.4c-.14.3-4.31-.48-5,0a7,7,0,0,1-2.71.54,8.9,8.9,0,0,0,1.81.19,2.37,2.37,0,0,1,1.94-.73c1.26.06,4,.49,4.33.54s1-.45,1.23-.54,2.76-.55,3-.56A1.19,1.19,0,0,0,66.6,47Z"/><path class="cls-30" d="M44.68,2.49a53,53,0,0,0-.51,5.65c.08,1.2,3.94,5,4.16,5.42s9.25-3,9.25-3S50.44.88,49.18.12,44.68,2.49,44.68,2.49Z"/><path class="cls-21" d="M49.18.12c-1.69.26,1,5.7,1.74,7.14s3.44,3.1,3.91,3.31a11.3,11.3,0,0,0,2.75,0S50.44.06,49.18.12Z"/><path class="cls-31" d="M48.33,13.56,52,11l2.84-.45h2.75S50.59,13.59,48.33,13.56Z"/><path class="cls-26" d="M47.53.36c-.68.39,1.33,2.34,1.67,2.31s.06-2.33,0-2.55S47.53.36,47.53.36Z"/><path class="cls-32" d="M76.93,21.69v.06c0,4.45-3.74,11.22-8.3,11.11a5,5,0,0,1-2.52-.78,13.16,13.16,0,0,1-4.17-3.84,8,8,0,0,1-1.39-3.69c-.27-2.65,1-5.46,4.38-8,3.69-2.72,11.1-.94,11.92,4.09A5.51,5.51,0,0,1,76.93,21.69Z"/><path class="cls-11" d="M76.93,21.75c0,4.45-3.74,11.22-8.3,11.11a5,5,0,0,1-2.52-.78,13.16,13.16,0,0,1-4.17-3.84,8,8,0,0,1-1.39-3.69,8.85,8.85,0,0,0,2.7,4l0,0a6.76,6.76,0,0,0,1.45,1,9.94,9.94,0,0,0,4,1.06C72.89,30.84,76.67,25.36,76.93,21.75Z"/><path class="cls-11" d="M68.63,32.86a5,5,0,0,1-2.52-.78,13.16,13.16,0,0,1-4.17-3.84c0-.12-.07-.24-.11-.37.15-.1.69.2,1.42.66l0,0,1.45,1a18.66,18.66,0,0,0,3.44,2C69.53,31.93,69.08,32.52,68.63,32.86Z"/><path class="cls-14" d="M61.62,22.58c-1.15,4.47,3.29,6.21,6.63,6.76s8-5.52,8.15-8.61-6.65-5.35-9.54-4.36S62,21,61.62,22.58Z"/><path class="cls-16" d="M69.08,23.23a1.56,1.56,0,0,1,2.52-1.75C72.35,22.53,69.7,24.79,69.08,23.23Z"/><path class="cls-33" d="M48.81,42.71c-.16-2.68,6.43-8.47,8.17-9,.88-.28,4.61.72,8.34,3.07s7.2,5.89,9.68,6.69c0,0-13.5,12.77-16.85,13S48.81,42.71,48.81,42.71Z"/><path class="cls-21" d="M57,33.7c1.57-.45,14.51,2.14,18,9.76a4.64,4.64,0,0,1-2.8.21c-1.55-.37-6.45-5.56-8-6.59A73.41,73.41,0,0,0,57,33.7Z"/><path class="cls-11" d="M72.2,43.67C71,43.64,58,55.51,57.61,56.09s.54.42.54.42,7-2.77,16.85-13C75,43.46,73,44.08,72.2,43.67Z"/><path class="cls-34" d="M69.63,41.89S71,44.31,71.2,44.2s2.35-.43,2.35-.43Z"/><path class="cls-35" d="M58.05,35.56c-2.3-1.18-6.88,4.45-6.67,6.29s3.55,7.32,5.88,9,10-6.8,8.64-9.75S58.05,35.56,58.05,35.56Z"/><path class="cls-36" d="M34.51,29.3S33,32.85,32.12,33.65s-5.79.24-8.46.67-4.34,2.39-5.35,2.78-2.22,4.24-2.22,4.24a22.13,22.13,0,0,1,5.76-5.06c3-1.58,2.27-1.39,3.37-1.64a13,13,0,0,1,6.31.31c2.73.83,2.75-4.56,5-4.77s-1.11-.4-1.19-.88S34.51,29.3,34.51,29.3Z"/></g></g></g></svg>