<svg xmlns="http://www.w3.org/2000/svg" xmlns:xlink="http://www.w3.org/1999/xlink" viewBox="0 0 74.83 69.7"><defs><style>.cls-1{isolation:isolate;}.cls-2{fill:url(#Áåçûìÿííûé_ãðàäèåíò_79);}.cls-3{fill:url(#Áåçûìÿííûé_ãðàäèåíò_79-2);}.cls-4{fill:url(#Áåçûìÿííûé_ãðàäèåíò_383);}.cls-5{fill:url(#Áåçûìÿííûé_ãðàäèåíò_383-2);}.cls-14,.cls-6,.cls-8{fill:#bf2a92;}.cls-6,.cls-9{opacity:0.5;}.cls-14,.cls-21,.cls-6,.cls-8,.cls-9{mix-blend-mode:multiply;}.cls-7{fill:#be5548;}.cls-21,.cls-8{opacity:0.8;}.cls-9{fill:#c77;}.cls-10{fill:#ffb8df;}.cls-10,.cls-11{mix-blend-mode:soft-light;}.cls-11{fill:#ffd8ff;}.cls-11,.cls-14{opacity:0.3;}.cls-12{fill:#a74e48;}.cls-13{fill:#f77a77;}.cls-15{fill:#ff243b;}.cls-16{fill:url(#Áåçûìÿííûé_ãðàäèåíò_79-3);}.cls-17{fill:#661029;}.cls-18{fill:#be443c;}.cls-19{fill:url(#Áåçûìÿííûé_ãðàäèåíò_7);}.cls-20{fill:#bb4948;}.cls-21{fill:#a72092;}.cls-22{fill:#ff9a6f;}.cls-23{fill:#4b001d;}.cls-24{fill:url(#Áåçûìÿííûé_ãðàäèåíò_79-4);}</style><linearGradient id="Áåçûìÿííûé_ãðàäèåíò_79" x1="0.64" y1="7.73" x2="17.4" y2="7.73" gradientUnits="userSpaceOnUse"><stop offset="0" stop-color="#a83c36"/><stop offset="0.73" stop-color="#a13b33"/><stop offset="1" stop-color="#9d3b31"/></linearGradient><linearGradient id="Áåçûìÿííûé_ãðàäèåíò_79-2" x1="43.92" y1="5.49" x2="72.41" y2="5.49" xlink:href="#Áåçûìÿííûé_ãðàäèåíò_79"/><linearGradient id="Áåçûìÿííûé_ãðàäèåíò_383" x1="37.25" y1="69.7" x2="37.25" y2="8.8" gradientUnits="userSpaceOnUse"><stop offset="0" stop-color="#4f0c1f"/><stop offset="0.31" stop-color="#561020"/><stop offset="0.75" stop-color="#691a22"/><stop offset="1" stop-color="#772224"/></linearGradient><linearGradient id="Áåçûìÿííûé_ãðàäèåíò_383-2" x1="59.38" y1="25.01" x2="59.38" y2="5.12" xlink:href="#Áåçûìÿííûé_ãðàäèåíò_383"/><linearGradient id="Áåçûìÿííûé_ãðàäèåíò_79-3" x1="10.66" y1="25.44" x2="74.5" y2="25.44" xlink:href="#Áåçûìÿííûé_ãðàäèåíò_79"/><linearGradient id="Áåçûìÿííûé_ãðàäèåíò_7" x1="39.52" y1="22.36" x2="39.52" y2="8.76" gradientUnits="userSpaceOnUse"><stop offset="0" stop-color="#6d151f"/><stop offset="0.65" stop-color="#721c22"/><stop offset="1" stop-color="#772224"/></linearGradient><linearGradient id="Áåçûìÿííûé_ãðàäèåíò_79-4" x1="18.24" y1="31.34" x2="22.03" y2="31.34" xlink:href="#Áåçûìÿííûé_ãðàäèåíò_79"/></defs><g class="cls-1"><g id="Layer_2" data-name="Layer 2"><g id="layer1"><path class="cls-2" d="M17.1,4.42l.3.1s-2.87,2.78-4.58,4.7l-.24.26-.42.49a7.59,7.59,0,0,0-.49.67.55.55,0,0,0-.12.31c0,.3.84.88,1.9,1.55l-11.74.56L.64,9.28h0C1,8.92,7.19,3.38,9.37,2.53,11.11,1.86,15,3.68,17.1,4.42Z"/><path class="cls-3" d="M72.4,6.42c0,.07,0,.14-.1.22C70.57,8,49.14,10.79,49.14,10.79L45.38,11c-.5-.72-.94-1.37-1.3-1.92l-.16-.24.15-.35.12-.3,1.24-3,.74-1.75c.46-.1,1-.24,1.49-.39l.06,0c.8-.22,1.66-.51,2.52-.76h0a16.9,16.9,0,0,1,4.87-1A52.92,52.92,0,0,0,63,.5L63.5.42c.89-.15,1.65-.3,2.16-.4C67.24-.31,70.05,3,71.52,5c0,0,0,0,0,0h0l0,.06s0,0,0,0l.07.09c.12.17.31.45.49.74l.16.29s0,0,0,0Z"/><path class="cls-4" d="M74.5,44.11c-.57,12.18-1.62,22.73-2.17,23.57C71,69.67,10,71.6,4.56,66.1,2.87,64.39-1.67,15,.64,9.28h0l.15-.06A4.27,4.27,0,0,1,1.87,8.9h0l.32,0h0a29.19,29.19,0,0,1,7.31.63l2.59.49a7.59,7.59,0,0,0-.49.67.55.55,0,0,0-.12.31c0,.3.84.88,1.9,1.55s2.21,1.32,3.29,1.92l1,.52c.81.43,1.24,1.77,1.47,3.32a32,32,0,0,1,.28,4c0,.11,0,.22,0,.32V23c0,.43,0,.8,0,1.07s0,.52.09.52,1.89,1.64,4.51,4l.72.64.1.09.43.39c1.31,1.15,2.78,2.44,4.34,3.75.51.43,1,.87,1.56,1.3a.24.24,0,0,0,.08.06l.49.41c1.62,1.33,3.29,2.64,4.94,3.86l.2.15a.71.71,0,0,1,.14.1c1,.74,2,1.45,3,2.09h0l.08,0A40.17,40.17,0,0,0,44,43.65l.12.06,0,0c.44.22.87.41,1.29.58s.78.31,1.15.44l.05,0,.39.14a22.66,22.66,0,0,0,5.19,1.23l.45,0a1,1,0,0,0,.24,0c3.94.22,6.24-1.29,7.27-3.26a5.11,5.11,0,0,0,.22-.48s0,0,0,0a.72.72,0,0,1,.12-.21,1.63,1.63,0,0,1,.88-.66c1.63-.6,4.8,0,7.62.76l.58.16C72.27,43.25,74.5,44.11,74.5,44.11Z"/><path class="cls-5" d="M44.08,9.05l-.16-.24A25.6,25.6,0,0,0,50,8.51h0a20.13,20.13,0,0,0,2.52-1l.58-.21a18.27,18.27,0,0,1,3.31-.74c2.89-.42,6.17-.4,7.88.17s3.55-.49,5.13-1.25h0l.62-.29a6.84,6.84,0,0,1,1.42.48l.17.09a2.2,2.2,0,0,1,.63.6s0,0,0,0a3.14,3.14,0,0,1,.26.45h0c1.36,2.53,2,8.63,2.21,16a17.1,17.1,0,0,0-4.32,1.75l0,0h0c-1.2.72-3.73.42-6.48-.18-.6-.13-1.22-.28-1.84-.44h0L60,23.41h0l-2.52-.7h-.09l0,0,0,0L56,22.31h0a4.41,4.41,0,0,1-1.26-.59,1.75,1.75,0,0,1-.25-.16,8.9,8.9,0,0,1-.78-.59,43.21,43.21,0,0,1-6.27-7.09L47,13.23c-.57-.79-1.11-1.56-1.6-2.26S44.44,9.6,44.08,9.05Z"/><path class="cls-6" d="M5,14.94C2.6,16.26,8.69,62.82,9.87,63.17s5.3-5.19,6.28-7.62S14,25,13.73,24.25,5,14.94,5,14.94Z"/><path class="cls-6" d="M69,42.32l.58.16c-.75,11.09-1.75,20.84-2.7,21.31-.56.28-1.44-.14-2.39-.9A19.75,19.75,0,0,1,61,59l0,0c-.25-.35-.47-.69-.66-1a5.35,5.35,0,0,1-.75-1.78,48.69,48.69,0,0,1,.19-4.89c0-.3,0-.55,0-.75l0-.44c0-.31,0-.63.07-1V49a.31.31,0,0,0,0-.1c.13-2,.3-4.18.48-6.49,0,0,0,0,0,0a.72.72,0,0,1,.12-.21,1.63,1.63,0,0,1,.88-.66C63,41,66.17,41.55,69,42.32Z"/><path class="cls-6" d="M70.75,14.23c0,2.64-.09,6.25-.24,10.33l0,0h0c-1.2.72-3.73.42-6.48-.18-.6-.13-1.22-.28-1.84-.44h0c0-.19,0-.37.07-.53a.25.25,0,0,0,0-.08,8,8,0,0,1,.23-1.2l0-.11a10.77,10.77,0,0,1,1.28-1.76l.46-.53.44-.49c.72-.79,1.53-1.63,2.33-2.4l0,0c.76-.73,1.5-1.4,2.12-1.89h0a7.23,7.23,0,0,1,1.15-.8C70.58,14,70.75,14,70.75,14.23Z"/><path class="cls-7" d="M19.47,22.29c0,.11,0,.22,0,.32V23l-1,0c-2.89-.09-5-.31-5.65-.68l-.5-.27-.64-.36,0,0-.33-.2c-.56-.32-1.12-.67-1.67-1h0c-2.73-1.82-5.07-4-4.64-5.44l11.78-.52,1,.52c.81.43,1.24,1.77,1.47,3.32A32,32,0,0,1,19.47,22.29Z"/><path class="cls-7" d="M70.75,13.06a2.59,2.59,0,0,1-.47,1.08,21,21,0,0,1-5.1,5.25h0l-.42.29a10.31,10.31,0,0,1-1,.59,7.51,7.51,0,0,1-1.85.72c-.69.15-2.56.36-5.18.57l-2,.15a1.75,1.75,0,0,1-.25-.16,8.9,8.9,0,0,1-.78-.59,43.21,43.21,0,0,1-6.27-7.09L47,13.23C59.88,12.8,70.75,12.58,70.75,13.06Z"/><path class="cls-8" d="M10.38,63.88c-.14.51,54.11,1,54.76.43s-5.39-6.77-6.27-7.26-39.08-.54-41.44,0S10.6,63.05,10.38,63.88Z"/><path class="cls-8" d="M11.44,64.58c-3.14-2.43,5.1-6.92,23.47-7.92s29.65,6.62,30.73,7.92S29.32,71.33,11.44,64.58Z"/><path class="cls-9" d="M50,8.51c-1.78.26-4.49-4.32-3.83-4.77s4.26-1.81,5.54-1.58,2,3.67,1.72,4.38S50,8.51,50,8.51Z"/><path class="cls-9" d="M63,.5c-3,1.11,0,5.17,1.53,5.89s4.37-.46,5.11-1.29S67,.19,65.65.24A24.34,24.34,0,0,0,63,.5Z"/><path class="cls-7" d="M6.62,8.52a29.15,29.15,0,0,1,6,1l-.42.49a7.59,7.59,0,0,0-.49.67c-1.23-.12-2.49-.24-3.64-.33H8c-1.05-.09-2-.15-2.77-.16H4.66c-3,0-4-.86-4-.86h0l.15-.06A8.12,8.12,0,0,1,1.87,8.9h0a6.83,6.83,0,0,1,1-.18.45.45,0,0,1,.16,0,21,21,0,0,1,3.05-.18h.53Z"/><path class="cls-7" d="M72.62,6.77h0l-.31-.13a9.74,9.74,0,0,0-2.58-.73c-.89,0-2.88,1-4.25,1.25s-2.63-.69-4-.63c-1.09,0-5,.71-7.09,1.09h-.07l-.28,0-.93.17C52.24,8,50.47,8.9,48.9,8.93l-4.82.12-.16-.24.15-.35c2.75,0,4.84,0,5.46,0a4.48,4.48,0,0,0,1.1-.21l.14-.06A1.11,1.11,0,0,0,51,8.07L51.19,8c.65-.35,1.11-.83,1.82-1.19h0l.39-.18a4.66,4.66,0,0,1,.79-.23,15.83,15.83,0,0,1,1.91-.24h0c2.75-.22,6.71-.21,7.41-.17a1.63,1.63,0,0,1,.46.09h0c.54.17.88.54,1.63.54h.15l.21,0A15.62,15.62,0,0,0,69.52,5.2l.54-.3.07,0,.08,0,.09,0a1.1,1.1,0,0,1,.67,0l.12,0a1.36,1.36,0,0,1,.44.23h0a0,0,0,0,0,0,0l.12.19c.12.17.31.45.49.74A7,7,0,0,1,72.62,6.77Z"/><path class="cls-10" d="M53,6.8c-.89.77-.4,1.12,1.24.83a3.79,3.79,0,0,0,2.44-1.4C56.8,6.11,53.9,6.05,53,6.8Z"/><path class="cls-10" d="M70.21,4.84c-.95.49-1,.85,0,1.13s1.65-.47,1.34-.9S70.21,4.84,70.21,4.84Z"/><path class="cls-10" d="M2.21,8.86c-1.58.39,1.63,1.47,5.89,1.46S7.77,7.49,2.21,8.86Z"/><path class="cls-11" d="M46.59,8.05c-.12,0-1,.08-2.4.11l1.24-3C46.26,6.33,47,7.89,46.59,8.05Z"/><path class="cls-11" d="M17.4,4.52s-2.87,2.78-4.58,4.7C10.2,8.59,6.77,7.74,4.9,8,1.69,8.35,7.61,3.44,9.77,3c1.85-.35,6.15,1,7.33,1.39Z"/><path class="cls-11" d="M54,1.86c-1.08,1,.26,4,.66,4.17s7.65-.51,7.92-.47-1-4-1.9-4.29S54.51,1.39,54,1.86Z"/><path class="cls-11" d="M19.19,18.26a32,32,0,0,1,.28,4H16.34l-.38,0-.46-.08C11.57,21.49,13.76,19.88,19.19,18.26Z"/><path class="cls-11" d="M69.13,14.94h0C69,15.32,68.35,16,67,16.84l0,0c-2.34,1.42-6.65,3.19-13.26,4.11a43.21,43.21,0,0,1-6.27-7.09C64.73,12.91,69.33,14,69.13,14.94Z"/><path class="cls-11" d="M19.48,23c0,.43,0,.8,0,1.07-2.67.19-4.4.4-4.49.62a56.14,56.14,0,0,0,.12,6.1c.19,4,.48,9.11.72,13.17.05.77.09,1.5.13,2.18l0,.42c0,.27,0,.53.05.78a.49.49,0,0,0,0,.12c.06,1.06.11,1.91.15,2.46,0,.31,0,.52,0,.62-.08-.8-.9-8.59-1.64-15.28v0c-.52-4.82-1-9-1.12-9.67-.29-1.47-3.68-5-3.89-5.18h0a12.19,12.19,0,0,0,1.72,1.09,2.44,2.44,0,0,0,.28.14l0,0a7,7,0,0,0,.73.33h0a8.24,8.24,0,0,0,2.66.64c.36,0,1.25,0,2.55,0l1.86,0Z"/><path class="cls-11" d="M60.37,42.43a.72.72,0,0,1,.12-.21c-.31,3.38-.55,6.05-.61,6.72,0-.62.14-3,.26-6a5.11,5.11,0,0,0,.22-.48S60.37,42.44,60.37,42.43Z"/><path class="cls-11" d="M65.17,19.4c-.18.2-2.85,3.27-3,3.9a.11.11,0,0,1,0,.05.25.25,0,0,1,0,.08c0,.12,0,.3,0,.54h0L60,23.41h0a.35.35,0,0,0-.07-.09c-.53-.49-1.12-.63-2.45-.61h-.09l0,0,0,0L56,22.31h0a4.41,4.41,0,0,1-1.26-.59,1.75,1.75,0,0,1-.25-.16L57,21.4c.62,0,1.09-.1,1.38-.15a33.47,33.47,0,0,0,5.8-1.5c.28-.09.51-.18.67-.24Z"/><path class="cls-11" d="M16.32,52s1.16,4.31,21.51,4.13,22-6.08,22-6.08-.4,5.92-.15,6.52.66,1.36.66,1.36a15.85,15.85,0,0,0-2.18-1c-.59-.15-38.68-.18-39.91.06A12,12,0,0,0,15,58.5a31.37,31.37,0,0,0,1.13-3A13.42,13.42,0,0,0,16.32,52Z"/><path class="cls-8" d="M37,39.23c-.82,2-3.48,1.51-5-.3a2.06,2.06,0,0,1-.19-.25h0s0,0,0,0l-.05-.06a0,0,0,0,1,0,0,4.22,4.22,0,0,1-.51-.88L31,37.42l0-.08a.58.58,0,0,1,0-.18,2.44,2.44,0,0,1,0-1.39c0-.07,0-.14.05-.21a3.15,3.15,0,0,1,.34-.75l.49.41c1.62,1.33,3.29,2.64,4.94,3.86Z"/><path class="cls-8" d="M44.07,43.71c-.57,2.1-2.57,3.67-7,3.7a12.73,12.73,0,0,1-4.43-.77l0,0-.52-.21L31.19,46l-.35-.19-.73-.42h0l0,0a14.69,14.69,0,0,1-6.39-8.83h0a.08.08,0,0,0,0,0h0a.13.13,0,0,0,0-.06,8.36,8.36,0,0,1,1.27-7.09l.43.39c1.31,1.15,2.78,2.44,4.34,3.75a6.36,6.36,0,0,0-.83,2.19,6.07,6.07,0,0,0,.18,3.11v0s0,0,0,0a1.2,1.2,0,0,0,.06.17A8,8,0,0,0,36,43.77h0a4.39,4.39,0,0,0,3.29-1,2.06,2.06,0,0,0,.22-.25,1.56,1.56,0,0,0,.24-.35,1,1,0,0,0,.14-.22c.08-.17.16-.34.22-.51l.08,0A40.17,40.17,0,0,0,44,43.65Z"/><path class="cls-8" d="M52.63,46.18a11.5,11.5,0,0,1-3.8,3.8,23,23,0,0,1-7.19,2.89,28.88,28.88,0,0,1-8,.8A10.06,10.06,0,0,1,28,50.9s0,0,0,0h0c-1.32-1.26-2-2.63-1.49-3.46.27-.4.95-.16,2,.27a21,21,0,0,0,5.83,1.71l.42,0a14.66,14.66,0,0,0,4.12-.19,13.55,13.55,0,0,0,3.25-1l.22-.1a11.46,11.46,0,0,0,4.23-3.35l.05,0,.39.14a22.66,22.66,0,0,0,5.19,1.23Z"/><path class="cls-12" d="M52.87,46.19a8.1,8.1,0,0,1-4,3.76l-.06,0a50.11,50.11,0,0,1-7.19,2.89c-4.78,1.45-10.37,2-13.66-2,0,0,0,0,0,0,.36.3,4,3.21,12.17,2a20.51,20.51,0,0,0,12-6.74l.45,0A1,1,0,0,0,52.87,46.19Z"/><path class="cls-12" d="M44.11,43.73C43.78,45,42.79,46.65,40,47.38a11.94,11.94,0,0,1-7.37-.74l0,0-.52-.21L31.19,46l-.35-.19-.73-.42a0,0,0,0,0,0,0h0c.51.23,5.76,2.55,10,1.29a5.34,5.34,0,0,0,3.8-3l.12.06Z"/><path class="cls-12" d="M37.11,39.33a1.8,1.8,0,0,1-1.6,1.41c-1.7.22-3-1.14-3.59-1.81a2.06,2.06,0,0,1-.19-.25A4.48,4.48,0,0,0,35,40.32a1.93,1.93,0,0,0,1.79-1.24l.2.15A.71.71,0,0,1,37.11,39.33Z"/><path class="cls-8" d="M23.67,36.46h0a8.3,8.3,0,0,1,1.16-7.25l.1.09.43.39A10.08,10.08,0,0,0,23.67,36.46Z"/><path class="cls-8" d="M31.34,34.81l.49.41a6.4,6.4,0,0,0-.69,2.48L31,37.42c0-.09-.05-.17-.07-.26a4,4,0,0,1,0-1.39c0-.07,0-.14.05-.21a4.23,4.23,0,0,1,.26-.81A.24.24,0,0,0,31.34,34.81Z"/><path class="cls-8" d="M40.22,41.48c-.42,1.33-1.55,2.91-4.52,2.83C31.25,44.19,29.5,40,29.13,39a1.2,1.2,0,0,1-.06-.17,8.91,8.91,0,0,0,6.53,4.9l.39.06h0a3.65,3.65,0,0,0,3.29-1,2.06,2.06,0,0,0,.22-.25,1.56,1.56,0,0,0,.24-.35,4.52,4.52,0,0,0,.35-.74h0Z"/><path class="cls-8" d="M47,44.91a9,9,0,0,1-6.36,4.42C32.89,51,28.89,48,28.51,47.7a13,13,0,0,0,5.8,1.69l.42,0a18.56,18.56,0,0,0,6.14-.79c.43-.13.84-.27,1.23-.43l.22-.1a9.53,9.53,0,0,0,4.28-3.33Z"/><path class="cls-13" d="M56.71,21.58c-.42.39,4.31.83,5.25.71s3.23-3.15,3.23-3.15S57.35,21,56.71,21.58Z"/><path class="cls-6" d="M69,42.32c-.82,7.28-1.83,13.34-2.76,13.45-2,.24-5.07-8.23-4.86-14.21C63,41,66.17,41.55,69,42.32Z"/><path class="cls-6" d="M70.47,24.59h0c-1.2.72-3.73.42-6.48-.18A11.72,11.72,0,0,1,64.56,22c1.13-2.44,5.39-7.32,6-4.39A49.09,49.09,0,0,1,70.47,24.59Z"/><path class="cls-6" d="M4.91,20.32c-.07-2,7.07,3,8.59,5.25S15.37,43.3,12.22,46,5.15,28.27,4.91,20.32Z"/><path class="cls-14" d="M24.2,42.74C25.7,46,20.93,52,20.93,52c-1.69,1-3.83-2.74-5.07-8l-.06-.27a38.67,38.67,0,0,1-.93-9.88,30,30,0,0,1,.27-3,21.22,21.22,0,0,1,1.2-4.69c.23-.59,1.43-1.09,3.26-1.51.13,0,1.89,1.64,4.51,4C21,32.69,23,40.16,24.2,42.74Z"/><path class="cls-14" d="M57.31,22.65,56,22.31A2.52,2.52,0,0,1,57.31,22.65Z"/><path class="cls-15" d="M57.5,22.7h-.09l0,0Z"/><path class="cls-16" d="M17.4,4.52l5.9,6.72c.76.87,3.28,1.63,3.54,2.26s5.95,8.22,7.58,9.48S58.27,35.54,60.49,36.2s10.8,2.62,12.13,3.47,1.88,4.44,1.88,4.44-12.08-2.9-12.38-2.55a44.92,44.92,0,0,1-3.52,4.11c-.94.8-7.67,1-12.07,0S19.14,25,18.7,24.59s-.45-7.68-.83-8.5a5.6,5.6,0,0,0-2.41-2,43.59,43.59,0,0,1-4.78-3.41C10.16,10.15,17.4,4.52,17.4,4.52Z"/><path class="cls-17" d="M74.83,22.81a4.47,4.47,0,0,0-1.38-.16c-1,0-2.88,1.66-4.93,1.94s-6.36-.92-7.16-1.24S57.12,21.8,56,21.47s-7.27-7.17-7.15-7.42a8,8,0,0,1,1.77-.93S44.85,9.92,44.52,9s1.59-3.92,1.59-3.92l.06-1.67S44,7.78,43.79,8.53s2.51,4.58,2.93,4.75,1.27,3.9,1.49,4.21,6.92,4.92,7.82,5.16,9.1,2.92,10.09,2.79,3.69-.25,4.22-.43A11.93,11.93,0,0,1,74.83,22.81Z"/><path class="cls-6" d="M11.16,11c-.48-.4,5.68-5.54,6.24-5.71s5.85,5.67,5.71,6.43-5.53,2.82-6.37,2.66S11.16,11,11.16,11Z"/><path class="cls-6" d="M18.7,24.31c-.18-.4-.42-6.82,0-7.62s8.18-3.1,8.24-3,6.92,10,7.16,10-.9,6-4.45,5.55S18.7,24.31,18.7,24.31Z"/><path class="cls-7" d="M16.74,14.42c-.31,0,1.4,1.41,1.4,1.41s5.64-1.32,7.22-1.73,1.48-.6,1.48-.6S24.15,12.14,23.63,12,16.74,14.42,16.74,14.42Z"/><path class="cls-18" d="M74.5,44.11s-10.18-1.79-11-1.89a3.55,3.55,0,0,0-1.65.24c-.15,0-2.61,3.48-2.8,3.73a28.24,28.24,0,0,1-6.87.86c-1.89-.09-7.72-1.43-9.09-2.42s-6-5.3-6-5.3,10,6.1,11.2,6.34,8.07-.69,9.71-.9,3.8-3.17,4.1-3.45S72.23,43.5,72.23,43.5Z"/><path class="cls-18" d="M16.34,24s6.61,5.14,8,6.07,7.07,5,7.07,5-11.53-10.67-11.85-11A36.89,36.89,0,0,1,18,16.49c.17-.66.43,0,.17-.66a14.25,14.25,0,0,0-2.68-2.36L12.2,10.64l-1.82-.32-2.87-.11s4.38,1.5,4.71,1.54a29.73,29.73,0,0,1,4.48,4.78C17.17,17.41,16.34,24,16.34,24Z"/><path class="cls-13" d="M16.34,24c-.48-.91,2.08-4.28,2.13-4s2.13,5.35,2.46,6.11S16.34,24,16.34,24Z"/><path class="cls-13" d="M9.76,11c-2.61-1.25,3.06-1.75,3.06-1.75a22.36,22.36,0,0,1-.24,2.71C12.47,11.91,9.76,11,9.76,11Z"/><path class="cls-11" d="M28.51,30.9c-.1-1.42,7.26-3.36,8.46-3.91S61.48,37.25,63,38.24s-4.41,4.29-4.69,5.41-9.27.79-14.51-1.1S28.51,30.9,28.51,30.9Z"/><path class="cls-19" d="M33.32,11.25a55.82,55.82,0,0,0-.51,5.65c.09,1.2,3.95,5,4.16,5.42s9.25-3,9.25-3S39.09,9.64,37.83,8.88,33.32,11.25,33.32,11.25Z"/><path class="cls-20" d="M37.83,8.88c-1.69.25.94,5.7,1.73,7.14s3.44,3.1,3.92,3.31a11.23,11.23,0,0,0,2.74,0S39.09,8.82,37.83,8.88Z"/><path class="cls-21" d="M37,22.32l3.67-2.54,2.84-.45h2.74S39.23,22.34,37,22.32Z"/><path class="cls-22" d="M36.18,9.11c-.69.4,1.33,2.35,1.66,2.32s.06-2.33,0-2.55S36.18,9.11,36.18,9.11Z"/><path class="cls-23" d="M34.65,23.67s-.52,4.29-2.26,5.64c-.76.6-5.72.62-7,.39S20.59,27.12,19.67,27,16,33.6,15.33,34.43a2.72,2.72,0,0,0-.77,2.08c0,.76-4.18,15.67-4.18,15.67s4.44-14,4.51-14.48a2.82,2.82,0,0,1,1.81-2c1-.26,1.74-2,2.18-4.08A3.48,3.48,0,0,1,21.77,29c.39,0,6,2.93,6.19,3s3.87-2.05,4.85-2.36,1.37-3.4,1.61-4.23A6.59,6.59,0,0,0,34.65,23.67Z"/><path class="cls-24" d="M18.24,33.85s1.32-2,2.07-3A11.84,11.84,0,0,1,22,29.12a2.31,2.31,0,0,1-.77-.27c-.38-.23-1.42,1.4-1.75,2S18.24,33.85,18.24,33.85Z"/><path class="cls-23" d="M0,15.83s4.49-.93,5.44-1.17a83.43,83.43,0,0,1,9.4-.15c1.16.09,9.09-2.77,9.09-2.77l-1.72-1.53s-.07,1.36-.44,1.72S16.38,13.15,15,13.06s-2.68-.59-3.63-.54-3,2.15-5.11,1.9S.66,15,.5,14.94s-.5-.52-.5-.52Z"/></g></g></g></svg>