<svg xmlns="http://www.w3.org/2000/svg" xmlns:xlink="http://www.w3.org/1999/xlink" viewBox="0 0 73.46 66.78"><defs><style>.cls-1{isolation:isolate;}.cls-2{fill:#f3523d;}.cls-3{fill:url(#Áåçûìÿííûé_ãðàäèåíò_548);}.cls-4{fill:url(#Áåçûìÿííûé_ãðàäèåíò_561);}.cls-5,.cls-6{fill:#db877c;}.cls-14,.cls-5{opacity:0.64;}.cls-11,.cls-14,.cls-17,.cls-29,.cls-5,.cls-6,.cls-9{mix-blend-mode:multiply;}.cls-6{opacity:0.2;}.cls-7{fill:#cd5436;}.cls-8{fill:url(#Áåçûìÿííûé_ãðàäèåíò_458);}.cls-9{fill:#bb1892;}.cls-11,.cls-9{opacity:0.4;}.cls-10{fill:#ff9650;}.cls-12{fill:#a0003b;}.cls-13{fill:url(#Áåçûìÿííûé_ãðàäèåíò_30);}.cls-14{fill:#db727c;}.cls-15{fill:url(#Áåçûìÿííûé_ãðàäèåíò_548-2);}.cls-16{fill:url(#Áåçûìÿííûé_ãðàäèåíò_494);}.cls-17{fill:#c25792;}.cls-17,.cls-29{opacity:0.6;}.cls-18{fill:#ff8140;}.cls-19{fill:#ff956d;mix-blend-mode:soft-light;}.cls-20{fill:#ff6a4d;}.cls-21{fill:url(#Áåçûìÿííûé_ãðàäèåíò_458-2);}.cls-22{fill:#cc5748;}.cls-23{fill:#f47c48;}.cls-24{fill:#ffeeef;}.cls-25{fill:#ff9d59;}.cls-26{fill:#ffb87c;}.cls-27{fill:#f86f48;}.cls-28{fill:#ff9a6f;}.cls-29{fill:#bf6d92;}</style><linearGradient id="Áåçûìÿííûé_ãðàäèåíò_548" x1="47.29" y1="66.68" x2="47.29" y2="29.91" gradientUnits="userSpaceOnUse"><stop offset="0" stop-color="#c23c25"/><stop offset="1" stop-color="#d85b2e"/></linearGradient><linearGradient id="Áåçûìÿííûé_ãðàäèåíò_561" x1="41.12" y1="66.66" x2="41.12" y2="27.44" gradientUnits="userSpaceOnUse"><stop offset="0" stop-color="#ae2825"/><stop offset="1" stop-color="#b4482e"/></linearGradient><linearGradient id="Áåçûìÿííûé_ãðàäèåíò_458" x1="25.64" y1="48.48" x2="25.64" y2="43.24" gradientUnits="userSpaceOnUse"><stop offset="0" stop-color="#d14d00"/><stop offset="1" stop-color="#c51a00"/></linearGradient><linearGradient id="Áåçûìÿííûé_ãðàäèåíò_30" x1="37.47" y1="64.91" x2="37.47" y2="25.65" gradientUnits="userSpaceOnUse"><stop offset="0" stop-color="#ffbba4"/><stop offset="1" stop-color="#ffd1c9"/></linearGradient><linearGradient id="Áåçûìÿííûé_ãðàäèåíò_548-2" x1="32.33" y1="66.68" x2="32.33" y2="22.41" xlink:href="#Áåçûìÿííûé_ãðàäèåíò_548"/><linearGradient id="Áåçûìÿííûé_ãðàäèåíò_494" x1="26.03" y1="66.66" x2="26.03" y2="19.01" gradientUnits="userSpaceOnUse"><stop offset="0" stop-color="#db5925"/><stop offset="1" stop-color="#e77a2e"/></linearGradient><linearGradient id="Áåçûìÿííûé_ãðàäèåíò_458-2" x1="10.84" y1="48.48" x2="10.84" y2="43.24" xlink:href="#Áåçûìÿííûé_ãðàäèåíò_458"/></defs><g class="cls-1"><g id="Layer_2" data-name="Layer 2"><g id="layer1"><polygon class="cls-2" points="10.76 17.8 12.03 16 16.8 17.6 13.71 19.01 10.76 17.8"/><path class="cls-3" d="M73.45,40.06a34.42,34.42,0,0,1-5.24,14.26,28.8,28.8,0,0,1-3,3.84,24.56,24.56,0,0,1-18.13,8.5l-2.9,0h0c-1.37,0-2.74,0-3,0a19.94,19.94,0,0,1-3.55-.57,16.55,16.55,0,0,1-2.57-.88.94.94,0,0,1-.23-.1c-.36-.15-.7-.32-1-.5a3.75,3.75,0,0,1-.44-.24,1.35,1.35,0,0,1-.26-.15h0l-.25-.16a18.11,18.11,0,0,1-4-3.26,21.92,21.92,0,0,1-2.5-3.31c-.16-.25-.31-.5-.45-.76h0c-.21-.35-.41-.71-.59-1.08-2.68-5.18-4-11.82-4.16-19.14a52.62,52.62,0,0,1,.29-6.58c.95.33,1.95.64,3,1s2.12.65,3.14,1a34,34,0,0,1,3.72,1.45c2,1,1.43,2.3,3.32,3.18,2.82,1.32,6.2,1.78,9.15,2.25a28.84,28.84,0,0,1,3.9.82,11.15,11.15,0,0,1,4.45,3,.34.34,0,0,0,.14,0,5.52,5.52,0,0,0,.95-.07A13.18,13.18,0,0,0,56,41.67a11.35,11.35,0,0,0,2.37-1.26l.13-.1c.61-.47.94-.94.78-1.32-.44-1.07,1.51-.62,3.37-.23.36.07.71.14,1,.19l.2,0a5.59,5.59,0,0,1,2.12.89,9.83,9.83,0,0,0,1.24.68,4.37,4.37,0,0,0,1.94.32A.93.93,0,0,1,70,40.8,24.25,24.25,0,0,0,73.45,40.06Z"/><path class="cls-4" d="M67.27,40.56a34.09,34.09,0,0,1-5.45,14.32l-.33.45c-.48.7-1,1.38-1.54,2a27.33,27.33,0,0,1-5.52,5,1.37,1.37,0,0,1-.21.15,23.13,23.13,0,0,1-13,4.12c-.4,0-.79,0-1.18,0h-.05a19.16,19.16,0,0,1-3-.38,18.71,18.71,0,0,1-2.67-.7,1.12,1.12,0,0,1-.31-.1,16.38,16.38,0,0,1-1.76-.68c-.26-.11-.52-.22-.78-.35-.5-.23-1-.49-1.46-.77h0a25.39,25.39,0,0,1-5-3.7l-.25-.23a25.25,25.25,0,0,1-2.91-3.26h0l-.53-.69c-.38-.54-.76-1.09-1.1-1.66a6.37,6.37,0,0,1-.35-.55c-.28-.47-.56-1-.82-1.45l0-.05a.11.11,0,0,0,0,0A35,35,0,0,1,15,36.49a37.33,37.33,0,0,1,.9-9c.68.36,1.38.73,2.11,1.09a29.47,29.47,0,0,0,3.43,1.38c.95.33,1.95.64,3,1s2.12.65,3.14,1a34,34,0,0,1,3.72,1.45c2,1,1.43,2.3,3.32,3.18,2.82,1.32,6.2,1.78,9.15,2.25a28.84,28.84,0,0,1,3.9.82,11.15,11.15,0,0,1,4.45,3,.34.34,0,0,0,.14,0,5.52,5.52,0,0,0,.95-.07A13.18,13.18,0,0,0,56,41.67a11.35,11.35,0,0,0,2.37-1.26l.13-.1c.61-.47.94-.94.78-1.32-.44-1.07-2.64-4.54-.78-4.15.36.07,5.2,3.17,5.53,3.22.07,0,.21.37.28.38.87.14,1.08,1.06,1.7,1.44A9.83,9.83,0,0,0,67.27,40.56Z"/><path class="cls-5" d="M36.27,54.84a15.51,15.51,0,0,0,4.34,1.89,14.89,14.89,0,0,1-5.12-1.13c-.3-.12-.59-.25-.88-.4s-.48-.23-.72-.37l-.23-.13a18.46,18.46,0,0,1-6.61-6.59h0a7.84,7.84,0,0,1-.41-.69l-.36-.68a22.42,22.42,0,0,1-1.38-3.42s0,0,0,0a23.89,23.89,0,0,1-1.07-6.8,24.15,24.15,0,0,1,.57-5.62c1.06.33,2.12.65,3.14,1A24.48,24.48,0,0,0,27.05,37c.07,7.21,3.26,13.46,8,17a.18.18,0,0,0,.09.07,5.45,5.45,0,0,0,.51.37C35.85,54.58,36.06,54.71,36.27,54.84Z"/><path class="cls-6" d="M58.39,40.41c-.07.41-.16.81-.26,1.21a1.34,1.34,0,0,1-.07.27,21.89,21.89,0,0,1-1.81,4.82,20.57,20.57,0,0,1-1.63,2.68,17.89,17.89,0,0,1-8.08,6.38h0l-.72.25h0a14.53,14.53,0,0,1-4.37.7h-.17c-.21,0-.41,0-.61,0a15.51,15.51,0,0,1-4.34-1.89c-.21-.13-.42-.26-.62-.41a5.45,5.45,0,0,1-.51-.37.18.18,0,0,1-.09-.07c-4.74-3.56-7.93-9.81-8-17a24.48,24.48,0,0,1,.48-5.11,34,34,0,0,1,3.72,1.45c2,1,1.43,2.3,3.32,3.18,2.82,1.32,6.2,1.78,9.15,2.25a28.84,28.84,0,0,1,3.9.82,11.15,11.15,0,0,1,4.45,3,.34.34,0,0,0,.14,0,5.52,5.52,0,0,0,.95-.07A13.18,13.18,0,0,0,56,41.67,11.35,11.35,0,0,0,58.39,40.41Z"/><path class="cls-5" d="M68.21,54.32a.54.54,0,0,1,0,.11,13.9,13.9,0,0,1-2.91,3.73c-4.65,4.43-12,7.44-12,7.44-.45.29,3.36-4,6.7-8.25l.46-.61c.22-.27.37-.47.46-.59l.06-.09h0l0,0,.53-.7.33-.45.32-.45c3.56-5,5.47-12.62,7.07-13.55A.93.93,0,0,1,70,40.8C71.48,41.31,72.69,45.36,68.21,54.32Z"/><path class="cls-7" d="M18.91,52S26.5,64.26,38.45,65.6,61,56,61,56,52.28,68,40.39,66.68C24.21,64.83,18.91,52,18.91,52Z"/><path class="cls-8" d="M24.78,43.33c-1.6.77-1.73,5.57,1.42,5.12S26.5,42.49,24.78,43.33Z"/><path class="cls-9" d="M24.78,43.33c-1.07.39-1,3.4.54,3.6A1.66,1.66,0,0,0,27,44.75C26.65,44.24,25.39,43.1,24.78,43.33Z"/><path class="cls-10" d="M23.94,46.94c-.1-.44,1.51.79,2.4.57,1.65-.42.73-1.94.9-1.88s.83,2.15-.58,2.7A2.07,2.07,0,0,1,23.94,46.94Z"/><g class="cls-11"><path class="cls-12" d="M40.3,51.86c1.69.27,1.05-2.11.08-2.28S37.67,51.44,40.3,51.86Z"/><path class="cls-12" d="M30,59.91c1.4-1.14,4,2.19,3.34,2.77S28.32,61.29,30,59.91Z"/></g><path class="cls-6" d="M39.16,65.34c-2.95-1.92,10.43-5.8,16.14-16.21C61.14,38.49,64,42.47,64.7,45S62.11,64,39.16,65.34Z"/><path class="cls-13" d="M63.71,39a29,29,0,0,1-.59,3.54c-2.48,11.18-10.63,19.76-20.67,21.9-.56.12-1.12.22-1.69.29a12,12,0,0,1-1.47.15,3.08,3.08,0,0,1-.53,0c-.4,0-.8,0-1.21,0-.26,0-.52,0-.78,0s-.6,0-.9,0a1.63,1.63,0,0,1-.31,0,9.73,9.73,0,0,1-1.21-.13h0a5.35,5.35,0,0,1-.56-.07l-.72-.14c-.34-.06-.68-.13-1-.22s-.79-.2-1.19-.32h0c-.31-.08-.61-.18-.92-.29h0a24.12,24.12,0,0,1-3.23-1.38,27,27,0,0,1-10-9l0,0a3.62,3.62,0,0,1-.27-.41c-.29-.43-.57-.86-.82-1.31h0a31.71,31.71,0,0,1-4.3-15.28,32.87,32.87,0,0,1,1.09-9.38c.11-.42.22-.83.36-1.24l1.48.86.05,0,1.66.9c.68.36,1.38.73,2.11,1.09a29.47,29.47,0,0,0,3.43,1.38c.95.33,1.95.64,3,1s2.12.65,3.14,1a34,34,0,0,1,3.72,1.45c2,1,1.43,2.3,3.32,3.18,2.82,1.32,6.2,1.78,9.15,2.25a28.84,28.84,0,0,1,3.9.82,11.15,11.15,0,0,1,4.45,3,.34.34,0,0,0,.14,0,5.52,5.52,0,0,0,.95-.07A13.18,13.18,0,0,0,56,41.67a11.35,11.35,0,0,0,2.37-1.26l.13-.1c.61-.47.94-.94.78-1.32-.44-1.07,1.51-.62,3.37-.23C63,38.83,63.38,38.9,63.71,39Z"/><path class="cls-14" d="M65.56,45.87A18.11,18.11,0,0,1,63,52.07a31.88,31.88,0,0,1-12.15,10.8l-.07,0a28.49,28.49,0,0,1-6,2.33,1.14,1.14,0,0,1-.25.06,17.74,17.74,0,0,1-5.91.55h0a2.87,2.87,0,0,1-1.35-.42,1.35,1.35,0,0,1-.63-1,.37.37,0,0,1,0-.11,3.22,3.22,0,0,1,.32-1.5,2.14,2.14,0,0,1,.12-.28,26,26,0,0,1,4.33-5.81c2.38-2.57,5.33-5.35,8.1-7.81.38-.34.75-.68,1.12-1L51,47.6h0c2.14-1.87,4.07-3.48,5.42-4.59.8-.66,1.39-1.14,1.71-1.38l.24-.2s-.12.17-.31.47c-.35.54-1,1.51-1.56,2.66a17.88,17.88,0,0,0-1.88,4.84,5.5,5.5,0,0,0-.08,1,2.51,2.51,0,0,0,.23,1.13,1.49,1.49,0,0,0,.18.3s0,0,0,0c2.52-1.28,5.29-4.74,6.89-9.75a27.23,27.23,0,0,0,.82-3.37c.36.07.71.14,1,.19l.2,0a5.59,5.59,0,0,1,2.12.89A28,28,0,0,1,65.56,45.87Z"/><path class="cls-15" d="M58.52,40.31c0,.38-.09.74-.15,1.11a34.75,34.75,0,0,1-1,4.29h0A32.53,32.53,0,0,1,55,51.86a25.34,25.34,0,0,1-1.37,2.38,28.21,28.21,0,0,1-3,4,26.1,26.1,0,0,1-8.13,6.17,18.46,18.46,0,0,1-2,.85c-.41.16-.81.3-1.23.43h0l-.59.17c-.33.1-.66.18-1,.25a1.94,1.94,0,0,1-.33.07h0a2.09,2.09,0,0,1-.36.08,21.62,21.62,0,0,1-4.27.42l-2.9,0h0c-1.37,0-2.74,0-3,0a18.58,18.58,0,0,1-8.15-2.45h0C11.25,60,7.27,50.73,6.35,39.54c-.08-1-.14-2-.17-3A47.69,47.69,0,0,1,7.7,22.41c.86.62,1.86,1.29,3,2l.8.5.76.45.48.29,1.48.86.05,0,1.66.9c.68.36,1.38.73,2.11,1.09a29.47,29.47,0,0,0,3.43,1.38c.95.33,1.95.64,3,1s2.12.65,3.14,1a34,34,0,0,1,3.72,1.45c2,1,1.43,2.3,3.32,3.18,2.82,1.32,6.2,1.78,9.15,2.25a28.84,28.84,0,0,1,3.9.82,11.15,11.15,0,0,1,4.45,3,.34.34,0,0,0,.14,0,5.52,5.52,0,0,0,.95-.07A13.18,13.18,0,0,0,56,41.67a11.35,11.35,0,0,0,2.37-1.26Z"/><path class="cls-16" d="M52.07,42.52a33.6,33.6,0,0,1-1.46,5.41,31.47,31.47,0,0,1-3.46,6.94l-.09.13c-.17.26-.34.52-.52.77-.35.49-.72,1-1.1,1.42a.76.76,0,0,0-.11.14,26.24,26.24,0,0,1-5.47,5.08l-.18.13a23.5,23.5,0,0,1-3.06,1.79c-.35.17-.7.34-1.06.48a1.63,1.63,0,0,1-.34.14h0a2.14,2.14,0,0,1-.39.16,4.33,4.33,0,0,1-.56.22l-.33.11a22,22,0,0,1-7.24,1.22c-.4,0-.79,0-1.18,0h-.06a24.16,24.16,0,0,1-15.11-6.68l-.24-.22a30.42,30.42,0,0,1-5.79-7.53l0,0A35.46,35.46,0,0,1,0,36.49,35.4,35.4,0,0,1,3.76,19a4.89,4.89,0,0,0,.67.75A28.57,28.57,0,0,0,7.7,22.41c.86.62,1.86,1.29,3,2l.8.5.76.45.48.29,1.48.86.05,0,1.66.9c.68.36,1.38.73,2.11,1.09a29.47,29.47,0,0,0,3.43,1.38c.95.33,1.95.64,3,1s2.12.65,3.14,1a34,34,0,0,1,3.72,1.45c2,1,1.43,2.3,3.32,3.18,2.82,1.32,6.2,1.78,9.15,2.25a28.84,28.84,0,0,1,3.9.82A11.15,11.15,0,0,1,52.07,42.52Z"/><path class="cls-5" d="M26,56.73H25.9A14.2,14.2,0,0,1,22,56c-.26-.08-.52-.17-.77-.27l-.11,0h0a16.69,16.69,0,0,1-4.74-2.84,17.57,17.57,0,0,1-2.59-2.65l0,0a20.64,20.64,0,0,1-1.45-2.07h0c-.14-.22-.28-.45-.41-.69s-.25-.45-.37-.68A22.66,22.66,0,0,1,10,43.31v0a23.93,23.93,0,0,1-1.18-6.8,23.45,23.45,0,0,1,2.6-11.58l.76.45.48.29,1.48.86a1,1,0,0,0,0,.1A23.61,23.61,0,0,0,12.1,37a22.07,22.07,0,0,0,7.53,16.45h0l.14.11a4.37,4.37,0,0,0,.48.37,9,9,0,0,0,.73.53h0a15.9,15.9,0,0,0,4.89,2.27Z"/><path class="cls-6" d="M43.72,38.74a22.15,22.15,0,0,1-4.19,11.1h0c-.19.25-.37.48-.56.71h0a19.82,19.82,0,0,1-1.45,1.58,1,1,0,0,1-.19.17,16.15,16.15,0,0,1-2.18,1.74,11.68,11.68,0,0,1-1.25.77,14.91,14.91,0,0,1-7.31,1.92c-.2,0-.41,0-.61,0l-.08,0A15.9,15.9,0,0,1,21,54.44h0a9,9,0,0,1-.73-.53,4.37,4.37,0,0,1-.48-.37l-.14-.11h0A22.07,22.07,0,0,1,12.1,37a23.61,23.61,0,0,1,2-10.36,1,1,0,0,1,0-.1l.05,0,1.66.9c.68.36,1.38.73,2.11,1.09a29.47,29.47,0,0,0,3.43,1.38c.95.33,1.95.64,3,1s2.12.65,3.14,1a34,34,0,0,1,3.72,1.45c2,1,1.43,2.3,3.32,3.18C37.39,37.81,40.77,38.27,43.72,38.74Z"/><path class="cls-17" d="M14.23,26.54l-.09.07c-.93.7-1.54.94-1.8.28a4,4,0,0,1-.12-1.53l.48.29,1.48.86Z"/><path class="cls-18" d="M13.71,50.16s6.71,6,15,5.68,11.88-7.49,11.88-7.49S36.3,57.51,27.2,57.51C18.79,57.51,13.71,50.16,13.71,50.16Z"/><path class="cls-5" d="M56.5,44.55a13.28,13.28,0,0,1-.25,2.16c-.07.4-.17.82-.29,1.27h0a28.61,28.61,0,0,1-1.19,3.57c-.34.84-.73,1.73-1.19,2.68l-.09.19a13.79,13.79,0,0,1-2.91,3.79,40.35,40.35,0,0,1-9.82,6.46c-.56.28-1,.49-1.37.64h0c-.39.19-.62.28-.62.28s0-.08.23-.39l.3-.38,2.26-2.77h0c1.15-1.4,2.5-3.06,3.77-4.72a.76.76,0,0,1,.11-.14l.33-.45.45-.59.06-.09h0l0,0,.18-.24h0c.2-.26.38-.52.57-.78l.09-.13.31-.44A36.82,36.82,0,0,0,51,47.6h0c.84-2,1.53-3.83,2.16-5.09A13.18,13.18,0,0,0,56,41.67a4.37,4.37,0,0,1,.4,1.33A7.45,7.45,0,0,1,56.5,44.55Z"/><path class="cls-19" d="M7.7,22.41c.86.62,1.86,1.29,3,2-2.13,4-3.32,10.25-4.31,15.13-1.06,5.26-1.89,8.91-3.42,6.33-4-6.76-3.13-17.41,1.5-26.11A28.57,28.57,0,0,0,7.7,22.41Z"/><path class="cls-20" d="M4.19,52S12,64.26,24,65.6,46.3,56,46.3,56,37.82,68,25.91,66.68C9.7,64.83,4.19,52,4.19,52Z"/><path class="cls-21" d="M9.93,43.33c-1.59.77-1.64,5.57,1.5,5.12S11.63,42.49,9.93,43.33Z"/><path class="cls-9" d="M9.93,43.33c-1.06.39-.9,3.4.6,3.6a1.64,1.64,0,0,0,1.64-2.18C11.81,44.24,10.54,43.1,9.93,43.33Z"/><path class="cls-10" d="M9.15,46.94c-.11-.44,1.51.79,2.4.57,1.65-.42.7-1.94.88-1.88s.86,2.15-.55,2.7A2.09,2.09,0,0,1,9.15,46.94Z"/><g class="cls-11"><path class="cls-12" d="M25.59,51.86c1.69.27,1-2.11,0-2.28S23,51.44,25.59,51.86Z"/><path class="cls-12" d="M24.65,33.45c.74.42.59-1.71,0-1.51S24.22,33.19,24.65,33.45Z"/><path class="cls-12" d="M15.4,59.91c1.39-1.14,4,2.19,3.39,2.77S13.75,61.29,15.4,59.91Z"/></g><path class="cls-6" d="M24.65,65.34c-3-1.92,10.35-5.8,15.89-16.21,5.68-10.64,8.58-6.66,9.33-4.18S47.59,64,24.65,65.34Z"/><path class="cls-22" d="M70,40.8a7.92,7.92,0,0,1-.81.08A.93.93,0,0,1,70,40.8Z"/><path class="cls-23" d="M73.45,40.06c.39-.3-12.9-7.75-14.93-8.7s-7.52-5.63-9.23-6-4.74-1.59-7.48-2.16-13.16-4.12-14.68-4.8-6.08-3.75-9.09-4-5.89.83-6,1.61,15.28,8.32,18.5,9.71,14.08,3.62,17.08,4.49S67.27,40.56,67.27,40.56,70.61,42.22,73.45,40.06Z"/><path class="cls-24" d="M12,18.09s1-1.23,1.68-.85,15.9,7.27,19.72,8.47S47.81,29.47,50,30.32,63.71,39,63.71,39A10.62,10.62,0,0,1,61,39c-1-.21-.11,1.67-1.27,1.5a5,5,0,0,0-2.27.25L27.9,28.53,11.68,19Z"/><path class="cls-23" d="M3.76,19c3.94-2.33,7.2-1.21,9.46-.6s13.87,8.45,15.89,8.69,5.56,1.79,6.32,3.1,8.71,2.54,12.76,3.51,10.33,6.6,10.33,6.6-3.39,3.15-5.6,2.69-6.27-3.76-7.73-4-9.35-.7-10.68-1.51-4.2-4-4.9-4.24S19,30.18,15.66,28.53s-4.36-2.11-5-2.45S3.76,19,3.76,19Z"/><path class="cls-6" d="M34.71,29.43c-1.24-.81-4.27,2.77-4.46,3.22s3.23,5.12,3.77,4.48,6.92-3.82,6.53-4.48-4.62-1.12-4.87-1.78A5.51,5.51,0,0,0,34.71,29.43Z"/><path class="cls-6" d="M49.73,25.52c-1.29.06-3.21,2-3.43,2.84s5.06,2.25,6.91,3.78,5.08.7,5.71.51S49.73,25.52,49.73,25.52Z"/><path class="cls-25" d="M45.66,38.76c-.76-1.12,3.08-4.91,3.47-4.76s8.37,5.43,8.66,6.06S54,43.3,52.62,42.83A77.75,77.75,0,0,1,45.66,38.76Z"/><path class="cls-25" d="M45.56,28.49c-.58-.13-12.34-3.57-15-4.85s-.14-2.33.89-2.82,17.84,4.55,17.84,4.55S46.27,28.64,45.56,28.49Z"/><path class="cls-25" d="M29.88,32.71a18.46,18.46,0,0,1-6.2-1.84c-1.89-1.12,4.19-3.54,5.15-3.59S33.5,28.51,33.66,29,29.88,32.71,29.88,32.71Z"/><path class="cls-25" d="M67.27,40.56l-7.8-4.42s4.12-1,6.78,0a50.52,50.52,0,0,1,7.2,3.92A5.27,5.27,0,0,1,67.27,40.56Z"/><path class="cls-25" d="M3.76,19s8.84,8,9.05,8.13,11.36-.1,12.77-.51-9.77-7-12.83-8.35S3.76,19,3.76,19Z"/><path class="cls-26" d="M3.76,19s3.94,5.18,4.75,5.9,1.15,1.89,2.15,1.78S15,28.2,15,28.2a21.36,21.36,0,0,0-3-2.12C10.87,25.49,3.76,19,3.76,19Z"/><path class="cls-26" d="M21.35,30.67s4.12,1.55,6,1.57a13.46,13.46,0,0,1,3.19.41c.29,0,4,4.91,4.56,5.06s3.3.57,3.3.57a12.45,12.45,0,0,1-3.45-.34c-1.38-.42-5.45-3.12-7-4S21.35,30.67,21.35,30.67Z"/><path class="cls-26" d="M42.37,38.76a30.37,30.37,0,0,1,3.54-.32c.63.09,2.37,2.16,2.37,2.16Z"/><path class="cls-26" d="M43.72,28a11.44,11.44,0,0,1,2.9-.2c.73.19,2.15,1.85,2.15,1.85Z"/><path class="cls-26" d="M64.78,39.23a24.47,24.47,0,0,0,2.49,3.31c.56.36,3.38-1.24,3.38-1.24S66.77,39.42,64.78,39.23Z"/><path class="cls-27" d="M30.93,6.57C30.62,5,36.63-.14,37.53,0s3.12,5.3,2,6.57-5.38,1.74-6.39,1.91S30.93,6.57,30.93,6.57Z"/><path class="cls-27" d="M49.85,23.83c-1.62,2.5,1.08,4.72,2.55,5s5.78-3.11,6-4-5.66-3.69-6.18-3.76S50.34,23.06,49.85,23.83Z"/><path class="cls-28" d="M50.08,23.46c-.66,1.32,2.92,3.06,3.78,3.13a8.28,8.28,0,0,0,3.83-2.05c.18-.44-4-3.51-5.29-3.06A6.19,6.19,0,0,0,50.08,23.46Z"/><path class="cls-28" d="M37.53,0c-.82-.1-3.9,3.63-3.09,4.25s5,1,5.38.79S38.49.12,37.53,0Z"/><path class="cls-29" d="M33.15,8.48c-1.47.18.83-3,1.67-3.4s4.72.31,4.72.9S38,7.91,33.15,8.48Z"/><path class="cls-27" d="M62.8,25.27c-.94-.18-2.44-4.77-2.15-5.24s3.7-.51,4.16.4-.28,3.44-.42,4S62.8,25.27,62.8,25.27Z"/><path class="cls-28" d="M60.65,20c-.25.44,1.12,3,1.66,2.73A8.29,8.29,0,0,0,64,19.92C64,19.64,60.94,19.52,60.65,20Z"/><path class="cls-29" d="M64.39,24.47c-.25.87-1.49-1.16-1.52-1.73s1.27-2.58,1.61-2.44S65.2,21.61,64.39,24.47Z"/><path class="cls-29" d="M49.38,25.81c.09-1.18,1.22-.9,1.56-.65s2.53,1.68,2.64,1.82-.8,2-1.18,1.87A4.48,4.48,0,0,1,49.38,25.81Z"/></g></g></g></svg>