<svg xmlns="http://www.w3.org/2000/svg" xmlns:xlink="http://www.w3.org/1999/xlink" viewBox="0 0 75.3 81.41"><defs><style>.cls-1{isolation:isolate;}.cls-2{fill:url(#Áåçûìÿííûé_ãðàäèåíò_30);}.cls-3{fill:url(#Áåçûìÿííûé_ãðàäèåíò_416);}.cls-4{fill:url(#Áåçûìÿííûé_ãðàäèåíò_416-2);}.cls-5{fill:url(#Áåçûìÿííûé_ãðàäèåíò_416-3);}.cls-6{fill:url(#Áåçûìÿííûé_ãðàäèåíò_416-4);}.cls-7{fill:url(#Áåçûìÿííûé_ãðàäèåíò_416-5);}.cls-8{fill:url(#Áåçûìÿííûé_ãðàäèåíò_416-6);}.cls-9{fill:url(#Áåçûìÿííûé_ãðàäèåíò_416-7);}.cls-10{fill:url(#Áåçûìÿííûé_ãðàäèåíò_416-8);}.cls-11{fill:#ca1b3b;}.cls-11,.cls-17,.cls-20{opacity:0.2;}.cls-11,.cls-12,.cls-14,.cls-17,.cls-20,.cls-25{mix-blend-mode:multiply;}.cls-12{fill:#cc5748;opacity:0.64;}.cls-13{fill:#b3ff5e;}.cls-13,.cls-15,.cls-21{mix-blend-mode:soft-light;}.cls-14{fill:#d31f90;opacity:0.5;}.cls-15{fill:#b3b35e;}.cls-16,.cls-21{fill:#fff;}.cls-17{fill:#ca0092;}.cls-18{fill:#70102f;}.cls-19{fill:#ffd4c0;}.cls-20{fill:#e5003b;}.cls-22{fill:#ffbdae;}.cls-23{fill:#ff9a81;}.cls-24{fill:#c91352;}.cls-25{fill:#ca6d92;opacity:0.71;}</style><linearGradient id="Áåçûìÿííûé_ãðàäèåíò_30" x1="37.69" y1="81.41" x2="37.69" y2="15.12" gradientUnits="userSpaceOnUse"><stop offset="0" stop-color="#ffbba4"/><stop offset="1" stop-color="#ffd1c9"/></linearGradient><linearGradient id="Áåçûìÿííûé_ãðàäèåíò_416" x1="31.49" y1="65.5" x2="31.49" y2="42.42" gradientUnits="userSpaceOnUse"><stop offset="0" stop-color="#f60"/><stop offset="1" stop-color="#ff7a00"/></linearGradient><linearGradient id="Áåçûìÿííûé_ãðàäèåíò_416-2" x1="52.12" y1="60.62" x2="52.12" y2="39.85" xlink:href="#Áåçûìÿííûé_ãðàäèåíò_416"/><linearGradient id="Áåçûìÿííûé_ãðàäèåíò_416-3" x1="45" y1="37.57" x2="45" y2="34.09" xlink:href="#Áåçûìÿííûé_ãðàäèåíò_416"/><linearGradient id="Áåçûìÿííûé_ãðàäèåíò_416-4" x1="35.5" y1="36.69" x2="35.5" y2="29.03" xlink:href="#Áåçûìÿííûé_ãðàäèåíò_416"/><linearGradient id="Áåçûìÿííûé_ãðàäèåíò_416-5" x1="11.77" y1="51.71" x2="11.77" y2="30.83" xlink:href="#Áåçûìÿííûé_ãðàäèåíò_416"/><linearGradient id="Áåçûìÿííûé_ãðàäèåíò_416-6" x1="26.77" y1="81.41" x2="26.77" y2="58.45" xlink:href="#Áåçûìÿííûé_ãðàäèåíò_416"/><linearGradient id="Áåçûìÿííûé_ãðàäèåíò_416-7" x1="66.08" y1="61.89" x2="66.08" y2="43.88" xlink:href="#Áåçûìÿííûé_ãðàäèåíò_416"/><linearGradient id="Áåçûìÿííûé_ãðàäèåíò_416-8" x1="10.28" y1="39.84" x2="10.28" y2="20.61" xlink:href="#Áåçûìÿííûé_ãðàäèåíò_416"/></defs><g class="cls-1"><g id="Layer_2" data-name="Layer 2"><g id="layer1"><path class="cls-2" d="M75.27,44.3c0,.39,0,.79,0,1.18a38.3,38.3,0,0,1-.56,5.39c-.06.37-.14.75-.22,1.12q-.23,1.07-.51,2.1c-.11.42-.23.84-.36,1.25s-.32,1-.5,1.48-.32.87-.5,1.3c-.08.21-.16.42-.25.62-.23.56-.48,1.11-.74,1.65s-.39.79-.6,1.18l-.06.12v0c-.52,1-1.08,1.92-1.68,2.84l-.54.8A34.54,34.54,0,0,1,66,68.86l-.72.8L65,69.9l-.7.71c-.3.31-.61.6-.92.89s-.59.54-.89.79l-.75.64-.3.25a.09.09,0,0,1-.05,0l-.82.64c-.65.51-1.32,1-2,1.43-.3.2-.6.4-.91.58a2,2,0,0,1-.27.17l-.94.55c-.36.21-.72.41-1.09.6l-1.11.56h0c-.37.18-.74.35-1.12.51s-.61.27-.92.39a4.07,4.07,0,0,1-.44.18l-.67.26-.3.11-1.06.37-.09,0c-.43.15-.87.28-1.31.4h0L47,80.35c-.37.1-.74.18-1.12.26l-1.12.22L43.8,81c-.57.09-1.14.16-1.71.22L41,81.3q-.87.08-1.74.09l-1.12,0q-.69,0-1.38,0h-.58c-.91,0-1.82-.13-2.71-.24L32.4,81l-.26,0-.47-.08H31.6c-.38-.06-.76-.14-1.13-.22s-.74-.16-1.11-.25h0c-.24,0-.48-.11-.71-.18a34.22,34.22,0,0,1-4.91-1.68l-.85-.37a1,1,0,0,1-.21-.1c-.34-.15-.68-.31-1-.48s-.74-.37-1.1-.57a.39.39,0,0,1-.14-.08c-.24-.12-.48-.25-.71-.39l-.22-.13c-.36-.21-.71-.42-1.05-.64s-.66-.42-1-.64c0,0,0,0,0,0h0a.51.51,0,0,1-.13-.09c-.39-.27-.79-.55-1.17-.83-.21-.15-.43-.31-.64-.48s-.42-.32-.62-.49-.44-.36-.66-.55a35.45,35.45,0,0,1-3.91-3.84c-.25-.27-.48-.55-.71-.83-.42-.49-.81-1-1.18-1.52a9.3,9.3,0,0,1-.59-.81c-.25-.34-.49-.68-.71-1s-.33-.5-.48-.76a28.93,28.93,0,0,1-1.45-2.55c-.16-.3-.31-.62-.46-.93s-.35-.74-.51-1.12c-.09-.18-.17-.37-.25-.57s-.26-.63-.39-1l0-.08c-.18-.46-.35-.93-.51-1.4-.1-.29-.19-.59-.28-.89A2.45,2.45,0,0,1,2.64,55c0-.09-.06-.15-.07-.2l0,0a0,0,0,0,1,0,0c-.3-1-.53-2-.74-3.06h0s-.09-.43-.21-1.09c0-.1,0-.2-.05-.3,0-.28-.09-.59-.14-.91-.14-1-.24-2-.29-3.08,0-.51-.05-1-.05-1.53,0-.17,0-.33,0-.5v0a.24.24,0,0,1,0-.07.83.83,0,0,1,0-.12,23.22,23.22,0,0,1-.72-4.22h0a.76.76,0,0,1,0-.15c0-.08,0-.16,0-.23A29.88,29.88,0,0,1,.39,33.1a.31.31,0,0,1,0-.1A30.43,30.43,0,0,1,1,29.87a29.66,29.66,0,0,1,.91-3c.15-.43.33-.87.52-1.32.12-.27.23-.54.36-.81s.27-.6.43-.91.35-.69.54-1,.48-.88.75-1.33l0,0A34.87,34.87,0,0,1,7.76,17l.1-.11.34-.38c.38-.45.79-.91,1.23-1.36,0,0,0,.06,0,.09v0c-.19,2.67,2.42,4.4,5.2,5.36l.16.05a13.75,13.75,0,0,0,1.48.43,17.26,17.26,0,0,0,2.37.42,6,6,0,0,0,1.91,0h.07a2.64,2.64,0,0,1,1-.08,2,2,0,0,1,.41.07l.14,0,.36.14a5.07,5.07,0,0,1,2.23,3.63c.26,1.25,3.39,2.42,7.12,3.56.19,0,.37-.06.54-.08s.09.19.13.28h0c2,.6,4.09,1.2,6,1.81a33.23,33.23,0,0,1,4.35,1.63l.51.27a10.54,10.54,0,0,1,1.92,1.35,6.92,6.92,0,0,1,2,2.83,4.69,4.69,0,0,1,.32,2S56,37.51,59.72,35.68a5.76,5.76,0,0,0,.61-.34,2.66,2.66,0,0,0,.33-.21,4.57,4.57,0,0,0,.57-.49c2.31-2.2,2.44-5.91,3.63-7.84,1.27-2.09,5.76-2.23,5.76-2.23.2.41.4.83.59,1.25l.05.11v0A39.73,39.73,0,0,1,74,34.66a.06.06,0,0,0,0,0,37,37,0,0,1,1.12,6.46c0,.51.08,1,.1,1.56s0,.76,0,1.15C75.27,44,75.27,44.16,75.27,44.3Z"/><path class="cls-3" d="M41.7,43.66S23.65,37,21.28,54.76a17,17,0,0,0,10,10.74S32.92,51.75,41.7,43.66Z"/><path class="cls-4" d="M43.44,41.67S41.72,57.89,53.87,60.62a24.27,24.27,0,0,0,7-13.66s-.1.42-7.06,0-9.08-7.11-9.08-7.11Z"/><path class="cls-5" d="M45.28,34.09a6.92,6.92,0,0,1,2,2.83,16.49,16.49,0,0,1-2.13.15,1.61,1.61,0,0,1-.58-.06l-1.8.56a10.37,10.37,0,0,0,1.84-2.26A12,12,0,0,0,45.28,34.09Z"/><path class="cls-6" d="M38.5,30.84a32.44,32.44,0,0,1-1.94,5.43l-.06.13-.14.29-2.53-1.07c0-.2,0-.4,0-.59a.28.28,0,0,0,0-.09A15.71,15.71,0,0,0,32.51,29C34.49,29.63,36.6,30.23,38.5,30.84Z"/><path class="cls-7" d="M10.62,31.05a10.93,10.93,0,0,1,12,5.69S20.31,38.23,19,43.88c0,0-10.6-1.34-17.26,7.83,0,0-1-5.24-.74-7.41S7,32.66,10.62,31.05Z"/><path class="cls-8" d="M22.57,58.45A24.22,24.22,0,0,0,17.4,75.07a36.07,36.07,0,0,0,18.81,6.34s-4-10.92-3.7-15.91A17.82,17.82,0,0,1,22.57,58.45Z"/><path class="cls-9" d="M56.86,57.28S61,62.93,70.94,61.72a34.93,34.93,0,0,0,4.33-17.84,36.2,36.2,0,0,1-13.6.42S60.18,52.83,56.86,57.28Z"/><path class="cls-10" d="M20.54,21.47l-.3.21-.14.09c-.52.37-1.49,1.07-2.71,2a67.38,67.38,0,0,0-5.61,4.92s-.63.24-1.61.73a0,0,0,0,0,0,0h0a24.34,24.34,0,0,0-4.89,3.25,16.35,16.35,0,0,0-5,7.1h0A19,19,0,0,1,.07,35.7c0-.27,0-.53,0-.79s0-.25,0-.37v0A28.54,28.54,0,0,1,1,29.77a28.09,28.09,0,0,1,.92-2.89c.15-.43.33-.87.52-1.32.12-.27.23-.54.36-.81s.27-.6.43-.91.35-.69.54-1,.48-.88.75-1.33l.57-.13a41,41,0,0,1,9.44-.7h.23a13.75,13.75,0,0,0,1.48.43,17.26,17.26,0,0,0,2.37.42A6,6,0,0,0,20.54,21.47Z"/><path class="cls-11" d="M22.12,21.49l.36.14A54.77,54.77,0,0,0,12,29.81l0,0c-.39.38-.77.77-1.14,1.16h0C9.34,32.55,8,34.11,6.75,35.61l-.09.1-.47.57a53.42,53.42,0,0,0-3.67,5.19h0c-.39.65-.73,1.25-1,1.78l-.07.17a5.19,5.19,0,0,0-.32.7l-.07.14v0a.24.24,0,0,1,0-.07.83.83,0,0,1,0-.12C.54,42.94-1,37.7,1,28.89a6.64,6.64,0,0,0,0,.88s0,.07,0,.1a2.43,2.43,0,0,0,2,2.44c1.52.25,3.64-.61,5.48-2.35,2.36-2.22,4.64-5.73,7.71-8.89a17.26,17.26,0,0,0,2.37.42,6,6,0,0,0,1.91,0h.07a2.64,2.64,0,0,1,1-.08,2,2,0,0,1,.41.07Z"/><path class="cls-12" d="M22.12,21.49a37.93,37.93,0,0,0-4.57,2.8l-.08.06A46.76,46.76,0,0,0,9.22,32l0,0h0A59.23,59.23,0,0,0,4.8,37.77c-.86,1.28-1.57,2.44-2.13,3.42a0,0,0,0,0,0,0l-.14.25h0c-.6,1.05-1,1.86-1.24,2.34l.17-.39.07-.17.31-.66c.07-.16.15-.32.23-.48,0,0,0,0,0,0,.64-1.33,1.31-2.61,2-3.85a0,0,0,0,1,0,0c.79-1.4,1.62-2.75,2.49-4a53.86,53.86,0,0,1,3.47-4.64l0-.05h0a45.94,45.94,0,0,1,8.5-8,6,6,0,0,0,1.91,0h.07a2.64,2.64,0,0,1,1-.08,2,2,0,0,1,.41.07Z"/><path class="cls-12" d="M61.67,44.32a.63.63,0,0,1,0,.19,28.86,28.86,0,0,1-2.83,9.32l0,.07c-.38.73-.78,1.44-1.23,2.13-.27.46-.58.91-.9,1.35s-.56.77-.87,1.14l-.27.33-.06.07-.43.5c-.07.09-.15.17-.22.25l-.68.7a2.83,2.83,0,0,1-.25.24,22.43,22.43,0,0,1-10.15,5.73,24.74,24.74,0,0,1-6,.8,26.9,26.9,0,0,1-5.17-.41,16.88,16.88,0,0,1-11.18-6.61.8.8,0,0,1-.13-.19c-3.41-4.78-4-11.08-3-16.12a19.35,19.35,0,0,1,.87-3.07,0,0,0,0,1,0,0v0a10.26,10.26,0,0,1,3.12-4.63,5.69,5.69,0,0,1,.52-.33,13.13,13.13,0,0,1,1.36-.67,12.52,12.52,0,0,1,9.76,0c.42.16.83.33,1.22.5s1,.49,1.52.74c1,.51,1.86,1,2.56,1.33,3,1.42,6.31-1.79,5.93.73a7,7,0,0,1-1,2.51l-.19.29-.38.54c-.22.29-.43.56-.63.79a15.07,15.07,0,0,1-1.11,1.2C39.84,40,32,34.5,26.21,35.41h0A6.78,6.78,0,0,0,23,36.77c-1.55,1.22-2.72,3.31-3.23,6.53a17.53,17.53,0,0,0,.74,8.49,17,17,0,0,0,.86,2.07A20.2,20.2,0,0,0,31.63,63.5a20.82,20.82,0,0,0,19-1.43,19.18,19.18,0,0,0,2-1.35l.4-.32A23.07,23.07,0,0,0,60.5,47.06a27.9,27.9,0,0,0-.17-11.72,2.66,2.66,0,0,0,.33-.21,4.57,4.57,0,0,0,.57-.49A28.34,28.34,0,0,1,61.67,44.32Z"/><path class="cls-13" d="M75.27,44.3A37.12,37.12,0,0,1,2.55,54.78c.31.79,9,28.42,37.83,24,33.47-5.16,34.75-37.6,34.75-37.6C75.22,42.19,75.27,43.24,75.27,44.3Z"/><path class="cls-14" d="M22.57,36.74A12.15,12.15,0,0,1,38.2,39.26c2.74,3.21,4,3.15,4,3.15s3.33-2.18,2.87-4.07-3,.28-5.38-.24-3.84-3.32-10.38-4.45A6.72,6.72,0,0,0,22.57,36.74Z"/><path class="cls-14" d="M10.13,29.47s.09-.09.17-.15a1.58,1.58,0,0,0-.13.13,0,0,0,0,0,0,0l-.06,0,0,0Z"/><path class="cls-14" d="M21.57,21.38a43,43,0,0,0-4.18,2.42,52.07,52.07,0,0,0-5.71,4.27,66.1,66.1,0,0,1,8.42-6.3l.14-.09.37-.22A2.64,2.64,0,0,1,21.57,21.38Z"/><path class="cls-11" d="M61.11,46.94a.08.08,0,0,0,0,0,22,22,0,0,1-1.83,5.79l0,.08-.14.28a21.47,21.47,0,0,1-6,7.27l-.42.32q-.93.69-2,1.35c-7.44,4.61-13.48,5.24-18.15,3.85-.41-.13-.81-.27-1.2-.43a2.47,2.47,0,0,1-.42-.17,15.73,15.73,0,0,1-4.16-2.6,19.25,19.25,0,0,1-5.41-7.88l0-.09a14,14,0,0,1-.73-3s0,0,0-.07.39.39,1.1,1a36.12,36.12,0,0,0,11.06,6.5,20.42,20.42,0,0,0,16.47-.74c.61-.31,1.21-.66,1.82-1A18.34,18.34,0,0,0,58.8,47.14a28.9,28.9,0,0,0,.92-11.46,5.76,5.76,0,0,0,.61-.34,2.66,2.66,0,0,0,.33-.21A31.19,31.19,0,0,1,61.11,46.94Z"/><path class="cls-11" d="M45.1,38.81l0,.09q-.14.45-.27.84a1.17,1.17,0,0,1,0,.11h0a5.47,5.47,0,0,1-1.34,2.28,1.33,1.33,0,0,1-.59.32,1.08,1.08,0,0,1-.64-.05c-.93-.37-6.11-8.1-13.24-7.5h-.12a14.08,14.08,0,0,0-2.61.49h0a11.44,11.44,0,0,0-1.74.64l-.21.09-.12,0-.08,0c-.35.17-.69.35-1,.54a12,12,0,0,0-1.48,1h0a10.59,10.59,0,0,0-2.49,2.9v0a12.64,12.64,0,0,1,2.71-5.25,19.43,19.43,0,0,1,8.85-5.89A14.77,14.77,0,0,1,32.49,29h0a0,0,0,0,0,0,0c2,.6,4.09,1.2,6,1.81a33.23,33.23,0,0,1,4.35,1.63,11.21,11.21,0,0,1,1.74,2.84,8.73,8.73,0,0,1,.54,1.76A4.15,4.15,0,0,1,45.1,38.81Z"/><path class="cls-11" d="M22,76.85c-10.25-4.6,22.62.59,33.23-4.7S71.51,55.48,71.51,55.48A38.18,38.18,0,0,1,48.35,76.85C30.81,82.58,22,76.85,22,76.85Z"/><path class="cls-15" d="M31.83,28.82c-3.12.52-7.75,2.58-12,4.45-6.43,2.82-12.06,5.22-10.63,1.39a18,18,0,0,1,2-3.73c.24-.36.51-.73.8-1.1l0,0a29.85,29.85,0,0,1,5.45-5.46l.08-.06A30.3,30.3,0,0,1,22,21.45l.14,0,.36.14a5.07,5.07,0,0,1,2.23,3.63C25,26.51,28.1,27.68,31.83,28.82Z"/><path class="cls-15" d="M14.62,20.59l-.07.05C8.2,25,4.42,28.44,4.63,22.31c0,0,.15-.36.48-1a32.32,32.32,0,0,1,4.23-6l.08-.09v0C9.23,17.9,11.84,19.63,14.62,20.59Z"/><path class="cls-15" d="M18,56.18C14.42,52,16.68,74.82,41.7,74.61s26.86-29,25.59-32.12-5.55,20.72-23.4,23.82S18,56.18,18,56.18Z"/><path class="cls-15" d="M24.12,36.19c-3.32,1.58-4.4,9.2-1.74,14.05,7.52,13.65,24.25,11.18,29.74,5.24s-2.4-16.89-4.54-16.57S43.14,44.36,41.35,44s-5.65-6.48-10.16-7.81S24.12,36.19,24.12,36.19Z"/><path class="cls-16" d="M70.64,29.23c-1-1.17-2.68-.3-1.1,2.61S72.3,31.28,70.64,29.23Z"/><path class="cls-16" d="M44.54,51c-4.74,4.12,1.05,7.19,4.26,3.1S47.76,48.24,44.54,51Z"/><path class="cls-17" d="M1,44.92s3.34-6.47,5.68-9.21S-1.81,55.48,18.27,74.62C18.27,74.62,2.26,66.27,1,44.92Z"/><path class="cls-16" d="M25.69,36.65c-3.17,2.56,2.14,2.91,4.51,1.33S26.84,35.73,25.69,36.65Z"/><path class="cls-12" d="M.43,32.87c.47-1.29,4.78-.23,6.09.26S2,42.2,2,42.2L1,44.3S-.7,37.81.43,32.87Z"/><path class="cls-13" d="M9.43,15.12s0,.06,0,.09v0l-.08.07c-.41.41-.79.8-1.14,1.18C8.58,16,9,15.57,9.43,15.12Z"/><path class="cls-18" d="M32.5,29a0,0,0,0,0,0,0h0l-.66-.2c.19,0,.37-.06.54-.08S32.46,28.93,32.5,29Z"/><path class="cls-19" d="M9.43,15.12c3.07-2.48,16.21,1.23,17.34,1.59s17.55,3.17,19.58,3.59,9,7.84,9.22,8.43-.32,1.83,1.29,2.47,3-5.65,2.12-7.24,1.64-3.59,4.42-3.66,6.92,3.65,7.22,4.27S65.87,27,65.17,27.8a56.37,56.37,0,0,0-3.72,8c.06.29-2.54.65-4.59,2.22s-7.85,2.45-9,1.86-2.14-4.72-8-7.15-12.67-4.61-14.28-5.3-2.36-4-4-4.33-5.56-.38-9.8-1.69S9.43,15.12,9.43,15.12Z"/><path class="cls-20" d="M59,24c.48-.68,5.18,2.54,5.68,3.19s-3.1,7.14-3.33,8-4.64-3.63-4.15-3.89S58,31,58.94,28.07,59,24,59,24Z"/><path class="cls-20" d="M55.57,28.73c-1.58-1.19-8.47,2.73-9.22,4s.34,5.13,1.23,6.22,5.59-3.17,7.42-4.55,2.57-2.51,1.45-3.37A2.46,2.46,0,0,1,55.57,28.73Z"/><path class="cls-20" d="M22.57,23c.6-2.4,15.44-3.62,18.85-2.7s-4.23,3.43-8,5.34-6.58,2.95-7.86,1.75A23.13,23.13,0,0,1,22.57,23Z"/><path class="cls-20" d="M10.6,15.12c-2.22.82-1.95,5.54,1.45,6.33s9-2.69,13.77-3.13S15.63,13.29,10.6,15.12Z"/><path class="cls-21" d="M30.77,27.74c-2.64.85,8.35,4.56,11.51,5.21s11-4.6,11.75-4.88-5.43-7.35-7.68-7.77S35.72,26.13,30.77,27.74Z"/><path class="cls-16" d="M60.89,21.57C58.82,23,62.22,25.3,63.66,26.3s6.1-.89,6.51-1.58-4.6-3.52-6.45-4.11A2.46,2.46,0,0,0,60.89,21.57Z"/><path class="cls-16" d="M30,28.3c-.79-.82,6.45-4.05,6.45-4.05a10.36,10.36,0,0,1-2.91,3.65A3.45,3.45,0,0,1,30,28.3Z"/><path class="cls-16" d="M14.62,21.37c-1.59.58,7.65,2.08,8,1.63s6.83-2.19,9.94-2.57-6-1.67-9-1.41S14.62,21.37,14.62,21.37Z"/><path class="cls-16" d="M9.06,16.74c-.6.38-.79,4.14,1.24,4.63s5.25.9,5.25.9A35.21,35.21,0,0,1,10.2,20C8.69,19,9.06,16.74,9.06,16.74Z"/><path class="cls-16" d="M26.88,27.9S38.36,32.13,41,33.55a25.5,25.5,0,0,1,6.86,6.29c.82,1.28,2,.27,7,.24s3.27-1.4,5-2.51,1.65-1.5,1.65-1.5l.15-.94s-1.73.93-3.12,1.56-5,2.69-8.34,2.39-5.94-3.94-7.92-5.29S31.79,29.2,26.88,27.9Z"/><path class="cls-16" d="M42.23,21.78C39.52,23.25,45.53,25,46.86,24s.4-3.31-.06-3.48S43.14,21.29,42.23,21.78Z"/><path class="cls-16" d="M9.43,15.12c-.71,1.05,4.17-.37,6.12-.43S10.8,13.39,9.43,15.12Z"/><path class="cls-22" d="M63.28,5.64c-1.5-.08-2.29,4.46-2.2,6.53s4.79,4.18,6,3.94,4.54-3.14,5.17-4.17S69,10,67.37,8.78,63.28,5.64,63.28,5.64Z"/><path class="cls-19" d="M63.28,5.64c.91-.61,7.36,1.91,8.32,2.55s.84,3.49.65,3.75-3.52-.87-5.3-2.07A17.22,17.22,0,0,1,63.28,5.64Z"/><path class="cls-20" d="M66.68,15.88c-1.37-.07-2.72-.21-2.81-1.09s2.43-3.89,3-4.24,4.59,1.15,4.8,1.5S68.63,16,66.68,15.88Z"/><path class="cls-16" d="M64.69,6.18c-1.85-.36,1.67,3.54,2.16,3.94a12.69,12.69,0,0,0,3.82,1C71.14,11.08,70.56,7.35,64.69,6.18Z"/><path class="cls-23" d="M29.37,4.35c-.4.09,1,7.6,2.57,9.65s10.37,1.12,11.77,1.13S50.83,2.76,51.13,2.47,46.65.39,41.79.1,29.37,4.35,29.37,4.35Z"/><path class="cls-19" d="M29.37,4.35c0,1.07,14.08.2,15.27.62s6.49-2.5,6.49-2.5S44.89-.4,40.31.05,29.37,4.35,29.37,4.35Z"/><path class="cls-20" d="M35.9,15.25c-.73-.09,8.71-2.42,9.23-3.45s.14-6.25.36-6.58A49.83,49.83,0,0,1,50.84,3s-5.55,11.43-6.58,11.8A39.84,39.84,0,0,1,35.9,15.25Z"/><path class="cls-16" d="M33.89,4.91c-3.16-.13,11.83-2.76,13.93-2.29S46.4,5,44.72,5.33,33.89,4.91,33.89,4.91Z"/><path class="cls-20" d="M43.71,15.13l-7.81.12s8.5-2.44,8.68-2.78S46.07,12.69,43.71,15.13Z"/><path class="cls-24" d="M19.39,22.82l1.9-.46s6.31,2.28,10.2,1.17c1.62-.46-5.95-3.88-5.81-4.55s4.68-1.56,4.68-1.56-3.91.81-4.7.92-.85,1.2-.9,1.29S20,21.05,18.48,21.45s-1.86.87-1.86.87l-3.14,4.54S18.86,23.23,19.39,22.82Z"/><path class="cls-24" d="M61.32,39.33s-.39-2.38-.39-2.84-1.71-.73-3.46-.89c-5-.47-1.55-1.93-.61-3a7.26,7.26,0,0,0,1.33-2.37,4.09,4.09,0,0,1-.3,1.39,6.33,6.33,0,0,0-1.3,1.93c-.37,1.05,4.5,1.79,4.89,1.58s.11,1.28.19,2.08-.19,5.54-.19,5.54Z"/><path class="cls-19" d="M23.58,21.07A3.3,3.3,0,0,1,26,20.12a6,6,0,0,1,2.88,1.45c.19.26-3.22.91-4.77.57S23.58,21.07,23.58,21.07Z"/><path class="cls-25" d="M22.57,23a9.85,9.85,0,0,1,.71-1.83c.24-.29,1.16-.88,1.25-1.18S17,22,16.82,22.14s.39,1.81.39,1.81A23,23,0,0,1,20,22.36,2.65,2.65,0,0,1,22.57,23Z"/></g></g></g></svg>