<svg xmlns="http://www.w3.org/2000/svg" xmlns:xlink="http://www.w3.org/1999/xlink" viewBox="0 0 65.08 70.9"><defs><style>.cls-1{isolation:isolate;}.cls-2{fill:url(#Áåçûìÿííûé_ãðàäèåíò_194);}.cls-3{fill:url(#Áåçûìÿííûé_ãðàäèåíò_194-2);}.cls-4{fill:url(#Áåçûìÿííûé_ãðàäèåíò_180);}.cls-5{fill:url(#Áåçûìÿííûé_ãðàäèåíò_186);}.cls-6,.cls-8{fill:#989310;mix-blend-mode:multiply;}.cls-6{opacity:0.5;}.cls-7{fill:#b3b35e;}.cls-7,.cls-9{mix-blend-mode:soft-light;}.cls-8{opacity:0.2;}.cls-9{fill:#b3f25e;}.cls-10{fill:#fff;}.cls-11{fill:url(#Áåçûìÿííûé_ãðàäèåíò_204);}.cls-12{fill:#cce031;}.cls-13{fill:url(#Áåçûìÿííûé_ãðàäèåíò_204-2);}.cls-14{fill:#4b001d;}.cls-15{fill:#d3d61d;}.cls-16{fill:url(#Áåçûìÿííûé_ãðàäèåíò_18);}.cls-17{fill:#b5cc1d;}.cls-18{fill:#d3de1d;}.cls-19{fill:#e1eb65;}.cls-20{fill:#435200;}</style><linearGradient id="Áåçûìÿííûé_ãðàäèåíò_194" x1="34.6" y1="70.9" x2="34.6" y2="16.17" gradientUnits="userSpaceOnUse"><stop offset="0" stop-color="#639200"/><stop offset="0.51" stop-color="#87aa00"/><stop offset="1" stop-color="#d3ed00"/></linearGradient><linearGradient id="Áåçûìÿííûé_ãðàäèåíò_194-2" x1="43.74" y1="69.25" x2="43.74" y2="13.86" xlink:href="#Áåçûìÿííûé_ãðàäèåíò_194"/><linearGradient id="Áåçûìÿííûé_ãðàäèåíò_180" x1="23.36" y1="70.88" x2="23.36" y2="16.3" gradientUnits="userSpaceOnUse"><stop offset="0" stop-color="#7fb800"/><stop offset="1" stop-color="#9fba00"/></linearGradient><linearGradient id="Áåçûìÿííûé_ãðàäèåíò_186" x1="23.72" y1="64.73" x2="23.72" y2="16.61" gradientUnits="userSpaceOnUse"><stop offset="0" stop-color="#7aa900"/><stop offset="1" stop-color="#9fba00"/></linearGradient><linearGradient id="Áåçûìÿííûé_ãðàäèåíò_204" x1="104.24" y1="92.34" x2="104.24" y2="87.34" gradientTransform="translate(-15.01 -100.61) rotate(22.85)" gradientUnits="userSpaceOnUse"><stop offset="0" stop-color="#87bf00"/><stop offset="1" stop-color="#3b6800"/></linearGradient><linearGradient id="Áåçûìÿííûé_ãðàäèåíò_204-2" x1="64.52" y1="6.75" x2="64.52" y2="3.25" gradientTransform="matrix(1, 0.05, -0.08, 1.58, -10.81, 35.79)" xlink:href="#Áåçûìÿííûé_ãðàäèåíò_204"/><linearGradient id="Áåçûìÿííûé_ãðàäèåíò_18" x1="30.24" y1="31.18" x2="30.24" y2="1.86" gradientUnits="userSpaceOnUse"><stop offset="0" stop-color="#5b9c00"/><stop offset="1" stop-color="#87ab00"/></linearGradient></defs><g class="cls-1"><g id="Layer_2" data-name="Layer 2"><g id="layer1"><path class="cls-2" d="M45.85,16.17l-.05,2.4,0,1.44v0l-.05,2.33,0,1.21,0,1v1.06l-.4,19,0,.61V46l-.06,3v0L44.8,65.73v0l0,2.52v.92l-12.52,1-.5,0-.69.06-6.53.52-.83.07V69.8l0-2.52,0-2.55V64l0-3.48h0L23.5,48.9V44.57l-.1-15V26.33l.92-.72C29.54,21.45,34.62,17.55,37,17c.31-.07.69-.13,1.13-.19s.82-.1,1.29-.14l1-.1,1.19-.1,2.53-.2h.14l1.14-.09Z"/><path class="cls-3" d="M65.08,33.19a58.87,58.87,0,0,1-1.21,12h0v0a50,50,0,0,1-1.52,5.64l-.28.81c-.15.45-.32.88-.49,1.31s-.36.93-.56,1.38c-.1.23-.2.47-.31.7-.22.49-.45,1-.68,1.44s-.46.89-.7,1.31l-.37.65a26.49,26.49,0,0,1-5.65,7c-.23.2-.47.4-.71.58a16.2,16.2,0,0,1-3.78,2.22l-.66.26h0l-.61.2-.19.06c-.28.08-.55.15-.83.21s-.71.14-1.07.19-.47.06-.71.08a13,13,0,0,1-2.86-.09l-.16,0a3.73,3.73,0,0,1-.46-.09h0a14.49,14.49,0,0,1-5.42-2.31c-.34-.22-.66-.46-1-.71a21.32,21.32,0,0,1-2.59-2.39c-.35-.38-.7-.78-1-1.2l-.06-.07c-.3-.38-.6-.76-.89-1.17l-.19-.27a31.7,31.7,0,0,1-2.55-4.27,42.6,42.6,0,0,1-3.06-8c-.14-.45-.26-.9-.37-1.37,0,0,0,0,0,0s-.09-.34-.12-.51-.09-.36-.13-.55-.16-.67-.22-1c-.05-.18-.08-.36-.12-.55v0a57,57,0,0,1-1-9.07c0-.37,0-.75,0-1.13s0-.75,0-1.13c0-1.15,0-2.29.1-3.41v-.14c0-.24,0-.48.05-.71s0-.59.07-.88.07-.85.12-1.28a.06.06,0,0,1,0,0l.1-.05.5-.4.92-.72C29.54,21.45,34.62,17.55,37,17c.31-.07.69-.13,1.13-.19s.82-.1,1.29-.14l1-.1,1.19-.1,2.53-.2h.14l1.14-.09.44,0c5.52-.42,12-1,15.88-2.31A55.07,55.07,0,0,1,65.08,33.19Z"/><path class="cls-4" d="M46.64,32.93a59.13,59.13,0,0,1-1.42,13c-.09.41-.19.82-.29,1.22,0,0,0,0,0,0h0s0,0,0,.05v0A41.55,41.55,0,0,1,37.59,63h0c-.19.25-.38.49-.58.72,0,0,0,0,0,0A27.13,27.13,0,0,1,34.82,66a20.7,20.7,0,0,1-4.46,3.15l-.07,0h0a15.32,15.32,0,0,1-5.78,1.67c-.27,0-.56,0-.83,0-11.28.26-21-12.64-23.13-30.52a.28.28,0,0,1,0-.06c-.13-1-.23-2.06-.3-3.11,0-.17,0-.33,0-.5C.11,35.46.07,34.22.07,33c0-.68,0-1.35,0-2,.25.35.53.72.84,1.09a15.07,15.07,0,0,0,3.29,2.89,7.66,7.66,0,0,0,1,.55,6.56,6.56,0,0,0,.87.38l.18.07a6.24,6.24,0,0,0,.94.26,3.54,3.54,0,0,0,.47.07L8,36l-.24.25a4.59,4.59,0,0,0,1,0h0c1.34-.13,3.93-1.8,7-4.11l0,0,2.63-2,1.59-1.24,2.65-2.09a.06.06,0,0,1,0,0l.1-.05.5-.4.92-.72C29.54,21.45,34.62,17.55,37,17c.31-.07.69-.13,1.13-.19s.82-.1,1.29-.14l1-.1,1.19-.1,2.53-.2h.14c.39,1.24.72,2.53,1,3.84a.07.07,0,0,1,0,.06c.17.71.31,1.43.44,2.16.07.43.15.85.21,1.29s.12.77.17,1.17l.06.47h0c.13,1,.23,2.05.31,3.1C46.58,29.88,46.64,31.4,46.64,32.93Z"/><path class="cls-5" d="M43.2,32.94c0,.48,0,1,0,1.44v0a49.54,49.54,0,0,1-.7,7,2.93,2.93,0,0,1,0,.29L42.18,43c0,.17-.07.34-.11.5-.15.74-.33,1.47-.53,2.18S41.18,47,41,47.63l0,.07c-2.11,6.53-5.57,11.76-9.82,14.62A13.59,13.59,0,0,1,28.6,63.7h0a12.78,12.78,0,0,1-2,.66,2.47,2.47,0,0,1-.29.06,7.86,7.86,0,0,1-1.18.2h-.07a3.7,3.7,0,0,1-.57.07l-.88,0c-5.46,0-10.45-3.73-14-9.74a.05.05,0,0,1,0,0A39.67,39.67,0,0,1,5,41.73H5l-.34-2.21v0c-.19-1.49-.33-3-.39-4.57a7.66,7.66,0,0,0,1,.55,6.56,6.56,0,0,0,.87.38l.18.07a6.24,6.24,0,0,0,.94.26,3.54,3.54,0,0,0,.47.07L8,36l-.24.25a4.59,4.59,0,0,0,1,0h0c1.34-.13,3.93-1.8,7-4.11l0,0,2.63-2,1.59-1.24,2.65-2.09a.06.06,0,0,1,0,0l.1-.05.5-.4.92-.72C29.54,21.45,34.62,17.55,37,17c.31-.07.69-.13,1.13-.19s.82-.1,1.29-.14l1-.1a43.24,43.24,0,0,1,2.11,8.08c0,.15.06.31.08.46l0,.37.06.38c0,.13,0,.26,0,.38A49.89,49.89,0,0,1,43.2,32.94Z"/><path class="cls-6" d="M7.65,36.25,8,36l-.24.25C5.05,39.21,5,41.73,5,41.73l-.34-2.22a14.59,14.59,0,0,1,1.74-2.43,11.64,11.64,0,0,1,.83-.9A3.54,3.54,0,0,0,7.65,36.25Z"/><path class="cls-6" d="M42.77,26.28h0c-.15,0-1.59,0-3.93.13a84.67,84.67,0,0,0-8.65,1c-2.12.34-4.42.8-6.82,1.39l-.82.21c-1.26.32-2.55.69-3.85,1.1l-.2.07,1.59-1.24c.84-.29,1.68-.56,2.53-.81.25-.07.5-.15.75-.21a89.08,89.08,0,0,1,11.58-2.41c1.08-.16,2.09-.28,3-.39,2.69-.3,4.45-.39,4.6-.4h0l.07.46,0,.37Z"/><path class="cls-6" d="M8.85,53.56s12.32-9,33.64-12.13l-.4,2.1a79.27,79.27,0,0,0-20.24,3.89C11.74,51,9.38,54.54,9.38,54.54Z"/><path class="cls-7" d="M6.06,35.85l.18.07-.39.3-.08.06c-.17,0-.38-.29-.58-.81A6.56,6.56,0,0,0,6.06,35.85Z"/><path class="cls-7" d="M38.11,16.85c-1.44,2.52-6.49,5.87-12.44,8.64-.76.35-1.53.7-2.32,1l-.51.21.5-.4.92-.72C29.54,21.45,34.62,17.55,37,17,37.29,17,37.67,16.91,38.11,16.85Z"/><path class="cls-7" d="M23.47,44.57q-.78.51-1.53,1a29.19,29.19,0,0,1-3.69,1.95c-3.22,1.33-5.39,2.21-6.79,2.77-1.59.64-2.19.86-2.19.86-.92.27-4.76-7-3.14-11.62a8.1,8.1,0,0,1,2.65-3.21h0c1.34-.13,3.93-1.8,7-4.11l-.47.2.5-.22c1.17-.52,2.41-1,3.7-1.44,1-.33,1.93-.63,2.93-.88.29-.09.59-.16.88-.24a33.36,33.36,0,0,1,10.61-1C42.73,29.39,31.65,39.25,23.47,44.57Z"/><path class="cls-7" d="M12.3,53.42c-2.12,3.28,1.61,7.58,7,8.56s12.88-11.49,13.1-14.41S15.85,47.94,12.3,53.42Z"/><path class="cls-6" d="M43.18,34.38v0c-.15,2.36-.42,4.72-.8,7-.11.71-.24,1.41-.38,2.1s-.29,1.45-.46,2.17a54.08,54.08,0,0,1-2,6.72,28.76,28.76,0,0,1-7.31,11.16,12.83,12.83,0,0,1-8.6,3.69C19,67.22,14,63.8,9.61,55a.05.05,0,0,1,0,0,2.1,2.1,0,0,1-.15-.3c.62,1.07,5.93,9.89,14.17,9.38.28,0,.56,0,.84-.08a10,10,0,0,0,5.6-3.07c5.46-5.36,8.53-15.82,8.5-16.56,0-.18-.16-.33-.4-.46A14.31,14.31,0,0,0,34,43.07l.07,0h0l.18,0,.42-.11c1.72-.45,6.08-1.9,7.13-5s-.69-9.4-3-11.52a2.4,2.4,0,0,0-1.54-.73,8,8,0,0,0,.63-.59,7.87,7.87,0,0,0,2.37-5.46,6.55,6.55,0,0,0-.89-2.92l1-.1,1.19-.1A53.2,53.2,0,0,1,43.18,34.38Z"/><path class="cls-8" d="M37.58,63c-4.57,4.5,11.72,3,14.6.8,5.14-4,9.22-10.64,11.06-19.91s-15-9.86-15.48-9.71-.84,7.35-3,16.78S37.58,63,37.58,63Z"/><path class="cls-7" d="M31,70.31c-1-.61,3.33-3.31,5.78-3.94s13.29-.73,13.68-.58-2,2.14-7.15,3S31,70.31,31,70.31Z"/><path class="cls-9" d="M44.9,47.32v0a.65.65,0,0,1,0,.1A.45.45,0,0,1,44.9,47.32Z"/><path class="cls-9" d="M46.47,28.4a114.45,114.45,0,0,1-1.24,16.88c-.13.93-.25,1.58-.3,1.9,0,0,0,0,0,0,0-.36.18-1.25.33-2.55a101.25,101.25,0,0,0,.4-19c0-.17,0-.33,0-.5s0-.44-.06-.66-.06-.67-.1-1c-.12-1-.26-2-.44-3a.4.4,0,0,0,0-.15c-.22-1.34-.5-2.67-.84-4h.14l1.14-.09c.15.78.28,1.57.39,2.36.07.47.13.95.18,1.43,0,0,0,0,0,0,.15,1.24.26,2.49.33,3.73,0,.4,0,.8.07,1.19,0,.14,0,.28,0,.41C46.44,26.37,46.46,27.4,46.47,28.4Z"/><path class="cls-9" d="M63.87,45.17c-2.77,13.3-10.16,23.32-19.14,24L23.66,70.9v0c-11.28.26-21-12.63-23.13-30.52.32,1.33,5.53,22.43,14.35,26.9a23.61,23.61,0,0,0,8.77,2.55,17,17,0,0,0,6.62-.64h0l.07,0s3.08.78,9,.18a59,59,0,0,0,7.24-1.54C59.31,61.54,63.62,45.71,63.87,45.17Z"/><path class="cls-10" d="M20.1,36.08c-1,2.08,2,.14,2.63-1S21,34,20.1,36.08Z"/><path class="cls-6" d="M7.18,36.18a3.54,3.54,0,0,0,.47.07c-.44.27-.88.55-1.3.83s-.89.6-1.31.91a10.2,10.2,0,0,1,.81-1.77c.07-.11.14-.24.21-.37l.18.07A6.24,6.24,0,0,0,7.18,36.18Z"/><path class="cls-6" d="M37.29,25.68s-2.9.56-7.11,1.7c-2,.54-4.35,1.21-6.81,2-.29.09-.58.18-.88.29-1,.32-1.94.66-2.93,1-1.24.46-2.49.94-3.73,1.46l0,0,2.63-2,1.59-1.24,2.65-2.09a.06.06,0,0,1,0,0l.1-.05.5-.4.92-.72q.7-.08,1.41-.12a69.23,69.23,0,0,1,9.27,0C36.4,25.58,37.29,25.68,37.29,25.68Z"/><path class="cls-6" d="M9.38,53.54s-.6-3.23,8.49-6.73C26.64,43.44,37.29,44,37.29,44S27.08,44.71,9.38,53.54Z"/><path class="cls-6" d="M25.39,64.64c-5.57-.17,1.39.89,7.82-6.25,6.27-7,7.82-10.87,7.82-10.87S38.1,62.24,25.39,64.64Z"/><path class="cls-10" d="M21,48.41c-1.31.87,3.26,1.06,5-.64S22.38,47.46,21,48.41Z"/><path class="cls-6" d="M.1,30.94c.25.35.53.72.84,1.09C.47,35.14.22,37.18.22,37.18c0-.17,0-.33,0-.5A53,53,0,0,1,0,30.83,1,1,0,0,1,.1,30.94Z"/><path class="cls-11" d="M46.13,20c-2.32-.2-4.46,3.92-.29,5.19S48.59,20.23,46.13,20Z"/><path class="cls-6" d="M46.13,20c-1.5-.24-2.58,2.43-.77,3.4s3.17-.36,3-1S47,20.15,46.13,20Z"/><path class="cls-12" d="M43.61,22.7c0-.44,1.56,1.95,2.78,2.23,2.22.5,1.69-1.76,1.88-1.62a1.58,1.58,0,0,1-1.81,2C44.45,25.08,43.51,23.49,43.61,22.7Z"/><path class="cls-13" d="M52.62,44.16c-1.55.79-2,5.91,1,5.46S54.27,43.33,52.62,44.16Z"/><path class="cls-6" d="M52.62,44.16c-1,.4-1.12,3.59.27,3.83s2-1.73,1.7-2.28S53.21,43.94,52.62,44.16Z"/><path class="cls-12" d="M51.59,48c-.06-.48,1.46,1.33,2.32,1.1,1.56-.42.7-2.52.86-2.45s.64,2.29-.72,2.86A1.83,1.83,0,0,1,51.59,48Z"/><path class="cls-14" d="M7.65,36.25,8,36l-.24.25A.39.39,0,0,1,7.65,36.25Z"/><path class="cls-14" d="M15.36,32.37l.5-.22,0,0Z"/><path class="cls-14" d="M22.84,26.73l-.11.09a.06.06,0,0,1,0,0Z"/><path class="cls-15" d="M.1,30.94S8.68,22.1,11.7,19.65s14.68-8,29-8c8.66,0,20.77,1.5,21,2.23s-15.86,3.55-17.32,3.59S23.15,29.42,17.56,33,8.05,37.84,4.61,37.18.1,30.94.1,30.94Z"/><path class="cls-16" d="M55.88,12.65c0,1.23-17,3-18.59,3.56S16.83,29.26,11.7,30.48s-6.87.69-7.09-.33S7.33,19.53,8,18.48s8.38-15.21,9.8-16.25,14.38.48,18.94,0S51.05,4,51.85,4.32,55.83,9.56,55.88,12.65Z"/><path class="cls-17" d="M8,18.48S21.7,9,25.85,8a126.77,126.77,0,0,1,26-3.7s-21-7.06-33.36-3.13C16.64,1.78,8,18.48,8,18.48Z"/><path class="cls-8" d="M51.85,5.52c-1-1.18-11.47-.54-13.74,1.07S37,14,38.11,14.93s16-1.2,16.87-1.74S51.85,5.52,51.85,5.52Z"/><path class="cls-18" d="M10.2,16.83C9,18.52,21.35,8.46,25,7.92a136.38,136.38,0,0,0,14.64-3c3-1,12.22-.59,12.22-.59s-8.38,1-10.23,1.56S33.9,7,31.29,7.25,24.14,9.69,22.15,10,8.32,19.6,8,19.48s0-1,0-1Z"/><path class="cls-7" d="M9,20.42c-1.46-.19-3.55,5.94-2.78,7.45s12.08-2.71,17.48-7,5.8-12.08,4.54-12.27-4.9,1.84-6.19,2S9,20.42,9,20.42Z"/><path class="cls-19" d="M32.9,19.47c-.81,1.47,8.51-.92,12.4-1.83s14.13-3.58,14.26-3.78-13,.71-17.07,1.17S33.54,18.34,32.9,19.47Z"/><path class="cls-20" d="M10.05,30.83s-4.84,5.45-5.82,6.52S5.91,48.64,5.72,50,5,56.4,5,56.4l1.2,2.29s-.74-5.21-.62-5.92S6.85,48,6.85,48,4.22,41.45,5,39.08s7.67-6.85,8.54-8.25,11.6-7.16,11.6-7.16S12.5,30.13,11.7,30.48A4.5,4.5,0,0,1,10.05,30.83Z"/><path class="cls-20" d="M17.36,2.29c-.2.54,13.87.64,17.24.38a11.48,11.48,0,0,0,5.12-1.41l1.75.35S36.22,2.71,35,2.93s-3.44.15-3.92.22A65.28,65.28,0,0,0,41.47,5.74c2.36.19,3.83,9,3.83,9l-.71.06s-2-8.15-2.78-8.64-6.51.28-13-.47S25.48,3.21,23.72,3,17,2.76,17,2.76Z"/><path class="cls-17" d="M25.47,3.84c.12-.49,5.23-.49,5.61-.33s3.3,1.1,3.32,1.4S26.79,6.09,25.47,3.84Z"/><path class="cls-19" d="M3.81,36.92a16.66,16.66,0,0,0,.2,2l1.57-3S3.87,36.19,3.81,36.92Z"/><path class="cls-19" d="M40.42,5.59s2.24-.06,2.45,0S43,7.18,43,7.18A3.68,3.68,0,0,0,40.42,5.59Z"/><path class="cls-6" d="M34.4,4.91V6.05H37s-1.59-1.19-2.13-1.54a13.15,13.15,0,0,0-2.32-.86S34.21,4.28,34.4,4.91Z"/><path class="cls-19" d="M8,19.48c.52.5,6.71-5.51,7-5.65s-2.4-3.93-2.4-3.93S7.06,18.54,8,19.48Z"/><path class="cls-19" d="M7,37.18c-1.31-.27,5.89-5.06,7-5.46s4.93,0,4.93,0S13.35,37,7,37.18Z"/></g></g></g></svg>