<svg xmlns="http://www.w3.org/2000/svg" xmlns:xlink="http://www.w3.org/1999/xlink" viewBox="0 0 64.73 82.01"><defs><style>.cls-1{isolation:isolate;}.cls-2{fill:url(#Áåçûìÿííûé_ãðàäèåíò_523);}.cls-3{fill:url(#Áåçûìÿííûé_ãðàäèåíò_494);}.cls-4{fill:url(#Áåçûìÿííûé_ãðàäèåíò_494-2);}.cls-5{fill:url(#Áåçûìÿííûé_ãðàäèåíò_30);}.cls-6{fill:#ffa5a4;}.cls-7{fill:#ff837c;}.cls-8{fill:url(#Áåçûìÿííûé_ãðàäèåíò_528);}.cls-9{fill:url(#Áåçûìÿííûé_ãðàäèåíò_533);}.cls-10,.cls-14{fill:#cc5748;}.cls-10{opacity:0.64;}.cls-10,.cls-14,.cls-22,.cls-25,.cls-30,.cls-32,.cls-36{mix-blend-mode:multiply;}.cls-11{fill:#b3725e;}.cls-11,.cls-12,.cls-13,.cls-15,.cls-33,.cls-34,.cls-35,.cls-37,.cls-38{mix-blend-mode:soft-light;}.cls-12{fill:#b3ff5e;}.cls-12,.cls-33,.cls-35{opacity:0.5;}.cls-13,.cls-46{fill:#ff956d;}.cls-14,.cls-32{opacity:0.3;}.cls-15{fill:#ffd1b1;}.cls-16{fill:#89242f;}.cls-17{fill:#9f3537;}.cls-18{fill:#f47e37;}.cls-19{fill:#f48d4a;}.cls-20,.cls-34{fill:#fff;}.cls-21{fill:url(#Áåçûìÿííûé_ãðàäèåíò_458);}.cls-22{fill:#d41892;}.cls-22,.cls-25{opacity:0.4;}.cls-23{fill:#ff9650;}.cls-24{fill:url(#Áåçûìÿííûé_ãðàäèåíò_458-2);}.cls-26{fill:#98003b;}.cls-27{fill:#c25437;}.cls-28{fill:#f4ac44;}.cls-29{fill:#812137;}.cls-30{fill:#e75792;}.cls-31{fill:url(#Áåçûìÿííûé_ãðàäèåíò_76);}.cls-32{fill:#912774;}.cls-33,.cls-38{fill:#ffd8ff;}.cls-35{fill:#ffefff;}.cls-36{fill:#a85592;opacity:0.2;}.cls-37{fill:#f7f;}.cls-39{fill:#800;}.cls-40{fill:#ff4d51;}.cls-41{fill:url(#Áåçûìÿííûé_ãðàäèåíò_25);}.cls-42{fill:url(#Áåçûìÿííûé_ãðàäèåíò_25-2);}.cls-43{fill:#f99c4a;}.cls-44{fill:#ffe0e0;}.cls-45{fill:#b0323e;}.cls-47{fill:url(#Áåçûìÿííûé_ãðàäèåíò_30-2);}.cls-48{fill:#ff6a47;}.cls-49{fill:#ce4a47;}</style><linearGradient id="Áåçûìÿííûé_ãðàäèåíò_523" x1="49.24" y1="81.98" x2="49.24" y2="32.88" gradientUnits="userSpaceOnUse"><stop offset="0" stop-color="#bd3625"/><stop offset="1" stop-color="#d84f2e"/></linearGradient><linearGradient id="Áåçûìÿííûé_ãðàäèåíò_494" x1="0.65" y1="59.16" x2="0.65" y2="58.97" gradientUnits="userSpaceOnUse"><stop offset="0" stop-color="#db5925"/><stop offset="1" stop-color="#e77a2e"/></linearGradient><linearGradient id="Áåçûìÿííûé_ãðàäèåíò_494-2" x1="18.85" y1="82.01" x2="18.85" y2="35.33" xlink:href="#Áåçûìÿííûé_ãðàäèåíò_494"/><linearGradient id="Áåçûìÿííûé_ãðàäèåíò_30" x1="37.2" y1="40.11" x2="37.2" y2="28.34" gradientUnits="userSpaceOnUse"><stop offset="0" stop-color="#ffbba4"/><stop offset="1" stop-color="#ffd1c9"/></linearGradient><linearGradient id="Áåçûìÿííûé_ãðàäèåíò_528" x1="36.26" y1="59.74" x2="62.2" y2="59.74" gradientUnits="userSpaceOnUse"><stop offset="0" stop-color="#591624"/><stop offset="0.22" stop-color="#561322"/><stop offset="1" stop-color="#4f0c1f"/></linearGradient><linearGradient id="Áåçûìÿííûé_ãðàäèåíò_533" x1="0.15" y1="60.31" x2="37.44" y2="60.31" gradientUnits="userSpaceOnUse"><stop offset="0" stop-color="#772224"/><stop offset="0.09" stop-color="#782123"/><stop offset="1" stop-color="#7f1e1f"/></linearGradient><linearGradient id="Áåçûìÿííûé_ãðàäèåíò_458" x1="23.49" y1="52.7" x2="23.49" y2="47.77" gradientUnits="userSpaceOnUse"><stop offset="0" stop-color="#d14d00"/><stop offset="1" stop-color="#c51a00"/></linearGradient><linearGradient id="Áåçûìÿííûé_ãðàäèåíò_458-2" x1="19.36" y1="56.77" x2="19.36" y2="50.12" gradientTransform="translate(1.18 -6.75) rotate(2.56)" xlink:href="#Áåçûìÿííûé_ãðàäèåíò_458"/><linearGradient id="Áåçûìÿííûé_ãðàäèåíò_76" x1="65.68" y1="1.13" x2="65.68" y2="-20.84" gradientTransform="matrix(0.88, 0.48, -0.48, 0.88, -18.45, -1.14)" gradientUnits="userSpaceOnUse"><stop offset="0" stop-color="#bf001d"/><stop offset="1" stop-color="#d60000"/></linearGradient><linearGradient id="Áåçûìÿííûé_ãðàäèåíò_25" x1="0.65" y1="59.16" x2="0.65" y2="58.97" gradientUnits="userSpaceOnUse"><stop offset="0" stop-color="#e77a2e"/><stop offset="1" stop-color="#db5925"/></linearGradient><linearGradient id="Áåçûìÿííûé_ãðàäèåíò_25-2" x1="14.38" y1="62.19" x2="14.38" y2="34.11" xlink:href="#Áåçûìÿííûé_ãðàäèåíò_25"/><linearGradient id="Áåçûìÿííûé_ãðàäèåíò_30-2" x1="10.98" y1="41.39" x2="10.98" y2="33.56" xlink:href="#Áåçûìÿííûé_ãðàäèåíò_30"/></defs><g class="cls-1"><g id="Layer_2" data-name="Layer 2"><g id="layer1"><path class="cls-2" d="M59.77,66.58h0c-.6,3.9-1.08,6.63-1.25,7C58,74.7,35.75,81.79,35.05,82h0l.07-1.71,1.76-40.19s24.7-7.77,26.3-7.17C64.35,33.37,61.55,55,59.77,66.58Z"/><path class="cls-3" d="M.64,59.15h0c0-.06,0-.13.05-.19S.65,59.09.64,59.15Z"/><path class="cls-4" d="M37.41,46.06v.79c0,.35,0,.71,0,1.08,0,2.12-.07,4.51-.15,7,0,.39,0,.8,0,1.2v.08c0,.15,0,.29,0,.44v0c0,.4,0,.81,0,1.22,0,.95-.09,1.93-.14,2.89h0c-.06,1.24-.13,2.47-.19,3.69v0c-.09,1.42-.17,2.83-.26,4.18,0,0,0,0,0,0,0,.28,0,.55-.05.83s0,.71-.08,1,0,.65-.07,1,0,.46,0,.68c-.26,3.38-.54,6.21-.79,7.91h0A4.65,4.65,0,0,1,35.05,82h0a3.49,3.49,0,0,1-.87,0l-.43,0-.82-.1L32,81.71l-1.31-.2c-.55-.09-1.14-.17-1.76-.28L27.61,81l-2.94-.53-.94-.18h-.1l-3.51-.67-.7-.14c-1.9-.37-3.82-.77-5.65-1.16h0c-1-.21-1.91-.41-2.8-.62l-.89-.21-.6-.13-1.13-.27c-.91-.23-1.75-.44-2.48-.64L5,76.2c-.65-.19-1.19-.37-1.6-.53a2.52,2.52,0,0,1-.33-.13l-.25-.13a1,1,0,0,1-.21-.15c-.31-.32-.86-3.38-1.46-7.7C1.06,66.78.94,66,.83,65.09l-.07-.55c0-.18,0-.36-.06-.53-.09-.65-.17-1.32-.25-2l0-.18c0-.12,0-.23,0-.35a.28.28,0,0,1,0-.09c0-.2,0-.37-.08-.58v0c.1-.47.23-1.06.4-1.71h0A4.81,4.81,0,0,1,1,58.63c.92-1.53,2.54-4.23,3.17-5.48,0,0,0-.1.07-.14s.06-.13.08-.19a1.26,1.26,0,0,0,.08-.18,1.56,1.56,0,0,0,0-.44,2.28,2.28,0,0,0,0-.37c0-.12,0-.27,0-.43a.17.17,0,0,1,0-.07s0,0,0-.07,0-.3,0-.47,0-.15,0-.24c-.05-.44-.1-.92-.15-1.41a.41.41,0,0,0,0-.11c-.08-.76-.17-1.56-.23-2.32h0c.41-1.44.83-2.78,1.19-3.87a12.65,12.65,0,0,1,1.5-.59L7.33,42h0a5.15,5.15,0,0,0,.71-.26,1,1,0,0,0,.48-.32l0,0h0s0-.08,0-.14,0,0,0,0,0-.18.07-.29.05-.23.08-.38c.22-1,.59-2.73,1-4.09a11.29,11.29,0,0,1,.39-1.13l1.22.17h0c2.79.39,5.79.84,8.71,1.31s5.9,1,8.44,1.46l.25,0h0c1.37.25,2.62.49,3.71.71h0a34.09,34.09,0,0,1,4.29,1h0l0,0,0,0a1.33,1.33,0,0,1,.26.7h0a36.46,36.46,0,0,1,.25,5A2.72,2.72,0,0,1,37.41,46.06Z"/><path class="cls-5" d="M61.4,33.08h0l-.06,0h0a163.19,163.19,0,0,1-20.94,6.51c-.86.18-1.63.32-2.26.4H38l-.53,0-.25,0h-.4a65,65,0,0,1-8-1.09h0l-.23,0c-2.56-.47-5.46-1-8.42-1.63s-6-1.24-8.78-1.85h0l-1.19-.27-.07,0-.12,0h0l.55-.6c.3-.33,19.13-6.21,21.92-6.24.66,0,1.36,0,2.11,0h.18l1.4,0,.53,0c1.38.05,2.86.12,4.37.21h.24c3.37.2,7,.49,10.3.81h0l.12,0,.36,0h0l1.39.15h0l.47.05.14,0h0l.29,0,.47.05H55c5.13.58,9,1.18,9.42,1.59C64.62,31.62,63.41,32.25,61.4,33.08Z"/><path class="cls-6" d="M37.74,44.21a2.45,2.45,0,0,0,0,.27,8.66,8.66,0,0,1-.17,1.3c0,.17-.09.26-.14.28a5.9,5.9,0,0,1-.8-.07c-1.06-.13-3.07-.43-5.66-.83l-2.47-.38h0l-.16,0-.31,0L20.8,43.53h-.05l-1.16-.2c-1.36-.22-2.72-.46-4.08-.7h0c-1.78-.3-3.53-.62-5.19-.92l-.61-.11-1.08-.2H8.56s0-.08,0-.14,0,0,0,0,0-.18.07-.29.05-.23.08-.38c.22-1,.59-2.73,1-4.09a11.29,11.29,0,0,1,.39-1.13l-.12,0-.14,0,.1-.11.55-.6.42.08,1.78.35L20,36.44l8.48,1.69.28.06,3,.62h0c2.61.54,4.53,1,5.31,1.16h0l.15,0,.17.06h0C37.78,40.33,37.84,42.55,37.74,44.21Z"/><path class="cls-7" d="M64.4,31.38c1.15-.3-1.07,8-1.41,8.41s-24.76,6.28-25.57,6.28c-.57,0-.35-5.61-.16-6C37.77,39.12,64.4,31.38,64.4,31.38Z"/><path class="cls-8" d="M37,56.42c-.21.58-1,12.23-.71,13.06.43,1.43,22.71-5.56,23.94-7.28s2.32-11.59,1.83-12.36c-.23-.36-5.63,1.74-11.36,3.18C44.21,54.66,37.27,55.71,37,56.42Z"/><path class="cls-9" d="M36.55,68.74h0s0,0,0,0a3.65,3.65,0,0,1-.22.7c-.07.14-.32.24-.75.29-1.83.23-6.81-.32-12.44-1.16l-.1,0c-1.43-.21-2.9-.46-4.38-.69s-2.86-.51-4.22-.74l-.16,0-.6-.11-.1,0c-1.06-.19-2.1-.38-3.09-.58h0c-.64-.12-1.27-.24-1.85-.37l-.23,0C4,65.12.89,64.34.7,64v0a0,0,0,0,0,0,0c-.19-.68-.35-1.4-.5-2.12a.07.07,0,0,1,0-.05.3.3,0,0,1,0-.1,2.27,2.27,0,0,1,0-.3c0-.16.06-.35.11-.59v0c.1-.47.23-1.06.4-1.71h0A4.81,4.81,0,0,1,1,58.63c.92-1.53,2.54-4.23,3.17-5.48,0,0,0-.1.07-.14s.06-.13.08-.19a1.26,1.26,0,0,0,.08-.18,1.56,1.56,0,0,0,0-.44,2.28,2.28,0,0,0,0-.37c0-.12,0-.27,0-.43a.17.17,0,0,1,0-.07s0,0,0-.07,0-.3,0-.47c1.15.16,2.46.37,3.88.6l4,.69,1.35.25.58.1h.05l1.14.21h.06l3.41.59c2.52.43,5,.84,7.34,1.2l.18,0,.49.07h.05l.13,0h0c4.19.66,7.63,1.19,9.16,1.54l.11,0h0a2,2,0,0,1,.7.26.62.62,0,0,1,.15.27v0a7,7,0,0,1,.2,1.19A48.45,48.45,0,0,1,36.55,68.74Z"/><path class="cls-10" d="M62.49,46.36a23,23,0,0,1-.41,3.48C61.94,50,52.16,53,44.75,55l-.69.18-.34.09-1.29.34a.5.5,0,0,0-.13,0l-.39.1-1,.25-.12,0h-.06l-.48.11h0a23.55,23.55,0,0,1-3,.57h0l-.2,0c-.28-.07-.55-.13-.83-.18l-2.58-.56c-2.27-.48-4.43-.92-6.47-1.3l-.26,0h0l-.48-.09-.18,0c-4.05-.77-7.63-1.35-10.75-1.79h-.06l-1.65-.24h0l-.2,0-2.32-.31-1.91-.23c-.19,0-.37,0-.54-.06l-1.62-.18H7l-2.65-.26s0,0,0-.07,0-.3,0-.47,0-.15,0-.24c-.05-.44-.1-.92-.15-1.41l.39.1c2.33.63,5.2,1.3,8.29,1.94h0l2.09.43c4,.8,8.24,1.55,12,2.14l.11,0h0l.1,0c3.66.57,6.87,1,9,1.13l1,.06h0C44.77,55.21,60.19,49.26,62.49,46.36Z"/><path class="cls-10" d="M60.64,61.37l0,.06-.14.31-.09.23h0l-.16,1.54,0,.14h0c-.44.18-11.4,4.65-18.81,6.81l-.06,0a27.59,27.59,0,0,1-5,1.12H36.2l-.71-.18c-.87-.22-1.75-.45-2.66-.65h0c-2.19-.51-4.47-1-6.76-1.48h0c-2.49-.5-5-1-7.38-1.4-1.45-.27-2.86-.51-4.22-.74l-.16,0-.5-.08c-3.19-.53-6-1-8.24-1.3L1.6,65.19l-.77-.1-.07-.55L.69,64a0,0,0,0,0,0,0,7.75,7.75,0,0,1-.59-2.18H.15a.32.32,0,0,1,0-.1,2.27,2.27,0,0,1,0-.3l.2.08,1.17.44h0c.46.18,1,.38,1.68.61a127.29,127.29,0,0,0,19.27,5.25l.09,0h0l.16,0a70.87,70.87,0,0,0,7.31.92h.05a41.79,41.79,0,0,0,5.47,0c.23,0,.45,0,.66,0l.28,0h0c13.82-1.15,22.86-6.59,24-7.3h0Z"/><path class="cls-11" d="M37.19,62a11.44,11.44,0,0,1-.39,2.51v0a7,7,0,0,1-.46,1.18v0a4.53,4.53,0,0,1-.64.93h0c-1,1.22-2.74,2-5.56,2h-.05a21.65,21.65,0,0,1-2.76-.17c-1.35-.17-2.9-.43-4.55-.75l-.16,0h0l-.09,0C15.78,66.46,7.45,64.14,3.9,62.59c-.37-.17-.69-.32-.95-.46h0A.67.67,0,0,1,2.76,62h0a2.12,2.12,0,0,1-.5-.38.47.47,0,0,1-.06-.09A10,10,0,0,1,1,58.63c.92-1.53,2.54-4.23,3.17-5.48,0,0,0-.1.07-.14s.06-.13.08-.19a1.26,1.26,0,0,0,.08-.18,1.56,1.56,0,0,0,0-.44,2.28,2.28,0,0,0,0-.37c0-.12,0-.27,0-.43l2.14.29,3,.45,1.19.19h0l1.06.16.92.15c1.73.3,3.66.62,5.76,1l.93.18c2.41.44,4.65.91,6.68,1.43l.19,0,.63.16c4.29,1.13,7.51,2.42,9.14,4a4.51,4.51,0,0,1,.64.77h0a3.93,3.93,0,0,1,.33.6h0A2.82,2.82,0,0,1,37.19,62Z"/><path class="cls-10" d="M59.77,66.59c-.6,3.9-1.08,6.63-1.25,7C58,74.7,35.75,81.79,35.05,82h0c-1.37.44-30.9-5.17-32.4-6.72-.31-.32-.86-3.38-1.46-7.69,0,0,1.85,6.4,3.88,7.35,4.39,2,26.34,12.91,52.89-2.35C60.06,71.35,59.69,66.93,59.77,66.59Z"/><path class="cls-12" d="M1.8,65.18c-1-.09.44,1.54,1.57,2s30.49,4.3,31.16,4.44a155.34,155.34,0,0,0-19.4-4.56C7.24,66,1.8,65.18,1.8,65.18Z"/><path class="cls-13" d="M36.4,50.72s0,0,0,0v0h0c-.61,1.77-2,3.37-4.41,3.17-.94-.08-2.6-.29-4.67-.59h-.13c-3.32-.47-7.7-1.18-11.9-1.95s-8-1.53-10.7-2.24L4.16,49c-.08-.76-.17-1.56-.23-2.32h0c.41-1.44.83-2.78,1.19-3.87a12.65,12.65,0,0,1,1.5-.59L7.33,42h0a5.15,5.15,0,0,0,.71-.26,1,1,0,0,0,.48-.32l0,0h.07l1.25.18,3.58.57,6.19,1c2.81.48,5.57,1,8,1.41l.51.09h.12l.18,0h.06l2.41.46a27.76,27.76,0,0,1,5.45,1.41h0l.06,0a.19.19,0,0,1,.09.09v.06a3,3,0,0,1,.22,1.07h0A7.63,7.63,0,0,1,36.4,50.72Z"/><path class="cls-14" d="M38.87,45.79c-2.5-.35-.45-4.28,1.67-6.36s19.05-6.7,21.05-6.29-5.06,8.5-12.1,10.17S38.87,45.79,38.87,45.79Z"/><path class="cls-14" d="M38,54.43c-1-.56-.16-6,.43-6.66s21.84-6.2,22.93-5.8-.64,6.72-9.45,9.54S38,54.43,38,54.43Z"/><path class="cls-10" d="M38.24,68.28c-.84-.47-.58-9.32-.07-10.57s19-6.08,20.44-6.13.92,9.67-5.07,12.76S38.24,68.28,38.24,68.28Z"/><path class="cls-15" d="M57.66,31.84a26.47,26.47,0,0,1-3.27,1.23h0c-.2.07-.42.13-.64.22l-.12,0a111.65,111.65,0,0,1-12.69,3.36h0c-.77.13-1.46.23-2,.28a14,14,0,0,1-1.49,0h0c-1.49-.06-3.5-.27-5.72-.59-4.62-.65-10.13-1.73-13.77-2.64,1-1.08,6.25-3.22,8.27-3.49,3-.43,6.2-.79,9-1,.53,0,1.09-.06,1.66-.06h1.66c1.18,0,2.41.06,3.65.12l.21,0c2.95.18,6,.51,8.55.87h0l.1,0,.28.05,1.08.16c.13,0,.26,0,.39.06l.14,0,.21,0,.39.06.05,0h0l.45.07H54c1,.18,1.89.37,2.52.53h0C57.43,31.51,57.86,31.71,57.66,31.84Z"/><path class="cls-16" d="M53.68,75.55S58.44,71,59,70.42c0,0,0,2.85-.47,3.17S53.68,75.55,53.68,75.55Z"/><path class="cls-10" d="M63.63,37.86l-.41,1.24v0l-.22.67h0l-2,.62-.06,0C56.87,41.73,47.75,44.55,42.07,46h0a20.83,20.83,0,0,1-4.63.85l-.13,0c-.1,0-.35-.1-.7-.19l-.1,0-.58-.12-.18,0c-.62-.14-1.39-.32-2.31-.49l-.14,0c-1.35-.29-3-.61-4.81-1h0l-.17,0C26,44.49,23.43,44,20.8,43.53h-.05l-1.15-.21-4.72-.84-4.57-.77-.66-.1-1.12-.18,0,0h0s0-.08,0-.14,0,0,0,0,0-.18.07-.29.05-.23.08-.38l.88.2,1.78.38.74.16.52.11c2.28.5,4.67,1,7,1.48,2.65.55,5.28,1.06,7.69,1.5l.46.09h.08l.37.07.18,0,.08,0c3.39.6,6.26,1,8,1.15l.61,0h.51l.78-.06h0c3.51-.41,10.29-2.57,15.9-4.51,4.23-1.47,7.8-2.81,8.88-3.22Z"/><path class="cls-17" d="M33.41,55.74a25.46,25.46,0,0,0,3.73.45c.83-.08,3.17-.17,3.17-.17A4.91,4.91,0,0,1,37.15,58C35.31,58.07,33.41,55.74,33.41,55.74Z"/><path class="cls-18" d="M32.82,70.79s2.75,1.33,3.46,1.51,5.11-1.81,5.11-1.81Z"/><path class="cls-19" d="M33.27,45.93a31.28,31.28,0,0,0,4.36.77A31.8,31.8,0,0,0,42.08,46s-3.39,1.85-4.63,2S33.27,45.93,33.27,45.93Z"/><path class="cls-20" d="M30.54,38.37c-.15-.83,11.93-1.49,12.84-1.52s-3.78,3.39-6.12,3.25A32.82,32.82,0,0,1,30.54,38.37Z"/><path class="cls-20" d="M52.66,30.17c-2.54.4,3.51,1.68,5.71,1.29S56.67,29.52,52.66,30.17Z"/><path class="cls-21" d="M22.83,47.84c-1.43.71-1.72,5.24,1.08,4.83S24.37,47.08,22.83,47.84Z"/><path class="cls-22" d="M22.83,47.84c-.95.36-1,3.19.36,3.39s1.83-1.54,1.54-2S23.38,47.64,22.83,47.84Z"/><path class="cls-23" d="M22,51.23c-.07-.42,1.3.76,2.1.56,1.47-.38.7-1.83.85-1.77s.67,2-.6,2.55A1.78,1.78,0,0,1,22,51.23Z"/><path class="cls-24" d="M17.4,44.25c-2,.87-2.65,6.94,1.15,6.57S19.51,43.33,17.4,44.25Z"/><path class="cls-22" d="M17.4,44.25c-1.31.43-1.49,4.22.27,4.58s2.56-2,2.21-2.63S18.15,44,17.4,44.25Z"/><path class="cls-23" d="M16,48.75c-.07-.57,1.68,1.8,2.77,1.57,2-.42,1.27-3.1,1.47-3s.6,2.79-1.15,3.39A2.39,2.39,0,0,1,16,48.75Z"/><g class="cls-25"><path class="cls-26" d="M43.39,76.59c1.51.26.93-2,0-2.15S41,76.2,43.39,76.59Z"/><path class="cls-26" d="M43.52,52.89c-1.36,1.42-3.06-1.92-.71-3.63S44.69,51.67,43.52,52.89Z"/><path class="cls-26" d="M42.76,59.52c.65.39.53-1.55,0-1.37S42.38,59.29,42.76,59.52Z"/><path class="cls-26" d="M55.14,57.53c-.06,1.37-2.66,1.45-2.7.28S55.22,55.68,55.14,57.53Z"/><path class="cls-26" d="M7.49,71.57c1.28-1.11,3.59,2.11,3,2.67S6,72.89,7.49,71.57Z"/><path class="cls-26" d="M51.83,61.34c-.27.34.26,1.23,1,.75S52.32,60.7,51.83,61.34Z"/></g><path class="cls-27" d="M23.92,54.15c-.56,0-2.31-.15-4.54-.33s-5.26-.48-7.89-.81h0c-.7-.08-1.38-.17-2-.27l-.55-.09L8,52.49h0l-.69-.11c-.71-.12-1.38-.26-2-.39l-.8-.16c0-.12,0-.27,0-.43a.17.17,0,0,1,0-.07s0,0,0-.07c.78.07,1.69.18,2.75.31l1.53.2c.17,0,.35,0,.54.06l1.66.24h0l1.73.27h0l.64.09h0l.51.08h0C18.3,53.2,23,54,23.92,54.15Z"/><path class="cls-28" d="M5.7,65.74c-2-.12.78,2.41,4.87,2.61s6.56.07,6.7-.12S11.58,66.09,5.7,65.74Z"/><path class="cls-29" d="M40.7,56s17-4.33,20.38-5.53C61.08,50.49,56.28,54.66,40.7,56Z"/><path class="cls-28" d="M16.15,43.27A87,87,0,0,1,7.34,42a5.15,5.15,0,0,0,.71-.26,1,1,0,0,0,.48-.32l0,0h0s0-.08,0-.14l.7.11c.36,0,.72.12,1.08.18,1.09.2,2.13.41,3.07.61.52.11,1,.22,1.43.33l.62.15h0C17.2,43.07,17.8,43.37,16.15,43.27Z"/><path class="cls-30" d="M36.28,31.49c-4.75.69,4,3.15,15,2.19S56.72,28.51,36.28,31.49Z"/><path class="cls-31" d="M56.19,28.19h0a11,11,0,0,1-.81,1.06,11.49,11.49,0,0,1-2.55,2.28h0c-.26.16-.52.32-.78.46a11.77,11.77,0,0,1-1.08.51c-4.55,1.87-9.73.54-12.44-1-2.94-1.62-7.28-5.81-7.6-11.3h0a11.27,11.27,0,0,1,.21-2.86h0a11.67,11.67,0,0,1,.34-1.32c2.41-7.48,8.46-9,12.59-6.53,2.58,1.53,3.19,3.09,4.5,3.81s3,.41,5.63,1.77C58.21,17.17,60.19,22.53,56.19,28.19Z"/><path class="cls-32" d="M51.47,15.79c2.22,1.18-.68,2.92-5.84-.35-3.72-2.37-.66-3.68.82-3.14S47.79,13.84,51.47,15.79Z"/><path class="cls-32" d="M44.53,14.59c-.91-.66,3.27-.1,5.17,1.5S49,17.88,44.53,14.59Z"/><path class="cls-32" d="M38.84,13.62c-3.25-4.82-8,.77-6.91,7C33.25,28.1,43,34.14,48.63,32.06c3.83-1.42,7.25-7.4,5.95-9.18-.8-1.09-4.63,1.39-10.3-2.21S39.79,15,38.84,13.62Z"/><path class="cls-33" d="M44.41,11.13C44.67,9,39.52,8.54,38,10.39s2.62,8.19,7.08,10.73,10.11.18,11.8-1.51-2.35-4.89-4.32-4.8.69.07-.89,2.38-7-1.07-8.5-3.87S44.28,12.21,44.41,11.13Z"/><path class="cls-34" d="M44.28,12.4C43,13.54,46.42,13.49,49,15.27s2.89,1.54,3,1-1.37-.31-3.2-2.27S45.35,11.48,44.28,12.4Z"/><path class="cls-35" d="M52.83,31.53h0A7.64,7.64,0,0,0,52,32c-4.79,2.59-10.6,1.16-13.52-.45-3.44-1.89-8.78-7.3-7.39-14.17h0c2.57-5.62,7.62,6.8,10.09,11.57S52.07,31.16,55,28.6c1.18-1,1.43-.94,1.16-.41h0A9.7,9.7,0,0,1,52.83,31.53Z"/><path class="cls-36" d="M54.09,22.61c-1.71-.94-5.74,1.26-10,1.54s-4.23,4.76-.47,7,8.14-1.33,10.16-4S54.75,23,54.09,22.61Z"/><path class="cls-36" d="M40,16.39c-2.41-3.93-2-5.11-3.69-4.83S32.54,13.19,34.81,17s6.54,4.23,7.53,3.8S40.91,17.93,40,16.39Z"/><path class="cls-37" d="M32.37,25.24c.2-.62,5.86,6.46,11.94,7.54s10.17-3.57,11.63-4.88-3.28,4.26-5.71,4.88C46.67,33.69,39,35.37,32.37,25.24Z"/><path class="cls-20" d="M41.19,11.52c-2.22-.71-1,2.52.8,4.85s4.37,2.26,6,3.34,2.11-.21,2.14-.69-.68.48-3.81-1.15S43,12.1,41.19,11.52Z"/><path class="cls-20" d="M53.24,17.81c-.79-.13-1.08.49-1.59.93s1.79,1,2.56.12S53.81,17.9,53.24,17.81Z"/><path class="cls-34" d="M44.71,13.23c-1.64-.7.6-1.27,2.31-.52a5.92,5.92,0,0,1,2.32,2.1C49.53,15.2,46.61,14,44.71,13.23Z"/><path class="cls-34" d="M50,15.14c-.59-.18-.18.64.3.77s.73.05.76-.15S50.31,15.25,50,15.14Z"/><path class="cls-34" d="M56.83,22.82c-1.22-.4-1.74,3.58-2.48,4.5s1.69-.37,2.43-2S57.13,22.92,56.83,22.82Z"/><path class="cls-20" d="M41,9.37c-.4.17,1.46,1.09,2.44,1.43s1.49.26,1.65.15S43.22,8.4,41,9.37Z"/><path class="cls-36" d="M56.19,28.19h0a11,11,0,0,1-.81,1.06,11.49,11.49,0,0,1-2.55,2.28h0c-.26.16-.52.32-.78.46a11.77,11.77,0,0,1-1.08.51h0s5.21-3.21,6.5-8.9S56,16.67,52,15.2s-4.17-2.54-8.1-5.45-13.13,2.73-13,10.49a11.27,11.27,0,0,1,.21-2.86h0a11.67,11.67,0,0,1,.34-1.32c2.41-7.48,8.46-9,12.59-6.53,2.58,1.53,3.19,3.09,4.5,3.81s3,.41,5.63,1.77C58.21,17.17,60.19,22.53,56.19,28.19Z"/><path class="cls-38" d="M42.3,11.47c-2.84-.91-3.6-1.4-3.24,1.41s1.48,6.83,7.35,8.59,8.72-1.56,9.3-2.81-3.14-.59-5-.67a8.5,8.5,0,0,1-6.5-2.85C42.28,12.81,42.8,11.63,42.3,11.47Z"/><path class="cls-39" d="M59.81,2.18S52.65,7.4,49,13.79c-.08.13-.16.26-.23.4A20.12,20.12,0,0,0,48,16.4a2.48,2.48,0,0,1-2.1-1.15,4.33,4.33,0,0,0,1.36-1.18,2.52,2.52,0,0,0,.3-.45c1.78-3.22,5.17-10.13,10-13.56A2,2,0,0,1,59.81,2.18Z"/><path class="cls-39" d="M57.63.06a8.27,8.27,0,0,0-3.14,1.86c-1.62,1.48.15,4.75.39,4.52a11.73,11.73,0,0,0,4.93-4.26Z"/><path class="cls-40" d="M57.63.06c-.81.2-2.51,1-1.84,1.42s4,.7,4,.7S59.61-.43,57.63.06Z"/><path class="cls-32" d="M53.49,4.08a5,5,0,0,0-1.08,3.66c.21,1.28,2.3-1.36,2.3-1.36a5.32,5.32,0,0,1-.89-2.69Z"/><path class="cls-34" d="M51.62,6.66c1.31-2,1.61-1.58.14.94a38.2,38.2,0,0,1-3.6,5S50.68,8,51.62,6.66Z"/><path class="cls-38" d="M33.78,25.11c2.43.58-1.9-5.31-.21-10.44s6.07-5.17,6.55-5.41S34.75,8.68,32.3,15C29.67,21.79,33.78,25.11,33.78,25.11Z"/><path class="cls-41" d="M.64,59.15h0c0-.06,0-.13.05-.19S.65,59.09.64,59.15Z"/><path class="cls-42" d="M28.61,39.43c0,1.19-.1,3-.29,5a.28.28,0,0,1,0,.09.41.41,0,0,1,0,.11v0h0a.13.13,0,0,1,0,.06.45.45,0,0,1,0,.12v.07a.09.09,0,0,0,0,.05.41.41,0,0,1,0,.11v.09c0,.06,0,.13,0,.2-.28,2.94-.69,6-1.06,7.94l-.09.43h0L27,54a1,1,0,0,1,0,.12s0,0,0,.05a1.17,1.17,0,0,1-.14.33v0s0,0,0,0a1.72,1.72,0,0,1-.26.38v0a3.13,3.13,0,0,1-.31.33l-.41.36a21,21,0,0,1-4.73,2.58L21,58.3c-5.06,2.17-11.87,4-14.56,3.89-1.48,0-2.71-.11-3.68-.18h0L2,62l-.41,0h0L.42,61.83l-.25,0h0a.32.32,0,0,1,0-.1,2.27,2.27,0,0,1,0-.3c0-.16.06-.35.11-.59v0c.1-.47.23-1.06.4-1.71h0A4.81,4.81,0,0,1,1,58.63c.92-1.53,2.54-4.23,3.17-5.48,0,0,0-.1.07-.14s.06-.13.08-.19a1.26,1.26,0,0,0,.08-.18,1.56,1.56,0,0,0,0-.44,2.28,2.28,0,0,0,0-.37c0-.12,0-.27,0-.43a.17.17,0,0,1,0-.07s0,0,0-.07,0-.3,0-.47,0-.15,0-.24c-.05-.44-.1-.92-.15-1.41a.41.41,0,0,0,0-.11c-.08-.76-.17-1.56-.23-2.32v0c0-.07,0-.15,0-.23.38-1.33.77-2.54,1.11-3.52,0,0,0,0,0,0l.09-.05a12.65,12.65,0,0,1,1.5-.59L7.33,42h0a5.15,5.15,0,0,0,.71-.26,1,1,0,0,0,.48-.32l0,0h0s0-.08,0-.14,0,0,0,0,0-.18.07-.29.05-.23.08-.38c.22-1,.59-2.73,1-4.09a11.29,11.29,0,0,1,.39-1.13l-.12,0,.09-.1.14-.16.06,0,.06-.07a3.9,3.9,0,0,1,.58-.27c2.9-1.1,9.12-.29,12.3.3l.21,0c.58.11,1,.21,1.34.29a7.83,7.83,0,0,1,3.41,2.25,3.28,3.28,0,0,1,.3.59l0,.14c0,.09,0,.21,0,.33a.53.53,0,0,1,0,.13c0,.08,0,.16,0,.25S28.61,39.26,28.61,39.43Z"/><path class="cls-43" d="M28.48,44.78l0,.19h0c-.11,1-.67,6-1.23,8.37,0,.16-.07.3-.11.43S27.06,54,27,54a1.65,1.65,0,0,1-.09.22v0a.79.79,0,0,1-.12.23l0,0-.26-.06-.14,0-.33-.07-.25-.05-.42-.08a105.09,105.09,0,0,0-11.22-1.82h-.05c-.15,0-.31,0-.46,0h0l-.22,0h0l-.77,0h0c-.64,0-1.28,0-1.91,0h0c-.94,0-1.86.08-2.74.16h0c-1.23.12-2.34.28-3.26.44L4.2,53c0-.07.06-.13.08-.19a1.26,1.26,0,0,0,.08-.18,1.56,1.56,0,0,0,0-.44,2.28,2.28,0,0,0,0-.37c0-.12,0-.27,0-.43a.17.17,0,0,1,0-.07s0,0,0-.07,0-.3,0-.47,0-.15,0-.24c-.05-.44-.1-.92-.15-1.41a.41.41,0,0,0,0-.11c-.08-.76-.17-1.56-.23-2.32v0c.41-1.47.82-2.87,1.09-3.75,0,0,0,0,0,0l.09-.05a12.65,12.65,0,0,1,1.5-.59L7.33,42h0a5.15,5.15,0,0,0,.71-.26,1,1,0,0,0,.48-.32l0,0h.07l.68,0c.87,0,1.85-.06,2.86-.06,1.21,0,2.48,0,3.7.07h.31c.61,0,1.2,0,1.78.08h.17c.39,0,.76,0,1.13.09l.71.06a15.83,15.83,0,0,1,2.84.46,40.69,40.69,0,0,1,5.14,2.41l.3.17.06,0,.08,0,.07,0Z"/><path class="cls-44" d="M28.57,44.6l0,.1-.06.08h0l-.07,0-.08,0-.11,0h0l-.32-.16a40.16,40.16,0,0,0-4.12-1.69A23.48,23.48,0,0,0,21.06,42L20,41.69l-.7-.14a19.17,19.17,0,0,0-2-.26c-1.95-.16-4-.19-5.85-.16-1,0-2,0-2.81.09,0-.08,0-.18.07-.29s.05-.23.08-.38c.22-1,.59-2.73,1-4.09a11.29,11.29,0,0,1,.39-1.13l-.12,0-.14,0,.11-.11a2.23,2.23,0,0,1,.3-.2l.08,0a3.9,3.9,0,0,1,.58-.27c2.9-1.1,9.12-.29,12.3.3l.21,0c.58.11,1,.21,1.34.29a7.83,7.83,0,0,1,3.41,2.25,8.69,8.69,0,0,1,.58.65v.13h0c0,.14,0,.38,0,.7h0C28.9,40.53,29,43.7,28.57,44.6Z"/><path class="cls-45" d="M27.49,55a2.83,2.83,0,0,1-.61.45,77.89,77.89,0,0,1-12,5.65l-.93.33c-.94.32-1.83.6-2.65.8a25,25,0,0,1-7.43.35c-.23,0-.45,0-.66-.06A12.78,12.78,0,0,1,.45,62a.63.63,0,0,1-.27-.16s0,0,0-.05a.32.32,0,0,1,0-.1,2.27,2.27,0,0,1,0-.3c0-.16.06-.35.11-.59v0c.1-.47.23-1.06.4-1.71h0A4.81,4.81,0,0,1,1,58.63c.92-1.53,2.54-4.23,3.17-5.48,0,0,0-.1.07-.14s.06-.13.08-.19l.23,0c.78-.14,1.73-.29,2.74-.41.74-.1,1.51-.18,2.26-.24.47,0,.92-.06,1.36-.07h1.32c.44,0,1,.07,1.62.14h0c3.88.39,10.75,1.5,13,2.29l0,0,.12,0h0l.09,0C27.44,54.76,27.6,54.9,27.49,55Z"/><path class="cls-10" d="M20.12,40.47c0,.36-.09.75-.16,1.14,0,0,0,0,0,.08s0,0,0,0c-.07.37-.14.77-.23,1.16a1.82,1.82,0,0,1-.07.25,1.16,1.16,0,0,1,0,.18h0c-.13.53-.3,1.08-.48,1.64l-.06.17a22.59,22.59,0,0,1-1.53,3.66c-.14.25-.29.49-.44.72s-.27.38-.41.56a.48.48,0,0,0-.09.11,5.85,5.85,0,0,1-1.3,1.2.34.34,0,0,1-.12.09,1.15,1.15,0,0,1-.19.14,8.3,8.3,0,0,1-1.15.61h0l-.27.11s-.06,0-.1,0h0a.31.31,0,0,1-.12,0h0l-.16.06c-.14,0-.28.11-.43.15-.37.13-.78.26-1.2.37h0l-.88.23c-3.23.81-4.92.28-5.7-.18l-.22-.13-.17-.14a1.64,1.64,0,0,1-.15-.15,1.56,1.56,0,0,0,0-.44,2.28,2.28,0,0,0,0-.37c0-.12,0-.27,0-.43a.17.17,0,0,1,0-.07s0,0,0-.07,0-.3,0-.47,0-.15,0-.24c0-.4.14-.84.24-1.31a.44.44,0,0,1,0-.1,51,51,0,0,1,2-6.9L7.33,42h0a5.15,5.15,0,0,0,.71-.26,1,1,0,0,0,.48-.32l0,0h0s0-.08,0-.14,0,0,0,0,0-.18.07-.29.05-.23.08-.38c.22-1,.59-2.73,1-4.09a1.37,1.37,0,0,1,.23-.19,8.1,8.1,0,0,1,1.38-.77h0A9.6,9.6,0,0,1,12.74,35a20.21,20.21,0,0,1,6-.58c.54,0,1,.75,1.28,2,0,.12.05.25.07.37s.05.35.07.54A13.84,13.84,0,0,1,20.12,40.47Z"/><path class="cls-10" d="M27.21,53.79l-.21.36-.06.1v0l-.12.23,0,0-.26-.06-.14,0-.33-.07-.25-.05c-2.06-.39-7-1.32-10.44-1.68h-.06c-.53-.06-1-.1-1.47-.13h0l-.68,0c-.42,0-.87,0-1.35,0-.91,0-1.89.08-2.87.16-1.42.12-2.84.27-4,.41l-.77.09s0-.1.07-.14.06-.13.08-.19a1.26,1.26,0,0,0,.08-.18,1.56,1.56,0,0,0,0-.44l.8-.21,1.33-.3.5-.1h0l.09,0c.35-.06.71-.13,1.08-.18a19,19,0,0,1,4.63-.21h0c.66.07,1.44.16,2.28.29,4.42.67,10.58,2,11.82,2.28l.11,0h0Z"/><path class="cls-10" d="M28.49,44.58v.2l0,.19h0a.93.93,0,0,0-.17-.1L28,44.7l-.31-.16-.27-.16a32.45,32.45,0,0,0-3.66-1.6A23.48,23.48,0,0,0,21.06,42c-.37-.09-.74-.18-1.12-.25-.6-.12-1.21-.2-1.82-.26H18c-.57-.05-1.17-.07-1.78-.08h-.31c-1,0-2.13,0-3.18,0-.8,0-1.57.08-2.3.13l-.51,0-.17,0h0c-.58,0-1.12.1-1.6.14a1,1,0,0,0,.48-.32l0,0h0s0-.08,0-.14,0,0,0,0,0-.18.07-.29c.3-.07.63-.12,1-.18a31.24,31.24,0,0,1,8.59-.64,12.58,12.58,0,0,1,1.89.36,28.3,28.3,0,0,1,8.2,4Z"/><path class="cls-13" d="M2,62c.28-.32,5.53-6.48,8-7.41s13,1.66,13.57,2-5.5,3.69-10.48,5.25S2,62,2,62Z"/><path class="cls-46" d="M.68,59c0,.06,0,.12,0,.18h0C.65,59.1.66,59,.68,59Z"/><path class="cls-47" d="M8.55,41.39s.89-6.6,1.08-6.81a34.91,34.91,0,0,1,3.78-1s-2,2-2.67,2.63S8.55,41.39,8.55,41.39Z"/><path class="cls-48" d="M4.36,52.64s-.79-5.52-.79-6.09A13.48,13.48,0,0,1,5,42.49a23.51,23.51,0,0,1,4-1.21s-1.58,4.16-2.37,6S4.36,52.64,4.36,52.64Z"/><path class="cls-49" d="M.45,62s6-5.61,6.89-7,0-2.17,0-2.17a10.09,10.09,0,0,0-3.21.3c-1.72.46-3.8,6.24-4,6.59s.09,2.11.09,2.11Z"/></g></g></g></svg>